<?xml version="1.0" encoding="UTF-8" standalone="no"?><svg xmlns="http://www.w3.org/2000/svg" xmlns:xlink="http://www.w3.org/1999/xlink" contentScriptType="application/ecmascript" contentStyleType="text/css" height="206px" preserveAspectRatio="none" style="width:258px;height:206px;" version="1.1" viewBox="0 0 258 206" width="258px" zoomAndPan="magnify"><defs><filter height="300%" id="f1ku4d8v2dep26" width="300%" x="-1" y="-1"><feGaussianBlur result="blurOut" stdDeviation="2.0"/><feColorMatrix in="blurOut" result="blurOut2" type="matrix" values="0 0 0 0 0 0 0 0 0 0 0 0 0 0 0 0 0 0 .4 0"/><feOffset dx="4.0" dy="4.0" in="blurOut2" result="blurOut3"/><feBlend in="SourceGraphic" in2="blurOut3" mode="normal"/></filter></defs><g><!--class TinkerPopDatabase--><a href="TinkerPopDatabase.html" target="_top" xlink:actuate="onRequest" xlink:show="new" xlink:title="TinkerPopDatabase.html" xlink:type="simple"><rect fill="#FEFECE" filter="url(#f1ku4d8v2dep26)" height="164.5957" id="TinkerPopDatabase" style="stroke: #A80036; stroke-width: 1.5;" width="241" x="6" y="8"/><ellipse cx="65.25" cy="24" fill="#ADD1B2" rx="11" ry="11" style="stroke: #A80036; stroke-width: 1.0;"/><path d="M68.2231,29.6431 Q67.6421,29.9419 67.0029,30.0913 Q66.3638,30.2407 65.6582,30.2407 Q63.1514,30.2407 61.8315,28.5889 Q60.5117,26.937 60.5117,23.8159 Q60.5117,20.6865 61.8315,19.0347 Q63.1514,17.3828 65.6582,17.3828 Q66.3638,17.3828 67.0112,17.5322 Q67.6587,17.6816 68.2231,17.9805 L68.2231,20.7031 Q67.5923,20.1221 66.9988,19.8523 Q66.4053,19.5825 65.7744,19.5825 Q64.4297,19.5825 63.7449,20.6492 Q63.0601,21.7158 63.0601,23.8159 Q63.0601,25.9077 63.7449,26.9744 Q64.4297,28.041 65.7744,28.041 Q66.4053,28.041 66.9988,27.7712 Q67.5923,27.5015 68.2231,26.9204 Z "/><text fill="#000000" font-family="sans-serif" font-size="12" lengthAdjust="spacingAndGlyphs" textLength="114" x="85.75" y="28.5352">TinkerPopDatabase</text><line style="stroke: #A80036; stroke-width: 1.5;" x1="7" x2="246" y1="40" y2="40"/><polygon fill="none" points="17,46.9775,21,50.9775,17,54.9775,13,50.9775" style="stroke: #B38D22; stroke-width: 1.0;"/><text fill="#000000" font-family="sans-serif" font-size="11" lengthAdjust="spacingAndGlyphs" text-decoration="underline" textLength="67" x="26" y="54.6348">LOG: Logger</text><polygon fill="none" points="17,59.9326,21,63.9326,17,67.9326,13,63.9326" style="stroke: #B38D22; stroke-width: 1.0;"/><text fill="#000000" font-family="sans-serif" font-size="11" lengthAdjust="spacingAndGlyphs" textLength="105" x="26" y="67.5898">graph: TinkerGraph</text><polygon fill="none" points="17,72.8877,21,76.8877,17,80.8877,13,76.8877" style="stroke: #B38D22; stroke-width: 1.0;"/><text fill="#000000" font-family="sans-serif" font-size="11" lengthAdjust="spacingAndGlyphs" textLength="83" x="26" y="80.5449">debug: boolean</text><line style="stroke: #A80036; stroke-width: 1.5;" x1="7" x2="246" y1="86.8652" y2="86.8652"/><ellipse cx="17" cy="98.8428" fill="#84BE84" rx="3" ry="3" style="stroke: #038048; stroke-width: 1.0;"/><text fill="#000000" font-family="sans-serif" font-size="11" lengthAdjust="spacingAndGlyphs" textLength="141" x="26" y="101.5">g(): GraphTraversalSource</text><ellipse cx="17" cy="111.7979" fill="#84BE84" rx="3" ry="3" style="stroke: #038048; stroke-width: 1.0;"/><text fill="#000000" font-family="sans-serif" font-size="11" lengthAdjust="spacingAndGlyphs" textLength="192" x="26" y="114.4551">setProp(Vertex, String, Object): void</text><ellipse cx="17" cy="124.7529" fill="#84BE84" rx="3" ry="3" style="stroke: #038048; stroke-width: 1.0;"/><text fill="#000000" font-family="sans-serif" font-size="11" lengthAdjust="spacingAndGlyphs" textLength="128" x="26" y="127.4102">writeGraph(String): void</text><ellipse cx="17" cy="137.708" fill="#84BE84" rx="3" ry="3" style="stroke: #038048; stroke-width: 1.0;"/><text fill="#000000" font-family="sans-serif" font-size="11" lengthAdjust="spacingAndGlyphs" textLength="111" x="26" y="140.3652">loadGraph(File): void</text><ellipse cx="17" cy="150.6631" fill="#84BE84" rx="3" ry="3" style="stroke: #038048; stroke-width: 1.0;"/><text fill="#000000" font-family="sans-serif" font-size="11" lengthAdjust="spacingAndGlyphs" textLength="127" x="26" y="153.3203">addVertex(Object): void</text><ellipse cx="17" cy="163.6182" fill="#84BE84" rx="3" ry="3" style="stroke: #038048; stroke-width: 1.0;"/><text fill="#000000" font-family="sans-serif" font-size="11" lengthAdjust="spacingAndGlyphs" textLength="215" x="26" y="166.2754">fromVertex(Vertex, Class&lt;TYPE&gt;): TYPE</text></a><text fill="#888888" font-family="sans-serif" font-size="10" lengthAdjust="spacingAndGlyphs" textLength="182" x="41.5" y="192.668">UMLDoclet 1.1.4, PlantUML 1.2019.05</text><!--
@startuml

    class TinkerPopDatabase [[TinkerPopDatabase.html]] {
        {static} #LOG: Logger
        #graph: TinkerGraph
        #debug: boolean
        +g(): GraphTraversalSource
        +setProp(Vertex, String, Object): void
        +writeGraph(String): void
        +loadGraph(File): void
        +addVertex(Object): void
        +fromVertex(Vertex, Class<TYPE>): TYPE
    }


    center footer UMLDoclet 1.1.4, PlantUML 1.2019.05
@enduml

PlantUML version 1.2019.05(Sat Apr 20 18:45:36 CEST 2019)
(APACHE source distribution)
Java Runtime: Java(TM) SE Runtime Environment
JVM: Java HotSpot(TM) 64-Bit Server VM
Java Version: 1.8.0_152-b16
Operating System: Mac OS X
OS Version: 10.13.6
Default Encoding: UTF-8
Language: de
Country: DE
--></g></svg>