<?xml version="1.0" encoding="UTF-8" standalone="no"?><svg xmlns="http://www.w3.org/2000/svg" xmlns:xlink="http://www.w3.org/1999/xlink" contentScriptType="application/ecmascript" contentStyleType="text/css" height="1166px" preserveAspectRatio="none" style="width:556px;height:1166px;" version="1.1" viewBox="0 0 556 1166" width="556px" zoomAndPan="magnify"><defs><filter height="300%" id="f1qc32zru8ob93" width="300%" x="-1" y="-1"><feGaussianBlur result="blurOut" stdDeviation="2.0"/><feColorMatrix in="blurOut" result="blurOut2" type="matrix" values="0 0 0 0 0 0 0 0 0 0 0 0 0 0 0 0 0 0 .4 0"/><feOffset dx="4.0" dy="4.0" in="blurOut2" result="blurOut3"/><feBlend in="SourceGraphic" in2="blurOut3" mode="normal"/></filter></defs><g><!--cluster nl.vaneijndhoven.dukes.enos.geometry--><polygon fill="#FFFFFF" filter="url(#f1qc32zru8ob93)" points="14,16,295,16,302,38.4883,534,38.4883,534,1125,14,1125,14,16" style="stroke: #000000; stroke-width: 1.5;"/><line style="stroke: #000000; stroke-width: 1.5;" x1="14" x2="302" y1="38.4883" y2="38.4883"/><text fill="#000000" font-family="sans-serif" font-size="14" font-weight="bold" lengthAdjust="spacingAndGlyphs" textLength="275" x="18" y="31.5352">nl.vaneijndhoven.dukes.enos.geometry</text><!--class nl.vaneijndhoven.dukes.enos.geometry.Point3D--><a href="Point3D.html" target="_top" xlink:actuate="onRequest" xlink:show="new" xlink:title="Point3D.html" xlink:type="simple"><rect fill="#FEFECE" filter="url(#f1qc32zru8ob93)" height="73.9102" id="nl.vaneijndhoven.dukes.enos.geometry.Point3D" style="stroke: #A80036; stroke-width: 1.5;" width="164" x="201" y="742"/><ellipse cx="256.25" cy="758" fill="#B4A7E5" rx="11" ry="11" style="stroke: #A80036; stroke-width: 1.0;"/><path d="M252.1777,753.7651 L252.1777,751.6069 L259.5571,751.6069 L259.5571,753.7651 L257.0918,753.7651 L257.0918,761.8418 L259.5571,761.8418 L259.5571,764 L252.1777,764 L252.1777,761.8418 L254.6431,761.8418 L254.6431,753.7651 Z "/><text fill="#000000" font-family="sans-serif" font-size="12" font-style="italic" lengthAdjust="spacingAndGlyphs" textLength="45" x="276.75" y="762.5352">Point3D</text><line style="stroke: #A80036; stroke-width: 1.5;" x1="202" x2="364" y1="774" y2="774"/><line style="stroke: #A80036; stroke-width: 1.5;" x1="202" x2="364" y1="782" y2="782"/><ellipse cx="212" cy="793.9775" fill="#84BE84" rx="3" ry="3" style="stroke: #038048; stroke-width: 1.0;"/><text fill="#000000" font-family="sans-serif" font-size="11" font-style="italic" lengthAdjust="spacingAndGlyphs" textLength="75" x="221" y="796.6348">getZ(): double</text><ellipse cx="212" cy="806.9326" fill="#84BE84" rx="3" ry="3" style="stroke: #038048; stroke-width: 1.0;"/><text fill="#000000" font-family="sans-serif" font-size="11" font-style="italic" lengthAdjust="spacingAndGlyphs" textLength="138" x="221" y="809.5898">distance(Point3D): double</text></a><!--class nl.vaneijndhoven.dukes.enos.geometry.Polygon--><a href="Polygon.html" target="_top" xlink:actuate="onRequest" xlink:show="new" xlink:title="Polygon.html" xlink:type="simple"><rect fill="#FEFECE" filter="url(#f1qc32zru8ob93)" height="112.7754" id="nl.vaneijndhoven.dukes.enos.geometry.Polygon" style="stroke: #A80036; stroke-width: 1.5;" width="253" x="272.5" y="127"/><ellipse cx="372.75" cy="143" fill="#ADD1B2" rx="11" ry="11" style="stroke: #A80036; stroke-width: 1.0;"/><path d="M375.7231,148.6431 Q375.1421,148.9419 374.5029,149.0913 Q373.8638,149.2407 373.1582,149.2407 Q370.6514,149.2407 369.3315,147.5889 Q368.0117,145.937 368.0117,142.8159 Q368.0117,139.6865 369.3315,138.0347 Q370.6514,136.3828 373.1582,136.3828 Q373.8638,136.3828 374.5112,136.5322 Q375.1587,136.6816 375.7231,136.9805 L375.7231,139.7031 Q375.0923,139.1221 374.4988,138.8523 Q373.9053,138.5825 373.2744,138.5825 Q371.9297,138.5825 371.2449,139.6492 Q370.5601,140.7158 370.5601,142.8159 Q370.5601,144.9077 371.2449,145.9744 Q371.9297,147.041 373.2744,147.041 Q373.9053,147.041 374.4988,146.7712 Q375.0923,146.5015 375.7231,145.9204 Z "/><text fill="#000000" font-family="sans-serif" font-size="12" lengthAdjust="spacingAndGlyphs" textLength="44" x="393.25" y="147.5352">Polygon</text><line style="stroke: #A80036; stroke-width: 1.5;" x1="273.5" x2="524.5" y1="159" y2="159"/><line style="stroke: #A80036; stroke-width: 1.5;" x1="273.5" x2="524.5" y1="167" y2="167"/><ellipse cx="283.5" cy="178.9775" fill="#84BE84" rx="3" ry="3" style="stroke: #038048; stroke-width: 1.0;"/><text fill="#000000" font-family="sans-serif" font-size="11" lengthAdjust="spacingAndGlyphs" textLength="101" x="292.5" y="181.6348">Polygon(Point2D[])</text><ellipse cx="283.5" cy="191.9326" fill="#84BE84" rx="3" ry="3" style="stroke: #038048; stroke-width: 1.0;"/><text fill="#000000" font-family="sans-serif" font-size="11" lengthAdjust="spacingAndGlyphs" text-decoration="underline" textLength="184" x="292.5" y="194.5898">square(Point2D, Point2D): Polygon</text><ellipse cx="283.5" cy="204.8877" fill="#84BE84" rx="3" ry="3" style="stroke: #038048; stroke-width: 1.0;"/><text fill="#000000" font-family="sans-serif" font-size="11" lengthAdjust="spacingAndGlyphs" textLength="159" x="292.5" y="207.5449">intersect(Line): Set&lt;Point2D&gt;</text><ellipse cx="283.5" cy="217.8428" fill="#84BE84" rx="3" ry="3" style="stroke: #038048; stroke-width: 1.0;"/><text fill="#000000" font-family="sans-serif" font-size="11" lengthAdjust="spacingAndGlyphs" textLength="105" x="292.5" y="220.5">edges(): List&lt;Line&gt;</text><ellipse cx="283.5" cy="230.7979" fill="#84BE84" rx="3" ry="3" style="stroke: #038048; stroke-width: 1.0;"/><text fill="#000000" font-family="sans-serif" font-size="11" lengthAdjust="spacingAndGlyphs" textLength="227" x="292.5" y="233.4551">setPointInPlaneStrategy(PointInPlane): void</text></a><!--class nl.vaneijndhoven.dukes.enos.geometry.Line--><a href="Line.html" target="_top" xlink:actuate="onRequest" xlink:show="new" xlink:title="Line.html" xlink:type="simple"><rect fill="#FEFECE" filter="url(#f1qc32zru8ob93)" height="281.1914" id="nl.vaneijndhoven.dukes.enos.geometry.Line" style="stroke: #A80036; stroke-width: 1.5;" width="215" x="22.5" y="43"/><ellipse cx="114.25" cy="59" fill="#ADD1B2" rx="11" ry="11" style="stroke: #A80036; stroke-width: 1.0;"/><path d="M117.2231,64.6431 Q116.6421,64.9419 116.0029,65.0913 Q115.3638,65.2407 114.6582,65.2407 Q112.1514,65.2407 110.8315,63.5889 Q109.5117,61.937 109.5117,58.8159 Q109.5117,55.6865 110.8315,54.0347 Q112.1514,52.3828 114.6582,52.3828 Q115.3638,52.3828 116.0112,52.5322 Q116.6587,52.6816 117.2231,52.9805 L117.2231,55.7031 Q116.5923,55.1221 115.9988,54.8523 Q115.4053,54.5825 114.7744,54.5825 Q113.4297,54.5825 112.7449,55.6492 Q112.0601,56.7158 112.0601,58.8159 Q112.0601,60.9077 112.7449,61.9744 Q113.4297,63.041 114.7744,63.041 Q115.4053,63.041 115.9988,62.7712 Q116.5923,62.5015 117.2231,61.9204 Z "/><text fill="#000000" font-family="sans-serif" font-size="12" lengthAdjust="spacingAndGlyphs" textLength="23" x="134.75" y="63.5352">Line</text><line style="stroke: #A80036; stroke-width: 1.5;" x1="23.5" x2="236.5" y1="75" y2="75"/><line style="stroke: #A80036; stroke-width: 1.5;" x1="23.5" x2="236.5" y1="83" y2="83"/><ellipse cx="33.5" cy="94.9775" fill="#84BE84" rx="3" ry="3" style="stroke: #038048; stroke-width: 1.0;"/><text fill="#000000" font-family="sans-serif" font-size="11" lengthAdjust="spacingAndGlyphs" textLength="75" x="42.5" y="97.6348">Line(double[])</text><ellipse cx="33.5" cy="107.9326" fill="#84BE84" rx="3" ry="3" style="stroke: #038048; stroke-width: 1.0;"/><text fill="#000000" font-family="sans-serif" font-size="11" lengthAdjust="spacingAndGlyphs" textLength="120" x="42.5" y="110.5898">Line(Point2D, Point2D)</text><ellipse cx="33.5" cy="120.8877" fill="#84BE84" rx="3" ry="3" style="stroke: #038048; stroke-width: 1.0;"/><text fill="#000000" font-family="sans-serif" font-size="11" lengthAdjust="spacingAndGlyphs" textLength="85" x="42.5" y="123.5449">length(): double</text><ellipse cx="33.5" cy="133.8428" fill="#84BE84" rx="3" ry="3" style="stroke: #038048; stroke-width: 1.0;"/><text fill="#000000" font-family="sans-serif" font-size="11" lengthAdjust="spacingAndGlyphs" textLength="100" x="42.5" y="136.5">angleRad(): double</text><ellipse cx="33.5" cy="146.7979" fill="#84BE84" rx="3" ry="3" style="stroke: #038048; stroke-width: 1.0;"/><text fill="#000000" font-family="sans-serif" font-size="11" lengthAdjust="spacingAndGlyphs" textLength="101" x="42.5" y="149.4551">angleDeg(): double</text><ellipse cx="33.5" cy="159.7529" fill="#84BE84" rx="3" ry="3" style="stroke: #038048; stroke-width: 1.0;"/><text fill="#000000" font-family="sans-serif" font-size="11" lengthAdjust="spacingAndGlyphs" text-decoration="underline" textLength="172" x="42.5" y="162.4102">average(Collection&lt;Line&gt;): Line</text><ellipse cx="33.5" cy="172.708" fill="#84BE84" rx="3" ry="3" style="stroke: #038048; stroke-width: 1.0;"/><text fill="#000000" font-family="sans-serif" font-size="11" lengthAdjust="spacingAndGlyphs" textLength="163" x="42.5" y="175.3652">isLeftOfLine(Point2D): boolean</text><ellipse cx="33.5" cy="185.6631" fill="#84BE84" rx="3" ry="3" style="stroke: #038048; stroke-width: 1.0;"/><text fill="#000000" font-family="sans-serif" font-size="11" lengthAdjust="spacingAndGlyphs" textLength="171" x="42.5" y="188.3203">isRightOfLine(Point2D): boolean</text><ellipse cx="33.5" cy="198.6182" fill="#84BE84" rx="3" ry="3" style="stroke: #038048; stroke-width: 1.0;"/><text fill="#000000" font-family="sans-serif" font-size="11" lengthAdjust="spacingAndGlyphs" textLength="169" x="42.5" y="201.2754">existsOnLine(Point2D): boolean</text><ellipse cx="33.5" cy="211.5732" fill="#84BE84" rx="3" ry="3" style="stroke: #038048; stroke-width: 1.0;"/><text fill="#000000" font-family="sans-serif" font-size="11" lengthAdjust="spacingAndGlyphs" textLength="121" x="42.5" y="214.2305">bottomMost(): Point2D</text><ellipse cx="33.5" cy="224.5283" fill="#84BE84" rx="3" ry="3" style="stroke: #038048; stroke-width: 1.0;"/><text fill="#000000" font-family="sans-serif" font-size="11" lengthAdjust="spacingAndGlyphs" textLength="99" x="42.5" y="227.1855">leftMost(): Point2D</text><ellipse cx="33.5" cy="237.4834" fill="#84BE84" rx="3" ry="3" style="stroke: #038048; stroke-width: 1.0;"/><text fill="#000000" font-family="sans-serif" font-size="11" lengthAdjust="spacingAndGlyphs" textLength="108" x="42.5" y="240.1406">rightMost(): Point2D</text><ellipse cx="33.5" cy="250.4385" fill="#84BE84" rx="3" ry="3" style="stroke: #038048; stroke-width: 1.0;"/><text fill="#000000" font-family="sans-serif" font-size="11" lengthAdjust="spacingAndGlyphs" textLength="100" x="42.5" y="253.0957">topMost(): Point2D</text><ellipse cx="33.5" cy="263.3936" fill="#84BE84" rx="3" ry="3" style="stroke: #038048; stroke-width: 1.0;"/><text fill="#000000" font-family="sans-serif" font-size="11" lengthAdjust="spacingAndGlyphs" textLength="133" x="42.5" y="266.0508">pointAt(double): Point2D</text><ellipse cx="33.5" cy="276.3486" fill="#84BE84" rx="3" ry="3" style="stroke: #038048; stroke-width: 1.0;"/><text fill="#000000" font-family="sans-serif" font-size="11" lengthAdjust="spacingAndGlyphs" textLength="80" x="42.5" y="279.0059">width(): double</text><ellipse cx="33.5" cy="289.3037" fill="#84BE84" rx="3" ry="3" style="stroke: #038048; stroke-width: 1.0;"/><text fill="#000000" font-family="sans-serif" font-size="11" lengthAdjust="spacingAndGlyphs" textLength="85" x="42.5" y="291.9609">height(): double</text><ellipse cx="33.5" cy="302.2588" fill="#84BE84" rx="3" ry="3" style="stroke: #038048; stroke-width: 1.0;"/><text fill="#000000" font-family="sans-serif" font-size="11" lengthAdjust="spacingAndGlyphs" textLength="189" x="42.5" y="304.916">intersect(Line): Optional&lt;Point2D&gt;</text><ellipse cx="33.5" cy="315.2139" fill="#84BE84" rx="3" ry="3" style="stroke: #038048; stroke-width: 1.0;"/><text fill="#000000" font-family="sans-serif" font-size="11" lengthAdjust="spacingAndGlyphs" textLength="138" x="42.5" y="317.8711">distance(Point2D): double</text></a><!--class nl.vaneijndhoven.dukes.enos.geometry.Line.Vector--><a href="Line.Vector.html" target="_top" xlink:actuate="onRequest" xlink:show="new" xlink:title="Line.Vector.html" xlink:type="simple"><rect fill="#FEFECE" filter="url(#f1qc32zru8ob93)" height="125.7305" id="nl.vaneijndhoven.dukes.enos.geometry.Line.Vector" style="stroke: #A80036; stroke-width: 1.5;" width="214" x="23" y="493"/><ellipse cx="93.75" cy="509" fill="#ADD1B2" rx="11" ry="11" style="stroke: #A80036; stroke-width: 1.0;"/><path d="M96.7231,514.6431 Q96.1421,514.9419 95.5029,515.0913 Q94.8638,515.2407 94.1582,515.2407 Q91.6514,515.2407 90.3315,513.5889 Q89.0117,511.937 89.0117,508.8159 Q89.0117,505.6865 90.3315,504.0347 Q91.6514,502.3828 94.1582,502.3828 Q94.8638,502.3828 95.5112,502.5322 Q96.1587,502.6816 96.7231,502.9805 L96.7231,505.7031 Q96.0923,505.1221 95.4988,504.8523 Q94.9053,504.5825 94.2744,504.5825 Q92.9297,504.5825 92.2449,505.6492 Q91.5601,506.7158 91.5601,508.8159 Q91.5601,510.9077 92.2449,511.9744 Q92.9297,513.041 94.2744,513.041 Q94.9053,513.041 95.4988,512.7712 Q96.0923,512.5015 96.7231,511.9204 Z "/><text fill="#000000" font-family="sans-serif" font-size="12" lengthAdjust="spacingAndGlyphs" textLength="64" x="114.25" y="513.5352">Line.Vector</text><line style="stroke: #A80036; stroke-width: 1.5;" x1="24" x2="236" y1="525" y2="525"/><line style="stroke: #A80036; stroke-width: 1.5;" x1="24" x2="236" y1="533" y2="533"/><ellipse cx="34" cy="544.9775" fill="#84BE84" rx="3" ry="3" style="stroke: #038048; stroke-width: 1.0;"/><text fill="#000000" font-family="sans-serif" font-size="11" lengthAdjust="spacingAndGlyphs" textLength="123" x="43" y="547.6348">Vector(double, double)</text><ellipse cx="34" cy="557.9326" fill="#84BE84" rx="3" ry="3" style="stroke: #038048; stroke-width: 1.0;"/><text fill="#000000" font-family="sans-serif" font-size="11" lengthAdjust="spacingAndGlyphs" textLength="188" x="43" y="560.5898">calculate(Point2D, double): Point2D</text><ellipse cx="34" cy="570.8877" fill="#84BE84" rx="3" ry="3" style="stroke: #038048; stroke-width: 1.0;"/><text fill="#000000" font-family="sans-serif" font-size="11" lengthAdjust="spacingAndGlyphs" textLength="142" x="43" y="573.5449">calculateX(double): double</text><ellipse cx="34" cy="583.8428" fill="#84BE84" rx="3" ry="3" style="stroke: #038048; stroke-width: 1.0;"/><text fill="#000000" font-family="sans-serif" font-size="11" lengthAdjust="spacingAndGlyphs" textLength="142" x="43" y="586.5">calculateY(double): double</text><ellipse cx="34" cy="596.7979" fill="#84BE84" rx="3" ry="3" style="stroke: #038048; stroke-width: 1.0;"/><text fill="#000000" font-family="sans-serif" font-size="11" lengthAdjust="spacingAndGlyphs" text-decoration="underline" textLength="134" x="43" y="599.4551">forY(double): Line.Vector</text><ellipse cx="34" cy="609.7529" fill="#84BE84" rx="3" ry="3" style="stroke: #038048; stroke-width: 1.0;"/><text fill="#000000" font-family="sans-serif" font-size="11" lengthAdjust="spacingAndGlyphs" text-decoration="underline" textLength="134" x="43" y="612.4102">forX(double): Line.Vector</text></a><!--class nl.vaneijndhoven.dukes.enos.geometry.Point--><a href="Point.html" target="_top" xlink:actuate="onRequest" xlink:show="new" xlink:title="Point.html" xlink:type="simple"><rect fill="#FEFECE" filter="url(#f1qc32zru8ob93)" height="177.5508" id="nl.vaneijndhoven.dukes.enos.geometry.Point" style="stroke: #A80036; stroke-width: 1.5;" width="167" x="258.5" y="939"/><ellipse cx="323.75" cy="955" fill="#ADD1B2" rx="11" ry="11" style="stroke: #A80036; stroke-width: 1.0;"/><path d="M326.7231,960.6431 Q326.1421,960.9419 325.5029,961.0913 Q324.8638,961.2407 324.1582,961.2407 Q321.6514,961.2407 320.3315,959.5889 Q319.0117,957.937 319.0117,954.8159 Q319.0117,951.6865 320.3315,950.0347 Q321.6514,948.3828 324.1582,948.3828 Q324.8638,948.3828 325.5112,948.5322 Q326.1587,948.6816 326.7231,948.9805 L326.7231,951.7031 Q326.0923,951.1221 325.4988,950.8523 Q324.9053,950.5825 324.2744,950.5825 Q322.9297,950.5825 322.2449,951.6492 Q321.5601,952.7158 321.5601,954.8159 Q321.5601,956.9077 322.2449,957.9744 Q322.9297,959.041 324.2744,959.041 Q324.9053,959.041 325.4988,958.7712 Q326.0923,958.5015 326.7231,957.9204 Z "/><text fill="#000000" font-family="sans-serif" font-size="12" lengthAdjust="spacingAndGlyphs" textLength="28" x="344.25" y="959.5352">Point</text><line style="stroke: #A80036; stroke-width: 1.5;" x1="259.5" x2="424.5" y1="971" y2="971"/><ellipse cx="269.5" cy="982.9775" fill="none" rx="3" ry="3" style="stroke: #038048; stroke-width: 1.0;"/><text fill="#000000" font-family="sans-serif" font-size="11" lengthAdjust="spacingAndGlyphs" text-decoration="underline" textLength="27" x="278.5" y="985.6348">X: int</text><ellipse cx="269.5" cy="995.9326" fill="none" rx="3" ry="3" style="stroke: #038048; stroke-width: 1.0;"/><text fill="#000000" font-family="sans-serif" font-size="11" lengthAdjust="spacingAndGlyphs" text-decoration="underline" textLength="27" x="278.5" y="998.5898">Y: int</text><ellipse cx="269.5" cy="1008.8877" fill="none" rx="3" ry="3" style="stroke: #038048; stroke-width: 1.0;"/><text fill="#000000" font-family="sans-serif" font-size="11" lengthAdjust="spacingAndGlyphs" text-decoration="underline" textLength="27" x="278.5" y="1011.5449">Z: int</text><line style="stroke: #A80036; stroke-width: 1.5;" x1="259.5" x2="424.5" y1="1017.8652" y2="1017.8652"/><ellipse cx="269.5" cy="1029.8428" fill="#84BE84" rx="3" ry="3" style="stroke: #038048; stroke-width: 1.0;"/><text fill="#000000" font-family="sans-serif" font-size="11" lengthAdjust="spacingAndGlyphs" textLength="80" x="278.5" y="1032.5">Point(double[])</text><ellipse cx="269.5" cy="1042.7979" fill="#84BE84" rx="3" ry="3" style="stroke: #038048; stroke-width: 1.0;"/><text fill="#000000" font-family="sans-serif" font-size="11" lengthAdjust="spacingAndGlyphs" textLength="141" x="278.5" y="1045.4551">distance(double[]): double</text><ellipse cx="269.5" cy="1055.7529" fill="#84BE84" rx="3" ry="3" style="stroke: #038048; stroke-width: 1.0;"/><text fill="#000000" font-family="sans-serif" font-size="11" lengthAdjust="spacingAndGlyphs" textLength="138" x="278.5" y="1058.4102">distance(Point2D): double</text><ellipse cx="269.5" cy="1068.708" fill="#84BE84" rx="3" ry="3" style="stroke: #038048; stroke-width: 1.0;"/><text fill="#000000" font-family="sans-serif" font-size="11" lengthAdjust="spacingAndGlyphs" textLength="138" x="278.5" y="1071.3652">distance(Point3D): double</text><ellipse cx="269.5" cy="1081.6631" fill="#84BE84" rx="3" ry="3" style="stroke: #038048; stroke-width: 1.0;"/><text fill="#000000" font-family="sans-serif" font-size="11" lengthAdjust="spacingAndGlyphs" textLength="75" x="278.5" y="1084.3203">getX(): double</text><ellipse cx="269.5" cy="1094.6182" fill="#84BE84" rx="3" ry="3" style="stroke: #038048; stroke-width: 1.0;"/><text fill="#000000" font-family="sans-serif" font-size="11" lengthAdjust="spacingAndGlyphs" textLength="75" x="278.5" y="1097.2754">getY(): double</text><ellipse cx="269.5" cy="1107.5732" fill="#84BE84" rx="3" ry="3" style="stroke: #038048; stroke-width: 1.0;"/><text fill="#000000" font-family="sans-serif" font-size="11" lengthAdjust="spacingAndGlyphs" textLength="75" x="278.5" y="1110.2305">getZ(): double</text></a><!--class nl.vaneijndhoven.dukes.enos.geometry.Point2D--><a href="Point2D.html" target="_top" xlink:actuate="onRequest" xlink:show="new" xlink:title="Point2D.html" xlink:type="simple"><rect fill="#FEFECE" filter="url(#f1qc32zru8ob93)" height="86.8652" id="nl.vaneijndhoven.dukes.enos.geometry.Point2D" style="stroke: #A80036; stroke-width: 1.5;" width="164" x="280" y="512.5"/><ellipse cx="335.25" cy="528.5" fill="#B4A7E5" rx="11" ry="11" style="stroke: #A80036; stroke-width: 1.0;"/><path d="M331.1777,524.2651 L331.1777,522.1069 L338.5571,522.1069 L338.5571,524.2651 L336.0918,524.2651 L336.0918,532.3418 L338.5571,532.3418 L338.5571,534.5 L331.1777,534.5 L331.1777,532.3418 L333.6431,532.3418 L333.6431,524.2651 Z "/><text fill="#000000" font-family="sans-serif" font-size="12" font-style="italic" lengthAdjust="spacingAndGlyphs" textLength="45" x="355.75" y="533.0352">Point2D</text><line style="stroke: #A80036; stroke-width: 1.5;" x1="281" x2="443" y1="544.5" y2="544.5"/><line style="stroke: #A80036; stroke-width: 1.5;" x1="281" x2="443" y1="552.5" y2="552.5"/><ellipse cx="291" cy="564.4775" fill="#84BE84" rx="3" ry="3" style="stroke: #038048; stroke-width: 1.0;"/><text fill="#000000" font-family="sans-serif" font-size="11" font-style="italic" lengthAdjust="spacingAndGlyphs" textLength="75" x="300" y="567.1348">getX(): double</text><ellipse cx="291" cy="577.4326" fill="#84BE84" rx="3" ry="3" style="stroke: #038048; stroke-width: 1.0;"/><text fill="#000000" font-family="sans-serif" font-size="11" font-style="italic" lengthAdjust="spacingAndGlyphs" textLength="75" x="300" y="580.0898">getY(): double</text><ellipse cx="291" cy="590.3877" fill="#84BE84" rx="3" ry="3" style="stroke: #038048; stroke-width: 1.0;"/><text fill="#000000" font-family="sans-serif" font-size="11" font-style="italic" lengthAdjust="spacingAndGlyphs" textLength="138" x="300" y="593.0449">distance(Point2D): double</text></a><!--link nl.vaneijndhoven.dukes.enos.geometry.Point2D to nl.vaneijndhoven.dukes.enos.geometry.Point3D--><path d="M339.8097,618.6383 C325.7443,658.3421 308.0285,708.3499 296.153,741.8719 " fill="none" id="nl.vaneijndhoven.dukes.enos.geometry.Point2D-nl.vaneijndhoven.dukes.enos.geometry.Point3D" style="stroke: #A80036; stroke-width: 1.0; stroke-dasharray: 7.0,7.0;"/><polygon fill="none" points="333.3037,616.0405,346.5805,599.526,346.5001,620.7155,333.3037,616.0405" style="stroke: #A80036; stroke-width: 1.0;"/><!--link nl.vaneijndhoven.dukes.enos.geometry.Line to nl.vaneijndhoven.dukes.enos.geometry.Line.Vector--><path d="M130,339.1718 C130,393.1334 130,450.6158 130,492.8277 " fill="none" id="nl.vaneijndhoven.dukes.enos.geometry.Line-nl.vaneijndhoven.dukes.enos.geometry.Line.Vector" style="stroke: #A80036; stroke-width: 1.0;"/><ellipse cx="130.0001" cy="332.0608" fill="#FFFFFF" rx="8" ry="8" style="stroke: #A80036; stroke-width: 1.0;"/><line style="stroke: #A80036; stroke-width: 1.0;" x1="130.0002" x2="130" y1="340.0608" y2="324.0608"/><line style="stroke: #A80036; stroke-width: 1.0;" x1="122.0001" x2="138.0001" y1="332.0609" y2="332.0607"/><!--link nl.vaneijndhoven.dukes.enos.geometry.Point2D to nl.vaneijndhoven.dukes.enos.geometry.Point--><path d="M389.6365,618.5484 C396.029,638.0096 401,659.7985 401,680.5 C401,680.5 401,680.5 401,877.5 C401,897.9871 396.2025,919.0279 389.3435,938.6408 " fill="none" id="nl.vaneijndhoven.dukes.enos.geometry.Point2D-nl.vaneijndhoven.dukes.enos.geometry.Point" style="stroke: #A80036; stroke-width: 1.0; stroke-dasharray: 7.0,7.0;"/><polygon fill="none" points="383.0109,620.8112,382.7561,599.623,396.1684,616.0277,383.0109,620.8112" style="stroke: #A80036; stroke-width: 1.0;"/><!--link nl.vaneijndhoven.dukes.enos.geometry.Point3D to nl.vaneijndhoven.dukes.enos.geometry.Point--><path d="M296.4389,835.7167 C303.6594,866.1898 312.7267,904.4566 320.8672,938.8124 " fill="none" id="nl.vaneijndhoven.dukes.enos.geometry.Point3D-nl.vaneijndhoven.dukes.enos.geometry.Point" style="stroke: #A80036; stroke-width: 1.0; stroke-dasharray: 7.0,7.0;"/><polygon fill="none" points="289.5691,837.0841,291.7692,816.0089,303.1919,833.8561,289.5691,837.0841" style="stroke: #A80036; stroke-width: 1.0;"/><!--link nl.vaneijndhoven.dukes.enos.geometry.Polygon to nl.vaneijndhoven.dukes.enos.geometry.Point2D--><path d="M393.3805,240.0747 C386.1496,312.8725 373.7068,438.1411 366.8631,507.0406 " fill="none" id="nl.vaneijndhoven.dukes.enos.geometry.Polygon-nl.vaneijndhoven.dukes.enos.geometry.Point2D" style="stroke: #A80036; stroke-width: 1.0;"/><polygon fill="#A80036" points="366.3398,512.3088,371.2099,503.7483,366.8341,507.3333,363.2491,502.9575,366.3398,512.3088" style="stroke: #A80036; stroke-width: 1.0;"/><text fill="#000000" font-family="sans-serif" font-size="13" lengthAdjust="spacingAndGlyphs" textLength="40" x="436" y="398.5684">points</text><text fill="#000000" font-family="sans-serif" font-size="13" lengthAdjust="spacingAndGlyphs" textLength="104" x="404" y="413.8789">pointsClockwise</text><text fill="#000000" font-family="sans-serif" font-size="13" lengthAdjust="spacingAndGlyphs" textLength="154" x="379" y="429.1895">pointsCounterClockwise</text><text fill="#000000" font-family="sans-serif" font-size="13" lengthAdjust="spacingAndGlyphs" textLength="6" x="360.5533" y="501.754">*</text><!--link nl.vaneijndhoven.dukes.enos.geometry.Line to nl.vaneijndhoven.dukes.enos.geometry.Point2D--><path d="M217.5439,324.0608 C257.8399,388.7602 303.0187,461.2995 331.9498,507.7513 " fill="none" id="nl.vaneijndhoven.dukes.enos.geometry.Line-nl.vaneijndhoven.dukes.enos.geometry.Point2D" style="stroke: #A80036; stroke-width: 1.0;"/><polygon fill="#A80036" points="334.6982,512.1641,333.3357,502.4099,332.055,507.9199,326.545,506.6391,334.6982,512.1641" style="stroke: #A80036; stroke-width: 1.0;"/><text fill="#000000" font-family="sans-serif" font-size="13" lengthAdjust="spacingAndGlyphs" textLength="41" x="285" y="406.0684">point1</text><text fill="#000000" font-family="sans-serif" font-size="13" lengthAdjust="spacingAndGlyphs" textLength="41" x="285" y="421.3789">point2</text><text fill="#888888" font-family="sans-serif" font-size="10" lengthAdjust="spacingAndGlyphs" textLength="182" x="189" y="1152.668">UMLDoclet 1.1.4, PlantUML 1.2019.05</text><!--
@startuml

    namespace nl.vaneijndhoven.dukes.enos.geometry {

        interface Point3D [[Point3D.html]] {
            {abstract} +getZ(): double
            {abstract} +distance(Point3D): double
        }

        class Polygon [[Polygon.html]] {
            +Polygon(Point2D[])
            {static} +square(Point2D, Point2D): Polygon
            +intersect(Line): Set<Point2D>
            +edges(): List<Line>
            +setPointInPlaneStrategy(PointInPlane): void
        }

        class Line [[Line.html]] {
            +Line(double[])
            +Line(Point2D, Point2D)
            +length(): double
            +angleRad(): double
            +angleDeg(): double
            {static} +average(Collection<Line>): Line
            +isLeftOfLine(Point2D): boolean
            +isRightOfLine(Point2D): boolean
            +existsOnLine(Point2D): boolean
            +bottomMost(): Point2D
            +leftMost(): Point2D
            +rightMost(): Point2D
            +topMost(): Point2D
            +pointAt(double): Point2D
            +width(): double
            +height(): double
            +intersect(Line): Optional<Point2D>
            +distance(Point2D): double
        }

        class nl.vaneijndhoven.dukes.enos.geometry.Line.Vector [[Line.Vector.html]] {
            +Vector(double, double)
            +calculate(Point2D, double): Point2D
            +calculateX(double): double
            +calculateY(double): double
            {static} +forY(double): Line.Vector
            {static} +forX(double): Line.Vector
        }

        class Point [[Point.html]] {
            {static} +X: int
            {static} +Y: int
            {static} +Z: int
            +Point(double[])
            +distance(double[]): double
            +distance(Point2D): double
            +distance(Point3D): double
            +getX(): double
            +getY(): double
            +getZ(): double
        }

        interface Point2D [[Point2D.html]] {
            {abstract} +getX(): double
            {abstract} +getY(): double
            {abstract} +distance(Point2D): double
        }

        Point2D <|.. Point3D

        Line +- - nl.vaneijndhoven.dukes.enos.geometry.Line.Vector

        Point2D <|.. Point

        Point3D <|.. Point

        Polygon - -> "*" Point2D: points\npointsClockwise\npointsCounterClockwise

        Line - -> Point2D: point1\npoint2

    }


    center footer UMLDoclet 1.1.4, PlantUML 1.2019.05
@enduml

PlantUML version 1.2019.05(Sat Apr 20 18:45:36 CEST 2019)
(APACHE source distribution)
Java Runtime: Java(TM) SE Runtime Environment
JVM: Java HotSpot(TM) 64-Bit Server VM
Java Version: 1.8.0_152-b16
Operating System: Mac OS X
OS Version: 10.13.6
Default Encoding: UTF-8
Language: de
Country: DE
--></g></svg>