<?xml version="1.0" encoding="UTF-8" standalone="no"?><svg xmlns="http://www.w3.org/2000/svg" xmlns:xlink="http://www.w3.org/1999/xlink" contentScriptType="application/ecmascript" contentStyleType="text/css" height="193px" preserveAspectRatio="none" style="width:283px;height:193px;" version="1.1" viewBox="0 0 283 193" width="283px" zoomAndPan="magnify"><defs><filter height="300%" id="f6v7tgmd19p41" width="300%" x="-1" y="-1"><feGaussianBlur result="blurOut" stdDeviation="2.0"/><feColorMatrix in="blurOut" result="blurOut2" type="matrix" values="0 0 0 0 0 0 0 0 0 0 0 0 0 0 0 0 0 0 .4 0"/><feOffset dx="4.0" dy="4.0" in="blurOut2" result="blurOut3"/><feBlend in="SourceGraphic" in2="blurOut3" mode="normal"/></filter></defs><g><!--class Polygon--><a href="Polygon.html" target="_top" xlink:actuate="onRequest" xlink:show="new" xlink:title="Polygon.html" xlink:type="simple"><rect fill="#FEFECE" filter="url(#f6v7tgmd19p41)" height="151.6406" id="Polygon" style="stroke: #A80036; stroke-width: 1.5;" width="266" x="6" y="8"/><ellipse cx="112.75" cy="24" fill="#ADD1B2" rx="11" ry="11" style="stroke: #A80036; stroke-width: 1.0;"/><path d="M115.7231,29.6431 Q115.1421,29.9419 114.5029,30.0913 Q113.8638,30.2407 113.1582,30.2407 Q110.6514,30.2407 109.3315,28.5889 Q108.0117,26.937 108.0117,23.8159 Q108.0117,20.6865 109.3315,19.0347 Q110.6514,17.3828 113.1582,17.3828 Q113.8638,17.3828 114.5112,17.5322 Q115.1587,17.6816 115.7231,17.9805 L115.7231,20.7031 Q115.0923,20.1221 114.4988,19.8523 Q113.9053,19.5825 113.2744,19.5825 Q111.9297,19.5825 111.2449,20.6492 Q110.5601,21.7158 110.5601,23.8159 Q110.5601,25.9077 111.2449,26.9744 Q111.9297,28.041 113.2744,28.041 Q113.9053,28.041 114.4988,27.7712 Q115.0923,27.5015 115.7231,26.9204 Z "/><text fill="#000000" font-family="sans-serif" font-size="12" lengthAdjust="spacingAndGlyphs" textLength="44" x="133.25" y="28.5352">Polygon</text><line style="stroke: #A80036; stroke-width: 1.5;" x1="7" x2="271" y1="40" y2="40"/><line style="stroke: #A80036; stroke-width: 1.5;" x1="7" x2="271" y1="48" y2="48"/><ellipse cx="17" cy="59.9775" fill="#84BE84" rx="3" ry="3" style="stroke: #038048; stroke-width: 1.0;"/><text fill="#000000" font-family="sans-serif" font-size="11" lengthAdjust="spacingAndGlyphs" textLength="101" x="26" y="62.6348">Polygon(Point2D[])</text><ellipse cx="17" cy="72.9326" fill="#84BE84" rx="3" ry="3" style="stroke: #038048; stroke-width: 1.0;"/><text fill="#000000" font-family="sans-serif" font-size="11" lengthAdjust="spacingAndGlyphs" textLength="143" x="26" y="75.5898">getPoints(): List&lt;Point2D&gt;</text><ellipse cx="17" cy="85.8877" fill="#84BE84" rx="3" ry="3" style="stroke: #038048; stroke-width: 1.0;"/><text fill="#000000" font-family="sans-serif" font-size="11" lengthAdjust="spacingAndGlyphs" textLength="196" x="26" y="88.5449">getPointsClockwise(): List&lt;Point2D&gt;</text><ellipse cx="17" cy="98.8428" fill="#84BE84" rx="3" ry="3" style="stroke: #038048; stroke-width: 1.0;"/><text fill="#000000" font-family="sans-serif" font-size="11" lengthAdjust="spacingAndGlyphs" textLength="240" x="26" y="101.5">getPointsCounterClockwise(): List&lt;Point2D&gt;</text><ellipse cx="17" cy="111.7979" fill="#84BE84" rx="3" ry="3" style="stroke: #038048; stroke-width: 1.0;"/><text fill="#000000" font-family="sans-serif" font-size="11" lengthAdjust="spacingAndGlyphs" text-decoration="underline" textLength="184" x="26" y="114.4551">square(Point2D, Point2D): Polygon</text><ellipse cx="17" cy="124.7529" fill="#84BE84" rx="3" ry="3" style="stroke: #038048; stroke-width: 1.0;"/><text fill="#000000" font-family="sans-serif" font-size="11" lengthAdjust="spacingAndGlyphs" textLength="159" x="26" y="127.4102">intersect(Line): Set&lt;Point2D&gt;</text><ellipse cx="17" cy="137.708" fill="#84BE84" rx="3" ry="3" style="stroke: #038048; stroke-width: 1.0;"/><text fill="#000000" font-family="sans-serif" font-size="11" lengthAdjust="spacingAndGlyphs" textLength="105" x="26" y="140.3652">edges(): List&lt;Line&gt;</text><ellipse cx="17" cy="150.6631" fill="#84BE84" rx="3" ry="3" style="stroke: #038048; stroke-width: 1.0;"/><text fill="#000000" font-family="sans-serif" font-size="11" lengthAdjust="spacingAndGlyphs" textLength="227" x="26" y="153.3203">setPointInPlaneStrategy(PointInPlane): void</text></a><text fill="#888888" font-family="sans-serif" font-size="10" lengthAdjust="spacingAndGlyphs" textLength="182" x="54" y="179.668">UMLDoclet 1.1.4, PlantUML 1.2019.05</text><!--
@startuml

    class Polygon [[Polygon.html]] {
        +Polygon(Point2D[])
        +getPoints(): List<Point2D>
        +getPointsClockwise(): List<Point2D>
        +getPointsCounterClockwise(): List<Point2D>
        {static} +square(Point2D, Point2D): Polygon
        +intersect(Line): Set<Point2D>
        +edges(): List<Line>
        +setPointInPlaneStrategy(PointInPlane): void
    }


    center footer UMLDoclet 1.1.4, PlantUML 1.2019.05
@enduml

PlantUML version 1.2019.05(Sat Apr 20 18:45:36 CEST 2019)
(APACHE source distribution)
Java Runtime: Java(TM) SE Runtime Environment
JVM: Java HotSpot(TM) 64-Bit Server VM
Java Version: 1.8.0_152-b16
Operating System: Mac OS X
OS Version: 10.13.6
Default Encoding: UTF-8
Language: de
Country: DE
--></g></svg>