<?xml version="1.0" encoding="UTF-8" standalone="no"?><svg xmlns="http://www.w3.org/2000/svg" xmlns:xlink="http://www.w3.org/1999/xlink" contentScriptType="application/ecmascript" contentStyleType="text/css" height="141px" preserveAspectRatio="none" style="width:198px;height:141px;" version="1.1" viewBox="0 0 198 141" width="198px" zoomAndPan="magnify"><defs><filter height="300%" id="fbc3aght903q8" width="300%" x="-1" y="-1"><feGaussianBlur result="blurOut" stdDeviation="2.0"/><feColorMatrix in="blurOut" result="blurOut2" type="matrix" values="0 0 0 0 0 0 0 0 0 0 0 0 0 0 0 0 0 0 .4 0"/><feOffset dx="4.0" dy="4.0" in="blurOut2" result="blurOut3"/><feBlend in="SourceGraphic" in2="blurOut3" mode="normal"/></filter></defs><g><!--class ServoCommandDummy--><a href="ServoCommandDummy.html" target="_top" xlink:actuate="onRequest" xlink:show="new" xlink:title="ServoCommandDummy.html" xlink:type="simple"><rect fill="#FEFECE" filter="url(#fbc3aght903q8)" height="99.8203" id="ServoCommandDummy" style="stroke: #A80036; stroke-width: 1.5;" width="167" x="6" y="8"/><ellipse cx="21.45" cy="24" fill="#ADD1B2" rx="11" ry="11" style="stroke: #A80036; stroke-width: 1.0;"/><path d="M24.4231,29.6431 Q23.8421,29.9419 23.2029,30.0913 Q22.5638,30.2407 21.8582,30.2407 Q19.3514,30.2407 18.0315,28.5889 Q16.7117,26.937 16.7117,23.8159 Q16.7117,20.6865 18.0315,19.0347 Q19.3514,17.3828 21.8582,17.3828 Q22.5638,17.3828 23.2112,17.5322 Q23.8587,17.6816 24.4231,17.9805 L24.4231,20.7031 Q23.7923,20.1221 23.1988,19.8523 Q22.6053,19.5825 21.9744,19.5825 Q20.6297,19.5825 19.9449,20.6492 Q19.2601,21.7158 19.2601,23.8159 Q19.2601,25.9077 19.9449,26.9744 Q20.6297,28.041 21.9744,28.041 Q22.6053,28.041 23.1988,27.7712 Q23.7923,27.5015 24.4231,26.9204 Z "/><text fill="#000000" font-family="sans-serif" font-size="12" lengthAdjust="spacingAndGlyphs" textLength="134" x="35.55" y="28.5352">ServoCommandDummy</text><line style="stroke: #A80036; stroke-width: 1.5;" x1="7" x2="172" y1="40" y2="40"/><line style="stroke: #A80036; stroke-width: 1.5;" x1="7" x2="172" y1="48" y2="48"/><ellipse cx="17" cy="59.9775" fill="#84BE84" rx="3" ry="3" style="stroke: #038048; stroke-width: 1.0;"/><text fill="#000000" font-family="sans-serif" font-size="11" lengthAdjust="spacingAndGlyphs" textLength="84" x="26" y="62.6348">resetLog(): void</text><ellipse cx="17" cy="72.9326" fill="#84BE84" rx="3" ry="3" style="stroke: #038048; stroke-width: 1.0;"/><text fill="#000000" font-family="sans-serif" font-size="11" lengthAdjust="spacingAndGlyphs" textLength="117" x="26" y="75.5898">setServo(int, int): void</text><ellipse cx="17" cy="85.8877" fill="#84BE84" rx="3" ry="3" style="stroke: #038048; stroke-width: 1.0;"/><text fill="#000000" font-family="sans-serif" font-size="11" lengthAdjust="spacingAndGlyphs" textLength="141" x="26" y="88.5449">g(): GraphTraversalSource</text><ellipse cx="17" cy="98.8428" fill="#84BE84" rx="3" ry="3" style="stroke: #038048; stroke-width: 1.0;"/><text fill="#000000" font-family="sans-serif" font-size="11" lengthAdjust="spacingAndGlyphs" textLength="85" x="26" y="101.5">showLog(): void</text></a><text fill="#888888" font-family="sans-serif" font-size="10" lengthAdjust="spacingAndGlyphs" textLength="182" x="4.5" y="127.668">UMLDoclet 1.1.4, PlantUML 1.2019.05</text><!--
@startuml

    class ServoCommandDummy [[ServoCommandDummy.html]] {
        +resetLog(): void
        +setServo(int, int): void
        +g(): GraphTraversalSource
        +showLog(): void
    }


    center footer UMLDoclet 1.1.4, PlantUML 1.2019.05
@enduml

PlantUML version 1.2019.05(Sat Apr 20 18:45:36 CEST 2019)
(APACHE source distribution)
Java Runtime: Java(TM) SE Runtime Environment
JVM: Java HotSpot(TM) 64-Bit Server VM
Java Version: 1.8.0_152-b16
Operating System: Mac OS X
OS Version: 10.13.6
Default Encoding: UTF-8
Language: de
Country: DE
--></g></svg>