<?xml version="1.0" encoding="UTF-8" standalone="no"?><svg xmlns="http://www.w3.org/2000/svg" xmlns:xlink="http://www.w3.org/1999/xlink" contentScriptType="application/ecmascript" contentStyleType="text/css" height="287px" preserveAspectRatio="none" style="width:943px;height:287px;" version="1.1" viewBox="0 0 943 287" width="943px" zoomAndPan="magnify"><defs><filter height="300%" id="fbxjhnb7zq0gj" width="300%" x="-1" y="-1"><feGaussianBlur result="blurOut" stdDeviation="2.0"/><feColorMatrix in="blurOut" result="blurOut2" type="matrix" values="0 0 0 0 0 0 0 0 0 0 0 0 0 0 0 0 0 0 .4 0"/><feOffset dx="4.0" dy="4.0" in="blurOut2" result="blurOut3"/><feBlend in="SourceGraphic" in2="blurOut3" mode="normal"/></filter></defs><g><!--cluster nl.vaneijndhoven.opencv.lanedetection--><polygon fill="#FFFFFF" filter="url(#fbxjhnb7zq0gj)" points="14,16,294,16,301,38.4883,921,38.4883,921,246,14,246,14,16" style="stroke: #000000; stroke-width: 1.5;"/><line style="stroke: #000000; stroke-width: 1.5;" x1="14" x2="301" y1="38.4883" y2="38.4883"/><text fill="#000000" font-family="sans-serif" font-size="14" font-weight="bold" lengthAdjust="spacingAndGlyphs" textLength="274" x="18" y="31.5352">nl.vaneijndhoven.opencv.lanedetection</text><!--class nl.vaneijndhoven.opencv.lanedetection.LaneDetector--><a href="LaneDetector.html" target="_top" xlink:actuate="onRequest" xlink:show="new" xlink:title="LaneDetector.html" xlink:type="simple"><rect fill="#FEFECE" filter="url(#fbxjhnb7zq0gj)" height="60.9551" id="nl.vaneijndhoven.opencv.lanedetection.LaneDetector" style="stroke: #A80036; stroke-width: 1.5;" width="244" x="669" y="49.5"/><ellipse cx="748.75" cy="65.5" fill="#B4A7E5" rx="11" ry="11" style="stroke: #A80036; stroke-width: 1.0;"/><path d="M744.6777,61.2651 L744.6777,59.1069 L752.0571,59.1069 L752.0571,61.2651 L749.5918,61.2651 L749.5918,69.3418 L752.0571,69.3418 L752.0571,71.5 L744.6777,71.5 L744.6777,69.3418 L747.1431,69.3418 L747.1431,61.2651 Z "/><text fill="#000000" font-family="sans-serif" font-size="12" font-style="italic" lengthAdjust="spacingAndGlyphs" textLength="76" x="769.25" y="70.0352">LaneDetector</text><line style="stroke: #A80036; stroke-width: 1.5;" x1="670" x2="912" y1="81.5" y2="81.5"/><line style="stroke: #A80036; stroke-width: 1.5;" x1="670" x2="912" y1="89.5" y2="89.5"/><ellipse cx="680" cy="101.4775" fill="#84BE84" rx="3" ry="3" style="stroke: #038048; stroke-width: 1.0;"/><text fill="#000000" font-family="sans-serif" font-size="11" font-style="italic" lengthAdjust="spacingAndGlyphs" textLength="218" x="689" y="104.1348">detect(Collection&lt;Line&gt;, ViewPort): Lane</text></a><!--class nl.vaneijndhoven.opencv.lanedetection.ImageLaneDetection--><a href="ImageLaneDetection.html" target="_top" xlink:actuate="onRequest" xlink:show="new" xlink:title="ImageLaneDetection.html" xlink:type="simple"><rect fill="#FEFECE" filter="url(#fbxjhnb7zq0gj)" height="73.9102" id="nl.vaneijndhoven.opencv.lanedetection.ImageLaneDetection" style="stroke: #A80036; stroke-width: 1.5;" width="611" x="22.5" y="43"/><ellipse cx="265.75" cy="59" fill="#ADD1B2" rx="11" ry="11" style="stroke: #A80036; stroke-width: 1.0;"/><path d="M268.7231,64.6431 Q268.1421,64.9419 267.5029,65.0913 Q266.8638,65.2407 266.1582,65.2407 Q263.6514,65.2407 262.3315,63.5889 Q261.0117,61.937 261.0117,58.8159 Q261.0117,55.6865 262.3315,54.0347 Q263.6514,52.3828 266.1582,52.3828 Q266.8638,52.3828 267.5112,52.5322 Q268.1587,52.6816 268.7231,52.9805 L268.7231,55.7031 Q268.0923,55.1221 267.4988,54.8523 Q266.9053,54.5825 266.2744,54.5825 Q264.9297,54.5825 264.2449,55.6492 Q263.5601,56.7158 263.5601,58.8159 Q263.5601,60.9077 264.2449,61.9744 Q264.9297,63.041 266.2744,63.041 Q266.9053,63.041 267.4988,62.7712 Q268.0923,62.5015 268.7231,61.9204 Z "/><text fill="#000000" font-family="sans-serif" font-size="12" lengthAdjust="spacingAndGlyphs" textLength="116" x="286.25" y="63.5352">ImageLaneDetection</text><line style="stroke: #A80036; stroke-width: 1.5;" x1="23.5" x2="632.5" y1="75" y2="75"/><line style="stroke: #A80036; stroke-width: 1.5;" x1="23.5" x2="632.5" y1="83" y2="83"/><ellipse cx="33.5" cy="94.9775" fill="#84BE84" rx="3" ry="3" style="stroke: #038048; stroke-width: 1.0;"/><text fill="#000000" font-family="sans-serif" font-size="11" lengthAdjust="spacingAndGlyphs" textLength="585" x="42.5" y="97.6348">ImageLaneDetection(CannyEdgeDetector.Config, ProbabilisticHoughLinesLineDetector.Config, CameraMatrix)</text><ellipse cx="33.5" cy="107.9326" fill="#84BE84" rx="3" ry="3" style="stroke: #038048; stroke-width: 1.0;"/><text fill="#000000" font-family="sans-serif" font-size="11" lengthAdjust="spacingAndGlyphs" textLength="291" x="42.5" y="110.5898">detectLane(Mat, ImageCollector): Map&lt;String, Object&gt;</text></a><!--class nl.vaneijndhoven.opencv.lanedetection.DefaultLaneDetector--><a href="DefaultLaneDetector.html" target="_top" xlink:actuate="onRequest" xlink:show="new" xlink:title="DefaultLaneDetector.html" xlink:type="simple"><rect fill="#FEFECE" filter="url(#fbxjhnb7zq0gj)" height="60.9551" id="nl.vaneijndhoven.opencv.lanedetection.DefaultLaneDetector" style="stroke: #A80036; stroke-width: 1.5;" width="244" x="669" y="177"/><ellipse cx="728.25" cy="193" fill="#ADD1B2" rx="11" ry="11" style="stroke: #A80036; stroke-width: 1.0;"/><path d="M731.2231,198.6431 Q730.6421,198.9419 730.0029,199.0913 Q729.3638,199.2407 728.6582,199.2407 Q726.1514,199.2407 724.8315,197.5889 Q723.5117,195.937 723.5117,192.8159 Q723.5117,189.6865 724.8315,188.0347 Q726.1514,186.3828 728.6582,186.3828 Q729.3638,186.3828 730.0112,186.5322 Q730.6587,186.6816 731.2231,186.9805 L731.2231,189.7031 Q730.5923,189.1221 729.9988,188.8523 Q729.4053,188.5825 728.7744,188.5825 Q727.4297,188.5825 726.7449,189.6492 Q726.0601,190.7158 726.0601,192.8159 Q726.0601,194.9077 726.7449,195.9744 Q727.4297,197.041 728.7744,197.041 Q729.4053,197.041 729.9988,196.7712 Q730.5923,196.5015 731.2231,195.9204 Z "/><text fill="#000000" font-family="sans-serif" font-size="12" lengthAdjust="spacingAndGlyphs" textLength="117" x="748.75" y="197.5352">DefaultLaneDetector</text><line style="stroke: #A80036; stroke-width: 1.5;" x1="670" x2="912" y1="209" y2="209"/><line style="stroke: #A80036; stroke-width: 1.5;" x1="670" x2="912" y1="217" y2="217"/><ellipse cx="680" cy="228.9775" fill="#84BE84" rx="3" ry="3" style="stroke: #038048; stroke-width: 1.0;"/><text fill="#000000" font-family="sans-serif" font-size="11" lengthAdjust="spacingAndGlyphs" textLength="218" x="689" y="231.6348">detect(Collection&lt;Line&gt;, ViewPort): Lane</text></a><!--link nl.vaneijndhoven.opencv.lanedetection.LaneDetector to nl.vaneijndhoven.opencv.lanedetection.DefaultLaneDetector--><path d="M791,130.7355 C791,146.309 791,162.9647 791,176.7679 " fill="none" id="nl.vaneijndhoven.opencv.lanedetection.LaneDetector-nl.vaneijndhoven.opencv.lanedetection.DefaultLaneDetector" style="stroke: #A80036; stroke-width: 1.0; stroke-dasharray: 7.0,7.0;"/><polygon fill="none" points="784.0001,130.5395,791,110.5394,798.0001,130.5394,784.0001,130.5395" style="stroke: #A80036; stroke-width: 1.0;"/><text fill="#888888" font-family="sans-serif" font-size="10" lengthAdjust="spacingAndGlyphs" textLength="182" x="382.5" y="273.668">UMLDoclet 1.1.4, PlantUML 1.2019.05</text><!--
@startuml

    namespace nl.vaneijndhoven.opencv.lanedetection {

        interface LaneDetector [[LaneDetector.html]] {
            {abstract} +detect(Collection<Line>, ViewPort): Lane
        }

        class ImageLaneDetection [[ImageLaneDetection.html]] {
            +ImageLaneDetection(CannyEdgeDetector.Config, ProbabilisticHoughLinesLineDetector.Config, CameraMatrix)
            +detectLane(Mat, ImageCollector): Map<String, Object>
        }

        class DefaultLaneDetector [[DefaultLaneDetector.html]] {
            +detect(Collection<Line>, ViewPort): Lane
        }

        LaneDetector <|.. DefaultLaneDetector

    }


    center footer UMLDoclet 1.1.4, PlantUML 1.2019.05
@enduml

PlantUML version 1.2019.05(Sat Apr 20 18:45:36 CEST 2019)
(APACHE source distribution)
Java Runtime: Java(TM) SE Runtime Environment
JVM: Java HotSpot(TM) 64-Bit Server VM
Java Version: 1.8.0_191-b12
Operating System: Mac OS X
OS Version: 10.13.6
Default Encoding: UTF-8
Language: de
Country: DE
--></g></svg>