<?xml version="1.0" encoding="UTF-8" standalone="no"?><svg xmlns="http://www.w3.org/2000/svg" xmlns:xlink="http://www.w3.org/1999/xlink" contentScriptType="application/ecmascript" contentStyleType="text/css" height="218px" preserveAspectRatio="none" style="width:523px;height:218px;" version="1.1" viewBox="0 0 523 218" width="523px" zoomAndPan="magnify"><defs><filter height="300%" id="ftak0t7xdyogm" width="300%" x="-1" y="-1"><feGaussianBlur result="blurOut" stdDeviation="2.0"/><feColorMatrix in="blurOut" result="blurOut2" type="matrix" values="0 0 0 0 0 0 0 0 0 0 0 0 0 0 0 0 0 0 .4 0"/><feOffset dx="4.0" dy="4.0" in="blurOut2" result="blurOut3"/><feBlend in="SourceGraphic" in2="blurOut3" mode="normal"/></filter></defs><g><!--cluster org.rcdukes.roi--><polygon fill="#FFFFFF" filter="url(#ftak0t7xdyogm)" points="14,16,126,16,133,38.4883,501,38.4883,501,177,14,177,14,16" style="stroke: #000000; stroke-width: 1.5;"/><line style="stroke: #000000; stroke-width: 1.5;" x1="14" x2="133" y1="38.4883" y2="38.4883"/><text fill="#000000" font-family="sans-serif" font-size="14" font-weight="bold" lengthAdjust="spacingAndGlyphs" textLength="106" x="18" y="31.5352">org.rcdukes.roi</text><!--class org.rcdukes.roi.TestROI--><a href="TestROI.html" target="_top" xlink:actuate="onRequest" xlink:show="new" xlink:title="TestROI.html" xlink:type="simple"><rect fill="#FEFECE" filter="url(#ftak0t7xdyogm)" height="125.7305" id="org.rcdukes.roi.TestROI" style="stroke: #A80036; stroke-width: 1.5;" width="178" x="315" y="43"/><ellipse cx="377.25" cy="59" fill="#ADD1B2" rx="11" ry="11" style="stroke: #A80036; stroke-width: 1.0;"/><path d="M380.2231,64.6431 Q379.6421,64.9419 379.0029,65.0913 Q378.3638,65.2407 377.6582,65.2407 Q375.1514,65.2407 373.8315,63.5889 Q372.5117,61.937 372.5117,58.8159 Q372.5117,55.6865 373.8315,54.0347 Q375.1514,52.3828 377.6582,52.3828 Q378.3638,52.3828 379.0112,52.5322 Q379.6587,52.6816 380.2231,52.9805 L380.2231,55.7031 Q379.5923,55.1221 378.9988,54.8523 Q378.4053,54.5825 377.7744,54.5825 Q376.4297,54.5825 375.7449,55.6492 Q375.0601,56.7158 375.0601,58.8159 Q375.0601,60.9077 375.7449,61.9744 Q376.4297,63.041 377.7744,63.041 Q378.4053,63.041 378.9988,62.7712 Q379.5923,62.5015 380.2231,61.9204 Z "/><text fill="#000000" font-family="sans-serif" font-size="12" lengthAdjust="spacingAndGlyphs" textLength="45" x="397.75" y="63.5352">TestROI</text><line style="stroke: #A80036; stroke-width: 1.5;" x1="316" x2="492" y1="75" y2="75"/><ellipse cx="326" cy="86.9775" fill="none" rx="3" ry="3" style="stroke: #038048; stroke-width: 1.0;"/><text fill="#000000" font-family="sans-serif" font-size="11" lengthAdjust="spacingAndGlyphs" text-decoration="underline" textLength="83" x="335" y="89.6348">debug: boolean</text><line style="stroke: #A80036; stroke-width: 1.5;" x1="316" x2="492" y1="95.9551" y2="95.9551"/><ellipse cx="326" cy="107.9326" fill="#84BE84" rx="3" ry="3" style="stroke: #038048; stroke-width: 1.0;"/><text fill="#000000" font-family="sans-serif" font-size="11" lengthAdjust="spacingAndGlyphs" textLength="99" x="335" y="110.5898">isTravis(): boolean</text><ellipse cx="326" cy="120.8877" fill="#84BE84" rx="3" ry="3" style="stroke: #038048; stroke-width: 1.0;"/><text fill="#000000" font-family="sans-serif" font-size="11" lengthAdjust="spacingAndGlyphs" textLength="128" x="335" y="123.5449">testNativeLibrary(): void</text><ellipse cx="326" cy="133.8428" fill="#84BE84" rx="3" ry="3" style="stroke: #038048; stroke-width: 1.0;"/><text fill="#000000" font-family="sans-serif" font-size="11" lengthAdjust="spacingAndGlyphs" textLength="110" x="335" y="136.5">testLogStderr(): void</text><ellipse cx="326" cy="146.7979" fill="#84BE84" rx="3" ry="3" style="stroke: #038048; stroke-width: 1.0;"/><text fill="#000000" font-family="sans-serif" font-size="11" lengthAdjust="spacingAndGlyphs" textLength="76" x="335" y="149.4551">testROI(): void</text><ellipse cx="326" cy="159.7529" fill="#84BE84" rx="3" ry="3" style="stroke: #038048; stroke-width: 1.0;"/><text fill="#000000" font-family="sans-serif" font-size="11" lengthAdjust="spacingAndGlyphs" textLength="152" x="335" y="162.4102">writeImage(String, Mat): void</text></a><!--class org.rcdukes.roi.ROI--><a href="ROI.html" target="_top" xlink:actuate="onRequest" xlink:show="new" xlink:title="ROI.html" xlink:type="simple"><rect fill="#FEFECE" filter="url(#ftak0t7xdyogm)" height="86.8652" id="org.rcdukes.roi.ROI" style="stroke: #A80036; stroke-width: 1.5;" width="257" x="22.5" y="62.5"/><ellipse cx="136.75" cy="78.5" fill="#ADD1B2" rx="11" ry="11" style="stroke: #A80036; stroke-width: 1.0;"/><path d="M139.7231,84.1431 Q139.1421,84.4419 138.5029,84.5913 Q137.8638,84.7407 137.1582,84.7407 Q134.6514,84.7407 133.3315,83.0889 Q132.0117,81.437 132.0117,78.3159 Q132.0117,75.1865 133.3315,73.5347 Q134.6514,71.8828 137.1582,71.8828 Q137.8638,71.8828 138.5112,72.0322 Q139.1587,72.1816 139.7231,72.4805 L139.7231,75.2031 Q139.0923,74.6221 138.4988,74.3523 Q137.9053,74.0825 137.2744,74.0825 Q135.9297,74.0825 135.2449,75.1492 Q134.5601,76.2158 134.5601,78.3159 Q134.5601,80.4077 135.2449,81.4744 Q135.9297,82.541 137.2744,82.541 Q137.9053,82.541 138.4988,82.2712 Q139.0923,82.0015 139.7231,81.4204 Z "/><text fill="#000000" font-family="sans-serif" font-size="12" lengthAdjust="spacingAndGlyphs" textLength="20" x="157.25" y="83.0352">ROI</text><line style="stroke: #A80036; stroke-width: 1.5;" x1="23.5" x2="278.5" y1="94.5" y2="94.5"/><line style="stroke: #A80036; stroke-width: 1.5;" x1="23.5" x2="278.5" y1="102.5" y2="102.5"/><ellipse cx="33.5" cy="114.4775" fill="#84BE84" rx="3" ry="3" style="stroke: #038048; stroke-width: 1.0;"/><text fill="#000000" font-family="sans-serif" font-size="11" lengthAdjust="spacingAndGlyphs" textLength="231" x="42.5" y="117.1348">ROI(String, double, double, double, double)</text><ellipse cx="33.5" cy="127.4326" fill="#84BE84" rx="3" ry="3" style="stroke: #038048; stroke-width: 1.0;"/><text fill="#000000" font-family="sans-serif" font-size="11" lengthAdjust="spacingAndGlyphs" textLength="96" x="42.5" y="130.0898">roiRect(Size): Rect</text><ellipse cx="33.5" cy="140.3877" fill="#84BE84" rx="3" ry="3" style="stroke: #038048; stroke-width: 1.0;"/><text fill="#000000" font-family="sans-serif" font-size="11" lengthAdjust="spacingAndGlyphs" textLength="87" x="42.5" y="143.0449">region(Mat): Mat</text></a><text fill="#888888" font-family="sans-serif" font-size="10" lengthAdjust="spacingAndGlyphs" textLength="182" x="172.5" y="204.668">UMLDoclet 1.1.4, PlantUML 1.2019.05</text><!--
@startuml

    namespace org.rcdukes.roi {

        class TestROI [[TestROI.html]] {
            {static} +debug: boolean
            +isTravis(): boolean
            +testNativeLibrary(): void
            +testLogStderr(): void
            +testROI(): void
            +writeImage(String, Mat): void
        }

        class ROI [[ROI.html]] {
            +ROI(String, double, double, double, double)
            +roiRect(Size): Rect
            +region(Mat): Mat
        }

    }


    center footer UMLDoclet 1.1.4, PlantUML 1.2019.05
@enduml

PlantUML version 1.2019.05(Sat Apr 20 18:45:36 CEST 2019)
(APACHE source distribution)
Java Runtime: Java(TM) SE Runtime Environment
JVM: Java HotSpot(TM) 64-Bit Server VM
Java Version: 1.8.0_152-b16
Operating System: Mac OS X
OS Version: 10.13.6
Default Encoding: UTF-8
Language: de
Country: DE
--></g></svg>