<?xml version="1.0" encoding="UTF-8" standalone="no"?><svg xmlns="http://www.w3.org/2000/svg" xmlns:xlink="http://www.w3.org/1999/xlink" contentScriptType="application/ecmascript" contentStyleType="text/css" height="417px" preserveAspectRatio="none" style="width:555px;height:417px;" version="1.1" viewBox="0 0 555 417" width="555px" zoomAndPan="magnify"><defs><filter height="300%" id="f1qbpozs4t1dta" width="300%" x="-1" y="-1"><feGaussianBlur result="blurOut" stdDeviation="2.0"/><feColorMatrix in="blurOut" result="blurOut2" type="matrix" values="0 0 0 0 0 0 0 0 0 0 0 0 0 0 0 0 0 0 .4 0"/><feOffset dx="4.0" dy="4.0" in="blurOut2" result="blurOut3"/><feBlend in="SourceGraphic" in2="blurOut3" mode="normal"/></filter></defs><g><!--cluster org.rcdukes.opencv--><polygon fill="#FFFFFF" filter="url(#f1qbpozs4t1dta)" points="14,16,156,16,163,38.4883,533,38.4883,533,376,14,376,14,16" style="stroke: #000000; stroke-width: 1.5;"/><line style="stroke: #000000; stroke-width: 1.5;" x1="14" x2="163" y1="38.4883" y2="38.4883"/><text fill="#000000" font-family="sans-serif" font-size="14" font-weight="bold" lengthAdjust="spacingAndGlyphs" textLength="136" x="18" y="31.5352">org.rcdukes.opencv</text><!--class org.rcdukes.opencv.OsCheck--><a href="OsCheck.html" target="_top" xlink:actuate="onRequest" xlink:show="new" xlink:title="OsCheck.html" xlink:type="simple"><rect fill="#FEFECE" filter="url(#f1qbpozs4t1dta)" height="73.9102" id="org.rcdukes.opencv.OsCheck" style="stroke: #A80036; stroke-width: 1.5;" width="267" x="257.5" y="88.5"/><ellipse cx="361.75" cy="104.5" fill="#ADD1B2" rx="11" ry="11" style="stroke: #A80036; stroke-width: 1.0;"/><path d="M364.7231,110.1431 Q364.1421,110.4419 363.5029,110.5913 Q362.8638,110.7407 362.1582,110.7407 Q359.6514,110.7407 358.3315,109.0889 Q357.0117,107.437 357.0117,104.3159 Q357.0117,101.1865 358.3315,99.5347 Q359.6514,97.8828 362.1582,97.8828 Q362.8638,97.8828 363.5112,98.0322 Q364.1587,98.1816 364.7231,98.4805 L364.7231,101.2031 Q364.0923,100.6221 363.4988,100.3523 Q362.9053,100.0825 362.2744,100.0825 Q360.9297,100.0825 360.2449,101.1492 Q359.5601,102.2158 359.5601,104.3159 Q359.5601,106.4077 360.2449,107.4744 Q360.9297,108.541 362.2744,108.541 Q362.9053,108.541 363.4988,108.2712 Q364.0923,108.0015 364.7231,107.4204 Z "/><text fill="#000000" font-family="sans-serif" font-size="12" lengthAdjust="spacingAndGlyphs" textLength="50" x="382.25" y="109.0352">OsCheck</text><line style="stroke: #A80036; stroke-width: 1.5;" x1="258.5" x2="523.5" y1="120.5" y2="120.5"/><polygon fill="none" points="268.5,127.4775,272.5,131.4775,268.5,135.4775,264.5,131.4775" style="stroke: #B38D22; stroke-width: 1.0;"/><text fill="#000000" font-family="sans-serif" font-size="11" lengthAdjust="spacingAndGlyphs" text-decoration="underline" textLength="159" x="277.5" y="135.1348">detectedOS: OsCheck.OSType</text><line style="stroke: #A80036; stroke-width: 1.5;" x1="258.5" x2="523.5" y1="141.4551" y2="141.4551"/><ellipse cx="268.5" cy="153.4326" fill="#84BE84" rx="3" ry="3" style="stroke: #038048; stroke-width: 1.0;"/><text fill="#000000" font-family="sans-serif" font-size="11" lengthAdjust="spacingAndGlyphs" text-decoration="underline" textLength="241" x="277.5" y="156.0898">getOperatingSystemType(): OsCheck.OSType</text></a><!--class org.rcdukes.opencv.OsCheck.OSType--><a href="OsCheck.OSType.html" target="_top" xlink:actuate="onRequest" xlink:show="new" xlink:title="OsCheck.OSType.html" xlink:type="simple"><rect fill="#FEFECE" filter="url(#f1qbpozs4t1dta)" height="99.8203" id="org.rcdukes.opencv.OsCheck.OSType" style="stroke: #A80036; stroke-width: 1.5;" width="130" x="326" y="268"/><ellipse cx="341" cy="284" fill="#EB937F" rx="11" ry="11" style="stroke: #A80036; stroke-width: 1.0;"/><path d="M345.1143,290 L337.3945,290 L337.3945,277.6069 L345.1143,277.6069 L345.1143,279.7651 L339.8433,279.7651 L339.8433,282.438 L344.6162,282.438 L344.6162,284.5962 L339.8433,284.5962 L339.8433,287.8418 L345.1143,287.8418 Z "/><text fill="#000000" font-family="sans-serif" font-size="12" lengthAdjust="spacingAndGlyphs" textLength="98" x="355" y="288.5352">OsCheck.OSType</text><line style="stroke: #A80036; stroke-width: 1.5;" x1="327" x2="455" y1="300" y2="300"/><ellipse cx="337" cy="311.9775" fill="none" rx="3" ry="3" style="stroke: #038048; stroke-width: 1.0;"/><text fill="#000000" font-family="sans-serif" font-size="11" lengthAdjust="spacingAndGlyphs" text-decoration="underline" textLength="47" x="346" y="314.6348">Windows</text><ellipse cx="337" cy="324.9326" fill="none" rx="3" ry="3" style="stroke: #038048; stroke-width: 1.0;"/><text fill="#000000" font-family="sans-serif" font-size="11" lengthAdjust="spacingAndGlyphs" text-decoration="underline" textLength="36" x="346" y="327.5898">MacOS</text><ellipse cx="337" cy="337.8877" fill="none" rx="3" ry="3" style="stroke: #038048; stroke-width: 1.0;"/><text fill="#000000" font-family="sans-serif" font-size="11" lengthAdjust="spacingAndGlyphs" text-decoration="underline" textLength="30" x="346" y="340.5449">Linux</text><ellipse cx="337" cy="350.8428" fill="none" rx="3" ry="3" style="stroke: #038048; stroke-width: 1.0;"/><text fill="#000000" font-family="sans-serif" font-size="11" lengthAdjust="spacingAndGlyphs" text-decoration="underline" textLength="31" x="346" y="353.5">Other</text><line style="stroke: #A80036; stroke-width: 1.5;" x1="327" x2="455" y1="359.8203" y2="359.8203"/></a><!--class org.rcdukes.opencv.NativeLibrary--><a href="NativeLibrary.html" target="_top" xlink:actuate="onRequest" xlink:show="new" xlink:title="NativeLibrary.html" xlink:type="simple"><rect fill="#FEFECE" filter="url(#f1qbpozs4t1dta)" height="164.5957" id="org.rcdukes.opencv.NativeLibrary" style="stroke: #A80036; stroke-width: 1.5;" width="200" x="22" y="43"/><ellipse cx="79.75" cy="59" fill="#ADD1B2" rx="11" ry="11" style="stroke: #A80036; stroke-width: 1.0;"/><path d="M82.7231,64.6431 Q82.1421,64.9419 81.5029,65.0913 Q80.8638,65.2407 80.1582,65.2407 Q77.6514,65.2407 76.3315,63.5889 Q75.0117,61.937 75.0117,58.8159 Q75.0117,55.6865 76.3315,54.0347 Q77.6514,52.3828 80.1582,52.3828 Q80.8638,52.3828 81.5112,52.5322 Q82.1587,52.6816 82.7231,52.9805 L82.7231,55.7031 Q82.0923,55.1221 81.4988,54.8523 Q80.9053,54.5825 80.2744,54.5825 Q78.9297,54.5825 78.2449,55.6492 Q77.5601,56.7158 77.5601,58.8159 Q77.5601,60.9077 78.2449,61.9744 Q78.9297,63.041 80.2744,63.041 Q80.9053,63.041 81.4988,62.7712 Q82.0923,62.5015 82.7231,61.9204 Z "/><text fill="#000000" font-family="sans-serif" font-size="12" lengthAdjust="spacingAndGlyphs" textLength="76" x="100.25" y="63.5352">NativeLibrary</text><line style="stroke: #A80036; stroke-width: 1.5;" x1="23" x2="221" y1="75" y2="75"/><polygon fill="none" points="33,81.9775,37,85.9775,33,89.9775,29,85.9775" style="stroke: #B38D22; stroke-width: 1.0;"/><text fill="#000000" font-family="sans-serif" font-size="11" lengthAdjust="spacingAndGlyphs" text-decoration="underline" textLength="95" x="42" y="89.6348">nativeLibPath: File</text><polygon fill="none" points="33,94.9326,37,98.9326,33,102.9326,29,98.9326" style="stroke: #B38D22; stroke-width: 1.0;"/><text fill="#000000" font-family="sans-serif" font-size="11" lengthAdjust="spacingAndGlyphs" text-decoration="underline" textLength="147" x="42" y="102.5898">currentLibraryPath: String[]</text><line style="stroke: #A80036; stroke-width: 1.5;" x1="23" x2="221" y1="108.9102" y2="108.9102"/><ellipse cx="33" cy="120.8877" fill="#84BE84" rx="3" ry="3" style="stroke: #038048; stroke-width: 1.0;"/><text fill="#000000" font-family="sans-serif" font-size="11" lengthAdjust="spacingAndGlyphs" text-decoration="underline" textLength="121" x="42" y="123.5449">getNativeLibPath(): File</text><ellipse cx="33" cy="133.8428" fill="#84BE84" rx="3" ry="3" style="stroke: #038048; stroke-width: 1.0;"/><text fill="#000000" font-family="sans-serif" font-size="11" lengthAdjust="spacingAndGlyphs" text-decoration="underline" textLength="143" x="42" y="136.5">setNativeLibPath(File): void</text><ellipse cx="33" cy="146.7979" fill="#84BE84" rx="3" ry="3" style="stroke: #038048; stroke-width: 1.0;"/><text fill="#000000" font-family="sans-serif" font-size="11" lengthAdjust="spacingAndGlyphs" text-decoration="underline" textLength="174" x="42" y="149.4551">getCurrentLibraryPath(): String[]</text><ellipse cx="33" cy="159.7529" fill="#84BE84" rx="3" ry="3" style="stroke: #038048; stroke-width: 1.0;"/><text fill="#000000" font-family="sans-serif" font-size="11" lengthAdjust="spacingAndGlyphs" text-decoration="underline" textLength="150" x="42" y="162.4102">addLibraryPath(String): void</text><ellipse cx="33" cy="172.708" fill="#84BE84" rx="3" ry="3" style="stroke: #038048; stroke-width: 1.0;"/><text fill="#000000" font-family="sans-serif" font-size="11" lengthAdjust="spacingAndGlyphs" text-decoration="underline" textLength="149" x="42" y="175.3652">getLibraryFileName(): String</text><ellipse cx="33" cy="185.6631" fill="#84BE84" rx="3" ry="3" style="stroke: #038048; stroke-width: 1.0;"/><text fill="#000000" font-family="sans-serif" font-size="11" lengthAdjust="spacingAndGlyphs" text-decoration="underline" textLength="98" x="42" y="188.3203">getNativeLib(): File</text><ellipse cx="33" cy="198.6182" fill="#84BE84" rx="3" ry="3" style="stroke: #038048; stroke-width: 1.0;"/><text fill="#000000" font-family="sans-serif" font-size="11" lengthAdjust="spacingAndGlyphs" text-decoration="underline" textLength="60" x="42" y="201.2754">load(): void</text></a><!--link org.rcdukes.opencv.OsCheck to org.rcdukes.opencv.OsCheck.OSType--><path d="M391,177.8679 C391,205.8892 391,240.2242 391,267.894 " fill="none" id="org.rcdukes.opencv.OsCheck-org.rcdukes.opencv.OsCheck.OSType" style="stroke: #A80036; stroke-width: 1.0;"/><ellipse cx="391.0001" cy="170.6159" fill="#FFFFFF" rx="8" ry="8" style="stroke: #A80036; stroke-width: 1.0;"/><line style="stroke: #A80036; stroke-width: 1.0;" x1="391.0002" x2="391" y1="178.6159" y2="162.6159"/><line style="stroke: #A80036; stroke-width: 1.0;" x1="383.0001" x2="399.0001" y1="170.616" y2="170.6158"/><text fill="#888888" font-family="sans-serif" font-size="10" lengthAdjust="spacingAndGlyphs" textLength="182" x="188.5" y="403.668">UMLDoclet 1.1.4, PlantUML 1.2019.05</text><!--
@startuml

    namespace org.rcdukes.opencv {

        class OsCheck [[OsCheck.html]] {
            {static} #detectedOS: OsCheck.OSType
            {static} +getOperatingSystemType(): OsCheck.OSType
        }

        enum org.rcdukes.opencv.OsCheck.OSType [[OsCheck.OSType.html]] {
            {static} +Windows
            {static} +MacOS
            {static} +Linux
            {static} +Other
        }

        class NativeLibrary [[NativeLibrary.html]] {
            {static} #nativeLibPath: File
            {static} #currentLibraryPath: String[]
            {static} +getNativeLibPath(): File
            {static} +setNativeLibPath(File): void
            {static} +getCurrentLibraryPath(): String[]
            {static} +addLibraryPath(String): void
            {static} +getLibraryFileName(): String
            {static} +getNativeLib(): File
            {static} +load(): void
        }

        OsCheck +- - org.rcdukes.opencv.OsCheck.OSType

    }


    center footer UMLDoclet 1.1.4, PlantUML 1.2019.05
@enduml

PlantUML version 1.2019.05(Sat Apr 20 18:45:36 CEST 2019)
(APACHE source distribution)
Java Runtime: Java(TM) SE Runtime Environment
JVM: Java HotSpot(TM) 64-Bit Server VM
Java Version: 1.8.0_152-b16
Operating System: Mac OS X
OS Version: 10.13.6
Default Encoding: UTF-8
Language: de
Country: DE
--></g></svg>