<?xml version="1.0" encoding="UTF-8" standalone="no"?><svg xmlns="http://www.w3.org/2000/svg" xmlns:xlink="http://www.w3.org/1999/xlink" contentScriptType="application/ecmascript" contentStyleType="text/css" height="481px" preserveAspectRatio="none" style="width:405px;height:481px;" version="1.1" viewBox="0 0 405 481" width="405px" zoomAndPan="magnify"><defs><filter height="300%" id="fig1sgfae8e6j" width="300%" x="-1" y="-1"><feGaussianBlur result="blurOut" stdDeviation="2.0"/><feColorMatrix in="blurOut" result="blurOut2" type="matrix" values="0 0 0 0 0 0 0 0 0 0 0 0 0 0 0 0 0 0 .4 0"/><feOffset dx="4.0" dy="4.0" in="blurOut2" result="blurOut3"/><feBlend in="SourceGraphic" in2="blurOut3" mode="normal"/></filter></defs><g><!--cluster nl.vaneijndhoven.dukes.drivecontrol--><polygon fill="#FFFFFF" filter="url(#fig1sgfae8e6j)" points="14,202,277,202,284,224.4883,383,224.4883,383,440,14,440,14,202" style="stroke: #000000; stroke-width: 1.5;"/><line style="stroke: #000000; stroke-width: 1.5;" x1="14" x2="284" y1="224.4883" y2="224.4883"/><text fill="#000000" font-family="sans-serif" font-size="14" font-weight="bold" lengthAdjust="spacingAndGlyphs" textLength="257" x="18" y="217.5352">nl.vaneijndhoven.dukes.drivecontrol</text><!--cluster nl.vaneijndhoven.dukes.car--><polygon fill="#FFFFFF" filter="url(#fig1sgfae8e6j)" points="60,16,257,16,264,38.4883,338,38.4883,338,177,60,177,60,16" style="stroke: #000000; stroke-width: 1.5;"/><line style="stroke: #000000; stroke-width: 1.5;" x1="60" x2="264" y1="38.4883" y2="38.4883"/><text fill="#000000" font-family="sans-serif" font-size="14" font-weight="bold" lengthAdjust="spacingAndGlyphs" textLength="191" x="64" y="31.5352">nl.vaneijndhoven.dukes.car</text><!--class nl.vaneijndhoven.dukes.drivecontrol.SteeringMap--><a href="SteeringMap.html" target="_top" xlink:actuate="onRequest" xlink:show="new" xlink:title="SteeringMap.html" xlink:type="simple"><rect fill="#FEFECE" filter="url(#fig1sgfae8e6j)" height="151.6406" id="nl.vaneijndhoven.dukes.drivecontrol.SteeringMap" style="stroke: #A80036; stroke-width: 1.5;" width="150" x="225" y="254.5"/><ellipse cx="261.15" cy="270.5" fill="#ADD1B2" rx="11" ry="11" style="stroke: #A80036; stroke-width: 1.0;"/><path d="M264.1231,276.1431 Q263.5421,276.4419 262.9029,276.5913 Q262.2638,276.7407 261.5582,276.7407 Q259.0514,276.7407 257.7315,275.0889 Q256.4117,273.437 256.4117,270.3159 Q256.4117,267.1865 257.7315,265.5347 Q259.0514,263.8828 261.5582,263.8828 Q262.2638,263.8828 262.9112,264.0322 Q263.5587,264.1816 264.1231,264.4805 L264.1231,267.2031 Q263.4923,266.6221 262.8988,266.3523 Q262.3053,266.0825 261.6744,266.0825 Q260.3297,266.0825 259.6449,267.1492 Q258.9601,268.2158 258.9601,270.3159 Q258.9601,272.4077 259.6449,273.4744 Q260.3297,274.541 261.6744,274.541 Q262.3053,274.541 262.8988,274.2712 Q263.4923,274.0015 264.1231,273.4204 Z "/><text fill="#000000" font-family="sans-serif" font-size="12" lengthAdjust="spacingAndGlyphs" textLength="71" x="279.85" y="275.0352">SteeringMap</text><line style="stroke: #A80036; stroke-width: 1.5;" x1="226" x2="374" y1="286.5" y2="286.5"/><ellipse cx="236" cy="298.4775" fill="none" rx="3" ry="3" style="stroke: #038048; stroke-width: 1.0;"/><text fill="#000000" font-family="sans-serif" font-size="11" lengthAdjust="spacingAndGlyphs" text-decoration="underline" textLength="103" x="245" y="301.1348">WHEEL_CENTER: int</text><ellipse cx="236" cy="311.4326" fill="none" rx="3" ry="3" style="stroke: #038048; stroke-width: 1.0;"/><text fill="#000000" font-family="sans-serif" font-size="11" lengthAdjust="spacingAndGlyphs" text-decoration="underline" textLength="114" x="245" y="314.0898">WHEEL_STEP_SIZE: int</text><ellipse cx="236" cy="324.3877" fill="none" rx="3" ry="3" style="stroke: #038048; stroke-width: 1.0;"/><text fill="#000000" font-family="sans-serif" font-size="11" lengthAdjust="spacingAndGlyphs" text-decoration="underline" textLength="116" x="245" y="327.0449">WHEEL_MAX_LEFT: int</text><ellipse cx="236" cy="337.3428" fill="none" rx="3" ry="3" style="stroke: #038048; stroke-width: 1.0;"/><text fill="#000000" font-family="sans-serif" font-size="11" lengthAdjust="spacingAndGlyphs" text-decoration="underline" textLength="124" x="245" y="340">WHEEL_MAX_RIGHT: int</text><line style="stroke: #A80036; stroke-width: 1.5;" x1="226" x2="374" y1="346.3203" y2="346.3203"/><ellipse cx="236" cy="358.2979" fill="#84BE84" rx="3" ry="3" style="stroke: #038048; stroke-width: 1.0;"/><text fill="#000000" font-family="sans-serif" font-size="11" lengthAdjust="spacingAndGlyphs" textLength="62" x="245" y="360.9551">center(): int</text><ellipse cx="236" cy="371.2529" fill="#84BE84" rx="3" ry="3" style="stroke: #038048; stroke-width: 1.0;"/><text fill="#000000" font-family="sans-serif" font-size="11" lengthAdjust="spacingAndGlyphs" textLength="72" x="245" y="373.9102">stepSize(): int</text><ellipse cx="236" cy="384.208" fill="#84BE84" rx="3" ry="3" style="stroke: #038048; stroke-width: 1.0;"/><text fill="#000000" font-family="sans-serif" font-size="11" lengthAdjust="spacingAndGlyphs" textLength="71" x="245" y="386.8652">maxLeft(): int</text><ellipse cx="236" cy="397.1631" fill="#84BE84" rx="3" ry="3" style="stroke: #038048; stroke-width: 1.0;"/><text fill="#000000" font-family="sans-serif" font-size="11" lengthAdjust="spacingAndGlyphs" textLength="79" x="245" y="399.8203">maxRight(): int</text></a><!--class nl.vaneijndhoven.dukes.drivecontrol.EngineMap--><a href="EngineMap.html" target="_top" xlink:actuate="onRequest" xlink:show="new" xlink:title="EngineMap.html" xlink:type="simple"><rect fill="#FEFECE" filter="url(#fig1sgfae8e6j)" height="203.4609" id="nl.vaneijndhoven.dukes.drivecontrol.EngineMap" style="stroke: #A80036; stroke-width: 1.5;" width="168" x="22" y="229"/><ellipse cx="70.25" cy="245" fill="#ADD1B2" rx="11" ry="11" style="stroke: #A80036; stroke-width: 1.0;"/><path d="M73.2231,250.6431 Q72.6421,250.9419 72.0029,251.0913 Q71.3638,251.2407 70.6582,251.2407 Q68.1514,251.2407 66.8315,249.5889 Q65.5117,247.937 65.5117,244.8159 Q65.5117,241.6865 66.8315,240.0347 Q68.1514,238.3828 70.6582,238.3828 Q71.3638,238.3828 72.0112,238.5322 Q72.6587,238.6816 73.2231,238.9805 L73.2231,241.7031 Q72.5923,241.1221 71.9988,240.8523 Q71.4053,240.5825 70.7744,240.5825 Q69.4297,240.5825 68.7449,241.6492 Q68.0601,242.7158 68.0601,244.8159 Q68.0601,246.9077 68.7449,247.9744 Q69.4297,249.041 70.7744,249.041 Q71.4053,249.041 71.9988,248.7712 Q72.5923,248.5015 73.2231,247.9204 Z "/><text fill="#000000" font-family="sans-serif" font-size="12" lengthAdjust="spacingAndGlyphs" textLength="63" x="90.75" y="249.5352">EngineMap</text><line style="stroke: #A80036; stroke-width: 1.5;" x1="23" x2="189" y1="261" y2="261"/><ellipse cx="33" cy="272.9775" fill="none" rx="3" ry="3" style="stroke: #038048; stroke-width: 1.0;"/><text fill="#000000" font-family="sans-serif" font-size="11" lengthAdjust="spacingAndGlyphs" text-decoration="underline" textLength="87" x="42" y="275.6348">SPEED_ZERO: int</text><ellipse cx="33" cy="285.9326" fill="none" rx="3" ry="3" style="stroke: #038048; stroke-width: 1.0;"/><text fill="#000000" font-family="sans-serif" font-size="11" lengthAdjust="spacingAndGlyphs" text-decoration="underline" textLength="111" x="42" y="288.5898">SPEED_STEP_SIZE: int</text><ellipse cx="33" cy="298.8877" fill="none" rx="3" ry="3" style="stroke: #038048; stroke-width: 1.0;"/><text fill="#000000" font-family="sans-serif" font-size="11" lengthAdjust="spacingAndGlyphs" text-decoration="underline" textLength="129" x="42" y="301.5449">MIN_SPEED_REVERSE: int</text><ellipse cx="33" cy="311.8428" fill="none" rx="3" ry="3" style="stroke: #038048; stroke-width: 1.0;"/><text fill="#000000" font-family="sans-serif" font-size="11" lengthAdjust="spacingAndGlyphs" text-decoration="underline" textLength="138" x="42" y="314.5">MIN_SPEED_FORWARD: int</text><ellipse cx="33" cy="324.7979" fill="none" rx="3" ry="3" style="stroke: #038048; stroke-width: 1.0;"/><text fill="#000000" font-family="sans-serif" font-size="11" lengthAdjust="spacingAndGlyphs" text-decoration="underline" textLength="133" x="42" y="327.4551">MAX_SPEED_REVERSE: int</text><ellipse cx="33" cy="337.7529" fill="none" rx="3" ry="3" style="stroke: #038048; stroke-width: 1.0;"/><text fill="#000000" font-family="sans-serif" font-size="11" lengthAdjust="spacingAndGlyphs" text-decoration="underline" textLength="142" x="42" y="340.4102">MAX_SPEED_FORWARD: int</text><line style="stroke: #A80036; stroke-width: 1.5;" x1="23" x2="189" y1="346.7305" y2="346.7305"/><ellipse cx="33" cy="358.708" fill="#84BE84" rx="3" ry="3" style="stroke: #038048; stroke-width: 1.0;"/><text fill="#000000" font-family="sans-serif" font-size="11" lengthAdjust="spacingAndGlyphs" textLength="66" x="42" y="361.3652">neutral(): int</text><ellipse cx="33" cy="371.6631" fill="#84BE84" rx="3" ry="3" style="stroke: #038048; stroke-width: 1.0;"/><text fill="#000000" font-family="sans-serif" font-size="11" lengthAdjust="spacingAndGlyphs" textLength="72" x="42" y="374.3203">stepSize(): int</text><ellipse cx="33" cy="384.6182" fill="#84BE84" rx="3" ry="3" style="stroke: #038048; stroke-width: 1.0;"/><text fill="#000000" font-family="sans-serif" font-size="11" lengthAdjust="spacingAndGlyphs" textLength="90" x="42" y="387.2754">minReverse(): int</text><ellipse cx="33" cy="397.5732" fill="#84BE84" rx="3" ry="3" style="stroke: #038048; stroke-width: 1.0;"/><text fill="#000000" font-family="sans-serif" font-size="11" lengthAdjust="spacingAndGlyphs" textLength="93" x="42" y="400.2305">maxReverse(): int</text><ellipse cx="33" cy="410.5283" fill="#84BE84" rx="3" ry="3" style="stroke: #038048; stroke-width: 1.0;"/><text fill="#000000" font-family="sans-serif" font-size="11" lengthAdjust="spacingAndGlyphs" textLength="92" x="42" y="413.1855">minForward(): int</text><ellipse cx="33" cy="423.4834" fill="#84BE84" rx="3" ry="3" style="stroke: #038048; stroke-width: 1.0;"/><text fill="#000000" font-family="sans-serif" font-size="11" lengthAdjust="spacingAndGlyphs" textLength="95" x="42" y="426.1406">maxForward(): int</text></a><!--class nl.vaneijndhoven.dukes.car.SteeringMap--><rect fill="#FEFECE" filter="url(#fig1sgfae8e6j)" height="99.8203" id="nl.vaneijndhoven.dukes.car.SteeringMap" style="stroke: #A80036; stroke-width: 1.5;" width="105" x="224.5" y="56"/><ellipse cx="240.4" cy="72" fill="#B4A7E5" rx="11" ry="11" style="stroke: #A80036; stroke-width: 1.0;"/><path d="M236.3277,67.7651 L236.3277,65.6069 L243.7071,65.6069 L243.7071,67.7651 L241.2418,67.7651 L241.2418,75.8418 L243.7071,75.8418 L243.7071,78 L236.3277,78 L236.3277,75.8418 L238.7931,75.8418 L238.7931,67.7651 Z "/><text fill="#000000" font-family="sans-serif" font-size="12" font-style="italic" lengthAdjust="spacingAndGlyphs" textLength="71" x="254.6" y="76.5352">SteeringMap</text><line style="stroke: #A80036; stroke-width: 1.5;" x1="225.5" x2="328.5" y1="88" y2="88"/><line style="stroke: #A80036; stroke-width: 1.5;" x1="225.5" x2="328.5" y1="96" y2="96"/><ellipse cx="235.5" cy="107.9775" fill="#84BE84" rx="3" ry="3" style="stroke: #038048; stroke-width: 1.0;"/><text fill="#000000" font-family="sans-serif" font-size="11" font-style="italic" lengthAdjust="spacingAndGlyphs" textLength="62" x="244.5" y="110.6348">center(): int</text><ellipse cx="235.5" cy="120.9326" fill="#84BE84" rx="3" ry="3" style="stroke: #038048; stroke-width: 1.0;"/><text fill="#000000" font-family="sans-serif" font-size="11" font-style="italic" lengthAdjust="spacingAndGlyphs" textLength="72" x="244.5" y="123.5898">stepSize(): int</text><ellipse cx="235.5" cy="133.8877" fill="#84BE84" rx="3" ry="3" style="stroke: #038048; stroke-width: 1.0;"/><text fill="#000000" font-family="sans-serif" font-size="11" font-style="italic" lengthAdjust="spacingAndGlyphs" textLength="71" x="244.5" y="136.5449">maxLeft(): int</text><ellipse cx="235.5" cy="146.8428" fill="#84BE84" rx="3" ry="3" style="stroke: #038048; stroke-width: 1.0;"/><text fill="#000000" font-family="sans-serif" font-size="11" font-style="italic" lengthAdjust="spacingAndGlyphs" textLength="79" x="244.5" y="149.5">maxRight(): int</text><!--class nl.vaneijndhoven.dukes.car.EngineMap--><rect fill="#FEFECE" filter="url(#fig1sgfae8e6j)" height="125.7305" id="nl.vaneijndhoven.dukes.car.EngineMap" style="stroke: #A80036; stroke-width: 1.5;" width="121" x="68.5" y="43"/><ellipse cx="95.2" cy="59" fill="#B4A7E5" rx="11" ry="11" style="stroke: #A80036; stroke-width: 1.0;"/><path d="M91.1277,54.7651 L91.1277,52.6069 L98.5071,52.6069 L98.5071,54.7651 L96.0418,54.7651 L96.0418,62.8418 L98.5071,62.8418 L98.5071,65 L91.1277,65 L91.1277,62.8418 L93.5931,62.8418 L93.5931,54.7651 Z "/><text fill="#000000" font-family="sans-serif" font-size="12" font-style="italic" lengthAdjust="spacingAndGlyphs" textLength="63" x="111.8" y="63.5352">EngineMap</text><line style="stroke: #A80036; stroke-width: 1.5;" x1="69.5" x2="188.5" y1="75" y2="75"/><line style="stroke: #A80036; stroke-width: 1.5;" x1="69.5" x2="188.5" y1="83" y2="83"/><ellipse cx="79.5" cy="94.9775" fill="#84BE84" rx="3" ry="3" style="stroke: #038048; stroke-width: 1.0;"/><text fill="#000000" font-family="sans-serif" font-size="11" font-style="italic" lengthAdjust="spacingAndGlyphs" textLength="66" x="88.5" y="97.6348">neutral(): int</text><ellipse cx="79.5" cy="107.9326" fill="#84BE84" rx="3" ry="3" style="stroke: #038048; stroke-width: 1.0;"/><text fill="#000000" font-family="sans-serif" font-size="11" font-style="italic" lengthAdjust="spacingAndGlyphs" textLength="72" x="88.5" y="110.5898">stepSize(): int</text><ellipse cx="79.5" cy="120.8877" fill="#84BE84" rx="3" ry="3" style="stroke: #038048; stroke-width: 1.0;"/><text fill="#000000" font-family="sans-serif" font-size="11" font-style="italic" lengthAdjust="spacingAndGlyphs" textLength="90" x="88.5" y="123.5449">minReverse(): int</text><ellipse cx="79.5" cy="133.8428" fill="#84BE84" rx="3" ry="3" style="stroke: #038048; stroke-width: 1.0;"/><text fill="#000000" font-family="sans-serif" font-size="11" font-style="italic" lengthAdjust="spacingAndGlyphs" textLength="93" x="88.5" y="136.5">maxReverse(): int</text><ellipse cx="79.5" cy="146.7979" fill="#84BE84" rx="3" ry="3" style="stroke: #038048; stroke-width: 1.0;"/><text fill="#000000" font-family="sans-serif" font-size="11" font-style="italic" lengthAdjust="spacingAndGlyphs" textLength="92" x="88.5" y="149.4551">minForward(): int</text><ellipse cx="79.5" cy="159.7529" fill="#84BE84" rx="3" ry="3" style="stroke: #038048; stroke-width: 1.0;"/><text fill="#000000" font-family="sans-serif" font-size="11" font-style="italic" lengthAdjust="spacingAndGlyphs" textLength="95" x="88.5" y="162.4102">maxForward(): int</text><!--link nl.vaneijndhoven.dukes.car.SteeringMap to nl.vaneijndhoven.dukes.drivecontrol.SteeringMap--><path d="M284.1746,176.0302 C286.713,200.8077 289.5806,228.7978 292.1707,254.079 " fill="none" id="nl.vaneijndhoven.dukes.car.SteeringMap-nl.vaneijndhoven.dukes.drivecontrol.SteeringMap" style="stroke: #A80036; stroke-width: 1.0; stroke-dasharray: 7.0,7.0;"/><polygon fill="none" points="277.2079,176.7121,282.133,156.1028,291.135,175.2852,277.2079,176.7121" style="stroke: #A80036; stroke-width: 1.0;"/><!--link nl.vaneijndhoven.dukes.car.EngineMap to nl.vaneijndhoven.dukes.drivecontrol.EngineMap--><path d="M120.4554,189.4024 C119.1414,202.2283 117.7722,215.5933 116.4229,228.7636 " fill="none" id="nl.vaneijndhoven.dukes.car.EngineMap-nl.vaneijndhoven.dukes.drivecontrol.EngineMap" style="stroke: #A80036; stroke-width: 1.0; stroke-dasharray: 7.0,7.0;"/><polygon fill="none" points="113.53,188.3156,122.532,169.1332,127.4571,189.7425,113.53,188.3156" style="stroke: #A80036; stroke-width: 1.0;"/><text fill="#888888" font-family="sans-serif" font-size="10" lengthAdjust="spacingAndGlyphs" textLength="182" x="113.5" y="467.668">UMLDoclet 1.1.4, PlantUML 1.2019.05</text><!--
@startuml

    namespace nl.vaneijndhoven.dukes.drivecontrol {

        class SteeringMap [[SteeringMap.html]] {
            {static} +WHEEL_CENTER: int
            {static} +WHEEL_STEP_SIZE: int
            {static} +WHEEL_MAX_LEFT: int
            {static} +WHEEL_MAX_RIGHT: int
            +center(): int
            +stepSize(): int
            +maxLeft(): int
            +maxRight(): int
        }

        class EngineMap [[EngineMap.html]] {
            {static} +SPEED_ZERO: int
            {static} +SPEED_STEP_SIZE: int
            {static} +MIN_SPEED_REVERSE: int
            {static} +MIN_SPEED_FORWARD: int
            {static} +MAX_SPEED_REVERSE: int
            {static} +MAX_SPEED_FORWARD: int
            +neutral(): int
            +stepSize(): int
            +minReverse(): int
            +maxReverse(): int
            +minForward(): int
            +maxForward(): int
        }

        interface nl.vaneijndhoven.dukes.car.SteeringMap {
            {abstract} +center(): int
            {abstract} +stepSize(): int
            {abstract} +maxLeft(): int
            {abstract} +maxRight(): int
        }
        nl.vaneijndhoven.dukes.car.SteeringMap <|.. SteeringMap

        interface nl.vaneijndhoven.dukes.car.EngineMap {
            {abstract} +neutral(): int
            {abstract} +stepSize(): int
            {abstract} +minReverse(): int
            {abstract} +maxReverse(): int
            {abstract} +minForward(): int
            {abstract} +maxForward(): int
        }
        nl.vaneijndhoven.dukes.car.EngineMap <|.. EngineMap

    }


    center footer UMLDoclet 1.1.4, PlantUML 1.2019.05
@enduml

PlantUML version 1.2019.05(Sat Apr 20 18:45:36 CEST 2019)
(APACHE source distribution)
Java Runtime: Java(TM) SE Runtime Environment
JVM: Java HotSpot(TM) 64-Bit Server VM
Java Version: 1.8.0_191-b12
Operating System: Mac OS X
OS Version: 10.13.6
Default Encoding: UTF-8
Language: de
Country: DE
--></g></svg>