<?xml version="1.0" encoding="UTF-8" standalone="no"?><svg xmlns="http://www.w3.org/2000/svg" xmlns:xlink="http://www.w3.org/1999/xlink" contentScriptType="application/ecmascript" contentStyleType="text/css" height="193px" preserveAspectRatio="none" style="width:194px;height:193px;" version="1.1" viewBox="0 0 194 193" width="194px" zoomAndPan="magnify"><defs><filter height="300%" id="fu54az8vw7m90" width="300%" x="-1" y="-1"><feGaussianBlur result="blurOut" stdDeviation="2.0"/><feColorMatrix in="blurOut" result="blurOut2" type="matrix" values="0 0 0 0 0 0 0 0 0 0 0 0 0 0 0 0 0 0 .4 0"/><feOffset dx="4.0" dy="4.0" in="blurOut2" result="blurOut3"/><feBlend in="SourceGraphic" in2="blurOut3" mode="normal"/></filter></defs><g><!--class SteeringMap--><a href="SteeringMap.html" target="_top" xlink:actuate="onRequest" xlink:show="new" xlink:title="SteeringMap.html" xlink:type="simple"><rect fill="#FEFECE" filter="url(#fu54az8vw7m90)" height="151.6406" id="SteeringMap" style="stroke: #A80036; stroke-width: 1.5;" width="150" x="10" y="8"/><ellipse cx="46.15" cy="24" fill="#ADD1B2" rx="11" ry="11" style="stroke: #A80036; stroke-width: 1.0;"/><path d="M49.1231,29.6431 Q48.5421,29.9419 47.9029,30.0913 Q47.2638,30.2407 46.5582,30.2407 Q44.0514,30.2407 42.7315,28.5889 Q41.4117,26.937 41.4117,23.8159 Q41.4117,20.6865 42.7315,19.0347 Q44.0514,17.3828 46.5582,17.3828 Q47.2638,17.3828 47.9112,17.5322 Q48.5587,17.6816 49.1231,17.9805 L49.1231,20.7031 Q48.4923,20.1221 47.8988,19.8523 Q47.3053,19.5825 46.6744,19.5825 Q45.3297,19.5825 44.6449,20.6492 Q43.9601,21.7158 43.9601,23.8159 Q43.9601,25.9077 44.6449,26.9744 Q45.3297,28.041 46.6744,28.041 Q47.3053,28.041 47.8988,27.7712 Q48.4923,27.5015 49.1231,26.9204 Z "/><text fill="#000000" font-family="sans-serif" font-size="12" lengthAdjust="spacingAndGlyphs" textLength="71" x="64.85" y="28.5352">SteeringMap</text><line style="stroke: #A80036; stroke-width: 1.5;" x1="11" x2="159" y1="40" y2="40"/><ellipse cx="21" cy="51.9775" fill="none" rx="3" ry="3" style="stroke: #038048; stroke-width: 1.0;"/><text fill="#000000" font-family="sans-serif" font-size="11" lengthAdjust="spacingAndGlyphs" text-decoration="underline" textLength="103" x="30" y="54.6348">WHEEL_CENTER: int</text><ellipse cx="21" cy="64.9326" fill="none" rx="3" ry="3" style="stroke: #038048; stroke-width: 1.0;"/><text fill="#000000" font-family="sans-serif" font-size="11" lengthAdjust="spacingAndGlyphs" text-decoration="underline" textLength="114" x="30" y="67.5898">WHEEL_STEP_SIZE: int</text><ellipse cx="21" cy="77.8877" fill="none" rx="3" ry="3" style="stroke: #038048; stroke-width: 1.0;"/><text fill="#000000" font-family="sans-serif" font-size="11" lengthAdjust="spacingAndGlyphs" text-decoration="underline" textLength="116" x="30" y="80.5449">WHEEL_MAX_LEFT: int</text><ellipse cx="21" cy="90.8428" fill="none" rx="3" ry="3" style="stroke: #038048; stroke-width: 1.0;"/><text fill="#000000" font-family="sans-serif" font-size="11" lengthAdjust="spacingAndGlyphs" text-decoration="underline" textLength="124" x="30" y="93.5">WHEEL_MAX_RIGHT: int</text><line style="stroke: #A80036; stroke-width: 1.5;" x1="11" x2="159" y1="99.8203" y2="99.8203"/><ellipse cx="21" cy="111.7979" fill="#84BE84" rx="3" ry="3" style="stroke: #038048; stroke-width: 1.0;"/><text fill="#000000" font-family="sans-serif" font-size="11" lengthAdjust="spacingAndGlyphs" textLength="62" x="30" y="114.4551">center(): int</text><ellipse cx="21" cy="124.7529" fill="#84BE84" rx="3" ry="3" style="stroke: #038048; stroke-width: 1.0;"/><text fill="#000000" font-family="sans-serif" font-size="11" lengthAdjust="spacingAndGlyphs" textLength="72" x="30" y="127.4102">stepSize(): int</text><ellipse cx="21" cy="137.708" fill="#84BE84" rx="3" ry="3" style="stroke: #038048; stroke-width: 1.0;"/><text fill="#000000" font-family="sans-serif" font-size="11" lengthAdjust="spacingAndGlyphs" textLength="71" x="30" y="140.3652">maxLeft(): int</text><ellipse cx="21" cy="150.6631" fill="#84BE84" rx="3" ry="3" style="stroke: #038048; stroke-width: 1.0;"/><text fill="#000000" font-family="sans-serif" font-size="11" lengthAdjust="spacingAndGlyphs" textLength="79" x="30" y="153.3203">maxRight(): int</text></a><text fill="#888888" font-family="sans-serif" font-size="10" lengthAdjust="spacingAndGlyphs" textLength="182" x="0" y="179.668">UMLDoclet 1.1.4, PlantUML 1.2019.05</text><!--
@startuml

    class SteeringMap [[SteeringMap.html]] {
        {static} +WHEEL_CENTER: int
        {static} +WHEEL_STEP_SIZE: int
        {static} +WHEEL_MAX_LEFT: int
        {static} +WHEEL_MAX_RIGHT: int
        +center(): int
        +stepSize(): int
        +maxLeft(): int
        +maxRight(): int
    }


    center footer UMLDoclet 1.1.4, PlantUML 1.2019.05
@enduml

PlantUML version 1.2019.05(Sat Apr 20 18:45:36 CEST 2019)
(APACHE source distribution)
Java Runtime: Java(TM) SE Runtime Environment
JVM: Java HotSpot(TM) 64-Bit Server VM
Java Version: 1.8.0_191-b12
Operating System: Mac OS X
OS Version: 10.13.6
Default Encoding: UTF-8
Language: de
Country: DE
--></g></svg>