<?xml version="1.0" encoding="UTF-8" standalone="no"?><svg xmlns="http://www.w3.org/2000/svg" xmlns:xlink="http://www.w3.org/1999/xlink" contentScriptType="application/ecmascript" contentStyleType="text/css" height="300px" preserveAspectRatio="none" style="width:596px;height:300px;" version="1.1" viewBox="0 0 596 300" width="596px" zoomAndPan="magnify"><defs><filter height="300%" id="f1mk05tq3efcad" width="300%" x="-1" y="-1"><feGaussianBlur result="blurOut" stdDeviation="2.0"/><feColorMatrix in="blurOut" result="blurOut2" type="matrix" values="0 0 0 0 0 0 0 0 0 0 0 0 0 0 0 0 0 0 .4 0"/><feOffset dx="4.0" dy="4.0" in="blurOut2" result="blurOut3"/><feBlend in="SourceGraphic" in2="blurOut3" mode="normal"/></filter></defs><g><!--cluster nl.vaneijndhoven.dukes.action--><polygon fill="#FFFFFF" filter="url(#f1mk05tq3efcad)" points="14,124,234,124,241,146.4883,574,146.4883,574,259,14,259,14,124" style="stroke: #000000; stroke-width: 1.5;"/><line style="stroke: #000000; stroke-width: 1.5;" x1="14" x2="241" y1="146.4883" y2="146.4883"/><text fill="#000000" font-family="sans-serif" font-size="14" font-weight="bold" lengthAdjust="spacingAndGlyphs" textLength="214" x="18" y="139.5352">nl.vaneijndhoven.dukes.action</text><!--cluster io.vertx.rxjava.core--><polygon fill="#FFFFFF" filter="url(#f1mk05tq3efcad)" points="54,16,192,16,199,38.4883,202,38.4883,202,99,54,99,54,16" style="stroke: #000000; stroke-width: 1.5;"/><line style="stroke: #000000; stroke-width: 1.5;" x1="54" x2="199" y1="38.4883" y2="38.4883"/><text fill="#000000" font-family="sans-serif" font-size="14" font-weight="bold" lengthAdjust="spacingAndGlyphs" textLength="132" x="58" y="31.5352">io.vertx.rxjava.core</text><!--class nl.vaneijndhoven.dukes.action.TestAction--><a href="TestAction.html" target="_top" xlink:actuate="onRequest" xlink:show="new" xlink:title="TestAction.html" xlink:type="simple"><rect fill="#FEFECE" filter="url(#f1mk05tq3efcad)" height="99.8203" id="nl.vaneijndhoven.dukes.action.TestAction" style="stroke: #A80036; stroke-width: 1.5;" width="297" x="268.5" y="151"/><ellipse cx="382.75" cy="167" fill="#ADD1B2" rx="11" ry="11" style="stroke: #A80036; stroke-width: 1.0;"/><path d="M385.7231,172.6431 Q385.1421,172.9419 384.5029,173.0913 Q383.8638,173.2407 383.1582,173.2407 Q380.6514,173.2407 379.3315,171.5889 Q378.0117,169.937 378.0117,166.8159 Q378.0117,163.6865 379.3315,162.0347 Q380.6514,160.3828 383.1582,160.3828 Q383.8638,160.3828 384.5112,160.5322 Q385.1587,160.6816 385.7231,160.9805 L385.7231,163.7031 Q385.0923,163.1221 384.4988,162.8523 Q383.9053,162.5825 383.2744,162.5825 Q381.9297,162.5825 381.2449,163.6492 Q380.5601,164.7158 380.5601,166.8159 Q380.5601,168.9077 381.2449,169.9744 Q381.9297,171.041 383.2744,171.041 Q383.9053,171.041 384.4988,170.7712 Q385.0923,170.5015 385.7231,169.9204 Z "/><text fill="#000000" font-family="sans-serif" font-size="12" lengthAdjust="spacingAndGlyphs" textLength="60" x="403.25" y="171.5352">TestAction</text><line style="stroke: #A80036; stroke-width: 1.5;" x1="269.5" x2="564.5" y1="183" y2="183"/><ellipse cx="279.5" cy="194.9775" fill="none" rx="3" ry="3" style="stroke: #038048; stroke-width: 1.0;"/><text fill="#000000" font-family="sans-serif" font-size="11" lengthAdjust="spacingAndGlyphs" text-decoration="underline" textLength="83" x="288.5" y="197.6348">debug: boolean</text><ellipse cx="279.5" cy="207.9326" fill="none" rx="3" ry="3" style="stroke: #038048; stroke-width: 1.0;"/><text fill="#000000" font-family="sans-serif" font-size="11" lengthAdjust="spacingAndGlyphs" text-decoration="underline" textLength="75" x="288.5" y="210.5898">TIME_OUT: int</text><line style="stroke: #A80036; stroke-width: 1.5;" x1="269.5" x2="564.5" y1="216.9102" y2="216.9102"/><ellipse cx="279.5" cy="228.8877" fill="#84BE84" rx="3" ry="3" style="stroke: #038048; stroke-width: 1.0;"/><text fill="#000000" font-family="sans-serif" font-size="11" lengthAdjust="spacingAndGlyphs" textLength="271" x="288.5" y="231.5449">check(Observable&lt;JsonObject&gt;, int, String[]): void</text><ellipse cx="279.5" cy="241.8428" fill="#84BE84" rx="3" ry="3" style="stroke: #038048; stroke-width: 1.0;"/><text fill="#000000" font-family="sans-serif" font-size="11" lengthAdjust="spacingAndGlyphs" textLength="176" x="288.5" y="244.5">testStraightLaneNavigator(): void</text></a><!--class nl.vaneijndhoven.dukes.action.Action--><a href="Action.html" target="_top" xlink:actuate="onRequest" xlink:show="new" xlink:title="Action.html" xlink:type="simple"><rect fill="#FEFECE" filter="url(#f1mk05tq3efcad)" height="86.8652" id="nl.vaneijndhoven.dukes.action.Action" style="stroke: #A80036; stroke-width: 1.5;" width="211" x="22.5" y="157.5"/><ellipse cx="106.25" cy="173.5" fill="#ADD1B2" rx="11" ry="11" style="stroke: #A80036; stroke-width: 1.0;"/><path d="M109.2231,179.1431 Q108.6421,179.4419 108.0029,179.5913 Q107.3638,179.7407 106.6582,179.7407 Q104.1514,179.7407 102.8315,178.0889 Q101.5117,176.437 101.5117,173.3159 Q101.5117,170.1865 102.8315,168.5347 Q104.1514,166.8828 106.6582,166.8828 Q107.3638,166.8828 108.0112,167.0322 Q108.6587,167.1816 109.2231,167.4805 L109.2231,170.2031 Q108.5923,169.6221 107.9988,169.3523 Q107.4053,169.0825 106.7744,169.0825 Q105.4297,169.0825 104.7449,170.1492 Q104.0601,171.2158 104.0601,173.3159 Q104.0601,175.4077 104.7449,176.4744 Q105.4297,177.541 106.7744,177.541 Q107.4053,177.541 107.9988,177.2712 Q108.5923,177.0015 109.2231,176.4204 Z "/><text fill="#000000" font-family="sans-serif" font-size="12" lengthAdjust="spacingAndGlyphs" textLength="35" x="126.75" y="178.0352">Action</text><line style="stroke: #A80036; stroke-width: 1.5;" x1="23.5" x2="232.5" y1="189.5" y2="189.5"/><ellipse cx="33.5" cy="201.4775" fill="none" rx="3" ry="3" style="stroke: #038048; stroke-width: 1.0;"/><text fill="#000000" font-family="sans-serif" font-size="11" lengthAdjust="spacingAndGlyphs" text-decoration="underline" textLength="185" x="42.5" y="204.1348">START_DRAG_NAVIGATION: String</text><ellipse cx="33.5" cy="214.4326" fill="none" rx="3" ry="3" style="stroke: #038048; stroke-width: 1.0;"/><text fill="#000000" font-family="sans-serif" font-size="11" lengthAdjust="spacingAndGlyphs" text-decoration="underline" textLength="141" x="42.5" y="217.0898">STOP_NAVIGATION: String</text><line style="stroke: #A80036; stroke-width: 1.5;" x1="23.5" x2="232.5" y1="223.4102" y2="223.4102"/><ellipse cx="33.5" cy="235.3877" fill="#84BE84" rx="3" ry="3" style="stroke: #038048; stroke-width: 1.0;"/><text fill="#000000" font-family="sans-serif" font-size="11" lengthAdjust="spacingAndGlyphs" textLength="62" x="42.5" y="238.0449">start(): void</text></a><!--class io.vertx.rxjava.core.AbstractVerticle--><rect fill="#FEFECE" filter="url(#f1mk05tq3efcad)" height="48" id="io.vertx.rxjava.core.AbstractVerticle" style="stroke: #A80036; stroke-width: 1.5;" width="123" x="66.5" y="43"/><ellipse cx="81.5" cy="59" fill="#ADD1B2" rx="11" ry="11" style="stroke: #A80036; stroke-width: 1.0;"/><path d="M84.4731,64.6431 Q83.8921,64.9419 83.2529,65.0913 Q82.6138,65.2407 81.9082,65.2407 Q79.4014,65.2407 78.0815,63.5889 Q76.7617,61.937 76.7617,58.8159 Q76.7617,55.6865 78.0815,54.0347 Q79.4014,52.3828 81.9082,52.3828 Q82.6138,52.3828 83.2612,52.5322 Q83.9087,52.6816 84.4731,52.9805 L84.4731,55.7031 Q83.8423,55.1221 83.2488,54.8523 Q82.6553,54.5825 82.0244,54.5825 Q80.6797,54.5825 79.9949,55.6492 Q79.3101,56.7158 79.3101,58.8159 Q79.3101,60.9077 79.9949,61.9744 Q80.6797,63.041 82.0244,63.041 Q82.6553,63.041 83.2488,62.7712 Q83.8423,62.5015 84.4731,61.9204 Z "/><text fill="#000000" font-family="sans-serif" font-size="12" lengthAdjust="spacingAndGlyphs" textLength="91" x="95.5" y="63.5352">AbstractVerticle</text><line style="stroke: #A80036; stroke-width: 1.5;" x1="67.5" x2="188.5" y1="75" y2="75"/><line style="stroke: #A80036; stroke-width: 1.5;" x1="67.5" x2="188.5" y1="83" y2="83"/><!--link io.vertx.rxjava.core.AbstractVerticle to nl.vaneijndhoven.dukes.action.Action--><path d="M128,111.3695 C128,126.1772 128,142.656 128,157.4043 " fill="none" id="io.vertx.rxjava.core.AbstractVerticle-nl.vaneijndhoven.dukes.action.Action" style="stroke: #A80036; stroke-width: 1.0;"/><polygon fill="none" points="121.0001,111.2664,128,91.2664,135.0001,111.2664,121.0001,111.2664" style="stroke: #A80036; stroke-width: 1.0;"/><text fill="#888888" font-family="sans-serif" font-size="10" lengthAdjust="spacingAndGlyphs" textLength="182" x="209" y="286.668">UMLDoclet 1.1.4, PlantUML 1.2019.05</text><!--
@startuml

    namespace nl.vaneijndhoven.dukes.action {

        class TestAction [[TestAction.html]] {
            {static} +debug: boolean
            {static} +TIME_OUT: int
            +check(Observable<JsonObject>, int, String[]): void
            +testStraightLaneNavigator(): void
        }

        class Action [[Action.html]] {
            {static} +START_DRAG_NAVIGATION: String
            {static} +STOP_NAVIGATION: String
            +start(): void
        }

        class io.vertx.rxjava.core.AbstractVerticle
        io.vertx.rxjava.core.AbstractVerticle <|- - Action

    }


    center footer UMLDoclet 1.1.4, PlantUML 1.2019.05
@enduml

PlantUML version 1.2019.05(Sat Apr 20 18:45:36 CEST 2019)
(APACHE source distribution)
Java Runtime: Java(TM) SE Runtime Environment
JVM: Java HotSpot(TM) 64-Bit Server VM
Java Version: 1.8.0_191-b12
Operating System: Mac OS X
OS Version: 10.13.6
Default Encoding: UTF-8
Language: de
Country: DE
--></g></svg>