<?xml version="1.0" encoding="UTF-8" standalone="no"?><svg xmlns="http://www.w3.org/2000/svg" xmlns:xlink="http://www.w3.org/1999/xlink" contentScriptType="application/ecmascript" contentStyleType="text/css" height="442px" preserveAspectRatio="none" style="width:1138px;height:442px;" version="1.1" viewBox="0 0 1138 442" width="1138px" zoomAndPan="magnify"><defs><filter height="300%" id="f1vzlv2b2vin21" width="300%" x="-1" y="-1"><feGaussianBlur result="blurOut" stdDeviation="2.0"/><feColorMatrix in="blurOut" result="blurOut2" type="matrix" values="0 0 0 0 0 0 0 0 0 0 0 0 0 0 0 0 0 0 .4 0"/><feOffset dx="4.0" dy="4.0" in="blurOut2" result="blurOut3"/><feBlend in="SourceGraphic" in2="blurOut3" mode="normal"/></filter></defs><g><!--cluster nl.vaneijndhoven.opencv.tools--><polygon fill="#FFFFFF" filter="url(#f1vzlv2b2vin21)" points="14,16,234,16,241,38.4883,844,38.4883,844,401,14,401,14,16" style="stroke: #000000; stroke-width: 1.5;"/><line style="stroke: #000000; stroke-width: 1.5;" x1="14" x2="241" y1="38.4883" y2="38.4883"/><text fill="#000000" font-family="sans-serif" font-size="14" font-weight="bold" lengthAdjust="spacingAndGlyphs" textLength="214" x="18" y="31.5352">nl.vaneijndhoven.opencv.tools</text><!--cluster org.opencv.core--><polygon fill="#FFFFFF" filter="url(#f1vzlv2b2vin21)" points="852,93.5,968,93.5,975,115.9883,978,115.9883,978,176.5,852,176.5,852,93.5" style="stroke: #000000; stroke-width: 1.5;"/><line style="stroke: #000000; stroke-width: 1.5;" x1="852" x2="975" y1="115.9883" y2="115.9883"/><text fill="#000000" font-family="sans-serif" font-size="14" font-weight="bold" lengthAdjust="spacingAndGlyphs" textLength="110" x="856" y="109.0352">org.opencv.core</text><!--cluster java.lang--><polygon fill="#FFFFFF" filter="url(#f1vzlv2b2vin21)" points="986,87,1055,87,1062,109.4883,1116,109.4883,1116,183,986,183,986,87" style="stroke: #000000; stroke-width: 1.5;"/><line style="stroke: #000000; stroke-width: 1.5;" x1="986" x2="1062" y1="109.4883" y2="109.4883"/><text fill="#000000" font-family="sans-serif" font-size="14" font-weight="bold" lengthAdjust="spacingAndGlyphs" textLength="63" x="990" y="102.5352">java.lang</text><!--class nl.vaneijndhoven.opencv.tools.DebugTools--><a href="DebugTools.html" target="_top" xlink:actuate="onRequest" xlink:show="new" xlink:title="DebugTools.html" xlink:type="simple"><rect fill="#FEFECE" filter="url(#f1vzlv2b2vin21)" height="86.8652" id="nl.vaneijndhoven.opencv.tools.DebugTools" style="stroke: #A80036; stroke-width: 1.5;" width="294" x="213" y="101"/><ellipse cx="321.25" cy="117" fill="#ADD1B2" rx="11" ry="11" style="stroke: #A80036; stroke-width: 1.0;"/><path d="M324.2231,122.6431 Q323.6421,122.9419 323.0029,123.0913 Q322.3638,123.2407 321.6582,123.2407 Q319.1514,123.2407 317.8315,121.5889 Q316.5117,119.937 316.5117,116.8159 Q316.5117,113.6865 317.8315,112.0347 Q319.1514,110.3828 321.6582,110.3828 Q322.3638,110.3828 323.0112,110.5322 Q323.6587,110.6816 324.2231,110.9805 L324.2231,113.7031 Q323.5923,113.1221 322.9988,112.8523 Q322.4053,112.5825 321.7744,112.5825 Q320.4297,112.5825 319.7449,113.6492 Q319.0601,114.7158 319.0601,116.8159 Q319.0601,118.9077 319.7449,119.9744 Q320.4297,121.041 321.7744,121.041 Q322.4053,121.041 322.9988,120.7712 Q323.5923,120.5015 324.2231,119.9204 Z "/><text fill="#000000" font-family="sans-serif" font-size="12" lengthAdjust="spacingAndGlyphs" textLength="69" x="341.75" y="121.5352">DebugTools</text><line style="stroke: #A80036; stroke-width: 1.5;" x1="214" x2="506" y1="133" y2="133"/><line style="stroke: #A80036; stroke-width: 1.5;" x1="214" x2="506" y1="141" y2="141"/><ellipse cx="224" cy="152.9775" fill="#84BE84" rx="3" ry="3" style="stroke: #038048; stroke-width: 1.0;"/><text fill="#000000" font-family="sans-serif" font-size="11" lengthAdjust="spacingAndGlyphs" textLength="143" x="233" y="155.6348">DebugTools(String, String)</text><ellipse cx="224" cy="165.9326" fill="#84BE84" rx="3" ry="3" style="stroke: #038048; stroke-width: 1.0;"/><text fill="#000000" font-family="sans-serif" font-size="11" lengthAdjust="spacingAndGlyphs" textLength="130" x="233" y="168.5898">output(Mat, String): void</text><ellipse cx="224" cy="178.8877" fill="#84BE84" rx="3" ry="3" style="stroke: #038048; stroke-width: 1.0;"/><text fill="#000000" font-family="sans-serif" font-size="11" lengthAdjust="spacingAndGlyphs" textLength="268" x="233" y="181.5449">output(Mat, Collection&lt;Line&gt;, String, Scalar): void</text></a><!--class nl.vaneijndhoven.opencv.tools.DebugTools.VoidTools--><a href="DebugTools.VoidTools.html" target="_top" xlink:actuate="onRequest" xlink:show="new" xlink:title="DebugTools.VoidTools.html" xlink:type="simple"><rect fill="#FEFECE" filter="url(#f1vzlv2b2vin21)" height="73.9102" id="nl.vaneijndhoven.opencv.tools.DebugTools.VoidTools" style="stroke: #A80036; stroke-width: 1.5;" width="294" x="213" y="312.5"/><ellipse cx="290.75" cy="328.5" fill="#ADD1B2" rx="11" ry="11" style="stroke: #A80036; stroke-width: 1.0;"/><path d="M293.7231,334.1431 Q293.1421,334.4419 292.5029,334.5913 Q291.8638,334.7407 291.1582,334.7407 Q288.6514,334.7407 287.3315,333.0889 Q286.0117,331.437 286.0117,328.3159 Q286.0117,325.1865 287.3315,323.5347 Q288.6514,321.8828 291.1582,321.8828 Q291.8638,321.8828 292.5112,322.0322 Q293.1587,322.1816 293.7231,322.4805 L293.7231,325.2031 Q293.0923,324.6221 292.4988,324.3523 Q291.9053,324.0825 291.2744,324.0825 Q289.9297,324.0825 289.2449,325.1492 Q288.5601,326.2158 288.5601,328.3159 Q288.5601,330.4077 289.2449,331.4744 Q289.9297,332.541 291.2744,332.541 Q291.9053,332.541 292.4988,332.2712 Q293.0923,332.0015 293.7231,331.4204 Z "/><text fill="#000000" font-family="sans-serif" font-size="12" lengthAdjust="spacingAndGlyphs" textLength="130" x="311.25" y="333.0352">DebugTools.VoidTools</text><line style="stroke: #A80036; stroke-width: 1.5;" x1="214" x2="506" y1="344.5" y2="344.5"/><line style="stroke: #A80036; stroke-width: 1.5;" x1="214" x2="506" y1="352.5" y2="352.5"/><ellipse cx="224" cy="364.4775" fill="#84BE84" rx="3" ry="3" style="stroke: #038048; stroke-width: 1.0;"/><text fill="#000000" font-family="sans-serif" font-size="11" lengthAdjust="spacingAndGlyphs" textLength="130" x="233" y="367.1348">output(Mat, String): void</text><ellipse cx="224" cy="377.4326" fill="#84BE84" rx="3" ry="3" style="stroke: #038048; stroke-width: 1.0;"/><text fill="#000000" font-family="sans-serif" font-size="11" lengthAdjust="spacingAndGlyphs" textLength="268" x="233" y="380.0898">output(Mat, Collection&lt;Line&gt;, String, Scalar): void</text></a><!--class nl.vaneijndhoven.opencv.tools.MemoryManagement--><a href="MemoryManagement.html" target="_top" xlink:actuate="onRequest" xlink:show="new" xlink:title="MemoryManagement.html" xlink:type="simple"><rect fill="#FEFECE" filter="url(#f1vzlv2b2vin21)" height="125.7305" id="nl.vaneijndhoven.opencv.tools.MemoryManagement" style="stroke: #A80036; stroke-width: 1.5;" width="293" x="542.5" y="81.5"/><ellipse cx="624.75" cy="97.5" fill="#ADD1B2" rx="11" ry="11" style="stroke: #A80036; stroke-width: 1.0;"/><path d="M627.7231,103.1431 Q627.1421,103.4419 626.5029,103.5913 Q625.8638,103.7407 625.1582,103.7407 Q622.6514,103.7407 621.3315,102.0889 Q620.0117,100.437 620.0117,97.3159 Q620.0117,94.1865 621.3315,92.5347 Q622.6514,90.8828 625.1582,90.8828 Q625.8638,90.8828 626.5112,91.0322 Q627.1587,91.1816 627.7231,91.4805 L627.7231,94.2031 Q627.0923,93.6221 626.4988,93.3523 Q625.9053,93.0825 625.2744,93.0825 Q623.9297,93.0825 623.2449,94.1492 Q622.5601,95.2158 622.5601,97.3159 Q622.5601,99.4077 623.2449,100.4744 Q623.9297,101.541 625.2744,101.541 Q625.9053,101.541 626.4988,101.2712 Q627.0923,101.0015 627.7231,100.4204 Z "/><text fill="#000000" font-family="sans-serif" font-size="12" lengthAdjust="spacingAndGlyphs" textLength="120" x="645.25" y="102.0352">MemoryManagement</text><line style="stroke: #A80036; stroke-width: 1.5;" x1="543.5" x2="834.5" y1="113.5" y2="113.5"/><line style="stroke: #A80036; stroke-width: 1.5;" x1="543.5" x2="834.5" y1="121.5" y2="121.5"/><ellipse cx="553.5" cy="133.4775" fill="#84BE84" rx="3" ry="3" style="stroke: #038048; stroke-width: 1.0;"/><text fill="#000000" font-family="sans-serif" font-size="11" lengthAdjust="spacingAndGlyphs" text-decoration="underline" textLength="267" x="562.5" y="136.1348">closable(S): MemoryManagement.ClosableMat&lt;S&gt;</text><ellipse cx="553.5" cy="146.4326" fill="#84BE84" rx="3" ry="3" style="stroke: #038048; stroke-width: 1.0;"/><text fill="#000000" font-family="sans-serif" font-size="11" lengthAdjust="spacingAndGlyphs" text-decoration="underline" textLength="87" x="562.5" y="149.0898">scoped(Supplier</text><text fill="#000000" font-family="sans-serif" font-size="11" lengthAdjust="spacingAndGlyphs" text-decoration="underline" textLength="107" x="649.5" y="149.0898">, Function&lt;S, T&gt;): T</text><ellipse cx="553.5" cy="159.3877" fill="#84BE84" rx="3" ry="3" style="stroke: #038048; stroke-width: 1.0;"/><text fill="#000000" font-family="sans-serif" font-size="11" lengthAdjust="spacingAndGlyphs" text-decoration="underline" textLength="125" x="562.5" y="162.0449">scoped(String, Supplier</text><text fill="#000000" font-family="sans-serif" font-size="11" lengthAdjust="spacingAndGlyphs" text-decoration="underline" textLength="107" x="687.5" y="162.0449">, Function&lt;S, T&gt;): T</text><ellipse cx="553.5" cy="172.3428" fill="#84BE84" rx="3" ry="3" style="stroke: #038048; stroke-width: 1.0;"/><text fill="#000000" font-family="sans-serif" font-size="11" lengthAdjust="spacingAndGlyphs" text-decoration="underline" textLength="87" x="562.5" y="175">scoped(Supplier</text><text fill="#000000" font-family="sans-serif" font-size="11" lengthAdjust="spacingAndGlyphs" text-decoration="underline" textLength="62" x="649.5" y="175">, Consumer</text><text fill="#000000" font-family="sans-serif" font-size="11" lengthAdjust="spacingAndGlyphs" text-decoration="underline" textLength="33" x="711.5" y="175">): void</text><ellipse cx="553.5" cy="185.2979" fill="#84BE84" rx="3" ry="3" style="stroke: #038048; stroke-width: 1.0;"/><text fill="#000000" font-family="sans-serif" font-size="11" lengthAdjust="spacingAndGlyphs" text-decoration="underline" textLength="125" x="562.5" y="187.9551">scoped(String, Supplier</text><text fill="#000000" font-family="sans-serif" font-size="11" lengthAdjust="spacingAndGlyphs" text-decoration="underline" textLength="62" x="687.5" y="187.9551">, Consumer</text><text fill="#000000" font-family="sans-serif" font-size="11" lengthAdjust="spacingAndGlyphs" text-decoration="underline" textLength="33" x="749.5" y="187.9551">): void</text><ellipse cx="553.5" cy="198.2529" fill="#84BE84" rx="3" ry="3" style="stroke: #038048; stroke-width: 1.0;"/><text fill="#000000" font-family="sans-serif" font-size="11" lengthAdjust="spacingAndGlyphs" text-decoration="underline" textLength="189" x="562.5" y="200.9102">disposable(Mat): Observable&lt;Mat&gt;</text></a><!--class nl.vaneijndhoven.opencv.tools.MemoryManagement.ClosableMat--><a href="MemoryManagement.ClosableMat.html" target="_top" xlink:actuate="onRequest" xlink:show="new" xlink:title="MemoryManagement.ClosableMat.html" xlink:type="simple"><rect fill="#FEFECE" filter="url(#f1vzlv2b2vin21)" height="86.8652" id="nl.vaneijndhoven.opencv.tools.MemoryManagement.ClosableMat" style="stroke: #A80036; stroke-width: 1.5;" width="236" x="600" y="306"/><ellipse cx="615" cy="322" fill="#ADD1B2" rx="11" ry="11" style="stroke: #A80036; stroke-width: 1.0;"/><path d="M617.9731,327.6431 Q617.3921,327.9419 616.7529,328.0913 Q616.1138,328.2407 615.4082,328.2407 Q612.9014,328.2407 611.5815,326.5889 Q610.2617,324.937 610.2617,321.8159 Q610.2617,318.6865 611.5815,317.0347 Q612.9014,315.3828 615.4082,315.3828 Q616.1138,315.3828 616.7612,315.5322 Q617.4087,315.6816 617.9731,315.9805 L617.9731,318.7031 Q617.3423,318.1221 616.7488,317.8523 Q616.1553,317.5825 615.5244,317.5825 Q614.1797,317.5825 613.4949,318.6492 Q612.8101,319.7158 612.8101,321.8159 Q612.8101,323.9077 613.4949,324.9744 Q614.1797,326.041 615.5244,326.041 Q616.1553,326.041 616.7488,325.7712 Q617.3423,325.5015 617.9731,324.9204 Z "/><text fill="#000000" font-family="sans-serif" font-size="12" lengthAdjust="spacingAndGlyphs" textLength="194" x="629" y="326.5352">MemoryManagement.ClosableMat</text><rect fill="#FFFFFF" height="16.1328" style="stroke: #000000; stroke-width: 1.0; stroke-dasharray: 2.0,2.0;" width="8" x="831" y="303"/><text fill="#000000" font-family="sans-serif" font-size="12" font-style="italic" lengthAdjust="spacingAndGlyphs" textLength="6" x="832" y="315.6016">S</text><line style="stroke: #A80036; stroke-width: 1.5;" x1="601" x2="835" y1="338" y2="338"/><line style="stroke: #A80036; stroke-width: 1.5;" x1="601" x2="835" y1="346" y2="346"/><ellipse cx="611" cy="357.9775" fill="#84BE84" rx="3" ry="3" style="stroke: #038048; stroke-width: 1.0;"/><text fill="#000000" font-family="sans-serif" font-size="11" lengthAdjust="spacingAndGlyphs" textLength="79" x="620" y="360.6348">ClosableMat(S)</text><ellipse cx="611" cy="370.9326" fill="#84BE84" rx="3" ry="3" style="stroke: #038048; stroke-width: 1.0;"/><text fill="#000000" font-family="sans-serif" font-size="11" lengthAdjust="spacingAndGlyphs" textLength="65" x="620" y="373.5898">close(): void</text><ellipse cx="611" cy="383.8877" fill="#84BE84" rx="3" ry="3" style="stroke: #038048; stroke-width: 1.0;"/><text fill="#000000" font-family="sans-serif" font-size="11" lengthAdjust="spacingAndGlyphs" textLength="37" x="620" y="386.5449">get(): S</text></a><!--class nl.vaneijndhoven.opencv.tools.ImageCollector--><a href="ImageCollector.html" target="_top" xlink:actuate="onRequest" xlink:show="new" xlink:title="ImageCollector.html" xlink:type="simple"><rect fill="#FEFECE" filter="url(#f1vzlv2b2vin21)" height="203.4609" id="nl.vaneijndhoven.opencv.tools.ImageCollector" style="stroke: #A80036; stroke-width: 1.5;" width="156" x="22" y="43"/><ellipse cx="54.55" cy="59" fill="#ADD1B2" rx="11" ry="11" style="stroke: #A80036; stroke-width: 1.0;"/><path d="M57.5231,64.6431 Q56.9421,64.9419 56.3029,65.0913 Q55.6638,65.2407 54.9582,65.2407 Q52.4514,65.2407 51.1315,63.5889 Q49.8117,61.937 49.8117,58.8159 Q49.8117,55.6865 51.1315,54.0347 Q52.4514,52.3828 54.9582,52.3828 Q55.6638,52.3828 56.3112,52.5322 Q56.9587,52.6816 57.5231,52.9805 L57.5231,55.7031 Q56.8923,55.1221 56.2988,54.8523 Q55.7053,54.5825 55.0744,54.5825 Q53.7297,54.5825 53.0449,55.6492 Q52.3601,56.7158 52.3601,58.8159 Q52.3601,60.9077 53.0449,61.9744 Q53.7297,63.041 55.0744,63.041 Q55.7053,63.041 56.2988,62.7712 Q56.8923,62.5015 57.5231,61.9204 Z "/><text fill="#000000" font-family="sans-serif" font-size="12" lengthAdjust="spacingAndGlyphs" textLength="85" x="72.45" y="63.5352">ImageCollector</text><line style="stroke: #A80036; stroke-width: 1.5;" x1="23" x2="177" y1="75" y2="75"/><line style="stroke: #A80036; stroke-width: 1.5;" x1="23" x2="177" y1="83" y2="83"/><ellipse cx="33" cy="94.9775" fill="#84BE84" rx="3" ry="3" style="stroke: #038048; stroke-width: 1.0;"/><text fill="#000000" font-family="sans-serif" font-size="11" lengthAdjust="spacingAndGlyphs" textLength="88" x="42" y="97.6348">edges(Mat): void</text><ellipse cx="33" cy="107.9326" fill="#84BE84" rx="3" ry="3" style="stroke: #038048; stroke-width: 1.0;"/><text fill="#000000" font-family="sans-serif" font-size="11" lengthAdjust="spacingAndGlyphs" textLength="81" x="42" y="110.5898">lines(Mat): void</text><ellipse cx="33" cy="120.8877" fill="#84BE84" rx="3" ry="3" style="stroke: #038048; stroke-width: 1.0;"/><text fill="#000000" font-family="sans-serif" font-size="11" lengthAdjust="spacingAndGlyphs" textLength="108" x="42" y="123.5449">startLight(Mat): void</text><ellipse cx="33" cy="133.8428" fill="#84BE84" rx="3" ry="3" style="stroke: #038048; stroke-width: 1.0;"/><text fill="#000000" font-family="sans-serif" font-size="11" lengthAdjust="spacingAndGlyphs" textLength="84" x="42" y="136.5">mask(Mat): void</text><ellipse cx="33" cy="146.7979" fill="#84BE84" rx="3" ry="3" style="stroke: #038048; stroke-width: 1.0;"/><text fill="#000000" font-family="sans-serif" font-size="11" lengthAdjust="spacingAndGlyphs" textLength="92" x="42" y="149.4551">morph(Mat): void</text><ellipse cx="33" cy="159.7529" fill="#84BE84" rx="3" ry="3" style="stroke: #038048; stroke-width: 1.0;"/><text fill="#000000" font-family="sans-serif" font-size="11" lengthAdjust="spacingAndGlyphs" textLength="130" x="42" y="162.4102">originalFrame(Mat): void</text><ellipse cx="33" cy="172.708" fill="#84BE84" rx="3" ry="3" style="stroke: #038048; stroke-width: 1.0;"/><text fill="#000000" font-family="sans-serif" font-size="11" lengthAdjust="spacingAndGlyphs" textLength="77" x="42" y="175.3652">edges(): byte[]</text><ellipse cx="33" cy="185.6631" fill="#84BE84" rx="3" ry="3" style="stroke: #038048; stroke-width: 1.0;"/><text fill="#000000" font-family="sans-serif" font-size="11" lengthAdjust="spacingAndGlyphs" textLength="70" x="42" y="188.3203">lines(): byte[]</text><ellipse cx="33" cy="198.6182" fill="#84BE84" rx="3" ry="3" style="stroke: #038048; stroke-width: 1.0;"/><text fill="#000000" font-family="sans-serif" font-size="11" lengthAdjust="spacingAndGlyphs" textLength="97" x="42" y="201.2754">startLight(): byte[]</text><ellipse cx="33" cy="211.5732" fill="#84BE84" rx="3" ry="3" style="stroke: #038048; stroke-width: 1.0;"/><text fill="#000000" font-family="sans-serif" font-size="11" lengthAdjust="spacingAndGlyphs" textLength="73" x="42" y="214.2305">mask(): byte[]</text><ellipse cx="33" cy="224.5283" fill="#84BE84" rx="3" ry="3" style="stroke: #038048; stroke-width: 1.0;"/><text fill="#000000" font-family="sans-serif" font-size="11" lengthAdjust="spacingAndGlyphs" textLength="81" x="42" y="227.1855">morph(): byte[]</text><ellipse cx="33" cy="237.4834" fill="#84BE84" rx="3" ry="3" style="stroke: #038048; stroke-width: 1.0;"/><text fill="#000000" font-family="sans-serif" font-size="11" lengthAdjust="spacingAndGlyphs" textLength="119" x="42" y="240.1406">originalFrame(): byte[]</text></a><!--class org.opencv.core.Mat--><rect fill="#FEFECE" filter="url(#f1vzlv2b2vin21)" height="48" id="org.opencv.core.Mat" style="stroke: #A80036; stroke-width: 1.5;" width="53" x="870.5" y="120.5"/><ellipse cx="885.5" cy="136.5" fill="#ADD1B2" rx="11" ry="11" style="stroke: #A80036; stroke-width: 1.0;"/><path d="M888.4731,142.1431 Q887.8921,142.4419 887.2529,142.5913 Q886.6138,142.7407 885.9082,142.7407 Q883.4014,142.7407 882.0815,141.0889 Q880.7617,139.437 880.7617,136.3159 Q880.7617,133.1865 882.0815,131.5347 Q883.4014,129.8828 885.9082,129.8828 Q886.6138,129.8828 887.2612,130.0322 Q887.9087,130.1816 888.4731,130.4805 L888.4731,133.2031 Q887.8423,132.6221 887.2488,132.3523 Q886.6553,132.0825 886.0244,132.0825 Q884.6797,132.0825 883.9949,133.1492 Q883.3101,134.2158 883.3101,136.3159 Q883.3101,138.4077 883.9949,139.4744 Q884.6797,140.541 886.0244,140.541 Q886.6553,140.541 887.2488,140.2712 Q887.8423,140.0015 888.4731,139.4204 Z "/><text fill="#000000" font-family="sans-serif" font-size="12" lengthAdjust="spacingAndGlyphs" textLength="21" x="899.5" y="141.0352">Mat</text><line style="stroke: #A80036; stroke-width: 1.5;" x1="871.5" x2="922.5" y1="152.5" y2="152.5"/><line style="stroke: #A80036; stroke-width: 1.5;" x1="871.5" x2="922.5" y1="160.5" y2="160.5"/><!--class java.lang.AutoCloseable--><rect fill="#FEFECE" filter="url(#f1vzlv2b2vin21)" height="60.9551" id="java.lang.AutoCloseable" style="stroke: #A80036; stroke-width: 1.5;" width="114" x="994" y="114"/><ellipse cx="1009" cy="130" fill="#B4A7E5" rx="11" ry="11" style="stroke: #A80036; stroke-width: 1.0;"/><path d="M1004.9277,125.7651 L1004.9277,123.6069 L1012.3071,123.6069 L1012.3071,125.7651 L1009.8418,125.7651 L1009.8418,133.8418 L1012.3071,133.8418 L1012.3071,136 L1004.9277,136 L1004.9277,133.8418 L1007.3931,133.8418 L1007.3931,125.7651 Z "/><text fill="#000000" font-family="sans-serif" font-size="12" font-style="italic" lengthAdjust="spacingAndGlyphs" textLength="82" x="1023" y="134.5352">AutoCloseable</text><line style="stroke: #A80036; stroke-width: 1.5;" x1="995" x2="1107" y1="146" y2="146"/><line style="stroke: #A80036; stroke-width: 1.5;" x1="995" x2="1107" y1="154" y2="154"/><ellipse cx="1005" cy="165.9775" fill="#84BE84" rx="3" ry="3" style="stroke: #038048; stroke-width: 1.0;"/><text fill="#000000" font-family="sans-serif" font-size="11" font-style="italic" lengthAdjust="spacingAndGlyphs" textLength="65" x="1014" y="168.6348">close(): void</text><!--link nl.vaneijndhoven.opencv.tools.DebugTools to nl.vaneijndhoven.opencv.tools.DebugTools.VoidTools--><path d="M348.0874,208.4606 C346.5338,242.6118 347.142,283.4437 349.912,312.364 " fill="none" id="nl.vaneijndhoven.opencv.tools.DebugTools-nl.vaneijndhoven.opencv.tools.DebugTools.VoidTools" style="stroke: #A80036; stroke-width: 1.0;"/><polygon fill="none" points="341.1173,207.7578,349.3341,188.2262,355.0908,208.6188,341.1173,207.7578" style="stroke: #A80036; stroke-width: 1.0;"/><!--link nl.vaneijndhoven.opencv.tools.DebugTools to nl.vaneijndhoven.opencv.tools.DebugTools.VoidTools--><path d="M372.3388,203.2012 C374.319,238.3424 373.7665,281.9432 370.6814,312.364 " fill="none" id="nl.vaneijndhoven.opencv.tools.DebugTools-nl.vaneijndhoven.opencv.tools.DebugTools.VoidTools-1" style="stroke: #A80036; stroke-width: 1.0;"/><ellipse cx="371.8505" cy="196.2068" fill="#FFFFFF" rx="8" ry="8" style="stroke: #A80036; stroke-width: 1.0;"/><line style="stroke: #A80036; stroke-width: 1.0;" x1="372.4077" x2="371.2933" y1="204.1873" y2="188.2262"/><line style="stroke: #A80036; stroke-width: 1.0;" x1="363.8699" x2="379.8311" y1="196.764" y2="195.6496"/><!--link org.opencv.core.Mat to nl.vaneijndhoven.opencv.tools.MemoryManagement.ClosableMat--><path d="M883.2834,187.7378 C875.9146,206.8099 865.5269,228.7572 852,246 C834.2193,268.6652 810.4148,289.1448 787.8042,305.7907 " fill="none" id="org.opencv.core.Mat-nl.vaneijndhoven.opencv.tools.MemoryManagement.ClosableMat" style="stroke: #A80036; stroke-width: 1.0;"/><polygon fill="none" points="876.6933,185.3773,889.9873,168.8766,889.8849,190.066,876.6933,185.3773" style="stroke: #A80036; stroke-width: 1.0;"/><!--link java.lang.AutoCloseable to nl.vaneijndhoven.opencv.tools.MemoryManagement.ClosableMat--><path d="M1028.2716,193.1033 C1017.6077,211.6874 1003.3815,231.8035 986,246 C942.8315,281.2583 886.2829,305.4566 836.2617,321.5323 " fill="none" id="java.lang.AutoCloseable-nl.vaneijndhoven.opencv.tools.MemoryManagement.ClosableMat" style="stroke: #A80036; stroke-width: 1.0; stroke-dasharray: 7.0,7.0;"/><polygon fill="none" points="1022.164,189.6795,1037.7331,175.3058,1034.5257,196.2513,1022.164,189.6795" style="stroke: #A80036; stroke-width: 1.0;"/><!--link nl.vaneijndhoven.opencv.tools.MemoryManagement to nl.vaneijndhoven.opencv.tools.MemoryManagement.ClosableMat--><path d="M700.0422,222.5567 C704.026,250.7182 708.3796,281.4939 711.8024,305.6894 " fill="none" id="nl.vaneijndhoven.opencv.tools.MemoryManagement-nl.vaneijndhoven.opencv.tools.MemoryManagement.ClosableMat" style="stroke: #A80036; stroke-width: 1.0;"/><ellipse cx="699.0582" cy="215.6006" fill="#FFFFFF" rx="8" ry="8" style="stroke: #A80036; stroke-width: 1.0;"/><line style="stroke: #A80036; stroke-width: 1.0;" x1="700.1788" x2="697.9376" y1="223.5218" y2="207.6795"/><line style="stroke: #A80036; stroke-width: 1.0;" x1="691.1371" x2="706.9793" y1="216.7212" y2="214.48"/><text fill="#888888" font-family="sans-serif" font-size="10" lengthAdjust="spacingAndGlyphs" textLength="182" x="480" y="428.668">UMLDoclet 1.1.4, PlantUML 1.2019.05</text><!--
@startuml

    namespace nl.vaneijndhoven.opencv.tools {

        class DebugTools [[DebugTools.html]] {
            +DebugTools(String, String)
            +output(Mat, String): void
            +output(Mat, Collection<Line>, String, Scalar): void
        }

        class nl.vaneijndhoven.opencv.tools.DebugTools.VoidTools [[DebugTools.VoidTools.html]] {
            +output(Mat, String): void
            +output(Mat, Collection<Line>, String, Scalar): void
        }

        class MemoryManagement [[MemoryManagement.html]] {
            {static} +closable(S): MemoryManagement.ClosableMat<S>
            {static} +scoped(Supplier<S>, Function<S, T>): T
            {static} +scoped(String, Supplier<S>, Function<S, T>): T
            {static} +scoped(Supplier<S>, Consumer<S>): void
            {static} +scoped(String, Supplier<S>, Consumer<S>): void
            {static} +disposable(Mat): Observable<Mat>
        }

        class nl.vaneijndhoven.opencv.tools.MemoryManagement.ClosableMat<S> [[MemoryManagement.ClosableMat.html]] {
            +ClosableMat(S)
            +close(): void
            +get(): S
        }

        class ImageCollector [[ImageCollector.html]] {
            +edges(Mat): void
            +lines(Mat): void
            +startLight(Mat): void
            +mask(Mat): void
            +morph(Mat): void
            +originalFrame(Mat): void
            +edges(): byte[]
            +lines(): byte[]
            +startLight(): byte[]
            +mask(): byte[]
            +morph(): byte[]
            +originalFrame(): byte[]
        }

        DebugTools <|- - nl.vaneijndhoven.opencv.tools.DebugTools.VoidTools

        DebugTools +- - nl.vaneijndhoven.opencv.tools.DebugTools.VoidTools

        class org.opencv.core.Mat
        org.opencv.core.Mat <|- - nl.vaneijndhoven.opencv.tools.MemoryManagement.ClosableMat

        interface java.lang.AutoCloseable {
            {abstract} +close(): void
        }
        java.lang.AutoCloseable <|.. nl.vaneijndhoven.opencv.tools.MemoryManagement.ClosableMat

        MemoryManagement +- - nl.vaneijndhoven.opencv.tools.MemoryManagement.ClosableMat

    }


    center footer UMLDoclet 1.1.4, PlantUML 1.2019.05
@enduml

PlantUML version 1.2019.05(Sat Apr 20 18:45:36 CEST 2019)
(APACHE source distribution)
Java Runtime: Java(TM) SE Runtime Environment
JVM: Java HotSpot(TM) 64-Bit Server VM
Java Version: 1.8.0_152-b16
Operating System: Mac OS X
OS Version: 10.13.6
Default Encoding: UTF-8
Language: de
Country: DE
--></g></svg>