<?xml version="1.0" encoding="UTF-8" standalone="no"?><svg xmlns="http://www.w3.org/2000/svg" xmlns:xlink="http://www.w3.org/1999/xlink" contentScriptType="application/ecmascript" contentStyleType="text/css" height="313px" preserveAspectRatio="none" style="width:240px;height:313px;" version="1.1" viewBox="0 0 240 313" width="240px" zoomAndPan="magnify"><defs><filter height="300%" id="fcxcll5nbtbdw" width="300%" x="-1" y="-1"><feGaussianBlur result="blurOut" stdDeviation="2.0"/><feColorMatrix in="blurOut" result="blurOut2" type="matrix" values="0 0 0 0 0 0 0 0 0 0 0 0 0 0 0 0 0 0 .4 0"/><feOffset dx="4.0" dy="4.0" in="blurOut2" result="blurOut3"/><feBlend in="SourceGraphic" in2="blurOut3" mode="normal"/></filter></defs><g><!--cluster org.rcdukes.watchdog--><polygon fill="#FFFFFF" filter="url(#fcxcll5nbtbdw)" points="14,124,175,124,182,146.4883,218,146.4883,218,272,14,272,14,124" style="stroke: #000000; stroke-width: 1.5;"/><line style="stroke: #000000; stroke-width: 1.5;" x1="14" x2="182" y1="146.4883" y2="146.4883"/><text fill="#000000" font-family="sans-serif" font-size="14" font-weight="bold" lengthAdjust="spacingAndGlyphs" textLength="155" x="18" y="139.5352">org.rcdukes.watchdog</text><!--cluster org.rcdukes.common--><polygon fill="#FFFFFF" filter="url(#fcxcll5nbtbdw)" points="34,16,188,16,195,38.4883,198,38.4883,198,99,34,99,34,16" style="stroke: #000000; stroke-width: 1.5;"/><line style="stroke: #000000; stroke-width: 1.5;" x1="34" x2="195" y1="38.4883" y2="38.4883"/><text fill="#000000" font-family="sans-serif" font-size="14" font-weight="bold" lengthAdjust="spacingAndGlyphs" textLength="148" x="38" y="31.5352">org.rcdukes.common</text><!--class org.rcdukes.watchdog.WatchDog--><a href="WatchDog.html" target="_top" xlink:actuate="onRequest" xlink:show="new" xlink:title="WatchDog.html" xlink:type="simple"><rect fill="#FEFECE" filter="url(#fcxcll5nbtbdw)" height="112.7754" id="org.rcdukes.watchdog.WatchDog" style="stroke: #A80036; stroke-width: 1.5;" width="188" x="22" y="151"/><ellipse cx="83.25" cy="167" fill="#ADD1B2" rx="11" ry="11" style="stroke: #A80036; stroke-width: 1.0;"/><path d="M86.2231,172.6431 Q85.6421,172.9419 85.0029,173.0913 Q84.3638,173.2407 83.6582,173.2407 Q81.1514,173.2407 79.8315,171.5889 Q78.5117,169.937 78.5117,166.8159 Q78.5117,163.6865 79.8315,162.0347 Q81.1514,160.3828 83.6582,160.3828 Q84.3638,160.3828 85.0112,160.5322 Q85.6587,160.6816 86.2231,160.9805 L86.2231,163.7031 Q85.5923,163.1221 84.9988,162.8523 Q84.4053,162.5825 83.7744,162.5825 Q82.4297,162.5825 81.7449,163.6492 Q81.0601,164.7158 81.0601,166.8159 Q81.0601,168.9077 81.7449,169.9744 Q82.4297,171.041 83.7744,171.041 Q84.4053,171.041 84.9988,170.7712 Q85.5923,170.5015 86.2231,169.9204 Z "/><text fill="#000000" font-family="sans-serif" font-size="12" lengthAdjust="spacingAndGlyphs" textLength="57" x="103.75" y="171.5352">WatchDog</text><line style="stroke: #A80036; stroke-width: 1.5;" x1="23" x2="209" y1="183" y2="183"/><polygon fill="none" points="33,189.9775,37,193.9775,33,197.9775,29,193.9775" style="stroke: #B38D22; stroke-width: 1.0;"/><text fill="#000000" font-family="sans-serif" font-size="11" lengthAdjust="spacingAndGlyphs" text-decoration="underline" textLength="162" x="42" y="197.6348">HEARTBEAT_INTERVAL_MS: int</text><polygon fill="none" points="33,202.9326,37,206.9326,33,210.9326,29,206.9326" style="stroke: #B38D22; stroke-width: 1.0;"/><text fill="#000000" font-family="sans-serif" font-size="11" lengthAdjust="spacingAndGlyphs" text-decoration="underline" textLength="127" x="42" y="210.5898">MAX_MISSED_BEATS: int</text><polygon fill="none" points="33,215.8877,37,219.8877,33,223.8877,29,219.8877" style="stroke: #B38D22; stroke-width: 1.0;"/><text fill="#000000" font-family="sans-serif" font-size="11" lengthAdjust="spacingAndGlyphs" textLength="142" x="42" y="223.5449">subscription: Subscription</text><line style="stroke: #A80036; stroke-width: 1.5;" x1="23" x2="209" y1="229.8652" y2="229.8652"/><ellipse cx="33" cy="241.8428" fill="#84BE84" rx="3" ry="3" style="stroke: #038048; stroke-width: 1.0;"/><text fill="#000000" font-family="sans-serif" font-size="11" lengthAdjust="spacingAndGlyphs" textLength="81" x="42" y="244.5">WatchDog(Car)</text><ellipse cx="33" cy="254.7979" fill="#84BE84" rx="3" ry="3" style="stroke: #038048; stroke-width: 1.0;"/><text fill="#000000" font-family="sans-serif" font-size="11" lengthAdjust="spacingAndGlyphs" textLength="62" x="42" y="257.4551">start(): void</text></a><!--class org.rcdukes.common.DukesVerticle--><rect fill="#FEFECE" filter="url(#fcxcll5nbtbdw)" height="48" id="org.rcdukes.common.DukesVerticle" style="stroke: #A80036; stroke-width: 1.5;" width="111" x="60.5" y="43"/><ellipse cx="75.5" cy="59" fill="#A9DCDF" rx="11" ry="11" style="stroke: #A80036; stroke-width: 1.0;"/><path d="M75.6133,54.3481 L74.4595,59.4199 L76.7754,59.4199 Z M74.1191,52.1069 L77.1157,52.1069 L80.4609,64.5 L78.0122,64.5 L77.2485,61.437 L73.9697,61.437 L73.2227,64.5 L70.7739,64.5 Z "/><text fill="#000000" font-family="sans-serif" font-size="12" font-style="italic" lengthAdjust="spacingAndGlyphs" textLength="79" x="89.5" y="63.5352">DukesVerticle</text><line style="stroke: #A80036; stroke-width: 1.5;" x1="61.5" x2="170.5" y1="75" y2="75"/><line style="stroke: #A80036; stroke-width: 1.5;" x1="61.5" x2="170.5" y1="83" y2="83"/><!--link org.rcdukes.common.DukesVerticle to org.rcdukes.watchdog.WatchDog--><path d="M116,111.2651 C116,123.779 116,137.5734 116,150.7148 " fill="none" id="org.rcdukes.common.DukesVerticle-org.rcdukes.watchdog.WatchDog" style="stroke: #A80036; stroke-width: 1.0;"/><polygon fill="none" points="109.0001,111.1528,116,91.1528,123.0001,111.1528,109.0001,111.1528" style="stroke: #A80036; stroke-width: 1.0;"/><text fill="#888888" font-family="sans-serif" font-size="10" lengthAdjust="spacingAndGlyphs" textLength="182" x="31" y="299.668">UMLDoclet 1.1.4, PlantUML 1.2019.05</text><!--
@startuml

    namespace org.rcdukes.watchdog {

        class WatchDog [[WatchDog.html]] {
            {static} #HEARTBEAT_INTERVAL_MS: int
            {static} #MAX_MISSED_BEATS: int
            #subscription: Subscription
            +WatchDog(Car)
            +start(): void
        }

        abstract class org.rcdukes.common.DukesVerticle
        org.rcdukes.common.DukesVerticle <|- - WatchDog

    }


    center footer UMLDoclet 1.1.4, PlantUML 1.2019.05
@enduml

PlantUML version 1.2019.05(Sat Apr 20 18:45:36 CEST 2019)
(APACHE source distribution)
Java Runtime: Java(TM) SE Runtime Environment
JVM: Java HotSpot(TM) 64-Bit Server VM
Java Version: 1.8.0_152-b16
Operating System: Mac OS X
OS Version: 10.13.6
Default Encoding: UTF-8
Language: de
Country: DE
--></g></svg>