<?xml version="1.0" encoding="UTF-8" standalone="no"?><svg xmlns="http://www.w3.org/2000/svg" xmlns:xlink="http://www.w3.org/1999/xlink" contentScriptType="application/ecmascript" contentStyleType="text/css" height="261px" preserveAspectRatio="none" style="width:303px;height:261px;" version="1.1" viewBox="0 0 303 261" width="303px" zoomAndPan="magnify"><defs><filter height="300%" id="fxp9pkdebmpr7" width="300%" x="-1" y="-1"><feGaussianBlur result="blurOut" stdDeviation="2.0"/><feColorMatrix in="blurOut" result="blurOut2" type="matrix" values="0 0 0 0 0 0 0 0 0 0 0 0 0 0 0 0 0 0 .4 0"/><feOffset dx="4.0" dy="4.0" in="blurOut2" result="blurOut3"/><feBlend in="SourceGraphic" in2="blurOut3" mode="normal"/></filter></defs><g><!--cluster nl.vaneijndhoven.dukes.bosshogg--><polygon fill="#FFFFFF" filter="url(#fxp9pkdebmpr7)" points="25,124,271,124,278,146.4883,281,146.4883,281,220,25,220,25,124" style="stroke: #000000; stroke-width: 1.5;"/><line style="stroke: #000000; stroke-width: 1.5;" x1="25" x2="278" y1="146.4883" y2="146.4883"/><text fill="#000000" font-family="sans-serif" font-size="14" font-weight="bold" lengthAdjust="spacingAndGlyphs" textLength="240" x="29" y="139.5352">nl.vaneijndhoven.dukes.bosshogg</text><!--cluster io.vertx.rxjava.core--><polygon fill="#FFFFFF" filter="url(#fxp9pkdebmpr7)" points="14,16,152,16,159,38.4883,162,38.4883,162,99,14,99,14,16" style="stroke: #000000; stroke-width: 1.5;"/><line style="stroke: #000000; stroke-width: 1.5;" x1="14" x2="159" y1="38.4883" y2="38.4883"/><text fill="#000000" font-family="sans-serif" font-size="14" font-weight="bold" lengthAdjust="spacingAndGlyphs" textLength="132" x="18" y="31.5352">io.vertx.rxjava.core</text><!--class nl.vaneijndhoven.dukes.bosshogg.BossHogg--><a href="BossHogg.html" target="_top" xlink:actuate="onRequest" xlink:show="new" xlink:title="BossHogg.html" xlink:type="simple"><rect fill="#FEFECE" filter="url(#fxp9pkdebmpr7)" height="60.9551" id="nl.vaneijndhoven.dukes.bosshogg.BossHogg" style="stroke: #A80036; stroke-width: 1.5;" width="88" x="44" y="151"/><ellipse cx="59" cy="167" fill="#ADD1B2" rx="11" ry="11" style="stroke: #A80036; stroke-width: 1.0;"/><path d="M61.9731,172.6431 Q61.3921,172.9419 60.7529,173.0913 Q60.1138,173.2407 59.4082,173.2407 Q56.9014,173.2407 55.5815,171.5889 Q54.2617,169.937 54.2617,166.8159 Q54.2617,163.6865 55.5815,162.0347 Q56.9014,160.3828 59.4082,160.3828 Q60.1138,160.3828 60.7612,160.5322 Q61.4087,160.6816 61.9731,160.9805 L61.9731,163.7031 Q61.3423,163.1221 60.7488,162.8523 Q60.1553,162.5825 59.5244,162.5825 Q58.1797,162.5825 57.4949,163.6492 Q56.8101,164.7158 56.8101,166.8159 Q56.8101,168.9077 57.4949,169.9744 Q58.1797,171.041 59.5244,171.041 Q60.1553,171.041 60.7488,170.7712 Q61.3423,170.5015 61.9731,169.9204 Z "/><text fill="#000000" font-family="sans-serif" font-size="12" lengthAdjust="spacingAndGlyphs" textLength="56" x="73" y="171.5352">BossHogg</text><line style="stroke: #A80036; stroke-width: 1.5;" x1="45" x2="131" y1="183" y2="183"/><line style="stroke: #A80036; stroke-width: 1.5;" x1="45" x2="131" y1="191" y2="191"/><ellipse cx="55" cy="202.9775" fill="#84BE84" rx="3" ry="3" style="stroke: #038048; stroke-width: 1.0;"/><text fill="#000000" font-family="sans-serif" font-size="11" lengthAdjust="spacingAndGlyphs" textLength="62" x="64" y="205.6348">start(): void</text></a><!--class io.vertx.rxjava.core.AbstractVerticle--><rect fill="#FEFECE" filter="url(#fxp9pkdebmpr7)" height="48" id="io.vertx.rxjava.core.AbstractVerticle" style="stroke: #A80036; stroke-width: 1.5;" width="123" x="26.5" y="43"/><ellipse cx="41.5" cy="59" fill="#ADD1B2" rx="11" ry="11" style="stroke: #A80036; stroke-width: 1.0;"/><path d="M44.4731,64.6431 Q43.8921,64.9419 43.2529,65.0913 Q42.6138,65.2407 41.9082,65.2407 Q39.4014,65.2407 38.0815,63.5889 Q36.7617,61.937 36.7617,58.8159 Q36.7617,55.6865 38.0815,54.0347 Q39.4014,52.3828 41.9082,52.3828 Q42.6138,52.3828 43.2612,52.5322 Q43.9087,52.6816 44.4731,52.9805 L44.4731,55.7031 Q43.8423,55.1221 43.2488,54.8523 Q42.6553,54.5825 42.0244,54.5825 Q40.6797,54.5825 39.9949,55.6492 Q39.3101,56.7158 39.3101,58.8159 Q39.3101,60.9077 39.9949,61.9744 Q40.6797,63.041 42.0244,63.041 Q42.6553,63.041 43.2488,62.7712 Q43.8423,62.5015 44.4731,61.9204 Z "/><text fill="#000000" font-family="sans-serif" font-size="12" lengthAdjust="spacingAndGlyphs" textLength="91" x="55.5" y="63.5352">AbstractVerticle</text><line style="stroke: #A80036; stroke-width: 1.5;" x1="27.5" x2="148.5" y1="75" y2="75"/><line style="stroke: #A80036; stroke-width: 1.5;" x1="27.5" x2="148.5" y1="83" y2="83"/><!--link io.vertx.rxjava.core.AbstractVerticle to nl.vaneijndhoven.dukes.bosshogg.BossHogg--><path d="M88,111.2477 C88,124.5296 88,138.7972 88,150.9818 " fill="none" id="io.vertx.rxjava.core.AbstractVerticle-nl.vaneijndhoven.dukes.bosshogg.BossHogg" style="stroke: #A80036; stroke-width: 1.0;"/><polygon fill="none" points="81.0001,111.003,88,91.003,95.0001,111.0029,81.0001,111.003" style="stroke: #A80036; stroke-width: 1.0;"/><text fill="#888888" font-family="sans-serif" font-size="10" lengthAdjust="spacingAndGlyphs" textLength="182" x="62.5" y="247.668">UMLDoclet 1.1.4, PlantUML 1.2019.05</text><!--
@startuml

    namespace nl.vaneijndhoven.dukes.bosshogg {

        class BossHogg [[BossHogg.html]] {
            +start(): void
        }

        class io.vertx.rxjava.core.AbstractVerticle
        io.vertx.rxjava.core.AbstractVerticle <|- - BossHogg

    }


    center footer UMLDoclet 1.1.4, PlantUML 1.2019.05
@enduml

PlantUML version 1.2019.05(Sat Apr 20 18:45:36 CEST 2019)
(APACHE source distribution)
Java Runtime: Java(TM) SE Runtime Environment
JVM: Java HotSpot(TM) 64-Bit Server VM
Java Version: 1.8.0_152-b16
Operating System: Mac OS X
OS Version: 10.13.6
Default Encoding: UTF-8
Language: de
Country: DE
--></g></svg>