<?xml version="1.0" encoding="UTF-8" standalone="no"?><svg xmlns="http://www.w3.org/2000/svg" xmlns:xlink="http://www.w3.org/1999/xlink" contentScriptType="application/ecmascript" contentStyleType="text/css" height="115px" preserveAspectRatio="none" style="width:259px;height:115px;" version="1.1" viewBox="0 0 259 115" width="259px" zoomAndPan="magnify"><defs><filter height="300%" id="fu8g2ca83z0g7" width="300%" x="-1" y="-1"><feGaussianBlur result="blurOut" stdDeviation="2.0"/><feColorMatrix in="blurOut" result="blurOut2" type="matrix" values="0 0 0 0 0 0 0 0 0 0 0 0 0 0 0 0 0 0 .4 0"/><feOffset dx="4.0" dy="4.0" in="blurOut2" result="blurOut3"/><feBlend in="SourceGraphic" in2="blurOut3" mode="normal"/></filter></defs><g><!--class TransformToBirdsEye--><a href="TransformToBirdsEye.html" target="_top" xlink:actuate="onRequest" xlink:show="new" xlink:title="TransformToBirdsEye.html" xlink:type="simple"><rect fill="#FEFECE" filter="url(#fu8g2ca83z0g7)" height="73.9102" id="TransformToBirdsEye" style="stroke: #A80036; stroke-width: 1.5;" width="242" x="6" y="8"/><ellipse cx="60.75" cy="24" fill="#ADD1B2" rx="11" ry="11" style="stroke: #A80036; stroke-width: 1.0;"/><path d="M63.7231,29.6431 Q63.1421,29.9419 62.5029,30.0913 Q61.8638,30.2407 61.1582,30.2407 Q58.6514,30.2407 57.3315,28.5889 Q56.0117,26.937 56.0117,23.8159 Q56.0117,20.6865 57.3315,19.0347 Q58.6514,17.3828 61.1582,17.3828 Q61.8638,17.3828 62.5112,17.5322 Q63.1587,17.6816 63.7231,17.9805 L63.7231,20.7031 Q63.0923,20.1221 62.4988,19.8523 Q61.9053,19.5825 61.2744,19.5825 Q59.9297,19.5825 59.2449,20.6492 Q58.5601,21.7158 58.5601,23.8159 Q58.5601,25.9077 59.2449,26.9744 Q59.9297,28.041 61.2744,28.041 Q61.9053,28.041 62.4988,27.7712 Q63.0923,27.5015 63.7231,26.9204 Z "/><text fill="#000000" font-family="sans-serif" font-size="12" lengthAdjust="spacingAndGlyphs" textLength="124" x="81.25" y="28.5352">TransformToBirdsEye</text><line style="stroke: #A80036; stroke-width: 1.5;" x1="7" x2="247" y1="40" y2="40"/><line style="stroke: #A80036; stroke-width: 1.5;" x1="7" x2="247" y1="48" y2="48"/><ellipse cx="17" cy="59.9775" fill="#84BE84" rx="3" ry="3" style="stroke: #038048; stroke-width: 1.0;"/><text fill="#000000" font-family="sans-serif" font-size="11" lengthAdjust="spacingAndGlyphs" textLength="216" x="26" y="62.6348">TransformToBirdsEye(Polygon, Polygon)</text><ellipse cx="17" cy="72.9326" fill="#84BE84" rx="3" ry="3" style="stroke: #038048; stroke-width: 1.0;"/><text fill="#000000" font-family="sans-serif" font-size="11" lengthAdjust="spacingAndGlyphs" textLength="106" x="26" y="75.5898">transform(Mat): Mat</text></a><text fill="#888888" font-family="sans-serif" font-size="10" lengthAdjust="spacingAndGlyphs" textLength="182" x="42" y="101.668">UMLDoclet 1.1.4, PlantUML 1.2019.05</text><!--
@startuml

    class TransformToBirdsEye [[TransformToBirdsEye.html]] {
        +TransformToBirdsEye(Polygon, Polygon)
        +transform(Mat): Mat
    }


    center footer UMLDoclet 1.1.4, PlantUML 1.2019.05
@enduml

PlantUML version 1.2019.05(Sat Apr 20 18:45:36 CEST 2019)
(APACHE source distribution)
Java Runtime: Java(TM) SE Runtime Environment
JVM: Java HotSpot(TM) 64-Bit Server VM
Java Version: 1.8.0_152-b16
Operating System: Mac OS X
OS Version: 10.13.6
Default Encoding: UTF-8
Language: de
Country: DE
--></g></svg>