<?xml version="1.0" encoding="UTF-8" standalone="no"?><svg xmlns="http://www.w3.org/2000/svg" xmlns:xlink="http://www.w3.org/1999/xlink" contentScriptType="application/ecmascript" contentStyleType="text/css" height="404px" preserveAspectRatio="none" style="width:949px;height:404px;" version="1.1" viewBox="0 0 949 404" width="949px" zoomAndPan="magnify"><defs><filter height="300%" id="fc6dj3eh8huav" width="300%" x="-1" y="-1"><feGaussianBlur result="blurOut" stdDeviation="2.0"/><feColorMatrix in="blurOut" result="blurOut2" type="matrix" values="0 0 0 0 0 0 0 0 0 0 0 0 0 0 0 0 0 0 .4 0"/><feOffset dx="4.0" dy="4.0" in="blurOut2" result="blurOut3"/><feBlend in="SourceGraphic" in2="blurOut3" mode="normal"/></filter></defs><g><!--cluster org.rcdukes.detect.edgedectection--><polygon fill="#FFFFFF" filter="url(#fc6dj3eh8huav)" points="14,137,261,137,268,159.4883,927,159.4883,927,363,14,363,14,137" style="stroke: #000000; stroke-width: 1.5;"/><line style="stroke: #000000; stroke-width: 1.5;" x1="14" x2="268" y1="159.4883" y2="159.4883"/><text fill="#000000" font-family="sans-serif" font-size="14" font-weight="bold" lengthAdjust="spacingAndGlyphs" textLength="241" x="18" y="152.5352">org.rcdukes.detect.edgedectection</text><!--cluster org.rcdukes.detectors--><polygon fill="#FFFFFF" filter="url(#fc6dj3eh8huav)" points="416,16,575,16,582,38.4883,585,38.4883,585,112,416,112,416,16" style="stroke: #000000; stroke-width: 1.5;"/><line style="stroke: #000000; stroke-width: 1.5;" x1="416" x2="582" y1="38.4883" y2="38.4883"/><text fill="#000000" font-family="sans-serif" font-size="14" font-weight="bold" lengthAdjust="spacingAndGlyphs" textLength="153" x="420" y="31.5352">org.rcdukes.detectors</text><!--class org.rcdukes.detect.edgedectection.CannyEdgeDetector--><a href="CannyEdgeDetector.html" target="_top" xlink:actuate="onRequest" xlink:show="new" xlink:title="CannyEdgeDetector.html" xlink:type="simple"><rect fill="#FEFECE" filter="url(#fc6dj3eh8huav)" height="190.5059" id="org.rcdukes.detect.edgedectection.CannyEdgeDetector" style="stroke: #A80036; stroke-width: 1.5;" width="289" x="629.5" y="164"/><ellipse cx="713.25" cy="180" fill="#ADD1B2" rx="11" ry="11" style="stroke: #A80036; stroke-width: 1.0;"/><path d="M716.2231,185.6431 Q715.6421,185.9419 715.0029,186.0913 Q714.3638,186.2407 713.6582,186.2407 Q711.1514,186.2407 709.8315,184.5889 Q708.5117,182.937 708.5117,179.8159 Q708.5117,176.6865 709.8315,175.0347 Q711.1514,173.3828 713.6582,173.3828 Q714.3638,173.3828 715.0112,173.5322 Q715.6587,173.6816 716.2231,173.9805 L716.2231,176.7031 Q715.5923,176.1221 714.9988,175.8523 Q714.4053,175.5825 713.7744,175.5825 Q712.4297,175.5825 711.7449,176.6492 Q711.0601,177.7158 711.0601,179.8159 Q711.0601,181.9077 711.7449,182.9744 Q712.4297,184.041 713.7744,184.041 Q714.4053,184.041 714.9988,183.7712 Q715.5923,183.5015 716.2231,182.9204 Z "/><text fill="#000000" font-family="sans-serif" font-size="12" lengthAdjust="spacingAndGlyphs" textLength="113" x="733.75" y="184.5352">CannyEdgeDetector</text><line style="stroke: #A80036; stroke-width: 1.5;" x1="630.5" x2="917.5" y1="196" y2="196"/><line style="stroke: #A80036; stroke-width: 1.5;" x1="630.5" x2="917.5" y1="204" y2="204"/><ellipse cx="640.5" cy="215.9775" fill="#84BE84" rx="3" ry="3" style="stroke: #038048; stroke-width: 1.0;"/><text fill="#000000" font-family="sans-serif" font-size="11" lengthAdjust="spacingAndGlyphs" textLength="114" x="649.5" y="218.6348">CannyEdgeDetector()</text><ellipse cx="640.5" cy="228.9326" fill="#84BE84" rx="3" ry="3" style="stroke: #038048; stroke-width: 1.0;"/><text fill="#000000" font-family="sans-serif" font-size="11" lengthAdjust="spacingAndGlyphs" textLength="263" x="649.5" y="231.5898">CannyEdgeDetector(double, double, int, boolean)</text><ellipse cx="640.5" cy="241.8877" fill="#84BE84" rx="3" ry="3" style="stroke: #038048; stroke-width: 1.0;"/><text fill="#000000" font-family="sans-serif" font-size="11" lengthAdjust="spacingAndGlyphs" textLength="130" x="649.5" y="244.5449">getThreshold1(): double</text><ellipse cx="640.5" cy="254.8428" fill="#84BE84" rx="3" ry="3" style="stroke: #038048; stroke-width: 1.0;"/><text fill="#000000" font-family="sans-serif" font-size="11" lengthAdjust="spacingAndGlyphs" textLength="152" x="649.5" y="257.5">setThreshold1(double): void</text><ellipse cx="640.5" cy="267.7979" fill="#84BE84" rx="3" ry="3" style="stroke: #038048; stroke-width: 1.0;"/><text fill="#000000" font-family="sans-serif" font-size="11" lengthAdjust="spacingAndGlyphs" textLength="130" x="649.5" y="270.4551">getThreshold2(): double</text><ellipse cx="640.5" cy="280.7529" fill="#84BE84" rx="3" ry="3" style="stroke: #038048; stroke-width: 1.0;"/><text fill="#000000" font-family="sans-serif" font-size="11" lengthAdjust="spacingAndGlyphs" textLength="152" x="649.5" y="283.4102">setThreshold2(double): void</text><ellipse cx="640.5" cy="293.708" fill="#84BE84" rx="3" ry="3" style="stroke: #038048; stroke-width: 1.0;"/><text fill="#000000" font-family="sans-serif" font-size="11" lengthAdjust="spacingAndGlyphs" textLength="114" x="649.5" y="296.3652">getApertureSize(): int</text><ellipse cx="640.5" cy="306.6631" fill="#84BE84" rx="3" ry="3" style="stroke: #038048; stroke-width: 1.0;"/><text fill="#000000" font-family="sans-serif" font-size="11" lengthAdjust="spacingAndGlyphs" textLength="136" x="649.5" y="309.3203">setApertureSize(int): void</text><ellipse cx="640.5" cy="319.6182" fill="#84BE84" rx="3" ry="3" style="stroke: #038048; stroke-width: 1.0;"/><text fill="#000000" font-family="sans-serif" font-size="11" lengthAdjust="spacingAndGlyphs" textLength="124" x="649.5" y="322.2754">isL2gradient(): boolean</text><ellipse cx="640.5" cy="332.5732" fill="#84BE84" rx="3" ry="3" style="stroke: #038048; stroke-width: 1.0;"/><text fill="#000000" font-family="sans-serif" font-size="11" lengthAdjust="spacingAndGlyphs" textLength="154" x="649.5" y="335.2305">setL2gradient(boolean): void</text><ellipse cx="640.5" cy="345.5283" fill="#84BE84" rx="3" ry="3" style="stroke: #038048; stroke-width: 1.0;"/><text fill="#000000" font-family="sans-serif" font-size="11" lengthAdjust="spacingAndGlyphs" textLength="85" x="649.5" y="348.1855">detect(Mat): Mat</text></a><!--class org.rcdukes.detect.edgedectection.SobelEdgeDetector--><a href="SobelEdgeDetector.html" target="_top" xlink:actuate="onRequest" xlink:show="new" xlink:title="SobelEdgeDetector.html" xlink:type="simple"><rect fill="#FEFECE" filter="url(#fc6dj3eh8huav)" height="86.8652" id="org.rcdukes.detect.edgedectection.SobelEdgeDetector" style="stroke: #A80036; stroke-width: 1.5;" width="189" x="405.5" y="216"/><ellipse cx="442.1" cy="232" fill="#ADD1B2" rx="11" ry="11" style="stroke: #A80036; stroke-width: 1.0;"/><path d="M445.0731,237.6431 Q444.4921,237.9419 443.8529,238.0913 Q443.2138,238.2407 442.5082,238.2407 Q440.0014,238.2407 438.6815,236.5889 Q437.3617,234.937 437.3617,231.8159 Q437.3617,228.6865 438.6815,227.0347 Q440.0014,225.3828 442.5082,225.3828 Q443.2138,225.3828 443.8612,225.5322 Q444.5087,225.6816 445.0731,225.9805 L445.0731,228.7031 Q444.4423,228.1221 443.8488,227.8523 Q443.2553,227.5825 442.6244,227.5825 Q441.2797,227.5825 440.5949,228.6492 Q439.9101,229.7158 439.9101,231.8159 Q439.9101,233.9077 440.5949,234.9744 Q441.2797,236.041 442.6244,236.041 Q443.2553,236.041 443.8488,235.7712 Q444.4423,235.5015 445.0731,234.9204 Z "/><text fill="#000000" font-family="sans-serif" font-size="12" lengthAdjust="spacingAndGlyphs" textLength="109" x="460.9" y="236.5352">SobelEdgeDetector</text><line style="stroke: #A80036; stroke-width: 1.5;" x1="406.5" x2="593.5" y1="248" y2="248"/><line style="stroke: #A80036; stroke-width: 1.5;" x1="406.5" x2="593.5" y1="256" y2="256"/><ellipse cx="416.5" cy="267.9775" fill="#84BE84" rx="3" ry="3" style="stroke: #038048; stroke-width: 1.0;"/><text fill="#000000" font-family="sans-serif" font-size="11" lengthAdjust="spacingAndGlyphs" textLength="109" x="425.5" y="270.6348">SobelEdgeDetector()</text><ellipse cx="416.5" cy="280.9326" fill="#84BE84" rx="3" ry="3" style="stroke: #038048; stroke-width: 1.0;"/><text fill="#000000" font-family="sans-serif" font-size="11" lengthAdjust="spacingAndGlyphs" textLength="163" x="425.5" y="283.5898">SobelEdgeDetector(int, int, int)</text><ellipse cx="416.5" cy="293.8877" fill="#84BE84" rx="3" ry="3" style="stroke: #038048; stroke-width: 1.0;"/><text fill="#000000" font-family="sans-serif" font-size="11" lengthAdjust="spacingAndGlyphs" textLength="85" x="425.5" y="296.5449">detect(Mat): Mat</text></a><!--class org.rcdukes.detect.edgedectection.WatershedEdgeDetector--><a href="WatershedEdgeDetector.html" target="_top" xlink:actuate="onRequest" xlink:show="new" xlink:title="WatershedEdgeDetector.html" xlink:type="simple"><rect fill="#FEFECE" filter="url(#fc6dj3eh8huav)" height="86.8652" id="org.rcdukes.detect.edgedectection.WatershedEdgeDetector" style="stroke: #A80036; stroke-width: 1.5;" width="348" x="22" y="216"/><ellipse cx="122.25" cy="232" fill="#ADD1B2" rx="11" ry="11" style="stroke: #A80036; stroke-width: 1.0;"/><path d="M125.2231,237.6431 Q124.6421,237.9419 124.0029,238.0913 Q123.3638,238.2407 122.6582,238.2407 Q120.1514,238.2407 118.8315,236.5889 Q117.5117,234.937 117.5117,231.8159 Q117.5117,228.6865 118.8315,227.0347 Q120.1514,225.3828 122.6582,225.3828 Q123.3638,225.3828 124.0112,225.5322 Q124.6587,225.6816 125.2231,225.9805 L125.2231,228.7031 Q124.5923,228.1221 123.9988,227.8523 Q123.4053,227.5825 122.7744,227.5825 Q121.4297,227.5825 120.7449,228.6492 Q120.0601,229.7158 120.0601,231.8159 Q120.0601,233.9077 120.7449,234.9744 Q121.4297,236.041 122.7744,236.041 Q123.4053,236.041 123.9988,235.7712 Q124.5923,235.5015 125.2231,234.9204 Z "/><text fill="#000000" font-family="sans-serif" font-size="12" lengthAdjust="spacingAndGlyphs" textLength="139" x="142.75" y="236.5352">WatershedEdgeDetector</text><line style="stroke: #A80036; stroke-width: 1.5;" x1="23" x2="369" y1="248" y2="248"/><line style="stroke: #A80036; stroke-width: 1.5;" x1="23" x2="369" y1="256" y2="256"/><ellipse cx="33" cy="267.9775" fill="#84BE84" rx="3" ry="3" style="stroke: #038048; stroke-width: 1.0;"/><text fill="#000000" font-family="sans-serif" font-size="11" lengthAdjust="spacingAndGlyphs" textLength="136" x="42" y="270.6348">WatershedEdgeDetector()</text><ellipse cx="33" cy="280.9326" fill="#84BE84" rx="3" ry="3" style="stroke: #038048; stroke-width: 1.0;"/><text fill="#000000" font-family="sans-serif" font-size="11" lengthAdjust="spacingAndGlyphs" textLength="322" x="42" y="283.5898">WatershedEdgeDetector(double, double, int, double, double)</text><ellipse cx="33" cy="293.8877" fill="#84BE84" rx="3" ry="3" style="stroke: #038048; stroke-width: 1.0;"/><text fill="#000000" font-family="sans-serif" font-size="11" lengthAdjust="spacingAndGlyphs" textLength="85" x="42" y="296.5449">detect(Mat): Mat</text></a><!--class org.rcdukes.detectors.EdgeDetector--><rect fill="#FEFECE" filter="url(#fc6dj3eh8huav)" height="60.9551" id="org.rcdukes.detectors.EdgeDetector" style="stroke: #A80036; stroke-width: 1.5;" width="111" x="444.5" y="43"/><ellipse cx="459.95" cy="59" fill="#B4A7E5" rx="11" ry="11" style="stroke: #A80036; stroke-width: 1.0;"/><path d="M455.8777,54.7651 L455.8777,52.6069 L463.2571,52.6069 L463.2571,54.7651 L460.7918,54.7651 L460.7918,62.8418 L463.2571,62.8418 L463.2571,65 L455.8777,65 L455.8777,62.8418 L458.3431,62.8418 L458.3431,54.7651 Z "/><text fill="#000000" font-family="sans-serif" font-size="12" font-style="italic" lengthAdjust="spacingAndGlyphs" textLength="78" x="474.05" y="63.5352">EdgeDetector</text><line style="stroke: #A80036; stroke-width: 1.5;" x1="445.5" x2="554.5" y1="75" y2="75"/><line style="stroke: #A80036; stroke-width: 1.5;" x1="445.5" x2="554.5" y1="83" y2="83"/><ellipse cx="455.5" cy="94.9775" fill="#84BE84" rx="3" ry="3" style="stroke: #038048; stroke-width: 1.0;"/><text fill="#000000" font-family="sans-serif" font-size="11" font-style="italic" lengthAdjust="spacingAndGlyphs" textLength="85" x="464.5" y="97.6348">detect(Mat): Mat</text><!--link org.rcdukes.detectors.EdgeDetector to org.rcdukes.detect.edgedectection.CannyEdgeDetector--><path d="M573.135,113.1213 C586.258,120.7492 599.6731,128.8955 612,137 C624.8165,145.4264 637.9548,154.5262 650.9357,163.8271 " fill="none" id="org.rcdukes.detectors.EdgeDetector-org.rcdukes.detect.edgedectection.CannyEdgeDetector" style="stroke: #A80036; stroke-width: 1.0; stroke-dasharray: 7.0,7.0;"/><polygon fill="none" points="569.4567,119.082,555.5508,103.0937,576.392,106.9205,569.4567,119.082" style="stroke: #A80036; stroke-width: 1.0;"/><!--link org.rcdukes.detectors.EdgeDetector to org.rcdukes.detect.edgedectection.SobelEdgeDetector--><path d="M500,124.5582 C500,153.191 500,188.5335 500,215.8656 " fill="none" id="org.rcdukes.detectors.EdgeDetector-org.rcdukes.detect.edgedectection.SobelEdgeDetector" style="stroke: #A80036; stroke-width: 1.0; stroke-dasharray: 7.0,7.0;"/><polygon fill="none" points="493.0001,124.2142,500,104.2141,507.0001,124.2141,493.0001,124.2142" style="stroke: #A80036; stroke-width: 1.0;"/><!--link org.rcdukes.detectors.EdgeDetector to org.rcdukes.detect.edgedectection.WatershedEdgeDetector--><path d="M427.1755,114.0597 C414.0646,121.5685 400.5735,129.4316 388,137 C345.824,162.3872 299.2598,192.0545 262.551,215.8343 " fill="none" id="org.rcdukes.detectors.EdgeDetector-org.rcdukes.detect.edgedectection.WatershedEdgeDetector" style="stroke: #A80036; stroke-width: 1.0; stroke-dasharray: 7.0,7.0;"/><polygon fill="none" points="423.8498,107.8982,444.6965,104.1009,430.7679,120.0695,423.8498,107.8982" style="stroke: #A80036; stroke-width: 1.0;"/><text fill="#888888" font-family="sans-serif" font-size="10" lengthAdjust="spacingAndGlyphs" textLength="182" x="385.5" y="390.668">UMLDoclet 1.1.4, PlantUML 1.2019.05</text><!--
@startuml

    namespace org.rcdukes.detect.edgedectection {

        class CannyEdgeDetector [[CannyEdgeDetector.html]] {
            +CannyEdgeDetector()
            +CannyEdgeDetector(double, double, int, boolean)
            +getThreshold1(): double
            +setThreshold1(double): void
            +getThreshold2(): double
            +setThreshold2(double): void
            +getApertureSize(): int
            +setApertureSize(int): void
            +isL2gradient(): boolean
            +setL2gradient(boolean): void
            +detect(Mat): Mat
        }

        class SobelEdgeDetector [[SobelEdgeDetector.html]] {
            +SobelEdgeDetector()
            +SobelEdgeDetector(int, int, int)
            +detect(Mat): Mat
        }

        class WatershedEdgeDetector [[WatershedEdgeDetector.html]] {
            +WatershedEdgeDetector()
            +WatershedEdgeDetector(double, double, int, double, double)
            +detect(Mat): Mat
        }

        interface org.rcdukes.detectors.EdgeDetector {
            {abstract} +detect(Mat): Mat
        }
        org.rcdukes.detectors.EdgeDetector <|.. CannyEdgeDetector

        org.rcdukes.detectors.EdgeDetector <|.. SobelEdgeDetector

        org.rcdukes.detectors.EdgeDetector <|.. WatershedEdgeDetector

    }


    center footer UMLDoclet 1.1.4, PlantUML 1.2019.05
@enduml

PlantUML version 1.2019.05(Sat Apr 20 18:45:36 CEST 2019)
(APACHE source distribution)
Java Runtime: Java(TM) SE Runtime Environment
JVM: Java HotSpot(TM) 64-Bit Server VM
Java Version: 1.8.0_152-b16
Operating System: Mac OS X
OS Version: 10.13.6
Default Encoding: UTF-8
Language: de
Country: DE
--></g></svg>