<?xml version="1.0" encoding="UTF-8" standalone="no"?><svg xmlns="http://www.w3.org/2000/svg" xmlns:xlink="http://www.w3.org/1999/xlink" contentScriptType="application/ecmascript" contentStyleType="text/css" height="339px" preserveAspectRatio="none" style="width:865px;height:339px;" version="1.1" viewBox="0 0 865 339" width="865px" zoomAndPan="magnify"><defs><filter height="300%" id="f1qti5h3sd5bbj" width="300%" x="-1" y="-1"><feGaussianBlur result="blurOut" stdDeviation="2.0"/><feColorMatrix in="blurOut" result="blurOut2" type="matrix" values="0 0 0 0 0 0 0 0 0 0 0 0 0 0 0 0 0 0 .4 0"/><feOffset dx="4.0" dy="4.0" in="blurOut2" result="blurOut3"/><feBlend in="SourceGraphic" in2="blurOut3" mode="normal"/></filter></defs><g><!--cluster nl.vaneijndhoven.dukes.cooter--><polygon fill="#FFFFFF" filter="url(#f1qti5h3sd5bbj)" points="14,124,235,124,242,146.4883,843,146.4883,843,298,14,298,14,124" style="stroke: #000000; stroke-width: 1.5;"/><line style="stroke: #000000; stroke-width: 1.5;" x1="14" x2="242" y1="146.4883" y2="146.4883"/><text fill="#000000" font-family="sans-serif" font-size="14" font-weight="bold" lengthAdjust="spacingAndGlyphs" textLength="215" x="18" y="139.5352">nl.vaneijndhoven.dukes.cooter</text><!--cluster java.util.function--><polygon fill="#FFFFFF" filter="url(#f1qti5h3sd5bbj)" points="178,16,304,16,311,38.4883,324,38.4883,324,99,178,99,178,16" style="stroke: #000000; stroke-width: 1.5;"/><line style="stroke: #000000; stroke-width: 1.5;" x1="178" x2="311" y1="38.4883" y2="38.4883"/><text fill="#000000" font-family="sans-serif" font-size="14" font-weight="bold" lengthAdjust="spacingAndGlyphs" textLength="120" x="182" y="31.5352">java.util.function</text><!--class nl.vaneijndhoven.dukes.cooter.PerspectiveShiftTest--><a href="PerspectiveShiftTest.html" target="_top" xlink:actuate="onRequest" xlink:show="new" xlink:title="PerspectiveShiftTest.html" xlink:type="simple"><rect fill="#FEFECE" filter="url(#f1qti5h3sd5bbj)" height="60.9551" id="nl.vaneijndhoven.dukes.cooter.PerspectiveShiftTest" style="stroke: #A80036; stroke-width: 1.5;" width="147" x="687.5" y="190"/><ellipse cx="702.5" cy="206" fill="#ADD1B2" rx="11" ry="11" style="stroke: #A80036; stroke-width: 1.0;"/><path d="M705.4731,211.6431 Q704.8921,211.9419 704.2529,212.0913 Q703.6138,212.2407 702.9082,212.2407 Q700.4014,212.2407 699.0815,210.5889 Q697.7617,208.937 697.7617,205.8159 Q697.7617,202.6865 699.0815,201.0347 Q700.4014,199.3828 702.9082,199.3828 Q703.6138,199.3828 704.2612,199.5322 Q704.9087,199.6816 705.4731,199.9805 L705.4731,202.7031 Q704.8423,202.1221 704.2488,201.8523 Q703.6553,201.5825 703.0244,201.5825 Q701.6797,201.5825 700.9949,202.6492 Q700.3101,203.7158 700.3101,205.8159 Q700.3101,207.9077 700.9949,208.9744 Q701.6797,210.041 703.0244,210.041 Q703.6553,210.041 704.2488,209.7712 Q704.8423,209.5015 705.4731,208.9204 Z "/><text fill="#000000" font-family="sans-serif" font-size="12" lengthAdjust="spacingAndGlyphs" textLength="115" x="716.5" y="210.5352">PerspectiveShiftTest</text><line style="stroke: #A80036; stroke-width: 1.5;" x1="688.5" x2="833.5" y1="222" y2="222"/><line style="stroke: #A80036; stroke-width: 1.5;" x1="688.5" x2="833.5" y1="230" y2="230"/><ellipse cx="698.5" cy="241.9775" fill="#84BE84" rx="3" ry="3" style="stroke: #038048; stroke-width: 1.0;"/><text fill="#000000" font-family="sans-serif" font-size="11" lengthAdjust="spacingAndGlyphs" textLength="91" x="707.5" y="244.6348">transform(): void</text></a><!--class nl.vaneijndhoven.dukes.cooter.CameraMatrixTest--><a href="CameraMatrixTest.html" target="_top" xlink:actuate="onRequest" xlink:show="new" xlink:title="CameraMatrixTest.html" xlink:type="simple"><rect fill="#FEFECE" filter="url(#f1qti5h3sd5bbj)" height="60.9551" id="nl.vaneijndhoven.dukes.cooter.CameraMatrixTest" style="stroke: #A80036; stroke-width: 1.5;" width="138" x="514" y="190"/><ellipse cx="529" cy="206" fill="#ADD1B2" rx="11" ry="11" style="stroke: #A80036; stroke-width: 1.0;"/><path d="M531.9731,211.6431 Q531.3921,211.9419 530.7529,212.0913 Q530.1138,212.2407 529.4082,212.2407 Q526.9014,212.2407 525.5815,210.5889 Q524.2617,208.937 524.2617,205.8159 Q524.2617,202.6865 525.5815,201.0347 Q526.9014,199.3828 529.4082,199.3828 Q530.1138,199.3828 530.7612,199.5322 Q531.4087,199.6816 531.9731,199.9805 L531.9731,202.7031 Q531.3423,202.1221 530.7488,201.8523 Q530.1553,201.5825 529.5244,201.5825 Q528.1797,201.5825 527.4949,202.6492 Q526.8101,203.7158 526.8101,205.8159 Q526.8101,207.9077 527.4949,208.9744 Q528.1797,210.041 529.5244,210.041 Q530.1553,210.041 530.7488,209.7712 Q531.3423,209.5015 531.9731,208.9204 Z "/><text fill="#000000" font-family="sans-serif" font-size="12" lengthAdjust="spacingAndGlyphs" textLength="106" x="543" y="210.5352">CameraMatrixTest</text><line style="stroke: #A80036; stroke-width: 1.5;" x1="515" x2="651" y1="222" y2="222"/><line style="stroke: #A80036; stroke-width: 1.5;" x1="515" x2="651" y1="230" y2="230"/><ellipse cx="525" cy="241.9775" fill="#84BE84" rx="3" ry="3" style="stroke: #038048; stroke-width: 1.0;"/><text fill="#000000" font-family="sans-serif" font-size="11" lengthAdjust="spacingAndGlyphs" textLength="58" x="534" y="244.6348">calc(): void</text></a><!--class nl.vaneijndhoven.dukes.cooter.CameraMatrix--><a href="CameraMatrix.html" target="_top" xlink:actuate="onRequest" xlink:show="new" xlink:title="CameraMatrix.html" xlink:type="simple"><rect fill="#FEFECE" filter="url(#f1qti5h3sd5bbj)" height="138.6855" id="nl.vaneijndhoven.dukes.cooter.CameraMatrix" style="stroke: #A80036; stroke-width: 1.5;" width="210" x="269" y="151"/><ellipse cx="329.25" cy="167" fill="#ADD1B2" rx="11" ry="11" style="stroke: #A80036; stroke-width: 1.0;"/><path d="M332.2231,172.6431 Q331.6421,172.9419 331.0029,173.0913 Q330.3638,173.2407 329.6582,173.2407 Q327.1514,173.2407 325.8315,171.5889 Q324.5117,169.937 324.5117,166.8159 Q324.5117,163.6865 325.8315,162.0347 Q327.1514,160.3828 329.6582,160.3828 Q330.3638,160.3828 331.0112,160.5322 Q331.6587,160.6816 332.2231,160.9805 L332.2231,163.7031 Q331.5923,163.1221 330.9988,162.8523 Q330.4053,162.5825 329.7744,162.5825 Q328.4297,162.5825 327.7449,163.6492 Q327.0601,164.7158 327.0601,166.8159 Q327.0601,168.9077 327.7449,169.9744 Q328.4297,171.041 329.7744,171.041 Q330.4053,171.041 330.9988,170.7712 Q331.5923,170.5015 332.2231,169.9204 Z "/><text fill="#000000" font-family="sans-serif" font-size="12" lengthAdjust="spacingAndGlyphs" textLength="81" x="349.75" y="171.5352">CameraMatrix</text><line style="stroke: #A80036; stroke-width: 1.5;" x1="270" x2="478" y1="183" y2="183"/><ellipse cx="280" cy="194.9775" fill="none" rx="3" ry="3" style="stroke: #038048; stroke-width: 1.0;"/><text fill="#000000" font-family="sans-serif" font-size="11" lengthAdjust="spacingAndGlyphs" text-decoration="underline" textLength="130" x="289" y="197.6348">DEFAULT: CameraMatrix</text><line style="stroke: #A80036; stroke-width: 1.5;" x1="270" x2="478" y1="203.9551" y2="203.9551"/><ellipse cx="280" cy="215.9326" fill="#84BE84" rx="3" ry="3" style="stroke: #038048; stroke-width: 1.0;"/><text fill="#000000" font-family="sans-serif" font-size="11" lengthAdjust="spacingAndGlyphs" textLength="117" x="289" y="218.5898">CameraMatrix(int, int)</text><ellipse cx="280" cy="228.8877" fill="#84BE84" rx="3" ry="3" style="stroke: #038048; stroke-width: 1.0;"/><text fill="#000000" font-family="sans-serif" font-size="11" lengthAdjust="spacingAndGlyphs" textLength="110" x="289" y="231.5449">calibrate(Mat[]): void</text><ellipse cx="280" cy="241.8428" fill="#84BE84" rx="3" ry="3" style="stroke: #038048; stroke-width: 1.0;"/><text fill="#000000" font-family="sans-serif" font-size="11" lengthAdjust="spacingAndGlyphs" textLength="81" x="289" y="244.5">apply(Mat): Mat</text><ellipse cx="280" cy="254.7979" fill="#84BE84" rx="3" ry="3" style="stroke: #038048; stroke-width: 1.0;"/><text fill="#000000" font-family="sans-serif" font-size="11" lengthAdjust="spacingAndGlyphs" textLength="90" x="289" y="257.4551">serialize(): String</text><ellipse cx="280" cy="267.7529" fill="#84BE84" rx="3" ry="3" style="stroke: #038048; stroke-width: 1.0;"/><text fill="#000000" font-family="sans-serif" font-size="11" lengthAdjust="spacingAndGlyphs" text-decoration="underline" textLength="184" x="289" y="270.4102">deserizalize(String): CameraMatrix</text><ellipse cx="280" cy="280.708" fill="#84BE84" rx="3" ry="3" style="stroke: #038048; stroke-width: 1.0;"/><text fill="#000000" font-family="sans-serif" font-size="11" lengthAdjust="spacingAndGlyphs" textLength="113" x="289" y="283.3652">apply(Object): Object</text></a><!--class nl.vaneijndhoven.dukes.cooter.PerspectiveShift--><a href="PerspectiveShift.html" target="_top" xlink:actuate="onRequest" xlink:show="new" xlink:title="PerspectiveShift.html" xlink:type="simple"><rect fill="#FEFECE" filter="url(#f1qti5h3sd5bbj)" height="86.8652" id="nl.vaneijndhoven.dukes.cooter.PerspectiveShift" style="stroke: #A80036; stroke-width: 1.5;" width="211" x="22.5" y="177"/><ellipse cx="78.75" cy="193" fill="#ADD1B2" rx="11" ry="11" style="stroke: #A80036; stroke-width: 1.0;"/><path d="M81.7231,198.6431 Q81.1421,198.9419 80.5029,199.0913 Q79.8638,199.2407 79.1582,199.2407 Q76.6514,199.2407 75.3315,197.5889 Q74.0117,195.937 74.0117,192.8159 Q74.0117,189.6865 75.3315,188.0347 Q76.6514,186.3828 79.1582,186.3828 Q79.8638,186.3828 80.5112,186.5322 Q81.1587,186.6816 81.7231,186.9805 L81.7231,189.7031 Q81.0923,189.1221 80.4988,188.8523 Q79.9053,188.5825 79.2744,188.5825 Q77.9297,188.5825 77.2449,189.6492 Q76.5601,190.7158 76.5601,192.8159 Q76.5601,194.9077 77.2449,195.9744 Q77.9297,197.041 79.2744,197.041 Q79.9053,197.041 80.4988,196.7712 Q81.0923,196.5015 81.7231,195.9204 Z "/><text fill="#000000" font-family="sans-serif" font-size="12" lengthAdjust="spacingAndGlyphs" textLength="90" x="99.25" y="197.5352">PerspectiveShift</text><line style="stroke: #A80036; stroke-width: 1.5;" x1="23.5" x2="232.5" y1="209" y2="209"/><line style="stroke: #A80036; stroke-width: 1.5;" x1="23.5" x2="232.5" y1="217" y2="217"/><ellipse cx="33.5" cy="228.9775" fill="#84BE84" rx="3" ry="3" style="stroke: #038048; stroke-width: 1.0;"/><text fill="#000000" font-family="sans-serif" font-size="11" lengthAdjust="spacingAndGlyphs" textLength="185" x="42.5" y="231.6348">PerspectiveShift(Polygon, Polygon)</text><ellipse cx="33.5" cy="241.9326" fill="#84BE84" rx="3" ry="3" style="stroke: #038048; stroke-width: 1.0;"/><text fill="#000000" font-family="sans-serif" font-size="11" lengthAdjust="spacingAndGlyphs" textLength="81" x="42.5" y="244.5898">apply(Mat): Mat</text><ellipse cx="33.5" cy="254.8877" fill="#84BE84" rx="3" ry="3" style="stroke: #038048; stroke-width: 1.0;"/><text fill="#000000" font-family="sans-serif" font-size="11" lengthAdjust="spacingAndGlyphs" textLength="113" x="42.5" y="257.5449">apply(Object): Object</text></a><!--class java.util.function.UnaryOperator--><rect fill="#FEFECE" filter="url(#f1qti5h3sd5bbj)" height="48" id="java.util.function.UnaryOperator" style="stroke: #A80036; stroke-width: 1.5;" width="129" x="186.5" y="43"/><ellipse cx="201.5" cy="59" fill="#B4A7E5" rx="11" ry="11" style="stroke: #A80036; stroke-width: 1.0;"/><path d="M197.4277,54.7651 L197.4277,52.6069 L204.8071,52.6069 L204.8071,54.7651 L202.3418,54.7651 L202.3418,62.8418 L204.8071,62.8418 L204.8071,65 L197.4277,65 L197.4277,62.8418 L199.8931,62.8418 L199.8931,54.7651 Z "/><text fill="#000000" font-family="sans-serif" font-size="12" font-style="italic" lengthAdjust="spacingAndGlyphs" textLength="85" x="215.5" y="63.5352">UnaryOperator</text><rect fill="#FFFFFF" height="16.1328" style="stroke: #000000; stroke-width: 1.0; stroke-dasharray: 2.0,2.0;" width="10" x="308.5" y="40"/><text fill="#000000" font-family="sans-serif" font-size="12" font-style="italic" lengthAdjust="spacingAndGlyphs" textLength="8" x="309.5" y="52.6016">T</text><line style="stroke: #A80036; stroke-width: 1.5;" x1="187.5" x2="314.5" y1="75" y2="75"/><line style="stroke: #A80036; stroke-width: 1.5;" x1="187.5" x2="314.5" y1="83" y2="83"/><!--link java.util.function.UnaryOperator to nl.vaneijndhoven.dukes.cooter.CameraMatrix--><path d="M283.1294,107.0964 C293.8791,120.5117 306.1933,135.8795 318.2139,150.8808 " fill="none" id="java.util.function.UnaryOperator-nl.vaneijndhoven.dukes.cooter.CameraMatrix" style="stroke: #A80036; stroke-width: 1.0; stroke-dasharray: 7.0,7.0;"/><polygon fill="none" points="277.5334,111.3072,270.4897,91.3225,288.4587,102.5528,277.5334,111.3072" style="stroke: #A80036; stroke-width: 1.0;"/><!--link java.util.function.UnaryOperator to nl.vaneijndhoven.dukes.cooter.PerspectiveShift--><path d="M218.7599,107.2346 C201.6265,128.6165 180.5425,154.9286 163.0097,176.8091 " fill="none" id="java.util.function.UnaryOperator-nl.vaneijndhoven.dukes.cooter.PerspectiveShift" style="stroke: #A80036; stroke-width: 1.0; stroke-dasharray: 7.0,7.0;"/><polygon fill="none" points="213.5413,102.5528,231.5103,91.3225,224.4666,111.3072,213.5413,102.5528" style="stroke: #A80036; stroke-width: 1.0;"/><text fill="#888888" font-family="sans-serif" font-size="10" lengthAdjust="spacingAndGlyphs" textLength="182" x="343.5" y="325.668">UMLDoclet 1.1.4, PlantUML 1.2019.05</text><!--
@startuml

    namespace nl.vaneijndhoven.dukes.cooter {

        class PerspectiveShiftTest [[PerspectiveShiftTest.html]] {
            +transform(): void
        }

        class CameraMatrixTest [[CameraMatrixTest.html]] {
            +calc(): void
        }

        class CameraMatrix [[CameraMatrix.html]] {
            {static} +DEFAULT: CameraMatrix
            +CameraMatrix(int, int)
            +calibrate(Mat[]): void
            +apply(Mat): Mat
            +serialize(): String
            {static} +deserizalize(String): CameraMatrix
            +apply(Object): Object
        }

        class PerspectiveShift [[PerspectiveShift.html]] {
            +PerspectiveShift(Polygon, Polygon)
            +apply(Mat): Mat
            +apply(Object): Object
        }

        interface java.util.function.UnaryOperator<T>
        java.util.function.UnaryOperator <|.. CameraMatrix

        java.util.function.UnaryOperator <|.. PerspectiveShift

    }


    center footer UMLDoclet 1.1.4, PlantUML 1.2019.05
@enduml

PlantUML version 1.2019.05(Sat Apr 20 18:45:36 CEST 2019)
(APACHE source distribution)
Java Runtime: Java(TM) SE Runtime Environment
JVM: Java HotSpot(TM) 64-Bit Server VM
Java Version: 1.8.0_152-b16
Operating System: Mac OS X
OS Version: 10.13.6
Default Encoding: UTF-8
Language: de
Country: DE
--></g></svg>