<?xml version="1.0" encoding="UTF-8" standalone="no"?><svg xmlns="http://www.w3.org/2000/svg" xmlns:xlink="http://www.w3.org/1999/xlink" contentScriptType="application/ecmascript" contentStyleType="text/css" height="121px" preserveAspectRatio="none" style="width:194px;height:121px;" version="1.1" viewBox="0 0 194 121" width="194px" zoomAndPan="magnify"><defs><filter height="300%" id="f1h8q2228b8nxw" width="300%" x="-1" y="-1"><feGaussianBlur result="blurOut" stdDeviation="2.0"/><feColorMatrix in="blurOut" result="blurOut2" type="matrix" values="0 0 0 0 0 0 0 0 0 0 0 0 0 0 0 0 0 0 .4 0"/><feOffset dx="4.0" dy="4.0" in="blurOut2" result="blurOut3"/><feBlend in="SourceGraphic" in2="blurOut3" mode="normal"/></filter></defs><g><!--class LaneDetectionApp--><a href="LaneDetectionApp.html" target="_top" xlink:actuate="onRequest" xlink:show="new" xlink:title="LaneDetectionApp.html" xlink:type="simple"><rect fill="#FEFECE" filter="url(#f1h8q2228b8nxw)" height="80.1758" id="LaneDetectionApp" style="stroke: #A80036; stroke-width: 1.5;" width="137" x="16.5" y="8"/><ellipse cx="31.5" cy="27.1328" fill="#ADD1B2" rx="11" ry="11" style="stroke: #A80036; stroke-width: 1.0;"/><path d="M34.4731,32.7759 Q33.8921,33.0747 33.2529,33.2241 Q32.6138,33.3735 31.9082,33.3735 Q29.4014,33.3735 28.0815,31.7217 Q26.7617,30.0698 26.7617,26.9487 Q26.7617,23.8193 28.0815,22.1675 Q29.4014,20.5156 31.9082,20.5156 Q32.6138,20.5156 33.2612,20.665 Q33.9087,20.8145 34.4731,21.1133 L34.4731,23.8359 Q33.8423,23.2549 33.2488,22.9851 Q32.6553,22.7153 32.0244,22.7153 Q30.6797,22.7153 29.9949,23.782 Q29.3101,24.8486 29.3101,26.9487 Q29.3101,29.0405 29.9949,30.1072 Q30.6797,31.1738 32.0244,31.1738 Q32.6553,31.1738 33.2488,30.9041 Q33.8423,30.6343 34.4731,30.0532 Z "/><text fill="#000000" font-family="sans-serif" font-size="12" font-style="italic" lengthAdjust="spacingAndGlyphs" textLength="79" x="58.5" y="24.6016">«deprecated»</text><text fill="#000000" font-family="sans-serif" font-size="12" lengthAdjust="spacingAndGlyphs" textLength="105" x="45.5" y="38.7344">LaneDetectionApp</text><line style="stroke: #A80036; stroke-width: 1.5;" x1="17.5" x2="152.5" y1="46.2656" y2="46.2656"/><line style="stroke: #A80036; stroke-width: 1.5;" x1="17.5" x2="152.5" y1="54.2656" y2="54.2656"/><ellipse cx="27.5" cy="66.2432" fill="#84BE84" rx="3" ry="3" style="stroke: #038048; stroke-width: 1.0;"/><text fill="#000000" font-family="sans-serif" font-size="11" lengthAdjust="spacingAndGlyphs" text-decoration="line-through" textLength="25" x="36.5" y="68.9004">start</text><text fill="#000000" font-family="sans-serif" font-size="11" lengthAdjust="spacingAndGlyphs" textLength="66" x="64.5" y="68.9004">(Stage): void</text><ellipse cx="27.5" cy="79.1982" fill="#84BE84" rx="3" ry="3" style="stroke: #038048; stroke-width: 1.0;"/><text fill="#000000" font-family="sans-serif" font-size="11" lengthAdjust="spacingAndGlyphs" text-decoration="underline" textLength="26" x="36.5" y="81.8555">main</text><text fill="#000000" font-family="sans-serif" font-size="11" lengthAdjust="spacingAndGlyphs" text-decoration="underline" textLength="77" x="65.5" y="81.8555">(String[]): void</text></a><text fill="#888888" font-family="sans-serif" font-size="10" lengthAdjust="spacingAndGlyphs" textLength="182" x="0" y="107.668">UMLDoclet 1.1.4, PlantUML 1.2019.05</text><!--
@startuml

    class LaneDetectionApp <<deprecated>> [[LaneDetectionApp.html]] {
        + - -start- - (Stage): void
        {static} + - -main- - (String[]): void
    }


    center footer UMLDoclet 1.1.4, PlantUML 1.2019.05
@enduml

PlantUML version 1.2019.05(Sat Apr 20 18:45:36 CEST 2019)
(APACHE source distribution)
Java Runtime: Java(TM) SE Runtime Environment
JVM: Java HotSpot(TM) 64-Bit Server VM
Java Version: 1.8.0_191-b12
Operating System: Mac OS X
OS Version: 10.13.6
Default Encoding: UTF-8
Language: de
Country: DE
--></g></svg>