<?xml version="1.0" encoding="UTF-8" standalone="no"?><svg xmlns="http://www.w3.org/2000/svg" xmlns:xlink="http://www.w3.org/1999/xlink" contentScriptType="application/ecmascript" contentStyleType="text/css" height="257px" preserveAspectRatio="none" style="width:243px;height:257px;" version="1.1" viewBox="0 0 243 257" width="243px" zoomAndPan="magnify"><defs><filter height="300%" id="fx5kifdu75nzl" width="300%" x="-1" y="-1"><feGaussianBlur result="blurOut" stdDeviation="2.0"/><feColorMatrix in="blurOut" result="blurOut2" type="matrix" values="0 0 0 0 0 0 0 0 0 0 0 0 0 0 0 0 0 0 .4 0"/><feOffset dx="4.0" dy="4.0" in="blurOut2" result="blurOut3"/><feBlend in="SourceGraphic" in2="blurOut3" mode="normal"/></filter></defs><g><!--class Car--><a href="Car.html" target="_top" xlink:actuate="onRequest" xlink:show="new" xlink:title="Car.html" xlink:type="simple"><rect fill="#FEFECE" filter="url(#fx5kifdu75nzl)" height="216.416" id="Car" style="stroke: #A80036; stroke-width: 1.5;" width="226" x="6" y="8"/><ellipse cx="104.75" cy="24" fill="#ADD1B2" rx="11" ry="11" style="stroke: #A80036; stroke-width: 1.0;"/><path d="M107.7231,29.6431 Q107.1421,29.9419 106.5029,30.0913 Q105.8638,30.2407 105.1582,30.2407 Q102.6514,30.2407 101.3315,28.5889 Q100.0117,26.937 100.0117,23.8159 Q100.0117,20.6865 101.3315,19.0347 Q102.6514,17.3828 105.1582,17.3828 Q105.8638,17.3828 106.5112,17.5322 Q107.1587,17.6816 107.7231,17.9805 L107.7231,20.7031 Q107.0923,20.1221 106.4988,19.8523 Q105.9053,19.5825 105.2744,19.5825 Q103.9297,19.5825 103.2449,20.6492 Q102.5601,21.7158 102.5601,23.8159 Q102.5601,25.9077 103.2449,26.9744 Q103.9297,28.041 105.2744,28.041 Q105.9053,28.041 106.4988,27.7712 Q107.0923,27.5015 107.7231,26.9204 Z "/><text fill="#000000" font-family="sans-serif" font-size="12" lengthAdjust="spacingAndGlyphs" textLength="20" x="125.25" y="28.5352">Car</text><line style="stroke: #A80036; stroke-width: 1.5;" x1="7" x2="231" y1="40" y2="40"/><ellipse cx="17" cy="51.9775" fill="none" rx="3" ry="3" style="stroke: #038048; stroke-width: 1.0;"/><text fill="#000000" font-family="sans-serif" font-size="11" lengthAdjust="spacingAndGlyphs" text-decoration="underline" textLength="176" x="26" y="54.6348">servoCommand: ServoCommand</text><line style="stroke: #A80036; stroke-width: 1.5;" x1="7" x2="231" y1="60.9551" y2="60.9551"/><ellipse cx="17" cy="72.9326" fill="#84BE84" rx="3" ry="3" style="stroke: #038048; stroke-width: 1.0;"/><text fill="#000000" font-family="sans-serif" font-size="11" lengthAdjust="spacingAndGlyphs" textLength="200" x="26" y="75.5898">configure(Engine, Steering, Led): void</text><ellipse cx="17" cy="85.8877" fill="#84BE84" rx="3" ry="3" style="stroke: #038048; stroke-width: 1.0;"/><text fill="#000000" font-family="sans-serif" font-size="11" lengthAdjust="spacingAndGlyphs" textLength="101" x="26" y="88.5449">setPowerOn(): void</text><ellipse cx="17" cy="98.8428" fill="#84BE84" rx="3" ry="3" style="stroke: #038048; stroke-width: 1.0;"/><text fill="#000000" font-family="sans-serif" font-size="11" lengthAdjust="spacingAndGlyphs" textLength="102" x="26" y="101.5">setPowerOff(): void</text><ellipse cx="17" cy="111.7979" fill="#84BE84" rx="3" ry="3" style="stroke: #038048; stroke-width: 1.0;"/><text fill="#000000" font-family="sans-serif" font-size="11" lengthAdjust="spacingAndGlyphs" textLength="115" x="26" y="114.4551">powerIsOn(): boolean</text><ellipse cx="17" cy="124.7529" fill="#84BE84" rx="3" ry="3" style="stroke: #038048; stroke-width: 1.0;"/><text fill="#000000" font-family="sans-serif" font-size="11" lengthAdjust="spacingAndGlyphs" textLength="61" x="26" y="127.4102">stop(): void</text><ellipse cx="17" cy="137.708" fill="#84BE84" rx="3" ry="3" style="stroke: #038048; stroke-width: 1.0;"/><text fill="#000000" font-family="sans-serif" font-size="11" lengthAdjust="spacingAndGlyphs" textLength="133" x="26" y="140.3652">turn(ServoPosition): void</text><ellipse cx="17" cy="150.6631" fill="#84BE84" rx="3" ry="3" style="stroke: #038048; stroke-width: 1.0;"/><text fill="#000000" font-family="sans-serif" font-size="11" lengthAdjust="spacingAndGlyphs" textLength="137" x="26" y="153.3203">drive(ServoPosition): void</text><ellipse cx="17" cy="163.6182" fill="#84BE84" rx="3" ry="3" style="stroke: #038048; stroke-width: 1.0;"/><text fill="#000000" font-family="sans-serif" font-size="11" lengthAdjust="spacingAndGlyphs" textLength="103" x="26" y="166.2754">getEngine(): Engine</text><ellipse cx="17" cy="176.5732" fill="#84BE84" rx="3" ry="3" style="stroke: #038048; stroke-width: 1.0;"/><text fill="#000000" font-family="sans-serif" font-size="11" lengthAdjust="spacingAndGlyphs" textLength="119" x="26" y="179.2305">getSteering(): Steering</text><ellipse cx="17" cy="189.5283" fill="#84BE84" rx="3" ry="3" style="stroke: #038048; stroke-width: 1.0;"/><text fill="#000000" font-family="sans-serif" font-size="11" lengthAdjust="spacingAndGlyphs" textLength="69" x="26" y="192.1855">getLed(): Led</text><ellipse cx="17" cy="202.4834" fill="#84BE84" rx="3" ry="3" style="stroke: #038048; stroke-width: 1.0;"/><text fill="#000000" font-family="sans-serif" font-size="11" lengthAdjust="spacingAndGlyphs" text-decoration="underline" textLength="95" x="26" y="205.1406">getInstance(): Car</text><ellipse cx="17" cy="215.4385" fill="#84BE84" rx="3" ry="3" style="stroke: #038048; stroke-width: 1.0;"/><text fill="#000000" font-family="sans-serif" font-size="11" lengthAdjust="spacingAndGlyphs" text-decoration="underline" textLength="109" x="26" y="218.0957">resetInstance(): void</text></a><text fill="#888888" font-family="sans-serif" font-size="10" lengthAdjust="spacingAndGlyphs" textLength="182" x="34" y="243.668">UMLDoclet 1.1.4, PlantUML 1.2019.05</text><!--
@startuml

    class Car [[Car.html]] {
        {static} +servoCommand: ServoCommand
        +configure(Engine, Steering, Led): void
        +setPowerOn(): void
        +setPowerOff(): void
        +powerIsOn(): boolean
        +stop(): void
        +turn(ServoPosition): void
        +drive(ServoPosition): void
        +getEngine(): Engine
        +getSteering(): Steering
        +getLed(): Led
        {static} +getInstance(): Car
        {static} +resetInstance(): void
    }


    center footer UMLDoclet 1.1.4, PlantUML 1.2019.05
@enduml

PlantUML version 1.2019.05(Sat Apr 20 18:45:36 CEST 2019)
(APACHE source distribution)
Java Runtime: Java(TM) SE Runtime Environment
JVM: Java HotSpot(TM) 64-Bit Server VM
Java Version: 1.8.0_152-b16
Operating System: Mac OS X
OS Version: 10.13.6
Default Encoding: UTF-8
Language: de
Country: DE
--></g></svg>