<?xml version="1.0" encoding="UTF-8" standalone="no"?><svg xmlns="http://www.w3.org/2000/svg" xmlns:xlink="http://www.w3.org/1999/xlink" contentScriptType="application/ecmascript" contentStyleType="text/css" height="943px" preserveAspectRatio="none" style="width:903px;height:943px;" version="1.1" viewBox="0 0 903 943" width="903px" zoomAndPan="magnify"><defs><filter height="300%" id="f1rxhro2pwxxc" width="300%" x="-1" y="-1"><feGaussianBlur result="blurOut" stdDeviation="2.0"/><feColorMatrix in="blurOut" result="blurOut2" type="matrix" values="0 0 0 0 0 0 0 0 0 0 0 0 0 0 0 0 0 0 .4 0"/><feOffset dx="4.0" dy="4.0" in="blurOut2" result="blurOut3"/><feBlend in="SourceGraphic" in2="blurOut3" mode="normal"/></filter></defs><g><!--cluster org.rcdukes.drivecontrol--><polygon fill="#FFFFFF" filter="url(#f1rxhro2pwxxc)" points="14,215,193,215,200,237.4883,549,237.4883,549,902,14,902,14,215" style="stroke: #000000; stroke-width: 1.5;"/><line style="stroke: #000000; stroke-width: 1.5;" x1="14" x2="200" y1="237.4883" y2="237.4883"/><text fill="#000000" font-family="sans-serif" font-size="14" font-weight="bold" lengthAdjust="spacingAndGlyphs" textLength="173" x="18" y="230.5352">org.rcdukes.drivecontrol</text><!--cluster org.rcdukes.car--><polygon fill="#FFFFFF" filter="url(#f1rxhro2pwxxc)" points="249,16,362,16,369,38.4883,881,38.4883,881,190,249,190,249,16" style="stroke: #000000; stroke-width: 1.5;"/><line style="stroke: #000000; stroke-width: 1.5;" x1="249" x2="369" y1="38.4883" y2="38.4883"/><text fill="#000000" font-family="sans-serif" font-size="14" font-weight="bold" lengthAdjust="spacingAndGlyphs" textLength="107" x="253" y="31.5352">org.rcdukes.car</text><!--class org.rcdukes.drivecontrol.ServoMap--><a href="ServoMap.html" target="_top" xlink:actuate="onRequest" xlink:show="new" xlink:title="ServoMap.html" xlink:type="simple"><rect fill="#FEFECE" filter="url(#f1rxhro2pwxxc)" height="190.5059" id="org.rcdukes.drivecontrol.ServoMap" style="stroke: #A80036; stroke-width: 1.5;" width="258" x="283" y="254.5"/><ellipse cx="379.75" cy="270.5" fill="#A9DCDF" rx="11" ry="11" style="stroke: #A80036; stroke-width: 1.0;"/><path d="M379.8633,265.8481 L378.7095,270.9199 L381.0254,270.9199 Z M378.3691,263.6069 L381.3657,263.6069 L384.7109,276 L382.2622,276 L381.4985,272.937 L378.2197,272.937 L377.4727,276 L375.0239,276 Z "/><text fill="#000000" font-family="sans-serif" font-size="12" font-style="italic" lengthAdjust="spacingAndGlyphs" textLength="56" x="400.25" y="275.0352">ServoMap</text><line style="stroke: #A80036; stroke-width: 1.5;" x1="284" x2="540" y1="286.5" y2="286.5"/><polygon fill="none" points="294,293.4775,298,297.4775,294,301.4775,290,297.4775" style="stroke: #B38D22; stroke-width: 1.0;"/><text fill="#000000" font-family="sans-serif" font-size="11" lengthAdjust="spacingAndGlyphs" text-decoration="underline" textLength="67" x="303" y="301.1348">LOG: Logger</text><polygon fill="none" points="294,306.4326,298,310.4326,294,314.4326,290,310.4326" style="stroke: #B38D22; stroke-width: 1.0;"/><text fill="#000000" font-family="sans-serif" font-size="11" lengthAdjust="spacingAndGlyphs" textLength="176" x="303" y="314.0898">servoCommand: ServoCommand</text><polygon fill="none" points="294,319.3877,298,323.3877,294,327.3877,290,323.3877" style="stroke: #B38D22; stroke-width: 1.0;"/><text fill="#000000" font-family="sans-serif" font-size="11" lengthAdjust="spacingAndGlyphs" textLength="60" x="303" y="327.0449">gpioPin: int</text><polygon fill="none" points="294,332.3428,298,336.3428,294,340.3428,290,336.3428" style="stroke: #B38D22; stroke-width: 1.0;"/><text fill="#000000" font-family="sans-serif" font-size="11" lengthAdjust="spacingAndGlyphs" textLength="146" x="303" y="340">turnedOrientation: boolean</text><line style="stroke: #A80036; stroke-width: 1.5;" x1="284" x2="540" y1="346.3203" y2="346.3203"/><ellipse cx="294" cy="358.2979" fill="#84BE84" rx="3" ry="3" style="stroke: #038048; stroke-width: 1.0;"/><text fill="#000000" font-family="sans-serif" font-size="11" lengthAdjust="spacingAndGlyphs" textLength="189" x="303" y="360.9551">getCurrentPosition(): ServoPosition</text><ellipse cx="294" cy="371.2529" fill="#84BE84" rx="3" ry="3" style="stroke: #038048; stroke-width: 1.0;"/><text fill="#000000" font-family="sans-serif" font-size="11" lengthAdjust="spacingAndGlyphs" textLength="211" x="303" y="373.9102">setCurrentPosition(ServoPosition): void</text><ellipse cx="294" cy="384.208" fill="#84BE84" rx="3" ry="3" style="stroke: #038048; stroke-width: 1.0;"/><text fill="#000000" font-family="sans-serif" font-size="11" lengthAdjust="spacingAndGlyphs" textLength="224" x="303" y="386.8652">newPosition(ServoPosition): ServoPosition</text><ellipse cx="294" cy="397.1631" fill="#84BE84" rx="3" ry="3" style="stroke: #038048; stroke-width: 1.0;"/><text fill="#000000" font-family="sans-serif" font-size="11" lengthAdjust="spacingAndGlyphs" textLength="68" x="303" y="399.8203">gpioPin(): int</text><ellipse cx="294" cy="410.1182" fill="#84BE84" rx="3" ry="3" style="stroke: #038048; stroke-width: 1.0;"/><text fill="#000000" font-family="sans-serif" font-size="11" lengthAdjust="spacingAndGlyphs" textLength="184" x="303" y="412.7754">servoCommand(): ServoCommand</text><ellipse cx="294" cy="423.0732" fill="#84BE84" rx="3" ry="3" style="stroke: #038048; stroke-width: 1.0;"/><text fill="#000000" font-family="sans-serif" font-size="11" lengthAdjust="spacingAndGlyphs" textLength="232" x="303" y="425.7305">configure(int, ServoCommand, String): void</text><ellipse cx="294" cy="436.0283" fill="#84BE84" rx="3" ry="3" style="stroke: #038048; stroke-width: 1.0;"/><text fill="#000000" font-family="sans-serif" font-size="11" lengthAdjust="spacingAndGlyphs" textLength="154" x="303" y="438.6855">turnedOrientation(): boolean</text></a><!--class org.rcdukes.drivecontrol.SteeringMap--><a href="SteeringMap.html" target="_top" xlink:actuate="onRequest" xlink:show="new" xlink:title="SteeringMap.html" xlink:type="simple"><rect fill="#FEFECE" filter="url(#f1rxhro2pwxxc)" height="60.9551" id="org.rcdukes.drivecontrol.SteeringMap" style="stroke: #A80036; stroke-width: 1.5;" width="185" x="114.5" y="833"/><ellipse cx="167.25" cy="849" fill="#ADD1B2" rx="11" ry="11" style="stroke: #A80036; stroke-width: 1.0;"/><path d="M170.2231,854.6431 Q169.6421,854.9419 169.0029,855.0913 Q168.3638,855.2407 167.6582,855.2407 Q165.1514,855.2407 163.8315,853.5889 Q162.5117,851.937 162.5117,848.8159 Q162.5117,845.6865 163.8315,844.0347 Q165.1514,842.3828 167.6582,842.3828 Q168.3638,842.3828 169.0112,842.5322 Q169.6587,842.6816 170.2231,842.9805 L170.2231,845.7031 Q169.5923,845.1221 168.9988,844.8523 Q168.4053,844.5825 167.7744,844.5825 Q166.4297,844.5825 165.7449,845.6492 Q165.0601,846.7158 165.0601,848.8159 Q165.0601,850.9077 165.7449,851.9744 Q166.4297,853.041 167.7744,853.041 Q168.4053,853.041 168.9988,852.7712 Q169.5923,852.5015 170.2231,851.9204 Z "/><text fill="#000000" font-family="sans-serif" font-size="12" lengthAdjust="spacingAndGlyphs" textLength="71" x="187.75" y="853.5352">SteeringMap</text><line style="stroke: #A80036; stroke-width: 1.5;" x1="115.5" x2="298.5" y1="865" y2="865"/><line style="stroke: #A80036; stroke-width: 1.5;" x1="115.5" x2="298.5" y1="873" y2="873"/><ellipse cx="125.5" cy="884.9775" fill="#84BE84" rx="3" ry="3" style="stroke: #038048; stroke-width: 1.0;"/><text fill="#000000" font-family="sans-serif" font-size="11" lengthAdjust="spacingAndGlyphs" textLength="159" x="134.5" y="887.6348">SteeringMap(ServoCommand)</text></a><!--class org.rcdukes.drivecontrol.EngineMap--><a href="EngineMap.html" target="_top" xlink:actuate="onRequest" xlink:show="new" xlink:title="EngineMap.html" xlink:type="simple"><rect fill="#FEFECE" filter="url(#f1rxhro2pwxxc)" height="60.9551" id="org.rcdukes.drivecontrol.EngineMap" style="stroke: #A80036; stroke-width: 1.5;" width="177" x="334.5" y="833"/><ellipse cx="387.25" cy="849" fill="#ADD1B2" rx="11" ry="11" style="stroke: #A80036; stroke-width: 1.0;"/><path d="M390.2231,854.6431 Q389.6421,854.9419 389.0029,855.0913 Q388.3638,855.2407 387.6582,855.2407 Q385.1514,855.2407 383.8315,853.5889 Q382.5117,851.937 382.5117,848.8159 Q382.5117,845.6865 383.8315,844.0347 Q385.1514,842.3828 387.6582,842.3828 Q388.3638,842.3828 389.0112,842.5322 Q389.6587,842.6816 390.2231,842.9805 L390.2231,845.7031 Q389.5923,845.1221 388.9988,844.8523 Q388.4053,844.5825 387.7744,844.5825 Q386.4297,844.5825 385.7449,845.6492 Q385.0601,846.7158 385.0601,848.8159 Q385.0601,850.9077 385.7449,851.9744 Q386.4297,853.041 387.7744,853.041 Q388.4053,853.041 388.9988,852.7712 Q389.5923,852.5015 390.2231,851.9204 Z "/><text fill="#000000" font-family="sans-serif" font-size="12" lengthAdjust="spacingAndGlyphs" textLength="63" x="407.75" y="853.5352">EngineMap</text><line style="stroke: #A80036; stroke-width: 1.5;" x1="335.5" x2="510.5" y1="865" y2="865"/><line style="stroke: #A80036; stroke-width: 1.5;" x1="335.5" x2="510.5" y1="873" y2="873"/><ellipse cx="345.5" cy="884.9775" fill="#84BE84" rx="3" ry="3" style="stroke: #038048; stroke-width: 1.0;"/><text fill="#000000" font-family="sans-serif" font-size="11" lengthAdjust="spacingAndGlyphs" textLength="151" x="354.5" y="887.6348">EngineMap(ServoCommand)</text></a><!--class org.rcdukes.drivecontrol.LedMap--><a href="LedMap.html" target="_top" xlink:actuate="onRequest" xlink:show="new" xlink:title="LedMap.html" xlink:type="simple"><rect fill="#FEFECE" filter="url(#f1rxhro2pwxxc)" height="99.8203" id="org.rcdukes.drivecontrol.LedMap" style="stroke: #A80036; stroke-width: 1.5;" width="176" x="38" y="595.5"/><ellipse cx="98.75" cy="611.5" fill="#ADD1B2" rx="11" ry="11" style="stroke: #A80036; stroke-width: 1.0;"/><path d="M101.7231,617.1431 Q101.1421,617.4419 100.5029,617.5913 Q99.8638,617.7407 99.1582,617.7407 Q96.6514,617.7407 95.3315,616.0889 Q94.0117,614.437 94.0117,611.3159 Q94.0117,608.1865 95.3315,606.5347 Q96.6514,604.8828 99.1582,604.8828 Q99.8638,604.8828 100.5112,605.0322 Q101.1587,605.1816 101.7231,605.4805 L101.7231,608.2031 Q101.0923,607.6221 100.4988,607.3523 Q99.9053,607.0825 99.2744,607.0825 Q97.9297,607.0825 97.2449,608.1492 Q96.5601,609.2158 96.5601,611.3159 Q96.5601,613.4077 97.2449,614.4744 Q97.9297,615.541 99.2744,615.541 Q99.9053,615.541 100.4988,615.2712 Q101.0923,615.0015 101.7231,614.4204 Z "/><text fill="#000000" font-family="sans-serif" font-size="12" lengthAdjust="spacingAndGlyphs" textLength="46" x="119.25" y="616.0352">LedMap</text><line style="stroke: #A80036; stroke-width: 1.5;" x1="39" x2="213" y1="627.5" y2="627.5"/><line style="stroke: #A80036; stroke-width: 1.5;" x1="39" x2="213" y1="635.5" y2="635.5"/><ellipse cx="49" cy="647.4775" fill="#84BE84" rx="3" ry="3" style="stroke: #038048; stroke-width: 1.0;"/><text fill="#000000" font-family="sans-serif" font-size="11" lengthAdjust="spacingAndGlyphs" textLength="134" x="58" y="650.1348">LedMap(ServoCommand)</text><ellipse cx="49" cy="660.4326" fill="#84BE84" rx="3" ry="3" style="stroke: #038048; stroke-width: 1.0;"/><text fill="#000000" font-family="sans-serif" font-size="11" lengthAdjust="spacingAndGlyphs" textLength="61" x="58" y="663.0898">ledOff(): int</text><ellipse cx="49" cy="673.3877" fill="#84BE84" rx="3" ry="3" style="stroke: #038048; stroke-width: 1.0;"/><text fill="#000000" font-family="sans-serif" font-size="11" lengthAdjust="spacingAndGlyphs" textLength="60" x="58" y="676.0449">ledOn(): int</text><ellipse cx="49" cy="686.3428" fill="#84BE84" rx="3" ry="3" style="stroke: #038048; stroke-width: 1.0;"/><text fill="#000000" font-family="sans-serif" font-size="11" lengthAdjust="spacingAndGlyphs" textLength="150" x="58" y="689">configureOrientation(): void</text></a><!--class org.rcdukes.drivecontrol.ServoRangeMap--><a href="ServoRangeMap.html" target="_top" xlink:actuate="onRequest" xlink:show="new" xlink:title="ServoRangeMap.html" xlink:type="simple"><rect fill="#FEFECE" filter="url(#f1rxhro2pwxxc)" height="255.2813" id="org.rcdukes.drivecontrol.ServoRangeMap" style="stroke: #A80036; stroke-width: 1.5;" width="292" x="249" y="518"/><ellipse cx="344.75" cy="534" fill="#A9DCDF" rx="11" ry="11" style="stroke: #A80036; stroke-width: 1.0;"/><path d="M344.8633,529.3481 L343.7095,534.4199 L346.0254,534.4199 Z M343.3691,527.1069 L346.3657,527.1069 L349.7109,539.5 L347.2622,539.5 L346.4985,536.437 L343.2197,536.437 L342.4727,539.5 L340.0239,539.5 Z "/><text fill="#000000" font-family="sans-serif" font-size="12" font-style="italic" lengthAdjust="spacingAndGlyphs" textLength="92" x="365.25" y="538.5352">ServoRangeMap</text><line style="stroke: #A80036; stroke-width: 1.5;" x1="250" x2="540" y1="550" y2="550"/><line style="stroke: #A80036; stroke-width: 1.5;" x1="250" x2="540" y1="558" y2="558"/><ellipse cx="260" cy="569.9775" fill="#84BE84" rx="3" ry="3" style="stroke: #038048; stroke-width: 1.0;"/><text fill="#000000" font-family="sans-serif" font-size="11" lengthAdjust="spacingAndGlyphs" textLength="127" x="269" y="572.6348">getRange(): ServoRange</text><ellipse cx="260" cy="582.9326" fill="#84BE84" rx="3" ry="3" style="stroke: #038048; stroke-width: 1.0;"/><text fill="#000000" font-family="sans-serif" font-size="11" lengthAdjust="spacingAndGlyphs" textLength="149" x="269" y="585.5898">setRange(ServoRange): void</text><ellipse cx="260" cy="595.8877" fill="#84BE84" rx="3" ry="3" style="stroke: #038048; stroke-width: 1.0;"/><text fill="#000000" font-family="sans-serif" font-size="11" lengthAdjust="spacingAndGlyphs" textLength="85" x="269" y="598.5449">getUnit(): String</text><ellipse cx="260" cy="608.8428" fill="#84BE84" rx="3" ry="3" style="stroke: #038048; stroke-width: 1.0;"/><text fill="#000000" font-family="sans-serif" font-size="11" lengthAdjust="spacingAndGlyphs" textLength="107" x="269" y="611.5">setUnit(String): void</text><ellipse cx="260" cy="621.7979" fill="#84BE84" rx="3" ry="3" style="stroke: #038048; stroke-width: 1.0;"/><text fill="#000000" font-family="sans-serif" font-size="11" lengthAdjust="spacingAndGlyphs" textLength="93" x="269" y="624.4551">getName(): String</text><ellipse cx="260" cy="634.7529" fill="#84BE84" rx="3" ry="3" style="stroke: #038048; stroke-width: 1.0;"/><text fill="#000000" font-family="sans-serif" font-size="11" lengthAdjust="spacingAndGlyphs" textLength="115" x="269" y="637.4102">setName(String): void</text><ellipse cx="260" cy="647.708" fill="#84BE84" rx="3" ry="3" style="stroke: #038048; stroke-width: 1.0;"/><text fill="#000000" font-family="sans-serif" font-size="11" lengthAdjust="spacingAndGlyphs" textLength="174" x="269" y="650.3652">atPercent(double): ServoPosition</text><ellipse cx="260" cy="660.6631" fill="#84BE84" rx="3" ry="3" style="stroke: #038048; stroke-width: 1.0;"/><text fill="#000000" font-family="sans-serif" font-size="11" lengthAdjust="spacingAndGlyphs" textLength="163" x="269" y="663.3203">atValue(double): ServoPosition</text><ellipse cx="260" cy="673.6182" fill="#84BE84" rx="3" ry="3" style="stroke: #038048; stroke-width: 1.0;"/><text fill="#000000" font-family="sans-serif" font-size="11" lengthAdjust="spacingAndGlyphs" textLength="74" x="269" y="676.2754">step(int): void</text><ellipse cx="260" cy="686.5732" fill="#84BE84" rx="3" ry="3" style="stroke: #038048; stroke-width: 1.0;"/><text fill="#000000" font-family="sans-serif" font-size="11" lengthAdjust="spacingAndGlyphs" textLength="224" x="269" y="689.2305">newPosition(ServoPosition): ServoPosition</text><ellipse cx="260" cy="699.5283" fill="#84BE84" rx="3" ry="3" style="stroke: #038048; stroke-width: 1.0;"/><text fill="#000000" font-family="sans-serif" font-size="11" lengthAdjust="spacingAndGlyphs" textLength="78" x="269" y="702.1855">setZero(): void</text><ellipse cx="260" cy="712.4834" fill="#84BE84" rx="3" ry="3" style="stroke: #038048; stroke-width: 1.0;"/><text fill="#000000" font-family="sans-serif" font-size="11" lengthAdjust="spacingAndGlyphs" textLength="111" x="269" y="715.1406">positionInfo(): String</text><polygon fill="#FFFF44" points="260,720.4385,264,724.4385,260,728.4385,256,724.4385" style="stroke: #B38D22; stroke-width: 1.0;"/><text fill="#000000" font-family="sans-serif" font-size="11" lengthAdjust="spacingAndGlyphs" textLength="266" x="269" y="728.0957">assertGreater(double, double, String, String): void</text><polygon fill="#FFFF44" points="260,733.3936,264,737.3936,260,741.3936,256,737.3936" style="stroke: #B38D22; stroke-width: 1.0;"/><text fill="#000000" font-family="sans-serif" font-size="11" lengthAdjust="spacingAndGlyphs" textLength="142" x="269" y="741.0508">checkSide(ServoSide): void</text><polygon fill="#FFFF44" points="260,746.3486,264,750.3486,260,754.3486,256,750.3486" style="stroke: #B38D22; stroke-width: 1.0;"/><text fill="#000000" font-family="sans-serif" font-size="11" lengthAdjust="spacingAndGlyphs" textLength="68" x="269" y="754.0059">check(): void</text><ellipse cx="260" cy="764.3037" fill="#84BE84" rx="3" ry="3" style="stroke: #038048; stroke-width: 1.0;"/><text fill="#000000" font-family="sans-serif" font-size="11" lengthAdjust="spacingAndGlyphs" textLength="150" x="269" y="766.9609">configureOrientation(): void</text></a><!--class org.rcdukes.drivecontrol.Car--><a href="Car.html" target="_top" xlink:actuate="onRequest" xlink:show="new" xlink:title="Car.html" xlink:type="simple"><rect fill="#FEFECE" filter="url(#f1rxhro2pwxxc)" height="216.416" id="org.rcdukes.drivecontrol.Car" style="stroke: #A80036; stroke-width: 1.5;" width="226" x="22" y="242"/><ellipse cx="120.75" cy="258" fill="#ADD1B2" rx="11" ry="11" style="stroke: #A80036; stroke-width: 1.0;"/><path d="M123.7231,263.6431 Q123.1421,263.9419 122.5029,264.0913 Q121.8638,264.2407 121.1582,264.2407 Q118.6514,264.2407 117.3315,262.5889 Q116.0117,260.937 116.0117,257.8159 Q116.0117,254.6865 117.3315,253.0347 Q118.6514,251.3828 121.1582,251.3828 Q121.8638,251.3828 122.5112,251.5322 Q123.1587,251.6816 123.7231,251.9805 L123.7231,254.7031 Q123.0923,254.1221 122.4988,253.8523 Q121.9053,253.5825 121.2744,253.5825 Q119.9297,253.5825 119.2449,254.6492 Q118.5601,255.7158 118.5601,257.8159 Q118.5601,259.9077 119.2449,260.9744 Q119.9297,262.041 121.2744,262.041 Q121.9053,262.041 122.4988,261.7712 Q123.0923,261.5015 123.7231,260.9204 Z "/><text fill="#000000" font-family="sans-serif" font-size="12" lengthAdjust="spacingAndGlyphs" textLength="20" x="141.25" y="262.5352">Car</text><line style="stroke: #A80036; stroke-width: 1.5;" x1="23" x2="247" y1="274" y2="274"/><ellipse cx="33" cy="285.9775" fill="none" rx="3" ry="3" style="stroke: #038048; stroke-width: 1.0;"/><text fill="#000000" font-family="sans-serif" font-size="11" lengthAdjust="spacingAndGlyphs" text-decoration="underline" textLength="176" x="42" y="288.6348">servoCommand: ServoCommand</text><line style="stroke: #A80036; stroke-width: 1.5;" x1="23" x2="247" y1="294.9551" y2="294.9551"/><ellipse cx="33" cy="306.9326" fill="#84BE84" rx="3" ry="3" style="stroke: #038048; stroke-width: 1.0;"/><text fill="#000000" font-family="sans-serif" font-size="11" lengthAdjust="spacingAndGlyphs" textLength="200" x="42" y="309.5898">configure(Engine, Steering, Led): void</text><ellipse cx="33" cy="319.8877" fill="#84BE84" rx="3" ry="3" style="stroke: #038048; stroke-width: 1.0;"/><text fill="#000000" font-family="sans-serif" font-size="11" lengthAdjust="spacingAndGlyphs" textLength="101" x="42" y="322.5449">setPowerOn(): void</text><ellipse cx="33" cy="332.8428" fill="#84BE84" rx="3" ry="3" style="stroke: #038048; stroke-width: 1.0;"/><text fill="#000000" font-family="sans-serif" font-size="11" lengthAdjust="spacingAndGlyphs" textLength="102" x="42" y="335.5">setPowerOff(): void</text><ellipse cx="33" cy="345.7979" fill="#84BE84" rx="3" ry="3" style="stroke: #038048; stroke-width: 1.0;"/><text fill="#000000" font-family="sans-serif" font-size="11" lengthAdjust="spacingAndGlyphs" textLength="115" x="42" y="348.4551">powerIsOn(): boolean</text><ellipse cx="33" cy="358.7529" fill="#84BE84" rx="3" ry="3" style="stroke: #038048; stroke-width: 1.0;"/><text fill="#000000" font-family="sans-serif" font-size="11" lengthAdjust="spacingAndGlyphs" textLength="61" x="42" y="361.4102">stop(): void</text><ellipse cx="33" cy="371.708" fill="#84BE84" rx="3" ry="3" style="stroke: #038048; stroke-width: 1.0;"/><text fill="#000000" font-family="sans-serif" font-size="11" lengthAdjust="spacingAndGlyphs" textLength="133" x="42" y="374.3652">turn(ServoPosition): void</text><ellipse cx="33" cy="384.6631" fill="#84BE84" rx="3" ry="3" style="stroke: #038048; stroke-width: 1.0;"/><text fill="#000000" font-family="sans-serif" font-size="11" lengthAdjust="spacingAndGlyphs" textLength="137" x="42" y="387.3203">drive(ServoPosition): void</text><ellipse cx="33" cy="397.6182" fill="#84BE84" rx="3" ry="3" style="stroke: #038048; stroke-width: 1.0;"/><text fill="#000000" font-family="sans-serif" font-size="11" lengthAdjust="spacingAndGlyphs" textLength="103" x="42" y="400.2754">getEngine(): Engine</text><ellipse cx="33" cy="410.5732" fill="#84BE84" rx="3" ry="3" style="stroke: #038048; stroke-width: 1.0;"/><text fill="#000000" font-family="sans-serif" font-size="11" lengthAdjust="spacingAndGlyphs" textLength="119" x="42" y="413.2305">getSteering(): Steering</text><ellipse cx="33" cy="423.5283" fill="#84BE84" rx="3" ry="3" style="stroke: #038048; stroke-width: 1.0;"/><text fill="#000000" font-family="sans-serif" font-size="11" lengthAdjust="spacingAndGlyphs" textLength="69" x="42" y="426.1855">getLed(): Led</text><ellipse cx="33" cy="436.4834" fill="#84BE84" rx="3" ry="3" style="stroke: #038048; stroke-width: 1.0;"/><text fill="#000000" font-family="sans-serif" font-size="11" lengthAdjust="spacingAndGlyphs" text-decoration="underline" textLength="95" x="42" y="439.1406">getInstance(): Car</text><ellipse cx="33" cy="449.4385" fill="#84BE84" rx="3" ry="3" style="stroke: #038048; stroke-width: 1.0;"/><text fill="#000000" font-family="sans-serif" font-size="11" lengthAdjust="spacingAndGlyphs" text-decoration="underline" textLength="109" x="42" y="452.0957">resetInstance(): void</text></a><!--class org.rcdukes.car.ServoMap--><rect fill="#FEFECE" filter="url(#f1rxhro2pwxxc)" height="138.6855" id="org.rcdukes.car.ServoMap" style="stroke: #A80036; stroke-width: 1.5;" width="258" x="257" y="43"/><ellipse cx="353.75" cy="59" fill="#B4A7E5" rx="11" ry="11" style="stroke: #A80036; stroke-width: 1.0;"/><path d="M349.6777,54.7651 L349.6777,52.6069 L357.0571,52.6069 L357.0571,54.7651 L354.5918,54.7651 L354.5918,62.8418 L357.0571,62.8418 L357.0571,65 L349.6777,65 L349.6777,62.8418 L352.1431,62.8418 L352.1431,54.7651 Z "/><text fill="#000000" font-family="sans-serif" font-size="12" font-style="italic" lengthAdjust="spacingAndGlyphs" textLength="56" x="374.25" y="63.5352">ServoMap</text><line style="stroke: #A80036; stroke-width: 1.5;" x1="258" x2="514" y1="75" y2="75"/><line style="stroke: #A80036; stroke-width: 1.5;" x1="258" x2="514" y1="83" y2="83"/><ellipse cx="268" cy="94.9775" fill="#84BE84" rx="3" ry="3" style="stroke: #038048; stroke-width: 1.0;"/><text fill="#000000" font-family="sans-serif" font-size="11" font-style="italic" lengthAdjust="spacingAndGlyphs" textLength="68" x="277" y="97.6348">gpioPin(): int</text><ellipse cx="268" cy="107.9326" fill="#84BE84" rx="3" ry="3" style="stroke: #038048; stroke-width: 1.0;"/><text fill="#000000" font-family="sans-serif" font-size="11" font-style="italic" lengthAdjust="spacingAndGlyphs" textLength="184" x="277" y="110.5898">servoCommand(): ServoCommand</text><ellipse cx="268" cy="120.8877" fill="#84BE84" rx="3" ry="3" style="stroke: #038048; stroke-width: 1.0;"/><text fill="#000000" font-family="sans-serif" font-size="11" font-style="italic" lengthAdjust="spacingAndGlyphs" textLength="154" x="277" y="123.5449">turnedOrientation(): boolean</text><ellipse cx="268" cy="133.8428" fill="#84BE84" rx="3" ry="3" style="stroke: #038048; stroke-width: 1.0;"/><text fill="#000000" font-family="sans-serif" font-size="11" font-style="italic" lengthAdjust="spacingAndGlyphs" textLength="189" x="277" y="136.5">getCurrentPosition(): ServoPosition</text><ellipse cx="268" cy="146.7979" fill="#84BE84" rx="3" ry="3" style="stroke: #038048; stroke-width: 1.0;"/><text fill="#000000" font-family="sans-serif" font-size="11" font-style="italic" lengthAdjust="spacingAndGlyphs" textLength="224" x="277" y="149.4551">newPosition(ServoPosition): ServoPosition</text><ellipse cx="268" cy="159.7529" fill="#84BE84" rx="3" ry="3" style="stroke: #038048; stroke-width: 1.0;"/><text fill="#000000" font-family="sans-serif" font-size="11" font-style="italic" lengthAdjust="spacingAndGlyphs" textLength="232" x="277" y="162.4102">configure(int, ServoCommand, String): void</text><ellipse cx="268" cy="172.708" fill="#84BE84" rx="3" ry="3" style="stroke: #038048; stroke-width: 1.0;"/><text fill="#000000" font-family="sans-serif" font-size="11" font-style="italic" lengthAdjust="spacingAndGlyphs" textLength="150" x="277" y="175.3652">configureOrientation(): void</text><!--class org.rcdukes.car.LedMap--><rect fill="#FEFECE" filter="url(#f1rxhro2pwxxc)" height="73.9102" id="org.rcdukes.car.LedMap" style="stroke: #A80036; stroke-width: 1.5;" width="87" x="550.5" y="75.5"/><ellipse cx="569.55" cy="91.5" fill="#B4A7E5" rx="11" ry="11" style="stroke: #A80036; stroke-width: 1.0;"/><path d="M565.4777,87.2651 L565.4777,85.1069 L572.8571,85.1069 L572.8571,87.2651 L570.3918,87.2651 L570.3918,95.3418 L572.8571,95.3418 L572.8571,97.5 L565.4777,97.5 L565.4777,95.3418 L567.9431,95.3418 L567.9431,87.2651 Z "/><text fill="#000000" font-family="sans-serif" font-size="12" font-style="italic" lengthAdjust="spacingAndGlyphs" textLength="46" x="584.45" y="96.0352">LedMap</text><line style="stroke: #A80036; stroke-width: 1.5;" x1="551.5" x2="636.5" y1="107.5" y2="107.5"/><line style="stroke: #A80036; stroke-width: 1.5;" x1="551.5" x2="636.5" y1="115.5" y2="115.5"/><ellipse cx="561.5" cy="127.4775" fill="#84BE84" rx="3" ry="3" style="stroke: #038048; stroke-width: 1.0;"/><text fill="#000000" font-family="sans-serif" font-size="11" font-style="italic" lengthAdjust="spacingAndGlyphs" textLength="61" x="570.5" y="130.1348">ledOff(): int</text><ellipse cx="561.5" cy="140.4326" fill="#84BE84" rx="3" ry="3" style="stroke: #038048; stroke-width: 1.0;"/><text fill="#000000" font-family="sans-serif" font-size="11" font-style="italic" lengthAdjust="spacingAndGlyphs" textLength="60" x="570.5" y="143.0898">ledOn(): int</text><!--class org.rcdukes.car.ServoRangeMap--><rect fill="#FEFECE" filter="url(#f1rxhro2pwxxc)" height="112.7754" id="org.rcdukes.car.ServoRangeMap" style="stroke: #A80036; stroke-width: 1.5;" width="200" x="673" y="56"/><ellipse cx="722.75" cy="72" fill="#B4A7E5" rx="11" ry="11" style="stroke: #A80036; stroke-width: 1.0;"/><path d="M718.6777,67.7651 L718.6777,65.6069 L726.0571,65.6069 L726.0571,67.7651 L723.5918,67.7651 L723.5918,75.8418 L726.0571,75.8418 L726.0571,78 L718.6777,78 L718.6777,75.8418 L721.1431,75.8418 L721.1431,67.7651 Z "/><text fill="#000000" font-family="sans-serif" font-size="12" font-style="italic" lengthAdjust="spacingAndGlyphs" textLength="92" x="743.25" y="76.5352">ServoRangeMap</text><line style="stroke: #A80036; stroke-width: 1.5;" x1="674" x2="872" y1="88" y2="88"/><line style="stroke: #A80036; stroke-width: 1.5;" x1="674" x2="872" y1="96" y2="96"/><ellipse cx="684" cy="107.9775" fill="#84BE84" rx="3" ry="3" style="stroke: #038048; stroke-width: 1.0;"/><text fill="#000000" font-family="sans-serif" font-size="11" font-style="italic" lengthAdjust="spacingAndGlyphs" textLength="127" x="693" y="110.6348">getRange(): ServoRange</text><ellipse cx="684" cy="120.9326" fill="#84BE84" rx="3" ry="3" style="stroke: #038048; stroke-width: 1.0;"/><text fill="#000000" font-family="sans-serif" font-size="11" font-style="italic" lengthAdjust="spacingAndGlyphs" textLength="174" x="693" y="123.5898">atPercent(double): ServoPosition</text><ellipse cx="684" cy="133.8877" fill="#84BE84" rx="3" ry="3" style="stroke: #038048; stroke-width: 1.0;"/><text fill="#000000" font-family="sans-serif" font-size="11" font-style="italic" lengthAdjust="spacingAndGlyphs" textLength="163" x="693" y="136.5449">atValue(double): ServoPosition</text><ellipse cx="684" cy="146.8428" fill="#84BE84" rx="3" ry="3" style="stroke: #038048; stroke-width: 1.0;"/><text fill="#000000" font-family="sans-serif" font-size="11" font-style="italic" lengthAdjust="spacingAndGlyphs" textLength="74" x="693" y="149.5">step(int): void</text><ellipse cx="684" cy="159.7979" fill="#84BE84" rx="3" ry="3" style="stroke: #038048; stroke-width: 1.0;"/><text fill="#000000" font-family="sans-serif" font-size="11" font-style="italic" lengthAdjust="spacingAndGlyphs" textLength="78" x="693" y="162.4551">setZero(): void</text><!--link org.rcdukes.car.ServoMap to org.rcdukes.drivecontrol.ServoMap--><path d="M395.8064,202.0773 C397.6753,219.1497 399.6382,237.0797 401.527,254.3334 " fill="none" id="org.rcdukes.car.ServoMap-org.rcdukes.drivecontrol.ServoMap" style="stroke: #A80036; stroke-width: 1.0; stroke-dasharray: 7.0,7.0;"/><polygon fill="none" points="388.8433,202.7961,393.6252,182.1531,402.7602,201.2725,388.8433,202.7961" style="stroke: #A80036; stroke-width: 1.0;"/><!--link org.rcdukes.drivecontrol.ServoRangeMap to org.rcdukes.drivecontrol.SteeringMap--><path d="M271.606,788.5846 C257.4692,804.9772 244.3187,820.2262 233.6218,832.6301 " fill="none" id="org.rcdukes.drivecontrol.ServoRangeMap-org.rcdukes.drivecontrol.SteeringMap" style="stroke: #A80036; stroke-width: 1.0;"/><polygon fill="none" points="266.4612,783.8317,284.8239,773.2574,277.0633,792.9748,266.4612,783.8317" style="stroke: #A80036; stroke-width: 1.0;"/><!--link org.rcdukes.drivecontrol.ServoRangeMap to org.rcdukes.drivecontrol.EngineMap--><path d="M414.0175,793.5652 C415.8792,808.0596 417.6045,821.4919 419.0351,832.6301 " fill="none" id="org.rcdukes.drivecontrol.ServoRangeMap-org.rcdukes.drivecontrol.EngineMap" style="stroke: #A80036; stroke-width: 1.0;"/><polygon fill="none" points="407.0142,793.9863,411.4092,773.2574,420.9001,792.2027,407.0142,793.9863" style="stroke: #A80036; stroke-width: 1.0;"/><!--link org.rcdukes.drivecontrol.ServoMap to org.rcdukes.drivecontrol.LedMap--><path d="M289.1746,459.8282 C269.2871,478.7884 249.2489,498.6367 231,518 C207.8911,542.5201 183.8754,571.3916 164.6537,595.4543 " fill="none" id="org.rcdukes.drivecontrol.ServoMap-org.rcdukes.drivecontrol.LedMap" style="stroke: #A80036; stroke-width: 1.0;"/><polygon fill="none" points="284.6133,454.5076,303.9596,445.8634,294.2265,464.6854,284.6133,454.5076" style="stroke: #A80036; stroke-width: 1.0;"/><!--link org.rcdukes.car.LedMap to org.rcdukes.drivecontrol.LedMap--><path d="M596.0107,169.9533 C597.7844,257.2213 595.6078,417.3526 558,458 C457.6522,566.4583 358.3631,443.0898 231,518 C199.4857,536.5355 173.3173,568.2344 154.9869,595.3869 " fill="none" id="org.rcdukes.car.LedMap-org.rcdukes.drivecontrol.LedMap" style="stroke: #A80036; stroke-width: 1.0; stroke-dasharray: 7.0,7.0;"/><polygon fill="none" points="589.0067,169.8768,595.5015,149.7071,603.0023,169.5247,589.0067,169.8768" style="stroke: #A80036; stroke-width: 1.0;"/><!--link org.rcdukes.drivecontrol.ServoMap to org.rcdukes.drivecontrol.ServoRangeMap--><path d="M405.3433,465.7089 C404.3565,482.8625 403.3348,500.6215 402.335,517.9996 " fill="none" id="org.rcdukes.drivecontrol.ServoMap-org.rcdukes.drivecontrol.ServoRangeMap" style="stroke: #A80036; stroke-width: 1.0;"/><polygon fill="none" points="398.3668,465.0972,406.5041,445.5323,412.3437,465.9014,398.3668,465.0972" style="stroke: #A80036; stroke-width: 1.0;"/><!--link org.rcdukes.car.ServoRangeMap to org.rcdukes.drivecontrol.ServoRangeMap--><path d="M750.6723,188.2784 C726.4693,262.0538 682.712,374.899 620,458 C597.6405,487.629 569.7373,515.6066 541.2701,540.4653 " fill="none" id="org.rcdukes.car.ServoRangeMap-org.rcdukes.drivecontrol.ServoRangeMap" style="stroke: #A80036; stroke-width: 1.0; stroke-dasharray: 7.0,7.0;"/><polygon fill="none" points="744.0714,185.9382,756.8358,169.0245,757.4049,190.2065,744.0714,185.9382" style="stroke: #A80036; stroke-width: 1.0;"/><text fill="#888888" font-family="sans-serif" font-size="10" lengthAdjust="spacingAndGlyphs" textLength="182" x="362.5" y="929.668">UMLDoclet 1.1.4, PlantUML 1.2019.05</text><!--
@startuml

    namespace org.rcdukes.drivecontrol {

        abstract class ServoMap [[ServoMap.html]] {
            {static} #LOG: Logger
            #servoCommand: ServoCommand
            #gpioPin: int
            #turnedOrientation: boolean
            +getCurrentPosition(): ServoPosition
            +setCurrentPosition(ServoPosition): void
            +newPosition(ServoPosition): ServoPosition
            +gpioPin(): int
            +servoCommand(): ServoCommand
            +configure(int, ServoCommand, String): void
            +turnedOrientation(): boolean
        }

        class SteeringMap [[SteeringMap.html]] {
            +SteeringMap(ServoCommand)
        }

        class EngineMap [[EngineMap.html]] {
            +EngineMap(ServoCommand)
        }

        class LedMap [[LedMap.html]] {
            +LedMap(ServoCommand)
            +ledOff(): int
            +ledOn(): int
            +configureOrientation(): void
        }

        abstract class ServoRangeMap [[ServoRangeMap.html]] {
            +getRange(): ServoRange
            +setRange(ServoRange): void
            +getUnit(): String
            +setUnit(String): void
            +getName(): String
            +setName(String): void
            +atPercent(double): ServoPosition
            +atValue(double): ServoPosition
            +step(int): void
            +newPosition(ServoPosition): ServoPosition
            +setZero(): void
            +positionInfo(): String
            #assertGreater(double, double, String, String): void
            #checkSide(ServoSide): void
            #check(): void
            +configureOrientation(): void
        }

        class Car [[Car.html]] {
            {static} +servoCommand: ServoCommand
            +configure(Engine, Steering, Led): void
            +setPowerOn(): void
            +setPowerOff(): void
            +powerIsOn(): boolean
            +stop(): void
            +turn(ServoPosition): void
            +drive(ServoPosition): void
            +getEngine(): Engine
            +getSteering(): Steering
            +getLed(): Led
            {static} +getInstance(): Car
            {static} +resetInstance(): void
        }

        interface org.rcdukes.car.ServoMap {
            {abstract} +gpioPin(): int
            {abstract} +servoCommand(): ServoCommand
            {abstract} +turnedOrientation(): boolean
            {abstract} +getCurrentPosition(): ServoPosition
            {abstract} +newPosition(ServoPosition): ServoPosition
            {abstract} +configure(int, ServoCommand, String): void
            {abstract} +configureOrientation(): void
        }
        org.rcdukes.car.ServoMap <|.. ServoMap

        ServoRangeMap <|- - SteeringMap

        ServoRangeMap <|- - EngineMap

        ServoMap <|- - LedMap

        interface org.rcdukes.car.LedMap {
            {abstract} +ledOff(): int
            {abstract} +ledOn(): int
        }
        org.rcdukes.car.LedMap <|.. LedMap

        ServoMap <|- - ServoRangeMap

        interface org.rcdukes.car.ServoRangeMap {
            {abstract} +getRange(): ServoRange
            {abstract} +atPercent(double): ServoPosition
            {abstract} +atValue(double): ServoPosition
            {abstract} +step(int): void
            {abstract} +setZero(): void
        }
        org.rcdukes.car.ServoRangeMap <|.. ServoRangeMap

    }


    center footer UMLDoclet 1.1.4, PlantUML 1.2019.05
@enduml

PlantUML version 1.2019.05(Sat Apr 20 18:45:36 CEST 2019)
(APACHE source distribution)
Java Runtime: Java(TM) SE Runtime Environment
JVM: Java HotSpot(TM) 64-Bit Server VM
Java Version: 1.8.0_152-b16
Operating System: Mac OS X
OS Version: 10.13.6
Default Encoding: UTF-8
Language: de
Country: DE
--></g></svg>