<?xml version="1.0" encoding="UTF-8" standalone="no"?><svg xmlns="http://www.w3.org/2000/svg" xmlns:xlink="http://www.w3.org/1999/xlink" contentScriptType="application/ecmascript" contentStyleType="text/css" height="864px" preserveAspectRatio="none" style="width:538px;height:864px;" version="1.1" viewBox="0 0 538 864" width="538px" zoomAndPan="magnify"><defs><filter height="300%" id="f1kfyad5dk7c9x" width="300%" x="-1" y="-1"><feGaussianBlur result="blurOut" stdDeviation="2.0"/><feColorMatrix in="blurOut" result="blurOut2" type="matrix" values="0 0 0 0 0 0 0 0 0 0 0 0 0 0 0 0 0 0 .4 0"/><feOffset dx="4.0" dy="4.0" in="blurOut2" result="blurOut3"/><feBlend in="SourceGraphic" in2="blurOut3" mode="normal"/></filter></defs><g><!--cluster nl.vaneijndhoven.dukes.car--><polygon fill="#FFFFFF" filter="url(#f1kfyad5dk7c9x)" points="14,130,211,130,218,152.4883,498,152.4883,498,823,14,823,14,130" style="stroke: #000000; stroke-width: 1.5;"/><line style="stroke: #000000; stroke-width: 1.5;" x1="14" x2="218" y1="152.4883" y2="152.4883"/><text fill="#000000" font-family="sans-serif" font-size="14" font-weight="bold" lengthAdjust="spacingAndGlyphs" textLength="191" x="18" y="145.5352">nl.vaneijndhoven.dukes.car</text><!--cluster io.vertx.rxjava.core--><polygon fill="#FFFFFF" filter="url(#f1kfyad5dk7c9x)" points="368,16,506,16,513,38.4883,516,38.4883,516,99,368,99,368,16" style="stroke: #000000; stroke-width: 1.5;"/><line style="stroke: #000000; stroke-width: 1.5;" x1="368" x2="513" y1="38.4883" y2="38.4883"/><text fill="#000000" font-family="sans-serif" font-size="14" font-weight="bold" lengthAdjust="spacingAndGlyphs" textLength="132" x="372" y="31.5352">io.vertx.rxjava.core</text><!--class nl.vaneijndhoven.dukes.car.CarVerticle--><a href="CarVerticle.html" target="_top" xlink:actuate="onRequest" xlink:show="new" xlink:title="CarVerticle.html" xlink:type="simple"><rect fill="#FEFECE" filter="url(#f1kfyad5dk7c9x)" height="60.9551" id="nl.vaneijndhoven.dukes.car.CarVerticle" style="stroke: #A80036; stroke-width: 1.5;" width="95" x="394.5" y="189.5"/><ellipse cx="409.5" cy="205.5" fill="#ADD1B2" rx="11" ry="11" style="stroke: #A80036; stroke-width: 1.0;"/><path d="M412.4731,211.1431 Q411.8921,211.4419 411.2529,211.5913 Q410.6138,211.7407 409.9082,211.7407 Q407.4014,211.7407 406.0815,210.0889 Q404.7617,208.437 404.7617,205.3159 Q404.7617,202.1865 406.0815,200.5347 Q407.4014,198.8828 409.9082,198.8828 Q410.6138,198.8828 411.2612,199.0322 Q411.9087,199.1816 412.4731,199.4805 L412.4731,202.2031 Q411.8423,201.6221 411.2488,201.3523 Q410.6553,201.0825 410.0244,201.0825 Q408.6797,201.0825 407.9949,202.1492 Q407.3101,203.2158 407.3101,205.3159 Q407.3101,207.4077 407.9949,208.4744 Q408.6797,209.541 410.0244,209.541 Q410.6553,209.541 411.2488,209.2712 Q411.8423,209.0015 412.4731,208.4204 Z "/><text fill="#000000" font-family="sans-serif" font-size="12" lengthAdjust="spacingAndGlyphs" textLength="63" x="423.5" y="210.0352">CarVerticle</text><line style="stroke: #A80036; stroke-width: 1.5;" x1="395.5" x2="488.5" y1="221.5" y2="221.5"/><line style="stroke: #A80036; stroke-width: 1.5;" x1="395.5" x2="488.5" y1="229.5" y2="229.5"/><ellipse cx="405.5" cy="241.4775" fill="#84BE84" rx="3" ry="3" style="stroke: #038048; stroke-width: 1.0;"/><text fill="#000000" font-family="sans-serif" font-size="11" lengthAdjust="spacingAndGlyphs" textLength="62" x="414.5" y="244.1348">start(): void</text></a><!--class nl.vaneijndhoven.dukes.car.SteeringMap--><a href="SteeringMap.html" target="_top" xlink:actuate="onRequest" xlink:show="new" xlink:title="SteeringMap.html" xlink:type="simple"><rect fill="#FEFECE" filter="url(#f1kfyad5dk7c9x)" height="99.8203" id="nl.vaneijndhoven.dukes.car.SteeringMap" style="stroke: #A80036; stroke-width: 1.5;" width="105" x="53.5" y="702"/><ellipse cx="69.4" cy="718" fill="#B4A7E5" rx="11" ry="11" style="stroke: #A80036; stroke-width: 1.0;"/><path d="M65.3277,713.7651 L65.3277,711.6069 L72.7071,711.6069 L72.7071,713.7651 L70.2418,713.7651 L70.2418,721.8418 L72.7071,721.8418 L72.7071,724 L65.3277,724 L65.3277,721.8418 L67.7931,721.8418 L67.7931,713.7651 Z "/><text fill="#000000" font-family="sans-serif" font-size="12" font-style="italic" lengthAdjust="spacingAndGlyphs" textLength="71" x="83.6" y="722.5352">SteeringMap</text><line style="stroke: #A80036; stroke-width: 1.5;" x1="54.5" x2="157.5" y1="734" y2="734"/><line style="stroke: #A80036; stroke-width: 1.5;" x1="54.5" x2="157.5" y1="742" y2="742"/><ellipse cx="64.5" cy="753.9775" fill="#84BE84" rx="3" ry="3" style="stroke: #038048; stroke-width: 1.0;"/><text fill="#000000" font-family="sans-serif" font-size="11" font-style="italic" lengthAdjust="spacingAndGlyphs" textLength="62" x="73.5" y="756.6348">center(): int</text><ellipse cx="64.5" cy="766.9326" fill="#84BE84" rx="3" ry="3" style="stroke: #038048; stroke-width: 1.0;"/><text fill="#000000" font-family="sans-serif" font-size="11" font-style="italic" lengthAdjust="spacingAndGlyphs" textLength="72" x="73.5" y="769.5898">stepSize(): int</text><ellipse cx="64.5" cy="779.8877" fill="#84BE84" rx="3" ry="3" style="stroke: #038048; stroke-width: 1.0;"/><text fill="#000000" font-family="sans-serif" font-size="11" font-style="italic" lengthAdjust="spacingAndGlyphs" textLength="71" x="73.5" y="782.5449">maxLeft(): int</text><ellipse cx="64.5" cy="792.8428" fill="#84BE84" rx="3" ry="3" style="stroke: #038048; stroke-width: 1.0;"/><text fill="#000000" font-family="sans-serif" font-size="11" font-style="italic" lengthAdjust="spacingAndGlyphs" textLength="79" x="73.5" y="795.5">maxRight(): int</text></a><!--class nl.vaneijndhoven.dukes.car.Steering--><a href="Steering.html" target="_top" xlink:actuate="onRequest" xlink:show="new" xlink:title="Steering.html" xlink:type="simple"><rect fill="#FEFECE" filter="url(#f1kfyad5dk7c9x)" height="99.8203" id="nl.vaneijndhoven.dukes.car.Steering" style="stroke: #A80036; stroke-width: 1.5;" width="167" x="22.5" y="428.5"/><ellipse cx="78.75" cy="444.5" fill="#ADD1B2" rx="11" ry="11" style="stroke: #A80036; stroke-width: 1.0;"/><path d="M81.7231,450.1431 Q81.1421,450.4419 80.5029,450.5913 Q79.8638,450.7407 79.1582,450.7407 Q76.6514,450.7407 75.3315,449.0889 Q74.0117,447.437 74.0117,444.3159 Q74.0117,441.1865 75.3315,439.5347 Q76.6514,437.8828 79.1582,437.8828 Q79.8638,437.8828 80.5112,438.0322 Q81.1587,438.1816 81.7231,438.4805 L81.7231,441.2031 Q81.0923,440.6221 80.4988,440.3523 Q79.9053,440.0825 79.2744,440.0825 Q77.9297,440.0825 77.2449,441.1492 Q76.5601,442.2158 76.5601,444.3159 Q76.5601,446.4077 77.2449,447.4744 Q77.9297,448.541 79.2744,448.541 Q79.9053,448.541 80.4988,448.2712 Q81.0923,448.0015 81.7231,447.4204 Z "/><text fill="#000000" font-family="sans-serif" font-size="12" lengthAdjust="spacingAndGlyphs" textLength="46" x="99.25" y="449.0352">Steering</text><line style="stroke: #A80036; stroke-width: 1.5;" x1="23.5" x2="188.5" y1="460.5" y2="460.5"/><line style="stroke: #A80036; stroke-width: 1.5;" x1="23.5" x2="188.5" y1="468.5" y2="468.5"/><ellipse cx="33.5" cy="480.4775" fill="#84BE84" rx="3" ry="3" style="stroke: #038048; stroke-width: 1.0;"/><text fill="#000000" font-family="sans-serif" font-size="11" lengthAdjust="spacingAndGlyphs" textLength="118" x="42.5" y="483.1348">Steering(SteeringMap)</text><ellipse cx="33.5" cy="493.4326" fill="#84BE84" rx="3" ry="3" style="stroke: #038048; stroke-width: 1.0;"/><text fill="#000000" font-family="sans-serif" font-size="11" lengthAdjust="spacingAndGlyphs" textLength="71" x="42.5" y="496.0898">center(): void</text><ellipse cx="33.5" cy="506.3877" fill="#84BE84" rx="3" ry="3" style="stroke: #038048; stroke-width: 1.0;"/><text fill="#000000" font-family="sans-serif" font-size="11" lengthAdjust="spacingAndGlyphs" textLength="101" x="42.5" y="509.0449">forceCenter(): void</text><ellipse cx="33.5" cy="519.3428" fill="#84BE84" rx="3" ry="3" style="stroke: #038048; stroke-width: 1.0;"/><text fill="#000000" font-family="sans-serif" font-size="11" lengthAdjust="spacingAndGlyphs" text-decoration="underline" textLength="141" x="42.5" y="522">setWheelPosition(int): void</text></a><!--class nl.vaneijndhoven.dukes.car.EngineMap--><a href="EngineMap.html" target="_top" xlink:actuate="onRequest" xlink:show="new" xlink:title="EngineMap.html" xlink:type="simple"><rect fill="#FEFECE" filter="url(#f1kfyad5dk7c9x)" height="125.7305" id="nl.vaneijndhoven.dukes.car.EngineMap" style="stroke: #A80036; stroke-width: 1.5;" width="121" x="236.5" y="689"/><ellipse cx="263.2" cy="705" fill="#B4A7E5" rx="11" ry="11" style="stroke: #A80036; stroke-width: 1.0;"/><path d="M259.1277,700.7651 L259.1277,698.6069 L266.5071,698.6069 L266.5071,700.7651 L264.0418,700.7651 L264.0418,708.8418 L266.5071,708.8418 L266.5071,711 L259.1277,711 L259.1277,708.8418 L261.5931,708.8418 L261.5931,700.7651 Z "/><text fill="#000000" font-family="sans-serif" font-size="12" font-style="italic" lengthAdjust="spacingAndGlyphs" textLength="63" x="279.8" y="709.5352">EngineMap</text><line style="stroke: #A80036; stroke-width: 1.5;" x1="237.5" x2="356.5" y1="721" y2="721"/><line style="stroke: #A80036; stroke-width: 1.5;" x1="237.5" x2="356.5" y1="729" y2="729"/><ellipse cx="247.5" cy="740.9775" fill="#84BE84" rx="3" ry="3" style="stroke: #038048; stroke-width: 1.0;"/><text fill="#000000" font-family="sans-serif" font-size="11" font-style="italic" lengthAdjust="spacingAndGlyphs" textLength="66" x="256.5" y="743.6348">neutral(): int</text><ellipse cx="247.5" cy="753.9326" fill="#84BE84" rx="3" ry="3" style="stroke: #038048; stroke-width: 1.0;"/><text fill="#000000" font-family="sans-serif" font-size="11" font-style="italic" lengthAdjust="spacingAndGlyphs" textLength="72" x="256.5" y="756.5898">stepSize(): int</text><ellipse cx="247.5" cy="766.8877" fill="#84BE84" rx="3" ry="3" style="stroke: #038048; stroke-width: 1.0;"/><text fill="#000000" font-family="sans-serif" font-size="11" font-style="italic" lengthAdjust="spacingAndGlyphs" textLength="90" x="256.5" y="769.5449">minReverse(): int</text><ellipse cx="247.5" cy="779.8428" fill="#84BE84" rx="3" ry="3" style="stroke: #038048; stroke-width: 1.0;"/><text fill="#000000" font-family="sans-serif" font-size="11" font-style="italic" lengthAdjust="spacingAndGlyphs" textLength="93" x="256.5" y="782.5">maxReverse(): int</text><ellipse cx="247.5" cy="792.7979" fill="#84BE84" rx="3" ry="3" style="stroke: #038048; stroke-width: 1.0;"/><text fill="#000000" font-family="sans-serif" font-size="11" font-style="italic" lengthAdjust="spacingAndGlyphs" textLength="92" x="256.5" y="795.4551">minForward(): int</text><ellipse cx="247.5" cy="805.7529" fill="#84BE84" rx="3" ry="3" style="stroke: #038048; stroke-width: 1.0;"/><text fill="#000000" font-family="sans-serif" font-size="11" font-style="italic" lengthAdjust="spacingAndGlyphs" textLength="95" x="256.5" y="808.4102">maxForward(): int</text></a><!--class nl.vaneijndhoven.dukes.car.Engine--><a href="Engine.html" target="_top" xlink:actuate="onRequest" xlink:show="new" xlink:title="Engine.html" xlink:type="simple"><rect fill="#FEFECE" filter="url(#f1kfyad5dk7c9x)" height="112.7754" id="nl.vaneijndhoven.dukes.car.Engine" style="stroke: #A80036; stroke-width: 1.5;" width="144" x="225" y="422"/><ellipse cx="273.75" cy="438" fill="#ADD1B2" rx="11" ry="11" style="stroke: #A80036; stroke-width: 1.0;"/><path d="M276.7231,443.6431 Q276.1421,443.9419 275.5029,444.0913 Q274.8638,444.2407 274.1582,444.2407 Q271.6514,444.2407 270.3315,442.5889 Q269.0117,440.937 269.0117,437.8159 Q269.0117,434.6865 270.3315,433.0347 Q271.6514,431.3828 274.1582,431.3828 Q274.8638,431.3828 275.5112,431.5322 Q276.1587,431.6816 276.7231,431.9805 L276.7231,434.7031 Q276.0923,434.1221 275.4988,433.8523 Q274.9053,433.5825 274.2744,433.5825 Q272.9297,433.5825 272.2449,434.6492 Q271.5601,435.7158 271.5601,437.8159 Q271.5601,439.9077 272.2449,440.9744 Q272.9297,442.041 274.2744,442.041 Q274.9053,442.041 275.4988,441.7712 Q276.0923,441.5015 276.7231,440.9204 Z "/><text fill="#000000" font-family="sans-serif" font-size="12" lengthAdjust="spacingAndGlyphs" textLength="38" x="294.25" y="442.5352">Engine</text><line style="stroke: #A80036; stroke-width: 1.5;" x1="226" x2="368" y1="454" y2="454"/><line style="stroke: #A80036; stroke-width: 1.5;" x1="226" x2="368" y1="462" y2="462"/><ellipse cx="236" cy="473.9775" fill="#84BE84" rx="3" ry="3" style="stroke: #038048; stroke-width: 1.0;"/><text fill="#000000" font-family="sans-serif" font-size="11" lengthAdjust="spacingAndGlyphs" textLength="102" x="245" y="476.6348">Engine(EngineMap)</text><ellipse cx="236" cy="486.9326" fill="#84BE84" rx="3" ry="3" style="stroke: #038048; stroke-width: 1.0;"/><text fill="#000000" font-family="sans-serif" font-size="11" lengthAdjust="spacingAndGlyphs" textLength="75" x="245" y="489.5898">neutral(): void</text><ellipse cx="236" cy="499.8877" fill="#84BE84" rx="3" ry="3" style="stroke: #038048; stroke-width: 1.0;"/><text fill="#000000" font-family="sans-serif" font-size="11" lengthAdjust="spacingAndGlyphs" textLength="114" x="245" y="502.5449">forceInNeutral(): void</text><ellipse cx="236" cy="512.8428" fill="#84BE84" rx="3" ry="3" style="stroke: #038048; stroke-width: 1.0;"/><text fill="#000000" font-family="sans-serif" font-size="11" lengthAdjust="spacingAndGlyphs" textLength="118" x="245" y="515.5">neutral(boolean): void</text><ellipse cx="236" cy="525.7979" fill="#84BE84" rx="3" ry="3" style="stroke: #038048; stroke-width: 1.0;"/><text fill="#000000" font-family="sans-serif" font-size="11" lengthAdjust="spacingAndGlyphs" text-decoration="underline" textLength="99" x="245" y="528.4551">setSpeed(int): void</text></a><!--class nl.vaneijndhoven.dukes.car.Command--><a href="Command.html" target="_top" xlink:actuate="onRequest" xlink:show="new" xlink:title="Command.html" xlink:type="simple"><rect fill="#FEFECE" filter="url(#f1kfyad5dk7c9x)" height="125.7305" id="nl.vaneijndhoven.dukes.car.Command" style="stroke: #A80036; stroke-width: 1.5;" width="163" x="196.5" y="157"/><ellipse cx="244.25" cy="173" fill="#ADD1B2" rx="11" ry="11" style="stroke: #A80036; stroke-width: 1.0;"/><path d="M247.2231,178.6431 Q246.6421,178.9419 246.0029,179.0913 Q245.3638,179.2407 244.6582,179.2407 Q242.1514,179.2407 240.8315,177.5889 Q239.5117,175.937 239.5117,172.8159 Q239.5117,169.6865 240.8315,168.0347 Q242.1514,166.3828 244.6582,166.3828 Q245.3638,166.3828 246.0112,166.5322 Q246.6587,166.6816 247.2231,166.9805 L247.2231,169.7031 Q246.5923,169.1221 245.9988,168.8523 Q245.4053,168.5825 244.7744,168.5825 Q243.4297,168.5825 242.7449,169.6492 Q242.0601,170.7158 242.0601,172.8159 Q242.0601,174.9077 242.7449,175.9744 Q243.4297,177.041 244.7744,177.041 Q245.4053,177.041 245.9988,176.7712 Q246.5923,176.5015 247.2231,175.9204 Z "/><text fill="#000000" font-family="sans-serif" font-size="12" lengthAdjust="spacingAndGlyphs" textLength="59" x="264.75" y="177.5352">Command</text><line style="stroke: #A80036; stroke-width: 1.5;" x1="197.5" x2="358.5" y1="189" y2="189"/><line style="stroke: #A80036; stroke-width: 1.5;" x1="197.5" x2="358.5" y1="197" y2="197"/><ellipse cx="207.5" cy="208.9775" fill="#84BE84" rx="3" ry="3" style="stroke: #038048; stroke-width: 1.0;"/><text fill="#000000" font-family="sans-serif" font-size="11" lengthAdjust="spacingAndGlyphs" text-decoration="underline" textLength="105" x="216.5" y="211.6348">statusLedOn(): void</text><ellipse cx="207.5" cy="221.9326" fill="#84BE84" rx="3" ry="3" style="stroke: #038048; stroke-width: 1.0;"/><text fill="#000000" font-family="sans-serif" font-size="11" lengthAdjust="spacingAndGlyphs" text-decoration="underline" textLength="106" x="216.5" y="224.5898">statusLedOff(): void</text><ellipse cx="207.5" cy="234.8877" fill="#84BE84" rx="3" ry="3" style="stroke: #038048; stroke-width: 1.0;"/><text fill="#000000" font-family="sans-serif" font-size="11" lengthAdjust="spacingAndGlyphs" text-decoration="underline" textLength="101" x="216.5" y="237.5449">setPowerOn(): void</text><ellipse cx="207.5" cy="247.8428" fill="#84BE84" rx="3" ry="3" style="stroke: #038048; stroke-width: 1.0;"/><text fill="#000000" font-family="sans-serif" font-size="11" lengthAdjust="spacingAndGlyphs" text-decoration="underline" textLength="102" x="216.5" y="250.5">setPowerOff(): void</text><ellipse cx="207.5" cy="260.7979" fill="#84BE84" rx="3" ry="3" style="stroke: #038048; stroke-width: 1.0;"/><text fill="#000000" font-family="sans-serif" font-size="11" lengthAdjust="spacingAndGlyphs" text-decoration="underline" textLength="115" x="216.5" y="263.4551">powerIsOn(): boolean</text><ellipse cx="207.5" cy="273.7529" fill="#84BE84" rx="3" ry="3" style="stroke: #038048; stroke-width: 1.0;"/><text fill="#000000" font-family="sans-serif" font-size="11" lengthAdjust="spacingAndGlyphs" text-decoration="underline" textLength="137" x="216.5" y="276.4102">servoBlaster(int, int): void</text></a><!--class nl.vaneijndhoven.dukes.car.Car--><a href="Car.html" target="_top" xlink:actuate="onRequest" xlink:show="new" xlink:title="Car.html" xlink:type="simple"><rect fill="#FEFECE" filter="url(#f1kfyad5dk7c9x)" height="99.8203" id="nl.vaneijndhoven.dukes.car.Car" style="stroke: #A80036; stroke-width: 1.5;" width="139" x="22.5" y="170"/><ellipse cx="77.75" cy="186" fill="#ADD1B2" rx="11" ry="11" style="stroke: #A80036; stroke-width: 1.0;"/><path d="M80.7231,191.6431 Q80.1421,191.9419 79.5029,192.0913 Q78.8638,192.2407 78.1582,192.2407 Q75.6514,192.2407 74.3315,190.5889 Q73.0117,188.937 73.0117,185.8159 Q73.0117,182.6865 74.3315,181.0347 Q75.6514,179.3828 78.1582,179.3828 Q78.8638,179.3828 79.5112,179.5322 Q80.1587,179.6816 80.7231,179.9805 L80.7231,182.7031 Q80.0923,182.1221 79.4988,181.8523 Q78.9053,181.5825 78.2744,181.5825 Q76.9297,181.5825 76.2449,182.6492 Q75.5601,183.7158 75.5601,185.8159 Q75.5601,187.9077 76.2449,188.9744 Q76.9297,190.041 78.2744,190.041 Q78.9053,190.041 79.4988,189.7712 Q80.0923,189.5015 80.7231,188.9204 Z "/><text fill="#000000" font-family="sans-serif" font-size="12" lengthAdjust="spacingAndGlyphs" textLength="20" x="98.25" y="190.5352">Car</text><line style="stroke: #A80036; stroke-width: 1.5;" x1="23.5" x2="160.5" y1="202" y2="202"/><line style="stroke: #A80036; stroke-width: 1.5;" x1="23.5" x2="160.5" y1="210" y2="210"/><ellipse cx="33.5" cy="221.9775" fill="#84BE84" rx="3" ry="3" style="stroke: #038048; stroke-width: 1.0;"/><text fill="#000000" font-family="sans-serif" font-size="11" lengthAdjust="spacingAndGlyphs" textLength="113" x="42.5" y="224.6348">Car(Engine, Steering)</text><ellipse cx="33.5" cy="234.9326" fill="#84BE84" rx="3" ry="3" style="stroke: #038048; stroke-width: 1.0;"/><text fill="#000000" font-family="sans-serif" font-size="11" lengthAdjust="spacingAndGlyphs" textLength="61" x="42.5" y="237.5898">stop(): void</text><ellipse cx="33.5" cy="247.8877" fill="#84BE84" rx="3" ry="3" style="stroke: #038048; stroke-width: 1.0;"/><text fill="#000000" font-family="sans-serif" font-size="11" lengthAdjust="spacingAndGlyphs" textLength="97" x="42.5" y="250.5449">turn(double): void</text><ellipse cx="33.5" cy="260.8428" fill="#84BE84" rx="3" ry="3" style="stroke: #038048; stroke-width: 1.0;"/><text fill="#000000" font-family="sans-serif" font-size="11" lengthAdjust="spacingAndGlyphs" textLength="101" x="42.5" y="263.5">drive(double): void</text></a><!--class io.vertx.rxjava.core.AbstractVerticle--><rect fill="#FEFECE" filter="url(#f1kfyad5dk7c9x)" height="48" id="io.vertx.rxjava.core.AbstractVerticle" style="stroke: #A80036; stroke-width: 1.5;" width="123" x="380.5" y="43"/><ellipse cx="395.5" cy="59" fill="#ADD1B2" rx="11" ry="11" style="stroke: #A80036; stroke-width: 1.0;"/><path d="M398.4731,64.6431 Q397.8921,64.9419 397.2529,65.0913 Q396.6138,65.2407 395.9082,65.2407 Q393.4014,65.2407 392.0815,63.5889 Q390.7617,61.937 390.7617,58.8159 Q390.7617,55.6865 392.0815,54.0347 Q393.4014,52.3828 395.9082,52.3828 Q396.6138,52.3828 397.2612,52.5322 Q397.9087,52.6816 398.4731,52.9805 L398.4731,55.7031 Q397.8423,55.1221 397.2488,54.8523 Q396.6553,54.5825 396.0244,54.5825 Q394.6797,54.5825 393.9949,55.6492 Q393.3101,56.7158 393.3101,58.8159 Q393.3101,60.9077 393.9949,61.9744 Q394.6797,63.041 396.0244,63.041 Q396.6553,63.041 397.2488,62.7712 Q397.8423,62.5015 398.4731,61.9204 Z "/><text fill="#000000" font-family="sans-serif" font-size="12" lengthAdjust="spacingAndGlyphs" textLength="91" x="409.5" y="63.5352">AbstractVerticle</text><line style="stroke: #A80036; stroke-width: 1.5;" x1="381.5" x2="502.5" y1="75" y2="75"/><line style="stroke: #A80036; stroke-width: 1.5;" x1="381.5" x2="502.5" y1="83" y2="83"/><!--link io.vertx.rxjava.core.AbstractVerticle to nl.vaneijndhoven.dukes.car.CarVerticle--><path d="M442,111.4126 C442,136.3915 442,166.9448 442,189.2718 " fill="none" id="io.vertx.rxjava.core.AbstractVerticle-nl.vaneijndhoven.dukes.car.CarVerticle" style="stroke: #A80036; stroke-width: 1.0;"/><polygon fill="none" points="435.0001,111.2433,442,91.2433,449.0001,111.2433,435.0001,111.2433" style="stroke: #A80036; stroke-width: 1.0;"/><!--link nl.vaneijndhoven.dukes.car.Steering to nl.vaneijndhoven.dukes.car.SteeringMap--><path d="M106,528.6641 C106,576.1286 106,647.2347 106,696.4061 " fill="none" id="nl.vaneijndhoven.dukes.car.Steering-nl.vaneijndhoven.dukes.car.SteeringMap" style="stroke: #A80036; stroke-width: 1.0;"/><polygon fill="#A80036" points="106,701.6915,110,692.6915,106,696.6915,102,692.6915,106,701.6915" style="stroke: #A80036; stroke-width: 1.0;"/><text fill="#000000" font-family="sans-serif" font-size="13" lengthAdjust="spacingAndGlyphs" textLength="77" x="107" y="617.0684">steeringMap</text><!--link nl.vaneijndhoven.dukes.car.Engine to nl.vaneijndhoven.dukes.car.EngineMap--><path d="M297,535.1694 C297,578.2576 297,637.7233 297,683.4834 " fill="none" id="nl.vaneijndhoven.dukes.car.Engine-nl.vaneijndhoven.dukes.car.EngineMap" style="stroke: #A80036; stroke-width: 1.0;"/><polygon fill="#A80036" points="297,688.7114,301,679.7114,297,683.7114,293,679.7114,297,688.7114" style="stroke: #A80036; stroke-width: 1.0;"/><text fill="#000000" font-family="sans-serif" font-size="13" lengthAdjust="spacingAndGlyphs" textLength="55" x="304.5" y="609.5684">mapping</text><text fill="#000000" font-family="sans-serif" font-size="13" lengthAdjust="spacingAndGlyphs" textLength="68" x="298" y="624.8789">engineMap</text><!--link nl.vaneijndhoven.dukes.car.Car to nl.vaneijndhoven.dukes.car.Engine--><path d="M131.7691,270.1479 C165.2244,312.3342 213.1667,372.7883 248.8001,417.7211 " fill="none" id="nl.vaneijndhoven.dukes.car.Car-nl.vaneijndhoven.dukes.car.Engine" style="stroke: #A80036; stroke-width: 1.0;"/><polygon fill="#A80036" points="251.9921,421.7461,249.534,412.2089,248.8853,417.8285,243.2658,417.1798,251.9921,421.7461" style="stroke: #A80036; stroke-width: 1.0;"/><text fill="#000000" font-family="sans-serif" font-size="13" lengthAdjust="spacingAndGlyphs" textLength="42" x="204" y="357.5684">engine</text><!--link nl.vaneijndhoven.dukes.car.Car to nl.vaneijndhoven.dukes.car.Steering--><path d="M94.7159,270.1479 C97.0972,314.1153 100.553,377.9256 103.0119,423.3267 " fill="none" id="nl.vaneijndhoven.dukes.car.Car-nl.vaneijndhoven.dukes.car.Steering" style="stroke: #A80036; stroke-width: 1.0;"/><polygon fill="#A80036" points="103.2916,428.4917,106.799,419.2885,103.0212,423.499,98.8107,419.7212,103.2916,428.4917" style="stroke: #A80036; stroke-width: 1.0;"/><text fill="#000000" font-family="sans-serif" font-size="13" lengthAdjust="spacingAndGlyphs" textLength="51" x="101" y="357.5684">steering</text><text fill="#888888" font-family="sans-serif" font-size="10" lengthAdjust="spacingAndGlyphs" textLength="182" x="180" y="850.668">UMLDoclet 1.1.4, PlantUML 1.2019.05</text><!--
@startuml

    namespace nl.vaneijndhoven.dukes.car {

        class CarVerticle [[CarVerticle.html]] {
            +start(): void
        }

        interface SteeringMap [[SteeringMap.html]] {
            {abstract} +center(): int
            {abstract} +stepSize(): int
            {abstract} +maxLeft(): int
            {abstract} +maxRight(): int
        }

        class Steering [[Steering.html]] {
            +Steering(SteeringMap)
            +center(): void
            +forceCenter(): void
            {static} +setWheelPosition(int): void
        }

        interface EngineMap [[EngineMap.html]] {
            {abstract} +neutral(): int
            {abstract} +stepSize(): int
            {abstract} +minReverse(): int
            {abstract} +maxReverse(): int
            {abstract} +minForward(): int
            {abstract} +maxForward(): int
        }

        class Engine [[Engine.html]] {
            +Engine(EngineMap)
            +neutral(): void
            +forceInNeutral(): void
            +neutral(boolean): void
            {static} +setSpeed(int): void
        }

        class Command [[Command.html]] {
            {static} +statusLedOn(): void
            {static} +statusLedOff(): void
            {static} +setPowerOn(): void
            {static} +setPowerOff(): void
            {static} +powerIsOn(): boolean
            {static} +servoBlaster(int, int): void
        }

        class Car [[Car.html]] {
            +Car(Engine, Steering)
            +stop(): void
            +turn(double): void
            +drive(double): void
        }

        class io.vertx.rxjava.core.AbstractVerticle
        io.vertx.rxjava.core.AbstractVerticle <|- - CarVerticle

        Steering - -> SteeringMap: steeringMap

        Engine - -> EngineMap: mapping\nengineMap

        Car - -> Engine: engine

        Car - -> Steering: steering

    }


    center footer UMLDoclet 1.1.4, PlantUML 1.2019.05
@enduml

PlantUML version 1.2019.05(Sat Apr 20 18:45:36 CEST 2019)
(APACHE source distribution)
Java Runtime: Java(TM) SE Runtime Environment
JVM: Java HotSpot(TM) 64-Bit Server VM
Java Version: 1.8.0_191-b12
Operating System: Mac OS X
OS Version: 10.13.6
Default Encoding: UTF-8
Language: de
Country: DE
--></g></svg>