<?xml version="1.0" encoding="UTF-8" standalone="no"?><svg xmlns="http://www.w3.org/2000/svg" xmlns:xlink="http://www.w3.org/1999/xlink" contentScriptType="application/ecmascript" contentStyleType="text/css" height="179px" preserveAspectRatio="none" style="width:285px;height:179px;" version="1.1" viewBox="0 0 285 179" width="285px" zoomAndPan="magnify"><defs><filter height="300%" id="fptyi6gfwt1hl" width="300%" x="-1" y="-1"><feGaussianBlur result="blurOut" stdDeviation="2.0"/><feColorMatrix in="blurOut" result="blurOut2" type="matrix" values="0 0 0 0 0 0 0 0 0 0 0 0 0 0 0 0 0 0 .4 0"/><feOffset dx="4.0" dy="4.0" in="blurOut2" result="blurOut3"/><feBlend in="SourceGraphic" in2="blurOut3" mode="normal"/></filter></defs><g><!--cluster nl.vaneijndhoven.opencv.denoise--><polygon fill="#FFFFFF" filter="url(#fptyi6gfwt1hl)" points="14,16,253,16,260,38.4883,263,38.4883,263,138,14,138,14,16" style="stroke: #000000; stroke-width: 1.5;"/><line style="stroke: #000000; stroke-width: 1.5;" x1="14" x2="260" y1="38.4883" y2="38.4883"/><text fill="#000000" font-family="sans-serif" font-size="14" font-weight="bold" lengthAdjust="spacingAndGlyphs" textLength="233" x="18" y="31.5352">nl.vaneijndhoven.opencv.denoise</text><!--class nl.vaneijndhoven.opencv.denoise.DenoiseByBlur--><a href="DenoiseByBlur.html" target="_top" xlink:actuate="onRequest" xlink:show="new" xlink:title="DenoiseByBlur.html" xlink:type="simple"><rect fill="#FEFECE" filter="url(#fptyi6gfwt1hl)" height="86.8652" id="nl.vaneijndhoven.opencv.denoise.DenoiseByBlur" style="stroke: #A80036; stroke-width: 1.5;" width="144" x="66" y="43"/><ellipse cx="94.95" cy="59" fill="#ADD1B2" rx="11" ry="11" style="stroke: #A80036; stroke-width: 1.0;"/><path d="M97.9231,64.6431 Q97.3421,64.9419 96.7029,65.0913 Q96.0638,65.2407 95.3582,65.2407 Q92.8514,65.2407 91.5315,63.5889 Q90.2117,61.937 90.2117,58.8159 Q90.2117,55.6865 91.5315,54.0347 Q92.8514,52.3828 95.3582,52.3828 Q96.0638,52.3828 96.7112,52.5322 Q97.3587,52.6816 97.9231,52.9805 L97.9231,55.7031 Q97.2923,55.1221 96.6988,54.8523 Q96.1053,54.5825 95.4744,54.5825 Q94.1297,54.5825 93.4449,55.6492 Q92.7601,56.7158 92.7601,58.8159 Q92.7601,60.9077 93.4449,61.9744 Q94.1297,63.041 95.4744,63.041 Q96.1053,63.041 96.6988,62.7712 Q97.2923,62.5015 97.9231,61.9204 Z "/><text fill="#000000" font-family="sans-serif" font-size="12" lengthAdjust="spacingAndGlyphs" textLength="81" x="112.05" y="63.5352">DenoiseByBlur</text><line style="stroke: #A80036; stroke-width: 1.5;" x1="67" x2="209" y1="75" y2="75"/><line style="stroke: #A80036; stroke-width: 1.5;" x1="67" x2="209" y1="83" y2="83"/><ellipse cx="77" cy="94.9775" fill="#84BE84" rx="3" ry="3" style="stroke: #038048; stroke-width: 1.0;"/><text fill="#000000" font-family="sans-serif" font-size="11" lengthAdjust="spacingAndGlyphs" textLength="84" x="86" y="97.6348">DenoiseByBlur()</text><ellipse cx="77" cy="107.9326" fill="#84BE84" rx="3" ry="3" style="stroke: #038048; stroke-width: 1.0;"/><text fill="#000000" font-family="sans-serif" font-size="11" lengthAdjust="spacingAndGlyphs" textLength="118" x="86" y="110.5898">DenoiseByBlur(int, int)</text><ellipse cx="77" cy="120.8877" fill="#84BE84" rx="3" ry="3" style="stroke: #038048; stroke-width: 1.0;"/><text fill="#000000" font-family="sans-serif" font-size="11" lengthAdjust="spacingAndGlyphs" textLength="94" x="86" y="123.5449">denoise(Mat): Mat</text></a><text fill="#888888" font-family="sans-serif" font-size="10" lengthAdjust="spacingAndGlyphs" textLength="182" x="53.5" y="165.668">UMLDoclet 1.1.4, PlantUML 1.2019.05</text><!--
@startuml

    namespace nl.vaneijndhoven.opencv.denoise {

        class DenoiseByBlur [[DenoiseByBlur.html]] {
            +DenoiseByBlur()
            +DenoiseByBlur(int, int)
            +denoise(Mat): Mat
        }

    }


    center footer UMLDoclet 1.1.4, PlantUML 1.2019.05
@enduml

PlantUML version 1.2019.05(Sat Apr 20 18:45:36 CEST 2019)
(APACHE source distribution)
Java Runtime: Java(TM) SE Runtime Environment
JVM: Java HotSpot(TM) 64-Bit Server VM
Java Version: 1.8.0_152-b16
Operating System: Mac OS X
OS Version: 10.13.6
Default Encoding: UTF-8
Language: de
Country: DE
--></g></svg>