<?xml version="1.0" encoding="UTF-8" standalone="no"?><svg xmlns="http://www.w3.org/2000/svg" xmlns:xlink="http://www.w3.org/1999/xlink" contentScriptType="application/ecmascript" contentStyleType="text/css" height="128px" preserveAspectRatio="none" style="width:199px;height:128px;" version="1.1" viewBox="0 0 199 128" width="199px" zoomAndPan="magnify"><defs><filter height="300%" id="f8n3s2j7ybjfm" width="300%" x="-1" y="-1"><feGaussianBlur result="blurOut" stdDeviation="2.0"/><feColorMatrix in="blurOut" result="blurOut2" type="matrix" values="0 0 0 0 0 0 0 0 0 0 0 0 0 0 0 0 0 0 .4 0"/><feOffset dx="4.0" dy="4.0" in="blurOut2" result="blurOut3"/><feBlend in="SourceGraphic" in2="blurOut3" mode="normal"/></filter></defs><g><!--class TestHandlers--><a href="TestHandlers.html" target="_top" xlink:actuate="onRequest" xlink:show="new" xlink:title="TestHandlers.html" xlink:type="simple"><rect fill="#FEFECE" filter="url(#f8n3s2j7ybjfm)" height="86.8652" id="TestHandlers" style="stroke: #A80036; stroke-width: 1.5;" width="169" x="6" y="8"/><ellipse cx="48" cy="24" fill="#ADD1B2" rx="11" ry="11" style="stroke: #A80036; stroke-width: 1.0;"/><path d="M50.9731,29.6431 Q50.3921,29.9419 49.7529,30.0913 Q49.1138,30.2407 48.4082,30.2407 Q45.9014,30.2407 44.5815,28.5889 Q43.2617,26.937 43.2617,23.8159 Q43.2617,20.6865 44.5815,19.0347 Q45.9014,17.3828 48.4082,17.3828 Q49.1138,17.3828 49.7612,17.5322 Q50.4087,17.6816 50.9731,17.9805 L50.9731,20.7031 Q50.3423,20.1221 49.7488,19.8523 Q49.1553,19.5825 48.5244,19.5825 Q47.1797,19.5825 46.4949,20.6492 Q45.8101,21.7158 45.8101,23.8159 Q45.8101,25.9077 46.4949,26.9744 Q47.1797,28.041 48.5244,28.041 Q49.1553,28.041 49.7488,27.7712 Q50.3423,27.5015 50.9731,26.9204 Z "/><text fill="#000000" font-family="sans-serif" font-size="12" lengthAdjust="spacingAndGlyphs" textLength="77" x="68" y="28.5352">TestHandlers</text><line style="stroke: #A80036; stroke-width: 1.5;" x1="7" x2="174" y1="40" y2="40"/><ellipse cx="17" cy="51.9775" fill="none" rx="3" ry="3" style="stroke: #038048; stroke-width: 1.0;"/><text fill="#000000" font-family="sans-serif" font-size="11" lengthAdjust="spacingAndGlyphs" text-decoration="underline" textLength="83" x="26" y="54.6348">debug: boolean</text><line style="stroke: #A80036; stroke-width: 1.5;" x1="7" x2="174" y1="60.9551" y2="60.9551"/><ellipse cx="17" cy="72.9326" fill="#84BE84" rx="3" ry="3" style="stroke: #038048; stroke-width: 1.0;"/><text fill="#000000" font-family="sans-serif" font-size="11" lengthAdjust="spacingAndGlyphs" textLength="143" x="26" y="75.5898">testSteeringHandler(): void</text><ellipse cx="17" cy="85.8877" fill="#84BE84" rx="3" ry="3" style="stroke: #038048; stroke-width: 1.0;"/><text fill="#000000" font-family="sans-serif" font-size="11" lengthAdjust="spacingAndGlyphs" textLength="138" x="26" y="88.5449">testSteeringAngles(): void</text></a><text fill="#888888" font-family="sans-serif" font-size="10" lengthAdjust="spacingAndGlyphs" textLength="182" x="5.5" y="114.668">UMLDoclet 1.1.4, PlantUML 1.2019.05</text><!--
@startuml

    class TestHandlers [[TestHandlers.html]] {
        {static} +debug: boolean
        +testSteeringHandler(): void
        +testSteeringAngles(): void
    }


    center footer UMLDoclet 1.1.4, PlantUML 1.2019.05
@enduml

PlantUML version 1.2019.05(Sat Apr 20 18:45:36 CEST 2019)
(APACHE source distribution)
Java Runtime: Java(TM) SE Runtime Environment
JVM: Java HotSpot(TM) 64-Bit Server VM
Java Version: 1.8.0_152-b16
Operating System: Mac OS X
OS Version: 10.13.6
Default Encoding: UTF-8
Language: de
Country: DE
--></g></svg>