<?xml version="1.0" encoding="UTF-8" standalone="no"?><svg xmlns="http://www.w3.org/2000/svg" xmlns:xlink="http://www.w3.org/1999/xlink" contentScriptType="application/ecmascript" contentStyleType="text/css" height="538px" preserveAspectRatio="none" style="width:966px;height:538px;" version="1.1" viewBox="0 0 966 538" width="966px" zoomAndPan="magnify"><defs><filter height="300%" id="f12dsksnmno2qd" width="300%" x="-1" y="-1"><feGaussianBlur result="blurOut" stdDeviation="2.0"/><feColorMatrix in="blurOut" result="blurOut2" type="matrix" values="0 0 0 0 0 0 0 0 0 0 0 0 0 0 0 0 0 0 .4 0"/><feOffset dx="4.0" dy="4.0" in="blurOut2" result="blurOut3"/><feBlend in="SourceGraphic" in2="blurOut3" mode="normal"/></filter></defs><g><!--cluster nl.vaneijndhoven.opencv.video--><polygon fill="#FFFFFF" filter="url(#f12dsksnmno2qd)" points="14,137,236,137,243,159.4883,944,159.4883,944,497,14,497,14,137" style="stroke: #000000; stroke-width: 1.5;"/><line style="stroke: #000000; stroke-width: 1.5;" x1="14" x2="243" y1="159.4883" y2="159.4883"/><text fill="#000000" font-family="sans-serif" font-size="14" font-weight="bold" lengthAdjust="spacingAndGlyphs" textLength="216" x="18" y="152.5352">nl.vaneijndhoven.opencv.video</text><!--cluster javafx.application--><polygon fill="#FFFFFF" filter="url(#f12dsksnmno2qd)" points="125,16,257,16,264,38.4883,267,38.4883,267,112,125,112,125,16" style="stroke: #000000; stroke-width: 1.5;"/><line style="stroke: #000000; stroke-width: 1.5;" x1="125" x2="264" y1="38.4883" y2="38.4883"/><text fill="#000000" font-family="sans-serif" font-size="14" font-weight="bold" lengthAdjust="spacingAndGlyphs" textLength="126" x="129" y="31.5352">javafx.application</text><!--class nl.vaneijndhoven.opencv.video.ImageUtils--><a href="ImageUtils.html" target="_top" xlink:actuate="onRequest" xlink:show="new" xlink:title="ImageUtils.html" xlink:type="simple"><rect fill="#FEFECE" filter="url(#f12dsksnmno2qd)" height="73.9102" id="nl.vaneijndhoven.opencv.video.ImageUtils" style="stroke: #A80036; stroke-width: 1.5;" width="166" x="393" y="164"/><ellipse cx="442.25" cy="180" fill="#ADD1B2" rx="11" ry="11" style="stroke: #A80036; stroke-width: 1.0;"/><path d="M445.2231,185.6431 Q444.6421,185.9419 444.0029,186.0913 Q443.3638,186.2407 442.6582,186.2407 Q440.1514,186.2407 438.8315,184.5889 Q437.5117,182.937 437.5117,179.8159 Q437.5117,176.6865 438.8315,175.0347 Q440.1514,173.3828 442.6582,173.3828 Q443.3638,173.3828 444.0112,173.5322 Q444.6587,173.6816 445.2231,173.9805 L445.2231,176.7031 Q444.5923,176.1221 443.9988,175.8523 Q443.4053,175.5825 442.7744,175.5825 Q441.4297,175.5825 440.7449,176.6492 Q440.0601,177.7158 440.0601,179.8159 Q440.0601,181.9077 440.7449,182.9744 Q441.4297,184.041 442.7744,184.041 Q443.4053,184.041 443.9988,183.7712 Q444.5923,183.5015 445.2231,182.9204 Z "/><text fill="#000000" font-family="sans-serif" font-size="12" lengthAdjust="spacingAndGlyphs" textLength="59" x="462.75" y="184.5352">ImageUtils</text><line style="stroke: #A80036; stroke-width: 1.5;" x1="394" x2="558" y1="196" y2="196"/><line style="stroke: #A80036; stroke-width: 1.5;" x1="394" x2="558" y1="204" y2="204"/><ellipse cx="404" cy="215.9775" fill="#84BE84" rx="3" ry="3" style="stroke: #038048; stroke-width: 1.0;"/><text fill="#000000" font-family="sans-serif" font-size="11" lengthAdjust="spacingAndGlyphs" text-decoration="underline" textLength="124" x="413" y="218.6348">mat2Image(Mat): Image</text><ellipse cx="404" cy="228.9326" fill="#84BE84" rx="3" ry="3" style="stroke: #038048; stroke-width: 1.0;"/><text fill="#000000" font-family="sans-serif" font-size="11" lengthAdjust="spacingAndGlyphs" text-decoration="underline" textLength="140" x="413" y="231.5898">releaseImages(Mat[]): void</text></a><!--class nl.vaneijndhoven.opencv.video.LaneDetectionApp--><a href="LaneDetectionApp.html" target="_top" xlink:actuate="onRequest" xlink:show="new" xlink:title="LaneDetectionApp.html" xlink:type="simple"><rect fill="#FEFECE" filter="url(#f12dsksnmno2qd)" height="73.9102" id="nl.vaneijndhoven.opencv.video.LaneDetectionApp" style="stroke: #A80036; stroke-width: 1.5;" width="137" x="220.5" y="164"/><ellipse cx="235.5" cy="180" fill="#ADD1B2" rx="11" ry="11" style="stroke: #A80036; stroke-width: 1.0;"/><path d="M238.4731,185.6431 Q237.8921,185.9419 237.2529,186.0913 Q236.6138,186.2407 235.9082,186.2407 Q233.4014,186.2407 232.0815,184.5889 Q230.7617,182.937 230.7617,179.8159 Q230.7617,176.6865 232.0815,175.0347 Q233.4014,173.3828 235.9082,173.3828 Q236.6138,173.3828 237.2612,173.5322 Q237.9087,173.6816 238.4731,173.9805 L238.4731,176.7031 Q237.8423,176.1221 237.2488,175.8523 Q236.6553,175.5825 236.0244,175.5825 Q234.6797,175.5825 233.9949,176.6492 Q233.3101,177.7158 233.3101,179.8159 Q233.3101,181.9077 233.9949,182.9744 Q234.6797,184.041 236.0244,184.041 Q236.6553,184.041 237.2488,183.7712 Q237.8423,183.5015 238.4731,182.9204 Z "/><text fill="#000000" font-family="sans-serif" font-size="12" lengthAdjust="spacingAndGlyphs" textLength="105" x="249.5" y="184.5352">LaneDetectionApp</text><line style="stroke: #A80036; stroke-width: 1.5;" x1="221.5" x2="356.5" y1="196" y2="196"/><line style="stroke: #A80036; stroke-width: 1.5;" x1="221.5" x2="356.5" y1="204" y2="204"/><ellipse cx="231.5" cy="215.9775" fill="#84BE84" rx="3" ry="3" style="stroke: #038048; stroke-width: 1.0;"/><text fill="#000000" font-family="sans-serif" font-size="11" lengthAdjust="spacingAndGlyphs" textLength="91" x="240.5" y="218.6348">start(Stage): void</text><ellipse cx="231.5" cy="228.9326" fill="#84BE84" rx="3" ry="3" style="stroke: #038048; stroke-width: 1.0;"/><text fill="#000000" font-family="sans-serif" font-size="11" lengthAdjust="spacingAndGlyphs" text-decoration="underline" textLength="103" x="240.5" y="231.5898">main(String[]): void</text></a><!--class nl.vaneijndhoven.opencv.video.LaneDetectionGUI--><a href="LaneDetectionGUI.html" target="_top" xlink:actuate="onRequest" xlink:show="new" xlink:title="LaneDetectionGUI.html" xlink:type="simple"><rect fill="#FEFECE" filter="url(#f12dsksnmno2qd)" height="60.9551" id="nl.vaneijndhoven.opencv.video.LaneDetectionGUI" style="stroke: #A80036; stroke-width: 1.5;" width="133" x="594.5" y="170.5"/><ellipse cx="609.5" cy="186.5" fill="#ADD1B2" rx="11" ry="11" style="stroke: #A80036; stroke-width: 1.0;"/><path d="M612.4731,192.1431 Q611.8921,192.4419 611.2529,192.5913 Q610.6138,192.7407 609.9082,192.7407 Q607.4014,192.7407 606.0815,191.0889 Q604.7617,189.437 604.7617,186.3159 Q604.7617,183.1865 606.0815,181.5347 Q607.4014,179.8828 609.9082,179.8828 Q610.6138,179.8828 611.2612,180.0322 Q611.9087,180.1816 612.4731,180.4805 L612.4731,183.2031 Q611.8423,182.6221 611.2488,182.3523 Q610.6553,182.0825 610.0244,182.0825 Q608.6797,182.0825 607.9949,183.1492 Q607.3101,184.2158 607.3101,186.3159 Q607.3101,188.4077 607.9949,189.4744 Q608.6797,190.541 610.0244,190.541 Q610.6553,190.541 611.2488,190.2712 Q611.8423,190.0015 612.4731,189.4204 Z "/><text fill="#000000" font-family="sans-serif" font-size="12" lengthAdjust="spacingAndGlyphs" textLength="101" x="623.5" y="191.0352">LaneDetectionGUI</text><line style="stroke: #A80036; stroke-width: 1.5;" x1="595.5" x2="726.5" y1="202.5" y2="202.5"/><line style="stroke: #A80036; stroke-width: 1.5;" x1="595.5" x2="726.5" y1="210.5" y2="210.5"/><ellipse cx="605.5" cy="222.4775" fill="#84BE84" rx="3" ry="3" style="stroke: #038048; stroke-width: 1.0;"/><text fill="#000000" font-family="sans-serif" font-size="11" lengthAdjust="spacingAndGlyphs" textLength="103" x="614.5" y="225.1348">startCamera(): void</text></a><!--class nl.vaneijndhoven.opencv.video.StartLightDetectionController--><a href="StartLightDetectionController.html" target="_top" xlink:actuate="onRequest" xlink:show="new" xlink:title="StartLightDetectionController.html" xlink:type="simple"><rect fill="#FEFECE" filter="url(#f12dsksnmno2qd)" height="48" id="nl.vaneijndhoven.opencv.video.StartLightDetectionController" style="stroke: #A80036; stroke-width: 1.5;" width="195" x="22.5" y="369.5"/><ellipse cx="37.5" cy="385.5" fill="#ADD1B2" rx="11" ry="11" style="stroke: #A80036; stroke-width: 1.0;"/><path d="M40.4731,391.1431 Q39.8921,391.4419 39.2529,391.5913 Q38.6138,391.7407 37.9082,391.7407 Q35.4014,391.7407 34.0815,390.0889 Q32.7617,388.437 32.7617,385.3159 Q32.7617,382.1865 34.0815,380.5347 Q35.4014,378.8828 37.9082,378.8828 Q38.6138,378.8828 39.2612,379.0322 Q39.9087,379.1816 40.4731,379.4805 L40.4731,382.2031 Q39.8423,381.6221 39.2488,381.3523 Q38.6553,381.0825 38.0244,381.0825 Q36.6797,381.0825 35.9949,382.1492 Q35.3101,383.2158 35.3101,385.3159 Q35.3101,387.4077 35.9949,388.4744 Q36.6797,389.541 38.0244,389.541 Q38.6553,389.541 39.2488,389.2712 Q39.8423,389.0015 40.4731,388.4204 Z "/><text fill="#000000" font-family="sans-serif" font-size="12" lengthAdjust="spacingAndGlyphs" textLength="163" x="51.5" y="390.0352">StartLightDetectionController</text><line style="stroke: #A80036; stroke-width: 1.5;" x1="23.5" x2="216.5" y1="401.5" y2="401.5"/><line style="stroke: #A80036; stroke-width: 1.5;" x1="23.5" x2="216.5" y1="409.5" y2="409.5"/></a><!--class nl.vaneijndhoven.opencv.video.LaneDetectionController--><a href="LaneDetectionController.html" target="_top" xlink:actuate="onRequest" xlink:show="new" xlink:title="LaneDetectionController.html" xlink:type="simple"><rect fill="#FEFECE" filter="url(#f12dsksnmno2qd)" height="190.5059" id="nl.vaneijndhoven.opencv.video.LaneDetectionController" style="stroke: #A80036; stroke-width: 1.5;" width="683" x="252.5" y="298"/><ellipse cx="521.25" cy="314" fill="#ADD1B2" rx="11" ry="11" style="stroke: #A80036; stroke-width: 1.0;"/><path d="M524.2231,319.6431 Q523.6421,319.9419 523.0029,320.0913 Q522.3638,320.2407 521.6582,320.2407 Q519.1514,320.2407 517.8315,318.5889 Q516.5117,316.937 516.5117,313.8159 Q516.5117,310.6865 517.8315,309.0347 Q519.1514,307.3828 521.6582,307.3828 Q522.3638,307.3828 523.0112,307.5322 Q523.6587,307.6816 524.2231,307.9805 L524.2231,310.7031 Q523.5923,310.1221 522.9988,309.8523 Q522.4053,309.5825 521.7744,309.5825 Q520.4297,309.5825 519.7449,310.6492 Q519.0601,311.7158 519.0601,313.8159 Q519.0601,315.9077 519.7449,316.9744 Q520.4297,318.041 521.7744,318.041 Q522.4053,318.041 522.9988,317.7712 Q523.5923,317.5015 524.2231,316.9204 Z "/><text fill="#000000" font-family="sans-serif" font-size="12" lengthAdjust="spacingAndGlyphs" textLength="137" x="541.75" y="318.5352">LaneDetectionController</text><line style="stroke: #A80036; stroke-width: 1.5;" x1="253.5" x2="934.5" y1="330" y2="330"/><ellipse cx="263.5" cy="341.9775" fill="none" rx="3" ry="3" style="stroke: #038048; stroke-width: 1.0;"/><text fill="#000000" font-family="sans-serif" font-size="11" lengthAdjust="spacingAndGlyphs" text-decoration="underline" textLength="235" x="272.5" y="344.6348">DEFAULT_LANE_BOUNDARY_ANGLE: double</text><ellipse cx="263.5" cy="354.9326" fill="none" rx="3" ry="3" style="stroke: #038048; stroke-width: 1.0;"/><text fill="#000000" font-family="sans-serif" font-size="11" lengthAdjust="spacingAndGlyphs" text-decoration="underline" textLength="264" x="272.5" y="357.5898">DEFAULT_LANE_BOUNDARY_TOLERANCE: double</text><ellipse cx="263.5" cy="367.8877" fill="none" rx="3" ry="3" style="stroke: #038048; stroke-width: 1.0;"/><text fill="#000000" font-family="sans-serif" font-size="11" lengthAdjust="spacingAndGlyphs" text-decoration="underline" textLength="221" x="272.5" y="370.5449">DEFAULT_CANNY_THRESHOLD_1: double</text><ellipse cx="263.5" cy="380.8428" fill="none" rx="3" ry="3" style="stroke: #038048; stroke-width: 1.0;"/><text fill="#000000" font-family="sans-serif" font-size="11" lengthAdjust="spacingAndGlyphs" text-decoration="underline" textLength="221" x="272.5" y="383.5">DEFAULT_CANNY_THRESHOLD_2: double</text><ellipse cx="263.5" cy="393.7979" fill="none" rx="3" ry="3" style="stroke: #038048; stroke-width: 1.0;"/><text fill="#000000" font-family="sans-serif" font-size="11" lengthAdjust="spacingAndGlyphs" text-decoration="underline" textLength="176" x="272.5" y="396.4551">DEFAULT_LINE_DETECT_RHO: int</text><ellipse cx="263.5" cy="406.7529" fill="none" rx="3" ry="3" style="stroke: #038048; stroke-width: 1.0;"/><text fill="#000000" font-family="sans-serif" font-size="11" lengthAdjust="spacingAndGlyphs" text-decoration="underline" textLength="211" x="272.5" y="409.4102">DEFAULT_LINE_DETECT_THETA: double</text><ellipse cx="263.5" cy="419.708" fill="none" rx="3" ry="3" style="stroke: #038048; stroke-width: 1.0;"/><text fill="#000000" font-family="sans-serif" font-size="11" lengthAdjust="spacingAndGlyphs" text-decoration="underline" textLength="240" x="272.5" y="422.3652">DEFAULT_LINE_DETECT_THRESHOLD: double</text><ellipse cx="263.5" cy="432.6631" fill="none" rx="3" ry="3" style="stroke: #038048; stroke-width: 1.0;"/><text fill="#000000" font-family="sans-serif" font-size="11" lengthAdjust="spacingAndGlyphs" text-decoration="underline" textLength="273" x="272.5" y="435.3203">DEFAULT_LINE_DETECT_MIN_LINE_LENGTH: double</text><ellipse cx="263.5" cy="445.6182" fill="none" rx="3" ry="3" style="stroke: #038048; stroke-width: 1.0;"/><text fill="#000000" font-family="sans-serif" font-size="11" lengthAdjust="spacingAndGlyphs" text-decoration="underline" textLength="256" x="272.5" y="448.2754">DEFAULT_LINE_DETECT_MAX_LINE_GAP: double</text><line style="stroke: #A80036; stroke-width: 1.5;" x1="253.5" x2="934.5" y1="454.5957" y2="454.5957"/><ellipse cx="263.5" cy="466.5732" fill="#84BE84" rx="3" ry="3" style="stroke: #038048; stroke-width: 1.0;"/><text fill="#000000" font-family="sans-serif" font-size="11" lengthAdjust="spacingAndGlyphs" textLength="168" x="272.5" y="469.2305">LaneDetectionController(Vertx)</text><ellipse cx="263.5" cy="479.5283" fill="#84BE84" rx="3" ry="3" style="stroke: #038048; stroke-width: 1.0;"/><text fill="#000000" font-family="sans-serif" font-size="11" lengthAdjust="spacingAndGlyphs" textLength="657" x="272.5" y="482.1855">performLaneDetection(Mat, CannyEdgeDetector.Config, ProbabilisticHoughLinesLineDetector.Config, ImageCollector): void</text></a><!--class nl.vaneijndhoven.opencv.video.StartLightDetectionApp--><a href="StartLightDetectionApp.html" target="_top" xlink:actuate="onRequest" xlink:show="new" xlink:title="StartLightDetectionApp.html" xlink:type="simple"><rect fill="#FEFECE" filter="url(#f12dsksnmno2qd)" height="73.9102" id="nl.vaneijndhoven.opencv.video.StartLightDetectionApp" style="stroke: #A80036; stroke-width: 1.5;" width="163" x="22.5" y="164"/><ellipse cx="37.5" cy="180" fill="#ADD1B2" rx="11" ry="11" style="stroke: #A80036; stroke-width: 1.0;"/><path d="M40.4731,185.6431 Q39.8921,185.9419 39.2529,186.0913 Q38.6138,186.2407 37.9082,186.2407 Q35.4014,186.2407 34.0815,184.5889 Q32.7617,182.937 32.7617,179.8159 Q32.7617,176.6865 34.0815,175.0347 Q35.4014,173.3828 37.9082,173.3828 Q38.6138,173.3828 39.2612,173.5322 Q39.9087,173.6816 40.4731,173.9805 L40.4731,176.7031 Q39.8423,176.1221 39.2488,175.8523 Q38.6553,175.5825 38.0244,175.5825 Q36.6797,175.5825 35.9949,176.6492 Q35.3101,177.7158 35.3101,179.8159 Q35.3101,181.9077 35.9949,182.9744 Q36.6797,184.041 38.0244,184.041 Q38.6553,184.041 39.2488,183.7712 Q39.8423,183.5015 40.4731,182.9204 Z "/><text fill="#000000" font-family="sans-serif" font-size="12" lengthAdjust="spacingAndGlyphs" textLength="131" x="51.5" y="184.5352">StartLightDetectionApp</text><line style="stroke: #A80036; stroke-width: 1.5;" x1="23.5" x2="184.5" y1="196" y2="196"/><line style="stroke: #A80036; stroke-width: 1.5;" x1="23.5" x2="184.5" y1="204" y2="204"/><ellipse cx="33.5" cy="215.9775" fill="#84BE84" rx="3" ry="3" style="stroke: #038048; stroke-width: 1.0;"/><text fill="#000000" font-family="sans-serif" font-size="11" lengthAdjust="spacingAndGlyphs" textLength="91" x="42.5" y="218.6348">start(Stage): void</text><ellipse cx="33.5" cy="228.9326" fill="#84BE84" rx="3" ry="3" style="stroke: #038048; stroke-width: 1.0;"/><text fill="#000000" font-family="sans-serif" font-size="11" lengthAdjust="spacingAndGlyphs" text-decoration="underline" textLength="103" x="42.5" y="231.5898">main(String[]): void</text></a><!--class javafx.application.Application--><rect fill="#FEFECE" filter="url(#f12dsksnmno2qd)" height="60.9551" id="javafx.application.Application" style="stroke: #A80036; stroke-width: 1.5;" width="117" x="137.5" y="43"/><ellipse cx="161.95" cy="59" fill="#A9DCDF" rx="11" ry="11" style="stroke: #A80036; stroke-width: 1.0;"/><path d="M162.0633,54.3481 L160.9095,59.4199 L163.2254,59.4199 Z M160.5691,52.1069 L163.5657,52.1069 L166.9109,64.5 L164.4622,64.5 L163.6985,61.437 L160.4197,61.437 L159.6727,64.5 L157.2239,64.5 Z "/><text fill="#000000" font-family="sans-serif" font-size="12" font-style="italic" lengthAdjust="spacingAndGlyphs" textLength="64" x="178.05" y="63.5352">Application</text><line style="stroke: #A80036; stroke-width: 1.5;" x1="138.5" x2="253.5" y1="75" y2="75"/><line style="stroke: #A80036; stroke-width: 1.5;" x1="138.5" x2="253.5" y1="83" y2="83"/><ellipse cx="148.5" cy="94.9775" fill="#84BE84" rx="3" ry="3" style="stroke: #038048; stroke-width: 1.0;"/><text fill="#000000" font-family="sans-serif" font-size="11" font-style="italic" lengthAdjust="spacingAndGlyphs" textLength="91" x="157.5" y="97.6348">start(Stage): void</text><!--link javafx.application.Application to nl.vaneijndhoven.opencv.video.LaneDetectionApp--><path d="M230.3859,120.6419 C240.7941,134.9112 252.0727,150.3739 261.9307,163.8888 " fill="none" id="javafx.application.Application-nl.vaneijndhoven.opencv.video.LaneDetectionApp" style="stroke: #A80036; stroke-width: 1.0;"/><polygon fill="none" points="224.4065,124.3228,218.2758,104.0394,235.7173,116.0726,224.4065,124.3228" style="stroke: #A80036; stroke-width: 1.0;"/><!--link javafx.application.Application to nl.vaneijndhoven.opencv.video.StartLightDetectionApp--><path d="M161.9839,120.6419 C151.6876,134.9112 140.5302,150.3739 130.7782,163.8888 " fill="none" id="javafx.application.Application-nl.vaneijndhoven.opencv.video.StartLightDetectionApp" style="stroke: #A80036; stroke-width: 1.0;"/><polygon fill="none" points="156.5843,116.1621,173.9637,104.0394,167.9373,124.3541,156.5843,116.1621" style="stroke: #A80036; stroke-width: 1.0;"/><!--link nl.vaneijndhoven.opencv.video.ImageUtils to nl.vaneijndhoven.opencv.video.LaneDetectionGUI--><!--link nl.vaneijndhoven.opencv.video.ImageUtils to nl.vaneijndhoven.opencv.video.StartLightDetectionController--><!--link nl.vaneijndhoven.opencv.video.StartLightDetectionController to nl.vaneijndhoven.opencv.video.LaneDetectionController--><text fill="#888888" font-family="sans-serif" font-size="10" lengthAdjust="spacingAndGlyphs" textLength="182" x="394" y="524.668">UMLDoclet 1.1.4, PlantUML 1.2019.05</text><!--
@startuml

    namespace nl.vaneijndhoven.opencv.video {

        class ImageUtils [[ImageUtils.html]] {
            {static} +mat2Image(Mat): Image
            {static} +releaseImages(Mat[]): void
        }

        class LaneDetectionApp [[LaneDetectionApp.html]] {
            +start(Stage): void
            {static} +main(String[]): void
        }

        class LaneDetectionGUI [[LaneDetectionGUI.html]] {
            +startCamera(): void
        }

        class StartLightDetectionController [[StartLightDetectionController.html]] {
        }

        class LaneDetectionController [[LaneDetectionController.html]] {
            {static} +DEFAULT_LANE_BOUNDARY_ANGLE: double
            {static} +DEFAULT_LANE_BOUNDARY_TOLERANCE: double
            {static} +DEFAULT_CANNY_THRESHOLD_1: double
            {static} +DEFAULT_CANNY_THRESHOLD_2: double
            {static} +DEFAULT_LINE_DETECT_RHO: int
            {static} +DEFAULT_LINE_DETECT_THETA: double
            {static} +DEFAULT_LINE_DETECT_THRESHOLD: double
            {static} +DEFAULT_LINE_DETECT_MIN_LINE_LENGTH: double
            {static} +DEFAULT_LINE_DETECT_MAX_LINE_GAP: double
            +LaneDetectionController(Vertx)
            +performLaneDetection(Mat, CannyEdgeDetector.Config, ProbabilisticHoughLinesLineDetector.Config, ImageCollector): void
        }

        class StartLightDetectionApp [[StartLightDetectionApp.html]] {
            +start(Stage): void
            {static} +main(String[]): void
        }

        abstract class javafx.application.Application {
            {abstract} +start(Stage): void
        }
        javafx.application.Application <|- - LaneDetectionApp

        javafx.application.Application <|- - StartLightDetectionApp

    }


    center footer UMLDoclet 1.1.4, PlantUML 1.2019.05
@enduml

PlantUML version 1.2019.05(Sat Apr 20 18:45:36 CEST 2019)
(APACHE source distribution)
Java Runtime: Java(TM) SE Runtime Environment
JVM: Java HotSpot(TM) 64-Bit Server VM
Java Version: 1.8.0_152-b16
Operating System: Mac OS X
OS Version: 10.13.6
Default Encoding: UTF-8
Language: de
Country: DE
--></g></svg>