<?xml version="1.0" encoding="UTF-8" standalone="no"?><svg xmlns="http://www.w3.org/2000/svg" xmlns:xlink="http://www.w3.org/1999/xlink" contentScriptType="application/ecmascript" contentStyleType="text/css" height="313px" preserveAspectRatio="none" style="width:621px;height:313px;" version="1.1" viewBox="0 0 621 313" width="621px" zoomAndPan="magnify"><defs><filter height="300%" id="f1ulw74p9vpspj" width="300%" x="-1" y="-1"><feGaussianBlur result="blurOut" stdDeviation="2.0"/><feColorMatrix in="blurOut" result="blurOut2" type="matrix" values="0 0 0 0 0 0 0 0 0 0 0 0 0 0 0 0 0 0 .4 0"/><feOffset dx="4.0" dy="4.0" in="blurOut2" result="blurOut3"/><feBlend in="SourceGraphic" in2="blurOut3" mode="normal"/></filter></defs><g><!--cluster nl.vaneijndhoven.objects.stoppingzone--><polygon fill="#FFFFFF" filter="url(#f1ulw74p9vpspj)" points="14,124,297,124,304,146.4883,599,146.4883,599,272,14,272,14,124" style="stroke: #000000; stroke-width: 1.5;"/><line style="stroke: #000000; stroke-width: 1.5;" x1="14" x2="304" y1="146.4883" y2="146.4883"/><text fill="#000000" font-family="sans-serif" font-size="14" font-weight="bold" lengthAdjust="spacingAndGlyphs" textLength="277" x="18" y="139.5352">nl.vaneijndhoven.objects.stoppingzone</text><!--cluster nl.vaneijndhoven.objects--><polygon fill="#FFFFFF" filter="url(#f1ulw74p9vpspj)" points="213,16,395,16,402,38.4883,405,38.4883,405,99,213,99,213,16" style="stroke: #000000; stroke-width: 1.5;"/><line style="stroke: #000000; stroke-width: 1.5;" x1="213" x2="402" y1="38.4883" y2="38.4883"/><text fill="#000000" font-family="sans-serif" font-size="14" font-weight="bold" lengthAdjust="spacingAndGlyphs" textLength="176" x="217" y="31.5352">nl.vaneijndhoven.objects</text><!--class nl.vaneijndhoven.objects.stoppingzone.ZoneEndBoundary--><a href="ZoneEndBoundary.html" target="_top" xlink:actuate="onRequest" xlink:show="new" xlink:title="ZoneEndBoundary.html" xlink:type="simple"><rect fill="#FEFECE" filter="url(#f1ulw74p9vpspj)" height="99.8203" id="nl.vaneijndhoven.objects.stoppingzone.ZoneEndBoundary" style="stroke: #A80036; stroke-width: 1.5;" width="261" x="329.5" y="157.5"/><ellipse cx="403.75" cy="173.5" fill="#ADD1B2" rx="11" ry="11" style="stroke: #A80036; stroke-width: 1.0;"/><path d="M406.7231,179.1431 Q406.1421,179.4419 405.5029,179.5913 Q404.8638,179.7407 404.1582,179.7407 Q401.6514,179.7407 400.3315,178.0889 Q399.0117,176.437 399.0117,173.3159 Q399.0117,170.1865 400.3315,168.5347 Q401.6514,166.8828 404.1582,166.8828 Q404.8638,166.8828 405.5112,167.0322 Q406.1587,167.1816 406.7231,167.4805 L406.7231,170.2031 Q406.0923,169.6221 405.4988,169.3523 Q404.9053,169.0825 404.2744,169.0825 Q402.9297,169.0825 402.2449,170.1492 Q401.5601,171.2158 401.5601,173.3159 Q401.5601,175.4077 402.2449,176.4744 Q402.9297,177.541 404.2744,177.541 Q404.9053,177.541 405.4988,177.2712 Q406.0923,177.0015 406.7231,176.4204 Z "/><text fill="#000000" font-family="sans-serif" font-size="12" lengthAdjust="spacingAndGlyphs" textLength="104" x="424.25" y="178.0352">ZoneEndBoundary</text><line style="stroke: #A80036; stroke-width: 1.5;" x1="330.5" x2="589.5" y1="189.5" y2="189.5"/><ellipse cx="340.5" cy="201.4775" fill="none" rx="3" ry="3" style="stroke: #038048; stroke-width: 1.0;"/><text fill="#000000" font-family="sans-serif" font-size="11" lengthAdjust="spacingAndGlyphs" text-decoration="underline" textLength="134" x="349.5" y="204.1348">DEFAULT_ANGLE: double</text><ellipse cx="340.5" cy="214.4326" fill="none" rx="3" ry="3" style="stroke: #038048; stroke-width: 1.0;"/><text fill="#000000" font-family="sans-serif" font-size="11" lengthAdjust="spacingAndGlyphs" text-decoration="underline" textLength="163" x="349.5" y="217.0898">DEFAULT_TOLERANCE: double</text><line style="stroke: #A80036; stroke-width: 1.5;" x1="330.5" x2="589.5" y1="223.4102" y2="223.4102"/><ellipse cx="340.5" cy="235.3877" fill="#84BE84" rx="3" ry="3" style="stroke: #038048; stroke-width: 1.0;"/><text fill="#000000" font-family="sans-serif" font-size="11" lengthAdjust="spacingAndGlyphs" textLength="106" x="349.5" y="238.0449">ZoneEndBoundary()</text><ellipse cx="340.5" cy="248.3428" fill="#84BE84" rx="3" ry="3" style="stroke: #038048; stroke-width: 1.0;"/><text fill="#000000" font-family="sans-serif" font-size="11" lengthAdjust="spacingAndGlyphs" textLength="235" x="349.5" y="251">ZoneEndBoundary(double, double, boolean)</text></a><!--class nl.vaneijndhoven.objects.stoppingzone.ZoneStartBoundary--><a href="ZoneStartBoundary.html" target="_top" xlink:actuate="onRequest" xlink:show="new" xlink:title="ZoneStartBoundary.html" xlink:type="simple"><rect fill="#FEFECE" filter="url(#f1ulw74p9vpspj)" height="112.7754" id="nl.vaneijndhoven.objects.stoppingzone.ZoneStartBoundary" style="stroke: #A80036; stroke-width: 1.5;" width="272" x="22" y="151"/><ellipse cx="99.75" cy="167" fill="#ADD1B2" rx="11" ry="11" style="stroke: #A80036; stroke-width: 1.0;"/><path d="M102.7231,172.6431 Q102.1421,172.9419 101.5029,173.0913 Q100.8638,173.2407 100.1582,173.2407 Q97.6514,173.2407 96.3315,171.5889 Q95.0117,169.937 95.0117,166.8159 Q95.0117,163.6865 96.3315,162.0347 Q97.6514,160.3828 100.1582,160.3828 Q100.8638,160.3828 101.5112,160.5322 Q102.1587,160.6816 102.7231,160.9805 L102.7231,163.7031 Q102.0923,163.1221 101.4988,162.8523 Q100.9053,162.5825 100.2744,162.5825 Q98.9297,162.5825 98.2449,163.6492 Q97.5601,164.7158 97.5601,166.8159 Q97.5601,168.9077 98.2449,169.9744 Q98.9297,171.041 100.2744,171.041 Q100.9053,171.041 101.4988,170.7712 Q102.0923,170.5015 102.7231,169.9204 Z "/><text fill="#000000" font-family="sans-serif" font-size="12" lengthAdjust="spacingAndGlyphs" textLength="108" x="120.25" y="171.5352">ZoneStartBoundary</text><line style="stroke: #A80036; stroke-width: 1.5;" x1="23" x2="293" y1="183" y2="183"/><ellipse cx="33" cy="194.9775" fill="none" rx="3" ry="3" style="stroke: #038048; stroke-width: 1.0;"/><text fill="#000000" font-family="sans-serif" font-size="11" lengthAdjust="spacingAndGlyphs" text-decoration="underline" textLength="134" x="42" y="197.6348">DEFAULT_ANGLE: double</text><ellipse cx="33" cy="207.9326" fill="none" rx="3" ry="3" style="stroke: #038048; stroke-width: 1.0;"/><text fill="#000000" font-family="sans-serif" font-size="11" lengthAdjust="spacingAndGlyphs" text-decoration="underline" textLength="163" x="42" y="210.5898">DEFAULT_TOLERANCE: double</text><line style="stroke: #A80036; stroke-width: 1.5;" x1="23" x2="293" y1="216.9102" y2="216.9102"/><ellipse cx="33" cy="228.8877" fill="#84BE84" rx="3" ry="3" style="stroke: #038048; stroke-width: 1.0;"/><text fill="#000000" font-family="sans-serif" font-size="11" lengthAdjust="spacingAndGlyphs" textLength="111" x="42" y="231.5449">ZoneStartBoundary()</text><ellipse cx="33" cy="241.8428" fill="#84BE84" rx="3" ry="3" style="stroke: #038048; stroke-width: 1.0;"/><text fill="#000000" font-family="sans-serif" font-size="11" lengthAdjust="spacingAndGlyphs" textLength="240" x="42" y="244.5">ZoneStartBoundary(double, double, boolean)</text><ellipse cx="33" cy="254.7979" fill="#84BE84" rx="3" ry="3" style="stroke: #038048; stroke-width: 1.0;"/><text fill="#000000" font-family="sans-serif" font-size="11" lengthAdjust="spacingAndGlyphs" textLength="246" x="42" y="257.4551">boundary(Collection&lt;Line&gt;): Optional&lt;Line&gt;</text></a><!--class nl.vaneijndhoven.objects.Boundary--><rect fill="#FEFECE" filter="url(#f1ulw74p9vpspj)" height="48" id="nl.vaneijndhoven.objects.Boundary" style="stroke: #A80036; stroke-width: 1.5;" width="86" x="266" y="43"/><ellipse cx="281" cy="59" fill="#ADD1B2" rx="11" ry="11" style="stroke: #A80036; stroke-width: 1.0;"/><path d="M283.9731,64.6431 Q283.3921,64.9419 282.7529,65.0913 Q282.1138,65.2407 281.4082,65.2407 Q278.9014,65.2407 277.5815,63.5889 Q276.2617,61.937 276.2617,58.8159 Q276.2617,55.6865 277.5815,54.0347 Q278.9014,52.3828 281.4082,52.3828 Q282.1138,52.3828 282.7612,52.5322 Q283.4087,52.6816 283.9731,52.9805 L283.9731,55.7031 Q283.3423,55.1221 282.7488,54.8523 Q282.1553,54.5825 281.5244,54.5825 Q280.1797,54.5825 279.4949,55.6492 Q278.8101,56.7158 278.8101,58.8159 Q278.8101,60.9077 279.4949,61.9744 Q280.1797,63.041 281.5244,63.041 Q282.1553,63.041 282.7488,62.7712 Q283.3423,62.5015 283.9731,61.9204 Z "/><text fill="#000000" font-family="sans-serif" font-size="12" lengthAdjust="spacingAndGlyphs" textLength="54" x="295" y="63.5352">Boundary</text><line style="stroke: #A80036; stroke-width: 1.5;" x1="267" x2="351" y1="75" y2="75"/><line style="stroke: #A80036; stroke-width: 1.5;" x1="267" x2="351" y1="83" y2="83"/><!--link nl.vaneijndhoven.objects.Boundary to nl.vaneijndhoven.objects.stoppingzone.ZoneEndBoundary--><path d="M349.8091,104.9714 C367.0836,121.0446 387.454,139.9986 405.9512,157.2095 " fill="none" id="nl.vaneijndhoven.objects.Boundary-nl.vaneijndhoven.objects.stoppingzone.ZoneEndBoundary" style="stroke: #A80036; stroke-width: 1.0;"/><polygon fill="none" points="344.8315,109.9015,334.9578,91.1528,354.3683,99.652,344.8315,109.9015" style="stroke: #A80036; stroke-width: 1.0;"/><!--link nl.vaneijndhoven.objects.Boundary to nl.vaneijndhoven.objects.stoppingzone.ZoneStartBoundary--><path d="M268.2664,104.9012 C253.1235,118.991 235.5935,135.3021 219.029,150.7148 " fill="none" id="nl.vaneijndhoven.objects.Boundary-nl.vaneijndhoven.objects.stoppingzone.ZoneStartBoundary" style="stroke: #A80036; stroke-width: 1.0;"/><polygon fill="none" points="263.6317,99.652,283.0422,91.1528,273.1685,109.9015,263.6317,99.652" style="stroke: #A80036; stroke-width: 1.0;"/><text fill="#888888" font-family="sans-serif" font-size="10" lengthAdjust="spacingAndGlyphs" textLength="182" x="221.5" y="299.668">UMLDoclet 1.1.4, PlantUML 1.2019.05</text><!--
@startuml

    namespace nl.vaneijndhoven.objects.stoppingzone {

        class ZoneEndBoundary [[ZoneEndBoundary.html]] {
            {static} +DEFAULT_ANGLE: double
            {static} +DEFAULT_TOLERANCE: double
            +ZoneEndBoundary()
            +ZoneEndBoundary(double, double, boolean)
        }

        class ZoneStartBoundary [[ZoneStartBoundary.html]] {
            {static} +DEFAULT_ANGLE: double
            {static} +DEFAULT_TOLERANCE: double
            +ZoneStartBoundary()
            +ZoneStartBoundary(double, double, boolean)
            +boundary(Collection<Line>): Optional<Line>
        }

        class nl.vaneijndhoven.objects.Boundary
        nl.vaneijndhoven.objects.Boundary <|- - ZoneEndBoundary

        nl.vaneijndhoven.objects.Boundary <|- - ZoneStartBoundary

    }


    center footer UMLDoclet 1.1.4, PlantUML 1.2019.05
@enduml

PlantUML version 1.2019.05(Sat Apr 20 18:45:36 CEST 2019)
(APACHE source distribution)
Java Runtime: Java(TM) SE Runtime Environment
JVM: Java HotSpot(TM) 64-Bit Server VM
Java Version: 1.8.0_152-b16
Operating System: Mac OS X
OS Version: 10.13.6
Default Encoding: UTF-8
Language: de
Country: DE
--></g></svg>