<?xml version="1.0" encoding="UTF-8" standalone="no"?><svg xmlns="http://www.w3.org/2000/svg" xmlns:xlink="http://www.w3.org/1999/xlink" contentScriptType="application/ecmascript" contentStyleType="text/css" height="313px" preserveAspectRatio="none" style="width:984px;height:313px;" version="1.1" viewBox="0 0 984 313" width="984px" zoomAndPan="magnify"><defs><filter height="300%" id="fzdlip9lwea4p" width="300%" x="-1" y="-1"><feGaussianBlur result="blurOut" stdDeviation="2.0"/><feColorMatrix in="blurOut" result="blurOut2" type="matrix" values="0 0 0 0 0 0 0 0 0 0 0 0 0 0 0 0 0 0 .4 0"/><feOffset dx="4.0" dy="4.0" in="blurOut2" result="blurOut3"/><feBlend in="SourceGraphic" in2="blurOut3" mode="normal"/></filter></defs><g><!--cluster nl.vaneijndhoven.objects.stoppingzone--><polygon fill="#FFFFFF" filter="url(#fzdlip9lwea4p)" points="14,124,297,124,304,146.4883,962,146.4883,962,272,14,272,14,124" style="stroke: #000000; stroke-width: 1.5;"/><line style="stroke: #000000; stroke-width: 1.5;" x1="14" x2="304" y1="146.4883" y2="146.4883"/><text fill="#000000" font-family="sans-serif" font-size="14" font-weight="bold" lengthAdjust="spacingAndGlyphs" textLength="277" x="18" y="139.5352">nl.vaneijndhoven.objects.stoppingzone</text><!--cluster nl.vaneijndhoven.objects--><polygon fill="#FFFFFF" filter="url(#fzdlip9lwea4p)" points="394,16,576,16,583,38.4883,586,38.4883,586,99,394,99,394,16" style="stroke: #000000; stroke-width: 1.5;"/><line style="stroke: #000000; stroke-width: 1.5;" x1="394" x2="583" y1="38.4883" y2="38.4883"/><text fill="#000000" font-family="sans-serif" font-size="14" font-weight="bold" lengthAdjust="spacingAndGlyphs" textLength="176" x="398" y="31.5352">nl.vaneijndhoven.objects</text><!--class nl.vaneijndhoven.objects.stoppingzone.ZoneEndBoundary--><a href="ZoneEndBoundary.html" target="_top" xlink:actuate="onRequest" xlink:show="new" xlink:title="ZoneEndBoundary.html" xlink:type="simple"><rect fill="#FEFECE" filter="url(#fzdlip9lwea4p)" height="99.8203" id="nl.vaneijndhoven.objects.stoppingzone.ZoneEndBoundary" style="stroke: #A80036; stroke-width: 1.5;" width="261" x="692.5" y="157.5"/><ellipse cx="766.75" cy="173.5" fill="#ADD1B2" rx="11" ry="11" style="stroke: #A80036; stroke-width: 1.0;"/><path d="M769.7231,179.1431 Q769.1421,179.4419 768.5029,179.5913 Q767.8638,179.7407 767.1582,179.7407 Q764.6514,179.7407 763.3315,178.0889 Q762.0117,176.437 762.0117,173.3159 Q762.0117,170.1865 763.3315,168.5347 Q764.6514,166.8828 767.1582,166.8828 Q767.8638,166.8828 768.5112,167.0322 Q769.1587,167.1816 769.7231,167.4805 L769.7231,170.2031 Q769.0923,169.6221 768.4988,169.3523 Q767.9053,169.0825 767.2744,169.0825 Q765.9297,169.0825 765.2449,170.1492 Q764.5601,171.2158 764.5601,173.3159 Q764.5601,175.4077 765.2449,176.4744 Q765.9297,177.541 767.2744,177.541 Q767.9053,177.541 768.4988,177.2712 Q769.0923,177.0015 769.7231,176.4204 Z "/><text fill="#000000" font-family="sans-serif" font-size="12" lengthAdjust="spacingAndGlyphs" textLength="104" x="787.25" y="178.0352">ZoneEndBoundary</text><line style="stroke: #A80036; stroke-width: 1.5;" x1="693.5" x2="952.5" y1="189.5" y2="189.5"/><ellipse cx="703.5" cy="201.4775" fill="none" rx="3" ry="3" style="stroke: #038048; stroke-width: 1.0;"/><text fill="#000000" font-family="sans-serif" font-size="11" lengthAdjust="spacingAndGlyphs" text-decoration="underline" textLength="134" x="712.5" y="204.1348">DEFAULT_ANGLE: double</text><ellipse cx="703.5" cy="214.4326" fill="none" rx="3" ry="3" style="stroke: #038048; stroke-width: 1.0;"/><text fill="#000000" font-family="sans-serif" font-size="11" lengthAdjust="spacingAndGlyphs" text-decoration="underline" textLength="163" x="712.5" y="217.0898">DEFAULT_TOLERANCE: double</text><line style="stroke: #A80036; stroke-width: 1.5;" x1="693.5" x2="952.5" y1="223.4102" y2="223.4102"/><ellipse cx="703.5" cy="235.3877" fill="#84BE84" rx="3" ry="3" style="stroke: #038048; stroke-width: 1.0;"/><text fill="#000000" font-family="sans-serif" font-size="11" lengthAdjust="spacingAndGlyphs" textLength="106" x="712.5" y="238.0449">ZoneEndBoundary()</text><ellipse cx="703.5" cy="248.3428" fill="#84BE84" rx="3" ry="3" style="stroke: #038048; stroke-width: 1.0;"/><text fill="#000000" font-family="sans-serif" font-size="11" lengthAdjust="spacingAndGlyphs" textLength="235" x="712.5" y="251">ZoneEndBoundary(double, double, boolean)</text></a><!--class nl.vaneijndhoven.objects.stoppingzone.StoppingZoneOrientation--><a href="StoppingZoneOrientation.html" target="_top" xlink:actuate="onRequest" xlink:show="new" xlink:title="StoppingZoneOrientation.html" xlink:type="simple"><rect fill="#FEFECE" filter="url(#fzdlip9lwea4p)" height="86.8652" id="nl.vaneijndhoven.objects.stoppingzone.StoppingZoneOrientation" style="stroke: #A80036; stroke-width: 1.5;" width="328" x="329" y="164"/><ellipse cx="418.25" cy="180" fill="#ADD1B2" rx="11" ry="11" style="stroke: #A80036; stroke-width: 1.0;"/><path d="M421.2231,185.6431 Q420.6421,185.9419 420.0029,186.0913 Q419.3638,186.2407 418.6582,186.2407 Q416.1514,186.2407 414.8315,184.5889 Q413.5117,182.937 413.5117,179.8159 Q413.5117,176.6865 414.8315,175.0347 Q416.1514,173.3828 418.6582,173.3828 Q419.3638,173.3828 420.0112,173.5322 Q420.6587,173.6816 421.2231,173.9805 L421.2231,176.7031 Q420.5923,176.1221 419.9988,175.8523 Q419.4053,175.5825 418.7744,175.5825 Q417.4297,175.5825 416.7449,176.6492 Q416.0601,177.7158 416.0601,179.8159 Q416.0601,181.9077 416.7449,182.9744 Q417.4297,184.041 418.7744,184.041 Q419.4053,184.041 419.9988,183.7712 Q420.5923,183.5015 421.2231,182.9204 Z "/><text fill="#000000" font-family="sans-serif" font-size="12" lengthAdjust="spacingAndGlyphs" textLength="141" x="438.75" y="184.5352">StoppingZoneOrientation</text><line style="stroke: #A80036; stroke-width: 1.5;" x1="330" x2="656" y1="196" y2="196"/><line style="stroke: #A80036; stroke-width: 1.5;" x1="330" x2="656" y1="204" y2="204"/><ellipse cx="340" cy="215.9775" fill="#84BE84" rx="3" ry="3" style="stroke: #038048; stroke-width: 1.0;"/><text fill="#000000" font-family="sans-serif" font-size="11" lengthAdjust="spacingAndGlyphs" textLength="302" x="349" y="218.6348">StoppingZoneOrientation(StoppingZone, Lane, ViewPort)</text><ellipse cx="340" cy="228.9326" fill="#84BE84" rx="3" ry="3" style="stroke: #038048; stroke-width: 1.0;"/><text fill="#000000" font-family="sans-serif" font-size="11" lengthAdjust="spacingAndGlyphs" textLength="240" x="349" y="231.5898">determineDistanceToStoppingZone(): double</text><ellipse cx="340" cy="241.8877" fill="#84BE84" rx="3" ry="3" style="stroke: #038048; stroke-width: 1.0;"/><text fill="#000000" font-family="sans-serif" font-size="11" lengthAdjust="spacingAndGlyphs" textLength="260" x="349" y="244.5449">determineDistanceToStoppingZoneEnd(): double</text></a><!--class nl.vaneijndhoven.objects.stoppingzone.ZoneStartBoundary--><a href="ZoneStartBoundary.html" target="_top" xlink:actuate="onRequest" xlink:show="new" xlink:title="ZoneStartBoundary.html" xlink:type="simple"><rect fill="#FEFECE" filter="url(#fzdlip9lwea4p)" height="112.7754" id="nl.vaneijndhoven.objects.stoppingzone.ZoneStartBoundary" style="stroke: #A80036; stroke-width: 1.5;" width="272" x="22" y="151"/><ellipse cx="99.75" cy="167" fill="#ADD1B2" rx="11" ry="11" style="stroke: #A80036; stroke-width: 1.0;"/><path d="M102.7231,172.6431 Q102.1421,172.9419 101.5029,173.0913 Q100.8638,173.2407 100.1582,173.2407 Q97.6514,173.2407 96.3315,171.5889 Q95.0117,169.937 95.0117,166.8159 Q95.0117,163.6865 96.3315,162.0347 Q97.6514,160.3828 100.1582,160.3828 Q100.8638,160.3828 101.5112,160.5322 Q102.1587,160.6816 102.7231,160.9805 L102.7231,163.7031 Q102.0923,163.1221 101.4988,162.8523 Q100.9053,162.5825 100.2744,162.5825 Q98.9297,162.5825 98.2449,163.6492 Q97.5601,164.7158 97.5601,166.8159 Q97.5601,168.9077 98.2449,169.9744 Q98.9297,171.041 100.2744,171.041 Q100.9053,171.041 101.4988,170.7712 Q102.0923,170.5015 102.7231,169.9204 Z "/><text fill="#000000" font-family="sans-serif" font-size="12" lengthAdjust="spacingAndGlyphs" textLength="108" x="120.25" y="171.5352">ZoneStartBoundary</text><line style="stroke: #A80036; stroke-width: 1.5;" x1="23" x2="293" y1="183" y2="183"/><ellipse cx="33" cy="194.9775" fill="none" rx="3" ry="3" style="stroke: #038048; stroke-width: 1.0;"/><text fill="#000000" font-family="sans-serif" font-size="11" lengthAdjust="spacingAndGlyphs" text-decoration="underline" textLength="134" x="42" y="197.6348">DEFAULT_ANGLE: double</text><ellipse cx="33" cy="207.9326" fill="none" rx="3" ry="3" style="stroke: #038048; stroke-width: 1.0;"/><text fill="#000000" font-family="sans-serif" font-size="11" lengthAdjust="spacingAndGlyphs" text-decoration="underline" textLength="163" x="42" y="210.5898">DEFAULT_TOLERANCE: double</text><line style="stroke: #A80036; stroke-width: 1.5;" x1="23" x2="293" y1="216.9102" y2="216.9102"/><ellipse cx="33" cy="228.8877" fill="#84BE84" rx="3" ry="3" style="stroke: #038048; stroke-width: 1.0;"/><text fill="#000000" font-family="sans-serif" font-size="11" lengthAdjust="spacingAndGlyphs" textLength="111" x="42" y="231.5449">ZoneStartBoundary()</text><ellipse cx="33" cy="241.8428" fill="#84BE84" rx="3" ry="3" style="stroke: #038048; stroke-width: 1.0;"/><text fill="#000000" font-family="sans-serif" font-size="11" lengthAdjust="spacingAndGlyphs" textLength="240" x="42" y="244.5">ZoneStartBoundary(double, double, boolean)</text><ellipse cx="33" cy="254.7979" fill="#84BE84" rx="3" ry="3" style="stroke: #038048; stroke-width: 1.0;"/><text fill="#000000" font-family="sans-serif" font-size="11" lengthAdjust="spacingAndGlyphs" textLength="246" x="42" y="257.4551">boundary(Collection&lt;Line&gt;): Optional&lt;Line&gt;</text></a><!--class nl.vaneijndhoven.objects.Boundary--><rect fill="#FEFECE" filter="url(#fzdlip9lwea4p)" height="48" id="nl.vaneijndhoven.objects.Boundary" style="stroke: #A80036; stroke-width: 1.5;" width="86" x="447" y="43"/><ellipse cx="462" cy="59" fill="#ADD1B2" rx="11" ry="11" style="stroke: #A80036; stroke-width: 1.0;"/><path d="M464.9731,64.6431 Q464.3921,64.9419 463.7529,65.0913 Q463.1138,65.2407 462.4082,65.2407 Q459.9014,65.2407 458.5815,63.5889 Q457.2617,61.937 457.2617,58.8159 Q457.2617,55.6865 458.5815,54.0347 Q459.9014,52.3828 462.4082,52.3828 Q463.1138,52.3828 463.7612,52.5322 Q464.4087,52.6816 464.9731,52.9805 L464.9731,55.7031 Q464.3423,55.1221 463.7488,54.8523 Q463.1553,54.5825 462.5244,54.5825 Q461.1797,54.5825 460.4949,55.6492 Q459.8101,56.7158 459.8101,58.8159 Q459.8101,60.9077 460.4949,61.9744 Q461.1797,63.041 462.5244,63.041 Q463.1553,63.041 463.7488,62.7712 Q464.3423,62.5015 464.9731,61.9204 Z "/><text fill="#000000" font-family="sans-serif" font-size="12" lengthAdjust="spacingAndGlyphs" textLength="54" x="476" y="63.5352">Boundary</text><line style="stroke: #A80036; stroke-width: 1.5;" x1="448" x2="532" y1="75" y2="75"/><line style="stroke: #A80036; stroke-width: 1.5;" x1="448" x2="532" y1="83" y2="83"/><!--link nl.vaneijndhoven.objects.Boundary to nl.vaneijndhoven.objects.stoppingzone.ZoneEndBoundary--><path d="M552.544,82.6622 C588.9631,92.6664 635.368,106.9499 675,124 C697.2222,133.5602 720.3932,145.563 741.625,157.4628 " fill="none" id="nl.vaneijndhoven.objects.Boundary-nl.vaneijndhoven.objects.stoppingzone.ZoneEndBoundary" style="stroke: #A80036; stroke-width: 1.0;"/><polygon fill="none" points="550.6935,89.4133,533.1801,77.4852,554.3095,75.8884,550.6935,89.4133" style="stroke: #A80036; stroke-width: 1.0;"/><!--link nl.vaneijndhoven.objects.Boundary to nl.vaneijndhoven.objects.stoppingzone.ZoneStartBoundary--><path d="M427.5013,83.8999 C392.889,94.0287 349.422,108.0292 312,124 C293.5382,131.879 274.3598,141.2455 256.0615,150.8087 " fill="none" id="nl.vaneijndhoven.objects.Boundary-nl.vaneijndhoven.objects.stoppingzone.ZoneStartBoundary" style="stroke: #A80036; stroke-width: 1.0;"/><polygon fill="none" points="425.5909,77.1657,446.7447,78.398,429.4395,90.6264,425.5909,77.1657" style="stroke: #A80036; stroke-width: 1.0;"/><text fill="#888888" font-family="sans-serif" font-size="10" lengthAdjust="spacingAndGlyphs" textLength="182" x="403" y="299.668">UMLDoclet 1.1.4, PlantUML 1.2019.05</text><!--
@startuml

    namespace nl.vaneijndhoven.objects.stoppingzone {

        class ZoneEndBoundary [[ZoneEndBoundary.html]] {
            {static} +DEFAULT_ANGLE: double
            {static} +DEFAULT_TOLERANCE: double
            +ZoneEndBoundary()
            +ZoneEndBoundary(double, double, boolean)
        }

        class StoppingZoneOrientation [[StoppingZoneOrientation.html]] {
            +StoppingZoneOrientation(StoppingZone, Lane, ViewPort)
            +determineDistanceToStoppingZone(): double
            +determineDistanceToStoppingZoneEnd(): double
        }

        class ZoneStartBoundary [[ZoneStartBoundary.html]] {
            {static} +DEFAULT_ANGLE: double
            {static} +DEFAULT_TOLERANCE: double
            +ZoneStartBoundary()
            +ZoneStartBoundary(double, double, boolean)
            +boundary(Collection<Line>): Optional<Line>
        }

        class nl.vaneijndhoven.objects.Boundary
        nl.vaneijndhoven.objects.Boundary <|- - ZoneEndBoundary

        nl.vaneijndhoven.objects.Boundary <|- - ZoneStartBoundary

    }


    center footer UMLDoclet 1.1.4, PlantUML 1.2019.05
@enduml

PlantUML version 1.2019.05(Sat Apr 20 18:45:36 CEST 2019)
(APACHE source distribution)
Java Runtime: Java(TM) SE Runtime Environment
JVM: Java HotSpot(TM) 64-Bit Server VM
Java Version: 1.8.0_152-b16
Operating System: Mac OS X
OS Version: 10.13.6
Default Encoding: UTF-8
Language: de
Country: DE
--></g></svg>