<?xml version="1.0" encoding="UTF-8" standalone="no"?><svg xmlns="http://www.w3.org/2000/svg" xmlns:xlink="http://www.w3.org/1999/xlink" contentScriptType="application/ecmascript" contentStyleType="text/css" height="758px" preserveAspectRatio="none" style="width:1844px;height:758px;" version="1.1" viewBox="0 0 1844 758" width="1844px" zoomAndPan="magnify"><defs><filter height="300%" id="ftzobk08xlopg" width="300%" x="-1" y="-1"><feGaussianBlur result="blurOut" stdDeviation="2.0"/><feColorMatrix in="blurOut" result="blurOut2" type="matrix" values="0 0 0 0 0 0 0 0 0 0 0 0 0 0 0 0 0 0 .4 0"/><feOffset dx="4.0" dy="4.0" in="blurOut2" result="blurOut3"/><feBlend in="SourceGraphic" in2="blurOut3" mode="normal"/></filter></defs><g><!--cluster org.rcdukes.action--><polygon fill="#FFFFFF" filter="url(#ftzobk08xlopg)" points="14,16,150,16,157,38.4883,1267,38.4883,1267,717,14,717,14,16" style="stroke: #000000; stroke-width: 1.5;"/><line style="stroke: #000000; stroke-width: 1.5;" x1="14" x2="157" y1="38.4883" y2="38.4883"/><text fill="#000000" font-family="sans-serif" font-size="14" font-weight="bold" lengthAdjust="spacingAndGlyphs" textLength="130" x="18" y="31.5352">org.rcdukes.action</text><!--cluster org.rcdukes.common--><polygon fill="#FFFFFF" filter="url(#ftzobk08xlopg)" points="1275,224,1429,224,1436,246.4883,1822,246.4883,1822,372,1275,372,1275,224" style="stroke: #000000; stroke-width: 1.5;"/><line style="stroke: #000000; stroke-width: 1.5;" x1="1275" x2="1436" y1="246.4883" y2="246.4883"/><text fill="#000000" font-family="sans-serif" font-size="14" font-weight="bold" lengthAdjust="spacingAndGlyphs" textLength="148" x="1279" y="239.5352">org.rcdukes.common</text><!--class org.rcdukes.action.ActionVerticle--><a href="ActionVerticle.html" target="_top" xlink:actuate="onRequest" xlink:show="new" xlink:title="ActionVerticle.html" xlink:type="simple"><rect fill="#FEFECE" filter="url(#ftzobk08xlopg)" height="73.9102" id="org.rcdukes.action.ActionVerticle" style="stroke: #A80036; stroke-width: 1.5;" width="236" x="1023" y="69"/><ellipse cx="1097.75" cy="85" fill="#ADD1B2" rx="11" ry="11" style="stroke: #A80036; stroke-width: 1.0;"/><path d="M1100.7231,90.6431 Q1100.1421,90.9419 1099.5029,91.0913 Q1098.8638,91.2407 1098.1582,91.2407 Q1095.6514,91.2407 1094.3315,89.5889 Q1093.0117,87.937 1093.0117,84.8159 Q1093.0117,81.6865 1094.3315,80.0347 Q1095.6514,78.3828 1098.1582,78.3828 Q1098.8638,78.3828 1099.5112,78.5322 Q1100.1587,78.6816 1100.7231,78.9805 L1100.7231,81.7031 Q1100.0923,81.1221 1099.4988,80.8523 Q1098.9053,80.5825 1098.2744,80.5825 Q1096.9297,80.5825 1096.2449,81.6492 Q1095.5601,82.7158 1095.5601,84.8159 Q1095.5601,86.9077 1096.2449,87.9744 Q1096.9297,89.041 1098.2744,89.041 Q1098.9053,89.041 1099.4988,88.7712 Q1100.0923,88.5015 1100.7231,87.9204 Z "/><text fill="#000000" font-family="sans-serif" font-size="12" lengthAdjust="spacingAndGlyphs" textLength="78" x="1118.25" y="89.5352">ActionVerticle</text><line style="stroke: #A80036; stroke-width: 1.5;" x1="1024" x2="1258" y1="101" y2="101"/><line style="stroke: #A80036; stroke-width: 1.5;" x1="1024" x2="1258" y1="109" y2="109"/><ellipse cx="1034" cy="120.9775" fill="#84BE84" rx="3" ry="3" style="stroke: #038048; stroke-width: 1.0;"/><text fill="#000000" font-family="sans-serif" font-size="11" lengthAdjust="spacingAndGlyphs" textLength="62" x="1043" y="123.6348">start(): void</text><ellipse cx="1034" cy="133.9326" fill="#84BE84" rx="3" ry="3" style="stroke: #038048; stroke-width: 1.0;"/><text fill="#000000" font-family="sans-serif" font-size="11" lengthAdjust="spacingAndGlyphs" text-decoration="underline" textLength="210" x="1043" y="136.5898">emergencyStopCommand(): JsonObject</text></a><!--class org.rcdukes.action.StoppingZoneDetector--><a href="StoppingZoneDetector.html" target="_top" xlink:actuate="onRequest" xlink:show="new" xlink:title="StoppingZoneDetector.html" xlink:type="simple"><rect fill="#FEFECE" filter="url(#ftzobk08xlopg)" height="60.9551" id="org.rcdukes.action.StoppingZoneDetector" style="stroke: #A80036; stroke-width: 1.5;" width="268" x="720" y="75.5"/><ellipse cx="786.25" cy="91.5" fill="#ADD1B2" rx="11" ry="11" style="stroke: #A80036; stroke-width: 1.0;"/><path d="M789.2231,97.1431 Q788.6421,97.4419 788.0029,97.5913 Q787.3638,97.7407 786.6582,97.7407 Q784.1514,97.7407 782.8315,96.0889 Q781.5117,94.437 781.5117,91.3159 Q781.5117,88.1865 782.8315,86.5347 Q784.1514,84.8828 786.6582,84.8828 Q787.3638,84.8828 788.0112,85.0322 Q788.6587,85.1816 789.2231,85.4805 L789.2231,88.2031 Q788.5923,87.6221 787.9988,87.3523 Q787.4053,87.0825 786.7744,87.0825 Q785.4297,87.0825 784.7449,88.1492 Q784.0601,89.2158 784.0601,91.3159 Q784.0601,93.4077 784.7449,94.4744 Q785.4297,95.541 786.7744,95.541 Q787.4053,95.541 787.9988,95.2712 Q788.5923,95.0015 789.2231,94.4204 Z "/><text fill="#000000" font-family="sans-serif" font-size="12" lengthAdjust="spacingAndGlyphs" textLength="127" x="806.75" y="96.0352">StoppingZoneDetector</text><line style="stroke: #A80036; stroke-width: 1.5;" x1="721" x2="987" y1="107.5" y2="107.5"/><line style="stroke: #A80036; stroke-width: 1.5;" x1="721" x2="987" y1="115.5" y2="115.5"/><ellipse cx="731" cy="127.4775" fill="#84BE84" rx="3" ry="3" style="stroke: #038048; stroke-width: 1.0;"/><text fill="#000000" font-family="sans-serif" font-size="11" lengthAdjust="spacingAndGlyphs" textLength="242" x="740" y="130.1348">detect(JsonObject): Observable&lt;JsonObject&gt;</text></a><!--class org.rcdukes.action.StartLightObserver--><a href="StartLightObserver.html" target="_top" xlink:actuate="onRequest" xlink:show="new" xlink:title="StartLightObserver.html" xlink:type="simple"><rect fill="#FEFECE" filter="url(#ftzobk08xlopg)" height="60.9551" id="org.rcdukes.action.StartLightObserver" style="stroke: #A80036; stroke-width: 1.5;" width="278" x="407" y="75.5"/><ellipse cx="488.75" cy="91.5" fill="#ADD1B2" rx="11" ry="11" style="stroke: #A80036; stroke-width: 1.0;"/><path d="M491.7231,97.1431 Q491.1421,97.4419 490.5029,97.5913 Q489.8638,97.7407 489.1582,97.7407 Q486.6514,97.7407 485.3315,96.0889 Q484.0117,94.437 484.0117,91.3159 Q484.0117,88.1865 485.3315,86.5347 Q486.6514,84.8828 489.1582,84.8828 Q489.8638,84.8828 490.5112,85.0322 Q491.1587,85.1816 491.7231,85.4805 L491.7231,88.2031 Q491.0923,87.6221 490.4988,87.3523 Q489.9053,87.0825 489.2744,87.0825 Q487.9297,87.0825 487.2449,88.1492 Q486.5601,89.2158 486.5601,91.3159 Q486.5601,93.4077 487.2449,94.4744 Q487.9297,95.541 489.2744,95.541 Q489.9053,95.541 490.4988,95.2712 Q491.0923,95.0015 491.7231,94.4204 Z "/><text fill="#000000" font-family="sans-serif" font-size="12" lengthAdjust="spacingAndGlyphs" textLength="106" x="509.25" y="96.0352">StartLightObserver</text><line style="stroke: #A80036; stroke-width: 1.5;" x1="408" x2="684" y1="107.5" y2="107.5"/><line style="stroke: #A80036; stroke-width: 1.5;" x1="408" x2="684" y1="115.5" y2="115.5"/><ellipse cx="418" cy="127.4775" fill="#84BE84" rx="3" ry="3" style="stroke: #038048; stroke-width: 1.0;"/><text fill="#000000" font-family="sans-serif" font-size="11" lengthAdjust="spacingAndGlyphs" textLength="252" x="427" y="130.1348">observe(JsonObject): Observable&lt;JsonObject&gt;</text></a><!--class org.rcdukes.action.Navigator--><a href="Navigator.html" target="_top" xlink:actuate="onRequest" xlink:show="new" xlink:title="Navigator.html" xlink:type="simple"><rect fill="#FEFECE" filter="url(#ftzobk08xlopg)" height="125.7305" id="org.rcdukes.action.Navigator" style="stroke: #A80036; stroke-width: 1.5;" width="349" x="22.5" y="43"/><ellipse cx="165.25" cy="59" fill="#B4A7E5" rx="11" ry="11" style="stroke: #A80036; stroke-width: 1.0;"/><path d="M161.1777,54.7651 L161.1777,52.6069 L168.5571,52.6069 L168.5571,54.7651 L166.0918,54.7651 L166.0918,62.8418 L168.5571,62.8418 L168.5571,65 L161.1777,65 L161.1777,62.8418 L163.6431,62.8418 L163.6431,54.7651 Z "/><text fill="#000000" font-family="sans-serif" font-size="12" font-style="italic" lengthAdjust="spacingAndGlyphs" textLength="55" x="185.75" y="63.5352">Navigator</text><line style="stroke: #A80036; stroke-width: 1.5;" x1="23.5" x2="370.5" y1="75" y2="75"/><line style="stroke: #A80036; stroke-width: 1.5;" x1="23.5" x2="370.5" y1="83" y2="83"/><ellipse cx="33.5" cy="94.9775" fill="#84BE84" rx="3" ry="3" style="stroke: #038048; stroke-width: 1.0;"/><text fill="#000000" font-family="sans-serif" font-size="11" font-style="italic" lengthAdjust="spacingAndGlyphs" textLength="265" x="42.5" y="97.6348">fromJsonObject(JsonObject): LaneDetectionResult</text><ellipse cx="33.5" cy="107.9326" fill="#84BE84" rx="3" ry="3" style="stroke: #038048; stroke-width: 1.0;"/><text fill="#000000" font-family="sans-serif" font-size="11" font-style="italic" lengthAdjust="spacingAndGlyphs" textLength="314" x="42.5" y="110.5898">getNavigationInstruction(LaneDetectionResult): JsonObject</text><ellipse cx="33.5" cy="120.8877" fill="#84BE84" rx="3" ry="3" style="stroke: #038048; stroke-width: 1.0;"/><text fill="#000000" font-family="sans-serif" font-size="11" font-style="italic" lengthAdjust="spacingAndGlyphs" textLength="222" x="42.5" y="123.5449">navigateWithInstruction(JsonObject): void</text><ellipse cx="33.5" cy="133.8428" fill="#84BE84" rx="3" ry="3" style="stroke: #038048; stroke-width: 1.0;"/><text fill="#000000" font-family="sans-serif" font-size="11" font-style="italic" lengthAdjust="spacingAndGlyphs" textLength="273" x="42.5" y="136.5">navigateWithMessage(Message&lt;JsonObject&gt;): void</text><ellipse cx="33.5" cy="146.7979" fill="#84BE84" rx="3" ry="3" style="stroke: #038048; stroke-width: 1.0;"/><text fill="#000000" font-family="sans-serif" font-size="11" font-style="italic" lengthAdjust="spacingAndGlyphs" textLength="323" x="42.5" y="149.4551">navigateWithLaneDetectionResult(LaneDetectionResult): void</text><ellipse cx="33.5" cy="159.7529" fill="#84BE84" rx="3" ry="3" style="stroke: #038048; stroke-width: 1.0;"/><text fill="#000000" font-family="sans-serif" font-size="11" font-style="italic" lengthAdjust="spacingAndGlyphs" textLength="249" x="42.5" y="162.4102">videoStopped(VideoRecorders.VideoInfo): void</text></a><!--class org.rcdukes.action.StraightLaneNavigator--><a href="StraightLaneNavigator.html" target="_top" xlink:actuate="onRequest" xlink:show="new" xlink:title="StraightLaneNavigator.html" xlink:type="simple"><rect fill="#FEFECE" filter="url(#ftzobk08xlopg)" height="268.2363" id="org.rcdukes.action.StraightLaneNavigator" style="stroke: #A80036; stroke-width: 1.5;" width="349" x="909.5" y="441"/><ellipse cx="1017.25" cy="457" fill="#ADD1B2" rx="11" ry="11" style="stroke: #A80036; stroke-width: 1.0;"/><path d="M1020.2231,462.6431 Q1019.6421,462.9419 1019.0029,463.0913 Q1018.3638,463.2407 1017.6582,463.2407 Q1015.1514,463.2407 1013.8315,461.5889 Q1012.5117,459.937 1012.5117,456.8159 Q1012.5117,453.6865 1013.8315,452.0347 Q1015.1514,450.3828 1017.6582,450.3828 Q1018.3638,450.3828 1019.0112,450.5322 Q1019.6587,450.6816 1020.2231,450.9805 L1020.2231,453.7031 Q1019.5923,453.1221 1018.9988,452.8523 Q1018.4053,452.5825 1017.7744,452.5825 Q1016.4297,452.5825 1015.7449,453.6492 Q1015.0601,454.7158 1015.0601,456.8159 Q1015.0601,458.9077 1015.7449,459.9744 Q1016.4297,461.041 1017.7744,461.041 Q1018.4053,461.041 1018.9988,460.7712 Q1019.5923,460.5015 1020.2231,459.9204 Z "/><text fill="#000000" font-family="sans-serif" font-size="12" lengthAdjust="spacingAndGlyphs" textLength="125" x="1037.75" y="461.5352">StraightLaneNavigator</text><line style="stroke: #A80036; stroke-width: 1.5;" x1="910.5" x2="1257.5" y1="473" y2="473"/><ellipse cx="920.5" cy="484.9775" fill="none" rx="3" ry="3" style="stroke: #038048; stroke-width: 1.0;"/><text fill="#000000" font-family="sans-serif" font-size="11" lengthAdjust="spacingAndGlyphs" text-decoration="underline" textLength="173" x="929.5" y="487.6348">COMMAND_LOOP_INTERVAL: int</text><ellipse cx="920.5" cy="497.9326" fill="none" rx="3" ry="3" style="stroke: #038048; stroke-width: 1.0;"/><text fill="#000000" font-family="sans-serif" font-size="11" lengthAdjust="spacingAndGlyphs" text-decoration="underline" textLength="228" x="929.5" y="500.5898">MAX_DURATION_NO_LINES_DETECTED: int</text><ellipse cx="920.5" cy="510.8877" fill="none" rx="3" ry="3" style="stroke: #038048; stroke-width: 1.0;"/><text fill="#000000" font-family="sans-serif" font-size="11" lengthAdjust="spacingAndGlyphs" text-decoration="underline" textLength="152" x="929.5" y="513.5449">DEFAULT_TIME_WINDOW: int</text><polygon fill="none" points="920.5,518.8428,924.5,522.8428,920.5,526.8428,916.5,522.8428" style="stroke: #B38D22; stroke-width: 1.0;"/><text fill="#000000" font-family="sans-serif" font-size="11" lengthAdjust="spacingAndGlyphs" text-decoration="underline" textLength="67" x="929.5" y="526.5">LOG: Logger</text><line style="stroke: #A80036; stroke-width: 1.5;" x1="910.5" x2="1257.5" y1="532.8203" y2="532.8203"/><ellipse cx="920.5" cy="544.7979" fill="#84BE84" rx="3" ry="3" style="stroke: #038048; stroke-width: 1.0;"/><text fill="#000000" font-family="sans-serif" font-size="11" lengthAdjust="spacingAndGlyphs" textLength="127" x="929.5" y="547.4551">StraightLaneNavigator()</text><ellipse cx="920.5" cy="557.7529" fill="#84BE84" rx="3" ry="3" style="stroke: #038048; stroke-width: 1.0;"/><text fill="#000000" font-family="sans-serif" font-size="11" lengthAdjust="spacingAndGlyphs" textLength="141" x="929.5" y="560.4102">StraightLaneNavigator(int)</text><ellipse cx="920.5" cy="570.708" fill="#84BE84" rx="3" ry="3" style="stroke: #038048; stroke-width: 1.0;"/><text fill="#000000" font-family="sans-serif" font-size="11" lengthAdjust="spacingAndGlyphs" textLength="225" x="929.5" y="573.3652">addToGraph(LaneDetectionResult): Vertex</text><ellipse cx="920.5" cy="583.6631" fill="#84BE84" rx="3" ry="3" style="stroke: #038048; stroke-width: 1.0;"/><text fill="#000000" font-family="sans-serif" font-size="11" lengthAdjust="spacingAndGlyphs" textLength="265" x="929.5" y="586.3203">fromJsonObject(JsonObject): LaneDetectionResult</text><ellipse cx="920.5" cy="596.6182" fill="#84BE84" rx="3" ry="3" style="stroke: #038048; stroke-width: 1.0;"/><text fill="#000000" font-family="sans-serif" font-size="11" lengthAdjust="spacingAndGlyphs" textLength="301" x="929.5" y="599.2754">cmdOk(StraightLaneNavigator.AngleRange, int): boolean</text><ellipse cx="920.5" cy="609.5732" fill="#84BE84" rx="3" ry="3" style="stroke: #038048; stroke-width: 1.0;"/><text fill="#000000" font-family="sans-serif" font-size="11" lengthAdjust="spacingAndGlyphs" textLength="188" x="929.5" y="612.2305">setTime(LaneDetectionResult): void</text><ellipse cx="920.5" cy="622.5283" fill="#84BE84" rx="3" ry="3" style="stroke: #038048; stroke-width: 1.0;"/><text fill="#000000" font-family="sans-serif" font-size="11" lengthAdjust="spacingAndGlyphs" textLength="210" x="929.5" y="625.1855">analyzeAngleRanges(int, boolean): void</text><ellipse cx="920.5" cy="635.4834" fill="#84BE84" rx="3" ry="3" style="stroke: #038048; stroke-width: 1.0;"/><text fill="#000000" font-family="sans-serif" font-size="11" lengthAdjust="spacingAndGlyphs" textLength="314" x="929.5" y="638.1406">getNavigationInstruction(LaneDetectionResult): JsonObject</text><ellipse cx="920.5" cy="648.4385" fill="#84BE84" rx="3" ry="3" style="stroke: #038048; stroke-width: 1.0;"/><text fill="#000000" font-family="sans-serif" font-size="11" lengthAdjust="spacingAndGlyphs" textLength="192" x="929.5" y="651.0957">steerCommand(Double): JsonObject</text><ellipse cx="920.5" cy="661.3936" fill="#84BE84" rx="3" ry="3" style="stroke: #038048; stroke-width: 1.0;"/><text fill="#000000" font-family="sans-serif" font-size="11" lengthAdjust="spacingAndGlyphs" textLength="222" x="929.5" y="664.0508">navigateWithInstruction(JsonObject): void</text><ellipse cx="920.5" cy="674.3486" fill="#84BE84" rx="3" ry="3" style="stroke: #038048; stroke-width: 1.0;"/><text fill="#000000" font-family="sans-serif" font-size="11" lengthAdjust="spacingAndGlyphs" textLength="273" x="929.5" y="677.0059">navigateWithMessage(Message&lt;JsonObject&gt;): void</text><ellipse cx="920.5" cy="687.3037" fill="#84BE84" rx="3" ry="3" style="stroke: #038048; stroke-width: 1.0;"/><text fill="#000000" font-family="sans-serif" font-size="11" lengthAdjust="spacingAndGlyphs" textLength="323" x="929.5" y="689.9609">navigateWithLaneDetectionResult(LaneDetectionResult): void</text><ellipse cx="920.5" cy="700.2588" fill="#84BE84" rx="3" ry="3" style="stroke: #038048; stroke-width: 1.0;"/><text fill="#000000" font-family="sans-serif" font-size="11" lengthAdjust="spacingAndGlyphs" textLength="249" x="929.5" y="702.916">videoStopped(VideoRecorders.VideoInfo): void</text></a><!--class org.rcdukes.common.DukesVerticle--><rect fill="#FEFECE" filter="url(#ftzobk08xlopg)" height="48" id="org.rcdukes.common.DukesVerticle" style="stroke: #A80036; stroke-width: 1.5;" width="111" x="1702.5" y="283.5"/><ellipse cx="1717.5" cy="299.5" fill="#A9DCDF" rx="11" ry="11" style="stroke: #A80036; stroke-width: 1.0;"/><path d="M1717.6133,294.8481 L1716.4595,299.9199 L1718.7754,299.9199 Z M1716.1191,292.6069 L1719.1157,292.6069 L1722.4609,305 L1720.0122,305 L1719.2485,301.937 L1715.9697,301.937 L1715.2227,305 L1712.7739,305 Z "/><text fill="#000000" font-family="sans-serif" font-size="12" font-style="italic" lengthAdjust="spacingAndGlyphs" textLength="79" x="1731.5" y="304.0352">DukesVerticle</text><line style="stroke: #A80036; stroke-width: 1.5;" x1="1703.5" x2="1812.5" y1="315.5" y2="315.5"/><line style="stroke: #A80036; stroke-width: 1.5;" x1="1703.5" x2="1812.5" y1="323.5" y2="323.5"/><!--class org.rcdukes.common.GraphDatabase--><rect fill="#FEFECE" filter="url(#ftzobk08xlopg)" height="112.7754" id="org.rcdukes.common.GraphDatabase" style="stroke: #A80036; stroke-width: 1.5;" width="203" x="1464.5" y="251"/><ellipse cx="1516.25" cy="267" fill="#B4A7E5" rx="11" ry="11" style="stroke: #A80036; stroke-width: 1.0;"/><path d="M1512.1777,262.7651 L1512.1777,260.6069 L1519.5571,260.6069 L1519.5571,262.7651 L1517.0918,262.7651 L1517.0918,270.8418 L1519.5571,270.8418 L1519.5571,273 L1512.1777,273 L1512.1777,270.8418 L1514.6431,270.8418 L1514.6431,262.7651 Z "/><text fill="#000000" font-family="sans-serif" font-size="12" font-style="italic" lengthAdjust="spacingAndGlyphs" textLength="91" x="1536.75" y="271.5352">GraphDatabase</text><line style="stroke: #A80036; stroke-width: 1.5;" x1="1465.5" x2="1666.5" y1="283" y2="283"/><line style="stroke: #A80036; stroke-width: 1.5;" x1="1465.5" x2="1666.5" y1="291" y2="291"/><ellipse cx="1475.5" cy="302.9775" fill="#84BE84" rx="3" ry="3" style="stroke: #038048; stroke-width: 1.0;"/><text fill="#000000" font-family="sans-serif" font-size="11" font-style="italic" lengthAdjust="spacingAndGlyphs" textLength="141" x="1484.5" y="305.6348">g(): GraphTraversalSource</text><ellipse cx="1475.5" cy="315.9326" fill="#84BE84" rx="3" ry="3" style="stroke: #038048; stroke-width: 1.0;"/><text fill="#000000" font-family="sans-serif" font-size="11" font-style="italic" lengthAdjust="spacingAndGlyphs" textLength="128" x="1484.5" y="318.5898">writeGraph(String): void</text><ellipse cx="1475.5" cy="328.8877" fill="#84BE84" rx="3" ry="3" style="stroke: #038048; stroke-width: 1.0;"/><text fill="#000000" font-family="sans-serif" font-size="11" font-style="italic" lengthAdjust="spacingAndGlyphs" textLength="111" x="1484.5" y="331.5449">loadGraph(File): void</text><ellipse cx="1475.5" cy="341.8428" fill="#84BE84" rx="3" ry="3" style="stroke: #038048; stroke-width: 1.0;"/><text fill="#000000" font-family="sans-serif" font-size="11" font-style="italic" lengthAdjust="spacingAndGlyphs" textLength="177" x="1484.5" y="344.5">fromVertex(Vertex, Class&lt;T&gt;): T</text><ellipse cx="1475.5" cy="354.7979" fill="#84BE84" rx="3" ry="3" style="stroke: #038048; stroke-width: 1.0;"/><text fill="#000000" font-family="sans-serif" font-size="11" font-style="italic" lengthAdjust="spacingAndGlyphs" textLength="127" x="1484.5" y="357.4551">addVertex(Object): void</text><!--class org.rcdukes.common.TinkerPopDatabase--><rect fill="#FEFECE" filter="url(#ftzobk08xlopg)" height="48" id="org.rcdukes.common.TinkerPopDatabase" style="stroke: #A80036; stroke-width: 1.5;" width="146" x="1283" y="283.5"/><ellipse cx="1298" cy="299.5" fill="#ADD1B2" rx="11" ry="11" style="stroke: #A80036; stroke-width: 1.0;"/><path d="M1300.9731,305.1431 Q1300.3921,305.4419 1299.7529,305.5913 Q1299.1138,305.7407 1298.4082,305.7407 Q1295.9014,305.7407 1294.5815,304.0889 Q1293.2617,302.437 1293.2617,299.3159 Q1293.2617,296.1865 1294.5815,294.5347 Q1295.9014,292.8828 1298.4082,292.8828 Q1299.1138,292.8828 1299.7612,293.0322 Q1300.4087,293.1816 1300.9731,293.4805 L1300.9731,296.2031 Q1300.3423,295.6221 1299.7488,295.3523 Q1299.1553,295.0825 1298.5244,295.0825 Q1297.1797,295.0825 1296.4949,296.1492 Q1295.8101,297.2158 1295.8101,299.3159 Q1295.8101,301.4077 1296.4949,302.4744 Q1297.1797,303.541 1298.5244,303.541 Q1299.1553,303.541 1299.7488,303.2712 Q1300.3423,303.0015 1300.9731,302.4204 Z "/><text fill="#000000" font-family="sans-serif" font-size="12" lengthAdjust="spacingAndGlyphs" textLength="114" x="1312" y="304.0352">TinkerPopDatabase</text><line style="stroke: #A80036; stroke-width: 1.5;" x1="1284" x2="1428" y1="315.5" y2="315.5"/><line style="stroke: #A80036; stroke-width: 1.5;" x1="1284" x2="1428" y1="323.5" y2="323.5"/><!--link org.rcdukes.common.DukesVerticle to org.rcdukes.action.ActionVerticle--><path d="M1731.2082,266.9366 C1718.9032,251.2894 1703.0252,234.634 1685,224 C1614.0937,182.1689 1396.6155,143.7519 1259.0669,122.7328 " fill="none" id="org.rcdukes.common.DukesVerticle-org.rcdukes.action.ActionVerticle" style="stroke: #A80036; stroke-width: 1.0;"/><polygon fill="none" points="1736.9362,262.9108,1743.0905,283.1871,1725.635,271.1743,1736.9362,262.9108" style="stroke: #A80036; stroke-width: 1.0;"/><!--link org.rcdukes.common.GraphDatabase to org.rcdukes.action.Navigator--><path d="M1481.989,240.096 C1470.7246,233.6465 1458.9277,228.0222 1447,224 C1425.1895,216.6452 1262.9918,217.0799 1240,216 C1051.0309,207.1246 575.9361,203.869 390,169 C383.9375,167.8631 377.8019,166.5872 371.6317,165.1967 " fill="none" id="org.rcdukes.common.GraphDatabase-org.rcdukes.action.Navigator" style="stroke: #A80036; stroke-width: 1.0; stroke-dasharray: 7.0,7.0;"/><polygon fill="none" points="1485.909,234.2907,1499.194,250.7986,1478.5141,246.1783,1485.909,234.2907" style="stroke: #A80036; stroke-width: 1.0;"/><!--link org.rcdukes.common.TinkerPopDatabase to org.rcdukes.action.StraightLaneNavigator--><path d="M1317.0579,345.7979 C1291.3206,371.1094 1255.9005,405.9435 1220.4405,440.8168 " fill="none" id="org.rcdukes.common.TinkerPopDatabase-org.rcdukes.action.StraightLaneNavigator" style="stroke: #A80036; stroke-width: 1.0;"/><polygon fill="none" points="1312.2142,340.7435,1331.3821,331.7106,1322.0308,350.7252,1312.2142,340.7435" style="stroke: #A80036; stroke-width: 1.0;"/><!--link org.rcdukes.action.Navigator to org.rcdukes.action.StraightLaneNavigator--><path d="M334.0674,178.4742 C488.7371,260.2556 740.6852,393.4728 909.3372,482.6473 " fill="none" id="org.rcdukes.action.Navigator-org.rcdukes.action.StraightLaneNavigator" style="stroke: #A80036; stroke-width: 1.0; stroke-dasharray: 7.0,7.0;"/><polygon fill="none" points="330.5728,184.5448,316.1642,169.0079,337.1169,172.1684,330.5728,184.5448" style="stroke: #A80036; stroke-width: 1.0;"/><!--link org.rcdukes.action.Navigator to org.rcdukes.common.DukesVerticle--><path d="M371.613,165.2977 C377.7886,166.6595 383.9303,167.9019 390,169 C407.7147,172.2049 1668.7697,216.2115 1685,224 C1709.3705,235.6948 1728.9647,259.6727 1741.6925,278.9456 " fill="none" id="org.rcdukes.action.Navigator-org.rcdukes.common.DukesVerticle" style="stroke: #A80036; stroke-width: 1.0;"/><polygon fill="#A80036" points="1744.4616,283.2304,1742.936,273.5004,1741.7477,279.0311,1736.217,277.8427,1744.4616,283.2304" style="stroke: #A80036; stroke-width: 1.0;"/><text fill="#000000" font-family="sans-serif" font-size="13" lengthAdjust="spacingAndGlyphs" textLength="42" x="1546" y="212.5684">sender</text><!--link org.rcdukes.action.StraightLaneNavigator to org.rcdukes.common.DukesVerticle--><path d="M1258.5096,535.7436 C1382.8314,503.1864 1550.9617,449.5837 1685,372 C1702.1251,362.0877 1718.8449,347.7632 1731.9527,335.1301 " fill="none" id="org.rcdukes.action.StraightLaneNavigator-org.rcdukes.common.DukesVerticle" style="stroke: #A80036; stroke-width: 1.0;"/><polygon fill="#A80036" points="1735.5514,331.6168,1726.3172,335.0418,1731.9737,335.1097,1731.9058,340.7661,1735.5514,331.6168" style="stroke: #A80036; stroke-width: 1.0;"/><text fill="#000000" font-family="sans-serif" font-size="13" lengthAdjust="spacingAndGlyphs" textLength="42" x="1640" y="407.5684">sender</text><text fill="#888888" font-family="sans-serif" font-size="10" lengthAdjust="spacingAndGlyphs" textLength="182" x="833" y="744.668">UMLDoclet 1.1.4, PlantUML 1.2019.05</text><!--
@startuml

    namespace org.rcdukes.action {

        class ActionVerticle [[ActionVerticle.html]] {
            +start(): void
            {static} +emergencyStopCommand(): JsonObject
        }

        class StoppingZoneDetector [[StoppingZoneDetector.html]] {
            +detect(JsonObject): Observable<JsonObject>
        }

        class StartLightObserver [[StartLightObserver.html]] {
            +observe(JsonObject): Observable<JsonObject>
        }

        interface Navigator [[Navigator.html]] {
            {abstract} +fromJsonObject(JsonObject): LaneDetectionResult
            {abstract} +getNavigationInstruction(LaneDetectionResult): JsonObject
            {abstract} +navigateWithInstruction(JsonObject): void
            {abstract} +navigateWithMessage(Message<JsonObject>): void
            {abstract} +navigateWithLaneDetectionResult(LaneDetectionResult): void
            {abstract} +videoStopped(VideoRecorders.VideoInfo): void
        }

        class StraightLaneNavigator [[StraightLaneNavigator.html]] {
            {static} +COMMAND_LOOP_INTERVAL: int
            {static} +MAX_DURATION_NO_LINES_DETECTED: int
            {static} +DEFAULT_TIME_WINDOW: int
            {static} #LOG: Logger
            +StraightLaneNavigator()
            +StraightLaneNavigator(int)
            +addToGraph(LaneDetectionResult): Vertex
            +fromJsonObject(JsonObject): LaneDetectionResult
            +cmdOk(StraightLaneNavigator.AngleRange, int): boolean
            +setTime(LaneDetectionResult): void
            +analyzeAngleRanges(int, boolean): void
            +getNavigationInstruction(LaneDetectionResult): JsonObject
            +steerCommand(Double): JsonObject
            +navigateWithInstruction(JsonObject): void
            +navigateWithMessage(Message<JsonObject>): void
            +navigateWithLaneDetectionResult(LaneDetectionResult): void
            +videoStopped(VideoRecorders.VideoInfo): void
        }

        abstract class org.rcdukes.common.DukesVerticle
        org.rcdukes.common.DukesVerticle <|- - ActionVerticle

        interface org.rcdukes.common.GraphDatabase {
            {abstract} +g(): GraphTraversalSource
            {abstract} +writeGraph(String): void
            {abstract} +loadGraph(File): void
            {abstract} +fromVertex(Vertex, Class<T>): T
            {abstract} +addVertex(Object): void
        }
        org.rcdukes.common.GraphDatabase <|.. Navigator

        class org.rcdukes.common.TinkerPopDatabase
        org.rcdukes.common.TinkerPopDatabase <|- - StraightLaneNavigator

        Navigator <|.. StraightLaneNavigator

        Navigator - -> org.rcdukes.common.DukesVerticle: sender

        StraightLaneNavigator - -> org.rcdukes.common.DukesVerticle: sender

    }


    center footer UMLDoclet 1.1.4, PlantUML 1.2019.05
@enduml

PlantUML version 1.2019.05(Sat Apr 20 18:45:36 CEST 2019)
(APACHE source distribution)
Java Runtime: Java(TM) SE Runtime Environment
JVM: Java HotSpot(TM) 64-Bit Server VM
Java Version: 1.8.0_152-b16
Operating System: Mac OS X
OS Version: 10.13.6
Default Encoding: UTF-8
Language: de
Country: DE
--></g></svg>