<?xml version="1.0" encoding="UTF-8" standalone="no"?><svg xmlns="http://www.w3.org/2000/svg" xmlns:xlink="http://www.w3.org/1999/xlink" contentScriptType="application/ecmascript" contentStyleType="text/css" height="274px" preserveAspectRatio="none" style="width:635px;height:274px;" version="1.1" viewBox="0 0 635 274" width="635px" zoomAndPan="magnify"><defs><filter height="300%" id="f1rykf32003bwj" width="300%" x="-1" y="-1"><feGaussianBlur result="blurOut" stdDeviation="2.0"/><feColorMatrix in="blurOut" result="blurOut2" type="matrix" values="0 0 0 0 0 0 0 0 0 0 0 0 0 0 0 0 0 0 .4 0"/><feOffset dx="4.0" dy="4.0" in="blurOut2" result="blurOut3"/><feBlend in="SourceGraphic" in2="blurOut3" mode="normal"/></filter></defs><g><!--cluster nl.vaneijndhoven.dukes.action.drag--><polygon fill="#FFFFFF" filter="url(#f1rykf32003bwj)" points="14,16,269,16,276,38.4883,613,38.4883,613,233,14,233,14,16" style="stroke: #000000; stroke-width: 1.5;"/><line style="stroke: #000000; stroke-width: 1.5;" x1="14" x2="276" y1="38.4883" y2="38.4883"/><text fill="#000000" font-family="sans-serif" font-size="14" font-weight="bold" lengthAdjust="spacingAndGlyphs" textLength="249" x="18" y="31.5352">nl.vaneijndhoven.dukes.action.drag</text><!--class nl.vaneijndhoven.dukes.action.drag.StraightLaneNavigator--><a href="StraightLaneNavigator.html" target="_top" xlink:actuate="onRequest" xlink:show="new" xlink:title="StraightLaneNavigator.html" xlink:type="simple"><rect fill="#FEFECE" filter="url(#f1rykf32003bwj)" height="60.9551" id="nl.vaneijndhoven.dukes.action.drag.StraightLaneNavigator" style="stroke: #A80036; stroke-width: 1.5;" width="280" x="22" y="43"/><ellipse cx="95.25" cy="59" fill="#ADD1B2" rx="11" ry="11" style="stroke: #A80036; stroke-width: 1.0;"/><path d="M98.2231,64.6431 Q97.6421,64.9419 97.0029,65.0913 Q96.3638,65.2407 95.6582,65.2407 Q93.1514,65.2407 91.8315,63.5889 Q90.5117,61.937 90.5117,58.8159 Q90.5117,55.6865 91.8315,54.0347 Q93.1514,52.3828 95.6582,52.3828 Q96.3638,52.3828 97.0112,52.5322 Q97.6587,52.6816 98.2231,52.9805 L98.2231,55.7031 Q97.5923,55.1221 96.9988,54.8523 Q96.4053,54.5825 95.7744,54.5825 Q94.4297,54.5825 93.7449,55.6492 Q93.0601,56.7158 93.0601,58.8159 Q93.0601,60.9077 93.7449,61.9744 Q94.4297,63.041 95.7744,63.041 Q96.4053,63.041 96.9988,62.7712 Q97.5923,62.5015 98.2231,61.9204 Z "/><text fill="#000000" font-family="sans-serif" font-size="12" lengthAdjust="spacingAndGlyphs" textLength="125" x="115.75" y="63.5352">StraightLaneNavigator</text><line style="stroke: #A80036; stroke-width: 1.5;" x1="23" x2="301" y1="75" y2="75"/><line style="stroke: #A80036; stroke-width: 1.5;" x1="23" x2="301" y1="83" y2="83"/><ellipse cx="33" cy="94.9775" fill="#84BE84" rx="3" ry="3" style="stroke: #038048; stroke-width: 1.0;"/><text fill="#000000" font-family="sans-serif" font-size="11" lengthAdjust="spacingAndGlyphs" textLength="254" x="42" y="97.6348">navigate(JsonObject): Observable&lt;JsonObject&gt;</text></a><!--class nl.vaneijndhoven.dukes.action.drag.StoppingZoneDetector--><a href="StoppingZoneDetector.html" target="_top" xlink:actuate="onRequest" xlink:show="new" xlink:title="StoppingZoneDetector.html" xlink:type="simple"><rect fill="#FEFECE" filter="url(#f1rykf32003bwj)" height="60.9551" id="nl.vaneijndhoven.dukes.action.drag.StoppingZoneDetector" style="stroke: #A80036; stroke-width: 1.5;" width="268" x="337" y="43"/><ellipse cx="403.25" cy="59" fill="#ADD1B2" rx="11" ry="11" style="stroke: #A80036; stroke-width: 1.0;"/><path d="M406.2231,64.6431 Q405.6421,64.9419 405.0029,65.0913 Q404.3638,65.2407 403.6582,65.2407 Q401.1514,65.2407 399.8315,63.5889 Q398.5117,61.937 398.5117,58.8159 Q398.5117,55.6865 399.8315,54.0347 Q401.1514,52.3828 403.6582,52.3828 Q404.3638,52.3828 405.0112,52.5322 Q405.6587,52.6816 406.2231,52.9805 L406.2231,55.7031 Q405.5923,55.1221 404.9988,54.8523 Q404.4053,54.5825 403.7744,54.5825 Q402.4297,54.5825 401.7449,55.6492 Q401.0601,56.7158 401.0601,58.8159 Q401.0601,60.9077 401.7449,61.9744 Q402.4297,63.041 403.7744,63.041 Q404.4053,63.041 404.9988,62.7712 Q405.5923,62.5015 406.2231,61.9204 Z "/><text fill="#000000" font-family="sans-serif" font-size="12" lengthAdjust="spacingAndGlyphs" textLength="127" x="423.75" y="63.5352">StoppingZoneDetector</text><line style="stroke: #A80036; stroke-width: 1.5;" x1="338" x2="604" y1="75" y2="75"/><line style="stroke: #A80036; stroke-width: 1.5;" x1="338" x2="604" y1="83" y2="83"/><ellipse cx="348" cy="94.9775" fill="#84BE84" rx="3" ry="3" style="stroke: #038048; stroke-width: 1.0;"/><text fill="#000000" font-family="sans-serif" font-size="11" lengthAdjust="spacingAndGlyphs" textLength="242" x="357" y="97.6348">detect(JsonObject): Observable&lt;JsonObject&gt;</text></a><!--class nl.vaneijndhoven.dukes.action.drag.StartLightObserver--><a href="StartLightObserver.html" target="_top" xlink:actuate="onRequest" xlink:show="new" xlink:title="StartLightObserver.html" xlink:type="simple"><rect fill="#FEFECE" filter="url(#f1rykf32003bwj)" height="60.9551" id="nl.vaneijndhoven.dukes.action.drag.StartLightObserver" style="stroke: #A80036; stroke-width: 1.5;" width="278" x="23" y="164"/><ellipse cx="104.75" cy="180" fill="#ADD1B2" rx="11" ry="11" style="stroke: #A80036; stroke-width: 1.0;"/><path d="M107.7231,185.6431 Q107.1421,185.9419 106.5029,186.0913 Q105.8638,186.2407 105.1582,186.2407 Q102.6514,186.2407 101.3315,184.5889 Q100.0117,182.937 100.0117,179.8159 Q100.0117,176.6865 101.3315,175.0347 Q102.6514,173.3828 105.1582,173.3828 Q105.8638,173.3828 106.5112,173.5322 Q107.1587,173.6816 107.7231,173.9805 L107.7231,176.7031 Q107.0923,176.1221 106.4988,175.8523 Q105.9053,175.5825 105.2744,175.5825 Q103.9297,175.5825 103.2449,176.6492 Q102.5601,177.7158 102.5601,179.8159 Q102.5601,181.9077 103.2449,182.9744 Q103.9297,184.041 105.2744,184.041 Q105.9053,184.041 106.4988,183.7712 Q107.0923,183.5015 107.7231,182.9204 Z "/><text fill="#000000" font-family="sans-serif" font-size="12" lengthAdjust="spacingAndGlyphs" textLength="106" x="125.25" y="184.5352">StartLightObserver</text><line style="stroke: #A80036; stroke-width: 1.5;" x1="24" x2="300" y1="196" y2="196"/><line style="stroke: #A80036; stroke-width: 1.5;" x1="24" x2="300" y1="204" y2="204"/><ellipse cx="34" cy="215.9775" fill="#84BE84" rx="3" ry="3" style="stroke: #038048; stroke-width: 1.0;"/><text fill="#000000" font-family="sans-serif" font-size="11" lengthAdjust="spacingAndGlyphs" textLength="252" x="43" y="218.6348">observe(JsonObject): Observable&lt;JsonObject&gt;</text></a><!--link nl.vaneijndhoven.dukes.action.drag.StraightLaneNavigator to nl.vaneijndhoven.dukes.action.drag.StoppingZoneDetector--><!--link nl.vaneijndhoven.dukes.action.drag.StraightLaneNavigator to nl.vaneijndhoven.dukes.action.drag.StartLightObserver--><text fill="#888888" font-family="sans-serif" font-size="10" lengthAdjust="spacingAndGlyphs" textLength="182" x="228.5" y="260.668">UMLDoclet 1.1.4, PlantUML 1.2019.05</text><!--
@startuml

    namespace nl.vaneijndhoven.dukes.action.drag {

        class StraightLaneNavigator [[StraightLaneNavigator.html]] {
            +navigate(JsonObject): Observable<JsonObject>
        }

        class StoppingZoneDetector [[StoppingZoneDetector.html]] {
            +detect(JsonObject): Observable<JsonObject>
        }

        class StartLightObserver [[StartLightObserver.html]] {
            +observe(JsonObject): Observable<JsonObject>
        }

    }


    center footer UMLDoclet 1.1.4, PlantUML 1.2019.05
@enduml

PlantUML version 1.2019.05(Sat Apr 20 18:45:36 CEST 2019)
(APACHE source distribution)
Java Runtime: Java(TM) SE Runtime Environment
JVM: Java HotSpot(TM) 64-Bit Server VM
Java Version: 1.8.0_191-b12
Operating System: Mac OS X
OS Version: 10.13.6
Default Encoding: UTF-8
Language: de
Country: DE
--></g></svg>