<?xml version="1.0" encoding="UTF-8" standalone="no"?><svg xmlns="http://www.w3.org/2000/svg" xmlns:xlink="http://www.w3.org/1999/xlink" contentScriptType="application/ecmascript" contentStyleType="text/css" height="615px" preserveAspectRatio="none" style="width:412px;height:615px;" version="1.1" viewBox="0 0 412 615" width="412px" zoomAndPan="magnify"><defs><filter height="300%" id="f1isw3gvd0n224" width="300%" x="-1" y="-1"><feGaussianBlur result="blurOut" stdDeviation="2.0"/><feColorMatrix in="blurOut" result="blurOut2" type="matrix" values="0 0 0 0 0 0 0 0 0 0 0 0 0 0 0 0 0 0 .4 0"/><feOffset dx="4.0" dy="4.0" in="blurOut2" result="blurOut3"/><feBlend in="SourceGraphic" in2="blurOut3" mode="normal"/></filter></defs><g><!--cluster nl.vaneijndhoven.opencv.startlightdetection--><polygon fill="#FFFFFF" filter="url(#f1isw3gvd0n224)" points="14,150,332,150,339,172.4883,390,172.4883,390,574,14,574,14,150" style="stroke: #000000; stroke-width: 1.5;"/><line style="stroke: #000000; stroke-width: 1.5;" x1="14" x2="339" y1="172.4883" y2="172.4883"/><text fill="#000000" font-family="sans-serif" font-size="14" font-weight="bold" lengthAdjust="spacingAndGlyphs" textLength="312" x="18" y="165.5352">nl.vaneijndhoven.opencv.startlightdetection</text><!--cluster org.rcdukes.detectors--><polygon fill="#FFFFFF" filter="url(#f1isw3gvd0n224)" points="33,16,192,16,199,38.4883,371,38.4883,371,125,33,125,33,16" style="stroke: #000000; stroke-width: 1.5;"/><line style="stroke: #000000; stroke-width: 1.5;" x1="33" x2="199" y1="38.4883" y2="38.4883"/><text fill="#000000" font-family="sans-serif" font-size="14" font-weight="bold" lengthAdjust="spacingAndGlyphs" textLength="153" x="37" y="31.5352">org.rcdukes.detectors</text><!--class nl.vaneijndhoven.opencv.startlightdetection.DefaultStartLightDetector--><a href="DefaultStartLightDetector.html" target="_top" xlink:actuate="onRequest" xlink:show="new" xlink:title="DefaultStartLightDetector.html" xlink:type="simple"><rect fill="#FEFECE" filter="url(#f1isw3gvd0n224)" height="125.7305" id="nl.vaneijndhoven.opencv.startlightdetection.DefaultStartLightDetector" style="stroke: #A80036; stroke-width: 1.5;" width="360" x="22" y="177"/><ellipse cx="126.25" cy="193" fill="#ADD1B2" rx="11" ry="11" style="stroke: #A80036; stroke-width: 1.0;"/><path d="M129.2231,198.6431 Q128.6421,198.9419 128.0029,199.0913 Q127.3638,199.2407 126.6582,199.2407 Q124.1514,199.2407 122.8315,197.5889 Q121.5117,195.937 121.5117,192.8159 Q121.5117,189.6865 122.8315,188.0347 Q124.1514,186.3828 126.6582,186.3828 Q127.3638,186.3828 128.0112,186.5322 Q128.6587,186.6816 129.2231,186.9805 L129.2231,189.7031 Q128.5923,189.1221 127.9988,188.8523 Q127.4053,188.5825 126.7744,188.5825 Q125.4297,188.5825 124.7449,189.6492 Q124.0601,190.7158 124.0601,192.8159 Q124.0601,194.9077 124.7449,195.9744 Q125.4297,197.041 126.7744,197.041 Q127.4053,197.041 127.9988,196.7712 Q128.5923,196.5015 129.2231,195.9204 Z "/><text fill="#000000" font-family="sans-serif" font-size="12" lengthAdjust="spacingAndGlyphs" textLength="143" x="146.75" y="197.5352">DefaultStartLightDetector</text><line style="stroke: #A80036; stroke-width: 1.5;" x1="23" x2="381" y1="209" y2="209"/><line style="stroke: #A80036; stroke-width: 1.5;" x1="23" x2="381" y1="217" y2="217"/><ellipse cx="33" cy="228.9775" fill="#84BE84" rx="3" ry="3" style="stroke: #038048; stroke-width: 1.0;"/><text fill="#000000" font-family="sans-serif" font-size="11" lengthAdjust="spacingAndGlyphs" textLength="144" x="42" y="231.6348">DefaultStartLightDetector()</text><ellipse cx="33" cy="241.9326" fill="#84BE84" rx="3" ry="3" style="stroke: #038048; stroke-width: 1.0;"/><text fill="#000000" font-family="sans-serif" font-size="11" lengthAdjust="spacingAndGlyphs" textLength="258" x="42" y="244.5898">DefaultStartLightDetector(int, int, int, int, int, int)</text><ellipse cx="33" cy="254.8877" fill="#84BE84" rx="3" ry="3" style="stroke: #038048; stroke-width: 1.0;"/><text fill="#000000" font-family="sans-serif" font-size="11" lengthAdjust="spacingAndGlyphs" textLength="319" x="42" y="257.5449">DefaultStartLightDetector(DefaultStartLightDetector.Config)</text><ellipse cx="33" cy="267.8428" fill="#84BE84" rx="3" ry="3" style="stroke: #038048; stroke-width: 1.0;"/><text fill="#000000" font-family="sans-serif" font-size="11" lengthAdjust="spacingAndGlyphs" textLength="131" x="42" y="270.5">detect(Image): StartLight</text><ellipse cx="33" cy="280.7979" fill="#84BE84" rx="3" ry="3" style="stroke: #038048; stroke-width: 1.0;"/><text fill="#000000" font-family="sans-serif" font-size="11" lengthAdjust="spacingAndGlyphs" textLength="83" x="42" y="283.4551">getFrame(): Mat</text><ellipse cx="33" cy="293.7529" fill="#84BE84" rx="3" ry="3" style="stroke: #038048; stroke-width: 1.0;"/><text fill="#000000" font-family="sans-serif" font-size="11" lengthAdjust="spacingAndGlyphs" textLength="334" x="42" y="296.4102">withImageCollector(ImageCollector): DefaultStartLightDetector</text></a><!--class nl.vaneijndhoven.opencv.startlightdetection.DefaultStartLightDetector.Config--><a href="DefaultStartLightDetector.Config.html" target="_top" xlink:actuate="onRequest" xlink:show="new" xlink:title="DefaultStartLightDetector.Config.html" xlink:type="simple"><rect fill="#FEFECE" filter="url(#f1isw3gvd0n224)" height="203.4609" id="nl.vaneijndhoven.opencv.startlightdetection.DefaultStartLightDetector.Config" style="stroke: #A80036; stroke-width: 1.5;" width="215" x="94.5" y="363"/><ellipse cx="109.5" cy="379" fill="#ADD1B2" rx="11" ry="11" style="stroke: #A80036; stroke-width: 1.0;"/><path d="M112.4731,384.6431 Q111.8921,384.9419 111.2529,385.0913 Q110.6138,385.2407 109.9082,385.2407 Q107.4014,385.2407 106.0815,383.5889 Q104.7617,381.937 104.7617,378.8159 Q104.7617,375.6865 106.0815,374.0347 Q107.4014,372.3828 109.9082,372.3828 Q110.6138,372.3828 111.2612,372.5322 Q111.9087,372.6816 112.4731,372.9805 L112.4731,375.7031 Q111.8423,375.1221 111.2488,374.8523 Q110.6553,374.5825 110.0244,374.5825 Q108.6797,374.5825 107.9949,375.6492 Q107.3101,376.7158 107.3101,378.8159 Q107.3101,380.9077 107.9949,381.9744 Q108.6797,383.041 110.0244,383.041 Q110.6553,383.041 111.2488,382.7712 Q111.8423,382.5015 112.4731,381.9204 Z "/><text fill="#000000" font-family="sans-serif" font-size="12" lengthAdjust="spacingAndGlyphs" textLength="183" x="123.5" y="383.5352">DefaultStartLightDetector.Config</text><line style="stroke: #A80036; stroke-width: 1.5;" x1="95.5" x2="308.5" y1="395" y2="395"/><line style="stroke: #A80036; stroke-width: 1.5;" x1="95.5" x2="308.5" y1="403" y2="403"/><ellipse cx="105.5" cy="414.9775" fill="#84BE84" rx="3" ry="3" style="stroke: #038048; stroke-width: 1.0;"/><text fill="#000000" font-family="sans-serif" font-size="11" lengthAdjust="spacingAndGlyphs" textLength="114" x="114.5" y="417.6348">getHueStart(): double</text><ellipse cx="105.5" cy="427.9326" fill="#84BE84" rx="3" ry="3" style="stroke: #038048; stroke-width: 1.0;"/><text fill="#000000" font-family="sans-serif" font-size="11" lengthAdjust="spacingAndGlyphs" textLength="136" x="114.5" y="430.5898">setHueStart(double): void</text><ellipse cx="105.5" cy="440.8877" fill="#84BE84" rx="3" ry="3" style="stroke: #038048; stroke-width: 1.0;"/><text fill="#000000" font-family="sans-serif" font-size="11" lengthAdjust="spacingAndGlyphs" textLength="113" x="114.5" y="443.5449">getHueStop(): double</text><ellipse cx="105.5" cy="453.8428" fill="#84BE84" rx="3" ry="3" style="stroke: #038048; stroke-width: 1.0;"/><text fill="#000000" font-family="sans-serif" font-size="11" lengthAdjust="spacingAndGlyphs" textLength="135" x="114.5" y="456.5">setHueStop(double): void</text><ellipse cx="105.5" cy="466.7979" fill="#84BE84" rx="3" ry="3" style="stroke: #038048; stroke-width: 1.0;"/><text fill="#000000" font-family="sans-serif" font-size="11" lengthAdjust="spacingAndGlyphs" textLength="148" x="114.5" y="469.4551">getSaturationStart(): double</text><ellipse cx="105.5" cy="479.7529" fill="#84BE84" rx="3" ry="3" style="stroke: #038048; stroke-width: 1.0;"/><text fill="#000000" font-family="sans-serif" font-size="11" lengthAdjust="spacingAndGlyphs" textLength="170" x="114.5" y="482.4102">setSaturationStart(double): void</text><ellipse cx="105.5" cy="492.708" fill="#84BE84" rx="3" ry="3" style="stroke: #038048; stroke-width: 1.0;"/><text fill="#000000" font-family="sans-serif" font-size="11" lengthAdjust="spacingAndGlyphs" textLength="147" x="114.5" y="495.3652">getSaturationStop(): double</text><ellipse cx="105.5" cy="505.6631" fill="#84BE84" rx="3" ry="3" style="stroke: #038048; stroke-width: 1.0;"/><text fill="#000000" font-family="sans-serif" font-size="11" lengthAdjust="spacingAndGlyphs" textLength="169" x="114.5" y="508.3203">setSaturationStop(double): void</text><ellipse cx="105.5" cy="518.6182" fill="#84BE84" rx="3" ry="3" style="stroke: #038048; stroke-width: 1.0;"/><text fill="#000000" font-family="sans-serif" font-size="11" lengthAdjust="spacingAndGlyphs" textLength="122" x="114.5" y="521.2754">getValueStart(): double</text><ellipse cx="105.5" cy="531.5732" fill="#84BE84" rx="3" ry="3" style="stroke: #038048; stroke-width: 1.0;"/><text fill="#000000" font-family="sans-serif" font-size="11" lengthAdjust="spacingAndGlyphs" textLength="144" x="114.5" y="534.2305">setValueStart(double): void</text><ellipse cx="105.5" cy="544.5283" fill="#84BE84" rx="3" ry="3" style="stroke: #038048; stroke-width: 1.0;"/><text fill="#000000" font-family="sans-serif" font-size="11" lengthAdjust="spacingAndGlyphs" textLength="121" x="114.5" y="547.1855">getValueStop(): double</text><ellipse cx="105.5" cy="557.4834" fill="#84BE84" rx="3" ry="3" style="stroke: #038048; stroke-width: 1.0;"/><text fill="#000000" font-family="sans-serif" font-size="11" lengthAdjust="spacingAndGlyphs" textLength="143" x="114.5" y="560.1406">setValueStop(double): void</text></a><!--class org.rcdukes.detectors.StartLightDetector--><rect fill="#FEFECE" filter="url(#f1isw3gvd0n224)" height="73.9102" id="org.rcdukes.detectors.StartLightDetector" style="stroke: #A80036; stroke-width: 1.5;" width="322" x="41" y="43"/><ellipse cx="146.75" cy="59" fill="#B4A7E5" rx="11" ry="11" style="stroke: #A80036; stroke-width: 1.0;"/><path d="M142.6777,54.7651 L142.6777,52.6069 L150.0571,52.6069 L150.0571,54.7651 L147.5918,54.7651 L147.5918,62.8418 L150.0571,62.8418 L150.0571,65 L142.6777,65 L142.6777,62.8418 L145.1431,62.8418 L145.1431,54.7651 Z "/><text fill="#000000" font-family="sans-serif" font-size="12" font-style="italic" lengthAdjust="spacingAndGlyphs" textLength="102" x="167.25" y="63.5352">StartLightDetector</text><line style="stroke: #A80036; stroke-width: 1.5;" x1="42" x2="362" y1="75" y2="75"/><line style="stroke: #A80036; stroke-width: 1.5;" x1="42" x2="362" y1="83" y2="83"/><ellipse cx="52" cy="94.9775" fill="#84BE84" rx="3" ry="3" style="stroke: #038048; stroke-width: 1.0;"/><text fill="#000000" font-family="sans-serif" font-size="11" font-style="italic" lengthAdjust="spacingAndGlyphs" textLength="131" x="61" y="97.6348">detect(Image): StartLight</text><ellipse cx="52" cy="107.9326" fill="#84BE84" rx="3" ry="3" style="stroke: #038048; stroke-width: 1.0;"/><text fill="#000000" font-family="sans-serif" font-size="11" font-style="italic" lengthAdjust="spacingAndGlyphs" textLength="296" x="61" y="110.5898">withImageCollector(ImageCollector): StartLightDetector</text><!--link org.rcdukes.detectors.StartLightDetector to nl.vaneijndhoven.opencv.startlightdetection.DefaultStartLightDetector--><path d="M202,137.5094 C202,150.2468 202,163.8122 202,176.7638 " fill="none" id="org.rcdukes.detectors.StartLightDetector-nl.vaneijndhoven.opencv.startlightdetection.DefaultStartLightDetector" style="stroke: #A80036; stroke-width: 1.0; stroke-dasharray: 7.0,7.0;"/><polygon fill="none" points="195.0001,137.1094,202,117.1094,209.0001,137.1093,195.0001,137.1094" style="stroke: #A80036; stroke-width: 1.0;"/><!--link nl.vaneijndhoven.opencv.startlightdetection.DefaultStartLightDetector to nl.vaneijndhoven.opencv.startlightdetection.DefaultStartLightDetector.Config--><path d="M202,318.333 C202,332.6824 202,347.8479 202,362.7636 " fill="none" id="nl.vaneijndhoven.opencv.startlightdetection.DefaultStartLightDetector-nl.vaneijndhoven.opencv.startlightdetection.DefaultStartLightDetector.Config" style="stroke: #A80036; stroke-width: 1.0;"/><ellipse cx="202" cy="311.1332" fill="#FFFFFF" rx="8" ry="8" style="stroke: #A80036; stroke-width: 1.0;"/><line style="stroke: #A80036; stroke-width: 1.0;" x1="202" x2="202" y1="319.1332" y2="303.1332"/><line style="stroke: #A80036; stroke-width: 1.0;" x1="194" x2="210" y1="311.1332" y2="311.1332"/><text fill="#888888" font-family="sans-serif" font-size="10" lengthAdjust="spacingAndGlyphs" textLength="182" x="117" y="601.668">UMLDoclet 1.1.4, PlantUML 1.2019.05</text><!--
@startuml

    namespace nl.vaneijndhoven.opencv.startlightdetection {

        class DefaultStartLightDetector [[DefaultStartLightDetector.html]] {
            +DefaultStartLightDetector()
            +DefaultStartLightDetector(int, int, int, int, int, int)
            +DefaultStartLightDetector(DefaultStartLightDetector.Config)
            +detect(Image): StartLight
            +getFrame(): Mat
            +withImageCollector(ImageCollector): DefaultStartLightDetector
        }

        class nl.vaneijndhoven.opencv.startlightdetection.DefaultStartLightDetector.Config [[DefaultStartLightDetector.Config.html]] {
            +getHueStart(): double
            +setHueStart(double): void
            +getHueStop(): double
            +setHueStop(double): void
            +getSaturationStart(): double
            +setSaturationStart(double): void
            +getSaturationStop(): double
            +setSaturationStop(double): void
            +getValueStart(): double
            +setValueStart(double): void
            +getValueStop(): double
            +setValueStop(double): void
        }

        interface org.rcdukes.detectors.StartLightDetector {
            {abstract} +detect(Image): StartLight
            {abstract} +withImageCollector(ImageCollector): StartLightDetector
        }
        org.rcdukes.detectors.StartLightDetector <|.. DefaultStartLightDetector

        DefaultStartLightDetector +- - nl.vaneijndhoven.opencv.startlightdetection.DefaultStartLightDetector.Config

    }


    center footer UMLDoclet 1.1.4, PlantUML 1.2019.05
@enduml

PlantUML version 1.2019.05(Sat Apr 20 18:45:36 CEST 2019)
(APACHE source distribution)
Java Runtime: Java(TM) SE Runtime Environment
JVM: Java HotSpot(TM) 64-Bit Server VM
Java Version: 1.8.0_152-b16
Operating System: Mac OS X
OS Version: 10.13.6
Default Encoding: UTF-8
Language: de
Country: DE
--></g></svg>