<?xml version="1.0" encoding="UTF-8" standalone="no"?><svg xmlns="http://www.w3.org/2000/svg" xmlns:xlink="http://www.w3.org/1999/xlink" contentScriptType="application/ecmascript" contentStyleType="text/css" height="378px" preserveAspectRatio="none" style="width:1089px;height:378px;" version="1.1" viewBox="0 0 1089 378" width="1089px" zoomAndPan="magnify"><defs><filter height="300%" id="f5s09roy34e6x" width="300%" x="-1" y="-1"><feGaussianBlur result="blurOut" stdDeviation="2.0"/><feColorMatrix in="blurOut" result="blurOut2" type="matrix" values="0 0 0 0 0 0 0 0 0 0 0 0 0 0 0 0 0 0 .4 0"/><feOffset dx="4.0" dy="4.0" in="blurOut2" result="blurOut3"/><feBlend in="SourceGraphic" in2="blurOut3" mode="normal"/></filter></defs><g><!--cluster org.rcdukes.camera--><polygon fill="#FFFFFF" filter="url(#f5s09roy34e6x)" points="14,124,157,124,164,146.4883,1067,146.4883,1067,337,14,337,14,124" style="stroke: #000000; stroke-width: 1.5;"/><line style="stroke: #000000; stroke-width: 1.5;" x1="14" x2="164" y1="146.4883" y2="146.4883"/><text fill="#000000" font-family="sans-serif" font-size="14" font-weight="bold" lengthAdjust="spacingAndGlyphs" textLength="137" x="18" y="139.5352">org.rcdukes.camera</text><!--cluster java.util.function--><polygon fill="#FFFFFF" filter="url(#f5s09roy34e6x)" points="230,16,356,16,363,38.4883,376,38.4883,376,99,230,99,230,16" style="stroke: #000000; stroke-width: 1.5;"/><line style="stroke: #000000; stroke-width: 1.5;" x1="230" x2="363" y1="38.4883" y2="38.4883"/><text fill="#000000" font-family="sans-serif" font-size="14" font-weight="bold" lengthAdjust="spacingAndGlyphs" textLength="120" x="234" y="31.5352">java.util.function</text><!--cluster org.rcdukes.geometry--><polygon fill="#FFFFFF" filter="url(#f5s09roy34e6x)" points="737,16,897,16,904,38.4883,907,38.4883,907,99,737,99,737,16" style="stroke: #000000; stroke-width: 1.5;"/><line style="stroke: #000000; stroke-width: 1.5;" x1="737" x2="904" y1="38.4883" y2="38.4883"/><text fill="#000000" font-family="sans-serif" font-size="14" font-weight="bold" lengthAdjust="spacingAndGlyphs" textLength="154" x="741" y="31.5352">org.rcdukes.geometry</text><!--class org.rcdukes.camera.PerspectiveShift--><a href="PerspectiveShift.html" target="_top" xlink:actuate="onRequest" xlink:show="new" xlink:title="PerspectiveShift.html" xlink:type="simple"><rect fill="#FEFECE" filter="url(#f5s09roy34e6x)" height="73.9102" id="org.rcdukes.camera.PerspectiveShift" style="stroke: #A80036; stroke-width: 1.5;" width="211" x="338.5" y="203"/><ellipse cx="394.75" cy="219" fill="#ADD1B2" rx="11" ry="11" style="stroke: #A80036; stroke-width: 1.0;"/><path d="M397.7231,224.6431 Q397.1421,224.9419 396.5029,225.0913 Q395.8638,225.2407 395.1582,225.2407 Q392.6514,225.2407 391.3315,223.5889 Q390.0117,221.937 390.0117,218.8159 Q390.0117,215.6865 391.3315,214.0347 Q392.6514,212.3828 395.1582,212.3828 Q395.8638,212.3828 396.5112,212.5322 Q397.1587,212.6816 397.7231,212.9805 L397.7231,215.7031 Q397.0923,215.1221 396.4988,214.8523 Q395.9053,214.5825 395.2744,214.5825 Q393.9297,214.5825 393.2449,215.6492 Q392.5601,216.7158 392.5601,218.8159 Q392.5601,220.9077 393.2449,221.9744 Q393.9297,223.041 395.2744,223.041 Q395.9053,223.041 396.4988,222.7712 Q397.0923,222.5015 397.7231,221.9204 Z "/><text fill="#000000" font-family="sans-serif" font-size="12" lengthAdjust="spacingAndGlyphs" textLength="90" x="415.25" y="223.5352">PerspectiveShift</text><line style="stroke: #A80036; stroke-width: 1.5;" x1="339.5" x2="548.5" y1="235" y2="235"/><line style="stroke: #A80036; stroke-width: 1.5;" x1="339.5" x2="548.5" y1="243" y2="243"/><ellipse cx="349.5" cy="254.9775" fill="#84BE84" rx="3" ry="3" style="stroke: #038048; stroke-width: 1.0;"/><text fill="#000000" font-family="sans-serif" font-size="11" lengthAdjust="spacingAndGlyphs" textLength="185" x="358.5" y="257.6348">PerspectiveShift(Polygon, Polygon)</text><ellipse cx="349.5" cy="267.9326" fill="#84BE84" rx="3" ry="3" style="stroke: #038048; stroke-width: 1.0;"/><text fill="#000000" font-family="sans-serif" font-size="11" lengthAdjust="spacingAndGlyphs" textLength="81" x="358.5" y="270.5898">apply(Mat): Mat</text></a><!--class org.rcdukes.camera.ImagePolygon--><a href="ImagePolygon.html" target="_top" xlink:actuate="onRequest" xlink:show="new" xlink:title="ImagePolygon.html" xlink:type="simple"><rect fill="#FEFECE" filter="url(#f5s09roy34e6x)" height="86.8652" id="org.rcdukes.camera.ImagePolygon" style="stroke: #A80036; stroke-width: 1.5;" width="474" x="585" y="196.5"/><ellipse cx="778.25" cy="212.5" fill="#ADD1B2" rx="11" ry="11" style="stroke: #A80036; stroke-width: 1.0;"/><path d="M781.2231,218.1431 Q780.6421,218.4419 780.0029,218.5913 Q779.3638,218.7407 778.6582,218.7407 Q776.1514,218.7407 774.8315,217.0889 Q773.5117,215.437 773.5117,212.3159 Q773.5117,209.1865 774.8315,207.5347 Q776.1514,205.8828 778.6582,205.8828 Q779.3638,205.8828 780.0112,206.0322 Q780.6587,206.1816 781.2231,206.4805 L781.2231,209.2031 Q780.5923,208.6221 779.9988,208.3523 Q779.4053,208.0825 778.7744,208.0825 Q777.4297,208.0825 776.7449,209.1492 Q776.0601,210.2158 776.0601,212.3159 Q776.0601,214.4077 776.7449,215.4744 Q777.4297,216.541 778.7744,216.541 Q779.4053,216.541 779.9988,216.2712 Q780.5923,216.0015 781.2231,215.4204 Z "/><text fill="#000000" font-family="sans-serif" font-size="12" lengthAdjust="spacingAndGlyphs" textLength="79" x="798.75" y="217.0352">ImagePolygon</text><line style="stroke: #A80036; stroke-width: 1.5;" x1="586" x2="1058" y1="228.5" y2="228.5"/><line style="stroke: #A80036; stroke-width: 1.5;" x1="586" x2="1058" y1="236.5" y2="236.5"/><ellipse cx="596" cy="248.4775" fill="#84BE84" rx="3" ry="3" style="stroke: #038048; stroke-width: 1.0;"/><text fill="#000000" font-family="sans-serif" font-size="11" lengthAdjust="spacingAndGlyphs" textLength="448" x="605" y="251.1348">ImagePolygon(Size, double, double, double, double, double, double, double, double)</text><ellipse cx="596" cy="261.4326" fill="#84BE84" rx="3" ry="3" style="stroke: #038048; stroke-width: 1.0;"/><text fill="#000000" font-family="sans-serif" font-size="11" lengthAdjust="spacingAndGlyphs" textLength="118" x="605" y="264.0898">ImagePolygon(Point[])</text><ellipse cx="596" cy="274.3877" fill="#84BE84" rx="3" ry="3" style="stroke: #038048; stroke-width: 1.0;"/><text fill="#000000" font-family="sans-serif" font-size="11" lengthAdjust="spacingAndGlyphs" textLength="129" x="605" y="277.0449">ImagePolygon(Size, ROI)</text></a><!--class org.rcdukes.camera.CameraMatrix--><a href="CameraMatrix.html" target="_top" xlink:actuate="onRequest" xlink:show="new" xlink:title="CameraMatrix.html" xlink:type="simple"><rect fill="#FEFECE" filter="url(#f5s09roy34e6x)" height="177.5508" id="org.rcdukes.camera.CameraMatrix" style="stroke: #A80036; stroke-width: 1.5;" width="281" x="22.5" y="151"/><ellipse cx="118.25" cy="167" fill="#ADD1B2" rx="11" ry="11" style="stroke: #A80036; stroke-width: 1.0;"/><path d="M121.2231,172.6431 Q120.6421,172.9419 120.0029,173.0913 Q119.3638,173.2407 118.6582,173.2407 Q116.1514,173.2407 114.8315,171.5889 Q113.5117,169.937 113.5117,166.8159 Q113.5117,163.6865 114.8315,162.0347 Q116.1514,160.3828 118.6582,160.3828 Q119.3638,160.3828 120.0112,160.5322 Q120.6587,160.6816 121.2231,160.9805 L121.2231,163.7031 Q120.5923,163.1221 119.9988,162.8523 Q119.4053,162.5825 118.7744,162.5825 Q117.4297,162.5825 116.7449,163.6492 Q116.0601,164.7158 116.0601,166.8159 Q116.0601,168.9077 116.7449,169.9744 Q117.4297,171.041 118.7744,171.041 Q119.4053,171.041 119.9988,170.7712 Q120.5923,170.5015 121.2231,169.9204 Z "/><text fill="#000000" font-family="sans-serif" font-size="12" lengthAdjust="spacingAndGlyphs" textLength="81" x="138.75" y="171.5352">CameraMatrix</text><line style="stroke: #A80036; stroke-width: 1.5;" x1="23.5" x2="302.5" y1="183" y2="183"/><ellipse cx="33.5" cy="194.9775" fill="none" rx="3" ry="3" style="stroke: #038048; stroke-width: 1.0;"/><text fill="#000000" font-family="sans-serif" font-size="11" lengthAdjust="spacingAndGlyphs" text-decoration="underline" textLength="130" x="42.5" y="197.6348">DEFAULT: CameraMatrix</text><line style="stroke: #A80036; stroke-width: 1.5;" x1="23.5" x2="302.5" y1="203.9551" y2="203.9551"/><ellipse cx="33.5" cy="215.9326" fill="#84BE84" rx="3" ry="3" style="stroke: #038048; stroke-width: 1.0;"/><text fill="#000000" font-family="sans-serif" font-size="11" lengthAdjust="spacingAndGlyphs" textLength="117" x="42.5" y="218.5898">CameraMatrix(int, int)</text><ellipse cx="33.5" cy="228.8877" fill="#84BE84" rx="3" ry="3" style="stroke: #038048; stroke-width: 1.0;"/><text fill="#000000" font-family="sans-serif" font-size="11" lengthAdjust="spacingAndGlyphs" textLength="118" x="42.5" y="231.5449">getRvecs(): List&lt;Mat&gt;</text><ellipse cx="33.5" cy="241.8428" fill="#84BE84" rx="3" ry="3" style="stroke: #038048; stroke-width: 1.0;"/><text fill="#000000" font-family="sans-serif" font-size="11" lengthAdjust="spacingAndGlyphs" textLength="118" x="42.5" y="244.5">getTvecs(): List&lt;Mat&gt;</text><ellipse cx="33.5" cy="254.7979" fill="#84BE84" rx="3" ry="3" style="stroke: #038048; stroke-width: 1.0;"/><text fill="#000000" font-family="sans-serif" font-size="11" lengthAdjust="spacingAndGlyphs" textLength="110" x="42.5" y="257.4551">calibrate(Mat[]): void</text><ellipse cx="33.5" cy="267.7529" fill="#84BE84" rx="3" ry="3" style="stroke: #038048; stroke-width: 1.0;"/><text fill="#000000" font-family="sans-serif" font-size="11" lengthAdjust="spacingAndGlyphs" textLength="255" x="42.5" y="270.4102">findOuterChessBoardCornerPoints(Mat): Point[]</text><ellipse cx="33.5" cy="280.708" fill="#84BE84" rx="3" ry="3" style="stroke: #038048; stroke-width: 1.0;"/><text fill="#000000" font-family="sans-serif" font-size="11" lengthAdjust="spacingAndGlyphs" textLength="167" x="42.5" y="283.3652">addCalibrationImage(Mat): void</text><ellipse cx="33.5" cy="293.6631" fill="#84BE84" rx="3" ry="3" style="stroke: #038048; stroke-width: 1.0;"/><text fill="#000000" font-family="sans-serif" font-size="11" lengthAdjust="spacingAndGlyphs" textLength="81" x="42.5" y="296.3203">apply(Mat): Mat</text><ellipse cx="33.5" cy="306.6182" fill="#84BE84" rx="3" ry="3" style="stroke: #038048; stroke-width: 1.0;"/><text fill="#000000" font-family="sans-serif" font-size="11" lengthAdjust="spacingAndGlyphs" textLength="90" x="42.5" y="309.2754">serialize(): String</text><ellipse cx="33.5" cy="319.5732" fill="#84BE84" rx="3" ry="3" style="stroke: #038048; stroke-width: 1.0;"/><text fill="#000000" font-family="sans-serif" font-size="11" lengthAdjust="spacingAndGlyphs" text-decoration="underline" textLength="184" x="42.5" y="322.2305">deserizalize(String): CameraMatrix</text></a><!--class java.util.function.UnaryOperator--><rect fill="#FEFECE" filter="url(#f5s09roy34e6x)" height="48" id="java.util.function.UnaryOperator" style="stroke: #A80036; stroke-width: 1.5;" width="129" x="238.5" y="43"/><ellipse cx="253.5" cy="59" fill="#B4A7E5" rx="11" ry="11" style="stroke: #A80036; stroke-width: 1.0;"/><path d="M249.4277,54.7651 L249.4277,52.6069 L256.8071,52.6069 L256.8071,54.7651 L254.3418,54.7651 L254.3418,62.8418 L256.8071,62.8418 L256.8071,65 L249.4277,65 L249.4277,62.8418 L251.8931,62.8418 L251.8931,54.7651 Z "/><text fill="#000000" font-family="sans-serif" font-size="12" font-style="italic" lengthAdjust="spacingAndGlyphs" textLength="85" x="267.5" y="63.5352">UnaryOperator</text><rect fill="#FFFFFF" height="16.1328" style="stroke: #000000; stroke-width: 1.0; stroke-dasharray: 2.0,2.0;" width="10" x="360.5" y="40"/><text fill="#000000" font-family="sans-serif" font-size="12" font-style="italic" lengthAdjust="spacingAndGlyphs" textLength="8" x="361.5" y="52.6016">T</text><line style="stroke: #A80036; stroke-width: 1.5;" x1="239.5" x2="366.5" y1="75" y2="75"/><line style="stroke: #A80036; stroke-width: 1.5;" x1="239.5" x2="366.5" y1="83" y2="83"/><!--class org.rcdukes.geometry.Polygon--><rect fill="#FEFECE" filter="url(#f5s09roy34e6x)" height="48" id="org.rcdukes.geometry.Polygon" style="stroke: #A80036; stroke-width: 1.5;" width="76" x="784" y="43"/><ellipse cx="799" cy="59" fill="#ADD1B2" rx="11" ry="11" style="stroke: #A80036; stroke-width: 1.0;"/><path d="M801.9731,64.6431 Q801.3921,64.9419 800.7529,65.0913 Q800.1138,65.2407 799.4082,65.2407 Q796.9014,65.2407 795.5815,63.5889 Q794.2617,61.937 794.2617,58.8159 Q794.2617,55.6865 795.5815,54.0347 Q796.9014,52.3828 799.4082,52.3828 Q800.1138,52.3828 800.7612,52.5322 Q801.4087,52.6816 801.9731,52.9805 L801.9731,55.7031 Q801.3423,55.1221 800.7488,54.8523 Q800.1553,54.5825 799.5244,54.5825 Q798.1797,54.5825 797.4949,55.6492 Q796.8101,56.7158 796.8101,58.8159 Q796.8101,60.9077 797.4949,61.9744 Q798.1797,63.041 799.5244,63.041 Q800.1553,63.041 800.7488,62.7712 Q801.3423,62.5015 801.9731,61.9204 Z "/><text fill="#000000" font-family="sans-serif" font-size="12" lengthAdjust="spacingAndGlyphs" textLength="44" x="813" y="63.5352">Polygon</text><line style="stroke: #A80036; stroke-width: 1.5;" x1="785" x2="859" y1="75" y2="75"/><line style="stroke: #A80036; stroke-width: 1.5;" x1="785" x2="859" y1="83" y2="83"/><!--link java.util.function.UnaryOperator to org.rcdukes.camera.PerspectiveShift--><path d="M335.4156,106.7724 C358.9792,135.6837 390.6533,174.5462 413.7087,202.834 " fill="none" id="java.util.function.UnaryOperator-org.rcdukes.camera.PerspectiveShift" style="stroke: #A80036; stroke-width: 1.0; stroke-dasharray: 7.0,7.0;"/><polygon fill="none" points="329.8149,110.9804,322.6054,91.0549,340.667,102.1356,329.8149,110.9804" style="stroke: #A80036; stroke-width: 1.0;"/><!--link org.rcdukes.geometry.Polygon to org.rcdukes.camera.ImagePolygon--><path d="M822,111.135 C822,137.3298 822,170.4075 822,196.4914 " fill="none" id="org.rcdukes.geometry.Polygon-org.rcdukes.camera.ImagePolygon" style="stroke: #A80036; stroke-width: 1.0;"/><polygon fill="none" points="815.0001,111.0549,822,91.0549,829.0001,111.0549,815.0001,111.0549" style="stroke: #A80036; stroke-width: 1.0;"/><!--link java.util.function.UnaryOperator to org.rcdukes.camera.CameraMatrix--><path d="M270.9277,106.6322 C260.154,119.9454 247.6632,135.3805 235.0826,150.9266 " fill="none" id="java.util.function.UnaryOperator-org.rcdukes.camera.CameraMatrix" style="stroke: #A80036; stroke-width: 1.0; stroke-dasharray: 7.0,7.0;"/><polygon fill="none" points="265.5107,102.1984,283.5336,91.0549,276.3936,111.0054,265.5107,102.1984" style="stroke: #A80036; stroke-width: 1.0;"/><text fill="#888888" font-family="sans-serif" font-size="10" lengthAdjust="spacingAndGlyphs" textLength="182" x="455.5" y="364.668">UMLDoclet 1.1.4, PlantUML 1.2019.05</text><!--
@startuml

    namespace org.rcdukes.camera {

        class PerspectiveShift [[PerspectiveShift.html]] {
            +PerspectiveShift(Polygon, Polygon)
            +apply(Mat): Mat
        }

        class ImagePolygon [[ImagePolygon.html]] {
            +ImagePolygon(Size, double, double, double, double, double, double, double, double)
            +ImagePolygon(Point[])
            +ImagePolygon(Size, ROI)
        }

        class CameraMatrix [[CameraMatrix.html]] {
            {static} +DEFAULT: CameraMatrix
            +CameraMatrix(int, int)
            +getRvecs(): List<Mat>
            +getTvecs(): List<Mat>
            +calibrate(Mat[]): void
            +findOuterChessBoardCornerPoints(Mat): Point[]
            +addCalibrationImage(Mat): void
            +apply(Mat): Mat
            +serialize(): String
            {static} +deserizalize(String): CameraMatrix
        }

        interface java.util.function.UnaryOperator<T>
        java.util.function.UnaryOperator <|.. PerspectiveShift

        class org.rcdukes.geometry.Polygon
        org.rcdukes.geometry.Polygon <|- - ImagePolygon

        java.util.function.UnaryOperator <|.. CameraMatrix

    }


    center footer UMLDoclet 1.1.4, PlantUML 1.2019.05
@enduml

PlantUML version 1.2019.05(Sat Apr 20 18:45:36 CEST 2019)
(APACHE source distribution)
Java Runtime: Java(TM) SE Runtime Environment
JVM: Java HotSpot(TM) 64-Bit Server VM
Java Version: 1.8.0_152-b16
Operating System: Mac OS X
OS Version: 10.13.6
Default Encoding: UTF-8
Language: de
Country: DE
--></g></svg>