<?xml version="1.0" encoding="UTF-8" standalone="no"?><svg xmlns="http://www.w3.org/2000/svg" xmlns:xlink="http://www.w3.org/1999/xlink" contentScriptType="application/ecmascript" contentStyleType="text/css" height="313px" preserveAspectRatio="none" style="width:355px;height:313px;" version="1.1" viewBox="0 0 355 313" width="355px" zoomAndPan="magnify"><defs><filter height="300%" id="f3yfj4m3qydj9" width="300%" x="-1" y="-1"><feGaussianBlur result="blurOut" stdDeviation="2.0"/><feColorMatrix in="blurOut" result="blurOut2" type="matrix" values="0 0 0 0 0 0 0 0 0 0 0 0 0 0 0 0 0 0 .4 0"/><feOffset dx="4.0" dy="4.0" in="blurOut2" result="blurOut3"/><feBlend in="SourceGraphic" in2="blurOut3" mode="normal"/></filter></defs><g><!--cluster com.bitplan.rc.common--><polygon fill="#FFFFFF" filter="url(#f3yfj4m3qydj9)" points="14,16,185,16,192,38.4883,333,38.4883,333,272,14,272,14,16" style="stroke: #000000; stroke-width: 1.5;"/><line style="stroke: #000000; stroke-width: 1.5;" x1="14" x2="192" y1="38.4883" y2="38.4883"/><text fill="#000000" font-family="sans-serif" font-size="14" font-weight="bold" lengthAdjust="spacingAndGlyphs" textLength="165" x="18" y="31.5352">com.bitplan.rc.common</text><!--class com.bitplan.rc.common.TestSuite--><a href="TestSuite.html" target="_top" xlink:actuate="onRequest" xlink:show="new" xlink:title="TestSuite.html" xlink:type="simple"><rect fill="#FEFECE" filter="url(#f3yfj4m3qydj9)" height="48" id="com.bitplan.rc.common.TestSuite" style="stroke: #A80036; stroke-width: 1.5;" width="84" x="22" y="69"/><ellipse cx="37" cy="85" fill="#ADD1B2" rx="11" ry="11" style="stroke: #A80036; stroke-width: 1.0;"/><path d="M39.9731,90.6431 Q39.3921,90.9419 38.7529,91.0913 Q38.1138,91.2407 37.4082,91.2407 Q34.9014,91.2407 33.5815,89.5889 Q32.2617,87.937 32.2617,84.8159 Q32.2617,81.6865 33.5815,80.0347 Q34.9014,78.3828 37.4082,78.3828 Q38.1138,78.3828 38.7612,78.5322 Q39.4087,78.6816 39.9731,78.9805 L39.9731,81.7031 Q39.3423,81.1221 38.7488,80.8523 Q38.1553,80.5825 37.5244,80.5825 Q36.1797,80.5825 35.4949,81.6492 Q34.8101,82.7158 34.8101,84.8159 Q34.8101,86.9077 35.4949,87.9744 Q36.1797,89.041 37.5244,89.041 Q38.1553,89.041 38.7488,88.7712 Q39.3423,88.5015 39.9731,87.9204 Z "/><text fill="#000000" font-family="sans-serif" font-size="12" lengthAdjust="spacingAndGlyphs" textLength="52" x="51" y="89.5352">TestSuite</text><line style="stroke: #A80036; stroke-width: 1.5;" x1="23" x2="105" y1="101" y2="101"/><line style="stroke: #A80036; stroke-width: 1.5;" x1="23" x2="105" y1="109" y2="109"/></a><!--class com.bitplan.rc.common.TestEnvironment--><a href="TestEnvironment.html" target="_top" xlink:actuate="onRequest" xlink:show="new" xlink:title="TestEnvironment.html" xlink:type="simple"><rect fill="#FEFECE" filter="url(#f3yfj4m3qydj9)" height="99.8203" id="com.bitplan.rc.common.TestEnvironment" style="stroke: #A80036; stroke-width: 1.5;" width="183" x="141.5" y="43"/><ellipse cx="181.25" cy="59" fill="#ADD1B2" rx="11" ry="11" style="stroke: #A80036; stroke-width: 1.0;"/><path d="M184.2231,64.6431 Q183.6421,64.9419 183.0029,65.0913 Q182.3638,65.2407 181.6582,65.2407 Q179.1514,65.2407 177.8315,63.5889 Q176.5117,61.937 176.5117,58.8159 Q176.5117,55.6865 177.8315,54.0347 Q179.1514,52.3828 181.6582,52.3828 Q182.3638,52.3828 183.0112,52.5322 Q183.6587,52.6816 184.2231,52.9805 L184.2231,55.7031 Q183.5923,55.1221 182.9988,54.8523 Q182.4053,54.5825 181.7744,54.5825 Q180.4297,54.5825 179.7449,55.6492 Q179.0601,56.7158 179.0601,58.8159 Q179.0601,60.9077 179.7449,61.9744 Q180.4297,63.041 181.7744,63.041 Q182.4053,63.041 182.9988,62.7712 Q183.5923,62.5015 184.2231,61.9204 Z "/><text fill="#000000" font-family="sans-serif" font-size="12" lengthAdjust="spacingAndGlyphs" textLength="96" x="200.75" y="63.5352">TestEnvironment</text><line style="stroke: #A80036; stroke-width: 1.5;" x1="142.5" x2="323.5" y1="75" y2="75"/><line style="stroke: #A80036; stroke-width: 1.5;" x1="142.5" x2="323.5" y1="83" y2="83"/><ellipse cx="152.5" cy="94.9775" fill="#84BE84" rx="3" ry="3" style="stroke: #038048; stroke-width: 1.0;"/><text fill="#000000" font-family="sans-serif" font-size="11" lengthAdjust="spacingAndGlyphs" textLength="143" x="161.5" y="97.6348">setProperties(String[]): File</text><ellipse cx="152.5" cy="107.9326" fill="#84BE84" rx="3" ry="3" style="stroke: #038048; stroke-width: 1.0;"/><text fill="#000000" font-family="sans-serif" font-size="11" lengthAdjust="spacingAndGlyphs" textLength="125" x="161.5" y="110.5898">testEnvironment(): void</text><ellipse cx="152.5" cy="120.8877" fill="#84BE84" rx="3" ry="3" style="stroke: #038048; stroke-width: 1.0;"/><text fill="#000000" font-family="sans-serif" font-size="11" lengthAdjust="spacingAndGlyphs" textLength="114" x="161.5" y="123.5449">testCameraUrl(): void</text><ellipse cx="152.5" cy="133.8428" fill="#84BE84" rx="3" ry="3" style="stroke: #038048; stroke-width: 1.0;"/><text fill="#000000" font-family="sans-serif" font-size="11" lengthAdjust="spacingAndGlyphs" textLength="157" x="161.5" y="136.5">testGetMyIpAddresses(): void</text></a><!--class com.bitplan.rc.common.TestClusterStarter--><a href="TestClusterStarter.html" target="_top" xlink:actuate="onRequest" xlink:show="new" xlink:title="TestClusterStarter.html" xlink:type="simple"><rect fill="#FEFECE" filter="url(#f3yfj4m3qydj9)" height="60.9551" id="com.bitplan.rc.common.TestClusterStarter" style="stroke: #A80036; stroke-width: 1.5;" width="158" x="22" y="203"/><ellipse cx="47.35" cy="219" fill="#ADD1B2" rx="11" ry="11" style="stroke: #A80036; stroke-width: 1.0;"/><path d="M50.3231,224.6431 Q49.7421,224.9419 49.1029,225.0913 Q48.4638,225.2407 47.7582,225.2407 Q45.2514,225.2407 43.9315,223.5889 Q42.6117,221.937 42.6117,218.8159 Q42.6117,215.6865 43.9315,214.0347 Q45.2514,212.3828 47.7582,212.3828 Q48.4638,212.3828 49.1112,212.5322 Q49.7587,212.6816 50.3231,212.9805 L50.3231,215.7031 Q49.6923,215.1221 49.0988,214.8523 Q48.5053,214.5825 47.8744,214.5825 Q46.5297,214.5825 45.8449,215.6492 Q45.1601,216.7158 45.1601,218.8159 Q45.1601,220.9077 45.8449,221.9744 Q46.5297,223.041 47.8744,223.041 Q48.5053,223.041 49.0988,222.7712 Q49.6923,222.5015 50.3231,221.9204 Z "/><text fill="#000000" font-family="sans-serif" font-size="12" lengthAdjust="spacingAndGlyphs" textLength="103" x="63.65" y="223.5352">TestClusterStarter</text><line style="stroke: #A80036; stroke-width: 1.5;" x1="23" x2="179" y1="235" y2="235"/><line style="stroke: #A80036; stroke-width: 1.5;" x1="23" x2="179" y1="243" y2="243"/><ellipse cx="33" cy="254.9775" fill="#84BE84" rx="3" ry="3" style="stroke: #038048; stroke-width: 1.0;"/><text fill="#000000" font-family="sans-serif" font-size="11" lengthAdjust="spacingAndGlyphs" textLength="132" x="42" y="257.6348">testClusterStarter(): void</text></a><!--link com.bitplan.rc.common.TestSuite to com.bitplan.rc.common.TestEnvironment--><!--link com.bitplan.rc.common.TestSuite to com.bitplan.rc.common.TestClusterStarter--><text fill="#888888" font-family="sans-serif" font-size="10" lengthAdjust="spacingAndGlyphs" textLength="182" x="88.5" y="299.668">UMLDoclet 1.1.4, PlantUML 1.2019.05</text><!--
@startuml

    namespace com.bitplan.rc.common {

        class TestSuite [[TestSuite.html]] {
        }

        class TestEnvironment [[TestEnvironment.html]] {
            +setProperties(String[]): File
            +testEnvironment(): void
            +testCameraUrl(): void
            +testGetMyIpAddresses(): void
        }

        class TestClusterStarter [[TestClusterStarter.html]] {
            +testClusterStarter(): void
        }

    }


    center footer UMLDoclet 1.1.4, PlantUML 1.2019.05
@enduml

PlantUML version 1.2019.05(Sat Apr 20 18:45:36 CEST 2019)
(APACHE source distribution)
Java Runtime: Java(TM) SE Runtime Environment
JVM: Java HotSpot(TM) 64-Bit Server VM
Java Version: 1.8.0_191-b12
Operating System: Mac OS X
OS Version: 10.13.6
Default Encoding: UTF-8
Language: de
Country: DE
--></g></svg>