<?xml version="1.0" encoding="UTF-8" standalone="no"?><svg xmlns="http://www.w3.org/2000/svg" xmlns:xlink="http://www.w3.org/1999/xlink" contentScriptType="application/ecmascript" contentStyleType="text/css" height="153px" preserveAspectRatio="none" style="width:294px;height:153px;" version="1.1" viewBox="0 0 294 153" width="294px" zoomAndPan="magnify"><defs><filter height="300%" id="f2kraj9719u6u" width="300%" x="-1" y="-1"><feGaussianBlur result="blurOut" stdDeviation="2.0"/><feColorMatrix in="blurOut" result="blurOut2" type="matrix" values="0 0 0 0 0 0 0 0 0 0 0 0 0 0 0 0 0 0 .4 0"/><feOffset dx="4.0" dy="4.0" in="blurOut2" result="blurOut3"/><feBlend in="SourceGraphic" in2="blurOut3" mode="normal"/></filter></defs><g><!--cluster nl.vaneijndhoven.dukes.remotecar--><polygon fill="#FFFFFF" filter="url(#f2kraj9719u6u)" points="14,16,262,16,269,38.4883,272,38.4883,272,112,14,112,14,16" style="stroke: #000000; stroke-width: 1.5;"/><line style="stroke: #000000; stroke-width: 1.5;" x1="14" x2="269" y1="38.4883" y2="38.4883"/><text fill="#000000" font-family="sans-serif" font-size="14" font-weight="bold" lengthAdjust="spacingAndGlyphs" textLength="242" x="18" y="31.5352">nl.vaneijndhoven.dukes.remotecar</text><!--class nl.vaneijndhoven.dukes.remotecar.RemoteCar--><a href="RemoteCar.html" target="_top" xlink:actuate="onRequest" xlink:show="new" xlink:title="RemoteCar.html" xlink:type="simple"><rect fill="#FEFECE" filter="url(#f2kraj9719u6u)" height="60.9551" id="nl.vaneijndhoven.dukes.remotecar.RemoteCar" style="stroke: #A80036; stroke-width: 1.5;" width="129" x="78.5" y="43"/><ellipse cx="108.35" cy="59" fill="#ADD1B2" rx="11" ry="11" style="stroke: #A80036; stroke-width: 1.0;"/><path d="M111.3231,64.6431 Q110.7421,64.9419 110.1029,65.0913 Q109.4638,65.2407 108.7582,65.2407 Q106.2514,65.2407 104.9315,63.5889 Q103.6117,61.937 103.6117,58.8159 Q103.6117,55.6865 104.9315,54.0347 Q106.2514,52.3828 108.7582,52.3828 Q109.4638,52.3828 110.1112,52.5322 Q110.7587,52.6816 111.3231,52.9805 L111.3231,55.7031 Q110.6923,55.1221 110.0988,54.8523 Q109.5053,54.5825 108.8744,54.5825 Q107.5297,54.5825 106.8449,55.6492 Q106.1601,56.7158 106.1601,58.8159 Q106.1601,60.9077 106.8449,61.9744 Q107.5297,63.041 108.8744,63.041 Q109.5053,63.041 110.0988,62.7712 Q110.6923,62.5015 111.3231,61.9204 Z "/><text fill="#000000" font-family="sans-serif" font-size="12" lengthAdjust="spacingAndGlyphs" textLength="64" x="125.65" y="63.5352">RemoteCar</text><line style="stroke: #A80036; stroke-width: 1.5;" x1="79.5" x2="206.5" y1="75" y2="75"/><line style="stroke: #A80036; stroke-width: 1.5;" x1="79.5" x2="206.5" y1="83" y2="83"/><ellipse cx="89.5" cy="94.9775" fill="#84BE84" rx="3" ry="3" style="stroke: #038048; stroke-width: 1.0;"/><text fill="#000000" font-family="sans-serif" font-size="11" lengthAdjust="spacingAndGlyphs" text-decoration="underline" textLength="103" x="98.5" y="97.6348">main(String[]): void</text></a><text fill="#888888" font-family="sans-serif" font-size="10" lengthAdjust="spacingAndGlyphs" textLength="182" x="58" y="139.668">UMLDoclet 1.1.4, PlantUML 1.2019.05</text><!--
@startuml

    namespace nl.vaneijndhoven.dukes.remotecar {

        class RemoteCar [[RemoteCar.html]] {
            {static} +main(String[]): void
        }

    }


    center footer UMLDoclet 1.1.4, PlantUML 1.2019.05
@enduml

PlantUML version 1.2019.05(Sat Apr 20 18:45:36 CEST 2019)
(APACHE source distribution)
Java Runtime: Java(TM) SE Runtime Environment
JVM: Java HotSpot(TM) 64-Bit Server VM
Java Version: 1.8.0_191-b12
Operating System: Mac OS X
OS Version: 10.13.6
Default Encoding: UTF-8
Language: de
Country: DE
--></g></svg>