<?xml version="1.0" encoding="UTF-8" standalone="no"?><svg xmlns="http://www.w3.org/2000/svg" xmlns:xlink="http://www.w3.org/1999/xlink" contentScriptType="application/ecmascript" contentStyleType="text/css" height="395px" preserveAspectRatio="none" style="width:716px;height:395px;" version="1.1" viewBox="0 0 716 395" width="716px" zoomAndPan="magnify"><defs><filter height="300%" id="f18pbst873pck6" width="300%" x="-1" y="-1"><feGaussianBlur result="blurOut" stdDeviation="2.0"/><feColorMatrix in="blurOut" result="blurOut2" type="matrix" values="0 0 0 0 0 0 0 0 0 0 0 0 0 0 0 0 0 0 .4 0"/><feOffset dx="4.0" dy="4.0" in="blurOut2" result="blurOut3"/><feBlend in="SourceGraphic" in2="blurOut3" mode="normal"/></filter></defs><g><!--cluster nl.vaneijndhoven.dukes.unclejesse--><polygon fill="#FFFFFF" filter="url(#f18pbst873pck6)" points="14,137,265,137,272,159.4883,694,159.4883,694,354,14,354,14,137" style="stroke: #000000; stroke-width: 1.5;"/><line style="stroke: #000000; stroke-width: 1.5;" x1="14" x2="272" y1="159.4883" y2="159.4883"/><text fill="#000000" font-family="sans-serif" font-size="14" font-weight="bold" lengthAdjust="spacingAndGlyphs" textLength="245" x="18" y="152.5352">nl.vaneijndhoven.dukes.unclejesse</text><!--cluster javafx.application--><polygon fill="#FFFFFF" filter="url(#f18pbst873pck6)" points="19,16,151,16,158,38.4883,161,38.4883,161,112,19,112,19,16" style="stroke: #000000; stroke-width: 1.5;"/><line style="stroke: #000000; stroke-width: 1.5;" x1="19" x2="158" y1="38.4883" y2="38.4883"/><text fill="#000000" font-family="sans-serif" font-size="14" font-weight="bold" lengthAdjust="spacingAndGlyphs" textLength="126" x="23" y="31.5352">javafx.application</text><!--cluster io.vertx.rxjava.core--><polygon fill="#FFFFFF" filter="url(#f18pbst873pck6)" points="170,22.5,308,22.5,315,44.9883,318,44.9883,318,105.5,170,105.5,170,22.5" style="stroke: #000000; stroke-width: 1.5;"/><line style="stroke: #000000; stroke-width: 1.5;" x1="170" x2="315" y1="44.9883" y2="44.9883"/><text fill="#000000" font-family="sans-serif" font-size="14" font-weight="bold" lengthAdjust="spacingAndGlyphs" textLength="132" x="174" y="38.0352">io.vertx.rxjava.core</text><!--class nl.vaneijndhoven.dukes.unclejesse.LaneDetectionApp--><a href="LaneDetectionApp.html" target="_top" xlink:actuate="onRequest" xlink:show="new" xlink:title="LaneDetectionApp.html" xlink:type="simple"><rect fill="#FEFECE" filter="url(#f18pbst873pck6)" height="73.9102" id="nl.vaneijndhoven.dukes.unclejesse.LaneDetectionApp" style="stroke: #A80036; stroke-width: 1.5;" width="137" x="22.5" y="164"/><ellipse cx="37.5" cy="180" fill="#ADD1B2" rx="11" ry="11" style="stroke: #A80036; stroke-width: 1.0;"/><path d="M40.4731,185.6431 Q39.8921,185.9419 39.2529,186.0913 Q38.6138,186.2407 37.9082,186.2407 Q35.4014,186.2407 34.0815,184.5889 Q32.7617,182.937 32.7617,179.8159 Q32.7617,176.6865 34.0815,175.0347 Q35.4014,173.3828 37.9082,173.3828 Q38.6138,173.3828 39.2612,173.5322 Q39.9087,173.6816 40.4731,173.9805 L40.4731,176.7031 Q39.8423,176.1221 39.2488,175.8523 Q38.6553,175.5825 38.0244,175.5825 Q36.6797,175.5825 35.9949,176.6492 Q35.3101,177.7158 35.3101,179.8159 Q35.3101,181.9077 35.9949,182.9744 Q36.6797,184.041 38.0244,184.041 Q38.6553,184.041 39.2488,183.7712 Q39.8423,183.5015 40.4731,182.9204 Z "/><text fill="#000000" font-family="sans-serif" font-size="12" lengthAdjust="spacingAndGlyphs" textLength="105" x="51.5" y="184.5352">LaneDetectionApp</text><line style="stroke: #A80036; stroke-width: 1.5;" x1="23.5" x2="158.5" y1="196" y2="196"/><line style="stroke: #A80036; stroke-width: 1.5;" x1="23.5" x2="158.5" y1="204" y2="204"/><ellipse cx="33.5" cy="215.9775" fill="#84BE84" rx="3" ry="3" style="stroke: #038048; stroke-width: 1.0;"/><text fill="#000000" font-family="sans-serif" font-size="11" lengthAdjust="spacingAndGlyphs" textLength="91" x="42.5" y="218.6348">start(Stage): void</text><ellipse cx="33.5" cy="228.9326" fill="#84BE84" rx="3" ry="3" style="stroke: #038048; stroke-width: 1.0;"/><text fill="#000000" font-family="sans-serif" font-size="11" lengthAdjust="spacingAndGlyphs" text-decoration="underline" textLength="103" x="42.5" y="231.5898">main(String[]): void</text></a><!--class nl.vaneijndhoven.dukes.unclejesse.LaneDetectionGUI--><a href="LaneDetectionGUI.html" target="_top" xlink:actuate="onRequest" xlink:show="new" xlink:title="LaneDetectionGUI.html" xlink:type="simple"><rect fill="#FEFECE" filter="url(#f18pbst873pck6)" height="48" id="nl.vaneijndhoven.dukes.unclejesse.LaneDetectionGUI" style="stroke: #A80036; stroke-width: 1.5;" width="133" x="322.5" y="177"/><ellipse cx="337.5" cy="193" fill="#ADD1B2" rx="11" ry="11" style="stroke: #A80036; stroke-width: 1.0;"/><path d="M340.4731,198.6431 Q339.8921,198.9419 339.2529,199.0913 Q338.6138,199.2407 337.9082,199.2407 Q335.4014,199.2407 334.0815,197.5889 Q332.7617,195.937 332.7617,192.8159 Q332.7617,189.6865 334.0815,188.0347 Q335.4014,186.3828 337.9082,186.3828 Q338.6138,186.3828 339.2612,186.5322 Q339.9087,186.6816 340.4731,186.9805 L340.4731,189.7031 Q339.8423,189.1221 339.2488,188.8523 Q338.6553,188.5825 338.0244,188.5825 Q336.6797,188.5825 335.9949,189.6492 Q335.3101,190.7158 335.3101,192.8159 Q335.3101,194.9077 335.9949,195.9744 Q336.6797,197.041 338.0244,197.041 Q338.6553,197.041 339.2488,196.7712 Q339.8423,196.5015 340.4731,195.9204 Z "/><text fill="#000000" font-family="sans-serif" font-size="12" lengthAdjust="spacingAndGlyphs" textLength="101" x="351.5" y="197.5352">LaneDetectionGUI</text><line style="stroke: #A80036; stroke-width: 1.5;" x1="323.5" x2="454.5" y1="209" y2="209"/><line style="stroke: #A80036; stroke-width: 1.5;" x1="323.5" x2="454.5" y1="217" y2="217"/></a><!--class nl.vaneijndhoven.dukes.unclejesse.UncleJesse--><a href="UncleJesse.html" target="_top" xlink:actuate="onRequest" xlink:show="new" xlink:title="UncleJesse.html" xlink:type="simple"><rect fill="#FEFECE" filter="url(#f18pbst873pck6)" height="60.9551" id="nl.vaneijndhoven.dukes.unclejesse.UncleJesse" style="stroke: #A80036; stroke-width: 1.5;" width="93" x="194.5" y="170.5"/><ellipse cx="209.5" cy="186.5" fill="#ADD1B2" rx="11" ry="11" style="stroke: #A80036; stroke-width: 1.0;"/><path d="M212.4731,192.1431 Q211.8921,192.4419 211.2529,192.5913 Q210.6138,192.7407 209.9082,192.7407 Q207.4014,192.7407 206.0815,191.0889 Q204.7617,189.437 204.7617,186.3159 Q204.7617,183.1865 206.0815,181.5347 Q207.4014,179.8828 209.9082,179.8828 Q210.6138,179.8828 211.2612,180.0322 Q211.9087,180.1816 212.4731,180.4805 L212.4731,183.2031 Q211.8423,182.6221 211.2488,182.3523 Q210.6553,182.0825 210.0244,182.0825 Q208.6797,182.0825 207.9949,183.1492 Q207.3101,184.2158 207.3101,186.3159 Q207.3101,188.4077 207.9949,189.4744 Q208.6797,190.541 210.0244,190.541 Q210.6553,190.541 211.2488,190.2712 Q211.8423,190.0015 212.4731,189.4204 Z "/><text fill="#000000" font-family="sans-serif" font-size="12" lengthAdjust="spacingAndGlyphs" textLength="61" x="223.5" y="191.0352">UncleJesse</text><line style="stroke: #A80036; stroke-width: 1.5;" x1="195.5" x2="286.5" y1="202.5" y2="202.5"/><line style="stroke: #A80036; stroke-width: 1.5;" x1="195.5" x2="286.5" y1="210.5" y2="210.5"/><ellipse cx="205.5" cy="222.4775" fill="#84BE84" rx="3" ry="3" style="stroke: #038048; stroke-width: 1.0;"/><text fill="#000000" font-family="sans-serif" font-size="11" lengthAdjust="spacingAndGlyphs" textLength="62" x="214.5" y="225.1348">start(): void</text></a><!--class nl.vaneijndhoven.dukes.unclejesse.StartLightDetectionController--><a href="StartLightDetectionController.html" target="_top" xlink:actuate="onRequest" xlink:show="new" xlink:title="StartLightDetectionController.html" xlink:type="simple"><rect fill="#FEFECE" filter="url(#f18pbst873pck6)" height="48" id="nl.vaneijndhoven.dukes.unclejesse.StartLightDetectionController" style="stroke: #A80036; stroke-width: 1.5;" width="195" x="490.5" y="177"/><ellipse cx="505.5" cy="193" fill="#ADD1B2" rx="11" ry="11" style="stroke: #A80036; stroke-width: 1.0;"/><path d="M508.4731,198.6431 Q507.8921,198.9419 507.2529,199.0913 Q506.6138,199.2407 505.9082,199.2407 Q503.4014,199.2407 502.0815,197.5889 Q500.7617,195.937 500.7617,192.8159 Q500.7617,189.6865 502.0815,188.0347 Q503.4014,186.3828 505.9082,186.3828 Q506.6138,186.3828 507.2612,186.5322 Q507.9087,186.6816 508.4731,186.9805 L508.4731,189.7031 Q507.8423,189.1221 507.2488,188.8523 Q506.6553,188.5825 506.0244,188.5825 Q504.6797,188.5825 503.9949,189.6492 Q503.3101,190.7158 503.3101,192.8159 Q503.3101,194.9077 503.9949,195.9744 Q504.6797,197.041 506.0244,197.041 Q506.6553,197.041 507.2488,196.7712 Q507.8423,196.5015 508.4731,195.9204 Z "/><text fill="#000000" font-family="sans-serif" font-size="12" lengthAdjust="spacingAndGlyphs" textLength="163" x="519.5" y="197.5352">StartLightDetectionController</text><line style="stroke: #A80036; stroke-width: 1.5;" x1="491.5" x2="684.5" y1="209" y2="209"/><line style="stroke: #A80036; stroke-width: 1.5;" x1="491.5" x2="684.5" y1="217" y2="217"/></a><!--class nl.vaneijndhoven.dukes.unclejesse.LaneDetectionController--><a href="LaneDetectionController.html" target="_top" xlink:actuate="onRequest" xlink:show="new" xlink:title="LaneDetectionController.html" xlink:type="simple"><rect fill="#FEFECE" filter="url(#f18pbst873pck6)" height="48" id="nl.vaneijndhoven.dukes.unclejesse.LaneDetectionController" style="stroke: #A80036; stroke-width: 1.5;" width="169" x="304.5" y="298"/><ellipse cx="319.5" cy="314" fill="#ADD1B2" rx="11" ry="11" style="stroke: #A80036; stroke-width: 1.0;"/><path d="M322.4731,319.6431 Q321.8921,319.9419 321.2529,320.0913 Q320.6138,320.2407 319.9082,320.2407 Q317.4014,320.2407 316.0815,318.5889 Q314.7617,316.937 314.7617,313.8159 Q314.7617,310.6865 316.0815,309.0347 Q317.4014,307.3828 319.9082,307.3828 Q320.6138,307.3828 321.2612,307.5322 Q321.9087,307.6816 322.4731,307.9805 L322.4731,310.7031 Q321.8423,310.1221 321.2488,309.8523 Q320.6553,309.5825 320.0244,309.5825 Q318.6797,309.5825 317.9949,310.6492 Q317.3101,311.7158 317.3101,313.8159 Q317.3101,315.9077 317.9949,316.9744 Q318.6797,318.041 320.0244,318.041 Q320.6553,318.041 321.2488,317.7712 Q321.8423,317.5015 322.4731,316.9204 Z "/><text fill="#000000" font-family="sans-serif" font-size="12" lengthAdjust="spacingAndGlyphs" textLength="137" x="333.5" y="318.5352">LaneDetectionController</text><line style="stroke: #A80036; stroke-width: 1.5;" x1="305.5" x2="472.5" y1="330" y2="330"/><line style="stroke: #A80036; stroke-width: 1.5;" x1="305.5" x2="472.5" y1="338" y2="338"/></a><!--class nl.vaneijndhoven.dukes.unclejesse.StartLightDetectionApp--><a href="StartLightDetectionApp.html" target="_top" xlink:actuate="onRequest" xlink:show="new" xlink:title="StartLightDetectionApp.html" xlink:type="simple"><rect fill="#FEFECE" filter="url(#f18pbst873pck6)" height="48" id="nl.vaneijndhoven.dukes.unclejesse.StartLightDetectionApp" style="stroke: #A80036; stroke-width: 1.5;" width="163" x="508.5" y="298"/><ellipse cx="523.5" cy="314" fill="#ADD1B2" rx="11" ry="11" style="stroke: #A80036; stroke-width: 1.0;"/><path d="M526.4731,319.6431 Q525.8921,319.9419 525.2529,320.0913 Q524.6138,320.2407 523.9082,320.2407 Q521.4014,320.2407 520.0815,318.5889 Q518.7617,316.937 518.7617,313.8159 Q518.7617,310.6865 520.0815,309.0347 Q521.4014,307.3828 523.9082,307.3828 Q524.6138,307.3828 525.2612,307.5322 Q525.9087,307.6816 526.4731,307.9805 L526.4731,310.7031 Q525.8423,310.1221 525.2488,309.8523 Q524.6553,309.5825 524.0244,309.5825 Q522.6797,309.5825 521.9949,310.6492 Q521.3101,311.7158 521.3101,313.8159 Q521.3101,315.9077 521.9949,316.9744 Q522.6797,318.041 524.0244,318.041 Q524.6553,318.041 525.2488,317.7712 Q525.8423,317.5015 526.4731,316.9204 Z "/><text fill="#000000" font-family="sans-serif" font-size="12" lengthAdjust="spacingAndGlyphs" textLength="131" x="537.5" y="318.5352">StartLightDetectionApp</text><line style="stroke: #A80036; stroke-width: 1.5;" x1="509.5" x2="670.5" y1="330" y2="330"/><line style="stroke: #A80036; stroke-width: 1.5;" x1="509.5" x2="670.5" y1="338" y2="338"/></a><!--class javafx.application.Application--><rect fill="#FEFECE" filter="url(#f18pbst873pck6)" height="60.9551" id="javafx.application.Application" style="stroke: #A80036; stroke-width: 1.5;" width="117" x="29.5" y="43"/><ellipse cx="53.95" cy="59" fill="#A9DCDF" rx="11" ry="11" style="stroke: #A80036; stroke-width: 1.0;"/><path d="M54.0633,54.3481 L52.9095,59.4199 L55.2254,59.4199 Z M52.5691,52.1069 L55.5657,52.1069 L58.9109,64.5 L56.4622,64.5 L55.6985,61.437 L52.4197,61.437 L51.6727,64.5 L49.2239,64.5 Z "/><text fill="#000000" font-family="sans-serif" font-size="12" font-style="italic" lengthAdjust="spacingAndGlyphs" textLength="64" x="70.05" y="63.5352">Application</text><line style="stroke: #A80036; stroke-width: 1.5;" x1="30.5" x2="145.5" y1="75" y2="75"/><line style="stroke: #A80036; stroke-width: 1.5;" x1="30.5" x2="145.5" y1="83" y2="83"/><ellipse cx="40.5" cy="94.9775" fill="#84BE84" rx="3" ry="3" style="stroke: #038048; stroke-width: 1.0;"/><text fill="#000000" font-family="sans-serif" font-size="11" font-style="italic" lengthAdjust="spacingAndGlyphs" textLength="91" x="49.5" y="97.6348">start(Stage): void</text><!--class io.vertx.rxjava.core.AbstractVerticle--><rect fill="#FEFECE" filter="url(#f18pbst873pck6)" height="48" id="io.vertx.rxjava.core.AbstractVerticle" style="stroke: #A80036; stroke-width: 1.5;" width="123" x="181.5" y="49.5"/><ellipse cx="196.5" cy="65.5" fill="#ADD1B2" rx="11" ry="11" style="stroke: #A80036; stroke-width: 1.0;"/><path d="M199.4731,71.1431 Q198.8921,71.4419 198.2529,71.5913 Q197.6138,71.7407 196.9082,71.7407 Q194.4014,71.7407 193.0815,70.0889 Q191.7617,68.437 191.7617,65.3159 Q191.7617,62.1865 193.0815,60.5347 Q194.4014,58.8828 196.9082,58.8828 Q197.6138,58.8828 198.2612,59.0322 Q198.9087,59.1816 199.4731,59.4805 L199.4731,62.2031 Q198.8423,61.6221 198.2488,61.3523 Q197.6553,61.0825 197.0244,61.0825 Q195.6797,61.0825 194.9949,62.1492 Q194.3101,63.2158 194.3101,65.3159 Q194.3101,67.4077 194.9949,68.4744 Q195.6797,69.541 197.0244,69.541 Q197.6553,69.541 198.2488,69.2712 Q198.8423,69.0015 199.4731,68.4204 Z "/><text fill="#000000" font-family="sans-serif" font-size="12" lengthAdjust="spacingAndGlyphs" textLength="91" x="210.5" y="70.0352">AbstractVerticle</text><line style="stroke: #A80036; stroke-width: 1.5;" x1="182.5" x2="303.5" y1="81.5" y2="81.5"/><line style="stroke: #A80036; stroke-width: 1.5;" x1="182.5" x2="303.5" y1="89.5" y2="89.5"/><!--link javafx.application.Application to nl.vaneijndhoven.dukes.unclejesse.LaneDetectionApp--><path d="M89.1984,124.4308 C89.5086,137.6149 89.8368,151.562 90.1268,163.8888 " fill="none" id="javafx.application.Application-nl.vaneijndhoven.dukes.unclejesse.LaneDetectionApp" style="stroke: #A80036; stroke-width: 1.0;"/><polygon fill="none" points="82.1911,124.1986,88.7186,104.0394,96.1872,123.8692,82.1911,124.1986" style="stroke: #A80036; stroke-width: 1.0;"/><!--link io.vertx.rxjava.core.AbstractVerticle to nl.vaneijndhoven.dukes.unclejesse.UncleJesse--><path d="M242.3039,117.8739 C242.0313,135.2531 241.7254,154.7552 241.4784,170.4998 " fill="none" id="io.vertx.rxjava.core.AbstractVerticle-nl.vaneijndhoven.dukes.unclejesse.UncleJesse" style="stroke: #A80036; stroke-width: 1.0;"/><polygon fill="none" points="235.3062,117.6696,242.6191,97.7819,249.3045,117.8892,235.3062,117.6696" style="stroke: #A80036; stroke-width: 1.0;"/><!--link nl.vaneijndhoven.dukes.unclejesse.LaneDetectionGUI to nl.vaneijndhoven.dukes.unclejesse.StartLightDetectionController--><!--link nl.vaneijndhoven.dukes.unclejesse.LaneDetectionGUI to nl.vaneijndhoven.dukes.unclejesse.LaneDetectionController--><!--link nl.vaneijndhoven.dukes.unclejesse.LaneDetectionController to nl.vaneijndhoven.dukes.unclejesse.StartLightDetectionApp--><text fill="#888888" font-family="sans-serif" font-size="10" lengthAdjust="spacingAndGlyphs" textLength="182" x="269" y="381.668">UMLDoclet 1.1.4, PlantUML 1.2019.05</text><!--
@startuml

    namespace nl.vaneijndhoven.dukes.unclejesse {

        class LaneDetectionApp [[LaneDetectionApp.html]] {
            +start(Stage): void
            {static} +main(String[]): void
        }

        class LaneDetectionGUI [[LaneDetectionGUI.html]] {
        }

        class UncleJesse [[UncleJesse.html]] {
            +start(): void
        }

        class StartLightDetectionController [[StartLightDetectionController.html]] {
        }

        class LaneDetectionController [[LaneDetectionController.html]] {
        }

        class StartLightDetectionApp [[StartLightDetectionApp.html]] {
        }

        abstract class javafx.application.Application {
            {abstract} +start(Stage): void
        }
        javafx.application.Application <|- - LaneDetectionApp

        class io.vertx.rxjava.core.AbstractVerticle
        io.vertx.rxjava.core.AbstractVerticle <|- - UncleJesse

    }


    center footer UMLDoclet 1.1.4, PlantUML 1.2019.05
@enduml

PlantUML version 1.2019.05(Sat Apr 20 18:45:36 CEST 2019)
(APACHE source distribution)
Java Runtime: Java(TM) SE Runtime Environment
JVM: Java HotSpot(TM) 64-Bit Server VM
Java Version: 1.8.0_152-b16
Operating System: Mac OS X
OS Version: 10.13.6
Default Encoding: UTF-8
Language: de
Country: DE
--></g></svg>