<?xml version="1.0" encoding="UTF-8" standalone="no"?><svg xmlns="http://www.w3.org/2000/svg" xmlns:xlink="http://www.w3.org/1999/xlink" contentScriptType="application/ecmascript" contentStyleType="text/css" height="102px" preserveAspectRatio="none" style="width:194px;height:102px;" version="1.1" viewBox="0 0 194 102" width="194px" zoomAndPan="magnify"><defs><filter height="300%" id="f1hb9c9crr58t5" width="300%" x="-1" y="-1"><feGaussianBlur result="blurOut" stdDeviation="2.0"/><feColorMatrix in="blurOut" result="blurOut2" type="matrix" values="0 0 0 0 0 0 0 0 0 0 0 0 0 0 0 0 0 0 .4 0"/><feOffset dx="4.0" dy="4.0" in="blurOut2" result="blurOut3"/><feBlend in="SourceGraphic" in2="blurOut3" mode="normal"/></filter></defs><g><!--class NearField--><a href="NearField.html" target="_top" xlink:actuate="onRequest" xlink:show="new" xlink:title="NearField.html" xlink:type="simple"><rect fill="#FEFECE" filter="url(#f1hb9c9crr58t5)" height="60.9551" id="NearField" style="stroke: #A80036; stroke-width: 1.5;" width="121" x="24.5" y="8"/><ellipse cx="54.8" cy="24" fill="#ADD1B2" rx="11" ry="11" style="stroke: #A80036; stroke-width: 1.0;"/><path d="M57.7731,29.6431 Q57.1921,29.9419 56.5529,30.0913 Q55.9138,30.2407 55.2082,30.2407 Q52.7014,30.2407 51.3815,28.5889 Q50.0617,26.937 50.0617,23.8159 Q50.0617,20.6865 51.3815,19.0347 Q52.7014,17.3828 55.2082,17.3828 Q55.9138,17.3828 56.5612,17.5322 Q57.2087,17.6816 57.7731,17.9805 L57.7731,20.7031 Q57.1423,20.1221 56.5488,19.8523 Q55.9553,19.5825 55.3244,19.5825 Q53.9797,19.5825 53.2949,20.6492 Q52.6101,21.7158 52.6101,23.8159 Q52.6101,25.9077 53.2949,26.9744 Q53.9797,28.041 55.3244,28.041 Q55.9553,28.041 56.5488,27.7712 Q57.1423,27.5015 57.7731,26.9204 Z "/><text fill="#000000" font-family="sans-serif" font-size="12" lengthAdjust="spacingAndGlyphs" textLength="55" x="72.2" y="28.5352">NearField</text><line style="stroke: #A80036; stroke-width: 1.5;" x1="25.5" x2="144.5" y1="40" y2="40"/><line style="stroke: #A80036; stroke-width: 1.5;" x1="25.5" x2="144.5" y1="48" y2="48"/><ellipse cx="35.5" cy="59.9775" fill="#84BE84" rx="3" ry="3" style="stroke: #038048; stroke-width: 1.0;"/><text fill="#000000" font-family="sans-serif" font-size="11" lengthAdjust="spacingAndGlyphs" textLength="95" x="44.5" y="62.6348">NearField(double)</text></a><text fill="#888888" font-family="sans-serif" font-size="10" lengthAdjust="spacingAndGlyphs" textLength="182" x="0" y="88.668">UMLDoclet 1.1.4, PlantUML 1.2019.05</text><!--
@startuml

    class NearField [[NearField.html]] {
        +NearField(double)
    }


    center footer UMLDoclet 1.1.4, PlantUML 1.2019.05
@enduml

PlantUML version 1.2019.05(Sat Apr 20 18:45:36 CEST 2019)
(APACHE source distribution)
Java Runtime: Java(TM) SE Runtime Environment
JVM: Java HotSpot(TM) 64-Bit Server VM
Java Version: 1.8.0_152-b16
Operating System: Mac OS X
OS Version: 10.13.6
Default Encoding: UTF-8
Language: de
Country: DE
--></g></svg>