<?xml version="1.0" encoding="UTF-8" standalone="no"?><svg xmlns="http://www.w3.org/2000/svg" xmlns:xlink="http://www.w3.org/1999/xlink" contentScriptType="application/ecmascript" contentStyleType="text/css" height="300px" preserveAspectRatio="none" style="width:632px;height:300px;" version="1.1" viewBox="0 0 632 300" width="632px" zoomAndPan="magnify"><defs><filter height="300%" id="f1ia6uvl7n63uq" width="300%" x="-1" y="-1"><feGaussianBlur result="blurOut" stdDeviation="2.0"/><feColorMatrix in="blurOut" result="blurOut2" type="matrix" values="0 0 0 0 0 0 0 0 0 0 0 0 0 0 0 0 0 0 .4 0"/><feOffset dx="4.0" dy="4.0" in="blurOut2" result="blurOut3"/><feBlend in="SourceGraphic" in2="blurOut3" mode="normal"/></filter></defs><g><!--cluster nl.vaneijndhoven.dukes.cletus.roi--><polygon fill="#FFFFFF" filter="url(#f1ia6uvl7n63uq)" points="14,16,256,16,263,38.4883,610,38.4883,610,259,14,259,14,16" style="stroke: #000000; stroke-width: 1.5;"/><line style="stroke: #000000; stroke-width: 1.5;" x1="14" x2="263" y1="38.4883" y2="38.4883"/><text fill="#000000" font-family="sans-serif" font-size="14" font-weight="bold" lengthAdjust="spacingAndGlyphs" textLength="236" x="18" y="31.5352">nl.vaneijndhoven.dukes.cletus.roi</text><!--class nl.vaneijndhoven.dukes.cletus.roi.NearField--><a href="NearField.html" target="_top" xlink:actuate="onRequest" xlink:show="new" xlink:title="NearField.html" xlink:type="simple"><rect fill="#FEFECE" filter="url(#f1ia6uvl7n63uq)" height="60.9551" id="nl.vaneijndhoven.dukes.cletus.roi.NearField" style="stroke: #A80036; stroke-width: 1.5;" width="121" x="22.5" y="190"/><ellipse cx="52.8" cy="206" fill="#ADD1B2" rx="11" ry="11" style="stroke: #A80036; stroke-width: 1.0;"/><path d="M55.7731,211.6431 Q55.1921,211.9419 54.5529,212.0913 Q53.9138,212.2407 53.2082,212.2407 Q50.7014,212.2407 49.3815,210.5889 Q48.0617,208.937 48.0617,205.8159 Q48.0617,202.6865 49.3815,201.0347 Q50.7014,199.3828 53.2082,199.3828 Q53.9138,199.3828 54.5612,199.5322 Q55.2087,199.6816 55.7731,199.9805 L55.7731,202.7031 Q55.1423,202.1221 54.5488,201.8523 Q53.9553,201.5825 53.3244,201.5825 Q51.9797,201.5825 51.2949,202.6492 Q50.6101,203.7158 50.6101,205.8159 Q50.6101,207.9077 51.2949,208.9744 Q51.9797,210.041 53.3244,210.041 Q53.9553,210.041 54.5488,209.7712 Q55.1423,209.5015 55.7731,208.9204 Z "/><text fill="#000000" font-family="sans-serif" font-size="12" lengthAdjust="spacingAndGlyphs" textLength="55" x="70.2" y="210.5352">NearField</text><line style="stroke: #A80036; stroke-width: 1.5;" x1="23.5" x2="142.5" y1="222" y2="222"/><line style="stroke: #A80036; stroke-width: 1.5;" x1="23.5" x2="142.5" y1="230" y2="230"/><ellipse cx="33.5" cy="241.9775" fill="#84BE84" rx="3" ry="3" style="stroke: #038048; stroke-width: 1.0;"/><text fill="#000000" font-family="sans-serif" font-size="11" lengthAdjust="spacingAndGlyphs" textLength="95" x="42.5" y="244.6348">NearField(double)</text></a><!--class nl.vaneijndhoven.dukes.cletus.roi.FarField--><a href="FarField.html" target="_top" xlink:actuate="onRequest" xlink:show="new" xlink:title="FarField.html" xlink:type="simple"><rect fill="#FEFECE" filter="url(#f1ia6uvl7n63uq)" height="60.9551" id="nl.vaneijndhoven.dukes.cletus.roi.FarField" style="stroke: #A80036; stroke-width: 1.5;" width="113" x="178.5" y="190"/><ellipse cx="209.7" cy="206" fill="#ADD1B2" rx="11" ry="11" style="stroke: #A80036; stroke-width: 1.0;"/><path d="M212.6731,211.6431 Q212.0921,211.9419 211.4529,212.0913 Q210.8138,212.2407 210.1082,212.2407 Q207.6014,212.2407 206.2815,210.5889 Q204.9617,208.937 204.9617,205.8159 Q204.9617,202.6865 206.2815,201.0347 Q207.6014,199.3828 210.1082,199.3828 Q210.8138,199.3828 211.4612,199.5322 Q212.1087,199.6816 212.6731,199.9805 L212.6731,202.7031 Q212.0423,202.1221 211.4488,201.8523 Q210.8553,201.5825 210.2244,201.5825 Q208.8797,201.5825 208.1949,202.6492 Q207.5101,203.7158 207.5101,205.8159 Q207.5101,207.9077 208.1949,208.9744 Q208.8797,210.041 210.2244,210.041 Q210.8553,210.041 211.4488,209.7712 Q212.0423,209.5015 212.6731,208.9204 Z "/><text fill="#000000" font-family="sans-serif" font-size="12" lengthAdjust="spacingAndGlyphs" textLength="45" x="227.3" y="210.5352">FarField</text><line style="stroke: #A80036; stroke-width: 1.5;" x1="179.5" x2="290.5" y1="222" y2="222"/><line style="stroke: #A80036; stroke-width: 1.5;" x1="179.5" x2="290.5" y1="230" y2="230"/><ellipse cx="189.5" cy="241.9775" fill="#84BE84" rx="3" ry="3" style="stroke: #038048; stroke-width: 1.0;"/><text fill="#000000" font-family="sans-serif" font-size="11" lengthAdjust="spacingAndGlyphs" textLength="87" x="198.5" y="244.6348">FarField(double)</text></a><!--class nl.vaneijndhoven.dukes.cletus.roi.RegionOfInterest--><a href="RegionOfInterest.html" target="_top" xlink:actuate="onRequest" xlink:show="new" xlink:title="RegionOfInterest.html" xlink:type="simple"><rect fill="#FEFECE" filter="url(#f1ia6uvl7n63uq)" height="86.8652" id="nl.vaneijndhoven.dukes.cletus.roi.RegionOfInterest" style="stroke: #A80036; stroke-width: 1.5;" width="291" x="164.5" y="43"/><ellipse cx="258.25" cy="59" fill="#ADD1B2" rx="11" ry="11" style="stroke: #A80036; stroke-width: 1.0;"/><path d="M261.2231,64.6431 Q260.6421,64.9419 260.0029,65.0913 Q259.3638,65.2407 258.6582,65.2407 Q256.1514,65.2407 254.8315,63.5889 Q253.5117,61.937 253.5117,58.8159 Q253.5117,55.6865 254.8315,54.0347 Q256.1514,52.3828 258.6582,52.3828 Q259.3638,52.3828 260.0112,52.5322 Q260.6587,52.6816 261.2231,52.9805 L261.2231,55.7031 Q260.5923,55.1221 259.9988,54.8523 Q259.4053,54.5825 258.7744,54.5825 Q257.4297,54.5825 256.7449,55.6492 Q256.0601,56.7158 256.0601,58.8159 Q256.0601,60.9077 256.7449,61.9744 Q257.4297,63.041 258.7744,63.041 Q259.4053,63.041 259.9988,62.7712 Q260.5923,62.5015 261.2231,61.9204 Z "/><text fill="#000000" font-family="sans-serif" font-size="12" lengthAdjust="spacingAndGlyphs" textLength="95" x="278.75" y="63.5352">RegionOfInterest</text><line style="stroke: #A80036; stroke-width: 1.5;" x1="165.5" x2="454.5" y1="75" y2="75"/><line style="stroke: #A80036; stroke-width: 1.5;" x1="165.5" x2="454.5" y1="83" y2="83"/><ellipse cx="175.5" cy="94.9775" fill="#84BE84" rx="3" ry="3" style="stroke: #038048; stroke-width: 1.0;"/><text fill="#000000" font-family="sans-serif" font-size="11" lengthAdjust="spacingAndGlyphs" textLength="265" x="184.5" y="97.6348">RegionOfInterest(double, double, double, double)</text><ellipse cx="175.5" cy="107.9326" fill="#84BE84" rx="3" ry="3" style="stroke: #038048; stroke-width: 1.0;"/><text fill="#000000" font-family="sans-serif" font-size="11" lengthAdjust="spacingAndGlyphs" textLength="73" x="184.5" y="110.5898">roi(Size): Rect</text><ellipse cx="175.5" cy="120.8877" fill="#84BE84" rx="3" ry="3" style="stroke: #038048; stroke-width: 1.0;"/><text fill="#000000" font-family="sans-serif" font-size="11" lengthAdjust="spacingAndGlyphs" textLength="87" x="184.5" y="123.5449">region(Mat): Mat</text></a><!--class nl.vaneijndhoven.dukes.cletus.roi.LeftField--><a href="LeftField.html" target="_top" xlink:actuate="onRequest" xlink:show="new" xlink:title="LeftField.html" xlink:type="simple"><rect fill="#FEFECE" filter="url(#f1ia6uvl7n63uq)" height="60.9551" id="nl.vaneijndhoven.dukes.cletus.roi.LeftField" style="stroke: #A80036; stroke-width: 1.5;" width="116" x="327" y="190"/><ellipse cx="358.2" cy="206" fill="#ADD1B2" rx="11" ry="11" style="stroke: #A80036; stroke-width: 1.0;"/><path d="M361.1731,211.6431 Q360.5921,211.9419 359.9529,212.0913 Q359.3138,212.2407 358.6082,212.2407 Q356.1014,212.2407 354.7815,210.5889 Q353.4617,208.937 353.4617,205.8159 Q353.4617,202.6865 354.7815,201.0347 Q356.1014,199.3828 358.6082,199.3828 Q359.3138,199.3828 359.9612,199.5322 Q360.6087,199.6816 361.1731,199.9805 L361.1731,202.7031 Q360.5423,202.1221 359.9488,201.8523 Q359.3553,201.5825 358.7244,201.5825 Q357.3797,201.5825 356.6949,202.6492 Q356.0101,203.7158 356.0101,205.8159 Q356.0101,207.9077 356.6949,208.9744 Q357.3797,210.041 358.7244,210.041 Q359.3553,210.041 359.9488,209.7712 Q360.5423,209.5015 361.1731,208.9204 Z "/><text fill="#000000" font-family="sans-serif" font-size="12" lengthAdjust="spacingAndGlyphs" textLength="48" x="375.8" y="210.5352">LeftField</text><line style="stroke: #A80036; stroke-width: 1.5;" x1="328" x2="442" y1="222" y2="222"/><line style="stroke: #A80036; stroke-width: 1.5;" x1="328" x2="442" y1="230" y2="230"/><ellipse cx="338" cy="241.9775" fill="#84BE84" rx="3" ry="3" style="stroke: #038048; stroke-width: 1.0;"/><text fill="#000000" font-family="sans-serif" font-size="11" lengthAdjust="spacingAndGlyphs" textLength="90" x="347" y="244.6348">LeftField(double)</text></a><!--class nl.vaneijndhoven.dukes.cletus.roi.RightField--><a href="RightField.html" target="_top" xlink:actuate="onRequest" xlink:show="new" xlink:title="RightField.html" xlink:type="simple"><rect fill="#FEFECE" filter="url(#f1ia6uvl7n63uq)" height="60.9551" id="nl.vaneijndhoven.dukes.cletus.roi.RightField" style="stroke: #A80036; stroke-width: 1.5;" width="124" x="478" y="190"/><ellipse cx="509.2" cy="206" fill="#ADD1B2" rx="11" ry="11" style="stroke: #A80036; stroke-width: 1.0;"/><path d="M512.1731,211.6431 Q511.5921,211.9419 510.9529,212.0913 Q510.3138,212.2407 509.6082,212.2407 Q507.1014,212.2407 505.7815,210.5889 Q504.4617,208.937 504.4617,205.8159 Q504.4617,202.6865 505.7815,201.0347 Q507.1014,199.3828 509.6082,199.3828 Q510.3138,199.3828 510.9612,199.5322 Q511.6087,199.6816 512.1731,199.9805 L512.1731,202.7031 Q511.5423,202.1221 510.9488,201.8523 Q510.3553,201.5825 509.7244,201.5825 Q508.3797,201.5825 507.6949,202.6492 Q507.0101,203.7158 507.0101,205.8159 Q507.0101,207.9077 507.6949,208.9744 Q508.3797,210.041 509.7244,210.041 Q510.3553,210.041 510.9488,209.7712 Q511.5423,209.5015 512.1731,208.9204 Z "/><text fill="#000000" font-family="sans-serif" font-size="12" lengthAdjust="spacingAndGlyphs" textLength="56" x="526.8" y="210.5352">RightField</text><line style="stroke: #A80036; stroke-width: 1.5;" x1="479" x2="601" y1="222" y2="222"/><line style="stroke: #A80036; stroke-width: 1.5;" x1="479" x2="601" y1="230" y2="230"/><ellipse cx="489" cy="241.9775" fill="#84BE84" rx="3" ry="3" style="stroke: #038048; stroke-width: 1.0;"/><text fill="#000000" font-family="sans-serif" font-size="11" lengthAdjust="spacingAndGlyphs" textLength="98" x="498" y="244.6348">RightField(double)</text></a><!--link nl.vaneijndhoven.dukes.cletus.roi.RegionOfInterest to nl.vaneijndhoven.dukes.cletus.roi.NearField--><path d="M218.8201,140.3242 C190.2289,157.2019 159.6704,175.2408 134.7939,189.9257 " fill="none" id="nl.vaneijndhoven.dukes.cletus.roi.RegionOfInterest-nl.vaneijndhoven.dukes.cletus.roi.NearField" style="stroke: #A80036; stroke-width: 1.0;"/><polygon fill="none" points="215.5181,134.1448,236.2996,130.006,222.635,146.201,215.5181,134.1448" style="stroke: #A80036; stroke-width: 1.0;"/><!--link nl.vaneijndhoven.dukes.cletus.roi.RegionOfInterest to nl.vaneijndhoven.dukes.cletus.roi.FarField--><path d="M275.8323,147.5462 C267.6082,162.2401 259.1685,177.3189 252.1125,189.9257 " fill="none" id="nl.vaneijndhoven.dukes.cletus.roi.RegionOfInterest-nl.vaneijndhoven.dukes.cletus.roi.FarField" style="stroke: #A80036; stroke-width: 1.0;"/><polygon fill="none" points="269.7732,144.0395,285.6496,130.006,281.9898,150.8772,269.7732,144.0395" style="stroke: #A80036; stroke-width: 1.0;"/><!--link nl.vaneijndhoven.dukes.cletus.roi.RegionOfInterest to nl.vaneijndhoven.dukes.cletus.roi.LeftField--><path d="M344.1677,147.5462 C352.3918,162.2401 360.8315,177.3189 367.8875,189.9257 " fill="none" id="nl.vaneijndhoven.dukes.cletus.roi.RegionOfInterest-nl.vaneijndhoven.dukes.cletus.roi.LeftField" style="stroke: #A80036; stroke-width: 1.0;"/><polygon fill="none" points="338.0102,150.8772,334.3504,130.006,350.2268,144.0395,338.0102,150.8772" style="stroke: #A80036; stroke-width: 1.0;"/><!--link nl.vaneijndhoven.dukes.cletus.roi.RegionOfInterest to nl.vaneijndhoven.dukes.cletus.roi.RightField--><path d="M401.9751,140.0855 C431.0617,157.0316 462.1975,175.1716 487.5216,189.9257 " fill="none" id="nl.vaneijndhoven.dukes.cletus.roi.RegionOfInterest-nl.vaneijndhoven.dukes.cletus.roi.RightField" style="stroke: #A80036; stroke-width: 1.0;"/><polygon fill="none" points="398.4316,146.1224,384.6744,130.006,405.4793,134.0257,398.4316,146.1224" style="stroke: #A80036; stroke-width: 1.0;"/><text fill="#888888" font-family="sans-serif" font-size="10" lengthAdjust="spacingAndGlyphs" textLength="182" x="227" y="286.668">UMLDoclet 1.1.4, PlantUML 1.2019.05</text><!--
@startuml

    namespace nl.vaneijndhoven.dukes.cletus.roi {

        class NearField [[NearField.html]] {
            +NearField(double)
        }

        class FarField [[FarField.html]] {
            +FarField(double)
        }

        class RegionOfInterest [[RegionOfInterest.html]] {
            +RegionOfInterest(double, double, double, double)
            +roi(Size): Rect
            +region(Mat): Mat
        }

        class LeftField [[LeftField.html]] {
            +LeftField(double)
        }

        class RightField [[RightField.html]] {
            +RightField(double)
        }

        RegionOfInterest <|- - NearField

        RegionOfInterest <|- - FarField

        RegionOfInterest <|- - LeftField

        RegionOfInterest <|- - RightField

    }


    center footer UMLDoclet 1.1.4, PlantUML 1.2019.05
@enduml

PlantUML version 1.2019.05(Sat Apr 20 18:45:36 CEST 2019)
(APACHE source distribution)
Java Runtime: Java(TM) SE Runtime Environment
JVM: Java HotSpot(TM) 64-Bit Server VM
Java Version: 1.8.0_152-b16
Operating System: Mac OS X
OS Version: 10.13.6
Default Encoding: UTF-8
Language: de
Country: DE
--></g></svg>