<?xml version="1.0" encoding="UTF-8" standalone="no"?><svg xmlns="http://www.w3.org/2000/svg" xmlns:xlink="http://www.w3.org/1999/xlink" contentScriptType="application/ecmascript" contentStyleType="text/css" height="455px" preserveAspectRatio="none" style="width:962px;height:455px;" version="1.1" viewBox="0 0 962 455" width="962px" zoomAndPan="magnify"><defs><filter height="300%" id="f1fnylsuwwx4uy" width="300%" x="-1" y="-1"><feGaussianBlur result="blurOut" stdDeviation="2.0"/><feColorMatrix in="blurOut" result="blurOut2" type="matrix" values="0 0 0 0 0 0 0 0 0 0 0 0 0 0 0 0 0 0 .4 0"/><feOffset dx="4.0" dy="4.0" in="blurOut2" result="blurOut3"/><feBlend in="SourceGraphic" in2="blurOut3" mode="normal"/></filter></defs><g><!--cluster org.rcdukes.detect.lanedetection--><polygon fill="#FFFFFF" filter="url(#f1fnylsuwwx4uy)" points="14,137,250,137,257,159.4883,940,159.4883,940,414,14,414,14,137" style="stroke: #000000; stroke-width: 1.5;"/><line style="stroke: #000000; stroke-width: 1.5;" x1="14" x2="257" y1="159.4883" y2="159.4883"/><text fill="#000000" font-family="sans-serif" font-size="14" font-weight="bold" lengthAdjust="spacingAndGlyphs" textLength="230" x="18" y="152.5352">org.rcdukes.detect.lanedetection</text><!--cluster org.rcdukes.detectors--><polygon fill="#FFFFFF" filter="url(#f1fnylsuwwx4uy)" points="680,16,839,16,846,38.4883,940,38.4883,940,112,680,112,680,16" style="stroke: #000000; stroke-width: 1.5;"/><line style="stroke: #000000; stroke-width: 1.5;" x1="680" x2="846" y1="38.4883" y2="38.4883"/><text fill="#000000" font-family="sans-serif" font-size="14" font-weight="bold" lengthAdjust="spacingAndGlyphs" textLength="153" x="684" y="31.5352">org.rcdukes.detectors</text><!--class org.rcdukes.detect.lanedetection.DefaultLaneDetector--><a href="DefaultLaneDetector.html" target="_top" xlink:actuate="onRequest" xlink:show="new" xlink:title="DefaultLaneDetector.html" xlink:type="simple"><rect fill="#FEFECE" filter="url(#f1fnylsuwwx4uy)" height="60.9551" id="org.rcdukes.detect.lanedetection.DefaultLaneDetector" style="stroke: #A80036; stroke-width: 1.5;" width="244" x="688" y="254.5"/><ellipse cx="747.25" cy="270.5" fill="#ADD1B2" rx="11" ry="11" style="stroke: #A80036; stroke-width: 1.0;"/><path d="M750.2231,276.1431 Q749.6421,276.4419 749.0029,276.5913 Q748.3638,276.7407 747.6582,276.7407 Q745.1514,276.7407 743.8315,275.0889 Q742.5117,273.437 742.5117,270.3159 Q742.5117,267.1865 743.8315,265.5347 Q745.1514,263.8828 747.6582,263.8828 Q748.3638,263.8828 749.0112,264.0322 Q749.6587,264.1816 750.2231,264.4805 L750.2231,267.2031 Q749.5923,266.6221 748.9988,266.3523 Q748.4053,266.0825 747.7744,266.0825 Q746.4297,266.0825 745.7449,267.1492 Q745.0601,268.2158 745.0601,270.3159 Q745.0601,272.4077 745.7449,273.4744 Q746.4297,274.541 747.7744,274.541 Q748.4053,274.541 748.9988,274.2712 Q749.5923,274.0015 750.2231,273.4204 Z "/><text fill="#000000" font-family="sans-serif" font-size="12" lengthAdjust="spacingAndGlyphs" textLength="117" x="767.75" y="275.0352">DefaultLaneDetector</text><line style="stroke: #A80036; stroke-width: 1.5;" x1="689" x2="931" y1="286.5" y2="286.5"/><line style="stroke: #A80036; stroke-width: 1.5;" x1="689" x2="931" y1="294.5" y2="294.5"/><ellipse cx="699" cy="306.4775" fill="#84BE84" rx="3" ry="3" style="stroke: #038048; stroke-width: 1.0;"/><text fill="#000000" font-family="sans-serif" font-size="11" lengthAdjust="spacingAndGlyphs" textLength="218" x="708" y="309.1348">detect(Collection&lt;Line&gt;, ViewPort): Lane</text></a><!--class org.rcdukes.detect.lanedetection.LaneOrientation--><a href="LaneOrientation.html" target="_top" xlink:actuate="onRequest" xlink:show="new" xlink:title="LaneOrientation.html" xlink:type="simple"><rect fill="#FEFECE" filter="url(#f1fnylsuwwx4uy)" height="242.3262" id="org.rcdukes.detect.lanedetection.LaneOrientation" style="stroke: #A80036; stroke-width: 1.5;" width="269" x="383.5" y="164"/><ellipse cx="468.75" cy="180" fill="#ADD1B2" rx="11" ry="11" style="stroke: #A80036; stroke-width: 1.0;"/><path d="M471.7231,185.6431 Q471.1421,185.9419 470.5029,186.0913 Q469.8638,186.2407 469.1582,186.2407 Q466.6514,186.2407 465.3315,184.5889 Q464.0117,182.937 464.0117,179.8159 Q464.0117,176.6865 465.3315,175.0347 Q466.6514,173.3828 469.1582,173.3828 Q469.8638,173.3828 470.5112,173.5322 Q471.1587,173.6816 471.7231,173.9805 L471.7231,176.7031 Q471.0923,176.1221 470.4988,175.8523 Q469.9053,175.5825 469.2744,175.5825 Q467.9297,175.5825 467.2449,176.6492 Q466.5601,177.7158 466.5601,179.8159 Q466.5601,181.9077 467.2449,182.9744 Q467.9297,184.041 469.2744,184.041 Q469.9053,184.041 470.4988,183.7712 Q471.0923,183.5015 471.7231,182.9204 Z "/><text fill="#000000" font-family="sans-serif" font-size="12" lengthAdjust="spacingAndGlyphs" textLength="90" x="489.25" y="184.5352">LaneOrientation</text><line style="stroke: #A80036; stroke-width: 1.5;" x1="384.5" x2="651.5" y1="196" y2="196"/><line style="stroke: #A80036; stroke-width: 1.5;" x1="384.5" x2="651.5" y1="204" y2="204"/><ellipse cx="394.5" cy="215.9775" fill="#84BE84" rx="3" ry="3" style="stroke: #038048; stroke-width: 1.0;"/><text fill="#000000" font-family="sans-serif" font-size="11" lengthAdjust="spacingAndGlyphs" textLength="171" x="403.5" y="218.6348">LaneOrientation(Lane, ViewPort)</text><ellipse cx="394.5" cy="228.9326" fill="#84BE84" rx="3" ry="3" style="stroke: #038048; stroke-width: 1.0;"/><text fill="#000000" font-family="sans-serif" font-size="11" lengthAdjust="spacingAndGlyphs" textLength="119" x="403.5" y="231.5898">determineLines(): void</text><ellipse cx="394.5" cy="241.8877" fill="#84BE84" rx="3" ry="3" style="stroke: #038048; stroke-width: 1.0;"/><text fill="#000000" font-family="sans-serif" font-size="11" lengthAdjust="spacingAndGlyphs" textLength="89" x="403.5" y="244.5449">getLines(): Line[]</text><ellipse cx="394.5" cy="254.8428" fill="#84BE84" rx="3" ry="3" style="stroke: #038048; stroke-width: 1.0;"/><text fill="#000000" font-family="sans-serif" font-size="11" lengthAdjust="spacingAndGlyphs" textLength="195" x="403.5" y="257.5">distanceFromLeftBoundary(): double</text><ellipse cx="394.5" cy="267.7979" fill="#84BE84" rx="3" ry="3" style="stroke: #038048; stroke-width: 1.0;"/><text fill="#000000" font-family="sans-serif" font-size="11" lengthAdjust="spacingAndGlyphs" textLength="203" x="403.5" y="270.4551">distanceFromRightBoundary(): double</text><ellipse cx="394.5" cy="280.7529" fill="#84BE84" rx="3" ry="3" style="stroke: #038048; stroke-width: 1.0;"/><text fill="#000000" font-family="sans-serif" font-size="11" lengthAdjust="spacingAndGlyphs" textLength="200" x="403.5" y="283.4102">determineDistanceToMiddle(): double</text><ellipse cx="394.5" cy="293.708" fill="#84BE84" rx="3" ry="3" style="stroke: #038048; stroke-width: 1.0;"/><text fill="#000000" font-family="sans-serif" font-size="11" lengthAdjust="spacingAndGlyphs" textLength="243" x="403.5" y="296.3652">determineCourseRelativeToHorizon(): Double</text><ellipse cx="394.5" cy="306.6631" fill="#84BE84" rx="3" ry="3" style="stroke: #038048; stroke-width: 1.0;"/><text fill="#000000" font-family="sans-serif" font-size="11" lengthAdjust="spacingAndGlyphs" textLength="214" x="403.5" y="309.3203">determineLaneMiddle(): Optional&lt;Line&gt;</text><ellipse cx="394.5" cy="319.6182" fill="#84BE84" rx="3" ry="3" style="stroke: #038048; stroke-width: 1.0;"/><text fill="#000000" font-family="sans-serif" font-size="11" lengthAdjust="spacingAndGlyphs" textLength="178" x="403.5" y="322.2754">determineBase(): Optional&lt;Line&gt;</text><ellipse cx="394.5" cy="332.5732" fill="#84BE84" rx="3" ry="3" style="stroke: #038048; stroke-width: 1.0;"/><text fill="#000000" font-family="sans-serif" font-size="11" lengthAdjust="spacingAndGlyphs" textLength="88" x="403.5" y="335.2305">getMiddle(): Line</text><ellipse cx="394.5" cy="345.5283" fill="#84BE84" rx="3" ry="3" style="stroke: #038048; stroke-width: 1.0;"/><text fill="#000000" font-family="sans-serif" font-size="11" lengthAdjust="spacingAndGlyphs" textLength="110" x="403.5" y="348.1855">setMiddle(Line): void</text><ellipse cx="394.5" cy="358.4834" fill="#84BE84" rx="3" ry="3" style="stroke: #038048; stroke-width: 1.0;"/><text fill="#000000" font-family="sans-serif" font-size="11" lengthAdjust="spacingAndGlyphs" textLength="73" x="403.5" y="361.1406">getLeft(): Line</text><ellipse cx="394.5" cy="371.4385" fill="#84BE84" rx="3" ry="3" style="stroke: #038048; stroke-width: 1.0;"/><text fill="#000000" font-family="sans-serif" font-size="11" lengthAdjust="spacingAndGlyphs" textLength="95" x="403.5" y="374.0957">setLeft(Line): void</text><ellipse cx="394.5" cy="384.3936" fill="#84BE84" rx="3" ry="3" style="stroke: #038048; stroke-width: 1.0;"/><text fill="#000000" font-family="sans-serif" font-size="11" lengthAdjust="spacingAndGlyphs" textLength="81" x="403.5" y="387.0508">getRight(): Line</text><ellipse cx="394.5" cy="397.3486" fill="#84BE84" rx="3" ry="3" style="stroke: #038048; stroke-width: 1.0;"/><text fill="#000000" font-family="sans-serif" font-size="11" lengthAdjust="spacingAndGlyphs" textLength="103" x="403.5" y="400.0059">setRight(Line): void</text></a><!--class org.rcdukes.detect.lanedetection.ImageLaneDetection--><a href="ImageLaneDetection.html" target="_top" xlink:actuate="onRequest" xlink:show="new" xlink:title="ImageLaneDetection.html" xlink:type="simple"><rect fill="#FEFECE" filter="url(#f1fnylsuwwx4uy)" height="86.8652" id="org.rcdukes.detect.lanedetection.ImageLaneDetection" style="stroke: #A80036; stroke-width: 1.5;" width="326" x="22" y="241.5"/><ellipse cx="122.75" cy="257.5" fill="#ADD1B2" rx="11" ry="11" style="stroke: #A80036; stroke-width: 1.0;"/><path d="M125.7231,263.1431 Q125.1421,263.4419 124.5029,263.5913 Q123.8638,263.7407 123.1582,263.7407 Q120.6514,263.7407 119.3315,262.0889 Q118.0117,260.437 118.0117,257.3159 Q118.0117,254.1865 119.3315,252.5347 Q120.6514,250.8828 123.1582,250.8828 Q123.8638,250.8828 124.5112,251.0322 Q125.1587,251.1816 125.7231,251.4805 L125.7231,254.2031 Q125.0923,253.6221 124.4988,253.3523 Q123.9053,253.0825 123.2744,253.0825 Q121.9297,253.0825 121.2449,254.1492 Q120.5601,255.2158 120.5601,257.3159 Q120.5601,259.4077 121.2449,260.4744 Q121.9297,261.541 123.2744,261.541 Q123.9053,261.541 124.4988,261.2712 Q125.0923,261.0015 125.7231,260.4204 Z "/><text fill="#000000" font-family="sans-serif" font-size="12" lengthAdjust="spacingAndGlyphs" textLength="116" x="143.25" y="262.0352">ImageLaneDetection</text><line style="stroke: #A80036; stroke-width: 1.5;" x1="23" x2="347" y1="273.5" y2="273.5"/><polygon fill="none" points="33,280.4775,37,284.4775,33,288.4775,29,284.4775" style="stroke: #B38D22; stroke-width: 1.0;"/><text fill="#000000" font-family="sans-serif" font-size="11" lengthAdjust="spacingAndGlyphs" text-decoration="underline" textLength="67" x="42" y="288.1348">LOG: Logger</text><line style="stroke: #A80036; stroke-width: 1.5;" x1="23" x2="347" y1="294.4551" y2="294.4551"/><ellipse cx="33" cy="306.4326" fill="#84BE84" rx="3" ry="3" style="stroke: #038048; stroke-width: 1.0;"/><text fill="#000000" font-family="sans-serif" font-size="11" lengthAdjust="spacingAndGlyphs" textLength="187" x="42" y="309.0898">ImageLaneDetection(LaneDetector)</text><ellipse cx="33" cy="319.3877" fill="#84BE84" rx="3" ry="3" style="stroke: #038048; stroke-width: 1.0;"/><text fill="#000000" font-family="sans-serif" font-size="11" lengthAdjust="spacingAndGlyphs" textLength="300" x="42" y="322.0449">detectLane(Image, ImageCollector): LaneDetectionResult</text></a><!--class org.rcdukes.detectors.LaneDetector--><rect fill="#FEFECE" filter="url(#f1fnylsuwwx4uy)" height="60.9551" id="org.rcdukes.detectors.LaneDetector" style="stroke: #A80036; stroke-width: 1.5;" width="244" x="688" y="43"/><ellipse cx="767.75" cy="59" fill="#B4A7E5" rx="11" ry="11" style="stroke: #A80036; stroke-width: 1.0;"/><path d="M763.6777,54.7651 L763.6777,52.6069 L771.0571,52.6069 L771.0571,54.7651 L768.5918,54.7651 L768.5918,62.8418 L771.0571,62.8418 L771.0571,65 L763.6777,65 L763.6777,62.8418 L766.1431,62.8418 L766.1431,54.7651 Z "/><text fill="#000000" font-family="sans-serif" font-size="12" font-style="italic" lengthAdjust="spacingAndGlyphs" textLength="76" x="788.25" y="63.5352">LaneDetector</text><line style="stroke: #A80036; stroke-width: 1.5;" x1="689" x2="931" y1="75" y2="75"/><line style="stroke: #A80036; stroke-width: 1.5;" x1="689" x2="931" y1="83" y2="83"/><ellipse cx="699" cy="94.9775" fill="#84BE84" rx="3" ry="3" style="stroke: #038048; stroke-width: 1.0;"/><text fill="#000000" font-family="sans-serif" font-size="11" font-style="italic" lengthAdjust="spacingAndGlyphs" textLength="218" x="708" y="97.6348">detect(Collection&lt;Line&gt;, ViewPort): Lane</text><!--link org.rcdukes.detectors.LaneDetector to org.rcdukes.detect.lanedetection.DefaultLaneDetector--><path d="M810,124.4346 C810,164.9139 810,220.2034 810,254.209 " fill="none" id="org.rcdukes.detectors.LaneDetector-org.rcdukes.detect.lanedetection.DefaultLaneDetector" style="stroke: #A80036; stroke-width: 1.0; stroke-dasharray: 7.0,7.0;"/><polygon fill="none" points="803.0001,124.254,810,104.2539,817.0001,124.2539,803.0001,124.254" style="stroke: #A80036; stroke-width: 1.0;"/><text fill="#888888" font-family="sans-serif" font-size="10" lengthAdjust="spacingAndGlyphs" textLength="182" x="392" y="441.668">UMLDoclet 1.1.4, PlantUML 1.2019.05</text><!--
@startuml

    namespace org.rcdukes.detect.lanedetection {

        class DefaultLaneDetector [[DefaultLaneDetector.html]] {
            +detect(Collection<Line>, ViewPort): Lane
        }

        class LaneOrientation [[LaneOrientation.html]] {
            +LaneOrientation(Lane, ViewPort)
            +determineLines(): void
            +getLines(): Line[]
            +distanceFromLeftBoundary(): double
            +distanceFromRightBoundary(): double
            +determineDistanceToMiddle(): double
            +determineCourseRelativeToHorizon(): Double
            +determineLaneMiddle(): Optional<Line>
            +determineBase(): Optional<Line>
            +getMiddle(): Line
            +setMiddle(Line): void
            +getLeft(): Line
            +setLeft(Line): void
            +getRight(): Line
            +setRight(Line): void
        }

        class ImageLaneDetection [[ImageLaneDetection.html]] {
            {static} #LOG: Logger
            +ImageLaneDetection(LaneDetector)
            +detectLane(Image, ImageCollector): LaneDetectionResult
        }

        interface org.rcdukes.detectors.LaneDetector {
            {abstract} +detect(Collection<Line>, ViewPort): Lane
        }
        org.rcdukes.detectors.LaneDetector <|.. DefaultLaneDetector

    }


    center footer UMLDoclet 1.1.4, PlantUML 1.2019.05
@enduml

PlantUML version 1.2019.05(Sat Apr 20 18:45:36 CEST 2019)
(APACHE source distribution)
Java Runtime: Java(TM) SE Runtime Environment
JVM: Java HotSpot(TM) 64-Bit Server VM
Java Version: 1.8.0_152-b16
Operating System: Mac OS X
OS Version: 10.13.6
Default Encoding: UTF-8
Language: de
Country: DE
--></g></svg>