<?xml version="1.0" encoding="UTF-8" standalone="no"?><svg xmlns="http://www.w3.org/2000/svg" xmlns:xlink="http://www.w3.org/1999/xlink" contentScriptType="application/ecmascript" contentStyleType="text/css" height="153px" preserveAspectRatio="none" style="width:291px;height:153px;" version="1.1" viewBox="0 0 291 153" width="291px" zoomAndPan="magnify"><defs><filter height="300%" id="f1hass4fxwmwxj" width="300%" x="-1" y="-1"><feGaussianBlur result="blurOut" stdDeviation="2.0"/><feColorMatrix in="blurOut" result="blurOut2" type="matrix" values="0 0 0 0 0 0 0 0 0 0 0 0 0 0 0 0 0 0 .4 0"/><feOffset dx="4.0" dy="4.0" in="blurOut2" result="blurOut3"/><feBlend in="SourceGraphic" in2="blurOut3" mode="normal"/></filter></defs><g><!--cluster nl.vaneijndhoven.dukes.dukefarm--><polygon fill="#FFFFFF" filter="url(#f1hass4fxwmwxj)" points="14,16,259,16,266,38.4883,269,38.4883,269,112,14,112,14,16" style="stroke: #000000; stroke-width: 1.5;"/><line style="stroke: #000000; stroke-width: 1.5;" x1="14" x2="266" y1="38.4883" y2="38.4883"/><text fill="#000000" font-family="sans-serif" font-size="14" font-weight="bold" lengthAdjust="spacingAndGlyphs" textLength="239" x="18" y="31.5352">nl.vaneijndhoven.dukes.dukefarm</text><!--class nl.vaneijndhoven.dukes.dukefarm.DukeFarm--><a href="DukeFarm.html" target="_top" xlink:actuate="onRequest" xlink:show="new" xlink:title="DukeFarm.html" xlink:type="simple"><rect fill="#FEFECE" filter="url(#f1hass4fxwmwxj)" height="60.9551" id="nl.vaneijndhoven.dukes.dukefarm.DukeFarm" style="stroke: #A80036; stroke-width: 1.5;" width="129" x="76.5" y="43"/><ellipse cx="108.6" cy="59" fill="#ADD1B2" rx="11" ry="11" style="stroke: #A80036; stroke-width: 1.0;"/><path d="M111.5731,64.6431 Q110.9921,64.9419 110.3529,65.0913 Q109.7138,65.2407 109.0082,65.2407 Q106.5014,65.2407 105.1815,63.5889 Q103.8617,61.937 103.8617,58.8159 Q103.8617,55.6865 105.1815,54.0347 Q106.5014,52.3828 109.0082,52.3828 Q109.7138,52.3828 110.3612,52.5322 Q111.0087,52.6816 111.5731,52.9805 L111.5731,55.7031 Q110.9423,55.1221 110.3488,54.8523 Q109.7553,54.5825 109.1244,54.5825 Q107.7797,54.5825 107.0949,55.6492 Q106.4101,56.7158 106.4101,58.8159 Q106.4101,60.9077 107.0949,61.9744 Q107.7797,63.041 109.1244,63.041 Q109.7553,63.041 110.3488,62.7712 Q110.9423,62.5015 111.5731,61.9204 Z "/><text fill="#000000" font-family="sans-serif" font-size="12" lengthAdjust="spacingAndGlyphs" textLength="59" x="126.4" y="63.5352">DukeFarm</text><line style="stroke: #A80036; stroke-width: 1.5;" x1="77.5" x2="204.5" y1="75" y2="75"/><line style="stroke: #A80036; stroke-width: 1.5;" x1="77.5" x2="204.5" y1="83" y2="83"/><ellipse cx="87.5" cy="94.9775" fill="#84BE84" rx="3" ry="3" style="stroke: #038048; stroke-width: 1.0;"/><text fill="#000000" font-family="sans-serif" font-size="11" lengthAdjust="spacingAndGlyphs" text-decoration="underline" textLength="103" x="96.5" y="97.6348">main(String[]): void</text></a><text fill="#888888" font-family="sans-serif" font-size="10" lengthAdjust="spacingAndGlyphs" textLength="182" x="56.5" y="139.668">UMLDoclet 1.1.4, PlantUML 1.2019.05</text><!--
@startuml

    namespace nl.vaneijndhoven.dukes.dukefarm {

        class DukeFarm [[DukeFarm.html]] {
            {static} +main(String[]): void
        }

    }


    center footer UMLDoclet 1.1.4, PlantUML 1.2019.05
@enduml

PlantUML version 1.2019.05(Sat Apr 20 18:45:36 CEST 2019)
(APACHE source distribution)
Java Runtime: Java(TM) SE Runtime Environment
JVM: Java HotSpot(TM) 64-Bit Server VM
Java Version: 1.8.0_152-b16
Operating System: Mac OS X
OS Version: 10.13.6
Default Encoding: UTF-8
Language: de
Country: DE
--></g></svg>