<?xml version="1.0" encoding="UTF-8" standalone="no"?><svg xmlns="http://www.w3.org/2000/svg" xmlns:xlink="http://www.w3.org/1999/xlink" contentScriptType="application/ecmascript" contentStyleType="text/css" height="538px" preserveAspectRatio="none" style="width:937px;height:538px;" version="1.1" viewBox="0 0 937 538" width="937px" zoomAndPan="magnify"><defs><filter height="300%" id="fz6zhzhf7kafj" width="300%" x="-1" y="-1"><feGaussianBlur result="blurOut" stdDeviation="2.0"/><feColorMatrix in="blurOut" result="blurOut2" type="matrix" values="0 0 0 0 0 0 0 0 0 0 0 0 0 0 0 0 0 0 .4 0"/><feOffset dx="4.0" dy="4.0" in="blurOut2" result="blurOut3"/><feBlend in="SourceGraphic" in2="blurOut3" mode="normal"/></filter></defs><g><!--cluster nl.vaneijndhoven.opencv.video--><polygon fill="#FFFFFF" filter="url(#fz6zhzhf7kafj)" points="14,137,236,137,243,159.4883,915,159.4883,915,497,14,497,14,137" style="stroke: #000000; stroke-width: 1.5;"/><line style="stroke: #000000; stroke-width: 1.5;" x1="14" x2="243" y1="159.4883" y2="159.4883"/><text fill="#000000" font-family="sans-serif" font-size="14" font-weight="bold" lengthAdjust="spacingAndGlyphs" textLength="216" x="18" y="152.5352">nl.vaneijndhoven.opencv.video</text><!--cluster javafx.application--><polygon fill="#FFFFFF" filter="url(#fz6zhzhf7kafj)" points="112,16,244,16,251,38.4883,254,38.4883,254,112,112,112,112,16" style="stroke: #000000; stroke-width: 1.5;"/><line style="stroke: #000000; stroke-width: 1.5;" x1="112" x2="251" y1="38.4883" y2="38.4883"/><text fill="#000000" font-family="sans-serif" font-size="14" font-weight="bold" lengthAdjust="spacingAndGlyphs" textLength="126" x="116" y="31.5352">javafx.application</text><!--class nl.vaneijndhoven.opencv.video.StartLightDetectionController--><a href="StartLightDetectionController.html" target="_top" xlink:actuate="onRequest" xlink:show="new" xlink:title="StartLightDetectionController.html" xlink:type="simple"><rect fill="#FEFECE" filter="url(#fz6zhzhf7kafj)" height="48" id="nl.vaneijndhoven.opencv.video.StartLightDetectionController" style="stroke: #A80036; stroke-width: 1.5;" width="195" x="392.5" y="177"/><ellipse cx="407.5" cy="193" fill="#ADD1B2" rx="11" ry="11" style="stroke: #A80036; stroke-width: 1.0;"/><path d="M410.4731,198.6431 Q409.8921,198.9419 409.2529,199.0913 Q408.6138,199.2407 407.9082,199.2407 Q405.4014,199.2407 404.0815,197.5889 Q402.7617,195.937 402.7617,192.8159 Q402.7617,189.6865 404.0815,188.0347 Q405.4014,186.3828 407.9082,186.3828 Q408.6138,186.3828 409.2612,186.5322 Q409.9087,186.6816 410.4731,186.9805 L410.4731,189.7031 Q409.8423,189.1221 409.2488,188.8523 Q408.6553,188.5825 408.0244,188.5825 Q406.6797,188.5825 405.9949,189.6492 Q405.3101,190.7158 405.3101,192.8159 Q405.3101,194.9077 405.9949,195.9744 Q406.6797,197.041 408.0244,197.041 Q408.6553,197.041 409.2488,196.7712 Q409.8423,196.5015 410.4731,195.9204 Z "/><text fill="#000000" font-family="sans-serif" font-size="12" lengthAdjust="spacingAndGlyphs" textLength="163" x="421.5" y="197.5352">StartLightDetectionController</text><line style="stroke: #A80036; stroke-width: 1.5;" x1="393.5" x2="586.5" y1="209" y2="209"/><line style="stroke: #A80036; stroke-width: 1.5;" x1="393.5" x2="586.5" y1="217" y2="217"/></a><!--class nl.vaneijndhoven.opencv.video.StartLightDetectionApp--><a href="StartLightDetectionApp.html" target="_top" xlink:actuate="onRequest" xlink:show="new" xlink:title="StartLightDetectionApp.html" xlink:type="simple"><rect fill="#FEFECE" filter="url(#fz6zhzhf7kafj)" height="73.9102" id="nl.vaneijndhoven.opencv.video.StartLightDetectionApp" style="stroke: #A80036; stroke-width: 1.5;" width="163" x="194.5" y="164"/><ellipse cx="209.5" cy="180" fill="#ADD1B2" rx="11" ry="11" style="stroke: #A80036; stroke-width: 1.0;"/><path d="M212.4731,185.6431 Q211.8921,185.9419 211.2529,186.0913 Q210.6138,186.2407 209.9082,186.2407 Q207.4014,186.2407 206.0815,184.5889 Q204.7617,182.937 204.7617,179.8159 Q204.7617,176.6865 206.0815,175.0347 Q207.4014,173.3828 209.9082,173.3828 Q210.6138,173.3828 211.2612,173.5322 Q211.9087,173.6816 212.4731,173.9805 L212.4731,176.7031 Q211.8423,176.1221 211.2488,175.8523 Q210.6553,175.5825 210.0244,175.5825 Q208.6797,175.5825 207.9949,176.6492 Q207.3101,177.7158 207.3101,179.8159 Q207.3101,181.9077 207.9949,182.9744 Q208.6797,184.041 210.0244,184.041 Q210.6553,184.041 211.2488,183.7712 Q211.8423,183.5015 212.4731,182.9204 Z "/><text fill="#000000" font-family="sans-serif" font-size="12" lengthAdjust="spacingAndGlyphs" textLength="131" x="223.5" y="184.5352">StartLightDetectionApp</text><line style="stroke: #A80036; stroke-width: 1.5;" x1="195.5" x2="356.5" y1="196" y2="196"/><line style="stroke: #A80036; stroke-width: 1.5;" x1="195.5" x2="356.5" y1="204" y2="204"/><ellipse cx="205.5" cy="215.9775" fill="#84BE84" rx="3" ry="3" style="stroke: #038048; stroke-width: 1.0;"/><text fill="#000000" font-family="sans-serif" font-size="11" lengthAdjust="spacingAndGlyphs" textLength="91" x="214.5" y="218.6348">start(Stage): void</text><ellipse cx="205.5" cy="228.9326" fill="#84BE84" rx="3" ry="3" style="stroke: #038048; stroke-width: 1.0;"/><text fill="#000000" font-family="sans-serif" font-size="11" lengthAdjust="spacingAndGlyphs" text-decoration="underline" textLength="103" x="214.5" y="231.5898">main(String[]): void</text></a><!--class nl.vaneijndhoven.opencv.video.LaneDetectionGUI--><a href="LaneDetectionGUI.html" target="_top" xlink:actuate="onRequest" xlink:show="new" xlink:title="LaneDetectionGUI.html" xlink:type="simple"><rect fill="#FEFECE" filter="url(#fz6zhzhf7kafj)" height="60.9551" id="nl.vaneijndhoven.opencv.video.LaneDetectionGUI" style="stroke: #A80036; stroke-width: 1.5;" width="133" x="622.5" y="170.5"/><ellipse cx="637.5" cy="186.5" fill="#ADD1B2" rx="11" ry="11" style="stroke: #A80036; stroke-width: 1.0;"/><path d="M640.4731,192.1431 Q639.8921,192.4419 639.2529,192.5913 Q638.6138,192.7407 637.9082,192.7407 Q635.4014,192.7407 634.0815,191.0889 Q632.7617,189.437 632.7617,186.3159 Q632.7617,183.1865 634.0815,181.5347 Q635.4014,179.8828 637.9082,179.8828 Q638.6138,179.8828 639.2612,180.0322 Q639.9087,180.1816 640.4731,180.4805 L640.4731,183.2031 Q639.8423,182.6221 639.2488,182.3523 Q638.6553,182.0825 638.0244,182.0825 Q636.6797,182.0825 635.9949,183.1492 Q635.3101,184.2158 635.3101,186.3159 Q635.3101,188.4077 635.9949,189.4744 Q636.6797,190.541 638.0244,190.541 Q638.6553,190.541 639.2488,190.2712 Q639.8423,190.0015 640.4731,189.4204 Z "/><text fill="#000000" font-family="sans-serif" font-size="12" lengthAdjust="spacingAndGlyphs" textLength="101" x="651.5" y="191.0352">LaneDetectionGUI</text><line style="stroke: #A80036; stroke-width: 1.5;" x1="623.5" x2="754.5" y1="202.5" y2="202.5"/><line style="stroke: #A80036; stroke-width: 1.5;" x1="623.5" x2="754.5" y1="210.5" y2="210.5"/><ellipse cx="633.5" cy="222.4775" fill="#84BE84" rx="3" ry="3" style="stroke: #038048; stroke-width: 1.0;"/><text fill="#000000" font-family="sans-serif" font-size="11" lengthAdjust="spacingAndGlyphs" textLength="103" x="642.5" y="225.1348">startCamera(): void</text></a><!--class nl.vaneijndhoven.opencv.video.LaneDetectionController--><a href="LaneDetectionController.html" target="_top" xlink:actuate="onRequest" xlink:show="new" xlink:title="LaneDetectionController.html" xlink:type="simple"><rect fill="#FEFECE" filter="url(#fz6zhzhf7kafj)" height="190.5059" id="nl.vaneijndhoven.opencv.video.LaneDetectionController" style="stroke: #A80036; stroke-width: 1.5;" width="683" x="22.5" y="298"/><ellipse cx="291.25" cy="314" fill="#ADD1B2" rx="11" ry="11" style="stroke: #A80036; stroke-width: 1.0;"/><path d="M294.2231,319.6431 Q293.6421,319.9419 293.0029,320.0913 Q292.3638,320.2407 291.6582,320.2407 Q289.1514,320.2407 287.8315,318.5889 Q286.5117,316.937 286.5117,313.8159 Q286.5117,310.6865 287.8315,309.0347 Q289.1514,307.3828 291.6582,307.3828 Q292.3638,307.3828 293.0112,307.5322 Q293.6587,307.6816 294.2231,307.9805 L294.2231,310.7031 Q293.5923,310.1221 292.9988,309.8523 Q292.4053,309.5825 291.7744,309.5825 Q290.4297,309.5825 289.7449,310.6492 Q289.0601,311.7158 289.0601,313.8159 Q289.0601,315.9077 289.7449,316.9744 Q290.4297,318.041 291.7744,318.041 Q292.4053,318.041 292.9988,317.7712 Q293.5923,317.5015 294.2231,316.9204 Z "/><text fill="#000000" font-family="sans-serif" font-size="12" lengthAdjust="spacingAndGlyphs" textLength="137" x="311.75" y="318.5352">LaneDetectionController</text><line style="stroke: #A80036; stroke-width: 1.5;" x1="23.5" x2="704.5" y1="330" y2="330"/><ellipse cx="33.5" cy="341.9775" fill="none" rx="3" ry="3" style="stroke: #038048; stroke-width: 1.0;"/><text fill="#000000" font-family="sans-serif" font-size="11" lengthAdjust="spacingAndGlyphs" text-decoration="underline" textLength="235" x="42.5" y="344.6348">DEFAULT_LANE_BOUNDARY_ANGLE: double</text><ellipse cx="33.5" cy="354.9326" fill="none" rx="3" ry="3" style="stroke: #038048; stroke-width: 1.0;"/><text fill="#000000" font-family="sans-serif" font-size="11" lengthAdjust="spacingAndGlyphs" text-decoration="underline" textLength="264" x="42.5" y="357.5898">DEFAULT_LANE_BOUNDARY_TOLERANCE: double</text><ellipse cx="33.5" cy="367.8877" fill="none" rx="3" ry="3" style="stroke: #038048; stroke-width: 1.0;"/><text fill="#000000" font-family="sans-serif" font-size="11" lengthAdjust="spacingAndGlyphs" text-decoration="underline" textLength="221" x="42.5" y="370.5449">DEFAULT_CANNY_THRESHOLD_1: double</text><ellipse cx="33.5" cy="380.8428" fill="none" rx="3" ry="3" style="stroke: #038048; stroke-width: 1.0;"/><text fill="#000000" font-family="sans-serif" font-size="11" lengthAdjust="spacingAndGlyphs" text-decoration="underline" textLength="221" x="42.5" y="383.5">DEFAULT_CANNY_THRESHOLD_2: double</text><ellipse cx="33.5" cy="393.7979" fill="none" rx="3" ry="3" style="stroke: #038048; stroke-width: 1.0;"/><text fill="#000000" font-family="sans-serif" font-size="11" lengthAdjust="spacingAndGlyphs" text-decoration="underline" textLength="176" x="42.5" y="396.4551">DEFAULT_LINE_DETECT_RHO: int</text><ellipse cx="33.5" cy="406.7529" fill="none" rx="3" ry="3" style="stroke: #038048; stroke-width: 1.0;"/><text fill="#000000" font-family="sans-serif" font-size="11" lengthAdjust="spacingAndGlyphs" text-decoration="underline" textLength="211" x="42.5" y="409.4102">DEFAULT_LINE_DETECT_THETA: double</text><ellipse cx="33.5" cy="419.708" fill="none" rx="3" ry="3" style="stroke: #038048; stroke-width: 1.0;"/><text fill="#000000" font-family="sans-serif" font-size="11" lengthAdjust="spacingAndGlyphs" text-decoration="underline" textLength="240" x="42.5" y="422.3652">DEFAULT_LINE_DETECT_THRESHOLD: double</text><ellipse cx="33.5" cy="432.6631" fill="none" rx="3" ry="3" style="stroke: #038048; stroke-width: 1.0;"/><text fill="#000000" font-family="sans-serif" font-size="11" lengthAdjust="spacingAndGlyphs" text-decoration="underline" textLength="273" x="42.5" y="435.3203">DEFAULT_LINE_DETECT_MIN_LINE_LENGTH: double</text><ellipse cx="33.5" cy="445.6182" fill="none" rx="3" ry="3" style="stroke: #038048; stroke-width: 1.0;"/><text fill="#000000" font-family="sans-serif" font-size="11" lengthAdjust="spacingAndGlyphs" text-decoration="underline" textLength="256" x="42.5" y="448.2754">DEFAULT_LINE_DETECT_MAX_LINE_GAP: double</text><line style="stroke: #A80036; stroke-width: 1.5;" x1="23.5" x2="704.5" y1="454.5957" y2="454.5957"/><ellipse cx="33.5" cy="466.5732" fill="#84BE84" rx="3" ry="3" style="stroke: #038048; stroke-width: 1.0;"/><text fill="#000000" font-family="sans-serif" font-size="11" lengthAdjust="spacingAndGlyphs" textLength="168" x="42.5" y="469.2305">LaneDetectionController(Vertx)</text><ellipse cx="33.5" cy="479.5283" fill="#84BE84" rx="3" ry="3" style="stroke: #038048; stroke-width: 1.0;"/><text fill="#000000" font-family="sans-serif" font-size="11" lengthAdjust="spacingAndGlyphs" textLength="657" x="42.5" y="482.1855">performLaneDetection(Mat, CannyEdgeDetector.Config, ProbabilisticHoughLinesLineDetector.Config, ImageCollector): void</text></a><!--class nl.vaneijndhoven.opencv.video.LaneDetectionApp--><a href="LaneDetectionApp.html" target="_top" xlink:actuate="onRequest" xlink:show="new" xlink:title="LaneDetectionApp.html" xlink:type="simple"><rect fill="#FEFECE" filter="url(#fz6zhzhf7kafj)" height="73.9102" id="nl.vaneijndhoven.opencv.video.LaneDetectionApp" style="stroke: #A80036; stroke-width: 1.5;" width="137" x="22.5" y="164"/><ellipse cx="37.5" cy="180" fill="#ADD1B2" rx="11" ry="11" style="stroke: #A80036; stroke-width: 1.0;"/><path d="M40.4731,185.6431 Q39.8921,185.9419 39.2529,186.0913 Q38.6138,186.2407 37.9082,186.2407 Q35.4014,186.2407 34.0815,184.5889 Q32.7617,182.937 32.7617,179.8159 Q32.7617,176.6865 34.0815,175.0347 Q35.4014,173.3828 37.9082,173.3828 Q38.6138,173.3828 39.2612,173.5322 Q39.9087,173.6816 40.4731,173.9805 L40.4731,176.7031 Q39.8423,176.1221 39.2488,175.8523 Q38.6553,175.5825 38.0244,175.5825 Q36.6797,175.5825 35.9949,176.6492 Q35.3101,177.7158 35.3101,179.8159 Q35.3101,181.9077 35.9949,182.9744 Q36.6797,184.041 38.0244,184.041 Q38.6553,184.041 39.2488,183.7712 Q39.8423,183.5015 40.4731,182.9204 Z "/><text fill="#000000" font-family="sans-serif" font-size="12" lengthAdjust="spacingAndGlyphs" textLength="105" x="51.5" y="184.5352">LaneDetectionApp</text><line style="stroke: #A80036; stroke-width: 1.5;" x1="23.5" x2="158.5" y1="196" y2="196"/><line style="stroke: #A80036; stroke-width: 1.5;" x1="23.5" x2="158.5" y1="204" y2="204"/><ellipse cx="33.5" cy="215.9775" fill="#84BE84" rx="3" ry="3" style="stroke: #038048; stroke-width: 1.0;"/><text fill="#000000" font-family="sans-serif" font-size="11" lengthAdjust="spacingAndGlyphs" textLength="91" x="42.5" y="218.6348">start(Stage): void</text><ellipse cx="33.5" cy="228.9326" fill="#84BE84" rx="3" ry="3" style="stroke: #038048; stroke-width: 1.0;"/><text fill="#000000" font-family="sans-serif" font-size="11" lengthAdjust="spacingAndGlyphs" text-decoration="underline" textLength="103" x="42.5" y="231.5898">main(String[]): void</text></a><!--class nl.vaneijndhoven.opencv.video.ImageUtils--><a href="ImageUtils.html" target="_top" xlink:actuate="onRequest" xlink:show="new" xlink:title="ImageUtils.html" xlink:type="simple"><rect fill="#FEFECE" filter="url(#fz6zhzhf7kafj)" height="73.9102" id="nl.vaneijndhoven.opencv.video.ImageUtils" style="stroke: #A80036; stroke-width: 1.5;" width="166" x="741" y="356.5"/><ellipse cx="790.25" cy="372.5" fill="#ADD1B2" rx="11" ry="11" style="stroke: #A80036; stroke-width: 1.0;"/><path d="M793.2231,378.1431 Q792.6421,378.4419 792.0029,378.5913 Q791.3638,378.7407 790.6582,378.7407 Q788.1514,378.7407 786.8315,377.0889 Q785.5117,375.437 785.5117,372.3159 Q785.5117,369.1865 786.8315,367.5347 Q788.1514,365.8828 790.6582,365.8828 Q791.3638,365.8828 792.0112,366.0322 Q792.6587,366.1816 793.2231,366.4805 L793.2231,369.2031 Q792.5923,368.6221 791.9988,368.3523 Q791.4053,368.0825 790.7744,368.0825 Q789.4297,368.0825 788.7449,369.1492 Q788.0601,370.2158 788.0601,372.3159 Q788.0601,374.4077 788.7449,375.4744 Q789.4297,376.541 790.7744,376.541 Q791.4053,376.541 791.9988,376.2712 Q792.5923,376.0015 793.2231,375.4204 Z "/><text fill="#000000" font-family="sans-serif" font-size="12" lengthAdjust="spacingAndGlyphs" textLength="59" x="810.75" y="377.0352">ImageUtils</text><line style="stroke: #A80036; stroke-width: 1.5;" x1="742" x2="906" y1="388.5" y2="388.5"/><line style="stroke: #A80036; stroke-width: 1.5;" x1="742" x2="906" y1="396.5" y2="396.5"/><ellipse cx="752" cy="408.4775" fill="#84BE84" rx="3" ry="3" style="stroke: #038048; stroke-width: 1.0;"/><text fill="#000000" font-family="sans-serif" font-size="11" lengthAdjust="spacingAndGlyphs" text-decoration="underline" textLength="124" x="761" y="411.1348">mat2Image(Mat): Image</text><ellipse cx="752" cy="421.4326" fill="#84BE84" rx="3" ry="3" style="stroke: #038048; stroke-width: 1.0;"/><text fill="#000000" font-family="sans-serif" font-size="11" lengthAdjust="spacingAndGlyphs" text-decoration="underline" textLength="140" x="761" y="424.0898">releaseImages(Mat[]): void</text></a><!--class javafx.application.Application--><rect fill="#FEFECE" filter="url(#fz6zhzhf7kafj)" height="60.9551" id="javafx.application.Application" style="stroke: #A80036; stroke-width: 1.5;" width="117" x="124.5" y="43"/><ellipse cx="148.95" cy="59" fill="#A9DCDF" rx="11" ry="11" style="stroke: #A80036; stroke-width: 1.0;"/><path d="M149.0633,54.3481 L147.9095,59.4199 L150.2254,59.4199 Z M147.5691,52.1069 L150.5657,52.1069 L153.9109,64.5 L151.4622,64.5 L150.6985,61.437 L147.4197,61.437 L146.6727,64.5 L144.2239,64.5 Z "/><text fill="#000000" font-family="sans-serif" font-size="12" font-style="italic" lengthAdjust="spacingAndGlyphs" textLength="64" x="165.05" y="63.5352">Application</text><line style="stroke: #A80036; stroke-width: 1.5;" x1="125.5" x2="240.5" y1="75" y2="75"/><line style="stroke: #A80036; stroke-width: 1.5;" x1="125.5" x2="240.5" y1="83" y2="83"/><ellipse cx="135.5" cy="94.9775" fill="#84BE84" rx="3" ry="3" style="stroke: #038048; stroke-width: 1.0;"/><text fill="#000000" font-family="sans-serif" font-size="11" font-style="italic" lengthAdjust="spacingAndGlyphs" textLength="91" x="144.5" y="97.6348">start(Stage): void</text><!--link javafx.application.Application to nl.vaneijndhoven.opencv.video.StartLightDetectionApp--><path d="M217.3859,120.6419 C227.7941,134.9112 239.0727,150.3739 248.9307,163.8888 " fill="none" id="javafx.application.Application-nl.vaneijndhoven.opencv.video.StartLightDetectionApp" style="stroke: #A80036; stroke-width: 1.0;"/><polygon fill="none" points="211.4065,124.3228,205.2758,104.0394,222.7173,116.0726,211.4065,124.3228" style="stroke: #A80036; stroke-width: 1.0;"/><!--link javafx.application.Application to nl.vaneijndhoven.opencv.video.LaneDetectionApp--><path d="M148.9839,120.6419 C138.6876,134.9112 127.5302,150.3739 117.7782,163.8888 " fill="none" id="javafx.application.Application-nl.vaneijndhoven.opencv.video.LaneDetectionApp" style="stroke: #A80036; stroke-width: 1.0;"/><polygon fill="none" points="143.5843,116.1621,160.9637,104.0394,154.9373,124.3541,143.5843,116.1621" style="stroke: #A80036; stroke-width: 1.0;"/><!--link nl.vaneijndhoven.opencv.video.StartLightDetectionController to nl.vaneijndhoven.opencv.video.LaneDetectionGUI--><!--link nl.vaneijndhoven.opencv.video.StartLightDetectionController to nl.vaneijndhoven.opencv.video.LaneDetectionController--><!--link nl.vaneijndhoven.opencv.video.LaneDetectionController to nl.vaneijndhoven.opencv.video.ImageUtils--><text fill="#888888" font-family="sans-serif" font-size="10" lengthAdjust="spacingAndGlyphs" textLength="182" x="379.5" y="524.668">UMLDoclet 1.1.4, PlantUML 1.2019.05</text><!--
@startuml

    namespace nl.vaneijndhoven.opencv.video {

        class StartLightDetectionController [[StartLightDetectionController.html]] {
        }

        class StartLightDetectionApp [[StartLightDetectionApp.html]] {
            +start(Stage): void
            {static} +main(String[]): void
        }

        class LaneDetectionGUI [[LaneDetectionGUI.html]] {
            +startCamera(): void
        }

        class LaneDetectionController [[LaneDetectionController.html]] {
            {static} +DEFAULT_LANE_BOUNDARY_ANGLE: double
            {static} +DEFAULT_LANE_BOUNDARY_TOLERANCE: double
            {static} +DEFAULT_CANNY_THRESHOLD_1: double
            {static} +DEFAULT_CANNY_THRESHOLD_2: double
            {static} +DEFAULT_LINE_DETECT_RHO: int
            {static} +DEFAULT_LINE_DETECT_THETA: double
            {static} +DEFAULT_LINE_DETECT_THRESHOLD: double
            {static} +DEFAULT_LINE_DETECT_MIN_LINE_LENGTH: double
            {static} +DEFAULT_LINE_DETECT_MAX_LINE_GAP: double
            +LaneDetectionController(Vertx)
            +performLaneDetection(Mat, CannyEdgeDetector.Config, ProbabilisticHoughLinesLineDetector.Config, ImageCollector): void
        }

        class LaneDetectionApp [[LaneDetectionApp.html]] {
            +start(Stage): void
            {static} +main(String[]): void
        }

        class ImageUtils [[ImageUtils.html]] {
            {static} +mat2Image(Mat): Image
            {static} +releaseImages(Mat[]): void
        }

        abstract class javafx.application.Application {
            {abstract} +start(Stage): void
        }
        javafx.application.Application <|- - StartLightDetectionApp

        javafx.application.Application <|- - LaneDetectionApp

    }


    center footer UMLDoclet 1.1.4, PlantUML 1.2019.05
@enduml

PlantUML version 1.2019.05(Sat Apr 20 18:45:36 CEST 2019)
(APACHE source distribution)
Java Runtime: Java(TM) SE Runtime Environment
JVM: Java HotSpot(TM) 64-Bit Server VM
Java Version: 1.8.0_191-b12
Operating System: Mac OS X
OS Version: 10.13.6
Default Encoding: UTF-8
Language: de
Country: DE
--></g></svg>