<?xml version="1.0" encoding="UTF-8" standalone="no"?><svg xmlns="http://www.w3.org/2000/svg" xmlns:xlink="http://www.w3.org/1999/xlink" contentScriptType="application/ecmascript" contentStyleType="text/css" height="102px" preserveAspectRatio="none" style="width:297px;height:102px;" version="1.1" viewBox="0 0 297 102" width="297px" zoomAndPan="magnify"><defs><filter height="300%" id="f1a36qhcija24w" width="300%" x="-1" y="-1"><feGaussianBlur result="blurOut" stdDeviation="2.0"/><feColorMatrix in="blurOut" result="blurOut2" type="matrix" values="0 0 0 0 0 0 0 0 0 0 0 0 0 0 0 0 0 0 .4 0"/><feOffset dx="4.0" dy="4.0" in="blurOut2" result="blurOut3"/><feBlend in="SourceGraphic" in2="blurOut3" mode="normal"/></filter></defs><g><!--class StraightLaneNavigator--><a href="StraightLaneNavigator.html" target="_top" xlink:actuate="onRequest" xlink:show="new" xlink:title="StraightLaneNavigator.html" xlink:type="simple"><rect fill="#FEFECE" filter="url(#f1a36qhcija24w)" height="60.9551" id="StraightLaneNavigator" style="stroke: #A80036; stroke-width: 1.5;" width="280" x="6" y="8"/><ellipse cx="79.25" cy="24" fill="#ADD1B2" rx="11" ry="11" style="stroke: #A80036; stroke-width: 1.0;"/><path d="M82.2231,29.6431 Q81.6421,29.9419 81.0029,30.0913 Q80.3638,30.2407 79.6582,30.2407 Q77.1514,30.2407 75.8315,28.5889 Q74.5117,26.937 74.5117,23.8159 Q74.5117,20.6865 75.8315,19.0347 Q77.1514,17.3828 79.6582,17.3828 Q80.3638,17.3828 81.0112,17.5322 Q81.6587,17.6816 82.2231,17.9805 L82.2231,20.7031 Q81.5923,20.1221 80.9988,19.8523 Q80.4053,19.5825 79.7744,19.5825 Q78.4297,19.5825 77.7449,20.6492 Q77.0601,21.7158 77.0601,23.8159 Q77.0601,25.9077 77.7449,26.9744 Q78.4297,28.041 79.7744,28.041 Q80.4053,28.041 80.9988,27.7712 Q81.5923,27.5015 82.2231,26.9204 Z "/><text fill="#000000" font-family="sans-serif" font-size="12" lengthAdjust="spacingAndGlyphs" textLength="125" x="99.75" y="28.5352">StraightLaneNavigator</text><line style="stroke: #A80036; stroke-width: 1.5;" x1="7" x2="285" y1="40" y2="40"/><line style="stroke: #A80036; stroke-width: 1.5;" x1="7" x2="285" y1="48" y2="48"/><ellipse cx="17" cy="59.9775" fill="#84BE84" rx="3" ry="3" style="stroke: #038048; stroke-width: 1.0;"/><text fill="#000000" font-family="sans-serif" font-size="11" lengthAdjust="spacingAndGlyphs" textLength="254" x="26" y="62.6348">navigate(JsonObject): Observable&lt;JsonObject&gt;</text></a><text fill="#888888" font-family="sans-serif" font-size="10" lengthAdjust="spacingAndGlyphs" textLength="182" x="61" y="88.668">UMLDoclet 1.1.4, PlantUML 1.2019.05</text><!--
@startuml

    class StraightLaneNavigator [[StraightLaneNavigator.html]] {
        +navigate(JsonObject): Observable<JsonObject>
    }


    center footer UMLDoclet 1.1.4, PlantUML 1.2019.05
@enduml

PlantUML version 1.2019.05(Sat Apr 20 18:45:36 CEST 2019)
(APACHE source distribution)
Java Runtime: Java(TM) SE Runtime Environment
JVM: Java HotSpot(TM) 64-Bit Server VM
Java Version: 1.8.0_191-b12
Operating System: Mac OS X
OS Version: 10.13.6
Default Encoding: UTF-8
Language: de
Country: DE
--></g></svg>