<?xml version="1.0" encoding="UTF-8" standalone="no"?><svg xmlns="http://www.w3.org/2000/svg" xmlns:xlink="http://www.w3.org/1999/xlink" contentScriptType="application/ecmascript" contentStyleType="text/css" height="758px" preserveAspectRatio="none" style="width:2025px;height:758px;" version="1.1" viewBox="0 0 2025 758" width="2025px" zoomAndPan="magnify"><defs><filter height="300%" id="f1ef8vf8lghvrq" width="300%" x="-1" y="-1"><feGaussianBlur result="blurOut" stdDeviation="2.0"/><feColorMatrix in="blurOut" result="blurOut2" type="matrix" values="0 0 0 0 0 0 0 0 0 0 0 0 0 0 0 0 0 0 .4 0"/><feOffset dx="4.0" dy="4.0" in="blurOut2" result="blurOut3"/><feBlend in="SourceGraphic" in2="blurOut3" mode="normal"/></filter></defs><g><!--cluster org.rcdukes.action--><polygon fill="#FFFFFF" filter="url(#f1ef8vf8lghvrq)" points="14,16,150,16,157,38.4883,1448,38.4883,1448,717,14,717,14,16" style="stroke: #000000; stroke-width: 1.5;"/><line style="stroke: #000000; stroke-width: 1.5;" x1="14" x2="157" y1="38.4883" y2="38.4883"/><text fill="#000000" font-family="sans-serif" font-size="14" font-weight="bold" lengthAdjust="spacingAndGlyphs" textLength="130" x="18" y="31.5352">org.rcdukes.action</text><!--cluster org.rcdukes.common--><polygon fill="#FFFFFF" filter="url(#f1ef8vf8lghvrq)" points="1456,224,1610,224,1617,246.4883,2003,246.4883,2003,372,1456,372,1456,224" style="stroke: #000000; stroke-width: 1.5;"/><line style="stroke: #000000; stroke-width: 1.5;" x1="1456" x2="1617" y1="246.4883" y2="246.4883"/><text fill="#000000" font-family="sans-serif" font-size="14" font-weight="bold" lengthAdjust="spacingAndGlyphs" textLength="148" x="1460" y="239.5352">org.rcdukes.common</text><!--class org.rcdukes.action.TestMiniPID--><a href="TestMiniPID.html" target="_top" xlink:actuate="onRequest" xlink:show="new" xlink:title="TestMiniPID.html" xlink:type="simple"><rect fill="#FEFECE" filter="url(#f1ef8vf8lghvrq)" height="99.8203" id="org.rcdukes.action.TestMiniPID" style="stroke: #A80036; stroke-width: 1.5;" width="144" x="22" y="56"/><ellipse cx="57.25" cy="72" fill="#ADD1B2" rx="11" ry="11" style="stroke: #A80036; stroke-width: 1.0;"/><path d="M60.2231,77.6431 Q59.6421,77.9419 59.0029,78.0913 Q58.3638,78.2407 57.6582,78.2407 Q55.1514,78.2407 53.8315,76.5889 Q52.5117,74.937 52.5117,71.8159 Q52.5117,68.6865 53.8315,67.0347 Q55.1514,65.3828 57.6582,65.3828 Q58.3638,65.3828 59.0112,65.5322 Q59.6587,65.6816 60.2231,65.9805 L60.2231,68.7031 Q59.5923,68.1221 58.9988,67.8523 Q58.4053,67.5825 57.7744,67.5825 Q56.4297,67.5825 55.7449,68.6492 Q55.0601,69.7158 55.0601,71.8159 Q55.0601,73.9077 55.7449,74.9744 Q56.4297,76.041 57.7744,76.041 Q58.4053,76.041 58.9988,75.7712 Q59.5923,75.5015 60.2231,74.9204 Z "/><text fill="#000000" font-family="sans-serif" font-size="12" lengthAdjust="spacingAndGlyphs" textLength="67" x="75.75" y="76.5352">TestMiniPID</text><line style="stroke: #A80036; stroke-width: 1.5;" x1="23" x2="165" y1="88" y2="88"/><line style="stroke: #A80036; stroke-width: 1.5;" x1="23" x2="165" y1="96" y2="96"/><ellipse cx="33" cy="107.9775" fill="#84BE84" rx="3" ry="3" style="stroke: #038048; stroke-width: 1.0;"/><text fill="#000000" font-family="sans-serif" font-size="11" lengthAdjust="spacingAndGlyphs" textLength="96" x="42" y="110.6348">testMiniPID(): void</text><ellipse cx="33" cy="120.9326" fill="#84BE84" rx="3" ry="3" style="stroke: #038048; stroke-width: 1.0;"/><text fill="#000000" font-family="sans-serif" font-size="11" lengthAdjust="spacingAndGlyphs" textLength="82" x="42" y="123.5898">testMain(): void</text><ellipse cx="33" cy="133.8877" fill="#84BE84" rx="3" ry="3" style="stroke: #038048; stroke-width: 1.0;"/><text fill="#000000" font-family="sans-serif" font-size="11" lengthAdjust="spacingAndGlyphs" text-decoration="underline" textLength="112" x="42" y="136.5449">redirectStdErr(): void</text><ellipse cx="33" cy="146.8428" fill="#84BE84" rx="3" ry="3" style="stroke: #038048; stroke-width: 1.0;"/><text fill="#000000" font-family="sans-serif" font-size="11" lengthAdjust="spacingAndGlyphs" text-decoration="underline" textLength="118" x="42" y="149.5">restoreStdErr(): String</text></a><!--class org.rcdukes.action.TestAction--><a href="TestAction.html" target="_top" xlink:actuate="onRequest" xlink:show="new" xlink:title="TestAction.html" xlink:type="simple"><rect fill="#FEFECE" filter="url(#f1ef8vf8lghvrq)" height="86.8652" id="org.rcdukes.action.TestAction" style="stroke: #A80036; stroke-width: 1.5;" width="198" x="201" y="62.5"/><ellipse cx="265.75" cy="78.5" fill="#ADD1B2" rx="11" ry="11" style="stroke: #A80036; stroke-width: 1.0;"/><path d="M268.7231,84.1431 Q268.1421,84.4419 267.5029,84.5913 Q266.8638,84.7407 266.1582,84.7407 Q263.6514,84.7407 262.3315,83.0889 Q261.0117,81.437 261.0117,78.3159 Q261.0117,75.1865 262.3315,73.5347 Q263.6514,71.8828 266.1582,71.8828 Q266.8638,71.8828 267.5112,72.0322 Q268.1587,72.1816 268.7231,72.4805 L268.7231,75.2031 Q268.0923,74.6221 267.4988,74.3523 Q266.9053,74.0825 266.2744,74.0825 Q264.9297,74.0825 264.2449,75.1492 Q263.5601,76.2158 263.5601,78.3159 Q263.5601,80.4077 264.2449,81.4744 Q264.9297,82.541 266.2744,82.541 Q266.9053,82.541 267.4988,82.2712 Q268.0923,82.0015 268.7231,81.4204 Z "/><text fill="#000000" font-family="sans-serif" font-size="12" lengthAdjust="spacingAndGlyphs" textLength="60" x="286.25" y="83.0352">TestAction</text><line style="stroke: #A80036; stroke-width: 1.5;" x1="202" x2="398" y1="94.5" y2="94.5"/><ellipse cx="212" cy="106.4775" fill="none" rx="3" ry="3" style="stroke: #038048; stroke-width: 1.0;"/><text fill="#000000" font-family="sans-serif" font-size="11" lengthAdjust="spacingAndGlyphs" text-decoration="underline" textLength="83" x="221" y="109.1348">debug: boolean</text><line style="stroke: #A80036; stroke-width: 1.5;" x1="202" x2="398" y1="115.4551" y2="115.4551"/><ellipse cx="212" cy="127.4326" fill="#84BE84" rx="3" ry="3" style="stroke: #038048; stroke-width: 1.0;"/><text fill="#000000" font-family="sans-serif" font-size="11" lengthAdjust="spacingAndGlyphs" textLength="172" x="221" y="130.0898">check(JsonObject, String[]): void</text><ellipse cx="212" cy="140.3877" fill="#84BE84" rx="3" ry="3" style="stroke: #038048; stroke-width: 1.0;"/><text fill="#000000" font-family="sans-serif" font-size="11" lengthAdjust="spacingAndGlyphs" textLength="92" x="221" y="143.0449">testAction(): void</text></a><!--class org.rcdukes.action.TestStraightLaneNavigator--><a href="TestStraightLaneNavigator.html" target="_top" xlink:actuate="onRequest" xlink:show="new" xlink:title="TestStraightLaneNavigator.html" xlink:type="simple"><rect fill="#FEFECE" filter="url(#f1ef8vf8lghvrq)" height="125.7305" id="org.rcdukes.action.TestStraightLaneNavigator" style="stroke: #A80036; stroke-width: 1.5;" width="350" x="434" y="43"/><ellipse cx="529.75" cy="59" fill="#ADD1B2" rx="11" ry="11" style="stroke: #A80036; stroke-width: 1.0;"/><path d="M532.7231,64.6431 Q532.1421,64.9419 531.5029,65.0913 Q530.8638,65.2407 530.1582,65.2407 Q527.6514,65.2407 526.3315,63.5889 Q525.0117,61.937 525.0117,58.8159 Q525.0117,55.6865 526.3315,54.0347 Q527.6514,52.3828 530.1582,52.3828 Q530.8638,52.3828 531.5112,52.5322 Q532.1587,52.6816 532.7231,52.9805 L532.7231,55.7031 Q532.0923,55.1221 531.4988,54.8523 Q530.9053,54.5825 530.2744,54.5825 Q528.9297,54.5825 528.2449,55.6492 Q527.5601,56.7158 527.5601,58.8159 Q527.5601,60.9077 528.2449,61.9744 Q528.9297,63.041 530.2744,63.041 Q530.9053,63.041 531.4988,62.7712 Q532.0923,62.5015 532.7231,61.9204 Z "/><text fill="#000000" font-family="sans-serif" font-size="12" lengthAdjust="spacingAndGlyphs" textLength="150" x="550.25" y="63.5352">TestStraightLaneNavigator</text><line style="stroke: #A80036; stroke-width: 1.5;" x1="435" x2="783" y1="75" y2="75"/><ellipse cx="445" cy="86.9775" fill="none" rx="3" ry="3" style="stroke: #038048; stroke-width: 1.0;"/><text fill="#000000" font-family="sans-serif" font-size="11" lengthAdjust="spacingAndGlyphs" text-decoration="underline" textLength="83" x="454" y="89.6348">debug: boolean</text><line style="stroke: #A80036; stroke-width: 1.5;" x1="435" x2="783" y1="95.9551" y2="95.9551"/><ellipse cx="445" cy="107.9326" fill="#84BE84" rx="3" ry="3" style="stroke: #038048; stroke-width: 1.0;"/><text fill="#000000" font-family="sans-serif" font-size="11" lengthAdjust="spacingAndGlyphs" text-decoration="underline" textLength="68" x="454" y="110.5898">setUp(): void</text><ellipse cx="445" cy="120.8877" fill="#84BE84" rx="3" ry="3" style="stroke: #038048; stroke-width: 1.0;"/><text fill="#000000" font-family="sans-serif" font-size="11" lengthAdjust="spacingAndGlyphs" textLength="324" x="454" y="123.5449">getLdr(int, int, Double, Double, Double): LaneDetectionResult</text><ellipse cx="445" cy="133.8428" fill="#84BE84" rx="3" ry="3" style="stroke: #038048; stroke-width: 1.0;"/><text fill="#000000" font-family="sans-serif" font-size="11" lengthAdjust="spacingAndGlyphs" textLength="176" x="454" y="136.5">testStraightLaneNavigator(): void</text><ellipse cx="445" cy="146.7979" fill="#84BE84" rx="3" ry="3" style="stroke: #038048; stroke-width: 1.0;"/><text fill="#000000" font-family="sans-serif" font-size="11" lengthAdjust="spacingAndGlyphs" textLength="108" x="454" y="149.4551">testFromJson(): void</text><ellipse cx="445" cy="159.7529" fill="#84BE84" rx="3" ry="3" style="stroke: #038048; stroke-width: 1.0;"/><text fill="#000000" font-family="sans-serif" font-size="11" lengthAdjust="spacingAndGlyphs" textLength="115" x="454" y="162.4102">testFromVideo(): void</text></a><!--class org.rcdukes.action.TestSuite--><a href="TestSuite.html" target="_top" xlink:actuate="onRequest" xlink:show="new" xlink:title="TestSuite.html" xlink:type="simple"><rect fill="#FEFECE" filter="url(#f1ef8vf8lghvrq)" height="73.9102" id="org.rcdukes.action.TestSuite" style="stroke: #A80036; stroke-width: 1.5;" width="125" x="31.5" y="538"/><ellipse cx="64.95" cy="554" fill="#ADD1B2" rx="11" ry="11" style="stroke: #A80036; stroke-width: 1.0;"/><path d="M67.9231,559.6431 Q67.3421,559.9419 66.7029,560.0913 Q66.0638,560.2407 65.3582,560.2407 Q62.8514,560.2407 61.5315,558.5889 Q60.2117,556.937 60.2117,553.8159 Q60.2117,550.6865 61.5315,549.0347 Q62.8514,547.3828 65.3582,547.3828 Q66.0638,547.3828 66.7112,547.5322 Q67.3587,547.6816 67.9231,547.9805 L67.9231,550.7031 Q67.2923,550.1221 66.6988,549.8523 Q66.1053,549.5825 65.4744,549.5825 Q64.1297,549.5825 63.4449,550.6492 Q62.7601,551.7158 62.7601,553.8159 Q62.7601,555.9077 63.4449,556.9744 Q64.1297,558.041 65.4744,558.041 Q66.1053,558.041 66.6988,557.7712 Q67.2923,557.5015 67.9231,556.9204 Z "/><text fill="#000000" font-family="sans-serif" font-size="12" lengthAdjust="spacingAndGlyphs" textLength="52" x="83.05" y="558.5352">TestSuite</text><line style="stroke: #A80036; stroke-width: 1.5;" x1="32.5" x2="155.5" y1="570" y2="570"/><ellipse cx="42.5" cy="581.9775" fill="none" rx="3" ry="3" style="stroke: #038048; stroke-width: 1.0;"/><text fill="#000000" font-family="sans-serif" font-size="11" lengthAdjust="spacingAndGlyphs" text-decoration="underline" textLength="83" x="51.5" y="584.6348">debug: boolean</text><line style="stroke: #A80036; stroke-width: 1.5;" x1="32.5" x2="155.5" y1="590.9551" y2="590.9551"/><ellipse cx="42.5" cy="602.9326" fill="#84BE84" rx="3" ry="3" style="stroke: #038048; stroke-width: 1.0;"/><text fill="#000000" font-family="sans-serif" font-size="11" lengthAdjust="spacingAndGlyphs" text-decoration="underline" textLength="99" x="51.5" y="605.5898">isTravis(): boolean</text></a><!--class org.rcdukes.action.Navigator--><a href="Navigator.html" target="_top" xlink:actuate="onRequest" xlink:show="new" xlink:title="Navigator.html" xlink:type="simple"><rect fill="#FEFECE" filter="url(#f1ef8vf8lghvrq)" height="125.7305" id="org.rcdukes.action.Navigator" style="stroke: #A80036; stroke-width: 1.5;" width="349" x="819.5" y="43"/><ellipse cx="962.25" cy="59" fill="#B4A7E5" rx="11" ry="11" style="stroke: #A80036; stroke-width: 1.0;"/><path d="M958.1777,54.7651 L958.1777,52.6069 L965.5571,52.6069 L965.5571,54.7651 L963.0918,54.7651 L963.0918,62.8418 L965.5571,62.8418 L965.5571,65 L958.1777,65 L958.1777,62.8418 L960.6431,62.8418 L960.6431,54.7651 Z "/><text fill="#000000" font-family="sans-serif" font-size="12" font-style="italic" lengthAdjust="spacingAndGlyphs" textLength="55" x="982.75" y="63.5352">Navigator</text><line style="stroke: #A80036; stroke-width: 1.5;" x1="820.5" x2="1167.5" y1="75" y2="75"/><line style="stroke: #A80036; stroke-width: 1.5;" x1="820.5" x2="1167.5" y1="83" y2="83"/><ellipse cx="830.5" cy="94.9775" fill="#84BE84" rx="3" ry="3" style="stroke: #038048; stroke-width: 1.0;"/><text fill="#000000" font-family="sans-serif" font-size="11" font-style="italic" lengthAdjust="spacingAndGlyphs" textLength="265" x="839.5" y="97.6348">fromJsonObject(JsonObject): LaneDetectionResult</text><ellipse cx="830.5" cy="107.9326" fill="#84BE84" rx="3" ry="3" style="stroke: #038048; stroke-width: 1.0;"/><text fill="#000000" font-family="sans-serif" font-size="11" font-style="italic" lengthAdjust="spacingAndGlyphs" textLength="314" x="839.5" y="110.5898">getNavigationInstruction(LaneDetectionResult): JsonObject</text><ellipse cx="830.5" cy="120.8877" fill="#84BE84" rx="3" ry="3" style="stroke: #038048; stroke-width: 1.0;"/><text fill="#000000" font-family="sans-serif" font-size="11" font-style="italic" lengthAdjust="spacingAndGlyphs" textLength="222" x="839.5" y="123.5449">navigateWithInstruction(JsonObject): void</text><ellipse cx="830.5" cy="133.8428" fill="#84BE84" rx="3" ry="3" style="stroke: #038048; stroke-width: 1.0;"/><text fill="#000000" font-family="sans-serif" font-size="11" font-style="italic" lengthAdjust="spacingAndGlyphs" textLength="273" x="839.5" y="136.5">navigateWithMessage(Message&lt;JsonObject&gt;): void</text><ellipse cx="830.5" cy="146.7979" fill="#84BE84" rx="3" ry="3" style="stroke: #038048; stroke-width: 1.0;"/><text fill="#000000" font-family="sans-serif" font-size="11" font-style="italic" lengthAdjust="spacingAndGlyphs" textLength="323" x="839.5" y="149.4551">navigateWithLaneDetectionResult(LaneDetectionResult): void</text><ellipse cx="830.5" cy="159.7529" fill="#84BE84" rx="3" ry="3" style="stroke: #038048; stroke-width: 1.0;"/><text fill="#000000" font-family="sans-serif" font-size="11" font-style="italic" lengthAdjust="spacingAndGlyphs" textLength="249" x="839.5" y="162.4102">videoStopped(VideoRecorders.VideoInfo): void</text></a><!--class org.rcdukes.action.StartLightObserver--><a href="StartLightObserver.html" target="_top" xlink:actuate="onRequest" xlink:show="new" xlink:title="StartLightObserver.html" xlink:type="simple"><rect fill="#FEFECE" filter="url(#f1ef8vf8lghvrq)" height="60.9551" id="org.rcdukes.action.StartLightObserver" style="stroke: #A80036; stroke-width: 1.5;" width="278" x="192" y="544.5"/><ellipse cx="273.75" cy="560.5" fill="#ADD1B2" rx="11" ry="11" style="stroke: #A80036; stroke-width: 1.0;"/><path d="M276.7231,566.1431 Q276.1421,566.4419 275.5029,566.5913 Q274.8638,566.7407 274.1582,566.7407 Q271.6514,566.7407 270.3315,565.0889 Q269.0117,563.437 269.0117,560.3159 Q269.0117,557.1865 270.3315,555.5347 Q271.6514,553.8828 274.1582,553.8828 Q274.8638,553.8828 275.5112,554.0322 Q276.1587,554.1816 276.7231,554.4805 L276.7231,557.2031 Q276.0923,556.6221 275.4988,556.3523 Q274.9053,556.0825 274.2744,556.0825 Q272.9297,556.0825 272.2449,557.1492 Q271.5601,558.2158 271.5601,560.3159 Q271.5601,562.4077 272.2449,563.4744 Q272.9297,564.541 274.2744,564.541 Q274.9053,564.541 275.4988,564.2712 Q276.0923,564.0015 276.7231,563.4204 Z "/><text fill="#000000" font-family="sans-serif" font-size="12" lengthAdjust="spacingAndGlyphs" textLength="106" x="294.25" y="565.0352">StartLightObserver</text><line style="stroke: #A80036; stroke-width: 1.5;" x1="193" x2="469" y1="576.5" y2="576.5"/><line style="stroke: #A80036; stroke-width: 1.5;" x1="193" x2="469" y1="584.5" y2="584.5"/><ellipse cx="203" cy="596.4775" fill="#84BE84" rx="3" ry="3" style="stroke: #038048; stroke-width: 1.0;"/><text fill="#000000" font-family="sans-serif" font-size="11" lengthAdjust="spacingAndGlyphs" textLength="252" x="212" y="599.1348">observe(JsonObject): Observable&lt;JsonObject&gt;</text></a><!--class org.rcdukes.action.ActionVerticle--><a href="ActionVerticle.html" target="_top" xlink:actuate="onRequest" xlink:show="new" xlink:title="ActionVerticle.html" xlink:type="simple"><rect fill="#FEFECE" filter="url(#f1ef8vf8lghvrq)" height="73.9102" id="org.rcdukes.action.ActionVerticle" style="stroke: #A80036; stroke-width: 1.5;" width="236" x="1204" y="69"/><ellipse cx="1278.75" cy="85" fill="#ADD1B2" rx="11" ry="11" style="stroke: #A80036; stroke-width: 1.0;"/><path d="M1281.7231,90.6431 Q1281.1421,90.9419 1280.5029,91.0913 Q1279.8638,91.2407 1279.1582,91.2407 Q1276.6514,91.2407 1275.3315,89.5889 Q1274.0117,87.937 1274.0117,84.8159 Q1274.0117,81.6865 1275.3315,80.0347 Q1276.6514,78.3828 1279.1582,78.3828 Q1279.8638,78.3828 1280.5112,78.5322 Q1281.1587,78.6816 1281.7231,78.9805 L1281.7231,81.7031 Q1281.0923,81.1221 1280.4988,80.8523 Q1279.9053,80.5825 1279.2744,80.5825 Q1277.9297,80.5825 1277.2449,81.6492 Q1276.5601,82.7158 1276.5601,84.8159 Q1276.5601,86.9077 1277.2449,87.9744 Q1277.9297,89.041 1279.2744,89.041 Q1279.9053,89.041 1280.4988,88.7712 Q1281.0923,88.5015 1281.7231,87.9204 Z "/><text fill="#000000" font-family="sans-serif" font-size="12" lengthAdjust="spacingAndGlyphs" textLength="78" x="1299.25" y="89.5352">ActionVerticle</text><line style="stroke: #A80036; stroke-width: 1.5;" x1="1205" x2="1439" y1="101" y2="101"/><line style="stroke: #A80036; stroke-width: 1.5;" x1="1205" x2="1439" y1="109" y2="109"/><ellipse cx="1215" cy="120.9775" fill="#84BE84" rx="3" ry="3" style="stroke: #038048; stroke-width: 1.0;"/><text fill="#000000" font-family="sans-serif" font-size="11" lengthAdjust="spacingAndGlyphs" textLength="62" x="1224" y="123.6348">start(): void</text><ellipse cx="1215" cy="133.9326" fill="#84BE84" rx="3" ry="3" style="stroke: #038048; stroke-width: 1.0;"/><text fill="#000000" font-family="sans-serif" font-size="11" lengthAdjust="spacingAndGlyphs" text-decoration="underline" textLength="210" x="1224" y="136.5898">emergencyStopCommand(): JsonObject</text></a><!--class org.rcdukes.action.StoppingZoneDetector--><a href="StoppingZoneDetector.html" target="_top" xlink:actuate="onRequest" xlink:show="new" xlink:title="StoppingZoneDetector.html" xlink:type="simple"><rect fill="#FEFECE" filter="url(#f1ef8vf8lghvrq)" height="60.9551" id="org.rcdukes.action.StoppingZoneDetector" style="stroke: #A80036; stroke-width: 1.5;" width="268" x="505" y="544.5"/><ellipse cx="571.25" cy="560.5" fill="#ADD1B2" rx="11" ry="11" style="stroke: #A80036; stroke-width: 1.0;"/><path d="M574.2231,566.1431 Q573.6421,566.4419 573.0029,566.5913 Q572.3638,566.7407 571.6582,566.7407 Q569.1514,566.7407 567.8315,565.0889 Q566.5117,563.437 566.5117,560.3159 Q566.5117,557.1865 567.8315,555.5347 Q569.1514,553.8828 571.6582,553.8828 Q572.3638,553.8828 573.0112,554.0322 Q573.6587,554.1816 574.2231,554.4805 L574.2231,557.2031 Q573.5923,556.6221 572.9988,556.3523 Q572.4053,556.0825 571.7744,556.0825 Q570.4297,556.0825 569.7449,557.1492 Q569.0601,558.2158 569.0601,560.3159 Q569.0601,562.4077 569.7449,563.4744 Q570.4297,564.541 571.7744,564.541 Q572.4053,564.541 572.9988,564.2712 Q573.5923,564.0015 574.2231,563.4204 Z "/><text fill="#000000" font-family="sans-serif" font-size="12" lengthAdjust="spacingAndGlyphs" textLength="127" x="591.75" y="565.0352">StoppingZoneDetector</text><line style="stroke: #A80036; stroke-width: 1.5;" x1="506" x2="772" y1="576.5" y2="576.5"/><line style="stroke: #A80036; stroke-width: 1.5;" x1="506" x2="772" y1="584.5" y2="584.5"/><ellipse cx="516" cy="596.4775" fill="#84BE84" rx="3" ry="3" style="stroke: #038048; stroke-width: 1.0;"/><text fill="#000000" font-family="sans-serif" font-size="11" lengthAdjust="spacingAndGlyphs" textLength="242" x="525" y="599.1348">detect(JsonObject): Observable&lt;JsonObject&gt;</text></a><!--class org.rcdukes.action.StraightLaneNavigator--><a href="StraightLaneNavigator.html" target="_top" xlink:actuate="onRequest" xlink:show="new" xlink:title="StraightLaneNavigator.html" xlink:type="simple"><rect fill="#FEFECE" filter="url(#f1ef8vf8lghvrq)" height="268.2363" id="org.rcdukes.action.StraightLaneNavigator" style="stroke: #A80036; stroke-width: 1.5;" width="349" x="1090.5" y="441"/><ellipse cx="1198.25" cy="457" fill="#ADD1B2" rx="11" ry="11" style="stroke: #A80036; stroke-width: 1.0;"/><path d="M1201.2231,462.6431 Q1200.6421,462.9419 1200.0029,463.0913 Q1199.3638,463.2407 1198.6582,463.2407 Q1196.1514,463.2407 1194.8315,461.5889 Q1193.5117,459.937 1193.5117,456.8159 Q1193.5117,453.6865 1194.8315,452.0347 Q1196.1514,450.3828 1198.6582,450.3828 Q1199.3638,450.3828 1200.0112,450.5322 Q1200.6587,450.6816 1201.2231,450.9805 L1201.2231,453.7031 Q1200.5923,453.1221 1199.9988,452.8523 Q1199.4053,452.5825 1198.7744,452.5825 Q1197.4297,452.5825 1196.7449,453.6492 Q1196.0601,454.7158 1196.0601,456.8159 Q1196.0601,458.9077 1196.7449,459.9744 Q1197.4297,461.041 1198.7744,461.041 Q1199.4053,461.041 1199.9988,460.7712 Q1200.5923,460.5015 1201.2231,459.9204 Z "/><text fill="#000000" font-family="sans-serif" font-size="12" lengthAdjust="spacingAndGlyphs" textLength="125" x="1218.75" y="461.5352">StraightLaneNavigator</text><line style="stroke: #A80036; stroke-width: 1.5;" x1="1091.5" x2="1438.5" y1="473" y2="473"/><ellipse cx="1101.5" cy="484.9775" fill="none" rx="3" ry="3" style="stroke: #038048; stroke-width: 1.0;"/><text fill="#000000" font-family="sans-serif" font-size="11" lengthAdjust="spacingAndGlyphs" text-decoration="underline" textLength="173" x="1110.5" y="487.6348">COMMAND_LOOP_INTERVAL: int</text><ellipse cx="1101.5" cy="497.9326" fill="none" rx="3" ry="3" style="stroke: #038048; stroke-width: 1.0;"/><text fill="#000000" font-family="sans-serif" font-size="11" lengthAdjust="spacingAndGlyphs" text-decoration="underline" textLength="228" x="1110.5" y="500.5898">MAX_DURATION_NO_LINES_DETECTED: int</text><ellipse cx="1101.5" cy="510.8877" fill="none" rx="3" ry="3" style="stroke: #038048; stroke-width: 1.0;"/><text fill="#000000" font-family="sans-serif" font-size="11" lengthAdjust="spacingAndGlyphs" text-decoration="underline" textLength="152" x="1110.5" y="513.5449">DEFAULT_TIME_WINDOW: int</text><polygon fill="none" points="1101.5,518.8428,1105.5,522.8428,1101.5,526.8428,1097.5,522.8428" style="stroke: #B38D22; stroke-width: 1.0;"/><text fill="#000000" font-family="sans-serif" font-size="11" lengthAdjust="spacingAndGlyphs" text-decoration="underline" textLength="67" x="1110.5" y="526.5">LOG: Logger</text><line style="stroke: #A80036; stroke-width: 1.5;" x1="1091.5" x2="1438.5" y1="532.8203" y2="532.8203"/><ellipse cx="1101.5" cy="544.7979" fill="#84BE84" rx="3" ry="3" style="stroke: #038048; stroke-width: 1.0;"/><text fill="#000000" font-family="sans-serif" font-size="11" lengthAdjust="spacingAndGlyphs" textLength="127" x="1110.5" y="547.4551">StraightLaneNavigator()</text><ellipse cx="1101.5" cy="557.7529" fill="#84BE84" rx="3" ry="3" style="stroke: #038048; stroke-width: 1.0;"/><text fill="#000000" font-family="sans-serif" font-size="11" lengthAdjust="spacingAndGlyphs" textLength="141" x="1110.5" y="560.4102">StraightLaneNavigator(int)</text><ellipse cx="1101.5" cy="570.708" fill="#84BE84" rx="3" ry="3" style="stroke: #038048; stroke-width: 1.0;"/><text fill="#000000" font-family="sans-serif" font-size="11" lengthAdjust="spacingAndGlyphs" textLength="225" x="1110.5" y="573.3652">addToGraph(LaneDetectionResult): Vertex</text><ellipse cx="1101.5" cy="583.6631" fill="#84BE84" rx="3" ry="3" style="stroke: #038048; stroke-width: 1.0;"/><text fill="#000000" font-family="sans-serif" font-size="11" lengthAdjust="spacingAndGlyphs" textLength="265" x="1110.5" y="586.3203">fromJsonObject(JsonObject): LaneDetectionResult</text><ellipse cx="1101.5" cy="596.6182" fill="#84BE84" rx="3" ry="3" style="stroke: #038048; stroke-width: 1.0;"/><text fill="#000000" font-family="sans-serif" font-size="11" lengthAdjust="spacingAndGlyphs" textLength="301" x="1110.5" y="599.2754">cmdOk(StraightLaneNavigator.AngleRange, int): boolean</text><ellipse cx="1101.5" cy="609.5732" fill="#84BE84" rx="3" ry="3" style="stroke: #038048; stroke-width: 1.0;"/><text fill="#000000" font-family="sans-serif" font-size="11" lengthAdjust="spacingAndGlyphs" textLength="188" x="1110.5" y="612.2305">setTime(LaneDetectionResult): void</text><ellipse cx="1101.5" cy="622.5283" fill="#84BE84" rx="3" ry="3" style="stroke: #038048; stroke-width: 1.0;"/><text fill="#000000" font-family="sans-serif" font-size="11" lengthAdjust="spacingAndGlyphs" textLength="210" x="1110.5" y="625.1855">analyzeAngleRanges(int, boolean): void</text><ellipse cx="1101.5" cy="635.4834" fill="#84BE84" rx="3" ry="3" style="stroke: #038048; stroke-width: 1.0;"/><text fill="#000000" font-family="sans-serif" font-size="11" lengthAdjust="spacingAndGlyphs" textLength="314" x="1110.5" y="638.1406">getNavigationInstruction(LaneDetectionResult): JsonObject</text><ellipse cx="1101.5" cy="648.4385" fill="#84BE84" rx="3" ry="3" style="stroke: #038048; stroke-width: 1.0;"/><text fill="#000000" font-family="sans-serif" font-size="11" lengthAdjust="spacingAndGlyphs" textLength="192" x="1110.5" y="651.0957">steerCommand(Double): JsonObject</text><ellipse cx="1101.5" cy="661.3936" fill="#84BE84" rx="3" ry="3" style="stroke: #038048; stroke-width: 1.0;"/><text fill="#000000" font-family="sans-serif" font-size="11" lengthAdjust="spacingAndGlyphs" textLength="222" x="1110.5" y="664.0508">navigateWithInstruction(JsonObject): void</text><ellipse cx="1101.5" cy="674.3486" fill="#84BE84" rx="3" ry="3" style="stroke: #038048; stroke-width: 1.0;"/><text fill="#000000" font-family="sans-serif" font-size="11" lengthAdjust="spacingAndGlyphs" textLength="273" x="1110.5" y="677.0059">navigateWithMessage(Message&lt;JsonObject&gt;): void</text><ellipse cx="1101.5" cy="687.3037" fill="#84BE84" rx="3" ry="3" style="stroke: #038048; stroke-width: 1.0;"/><text fill="#000000" font-family="sans-serif" font-size="11" lengthAdjust="spacingAndGlyphs" textLength="323" x="1110.5" y="689.9609">navigateWithLaneDetectionResult(LaneDetectionResult): void</text><ellipse cx="1101.5" cy="700.2588" fill="#84BE84" rx="3" ry="3" style="stroke: #038048; stroke-width: 1.0;"/><text fill="#000000" font-family="sans-serif" font-size="11" lengthAdjust="spacingAndGlyphs" textLength="249" x="1110.5" y="702.916">videoStopped(VideoRecorders.VideoInfo): void</text></a><!--class org.rcdukes.common.GraphDatabase--><rect fill="#FEFECE" filter="url(#f1ef8vf8lghvrq)" height="112.7754" id="org.rcdukes.common.GraphDatabase" style="stroke: #A80036; stroke-width: 1.5;" width="203" x="1464.5" y="251"/><ellipse cx="1516.25" cy="267" fill="#B4A7E5" rx="11" ry="11" style="stroke: #A80036; stroke-width: 1.0;"/><path d="M1512.1777,262.7651 L1512.1777,260.6069 L1519.5571,260.6069 L1519.5571,262.7651 L1517.0918,262.7651 L1517.0918,270.8418 L1519.5571,270.8418 L1519.5571,273 L1512.1777,273 L1512.1777,270.8418 L1514.6431,270.8418 L1514.6431,262.7651 Z "/><text fill="#000000" font-family="sans-serif" font-size="12" font-style="italic" lengthAdjust="spacingAndGlyphs" textLength="91" x="1536.75" y="271.5352">GraphDatabase</text><line style="stroke: #A80036; stroke-width: 1.5;" x1="1465.5" x2="1666.5" y1="283" y2="283"/><line style="stroke: #A80036; stroke-width: 1.5;" x1="1465.5" x2="1666.5" y1="291" y2="291"/><ellipse cx="1475.5" cy="302.9775" fill="#84BE84" rx="3" ry="3" style="stroke: #038048; stroke-width: 1.0;"/><text fill="#000000" font-family="sans-serif" font-size="11" font-style="italic" lengthAdjust="spacingAndGlyphs" textLength="141" x="1484.5" y="305.6348">g(): GraphTraversalSource</text><ellipse cx="1475.5" cy="315.9326" fill="#84BE84" rx="3" ry="3" style="stroke: #038048; stroke-width: 1.0;"/><text fill="#000000" font-family="sans-serif" font-size="11" font-style="italic" lengthAdjust="spacingAndGlyphs" textLength="128" x="1484.5" y="318.5898">writeGraph(String): void</text><ellipse cx="1475.5" cy="328.8877" fill="#84BE84" rx="3" ry="3" style="stroke: #038048; stroke-width: 1.0;"/><text fill="#000000" font-family="sans-serif" font-size="11" font-style="italic" lengthAdjust="spacingAndGlyphs" textLength="111" x="1484.5" y="331.5449">loadGraph(File): void</text><ellipse cx="1475.5" cy="341.8428" fill="#84BE84" rx="3" ry="3" style="stroke: #038048; stroke-width: 1.0;"/><text fill="#000000" font-family="sans-serif" font-size="11" font-style="italic" lengthAdjust="spacingAndGlyphs" textLength="177" x="1484.5" y="344.5">fromVertex(Vertex, Class&lt;T&gt;): T</text><ellipse cx="1475.5" cy="354.7979" fill="#84BE84" rx="3" ry="3" style="stroke: #038048; stroke-width: 1.0;"/><text fill="#000000" font-family="sans-serif" font-size="11" font-style="italic" lengthAdjust="spacingAndGlyphs" textLength="127" x="1484.5" y="357.4551">addVertex(Object): void</text><!--class org.rcdukes.common.DukesVerticle--><rect fill="#FEFECE" filter="url(#f1ef8vf8lghvrq)" height="48" id="org.rcdukes.common.DukesVerticle" style="stroke: #A80036; stroke-width: 1.5;" width="111" x="1702.5" y="283.5"/><ellipse cx="1717.5" cy="299.5" fill="#A9DCDF" rx="11" ry="11" style="stroke: #A80036; stroke-width: 1.0;"/><path d="M1717.6133,294.8481 L1716.4595,299.9199 L1718.7754,299.9199 Z M1716.1191,292.6069 L1719.1157,292.6069 L1722.4609,305 L1720.0122,305 L1719.2485,301.937 L1715.9697,301.937 L1715.2227,305 L1712.7739,305 Z "/><text fill="#000000" font-family="sans-serif" font-size="12" font-style="italic" lengthAdjust="spacingAndGlyphs" textLength="79" x="1731.5" y="304.0352">DukesVerticle</text><line style="stroke: #A80036; stroke-width: 1.5;" x1="1703.5" x2="1812.5" y1="315.5" y2="315.5"/><line style="stroke: #A80036; stroke-width: 1.5;" x1="1703.5" x2="1812.5" y1="323.5" y2="323.5"/><!--class org.rcdukes.common.TinkerPopDatabase--><rect fill="#FEFECE" filter="url(#f1ef8vf8lghvrq)" height="48" id="org.rcdukes.common.TinkerPopDatabase" style="stroke: #A80036; stroke-width: 1.5;" width="146" x="1849" y="283.5"/><ellipse cx="1864" cy="299.5" fill="#ADD1B2" rx="11" ry="11" style="stroke: #A80036; stroke-width: 1.0;"/><path d="M1866.9731,305.1431 Q1866.3921,305.4419 1865.7529,305.5913 Q1865.1138,305.7407 1864.4082,305.7407 Q1861.9014,305.7407 1860.5815,304.0889 Q1859.2617,302.437 1859.2617,299.3159 Q1859.2617,296.1865 1860.5815,294.5347 Q1861.9014,292.8828 1864.4082,292.8828 Q1865.1138,292.8828 1865.7612,293.0322 Q1866.4087,293.1816 1866.9731,293.4805 L1866.9731,296.2031 Q1866.3423,295.6221 1865.7488,295.3523 Q1865.1553,295.0825 1864.5244,295.0825 Q1863.1797,295.0825 1862.4949,296.1492 Q1861.8101,297.2158 1861.8101,299.3159 Q1861.8101,301.4077 1862.4949,302.4744 Q1863.1797,303.541 1864.5244,303.541 Q1865.1553,303.541 1865.7488,303.2712 Q1866.3423,303.0015 1866.9731,302.4204 Z "/><text fill="#000000" font-family="sans-serif" font-size="12" lengthAdjust="spacingAndGlyphs" textLength="114" x="1878" y="304.0352">TinkerPopDatabase</text><line style="stroke: #A80036; stroke-width: 1.5;" x1="1850" x2="1994" y1="315.5" y2="315.5"/><line style="stroke: #A80036; stroke-width: 1.5;" x1="1850" x2="1994" y1="323.5" y2="323.5"/><!--link org.rcdukes.common.GraphDatabase to org.rcdukes.action.Navigator--><path d="M1488.0032,239.769 C1477.7444,233.4884 1466.969,227.9936 1456,224 C1421.9225,211.5929 1328.5373,223.2327 1293,216 C1241.239,205.4653 1186.4865,187.4825 1138.1778,169.0745 " fill="none" id="org.rcdukes.common.GraphDatabase-org.rcdukes.action.Navigator" style="stroke: #A80036; stroke-width: 1.0; stroke-dasharray: 7.0,7.0;"/><polygon fill="none" points="1491.992,234.0154,1504.7232,250.9541,1484.2077,245.6518,1491.992,234.0154" style="stroke: #A80036; stroke-width: 1.0;"/><!--link org.rcdukes.common.DukesVerticle to org.rcdukes.action.ActionVerticle--><path d="M1730.0068,267.0173 C1717.7133,251.7377 1702.1646,235.3279 1685,224 C1610.8871,175.0888 1514.9039,145.051 1440.2519,127.5296 " fill="none" id="org.rcdukes.common.DukesVerticle-org.rcdukes.action.ActionVerticle" style="stroke: #A80036; stroke-width: 1.0;"/><polygon fill="none" points="1735.9537,263.2769,1742.4159,283.4571,1724.7796,271.7114,1735.9537,263.2769" style="stroke: #A80036; stroke-width: 1.0;"/><!--link org.rcdukes.common.TinkerPopDatabase to org.rcdukes.action.StraightLaneNavigator--><path d="M1875.6691,343.9996 C1861.7954,353.9044 1846.2133,364.0704 1831,372 C1705.5642,437.3805 1554.3461,490.4211 1439.7802,525.868 " fill="none" id="org.rcdukes.common.TinkerPopDatabase-org.rcdukes.action.StraightLaneNavigator" style="stroke: #A80036; stroke-width: 1.0;"/><polygon fill="none" points="1871.933,338.056,1892.1723,331.7812,1880.2635,349.3078,1871.933,338.056" style="stroke: #A80036; stroke-width: 1.0;"/><!--link org.rcdukes.action.Navigator to org.rcdukes.action.StraightLaneNavigator--><path d="M1040.6294,186.6981 C1080.9442,256.4681 1140.0366,358.735 1187.4585,440.8046 " fill="none" id="org.rcdukes.action.Navigator-org.rcdukes.action.StraightLaneNavigator" style="stroke: #A80036; stroke-width: 1.0; stroke-dasharray: 7.0,7.0;"/><polygon fill="none" points="1034.4935,190.0706,1030.5483,169.2514,1046.6154,183.0662,1034.4935,190.0706" style="stroke: #A80036; stroke-width: 1.0;"/><!--link org.rcdukes.action.Navigator to org.rcdukes.common.DukesVerticle--><path d="M1168.7257,164.7331 C1174.8692,166.2555 1180.9736,167.6851 1187,169 C1366.1994,208.1004 1414.5451,197.2514 1597,216 C1616.5333,218.0072 1667.5066,215.0803 1685,224 C1708.922,236.1975 1728.4436,259.8839 1741.2603,278.9228 " fill="none" id="org.rcdukes.action.Navigator-org.rcdukes.common.DukesVerticle" style="stroke: #A80036; stroke-width: 1.0;"/><polygon fill="#A80036" points="1744.0522,283.1559,1742.436,273.4405,1741.2993,278.982,1735.7578,277.8452,1744.0522,283.1559" style="stroke: #A80036; stroke-width: 1.0;"/><text fill="#000000" font-family="sans-serif" font-size="13" lengthAdjust="spacingAndGlyphs" textLength="42" x="1598" y="212.5684">sender</text><!--link org.rcdukes.action.StraightLaneNavigator to org.rcdukes.common.DukesVerticle--><path d="M1439.6441,503.5313 C1517.436,468.4765 1608.5479,422.851 1685,372 C1700.9517,361.3899 1717.0802,347.5401 1730.1055,335.3953 " fill="none" id="org.rcdukes.action.StraightLaneNavigator-org.rcdukes.common.DukesVerticle" style="stroke: #A80036; stroke-width: 1.0;"/><polygon fill="#A80036" points="1734.0445,331.6864,1724.75,334.944,1730.4043,335.1141,1730.2342,340.7683,1734.0445,331.6864" style="stroke: #A80036; stroke-width: 1.0;"/><text fill="#000000" font-family="sans-serif" font-size="13" lengthAdjust="spacingAndGlyphs" textLength="42" x="1643" y="407.5684">sender</text><!--link org.rcdukes.action.TestMiniPID to org.rcdukes.action.TestAction--><!--link org.rcdukes.action.TestAction to org.rcdukes.action.TestStraightLaneNavigator--><!--link org.rcdukes.action.TestMiniPID to org.rcdukes.action.TestSuite--><!--link org.rcdukes.action.TestSuite to org.rcdukes.action.StartLightObserver--><!--link org.rcdukes.action.StartLightObserver to org.rcdukes.action.StoppingZoneDetector--><text fill="#888888" font-family="sans-serif" font-size="10" lengthAdjust="spacingAndGlyphs" textLength="182" x="923.5" y="744.668">UMLDoclet 1.1.4, PlantUML 1.2019.05</text><!--
@startuml

    namespace org.rcdukes.action {

        class TestMiniPID [[TestMiniPID.html]] {
            +testMiniPID(): void
            +testMain(): void
            {static} +redirectStdErr(): void
            {static} +restoreStdErr(): String
        }

        class TestAction [[TestAction.html]] {
            {static} +debug: boolean
            +check(JsonObject, String[]): void
            +testAction(): void
        }

        class TestStraightLaneNavigator [[TestStraightLaneNavigator.html]] {
            {static} +debug: boolean
            {static} +setUp(): void
            +getLdr(int, int, Double, Double, Double): LaneDetectionResult
            +testStraightLaneNavigator(): void
            +testFromJson(): void
            +testFromVideo(): void
        }

        class TestSuite [[TestSuite.html]] {
            {static} +debug: boolean
            {static} +isTravis(): boolean
        }

        interface Navigator [[Navigator.html]] {
            {abstract} +fromJsonObject(JsonObject): LaneDetectionResult
            {abstract} +getNavigationInstruction(LaneDetectionResult): JsonObject
            {abstract} +navigateWithInstruction(JsonObject): void
            {abstract} +navigateWithMessage(Message<JsonObject>): void
            {abstract} +navigateWithLaneDetectionResult(LaneDetectionResult): void
            {abstract} +videoStopped(VideoRecorders.VideoInfo): void
        }

        class StartLightObserver [[StartLightObserver.html]] {
            +observe(JsonObject): Observable<JsonObject>
        }

        class ActionVerticle [[ActionVerticle.html]] {
            +start(): void
            {static} +emergencyStopCommand(): JsonObject
        }

        class StoppingZoneDetector [[StoppingZoneDetector.html]] {
            +detect(JsonObject): Observable<JsonObject>
        }

        class StraightLaneNavigator [[StraightLaneNavigator.html]] {
            {static} +COMMAND_LOOP_INTERVAL: int
            {static} +MAX_DURATION_NO_LINES_DETECTED: int
            {static} +DEFAULT_TIME_WINDOW: int
            {static} #LOG: Logger
            +StraightLaneNavigator()
            +StraightLaneNavigator(int)
            +addToGraph(LaneDetectionResult): Vertex
            +fromJsonObject(JsonObject): LaneDetectionResult
            +cmdOk(StraightLaneNavigator.AngleRange, int): boolean
            +setTime(LaneDetectionResult): void
            +analyzeAngleRanges(int, boolean): void
            +getNavigationInstruction(LaneDetectionResult): JsonObject
            +steerCommand(Double): JsonObject
            +navigateWithInstruction(JsonObject): void
            +navigateWithMessage(Message<JsonObject>): void
            +navigateWithLaneDetectionResult(LaneDetectionResult): void
            +videoStopped(VideoRecorders.VideoInfo): void
        }

        interface org.rcdukes.common.GraphDatabase {
            {abstract} +g(): GraphTraversalSource
            {abstract} +writeGraph(String): void
            {abstract} +loadGraph(File): void
            {abstract} +fromVertex(Vertex, Class<T>): T
            {abstract} +addVertex(Object): void
        }
        org.rcdukes.common.GraphDatabase <|.. Navigator

        abstract class org.rcdukes.common.DukesVerticle
        org.rcdukes.common.DukesVerticle <|- - ActionVerticle

        class org.rcdukes.common.TinkerPopDatabase
        org.rcdukes.common.TinkerPopDatabase <|- - StraightLaneNavigator

        Navigator <|.. StraightLaneNavigator

        Navigator - -> org.rcdukes.common.DukesVerticle: sender

        StraightLaneNavigator - -> org.rcdukes.common.DukesVerticle: sender

    }


    center footer UMLDoclet 1.1.4, PlantUML 1.2019.05
@enduml

PlantUML version 1.2019.05(Sat Apr 20 18:45:36 CEST 2019)
(APACHE source distribution)
Java Runtime: Java(TM) SE Runtime Environment
JVM: Java HotSpot(TM) 64-Bit Server VM
Java Version: 1.8.0_152-b16
Operating System: Mac OS X
OS Version: 10.13.6
Default Encoding: UTF-8
Language: de
Country: DE
--></g></svg>