<?xml version="1.0" encoding="UTF-8" standalone="no"?><svg xmlns="http://www.w3.org/2000/svg" xmlns:xlink="http://www.w3.org/1999/xlink" contentScriptType="application/ecmascript" contentStyleType="text/css" height="141px" preserveAspectRatio="none" style="width:194px;height:141px;" version="1.1" viewBox="0 0 194 141" width="194px" zoomAndPan="magnify"><defs><filter height="300%" id="f101oehgwf1f97" width="300%" x="-1" y="-1"><feGaussianBlur result="blurOut" stdDeviation="2.0"/><feColorMatrix in="blurOut" result="blurOut2" type="matrix" values="0 0 0 0 0 0 0 0 0 0 0 0 0 0 0 0 0 0 .4 0"/><feOffset dx="4.0" dy="4.0" in="blurOut2" result="blurOut3"/><feBlend in="SourceGraphic" in2="blurOut3" mode="normal"/></filter></defs><g><!--class TestMiniPID--><a href="TestMiniPID.html" target="_top" xlink:actuate="onRequest" xlink:show="new" xlink:title="TestMiniPID.html" xlink:type="simple"><rect fill="#FEFECE" filter="url(#f101oehgwf1f97)" height="99.8203" id="TestMiniPID" style="stroke: #A80036; stroke-width: 1.5;" width="144" x="13" y="8"/><ellipse cx="48.25" cy="24" fill="#ADD1B2" rx="11" ry="11" style="stroke: #A80036; stroke-width: 1.0;"/><path d="M51.2231,29.6431 Q50.6421,29.9419 50.0029,30.0913 Q49.3638,30.2407 48.6582,30.2407 Q46.1514,30.2407 44.8315,28.5889 Q43.5117,26.937 43.5117,23.8159 Q43.5117,20.6865 44.8315,19.0347 Q46.1514,17.3828 48.6582,17.3828 Q49.3638,17.3828 50.0112,17.5322 Q50.6587,17.6816 51.2231,17.9805 L51.2231,20.7031 Q50.5923,20.1221 49.9988,19.8523 Q49.4053,19.5825 48.7744,19.5825 Q47.4297,19.5825 46.7449,20.6492 Q46.0601,21.7158 46.0601,23.8159 Q46.0601,25.9077 46.7449,26.9744 Q47.4297,28.041 48.7744,28.041 Q49.4053,28.041 49.9988,27.7712 Q50.5923,27.5015 51.2231,26.9204 Z "/><text fill="#000000" font-family="sans-serif" font-size="12" lengthAdjust="spacingAndGlyphs" textLength="67" x="66.75" y="28.5352">TestMiniPID</text><line style="stroke: #A80036; stroke-width: 1.5;" x1="14" x2="156" y1="40" y2="40"/><line style="stroke: #A80036; stroke-width: 1.5;" x1="14" x2="156" y1="48" y2="48"/><ellipse cx="24" cy="59.9775" fill="#84BE84" rx="3" ry="3" style="stroke: #038048; stroke-width: 1.0;"/><text fill="#000000" font-family="sans-serif" font-size="11" lengthAdjust="spacingAndGlyphs" textLength="96" x="33" y="62.6348">testMiniPID(): void</text><ellipse cx="24" cy="72.9326" fill="#84BE84" rx="3" ry="3" style="stroke: #038048; stroke-width: 1.0;"/><text fill="#000000" font-family="sans-serif" font-size="11" lengthAdjust="spacingAndGlyphs" textLength="82" x="33" y="75.5898">testMain(): void</text><ellipse cx="24" cy="85.8877" fill="#84BE84" rx="3" ry="3" style="stroke: #038048; stroke-width: 1.0;"/><text fill="#000000" font-family="sans-serif" font-size="11" lengthAdjust="spacingAndGlyphs" text-decoration="underline" textLength="112" x="33" y="88.5449">redirectStdErr(): void</text><ellipse cx="24" cy="98.8428" fill="#84BE84" rx="3" ry="3" style="stroke: #038048; stroke-width: 1.0;"/><text fill="#000000" font-family="sans-serif" font-size="11" lengthAdjust="spacingAndGlyphs" text-decoration="underline" textLength="118" x="33" y="101.5">restoreStdErr(): String</text></a><text fill="#888888" font-family="sans-serif" font-size="10" lengthAdjust="spacingAndGlyphs" textLength="182" x="0" y="127.668">UMLDoclet 1.1.4, PlantUML 1.2019.05</text><!--
@startuml

    class TestMiniPID [[TestMiniPID.html]] {
        +testMiniPID(): void
        +testMain(): void
        {static} +redirectStdErr(): void
        {static} +restoreStdErr(): String
    }


    center footer UMLDoclet 1.1.4, PlantUML 1.2019.05
@enduml

PlantUML version 1.2019.05(Sat Apr 20 18:45:36 CEST 2019)
(APACHE source distribution)
Java Runtime: Java(TM) SE Runtime Environment
JVM: Java HotSpot(TM) 64-Bit Server VM
Java Version: 1.8.0_152-b16
Operating System: Mac OS X
OS Version: 10.13.6
Default Encoding: UTF-8
Language: de
Country: DE
--></g></svg>