<?xml version="1.0" encoding="UTF-8" standalone="no"?><svg xmlns="http://www.w3.org/2000/svg" xmlns:xlink="http://www.w3.org/1999/xlink" contentScriptType="application/ecmascript" contentStyleType="text/css" height="141px" preserveAspectRatio="none" style="width:194px;height:141px;" version="1.1" viewBox="0 0 194 141" width="194px" zoomAndPan="magnify"><defs><filter height="300%" id="f1o8z556gqvqv4" width="300%" x="-1" y="-1"><feGaussianBlur result="blurOut" stdDeviation="2.0"/><feColorMatrix in="blurOut" result="blurOut2" type="matrix" values="0 0 0 0 0 0 0 0 0 0 0 0 0 0 0 0 0 0 .4 0"/><feOffset dx="4.0" dy="4.0" in="blurOut2" result="blurOut3"/><feBlend in="SourceGraphic" in2="blurOut3" mode="normal"/></filter></defs><g><!--class TestROI--><a href="TestROI.html" target="_top" xlink:actuate="onRequest" xlink:show="new" xlink:title="TestROI.html" xlink:type="simple"><rect fill="#FEFECE" filter="url(#f1o8z556gqvqv4)" height="99.8203" id="TestROI" style="stroke: #A80036; stroke-width: 1.5;" width="154" x="8" y="8"/><ellipse cx="58.25" cy="24" fill="#ADD1B2" rx="11" ry="11" style="stroke: #A80036; stroke-width: 1.0;"/><path d="M61.2231,29.6431 Q60.6421,29.9419 60.0029,30.0913 Q59.3638,30.2407 58.6582,30.2407 Q56.1514,30.2407 54.8315,28.5889 Q53.5117,26.937 53.5117,23.8159 Q53.5117,20.6865 54.8315,19.0347 Q56.1514,17.3828 58.6582,17.3828 Q59.3638,17.3828 60.0112,17.5322 Q60.6587,17.6816 61.2231,17.9805 L61.2231,20.7031 Q60.5923,20.1221 59.9988,19.8523 Q59.4053,19.5825 58.7744,19.5825 Q57.4297,19.5825 56.7449,20.6492 Q56.0601,21.7158 56.0601,23.8159 Q56.0601,25.9077 56.7449,26.9744 Q57.4297,28.041 58.7744,28.041 Q59.4053,28.041 59.9988,27.7712 Q60.5923,27.5015 61.2231,26.9204 Z "/><text fill="#000000" font-family="sans-serif" font-size="12" lengthAdjust="spacingAndGlyphs" textLength="45" x="78.75" y="28.5352">TestROI</text><line style="stroke: #A80036; stroke-width: 1.5;" x1="9" x2="161" y1="40" y2="40"/><ellipse cx="19" cy="51.9775" fill="none" rx="3" ry="3" style="stroke: #038048; stroke-width: 1.0;"/><text fill="#000000" font-family="sans-serif" font-size="11" lengthAdjust="spacingAndGlyphs" text-decoration="underline" textLength="83" x="28" y="54.6348">debug: boolean</text><line style="stroke: #A80036; stroke-width: 1.5;" x1="9" x2="161" y1="60.9551" y2="60.9551"/><ellipse cx="19" cy="72.9326" fill="#84BE84" rx="3" ry="3" style="stroke: #038048; stroke-width: 1.0;"/><text fill="#000000" font-family="sans-serif" font-size="11" lengthAdjust="spacingAndGlyphs" textLength="99" x="28" y="75.5898">isTravis(): boolean</text><ellipse cx="19" cy="85.8877" fill="#84BE84" rx="3" ry="3" style="stroke: #038048; stroke-width: 1.0;"/><text fill="#000000" font-family="sans-serif" font-size="11" lengthAdjust="spacingAndGlyphs" textLength="128" x="28" y="88.5449">testNativeLibrary(): void</text><ellipse cx="19" cy="98.8428" fill="#84BE84" rx="3" ry="3" style="stroke: #038048; stroke-width: 1.0;"/><text fill="#000000" font-family="sans-serif" font-size="11" lengthAdjust="spacingAndGlyphs" textLength="76" x="28" y="101.5">testROI(): void</text></a><text fill="#888888" font-family="sans-serif" font-size="10" lengthAdjust="spacingAndGlyphs" textLength="182" x="0" y="127.668">UMLDoclet 1.1.4, PlantUML 1.2019.05</text><!--
@startuml

    class TestROI [[TestROI.html]] {
        {static} +debug: boolean
        +isTravis(): boolean
        +testNativeLibrary(): void
        +testROI(): void
    }


    center footer UMLDoclet 1.1.4, PlantUML 1.2019.05
@enduml

PlantUML version 1.2019.05(Sat Apr 20 18:45:36 CEST 2019)
(APACHE source distribution)
Java Runtime: Java(TM) SE Runtime Environment
JVM: Java HotSpot(TM) 64-Bit Server VM
Java Version: 1.8.0_191-b12
Operating System: Mac OS X
OS Version: 10.13.6
Default Encoding: UTF-8
Language: de
Country: DE
--></g></svg>