<?xml version="1.0" encoding="UTF-8" standalone="no"?><svg xmlns="http://www.w3.org/2000/svg" xmlns:xlink="http://www.w3.org/1999/xlink" contentScriptType="application/ecmascript" contentStyleType="text/css" height="1598px" preserveAspectRatio="none" style="width:701px;height:1598px;" version="1.1" viewBox="0 0 701 1598" width="701px" zoomAndPan="magnify"><defs><filter height="300%" id="f1n7o2agwpdsbn" width="300%" x="-1" y="-1"><feGaussianBlur result="blurOut" stdDeviation="2.0"/><feColorMatrix in="blurOut" result="blurOut2" type="matrix" values="0 0 0 0 0 0 0 0 0 0 0 0 0 0 0 0 0 0 .4 0"/><feOffset dx="4.0" dy="4.0" in="blurOut2" result="blurOut3"/><feBlend in="SourceGraphic" in2="blurOut3" mode="normal"/></filter></defs><g><!--cluster org.rcdukes.geometry--><polygon fill="#FFFFFF" filter="url(#f1n7o2agwpdsbn)" points="160,16,320,16,327,38.4883,679,38.4883,679,1557,160,1557,160,16" style="stroke: #000000; stroke-width: 1.5;"/><line style="stroke: #000000; stroke-width: 1.5;" x1="160" x2="327" y1="38.4883" y2="38.4883"/><text fill="#000000" font-family="sans-serif" font-size="14" font-weight="bold" lengthAdjust="spacingAndGlyphs" textLength="154" x="164" y="31.5352">org.rcdukes.geometry</text><!--cluster java.lang--><polygon fill="#FFFFFF" filter="url(#f1n7o2agwpdsbn)" points="14,1145,83,1145,90,1167.4883,152,1167.4883,152,1241,14,1241,14,1145" style="stroke: #000000; stroke-width: 1.5;"/><line style="stroke: #000000; stroke-width: 1.5;" x1="14" x2="90" y1="1167.4883" y2="1167.4883"/><text fill="#000000" font-family="sans-serif" font-size="14" font-weight="bold" lengthAdjust="spacingAndGlyphs" textLength="63" x="18" y="1160.5352">java.lang</text><!--class org.rcdukes.geometry.Line--><a href="Line.html" target="_top" xlink:actuate="onRequest" xlink:show="new" xlink:title="Line.html" xlink:type="simple"><rect fill="#FEFECE" filter="url(#f1n7o2agwpdsbn)" height="384.832" id="org.rcdukes.geometry.Line" style="stroke: #A80036; stroke-width: 1.5;" width="258" x="413" y="426"/><ellipse cx="526.25" cy="442" fill="#ADD1B2" rx="11" ry="11" style="stroke: #A80036; stroke-width: 1.0;"/><path d="M529.2231,447.6431 Q528.6421,447.9419 528.0029,448.0913 Q527.3638,448.2407 526.6582,448.2407 Q524.1514,448.2407 522.8315,446.5889 Q521.5117,444.937 521.5117,441.8159 Q521.5117,438.6865 522.8315,437.0347 Q524.1514,435.3828 526.6582,435.3828 Q527.3638,435.3828 528.0112,435.5322 Q528.6587,435.6816 529.2231,435.9805 L529.2231,438.7031 Q528.5923,438.1221 527.9988,437.8523 Q527.4053,437.5825 526.7744,437.5825 Q525.4297,437.5825 524.7449,438.6492 Q524.0601,439.7158 524.0601,441.8159 Q524.0601,443.9077 524.7449,444.9744 Q525.4297,446.041 526.7744,446.041 Q527.4053,446.041 527.9988,445.7712 Q528.5923,445.5015 529.2231,444.9204 Z "/><text fill="#000000" font-family="sans-serif" font-size="12" lengthAdjust="spacingAndGlyphs" textLength="23" x="546.75" y="446.5352">Line</text><line style="stroke: #A80036; stroke-width: 1.5;" x1="414" x2="670" y1="458" y2="458"/><line style="stroke: #A80036; stroke-width: 1.5;" x1="414" x2="670" y1="466" y2="466"/><ellipse cx="424" cy="477.9775" fill="#84BE84" rx="3" ry="3" style="stroke: #038048; stroke-width: 1.0;"/><text fill="#000000" font-family="sans-serif" font-size="11" lengthAdjust="spacingAndGlyphs" textLength="30" x="433" y="480.6348">Line()</text><ellipse cx="424" cy="490.9326" fill="#84BE84" rx="3" ry="3" style="stroke: #038048; stroke-width: 1.0;"/><text fill="#000000" font-family="sans-serif" font-size="11" lengthAdjust="spacingAndGlyphs" textLength="75" x="433" y="493.5898">Line(double[])</text><ellipse cx="424" cy="503.8877" fill="#84BE84" rx="3" ry="3" style="stroke: #038048; stroke-width: 1.0;"/><text fill="#000000" font-family="sans-serif" font-size="11" lengthAdjust="spacingAndGlyphs" textLength="90" x="433" y="506.5449">Line(Point, Point)</text><ellipse cx="424" cy="516.8428" fill="#84BE84" rx="3" ry="3" style="stroke: #038048; stroke-width: 1.0;"/><text fill="#000000" font-family="sans-serif" font-size="11" lengthAdjust="spacingAndGlyphs" textLength="120" x="433" y="519.5">Line(Point2D, Point2D)</text><ellipse cx="424" cy="529.7979" fill="#84BE84" rx="3" ry="3" style="stroke: #038048; stroke-width: 1.0;"/><text fill="#000000" font-family="sans-serif" font-size="11" lengthAdjust="spacingAndGlyphs" text-decoration="underline" textLength="232" x="433" y="532.4551">fromHough(boolean, int, int, double[]): Line</text><ellipse cx="424" cy="542.7529" fill="#84BE84" rx="3" ry="3" style="stroke: #038048; stroke-width: 1.0;"/><text fill="#000000" font-family="sans-serif" font-size="11" lengthAdjust="spacingAndGlyphs" textLength="114" x="433" y="545.4102">init(Point, Point): void</text><ellipse cx="424" cy="555.708" fill="#84BE84" rx="3" ry="3" style="stroke: #038048; stroke-width: 1.0;"/><text fill="#000000" font-family="sans-serif" font-size="11" lengthAdjust="spacingAndGlyphs" textLength="85" x="433" y="558.3652">length(): double</text><ellipse cx="424" cy="568.6631" fill="#84BE84" rx="3" ry="3" style="stroke: #038048; stroke-width: 1.0;"/><text fill="#000000" font-family="sans-serif" font-size="11" lengthAdjust="spacingAndGlyphs" textLength="100" x="433" y="571.3203">angleRad(): double</text><ellipse cx="424" cy="581.6182" fill="#84BE84" rx="3" ry="3" style="stroke: #038048; stroke-width: 1.0;"/><text fill="#000000" font-family="sans-serif" font-size="11" lengthAdjust="spacingAndGlyphs" textLength="101" x="433" y="584.2754">angleDeg(): double</text><ellipse cx="424" cy="594.5732" fill="#84BE84" rx="3" ry="3" style="stroke: #038048; stroke-width: 1.0;"/><text fill="#000000" font-family="sans-serif" font-size="11" lengthAdjust="spacingAndGlyphs" textLength="115" x="433" y="597.2305">angleDeg90(): double</text><ellipse cx="424" cy="607.5283" fill="#84BE84" rx="3" ry="3" style="stroke: #038048; stroke-width: 1.0;"/><text fill="#000000" font-family="sans-serif" font-size="11" lengthAdjust="spacingAndGlyphs" text-decoration="underline" textLength="108" x="433" y="610.1855">average(Line[]): Line</text><ellipse cx="424" cy="620.4834" fill="#84BE84" rx="3" ry="3" style="stroke: #038048; stroke-width: 1.0;"/><text fill="#000000" font-family="sans-serif" font-size="11" lengthAdjust="spacingAndGlyphs" text-decoration="underline" textLength="172" x="433" y="623.1406">average(Collection&lt;Line&gt;): Line</text><ellipse cx="424" cy="633.4385" fill="#84BE84" rx="3" ry="3" style="stroke: #038048; stroke-width: 1.0;"/><text fill="#000000" font-family="sans-serif" font-size="11" lengthAdjust="spacingAndGlyphs" textLength="163" x="433" y="636.0957">isLeftOfLine(Point2D): boolean</text><ellipse cx="424" cy="646.3936" fill="#84BE84" rx="3" ry="3" style="stroke: #038048; stroke-width: 1.0;"/><text fill="#000000" font-family="sans-serif" font-size="11" lengthAdjust="spacingAndGlyphs" textLength="171" x="433" y="649.0508">isRightOfLine(Point2D): boolean</text><ellipse cx="424" cy="659.3486" fill="#84BE84" rx="3" ry="3" style="stroke: #038048; stroke-width: 1.0;"/><text fill="#000000" font-family="sans-serif" font-size="11" lengthAdjust="spacingAndGlyphs" textLength="169" x="433" y="662.0059">existsOnLine(Point2D): boolean</text><ellipse cx="424" cy="672.3037" fill="#84BE84" rx="3" ry="3" style="stroke: #038048; stroke-width: 1.0;"/><text fill="#000000" font-family="sans-serif" font-size="11" lengthAdjust="spacingAndGlyphs" textLength="121" x="433" y="674.9609">bottomMost(): Point2D</text><ellipse cx="424" cy="685.2588" fill="#84BE84" rx="3" ry="3" style="stroke: #038048; stroke-width: 1.0;"/><text fill="#000000" font-family="sans-serif" font-size="11" lengthAdjust="spacingAndGlyphs" textLength="99" x="433" y="687.916">leftMost(): Point2D</text><ellipse cx="424" cy="698.2139" fill="#84BE84" rx="3" ry="3" style="stroke: #038048; stroke-width: 1.0;"/><text fill="#000000" font-family="sans-serif" font-size="11" lengthAdjust="spacingAndGlyphs" textLength="108" x="433" y="700.8711">rightMost(): Point2D</text><ellipse cx="424" cy="711.1689" fill="#84BE84" rx="3" ry="3" style="stroke: #038048; stroke-width: 1.0;"/><text fill="#000000" font-family="sans-serif" font-size="11" lengthAdjust="spacingAndGlyphs" textLength="100" x="433" y="713.8262">topMost(): Point2D</text><ellipse cx="424" cy="724.124" fill="#84BE84" rx="3" ry="3" style="stroke: #038048; stroke-width: 1.0;"/><text fill="#000000" font-family="sans-serif" font-size="11" lengthAdjust="spacingAndGlyphs" textLength="133" x="433" y="726.7813">pointAt(double): Point2D</text><ellipse cx="424" cy="737.0791" fill="#84BE84" rx="3" ry="3" style="stroke: #038048; stroke-width: 1.0;"/><text fill="#000000" font-family="sans-serif" font-size="11" lengthAdjust="spacingAndGlyphs" textLength="80" x="433" y="739.7363">width(): double</text><ellipse cx="424" cy="750.0342" fill="#84BE84" rx="3" ry="3" style="stroke: #038048; stroke-width: 1.0;"/><text fill="#000000" font-family="sans-serif" font-size="11" lengthAdjust="spacingAndGlyphs" textLength="85" x="433" y="752.6914">height(): double</text><ellipse cx="424" cy="762.9893" fill="#84BE84" rx="3" ry="3" style="stroke: #038048; stroke-width: 1.0;"/><text fill="#000000" font-family="sans-serif" font-size="11" lengthAdjust="spacingAndGlyphs" text-decoration="underline" textLength="145" x="433" y="765.6465">angleString(Double): String</text><ellipse cx="424" cy="775.9443" fill="#84BE84" rx="3" ry="3" style="stroke: #038048; stroke-width: 1.0;"/><text fill="#000000" font-family="sans-serif" font-size="11" lengthAdjust="spacingAndGlyphs" text-decoration="underline" textLength="150" x="433" y="778.6016">lineAngleString(Line): String</text><ellipse cx="424" cy="788.8994" fill="#84BE84" rx="3" ry="3" style="stroke: #038048; stroke-width: 1.0;"/><text fill="#000000" font-family="sans-serif" font-size="11" lengthAdjust="spacingAndGlyphs" textLength="189" x="433" y="791.5566">intersect(Line): Optional&lt;Point2D&gt;</text><ellipse cx="424" cy="801.8545" fill="#84BE84" rx="3" ry="3" style="stroke: #038048; stroke-width: 1.0;"/><text fill="#000000" font-family="sans-serif" font-size="11" lengthAdjust="spacingAndGlyphs" textLength="138" x="433" y="804.5117">distance(Point2D): double</text></a><!--class org.rcdukes.geometry.Line.Vector--><a href="Line.Vector.html" target="_top" xlink:actuate="onRequest" xlink:show="new" xlink:title="Line.Vector.html" xlink:type="simple"><rect fill="#FEFECE" filter="url(#f1n7o2agwpdsbn)" height="125.7305" id="org.rcdukes.geometry.Line.Vector" style="stroke: #A80036; stroke-width: 1.5;" width="214" x="456" y="980"/><ellipse cx="526.75" cy="996" fill="#ADD1B2" rx="11" ry="11" style="stroke: #A80036; stroke-width: 1.0;"/><path d="M529.7231,1001.6431 Q529.1421,1001.9419 528.5029,1002.0913 Q527.8638,1002.2407 527.1582,1002.2407 Q524.6514,1002.2407 523.3315,1000.5889 Q522.0117,998.937 522.0117,995.8159 Q522.0117,992.6865 523.3315,991.0347 Q524.6514,989.3828 527.1582,989.3828 Q527.8638,989.3828 528.5112,989.5322 Q529.1587,989.6816 529.7231,989.9805 L529.7231,992.7031 Q529.0923,992.1221 528.4988,991.8523 Q527.9053,991.5825 527.2744,991.5825 Q525.9297,991.5825 525.2449,992.6492 Q524.5601,993.7158 524.5601,995.8159 Q524.5601,997.9077 525.2449,998.9744 Q525.9297,1000.041 527.2744,1000.041 Q527.9053,1000.041 528.4988,999.7712 Q529.0923,999.5015 529.7231,998.9204 Z "/><text fill="#000000" font-family="sans-serif" font-size="12" lengthAdjust="spacingAndGlyphs" textLength="64" x="547.25" y="1000.5352">Line.Vector</text><line style="stroke: #A80036; stroke-width: 1.5;" x1="457" x2="669" y1="1012" y2="1012"/><line style="stroke: #A80036; stroke-width: 1.5;" x1="457" x2="669" y1="1020" y2="1020"/><ellipse cx="467" cy="1031.9775" fill="#84BE84" rx="3" ry="3" style="stroke: #038048; stroke-width: 1.0;"/><text fill="#000000" font-family="sans-serif" font-size="11" lengthAdjust="spacingAndGlyphs" textLength="123" x="476" y="1034.6348">Vector(double, double)</text><ellipse cx="467" cy="1044.9326" fill="#84BE84" rx="3" ry="3" style="stroke: #038048; stroke-width: 1.0;"/><text fill="#000000" font-family="sans-serif" font-size="11" lengthAdjust="spacingAndGlyphs" textLength="188" x="476" y="1047.5898">calculate(Point2D, double): Point2D</text><ellipse cx="467" cy="1057.8877" fill="#84BE84" rx="3" ry="3" style="stroke: #038048; stroke-width: 1.0;"/><text fill="#000000" font-family="sans-serif" font-size="11" lengthAdjust="spacingAndGlyphs" textLength="142" x="476" y="1060.5449">calculateX(double): double</text><ellipse cx="467" cy="1070.8428" fill="#84BE84" rx="3" ry="3" style="stroke: #038048; stroke-width: 1.0;"/><text fill="#000000" font-family="sans-serif" font-size="11" lengthAdjust="spacingAndGlyphs" textLength="142" x="476" y="1073.5">calculateY(double): double</text><ellipse cx="467" cy="1083.7979" fill="#84BE84" rx="3" ry="3" style="stroke: #038048; stroke-width: 1.0;"/><text fill="#000000" font-family="sans-serif" font-size="11" lengthAdjust="spacingAndGlyphs" text-decoration="underline" textLength="134" x="476" y="1086.4551">forY(double): Line.Vector</text><ellipse cx="467" cy="1096.7529" fill="#84BE84" rx="3" ry="3" style="stroke: #038048; stroke-width: 1.0;"/><text fill="#000000" font-family="sans-serif" font-size="11" lengthAdjust="spacingAndGlyphs" text-decoration="underline" textLength="134" x="476" y="1099.4102">forX(double): Line.Vector</text></a><!--class org.rcdukes.geometry.Lane--><a href="Lane.html" target="_top" xlink:actuate="onRequest" xlink:show="new" xlink:title="Lane.html" xlink:type="simple"><rect fill="#FEFECE" filter="url(#f1n7o2agwpdsbn)" height="60.9551" id="org.rcdukes.geometry.Lane" style="stroke: #A80036; stroke-width: 1.5;" width="237" x="427.5" y="127"/><ellipse cx="528.25" cy="143" fill="#ADD1B2" rx="11" ry="11" style="stroke: #A80036; stroke-width: 1.0;"/><path d="M531.2231,148.6431 Q530.6421,148.9419 530.0029,149.0913 Q529.3638,149.2407 528.6582,149.2407 Q526.1514,149.2407 524.8315,147.5889 Q523.5117,145.937 523.5117,142.8159 Q523.5117,139.6865 524.8315,138.0347 Q526.1514,136.3828 528.6582,136.3828 Q529.3638,136.3828 530.0112,136.5322 Q530.6587,136.6816 531.2231,136.9805 L531.2231,139.7031 Q530.5923,139.1221 529.9988,138.8523 Q529.4053,138.5825 528.7744,138.5825 Q527.4297,138.5825 526.7449,139.6492 Q526.0601,140.7158 526.0601,142.8159 Q526.0601,144.9077 526.7449,145.9744 Q527.4297,147.041 528.7744,147.041 Q529.4053,147.041 529.9988,146.7712 Q530.5923,146.5015 531.2231,145.9204 Z "/><text fill="#000000" font-family="sans-serif" font-size="12" lengthAdjust="spacingAndGlyphs" textLength="27" x="548.75" y="147.5352">Lane</text><line style="stroke: #A80036; stroke-width: 1.5;" x1="428.5" x2="663.5" y1="159" y2="159"/><line style="stroke: #A80036; stroke-width: 1.5;" x1="428.5" x2="663.5" y1="167" y2="167"/><ellipse cx="438.5" cy="178.9775" fill="#84BE84" rx="3" ry="3" style="stroke: #038048; stroke-width: 1.0;"/><text fill="#000000" font-family="sans-serif" font-size="11" lengthAdjust="spacingAndGlyphs" textLength="211" x="447.5" y="181.6348">Lane(Optional&lt;Line&gt;, Optional&lt;Line&gt;)</text></a><!--class org.rcdukes.geometry.Point--><a href="Point.html" target="_top" xlink:actuate="onRequest" xlink:show="new" xlink:title="Point.html" xlink:type="simple"><rect fill="#FEFECE" filter="url(#f1n7o2agwpdsbn)" height="255.2813" id="org.rcdukes.geometry.Point" style="stroke: #A80036; stroke-width: 1.5;" width="168" x="170" y="1294"/><ellipse cx="235.75" cy="1310" fill="#ADD1B2" rx="11" ry="11" style="stroke: #A80036; stroke-width: 1.0;"/><path d="M238.7231,1315.6431 Q238.1421,1315.9419 237.5029,1316.0913 Q236.8638,1316.2407 236.1582,1316.2407 Q233.6514,1316.2407 232.3315,1314.5889 Q231.0117,1312.937 231.0117,1309.8159 Q231.0117,1306.6865 232.3315,1305.0347 Q233.6514,1303.3828 236.1582,1303.3828 Q236.8638,1303.3828 237.5112,1303.5322 Q238.1587,1303.6816 238.7231,1303.9805 L238.7231,1306.7031 Q238.0923,1306.1221 237.4988,1305.8523 Q236.9053,1305.5825 236.2744,1305.5825 Q234.9297,1305.5825 234.2449,1306.6492 Q233.5601,1307.7158 233.5601,1309.8159 Q233.5601,1311.9077 234.2449,1312.9744 Q234.9297,1314.041 236.2744,1314.041 Q236.9053,1314.041 237.4988,1313.7712 Q238.0923,1313.5015 238.7231,1312.9204 Z "/><text fill="#000000" font-family="sans-serif" font-size="12" lengthAdjust="spacingAndGlyphs" textLength="28" x="256.25" y="1314.5352">Point</text><line style="stroke: #A80036; stroke-width: 1.5;" x1="171" x2="337" y1="1326" y2="1326"/><ellipse cx="181" cy="1337.9775" fill="none" rx="3" ry="3" style="stroke: #038048; stroke-width: 1.0;"/><text fill="#000000" font-family="sans-serif" font-size="11" lengthAdjust="spacingAndGlyphs" text-decoration="underline" textLength="27" x="190" y="1340.6348">X: int</text><ellipse cx="181" cy="1350.9326" fill="none" rx="3" ry="3" style="stroke: #038048; stroke-width: 1.0;"/><text fill="#000000" font-family="sans-serif" font-size="11" lengthAdjust="spacingAndGlyphs" text-decoration="underline" textLength="27" x="190" y="1353.5898">Y: int</text><ellipse cx="181" cy="1363.8877" fill="none" rx="3" ry="3" style="stroke: #038048; stroke-width: 1.0;"/><text fill="#000000" font-family="sans-serif" font-size="11" lengthAdjust="spacingAndGlyphs" text-decoration="underline" textLength="27" x="190" y="1366.5449">Z: int</text><line style="stroke: #A80036; stroke-width: 1.5;" x1="171" x2="337" y1="1372.8652" y2="1372.8652"/><ellipse cx="181" cy="1384.8428" fill="#84BE84" rx="3" ry="3" style="stroke: #038048; stroke-width: 1.0;"/><text fill="#000000" font-family="sans-serif" font-size="11" lengthAdjust="spacingAndGlyphs" textLength="35" x="190" y="1387.5">Point()</text><ellipse cx="181" cy="1397.7979" fill="#84BE84" rx="3" ry="3" style="stroke: #038048; stroke-width: 1.0;"/><text fill="#000000" font-family="sans-serif" font-size="11" lengthAdjust="spacingAndGlyphs" textLength="69" x="190" y="1400.4551">Point(int, int)</text><ellipse cx="181" cy="1410.7529" fill="#84BE84" rx="3" ry="3" style="stroke: #038048; stroke-width: 1.0;"/><text fill="#000000" font-family="sans-serif" font-size="11" lengthAdjust="spacingAndGlyphs" textLength="89" x="190" y="1413.4102">Point(long, long)</text><ellipse cx="181" cy="1423.708" fill="#84BE84" rx="3" ry="3" style="stroke: #038048; stroke-width: 1.0;"/><text fill="#000000" font-family="sans-serif" font-size="11" lengthAdjust="spacingAndGlyphs" textLength="81" x="190" y="1426.3652">Point(Double[])</text><ellipse cx="181" cy="1436.6631" fill="#84BE84" rx="3" ry="3" style="stroke: #038048; stroke-width: 1.0;"/><text fill="#000000" font-family="sans-serif" font-size="11" lengthAdjust="spacingAndGlyphs" textLength="142" x="190" y="1439.3203">distance(Double[]): double</text><ellipse cx="181" cy="1449.6182" fill="#84BE84" rx="3" ry="3" style="stroke: #038048; stroke-width: 1.0;"/><text fill="#000000" font-family="sans-serif" font-size="11" lengthAdjust="spacingAndGlyphs" textLength="138" x="190" y="1452.2754">distance(Point2D): double</text><ellipse cx="181" cy="1462.5732" fill="#84BE84" rx="3" ry="3" style="stroke: #038048; stroke-width: 1.0;"/><text fill="#000000" font-family="sans-serif" font-size="11" lengthAdjust="spacingAndGlyphs" textLength="127" x="190" y="1465.2305">valueStr(Double): String</text><ellipse cx="181" cy="1475.5283" fill="#84BE84" rx="3" ry="3" style="stroke: #038048; stroke-width: 1.0;"/><text fill="#000000" font-family="sans-serif" font-size="11" lengthAdjust="spacingAndGlyphs" textLength="75" x="190" y="1478.1855">getX(): double</text><ellipse cx="181" cy="1488.4834" fill="#84BE84" rx="3" ry="3" style="stroke: #038048; stroke-width: 1.0;"/><text fill="#000000" font-family="sans-serif" font-size="11" lengthAdjust="spacingAndGlyphs" textLength="97" x="190" y="1491.1406">setX(double): void</text><ellipse cx="181" cy="1501.4385" fill="#84BE84" rx="3" ry="3" style="stroke: #038048; stroke-width: 1.0;"/><text fill="#000000" font-family="sans-serif" font-size="11" lengthAdjust="spacingAndGlyphs" textLength="75" x="190" y="1504.0957">getY(): double</text><ellipse cx="181" cy="1514.3936" fill="#84BE84" rx="3" ry="3" style="stroke: #038048; stroke-width: 1.0;"/><text fill="#000000" font-family="sans-serif" font-size="11" lengthAdjust="spacingAndGlyphs" textLength="97" x="190" y="1517.0508">setY(double): void</text><ellipse cx="181" cy="1527.3486" fill="#84BE84" rx="3" ry="3" style="stroke: #038048; stroke-width: 1.0;"/><text fill="#000000" font-family="sans-serif" font-size="11" lengthAdjust="spacingAndGlyphs" textLength="98" x="190" y="1530.0059">setZ(Double): void</text><ellipse cx="181" cy="1540.3037" fill="#84BE84" rx="3" ry="3" style="stroke: #038048; stroke-width: 1.0;"/><text fill="#000000" font-family="sans-serif" font-size="11" lengthAdjust="spacingAndGlyphs" textLength="116" x="190" y="1542.9609">compareTo(Point): int</text></a><!--class org.rcdukes.geometry.Point2D--><a href="Point2D.html" target="_top" xlink:actuate="onRequest" xlink:show="new" xlink:title="Point2D.html" xlink:type="simple"><rect fill="#FEFECE" filter="url(#f1n7o2agwpdsbn)" height="86.8652" id="org.rcdukes.geometry.Point2D" style="stroke: #A80036; stroke-width: 1.5;" width="164" x="176" y="999.5"/><ellipse cx="231.25" cy="1015.5" fill="#B4A7E5" rx="11" ry="11" style="stroke: #A80036; stroke-width: 1.0;"/><path d="M227.1777,1011.2651 L227.1777,1009.1069 L234.5571,1009.1069 L234.5571,1011.2651 L232.0918,1011.2651 L232.0918,1019.3418 L234.5571,1019.3418 L234.5571,1021.5 L227.1777,1021.5 L227.1777,1019.3418 L229.6431,1019.3418 L229.6431,1011.2651 Z "/><text fill="#000000" font-family="sans-serif" font-size="12" font-style="italic" lengthAdjust="spacingAndGlyphs" textLength="45" x="251.75" y="1020.0352">Point2D</text><line style="stroke: #A80036; stroke-width: 1.5;" x1="177" x2="339" y1="1031.5" y2="1031.5"/><line style="stroke: #A80036; stroke-width: 1.5;" x1="177" x2="339" y1="1039.5" y2="1039.5"/><ellipse cx="187" cy="1051.4775" fill="#84BE84" rx="3" ry="3" style="stroke: #038048; stroke-width: 1.0;"/><text fill="#000000" font-family="sans-serif" font-size="11" font-style="italic" lengthAdjust="spacingAndGlyphs" textLength="75" x="196" y="1054.1348">getX(): double</text><ellipse cx="187" cy="1064.4326" fill="#84BE84" rx="3" ry="3" style="stroke: #038048; stroke-width: 1.0;"/><text fill="#000000" font-family="sans-serif" font-size="11" font-style="italic" lengthAdjust="spacingAndGlyphs" textLength="75" x="196" y="1067.0898">getY(): double</text><ellipse cx="187" cy="1077.3877" fill="#84BE84" rx="3" ry="3" style="stroke: #038048; stroke-width: 1.0;"/><text fill="#000000" font-family="sans-serif" font-size="11" font-style="italic" lengthAdjust="spacingAndGlyphs" textLength="138" x="196" y="1080.0449">distance(Point2D): double</text></a><!--class org.rcdukes.geometry.LaneDetectionResult--><a href="LaneDetectionResult.html" target="_top" xlink:actuate="onRequest" xlink:show="new" xlink:title="LaneDetectionResult.html" xlink:type="simple"><rect fill="#FEFECE" filter="url(#f1n7o2agwpdsbn)" height="229.3711" id="org.rcdukes.geometry.LaneDetectionResult" style="stroke: #A80036; stroke-width: 1.5;" width="224" x="168" y="43"/><ellipse cx="217.75" cy="59" fill="#ADD1B2" rx="11" ry="11" style="stroke: #A80036; stroke-width: 1.0;"/><path d="M220.7231,64.6431 Q220.1421,64.9419 219.5029,65.0913 Q218.8638,65.2407 218.1582,65.2407 Q215.6514,65.2407 214.3315,63.5889 Q213.0117,61.937 213.0117,58.8159 Q213.0117,55.6865 214.3315,54.0347 Q215.6514,52.3828 218.1582,52.3828 Q218.8638,52.3828 219.5112,52.5322 Q220.1587,52.6816 220.7231,52.9805 L220.7231,55.7031 Q220.0923,55.1221 219.4988,54.8523 Q218.9053,54.5825 218.2744,54.5825 Q216.9297,54.5825 216.2449,55.6492 Q215.5601,56.7158 215.5601,58.8159 Q215.5601,60.9077 216.2449,61.9744 Q216.9297,63.041 218.2744,63.041 Q218.9053,63.041 219.4988,62.7712 Q220.0923,62.5015 220.7231,61.9204 Z "/><text fill="#000000" font-family="sans-serif" font-size="12" lengthAdjust="spacingAndGlyphs" textLength="116" x="238.25" y="63.5352">LaneDetectionResult</text><line style="stroke: #A80036; stroke-width: 1.5;" x1="169" x2="391" y1="75" y2="75"/><ellipse cx="179" cy="86.9775" fill="none" rx="3" ry="3" style="stroke: #038048; stroke-width: 1.0;"/><text fill="#000000" font-family="sans-serif" font-size="11" lengthAdjust="spacingAndGlyphs" text-decoration="underline" textLength="105" x="188" y="89.6348">forceError: boolean</text><ellipse cx="179" cy="99.9326" fill="none" rx="3" ry="3" style="stroke: #038048; stroke-width: 1.0;"/><text fill="#000000" font-family="sans-serif" font-size="11" lengthAdjust="spacingAndGlyphs" textLength="61" x="188" y="102.5898">left: Double</text><ellipse cx="179" cy="112.8877" fill="none" rx="3" ry="3" style="stroke: #038048; stroke-width: 1.0;"/><text fill="#000000" font-family="sans-serif" font-size="11" lengthAdjust="spacingAndGlyphs" textLength="80" x="188" y="115.5449">middle: Double</text><ellipse cx="179" cy="125.8428" fill="none" rx="3" ry="3" style="stroke: #038048; stroke-width: 1.0;"/><text fill="#000000" font-family="sans-serif" font-size="11" lengthAdjust="spacingAndGlyphs" textLength="70" x="188" y="128.5">right: Double</text><ellipse cx="179" cy="138.7979" fill="none" rx="3" ry="3" style="stroke: #038048; stroke-width: 1.0;"/><text fill="#000000" font-family="sans-serif" font-size="11" lengthAdjust="spacingAndGlyphs" textLength="124" x="188" y="141.4551">distanceMiddle: Double</text><ellipse cx="179" cy="151.7529" fill="none" rx="3" ry="3" style="stroke: #038048; stroke-width: 1.0;"/><text fill="#000000" font-family="sans-serif" font-size="11" lengthAdjust="spacingAndGlyphs" textLength="109" x="188" y="154.4102">distanceLeft: Double</text><ellipse cx="179" cy="164.708" fill="none" rx="3" ry="3" style="stroke: #038048; stroke-width: 1.0;"/><text fill="#000000" font-family="sans-serif" font-size="11" lengthAdjust="spacingAndGlyphs" textLength="117" x="188" y="167.3652">distanceRight: Double</text><ellipse cx="179" cy="177.6631" fill="none" rx="3" ry="3" style="stroke: #038048; stroke-width: 1.0;"/><text fill="#000000" font-family="sans-serif" font-size="11" lengthAdjust="spacingAndGlyphs" textLength="179" x="188" y="180.3203">courseRelativeToHorizon: Double</text><ellipse cx="179" cy="190.6182" fill="none" rx="3" ry="3" style="stroke: #038048; stroke-width: 1.0;"/><text fill="#000000" font-family="sans-serif" font-size="11" lengthAdjust="spacingAndGlyphs" textLength="178" x="188" y="193.2754">distanceToStoppingZone: Double</text><ellipse cx="179" cy="203.5732" fill="none" rx="3" ry="3" style="stroke: #038048; stroke-width: 1.0;"/><text fill="#000000" font-family="sans-serif" font-size="11" lengthAdjust="spacingAndGlyphs" textLength="198" x="188" y="206.2305">distanceToStoppingZoneEnd: Double</text><ellipse cx="179" cy="216.5283" fill="none" rx="3" ry="3" style="stroke: #038048; stroke-width: 1.0;"/><text fill="#000000" font-family="sans-serif" font-size="11" lengthAdjust="spacingAndGlyphs" textLength="81" x="188" y="219.1855">frameIndex: int</text><ellipse cx="179" cy="229.4834" fill="none" rx="3" ry="3" style="stroke: #038048; stroke-width: 1.0;"/><text fill="#000000" font-family="sans-serif" font-size="11" lengthAdjust="spacingAndGlyphs" textLength="111" x="188" y="232.1406">milliTimeStamp: long</text><line style="stroke: #A80036; stroke-width: 1.5;" x1="169" x2="391" y1="238.4609" y2="238.4609"/><ellipse cx="179" cy="250.4385" fill="#84BE84" rx="3" ry="3" style="stroke: #038048; stroke-width: 1.0;"/><text fill="#000000" font-family="sans-serif" font-size="11" lengthAdjust="spacingAndGlyphs" textLength="96" x="188" y="253.0957">checkError(): void</text><ellipse cx="179" cy="263.3936" fill="#84BE84" rx="3" ry="3" style="stroke: #038048; stroke-width: 1.0;"/><text fill="#000000" font-family="sans-serif" font-size="11" lengthAdjust="spacingAndGlyphs" textLength="101" x="188" y="266.0508">debugInfo(): String</text></a><!--class org.rcdukes.geometry.Polygon--><a href="Polygon.html" target="_top" xlink:actuate="onRequest" xlink:show="new" xlink:title="Polygon.html" xlink:type="simple"><rect fill="#FEFECE" filter="url(#f1n7o2agwpdsbn)" height="138.6855" id="org.rcdukes.geometry.Polygon" style="stroke: #A80036; stroke-width: 1.5;" width="210" x="168" y="549"/><ellipse cx="246.75" cy="565" fill="#ADD1B2" rx="11" ry="11" style="stroke: #A80036; stroke-width: 1.0;"/><path d="M249.7231,570.6431 Q249.1421,570.9419 248.5029,571.0913 Q247.8638,571.2407 247.1582,571.2407 Q244.6514,571.2407 243.3315,569.5889 Q242.0117,567.937 242.0117,564.8159 Q242.0117,561.6865 243.3315,560.0347 Q244.6514,558.3828 247.1582,558.3828 Q247.8638,558.3828 248.5112,558.5322 Q249.1587,558.6816 249.7231,558.9805 L249.7231,561.7031 Q249.0923,561.1221 248.4988,560.8523 Q247.9053,560.5825 247.2744,560.5825 Q245.9297,560.5825 245.2449,561.6492 Q244.5601,562.7158 244.5601,564.8159 Q244.5601,566.9077 245.2449,567.9744 Q245.9297,569.041 247.2744,569.041 Q247.9053,569.041 248.4988,568.7712 Q249.0923,568.5015 249.7231,567.9204 Z "/><text fill="#000000" font-family="sans-serif" font-size="12" lengthAdjust="spacingAndGlyphs" textLength="44" x="267.25" y="569.5352">Polygon</text><line style="stroke: #A80036; stroke-width: 1.5;" x1="169" x2="377" y1="581" y2="581"/><ellipse cx="179" cy="592.9775" fill="none" rx="3" ry="3" style="stroke: #038048; stroke-width: 1.0;"/><text fill="#000000" font-family="sans-serif" font-size="11" lengthAdjust="spacingAndGlyphs" text-decoration="underline" textLength="83" x="188" y="595.6348">debug: boolean</text><line style="stroke: #A80036; stroke-width: 1.5;" x1="169" x2="377" y1="601.9551" y2="601.9551"/><ellipse cx="179" cy="613.9326" fill="#84BE84" rx="3" ry="3" style="stroke: #038048; stroke-width: 1.0;"/><text fill="#000000" font-family="sans-serif" font-size="11" lengthAdjust="spacingAndGlyphs" textLength="101" x="188" y="616.5898">Polygon(Point2D[])</text><ellipse cx="179" cy="626.8877" fill="#84BE84" rx="3" ry="3" style="stroke: #038048; stroke-width: 1.0;"/><text fill="#000000" font-family="sans-serif" font-size="11" lengthAdjust="spacingAndGlyphs" textLength="104" x="188" y="629.5449">init(Point2D[]): void</text><ellipse cx="179" cy="639.8428" fill="#84BE84" rx="3" ry="3" style="stroke: #038048; stroke-width: 1.0;"/><text fill="#000000" font-family="sans-serif" font-size="11" lengthAdjust="spacingAndGlyphs" text-decoration="underline" textLength="184" x="188" y="642.5">square(Point2D, Point2D): Polygon</text><ellipse cx="179" cy="652.7979" fill="#84BE84" rx="3" ry="3" style="stroke: #038048; stroke-width: 1.0;"/><text fill="#000000" font-family="sans-serif" font-size="11" lengthAdjust="spacingAndGlyphs" textLength="159" x="188" y="655.4551">intersect(Line): Set&lt;Point2D&gt;</text><ellipse cx="179" cy="665.7529" fill="#84BE84" rx="3" ry="3" style="stroke: #038048; stroke-width: 1.0;"/><text fill="#000000" font-family="sans-serif" font-size="11" lengthAdjust="spacingAndGlyphs" textLength="105" x="188" y="668.4102">edges(): List&lt;Line&gt;</text><ellipse cx="179" cy="678.708" fill="#84BE84" rx="3" ry="3" style="stroke: #038048; stroke-width: 1.0;"/><text fill="#000000" font-family="sans-serif" font-size="11" lengthAdjust="spacingAndGlyphs" textLength="98" x="188" y="681.3652">shoelace(): double</text></a><!--class java.lang.Comparable--><rect fill="#FEFECE" filter="url(#f1n7o2agwpdsbn)" height="60.9551" id="java.lang.Comparable" style="stroke: #A80036; stroke-width: 1.5;" width="122" x="22" y="1172"/><ellipse cx="40.15" cy="1188" fill="#B4A7E5" rx="11" ry="11" style="stroke: #A80036; stroke-width: 1.0;"/><path d="M36.0777,1183.7651 L36.0777,1181.6069 L43.4571,1181.6069 L43.4571,1183.7651 L40.9918,1183.7651 L40.9918,1191.8418 L43.4571,1191.8418 L43.4571,1194 L36.0777,1194 L36.0777,1191.8418 L38.5431,1191.8418 L38.5431,1183.7651 Z "/><text fill="#000000" font-family="sans-serif" font-size="12" font-style="italic" lengthAdjust="spacingAndGlyphs" textLength="71" x="54.85" y="1192.5352">Comparable</text><rect fill="#FFFFFF" height="16.1328" style="stroke: #000000; stroke-width: 1.0; stroke-dasharray: 2.0,2.0;" width="10" x="137" y="1169"/><text fill="#000000" font-family="sans-serif" font-size="12" font-style="italic" lengthAdjust="spacingAndGlyphs" textLength="8" x="138" y="1181.6016">T</text><line style="stroke: #A80036; stroke-width: 1.5;" x1="23" x2="143" y1="1204" y2="1204"/><line style="stroke: #A80036; stroke-width: 1.5;" x1="23" x2="143" y1="1212" y2="1212"/><ellipse cx="33" cy="1223.9775" fill="#84BE84" rx="3" ry="3" style="stroke: #038048; stroke-width: 1.0;"/><text fill="#000000" font-family="sans-serif" font-size="11" font-style="italic" lengthAdjust="spacingAndGlyphs" textLength="96" x="42" y="1226.6348">compareTo(T): int</text><!--link org.rcdukes.geometry.Line to org.rcdukes.geometry.Line.Vector--><path d="M552.2907,826.5187 C555.052,882.3378 557.8327,938.5473 559.8684,979.6967 " fill="none" id="org.rcdukes.geometry.Line-org.rcdukes.geometry.Line.Vector" style="stroke: #A80036; stroke-width: 1.0;"/><ellipse cx="551.9276" cy="819.1774" fill="#FFFFFF" rx="8" ry="8" style="stroke: #A80036; stroke-width: 1.0;"/><line style="stroke: #A80036; stroke-width: 1.0;" x1="552.3229" x2="551.5322" y1="827.1677" y2="811.1872"/><line style="stroke: #A80036; stroke-width: 1.0;" x1="543.9373" x2="559.9178" y1="819.5728" y2="818.7821"/><!--link org.rcdukes.geometry.Point2D to org.rcdukes.geometry.Point--><path d="M257.3254,1106.8368 C256.7871,1157.7681 256.016,1230.7391 255.3518,1293.5896 " fill="none" id="org.rcdukes.geometry.Point2D-org.rcdukes.geometry.Point" style="stroke: #A80036; stroke-width: 1.0; stroke-dasharray: 7.0,7.0;"/><polygon fill="none" points="250.3262,1106.7134,257.5372,1086.7885,264.3254,1106.8614,250.3262,1106.7134" style="stroke: #A80036; stroke-width: 1.0;"/><!--link java.lang.Comparable to org.rcdukes.geometry.Point--><path d="M119.5497,1249.3093 C134.3369,1268.2473 152.07,1290.958 169.7328,1313.5789 " fill="none" id="java.lang.Comparable-org.rcdukes.geometry.Point" style="stroke: #A80036; stroke-width: 1.0; stroke-dasharray: 7.0,7.0;"/><polygon fill="none" points="113.9288,1253.4847,107.1374,1233.4129,124.9635,1244.8686,113.9288,1253.4847" style="stroke: #A80036; stroke-width: 1.0;"/><!--link org.rcdukes.geometry.Line to org.rcdukes.geometry.Point2D--><path d="M487.9036,811.1611 C472.1778,849.049 452.4489,886.9456 428,919 C404.6668,949.5917 371.7589,975.9999 341.1039,996.4889 " fill="none" id="org.rcdukes.geometry.Line-org.rcdukes.geometry.Point2D" style="stroke: #A80036; stroke-width: 1.0;"/><polygon fill="#A80036" points="336.5988,999.4688,346.312,997.84,340.7691,996.7104,341.8987,991.1675,336.5988,999.4688" style="stroke: #A80036; stroke-width: 1.0;"/><text fill="#000000" font-family="sans-serif" font-size="13" lengthAdjust="spacingAndGlyphs" textLength="41" x="459" y="893.0684">point1</text><text fill="#000000" font-family="sans-serif" font-size="13" lengthAdjust="spacingAndGlyphs" textLength="41" x="459" y="908.3789">point2</text><!--link org.rcdukes.geometry.Lane to org.rcdukes.geometry.Line--><path d="M545.7345,188.1045 C545.3205,235.818 544.4882,331.7357 543.7142,420.935 " fill="none" id="org.rcdukes.geometry.Lane-org.rcdukes.geometry.Line" style="stroke: #A80036; stroke-width: 1.0;"/><polygon fill="#A80036" points="543.6704,425.9865,547.7487,417.0217,543.714,420.9867,539.749,416.952,543.6704,425.9865" style="stroke: #A80036; stroke-width: 1.0;"/><text fill="#000000" font-family="sans-serif" font-size="13" lengthAdjust="spacingAndGlyphs" textLength="79" x="549.5" y="346.5684">leftBoundary</text><text fill="#000000" font-family="sans-serif" font-size="13" lengthAdjust="spacingAndGlyphs" textLength="88" x="545" y="361.8789">rightBoundary</text><text fill="#000000" font-family="sans-serif" font-size="13" lengthAdjust="spacingAndGlyphs" textLength="24" x="519.2346" y="415.1269">0..1</text><!--link org.rcdukes.geometry.Polygon to org.rcdukes.geometry.Point2D--><path d="M270.5399,688.1222 C267.4961,774.2601 262.3912,918.7289 259.7308,994.0183 " fill="none" id="org.rcdukes.geometry.Polygon-org.rcdukes.geometry.Point2D" style="stroke: #A80036; stroke-width: 1.0;"/><polygon fill="#A80036" points="259.5435,999.3178,263.8591,990.4648,259.7202,994.3209,255.8641,990.1821,259.5435,999.3178" style="stroke: #A80036; stroke-width: 1.0;"/><text fill="#000000" font-family="sans-serif" font-size="13" lengthAdjust="spacingAndGlyphs" textLength="40" x="322" y="885.5684">points</text><text fill="#000000" font-family="sans-serif" font-size="13" lengthAdjust="spacingAndGlyphs" textLength="104" x="290" y="900.8789">pointsClockwise</text><text fill="#000000" font-family="sans-serif" font-size="13" lengthAdjust="spacingAndGlyphs" textLength="154" x="265" y="916.1895">pointsCounterClockwise</text><text fill="#000000" font-family="sans-serif" font-size="13" lengthAdjust="spacingAndGlyphs" textLength="6" x="253.3114" y="988.7645">*</text><text fill="#888888" font-family="sans-serif" font-size="10" lengthAdjust="spacingAndGlyphs" textLength="182" x="261.5" y="1584.668">UMLDoclet 1.1.4, PlantUML 1.2019.05</text><!--
@startuml

    namespace org.rcdukes.geometry {

        class Line [[Line.html]] {
            +Line()
            +Line(double[])
            +Line(Point, Point)
            +Line(Point2D, Point2D)
            {static} +fromHough(boolean, int, int, double[]): Line
            +init(Point, Point): void
            +length(): double
            +angleRad(): double
            +angleDeg(): double
            +angleDeg90(): double
            {static} +average(Line[]): Line
            {static} +average(Collection<Line>): Line
            +isLeftOfLine(Point2D): boolean
            +isRightOfLine(Point2D): boolean
            +existsOnLine(Point2D): boolean
            +bottomMost(): Point2D
            +leftMost(): Point2D
            +rightMost(): Point2D
            +topMost(): Point2D
            +pointAt(double): Point2D
            +width(): double
            +height(): double
            {static} +angleString(Double): String
            {static} +lineAngleString(Line): String
            +intersect(Line): Optional<Point2D>
            +distance(Point2D): double
        }

        class org.rcdukes.geometry.Line.Vector [[Line.Vector.html]] {
            +Vector(double, double)
            +calculate(Point2D, double): Point2D
            +calculateX(double): double
            +calculateY(double): double
            {static} +forY(double): Line.Vector
            {static} +forX(double): Line.Vector
        }

        class Lane [[Lane.html]] {
            +Lane(Optional<Line>, Optional<Line>)
        }

        class Point [[Point.html]] {
            {static} +X: int
            {static} +Y: int
            {static} +Z: int
            +Point()
            +Point(int, int)
            +Point(long, long)
            +Point(Double[])
            +distance(Double[]): double
            +distance(Point2D): double
            +valueStr(Double): String
            +getX(): double
            +setX(double): void
            +getY(): double
            +setY(double): void
            +setZ(Double): void
            +compareTo(Point): int
        }

        interface Point2D [[Point2D.html]] {
            {abstract} +getX(): double
            {abstract} +getY(): double
            {abstract} +distance(Point2D): double
        }

        class LaneDetectionResult [[LaneDetectionResult.html]] {
            {static} +forceError: boolean
            +left: Double
            +middle: Double
            +right: Double
            +distanceMiddle: Double
            +distanceLeft: Double
            +distanceRight: Double
            +courseRelativeToHorizon: Double
            +distanceToStoppingZone: Double
            +distanceToStoppingZoneEnd: Double
            +frameIndex: int
            +milliTimeStamp: long
            +checkError(): void
            +debugInfo(): String
        }

        class Polygon [[Polygon.html]] {
            {static} +debug: boolean
            +Polygon(Point2D[])
            +init(Point2D[]): void
            {static} +square(Point2D, Point2D): Polygon
            +intersect(Line): Set<Point2D>
            +edges(): List<Line>
            +shoelace(): double
        }

        Line +- - org.rcdukes.geometry.Line.Vector

        Point2D <|.. Point

        interface java.lang.Comparable<T> {
            {abstract} +compareTo(T): int
        }
        java.lang.Comparable <|.. Point

        Line - -> Point2D: point1\npoint2

        Lane - -> "0..1" Line: leftBoundary\nrightBoundary

        Polygon - -> "*" Point2D: points\npointsClockwise\npointsCounterClockwise

    }


    center footer UMLDoclet 1.1.4, PlantUML 1.2019.05
@enduml

PlantUML version 1.2019.05(Sat Apr 20 18:45:36 CEST 2019)
(APACHE source distribution)
Java Runtime: Java(TM) SE Runtime Environment
JVM: Java HotSpot(TM) 64-Bit Server VM
Java Version: 1.8.0_152-b16
Operating System: Mac OS X
OS Version: 10.13.6
Default Encoding: UTF-8
Language: de
Country: DE
--></g></svg>