<?xml version="1.0" encoding="UTF-8" standalone="no"?><svg xmlns="http://www.w3.org/2000/svg" xmlns:xlink="http://www.w3.org/1999/xlink" contentScriptType="application/ecmascript" contentStyleType="text/css" height="232px" preserveAspectRatio="none" style="width:332px;height:232px;" version="1.1" viewBox="0 0 332 232" width="332px" zoomAndPan="magnify"><defs><filter height="300%" id="f7bx0zav17yw5" width="300%" x="-1" y="-1"><feGaussianBlur result="blurOut" stdDeviation="2.0"/><feColorMatrix in="blurOut" result="blurOut2" type="matrix" values="0 0 0 0 0 0 0 0 0 0 0 0 0 0 0 0 0 0 .4 0"/><feOffset dx="4.0" dy="4.0" in="blurOut2" result="blurOut3"/><feBlend in="SourceGraphic" in2="blurOut3" mode="normal"/></filter></defs><g><!--class ClusterStarter--><a href="ClusterStarter.html" target="_top" xlink:actuate="onRequest" xlink:show="new" xlink:title="ClusterStarter.html" xlink:type="simple"><rect fill="#FEFECE" filter="url(#f7bx0zav17yw5)" height="190.5059" id="ClusterStarter" style="stroke: #A80036; stroke-width: 1.5;" width="315" x="6" y="8"/><ellipse cx="120.25" cy="24" fill="#ADD1B2" rx="11" ry="11" style="stroke: #A80036; stroke-width: 1.0;"/><path d="M123.2231,29.6431 Q122.6421,29.9419 122.0029,30.0913 Q121.3638,30.2407 120.6582,30.2407 Q118.1514,30.2407 116.8315,28.5889 Q115.5117,26.937 115.5117,23.8159 Q115.5117,20.6865 116.8315,19.0347 Q118.1514,17.3828 120.6582,17.3828 Q121.3638,17.3828 122.0112,17.5322 Q122.6587,17.6816 123.2231,17.9805 L123.2231,20.7031 Q122.5923,20.1221 121.9988,19.8523 Q121.4053,19.5825 120.7744,19.5825 Q119.4297,19.5825 118.7449,20.6492 Q118.0601,21.7158 118.0601,23.8159 Q118.0601,25.9077 118.7449,26.9744 Q119.4297,28.041 120.7744,28.041 Q121.4053,28.041 121.9988,27.7712 Q122.5923,27.5015 123.2231,26.9204 Z "/><text fill="#000000" font-family="sans-serif" font-size="12" lengthAdjust="spacingAndGlyphs" textLength="78" x="140.75" y="28.5352">ClusterStarter</text><line style="stroke: #A80036; stroke-width: 1.5;" x1="7" x2="320" y1="40" y2="40"/><ellipse cx="17" cy="51.9775" fill="none" rx="3" ry="3" style="stroke: #038048; stroke-width: 1.0;"/><text fill="#000000" font-family="sans-serif" font-size="11" lengthAdjust="spacingAndGlyphs" text-decoration="underline" textLength="116" x="26" y="54.6348">MAX_START_TIME: int</text><line style="stroke: #A80036; stroke-width: 1.5;" x1="7" x2="320" y1="60.9551" y2="60.9551"/><ellipse cx="17" cy="72.9326" fill="#84BE84" rx="3" ry="3" style="stroke: #038048; stroke-width: 1.0;"/><text fill="#000000" font-family="sans-serif" font-size="11" lengthAdjust="spacingAndGlyphs" textLength="89" x="26" y="75.5898">getVertx(): Vertx</text><ellipse cx="17" cy="85.8877" fill="#84BE84" rx="3" ry="3" style="stroke: #038048; stroke-width: 1.0;"/><text fill="#000000" font-family="sans-serif" font-size="11" lengthAdjust="spacingAndGlyphs" textLength="79" x="26" y="88.5449">prepare(): void</text><ellipse cx="17" cy="98.8428" fill="#84BE84" rx="3" ry="3" style="stroke: #038048; stroke-width: 1.0;"/><text fill="#000000" font-family="sans-serif" font-size="11" lengthAdjust="spacingAndGlyphs" textLength="198" x="26" y="101.5">configureCluster(String, String): void</text><ellipse cx="17" cy="111.7979" fill="#84BE84" rx="3" ry="3" style="stroke: #038048; stroke-width: 1.0;"/><text fill="#000000" font-family="sans-serif" font-size="11" lengthAdjust="spacingAndGlyphs" textLength="289" x="26" y="114.4551">clusteredVertx(Handler&lt;AsyncResult&lt;Vertx&gt;&gt;): void</text><ellipse cx="17" cy="124.7529" fill="#84BE84" rx="3" ry="3" style="stroke: #038048; stroke-width: 1.0;"/><text fill="#000000" font-family="sans-serif" font-size="11" lengthAdjust="spacingAndGlyphs" textLength="287" x="26" y="127.4102">getDeployMentOptions(boolean): DeploymentOptions</text><ellipse cx="17" cy="137.708" fill="#84BE84" rx="3" ry="3" style="stroke: #038048; stroke-width: 1.0;"/><text fill="#000000" font-family="sans-serif" font-size="11" lengthAdjust="spacingAndGlyphs" textLength="213" x="26" y="140.3652">deployVerticles(AbstractVerticle[]): void</text><ellipse cx="17" cy="150.6631" fill="#84BE84" rx="3" ry="3" style="stroke: #038048; stroke-width: 1.0;"/><text fill="#000000" font-family="sans-serif" font-size="11" lengthAdjust="spacingAndGlyphs" textLength="146" x="26" y="153.3203">getOptions(): VertxOptions</text><ellipse cx="17" cy="163.6182" fill="#84BE84" rx="3" ry="3" style="stroke: #038048; stroke-width: 1.0;"/><text fill="#000000" font-family="sans-serif" font-size="11" lengthAdjust="spacingAndGlyphs" textLength="200" x="26" y="166.2754">undeployVerticle(DukesVerticle): void</text><ellipse cx="17" cy="176.5732" fill="#84BE84" rx="3" ry="3" style="stroke: #038048; stroke-width: 1.0;"/><text fill="#000000" font-family="sans-serif" font-size="11" lengthAdjust="spacingAndGlyphs" textLength="117" x="26" y="179.2305">getHostname(): String</text><ellipse cx="17" cy="189.5283" fill="#84BE84" rx="3" ry="3" style="stroke: #038048; stroke-width: 1.0;"/><text fill="#000000" font-family="sans-serif" font-size="11" lengthAdjust="spacingAndGlyphs" textLength="139" x="26" y="192.1855">setHostname(String): void</text></a><text fill="#888888" font-family="sans-serif" font-size="10" lengthAdjust="spacingAndGlyphs" textLength="182" x="78.5" y="218.668">UMLDoclet 1.1.4, PlantUML 1.2019.05</text><!--
@startuml

    class ClusterStarter [[ClusterStarter.html]] {
        {static} +MAX_START_TIME: int
        +getVertx(): Vertx
        +prepare(): void
        +configureCluster(String, String): void
        +clusteredVertx(Handler<AsyncResult<Vertx>>): void
        +getDeployMentOptions(boolean): DeploymentOptions
        +deployVerticles(AbstractVerticle[]): void
        +getOptions(): VertxOptions
        +undeployVerticle(DukesVerticle): void
        +getHostname(): String
        +setHostname(String): void
    }


    center footer UMLDoclet 1.1.4, PlantUML 1.2019.05
@enduml

PlantUML version 1.2019.05(Sat Apr 20 18:45:36 CEST 2019)
(APACHE source distribution)
Java Runtime: Java(TM) SE Runtime Environment
JVM: Java HotSpot(TM) 64-Bit Server VM
Java Version: 1.8.0_152-b16
Operating System: Mac OS X
OS Version: 10.13.6
Default Encoding: UTF-8
Language: de
Country: DE
--></g></svg>