<?xml version="1.0" encoding="UTF-8" standalone="no"?><svg xmlns="http://www.w3.org/2000/svg" xmlns:xlink="http://www.w3.org/1999/xlink" contentScriptType="application/ecmascript" contentStyleType="text/css" height="206px" preserveAspectRatio="none" style="width:269px;height:206px;" version="1.1" viewBox="0 0 269 206" width="269px" zoomAndPan="magnify"><defs><filter height="300%" id="f1nyhx1234iihn" width="300%" x="-1" y="-1"><feGaussianBlur result="blurOut" stdDeviation="2.0"/><feColorMatrix in="blurOut" result="blurOut2" type="matrix" values="0 0 0 0 0 0 0 0 0 0 0 0 0 0 0 0 0 0 .4 0"/><feOffset dx="4.0" dy="4.0" in="blurOut2" result="blurOut3"/><feBlend in="SourceGraphic" in2="blurOut3" mode="normal"/></filter></defs><g><!--class ServoCalibration--><a href="ServoCalibration.html" target="_top" xlink:actuate="onRequest" xlink:show="new" xlink:title="ServoCalibration.html" xlink:type="simple"><rect fill="#FEFECE" filter="url(#f1nyhx1234iihn)" height="164.5957" id="ServoCalibration" style="stroke: #A80036; stroke-width: 1.5;" width="252" x="6" y="8"/><ellipse cx="81.25" cy="24" fill="#ADD1B2" rx="11" ry="11" style="stroke: #A80036; stroke-width: 1.0;"/><path d="M84.2231,29.6431 Q83.6421,29.9419 83.0029,30.0913 Q82.3638,30.2407 81.6582,30.2407 Q79.1514,30.2407 77.8315,28.5889 Q76.5117,26.937 76.5117,23.8159 Q76.5117,20.6865 77.8315,19.0347 Q79.1514,17.3828 81.6582,17.3828 Q82.3638,17.3828 83.0112,17.5322 Q83.6587,17.6816 84.2231,17.9805 L84.2231,20.7031 Q83.5923,20.1221 82.9988,19.8523 Q82.4053,19.5825 81.7744,19.5825 Q80.4297,19.5825 79.7449,20.6492 Q79.0601,21.7158 79.0601,23.8159 Q79.0601,25.9077 79.7449,26.9744 Q80.4297,28.041 81.7744,28.041 Q82.4053,28.041 82.9988,27.7712 Q83.5923,27.5015 84.2231,26.9204 Z "/><text fill="#000000" font-family="sans-serif" font-size="12" lengthAdjust="spacingAndGlyphs" textLength="93" x="101.75" y="28.5352">ServoCalibration</text><line style="stroke: #A80036; stroke-width: 1.5;" x1="7" x2="257" y1="40" y2="40"/><line style="stroke: #A80036; stroke-width: 1.5;" x1="7" x2="257" y1="48" y2="48"/><ellipse cx="17" cy="59.9775" fill="#84BE84" rx="3" ry="3" style="stroke: #038048; stroke-width: 1.0;"/><text fill="#000000" font-family="sans-serif" font-size="11" lengthAdjust="spacingAndGlyphs" text-decoration="underline" textLength="197" x="26" y="62.6348">fromJo(JsonObject): ServoCalibration</text><ellipse cx="17" cy="72.9326" fill="#84BE84" rx="3" ry="3" style="stroke: #038048; stroke-width: 1.0;"/><text fill="#000000" font-family="sans-serif" font-size="11" lengthAdjust="spacingAndGlyphs" textLength="101" x="26" y="75.5898">getVehicle(): String</text><ellipse cx="17" cy="85.8877" fill="#84BE84" rx="3" ry="3" style="stroke: #038048; stroke-width: 1.0;"/><text fill="#000000" font-family="sans-serif" font-size="11" lengthAdjust="spacingAndGlyphs" textLength="123" x="26" y="88.5449">setVehicle(String): void</text><ellipse cx="17" cy="98.8428" fill="#84BE84" rx="3" ry="3" style="stroke: #038048; stroke-width: 1.0;"/><text fill="#000000" font-family="sans-serif" font-size="11" lengthAdjust="spacingAndGlyphs" textLength="89" x="26" y="101.5">getType(): String</text><ellipse cx="17" cy="111.7979" fill="#84BE84" rx="3" ry="3" style="stroke: #038048; stroke-width: 1.0;"/><text fill="#000000" font-family="sans-serif" font-size="11" lengthAdjust="spacingAndGlyphs" textLength="111" x="26" y="114.4551">setType(String): void</text><ellipse cx="17" cy="124.7529" fill="#84BE84" rx="3" ry="3" style="stroke: #038048; stroke-width: 1.0;"/><text fill="#000000" font-family="sans-serif" font-size="11" lengthAdjust="spacingAndGlyphs" textLength="85" x="26" y="127.4102">getUnit(): String</text><ellipse cx="17" cy="137.708" fill="#84BE84" rx="3" ry="3" style="stroke: #038048; stroke-width: 1.0;"/><text fill="#000000" font-family="sans-serif" font-size="11" lengthAdjust="spacingAndGlyphs" textLength="107" x="26" y="140.3652">setUnit(String): void</text><ellipse cx="17" cy="150.6631" fill="#84BE84" rx="3" ry="3" style="stroke: #038048; stroke-width: 1.0;"/><text fill="#000000" font-family="sans-serif" font-size="11" lengthAdjust="spacingAndGlyphs" textLength="204" x="26" y="153.3203">getValueMap(): Map&lt;Integer, Double&gt;</text><ellipse cx="17" cy="163.6182" fill="#84BE84" rx="3" ry="3" style="stroke: #038048; stroke-width: 1.0;"/><text fill="#000000" font-family="sans-serif" font-size="11" lengthAdjust="spacingAndGlyphs" textLength="226" x="26" y="166.2754">setValueMap(Map&lt;Integer, Double&gt;): void</text></a><text fill="#888888" font-family="sans-serif" font-size="10" lengthAdjust="spacingAndGlyphs" textLength="182" x="47" y="192.668">UMLDoclet 1.1.4, PlantUML 1.2019.05</text><!--
@startuml

    class ServoCalibration [[ServoCalibration.html]] {
        {static} +fromJo(JsonObject): ServoCalibration
        +getVehicle(): String
        +setVehicle(String): void
        +getType(): String
        +setType(String): void
        +getUnit(): String
        +setUnit(String): void
        +getValueMap(): Map<Integer, Double>
        +setValueMap(Map<Integer, Double>): void
    }


    center footer UMLDoclet 1.1.4, PlantUML 1.2019.05
@enduml

PlantUML version 1.2019.05(Sat Apr 20 18:45:36 CEST 2019)
(APACHE source distribution)
Java Runtime: Java(TM) SE Runtime Environment
JVM: Java HotSpot(TM) 64-Bit Server VM
Java Version: 1.8.0_152-b16
Operating System: Mac OS X
OS Version: 10.13.6
Default Encoding: UTF-8
Language: de
Country: DE
--></g></svg>