<?xml version="1.0" encoding="UTF-8" standalone="no"?><svg xmlns="http://www.w3.org/2000/svg" xmlns:xlink="http://www.w3.org/1999/xlink" contentScriptType="application/ecmascript" contentStyleType="text/css" height="257px" preserveAspectRatio="none" style="width:257px;height:257px;" version="1.1" viewBox="0 0 257 257" width="257px" zoomAndPan="magnify"><defs><filter height="300%" id="f13dd3pfhyipt8" width="300%" x="-1" y="-1"><feGaussianBlur result="blurOut" stdDeviation="2.0"/><feColorMatrix in="blurOut" result="blurOut2" type="matrix" values="0 0 0 0 0 0 0 0 0 0 0 0 0 0 0 0 0 0 .4 0"/><feOffset dx="4.0" dy="4.0" in="blurOut2" result="blurOut3"/><feBlend in="SourceGraphic" in2="blurOut3" mode="normal"/></filter></defs><g><!--class ServoPosition--><a href="ServoPosition.html" target="_top" xlink:actuate="onRequest" xlink:show="new" xlink:title="ServoPosition.html" xlink:type="simple"><rect fill="#FEFECE" filter="url(#f13dd3pfhyipt8)" height="216.416" id="ServoPosition" style="stroke: #A80036; stroke-width: 1.5;" width="240" x="6" y="8"/><ellipse cx="84.25" cy="24" fill="#ADD1B2" rx="11" ry="11" style="stroke: #A80036; stroke-width: 1.0;"/><path d="M87.2231,29.6431 Q86.6421,29.9419 86.0029,30.0913 Q85.3638,30.2407 84.6582,30.2407 Q82.1514,30.2407 80.8315,28.5889 Q79.5117,26.937 79.5117,23.8159 Q79.5117,20.6865 80.8315,19.0347 Q82.1514,17.3828 84.6582,17.3828 Q85.3638,17.3828 86.0112,17.5322 Q86.6587,17.6816 87.2231,17.9805 L87.2231,20.7031 Q86.5923,20.1221 85.9988,19.8523 Q85.4053,19.5825 84.7744,19.5825 Q83.4297,19.5825 82.7449,20.6492 Q82.0601,21.7158 82.0601,23.8159 Q82.0601,25.9077 82.7449,26.9744 Q83.4297,28.041 84.7744,28.041 Q85.4053,28.041 85.9988,27.7712 Q86.5923,27.5015 87.2231,26.9204 Z "/><text fill="#000000" font-family="sans-serif" font-size="12" lengthAdjust="spacingAndGlyphs" textLength="75" x="104.75" y="28.5352">ServoPosition</text><line style="stroke: #A80036; stroke-width: 1.5;" x1="7" x2="245" y1="40" y2="40"/><ellipse cx="17" cy="51.9775" fill="none" rx="3" ry="3" style="stroke: #038048; stroke-width: 1.0;"/><text fill="#000000" font-family="sans-serif" font-size="11" lengthAdjust="spacingAndGlyphs" textLength="59" x="26" y="54.6348">unit: String</text><ellipse cx="17" cy="64.9326" fill="none" rx="3" ry="3" style="stroke: #038048; stroke-width: 1.0;"/><text fill="#000000" font-family="sans-serif" font-size="11" lengthAdjust="spacingAndGlyphs" textLength="61" x="26" y="67.5898">kind: String</text><ellipse cx="17" cy="77.8877" fill="none" rx="3" ry="3" style="stroke: #038048; stroke-width: 1.0;"/><text fill="#000000" font-family="sans-serif" font-size="11" lengthAdjust="spacingAndGlyphs" textLength="104" x="26" y="80.5449">servoConfig: String</text><ellipse cx="17" cy="90.8428" fill="none" rx="3" ry="3" style="stroke: #038048; stroke-width: 1.0;"/><text fill="#000000" font-family="sans-serif" font-size="11" lengthAdjust="spacingAndGlyphs" textLength="102" x="26" y="93.5">valueConfig: String</text><line style="stroke: #A80036; stroke-width: 1.5;" x1="7" x2="245" y1="99.8203" y2="99.8203"/><ellipse cx="17" cy="111.7979" fill="#84BE84" rx="3" ry="3" style="stroke: #038048; stroke-width: 1.0;"/><text fill="#000000" font-family="sans-serif" font-size="11" lengthAdjust="spacingAndGlyphs" textLength="81" x="26" y="114.4551">ServoPosition()</text><ellipse cx="17" cy="124.7529" fill="#84BE84" rx="3" ry="3" style="stroke: #038048; stroke-width: 1.0;"/><text fill="#000000" font-family="sans-serif" font-size="11" lengthAdjust="spacingAndGlyphs" textLength="138" x="26" y="127.4102">ServoPosition(int, double)</text><ellipse cx="17" cy="137.708" fill="#84BE84" rx="3" ry="3" style="stroke: #038048; stroke-width: 1.0;"/><text fill="#000000" font-family="sans-serif" font-size="11" lengthAdjust="spacingAndGlyphs" textLength="214" x="26" y="140.3652">ServoPosition(int, double, String, String)</text><ellipse cx="17" cy="150.6631" fill="#84BE84" rx="3" ry="3" style="stroke: #038048; stroke-width: 1.0;"/><text fill="#000000" font-family="sans-serif" font-size="11" lengthAdjust="spacingAndGlyphs" textLength="151" x="26" y="153.3203">ServoPosition(String, String)</text><ellipse cx="17" cy="163.6182" fill="#84BE84" rx="3" ry="3" style="stroke: #038048; stroke-width: 1.0;"/><text fill="#000000" font-family="sans-serif" font-size="11" lengthAdjust="spacingAndGlyphs" textLength="97" x="26" y="166.2754">getValue(): double</text><ellipse cx="17" cy="176.5732" fill="#84BE84" rx="3" ry="3" style="stroke: #038048; stroke-width: 1.0;"/><text fill="#000000" font-family="sans-serif" font-size="11" lengthAdjust="spacingAndGlyphs" textLength="119" x="26" y="179.2305">setValue(double): void</text><ellipse cx="17" cy="189.5283" fill="#84BE84" rx="3" ry="3" style="stroke: #038048; stroke-width: 1.0;"/><text fill="#000000" font-family="sans-serif" font-size="11" lengthAdjust="spacingAndGlyphs" textLength="94" x="26" y="192.1855">getServoPos(): int</text><ellipse cx="17" cy="202.4834" fill="#84BE84" rx="3" ry="3" style="stroke: #038048; stroke-width: 1.0;"/><text fill="#000000" font-family="sans-serif" font-size="11" lengthAdjust="spacingAndGlyphs" textLength="116" x="26" y="205.1406">setServoPos(int): void</text><ellipse cx="17" cy="215.4385" fill="#84BE84" rx="3" ry="3" style="stroke: #038048; stroke-width: 1.0;"/><text fill="#000000" font-family="sans-serif" font-size="11" lengthAdjust="spacingAndGlyphs" textLength="111" x="26" y="218.0957">init(int, double): void</text></a><text fill="#888888" font-family="sans-serif" font-size="10" lengthAdjust="spacingAndGlyphs" textLength="182" x="41" y="243.668">UMLDoclet 1.1.4, PlantUML 1.2019.05</text><!--
@startuml

    class ServoPosition [[ServoPosition.html]] {
        +unit: String
        +kind: String
        +servoConfig: String
        +valueConfig: String
        +ServoPosition()
        +ServoPosition(int, double)
        +ServoPosition(int, double, String, String)
        +ServoPosition(String, String)
        +getValue(): double
        +setValue(double): void
        +getServoPos(): int
        +setServoPos(int): void
        +init(int, double): void
    }


    center footer UMLDoclet 1.1.4, PlantUML 1.2019.05
@enduml

PlantUML version 1.2019.05(Sat Apr 20 18:45:36 CEST 2019)
(APACHE source distribution)
Java Runtime: Java(TM) SE Runtime Environment
JVM: Java HotSpot(TM) 64-Bit Server VM
Java Version: 1.8.0_152-b16
Operating System: Mac OS X
OS Version: 10.13.6
Default Encoding: UTF-8
Language: de
Country: DE
--></g></svg>