<?xml version="1.0" encoding="UTF-8" standalone="no"?><svg xmlns="http://www.w3.org/2000/svg" xmlns:xlink="http://www.w3.org/1999/xlink" contentScriptType="application/ecmascript" contentStyleType="text/css" height="167px" preserveAspectRatio="none" style="width:233px;height:167px;" version="1.1" viewBox="0 0 233 167" width="233px" zoomAndPan="magnify"><defs><filter height="300%" id="fxf3tip0ccfzt" width="300%" x="-1" y="-1"><feGaussianBlur result="blurOut" stdDeviation="2.0"/><feColorMatrix in="blurOut" result="blurOut2" type="matrix" values="0 0 0 0 0 0 0 0 0 0 0 0 0 0 0 0 0 0 .4 0"/><feOffset dx="4.0" dy="4.0" in="blurOut2" result="blurOut3"/><feBlend in="SourceGraphic" in2="blurOut3" mode="normal"/></filter></defs><g><!--class WebStarter--><a href="WebStarter.html" target="_top" xlink:actuate="onRequest" xlink:show="new" xlink:title="WebStarter.html" xlink:type="simple"><rect fill="#FEFECE" filter="url(#fxf3tip0ccfzt)" height="125.7305" id="WebStarter" style="stroke: #A80036; stroke-width: 1.5;" width="216" x="6" y="8"/><ellipse cx="78.25" cy="24" fill="#ADD1B2" rx="11" ry="11" style="stroke: #A80036; stroke-width: 1.0;"/><path d="M81.2231,29.6431 Q80.6421,29.9419 80.0029,30.0913 Q79.3638,30.2407 78.6582,30.2407 Q76.1514,30.2407 74.8315,28.5889 Q73.5117,26.937 73.5117,23.8159 Q73.5117,20.6865 74.8315,19.0347 Q76.1514,17.3828 78.6582,17.3828 Q79.3638,17.3828 80.0112,17.5322 Q80.6587,17.6816 81.2231,17.9805 L81.2231,20.7031 Q80.5923,20.1221 79.9988,19.8523 Q79.4053,19.5825 78.7744,19.5825 Q77.4297,19.5825 76.7449,20.6492 Q76.0601,21.7158 76.0601,23.8159 Q76.0601,25.9077 76.7449,26.9744 Q77.4297,28.041 78.7744,28.041 Q79.4053,28.041 79.9988,27.7712 Q80.5923,27.5015 81.2231,26.9204 Z "/><text fill="#000000" font-family="sans-serif" font-size="12" lengthAdjust="spacingAndGlyphs" textLength="63" x="98.75" y="28.5352">WebStarter</text><line style="stroke: #A80036; stroke-width: 1.5;" x1="7" x2="221" y1="40" y2="40"/><polygon fill="none" points="17,46.9775,21,50.9775,17,54.9775,13,50.9775" style="stroke: #B38D22; stroke-width: 1.0;"/><text fill="#000000" font-family="sans-serif" font-size="11" lengthAdjust="spacingAndGlyphs" text-decoration="underline" textLength="67" x="26" y="54.6348">LOG: Logger</text><line style="stroke: #A80036; stroke-width: 1.5;" x1="7" x2="221" y1="60.9551" y2="60.9551"/><ellipse cx="17" cy="72.9326" fill="#84BE84" rx="3" ry="3" style="stroke: #038048; stroke-width: 1.0;"/><text fill="#000000" font-family="sans-serif" font-size="11" lengthAdjust="spacingAndGlyphs" textLength="115" x="26" y="75.5898">WebStarter(Vertx, int)</text><ellipse cx="17" cy="85.8877" fill="#84BE84" rx="3" ry="3" style="stroke: #038048; stroke-width: 1.0;"/><text fill="#000000" font-family="sans-serif" font-size="11" lengthAdjust="spacingAndGlyphs" textLength="103" x="26" y="88.5449">getRouter(): Router</text><ellipse cx="17" cy="98.8428" fill="#84BE84" rx="3" ry="3" style="stroke: #038048; stroke-width: 1.0;"/><text fill="#000000" font-family="sans-serif" font-size="11" lengthAdjust="spacingAndGlyphs" textLength="125" x="26" y="101.5">setRouter(Router): void</text><ellipse cx="17" cy="111.7979" fill="#84BE84" rx="3" ry="3" style="stroke: #038048; stroke-width: 1.0;"/><text fill="#000000" font-family="sans-serif" font-size="11" lengthAdjust="spacingAndGlyphs" textLength="190" x="26" y="114.4551">mountEventBus(String, String): void</text><ellipse cx="17" cy="124.7529" fill="#84BE84" rx="3" ry="3" style="stroke: #038048; stroke-width: 1.0;"/><text fill="#000000" font-family="sans-serif" font-size="11" lengthAdjust="spacingAndGlyphs" textLength="119" x="26" y="127.4102">startHttpServer(): void</text></a><text fill="#888888" font-family="sans-serif" font-size="10" lengthAdjust="spacingAndGlyphs" textLength="182" x="29" y="153.668">UMLDoclet 1.1.4, PlantUML 1.2019.05</text><!--
@startuml

    class WebStarter [[WebStarter.html]] {
        {static} #LOG: Logger
        +WebStarter(Vertx, int)
        +getRouter(): Router
        +setRouter(Router): void
        +mountEventBus(String, String): void
        +startHttpServer(): void
    }


    center footer UMLDoclet 1.1.4, PlantUML 1.2019.05
@enduml

PlantUML version 1.2019.05(Sat Apr 20 18:45:36 CEST 2019)
(APACHE source distribution)
Java Runtime: Java(TM) SE Runtime Environment
JVM: Java HotSpot(TM) 64-Bit Server VM
Java Version: 1.8.0_152-b16
Operating System: Mac OS X
OS Version: 10.13.6
Default Encoding: UTF-8
Language: de
Country: DE
--></g></svg>