<?xml version="1.0" encoding="UTF-8" standalone="no"?><svg xmlns="http://www.w3.org/2000/svg" xmlns:xlink="http://www.w3.org/1999/xlink" contentScriptType="application/ecmascript" contentStyleType="text/css" height="261px" preserveAspectRatio="none" style="width:307px;height:261px;" version="1.1" viewBox="0 0 307 261" width="307px" zoomAndPan="magnify"><defs><filter height="300%" id="fy21coym7l2wb" width="300%" x="-1" y="-1"><feGaussianBlur result="blurOut" stdDeviation="2.0"/><feColorMatrix in="blurOut" result="blurOut2" type="matrix" values="0 0 0 0 0 0 0 0 0 0 0 0 0 0 0 0 0 0 .4 0"/><feOffset dx="4.0" dy="4.0" in="blurOut2" result="blurOut3"/><feBlend in="SourceGraphic" in2="blurOut3" mode="normal"/></filter></defs><g><!--cluster nl.vaneijndhoven.dukes.imageview--><polygon fill="#FFFFFF" filter="url(#fy21coym7l2wb)" points="22,124,275,124,282,146.4883,285,146.4883,285,220,22,220,22,124" style="stroke: #000000; stroke-width: 1.5;"/><line style="stroke: #000000; stroke-width: 1.5;" x1="22" x2="282" y1="146.4883" y2="146.4883"/><text fill="#000000" font-family="sans-serif" font-size="14" font-weight="bold" lengthAdjust="spacingAndGlyphs" textLength="247" x="26" y="139.5352">nl.vaneijndhoven.dukes.imageview</text><!--cluster io.vertx.core--><polygon fill="#FFFFFF" filter="url(#fy21coym7l2wb)" points="14,16,106,16,113,38.4883,154,38.4883,154,99,14,99,14,16" style="stroke: #000000; stroke-width: 1.5;"/><line style="stroke: #000000; stroke-width: 1.5;" x1="14" x2="113" y1="38.4883" y2="38.4883"/><text fill="#000000" font-family="sans-serif" font-size="14" font-weight="bold" lengthAdjust="spacingAndGlyphs" textLength="86" x="18" y="31.5352">io.vertx.core</text><!--class nl.vaneijndhoven.dukes.imageview.ImageView--><a href="ImageView.html" target="_top" xlink:actuate="onRequest" xlink:show="new" xlink:title="ImageView.html" xlink:type="simple"><rect fill="#FEFECE" filter="url(#fy21coym7l2wb)" height="60.9551" id="nl.vaneijndhoven.dukes.imageview.ImageView" style="stroke: #A80036; stroke-width: 1.5;" width="94" x="37" y="151"/><ellipse cx="52" cy="167" fill="#ADD1B2" rx="11" ry="11" style="stroke: #A80036; stroke-width: 1.0;"/><path d="M54.9731,172.6431 Q54.3921,172.9419 53.7529,173.0913 Q53.1138,173.2407 52.4082,173.2407 Q49.9014,173.2407 48.5815,171.5889 Q47.2617,169.937 47.2617,166.8159 Q47.2617,163.6865 48.5815,162.0347 Q49.9014,160.3828 52.4082,160.3828 Q53.1138,160.3828 53.7612,160.5322 Q54.4087,160.6816 54.9731,160.9805 L54.9731,163.7031 Q54.3423,163.1221 53.7488,162.8523 Q53.1553,162.5825 52.5244,162.5825 Q51.1797,162.5825 50.4949,163.6492 Q49.8101,164.7158 49.8101,166.8159 Q49.8101,168.9077 50.4949,169.9744 Q51.1797,171.041 52.5244,171.041 Q53.1553,171.041 53.7488,170.7712 Q54.3423,170.5015 54.9731,169.9204 Z "/><text fill="#000000" font-family="sans-serif" font-size="12" lengthAdjust="spacingAndGlyphs" textLength="62" x="66" y="171.5352">ImageView</text><line style="stroke: #A80036; stroke-width: 1.5;" x1="38" x2="130" y1="183" y2="183"/><line style="stroke: #A80036; stroke-width: 1.5;" x1="38" x2="130" y1="191" y2="191"/><ellipse cx="48" cy="202.9775" fill="#84BE84" rx="3" ry="3" style="stroke: #038048; stroke-width: 1.0;"/><text fill="#000000" font-family="sans-serif" font-size="11" lengthAdjust="spacingAndGlyphs" textLength="62" x="57" y="205.6348">start(): void</text></a><!--class io.vertx.core.AbstractVerticle--><rect fill="#FEFECE" filter="url(#fy21coym7l2wb)" height="48" id="io.vertx.core.AbstractVerticle" style="stroke: #A80036; stroke-width: 1.5;" width="123" x="22.5" y="43"/><ellipse cx="37.5" cy="59" fill="#A9DCDF" rx="11" ry="11" style="stroke: #A80036; stroke-width: 1.0;"/><path d="M37.6133,54.3481 L36.4595,59.4199 L38.7754,59.4199 Z M36.1191,52.1069 L39.1157,52.1069 L42.4609,64.5 L40.0122,64.5 L39.2485,61.437 L35.9697,61.437 L35.2227,64.5 L32.7739,64.5 Z "/><text fill="#000000" font-family="sans-serif" font-size="12" font-style="italic" lengthAdjust="spacingAndGlyphs" textLength="91" x="51.5" y="63.5352">AbstractVerticle</text><line style="stroke: #A80036; stroke-width: 1.5;" x1="23.5" x2="144.5" y1="75" y2="75"/><line style="stroke: #A80036; stroke-width: 1.5;" x1="23.5" x2="144.5" y1="83" y2="83"/><!--link io.vertx.core.AbstractVerticle to nl.vaneijndhoven.dukes.imageview.ImageView--><path d="M84,111.2477 C84,124.5296 84,138.7972 84,150.9818 " fill="none" id="io.vertx.core.AbstractVerticle-nl.vaneijndhoven.dukes.imageview.ImageView" style="stroke: #A80036; stroke-width: 1.0;"/><polygon fill="none" points="77.0001,111.003,84,91.003,91.0001,111.0029,77.0001,111.003" style="stroke: #A80036; stroke-width: 1.0;"/><text fill="#888888" font-family="sans-serif" font-size="10" lengthAdjust="spacingAndGlyphs" textLength="182" x="64.5" y="247.668">UMLDoclet 1.1.4, PlantUML 1.2019.05</text><!--
@startuml

    namespace nl.vaneijndhoven.dukes.imageview {

        class ImageView [[ImageView.html]] {
            +start(): void
        }

        abstract class io.vertx.core.AbstractVerticle
        io.vertx.core.AbstractVerticle <|- - ImageView

    }


    center footer UMLDoclet 1.1.4, PlantUML 1.2019.05
@enduml

PlantUML version 1.2019.05(Sat Apr 20 18:45:36 CEST 2019)
(APACHE source distribution)
Java Runtime: Java(TM) SE Runtime Environment
JVM: Java HotSpot(TM) 64-Bit Server VM
Java Version: 1.8.0_191-b12
Operating System: Mac OS X
OS Version: 10.13.6
Default Encoding: UTF-8
Language: de
Country: DE
--></g></svg>