<?xml version="1.0" encoding="UTF-8" standalone="no"?><svg xmlns="http://www.w3.org/2000/svg" xmlns:xlink="http://www.w3.org/1999/xlink" contentScriptType="application/ecmascript" contentStyleType="text/css" height="274px" preserveAspectRatio="none" style="width:291px;height:274px;" version="1.1" viewBox="0 0 291 274" width="291px" zoomAndPan="magnify"><defs><filter height="300%" id="fq51njtykmj11" width="300%" x="-1" y="-1"><feGaussianBlur result="blurOut" stdDeviation="2.0"/><feColorMatrix in="blurOut" result="blurOut2" type="matrix" values="0 0 0 0 0 0 0 0 0 0 0 0 0 0 0 0 0 0 .4 0"/><feOffset dx="4.0" dy="4.0" in="blurOut2" result="blurOut3"/><feBlend in="SourceGraphic" in2="blurOut3" mode="normal"/></filter></defs><g><!--cluster nl.vaneijndhoven.dukes.watchdog--><polygon fill="#FFFFFF" filter="url(#fq51njtykmj11)" points="14,124,259,124,266,146.4883,269,146.4883,269,233,14,233,14,124" style="stroke: #000000; stroke-width: 1.5;"/><line style="stroke: #000000; stroke-width: 1.5;" x1="14" x2="266" y1="146.4883" y2="146.4883"/><text fill="#000000" font-family="sans-serif" font-size="14" font-weight="bold" lengthAdjust="spacingAndGlyphs" textLength="239" x="18" y="139.5352">nl.vaneijndhoven.dukes.watchdog</text><!--cluster io.vertx.rxjava.core--><polygon fill="#FFFFFF" filter="url(#fq51njtykmj11)" points="67,16,205,16,212,38.4883,215,38.4883,215,99,67,99,67,16" style="stroke: #000000; stroke-width: 1.5;"/><line style="stroke: #000000; stroke-width: 1.5;" x1="67" x2="212" y1="38.4883" y2="38.4883"/><text fill="#000000" font-family="sans-serif" font-size="14" font-weight="bold" lengthAdjust="spacingAndGlyphs" textLength="132" x="71" y="31.5352">io.vertx.rxjava.core</text><!--class nl.vaneijndhoven.dukes.watchdog.WatchDog--><a href="WatchDog.html" target="_top" xlink:actuate="onRequest" xlink:show="new" xlink:title="WatchDog.html" xlink:type="simple"><rect fill="#FEFECE" filter="url(#fq51njtykmj11)" height="73.9102" id="nl.vaneijndhoven.dukes.watchdog.WatchDog" style="stroke: #A80036; stroke-width: 1.5;" width="188" x="47" y="151"/><ellipse cx="108.25" cy="167" fill="#ADD1B2" rx="11" ry="11" style="stroke: #A80036; stroke-width: 1.0;"/><path d="M111.2231,172.6431 Q110.6421,172.9419 110.0029,173.0913 Q109.3638,173.2407 108.6582,173.2407 Q106.1514,173.2407 104.8315,171.5889 Q103.5117,169.937 103.5117,166.8159 Q103.5117,163.6865 104.8315,162.0347 Q106.1514,160.3828 108.6582,160.3828 Q109.3638,160.3828 110.0112,160.5322 Q110.6587,160.6816 111.2231,160.9805 L111.2231,163.7031 Q110.5923,163.1221 109.9988,162.8523 Q109.4053,162.5825 108.7744,162.5825 Q107.4297,162.5825 106.7449,163.6492 Q106.0601,164.7158 106.0601,166.8159 Q106.0601,168.9077 106.7449,169.9744 Q107.4297,171.041 108.7744,171.041 Q109.4053,171.041 109.9988,170.7712 Q110.5923,170.5015 111.2231,169.9204 Z "/><text fill="#000000" font-family="sans-serif" font-size="12" lengthAdjust="spacingAndGlyphs" textLength="57" x="128.75" y="171.5352">WatchDog</text><line style="stroke: #A80036; stroke-width: 1.5;" x1="48" x2="234" y1="183" y2="183"/><ellipse cx="58" cy="194.9775" fill="none" rx="3" ry="3" style="stroke: #038048; stroke-width: 1.0;"/><text fill="#000000" font-family="sans-serif" font-size="11" lengthAdjust="spacingAndGlyphs" text-decoration="underline" textLength="162" x="67" y="197.6348">HEARTBEAT_INTERVAL_MS: int</text><line style="stroke: #A80036; stroke-width: 1.5;" x1="48" x2="234" y1="203.9551" y2="203.9551"/><ellipse cx="58" cy="215.9326" fill="#84BE84" rx="3" ry="3" style="stroke: #038048; stroke-width: 1.0;"/><text fill="#000000" font-family="sans-serif" font-size="11" lengthAdjust="spacingAndGlyphs" textLength="62" x="67" y="218.5898">start(): void</text></a><!--class io.vertx.rxjava.core.AbstractVerticle--><rect fill="#FEFECE" filter="url(#fq51njtykmj11)" height="48" id="io.vertx.rxjava.core.AbstractVerticle" style="stroke: #A80036; stroke-width: 1.5;" width="123" x="79.5" y="43"/><ellipse cx="94.5" cy="59" fill="#ADD1B2" rx="11" ry="11" style="stroke: #A80036; stroke-width: 1.0;"/><path d="M97.4731,64.6431 Q96.8921,64.9419 96.2529,65.0913 Q95.6138,65.2407 94.9082,65.2407 Q92.4014,65.2407 91.0815,63.5889 Q89.7617,61.937 89.7617,58.8159 Q89.7617,55.6865 91.0815,54.0347 Q92.4014,52.3828 94.9082,52.3828 Q95.6138,52.3828 96.2612,52.5322 Q96.9087,52.6816 97.4731,52.9805 L97.4731,55.7031 Q96.8423,55.1221 96.2488,54.8523 Q95.6553,54.5825 95.0244,54.5825 Q93.6797,54.5825 92.9949,55.6492 Q92.3101,56.7158 92.3101,58.8159 Q92.3101,60.9077 92.9949,61.9744 Q93.6797,63.041 95.0244,63.041 Q95.6553,63.041 96.2488,62.7712 Q96.8423,62.5015 97.4731,61.9204 Z "/><text fill="#000000" font-family="sans-serif" font-size="12" lengthAdjust="spacingAndGlyphs" textLength="91" x="108.5" y="63.5352">AbstractVerticle</text><line style="stroke: #A80036; stroke-width: 1.5;" x1="80.5" x2="201.5" y1="75" y2="75"/><line style="stroke: #A80036; stroke-width: 1.5;" x1="80.5" x2="201.5" y1="83" y2="83"/><!--link io.vertx.rxjava.core.AbstractVerticle to nl.vaneijndhoven.dukes.watchdog.WatchDog--><path d="M141,111.5529 C141,124.5142 141,138.5269 141,150.9716 " fill="none" id="io.vertx.rxjava.core.AbstractVerticle-nl.vaneijndhoven.dukes.watchdog.WatchDog" style="stroke: #A80036; stroke-width: 1.0;"/><polygon fill="none" points="134.0001,111.1954,141,91.1953,148.0001,111.1953,134.0001,111.1954" style="stroke: #A80036; stroke-width: 1.0;"/><text fill="#888888" font-family="sans-serif" font-size="10" lengthAdjust="spacingAndGlyphs" textLength="182" x="56.5" y="260.668">UMLDoclet 1.1.4, PlantUML 1.2019.05</text><!--
@startuml

    namespace nl.vaneijndhoven.dukes.watchdog {

        class WatchDog [[WatchDog.html]] {
            {static} +HEARTBEAT_INTERVAL_MS: int
            +start(): void
        }

        class io.vertx.rxjava.core.AbstractVerticle
        io.vertx.rxjava.core.AbstractVerticle <|- - WatchDog

    }


    center footer UMLDoclet 1.1.4, PlantUML 1.2019.05
@enduml

PlantUML version 1.2019.05(Sat Apr 20 18:45:36 CEST 2019)
(APACHE source distribution)
Java Runtime: Java(TM) SE Runtime Environment
JVM: Java HotSpot(TM) 64-Bit Server VM
Java Version: 1.8.0_191-b12
Operating System: Mac OS X
OS Version: 10.13.6
Default Encoding: UTF-8
Language: de
Country: DE
--></g></svg>