<?xml version="1.0" encoding="UTF-8" standalone="no"?><svg xmlns="http://www.w3.org/2000/svg" xmlns:xlink="http://www.w3.org/1999/xlink" contentScriptType="application/ecmascript" contentStyleType="text/css" height="102px" preserveAspectRatio="none" style="width:194px;height:102px;" version="1.1" viewBox="0 0 194 102" width="194px" zoomAndPan="magnify"><defs><filter height="300%" id="f106anxgqozpfq" width="300%" x="-1" y="-1"><feGaussianBlur result="blurOut" stdDeviation="2.0"/><feColorMatrix in="blurOut" result="blurOut2" type="matrix" values="0 0 0 0 0 0 0 0 0 0 0 0 0 0 0 0 0 0 .4 0"/><feOffset dx="4.0" dy="4.0" in="blurOut2" result="blurOut3"/><feBlend in="SourceGraphic" in2="blurOut3" mode="normal"/></filter></defs><g><!--class BoarsNest--><a href="BoarsNest.html" target="_top" xlink:actuate="onRequest" xlink:show="new" xlink:title="BoarsNest.html" xlink:type="simple"><rect fill="#FEFECE" filter="url(#f106anxgqozpfq)" height="60.9551" id="BoarsNest" style="stroke: #A80036; stroke-width: 1.5;" width="129" x="20.5" y="8"/><ellipse cx="53.05" cy="24" fill="#ADD1B2" rx="11" ry="11" style="stroke: #A80036; stroke-width: 1.0;"/><path d="M56.0231,29.6431 Q55.4421,29.9419 54.8029,30.0913 Q54.1638,30.2407 53.4582,30.2407 Q50.9514,30.2407 49.6315,28.5889 Q48.3117,26.937 48.3117,23.8159 Q48.3117,20.6865 49.6315,19.0347 Q50.9514,17.3828 53.4582,17.3828 Q54.1638,17.3828 54.8112,17.5322 Q55.4587,17.6816 56.0231,17.9805 L56.0231,20.7031 Q55.3923,20.1221 54.7988,19.8523 Q54.2053,19.5825 53.5744,19.5825 Q52.2297,19.5825 51.5449,20.6492 Q50.8601,21.7158 50.8601,23.8159 Q50.8601,25.9077 51.5449,26.9744 Q52.2297,28.041 53.5744,28.041 Q54.2053,28.041 54.7988,27.7712 Q55.3923,27.5015 56.0231,26.9204 Z "/><text fill="#000000" font-family="sans-serif" font-size="12" lengthAdjust="spacingAndGlyphs" textLength="58" x="70.95" y="28.5352">BoarsNest</text><line style="stroke: #A80036; stroke-width: 1.5;" x1="21.5" x2="148.5" y1="40" y2="40"/><line style="stroke: #A80036; stroke-width: 1.5;" x1="21.5" x2="148.5" y1="48" y2="48"/><ellipse cx="31.5" cy="59.9775" fill="#84BE84" rx="3" ry="3" style="stroke: #038048; stroke-width: 1.0;"/><text fill="#000000" font-family="sans-serif" font-size="11" lengthAdjust="spacingAndGlyphs" text-decoration="underline" textLength="103" x="40.5" y="62.6348">main(String[]): void</text></a><text fill="#888888" font-family="sans-serif" font-size="10" lengthAdjust="spacingAndGlyphs" textLength="182" x="0" y="88.668">UMLDoclet 1.1.4, PlantUML 1.2019.05</text><!--
@startuml

    class BoarsNest [[BoarsNest.html]] {
        {static} +main(String[]): void
    }


    center footer UMLDoclet 1.1.4, PlantUML 1.2019.05
@enduml

PlantUML version 1.2019.05(Sat Apr 20 18:45:36 CEST 2019)
(APACHE source distribution)
Java Runtime: Java(TM) SE Runtime Environment
JVM: Java HotSpot(TM) 64-Bit Server VM
Java Version: 1.8.0_152-b16
Operating System: Mac OS X
OS Version: 10.13.6
Default Encoding: UTF-8
Language: de
Country: DE
--></g></svg>