<?xml version="1.0" encoding="UTF-8" standalone="no"?><svg xmlns="http://www.w3.org/2000/svg" xmlns:xlink="http://www.w3.org/1999/xlink" contentScriptType="application/ecmascript" contentStyleType="text/css" height="261px" preserveAspectRatio="none" style="width:293px;height:261px;" version="1.1" viewBox="0 0 293 261" width="293px" zoomAndPan="magnify"><defs><filter height="300%" id="fvb5bioxht2jl" width="300%" x="-1" y="-1"><feGaussianBlur result="blurOut" stdDeviation="2.0"/><feColorMatrix in="blurOut" result="blurOut2" type="matrix" values="0 0 0 0 0 0 0 0 0 0 0 0 0 0 0 0 0 0 .4 0"/><feOffset dx="4.0" dy="4.0" in="blurOut2" result="blurOut3"/><feBlend in="SourceGraphic" in2="blurOut3" mode="normal"/></filter></defs><g><!--cluster nl.vaneijndhoven.dukes.boarsnest--><polygon fill="#FFFFFF" filter="url(#fvb5bioxht2jl)" points="14,124,261,124,268,146.4883,271,146.4883,271,220,14,220,14,124" style="stroke: #000000; stroke-width: 1.5;"/><line style="stroke: #000000; stroke-width: 1.5;" x1="14" x2="268" y1="146.4883" y2="146.4883"/><text fill="#000000" font-family="sans-serif" font-size="14" font-weight="bold" lengthAdjust="spacingAndGlyphs" textLength="241" x="18" y="139.5352">nl.vaneijndhoven.dukes.boarsnest</text><!--cluster io.vertx.rxjava.core--><polygon fill="#FFFFFF" filter="url(#fvb5bioxht2jl)" points="69,16,207,16,214,38.4883,217,38.4883,217,99,69,99,69,16" style="stroke: #000000; stroke-width: 1.5;"/><line style="stroke: #000000; stroke-width: 1.5;" x1="69" x2="214" y1="38.4883" y2="38.4883"/><text fill="#000000" font-family="sans-serif" font-size="14" font-weight="bold" lengthAdjust="spacingAndGlyphs" textLength="132" x="73" y="31.5352">io.vertx.rxjava.core</text><!--class nl.vaneijndhoven.dukes.boarsnest.BoarsNest--><a href="BoarsNest.html" target="_top" xlink:actuate="onRequest" xlink:show="new" xlink:title="BoarsNest.html" xlink:type="simple"><rect fill="#FEFECE" filter="url(#fvb5bioxht2jl)" height="60.9551" id="nl.vaneijndhoven.dukes.boarsnest.BoarsNest" style="stroke: #A80036; stroke-width: 1.5;" width="129" x="75.5" y="151"/><ellipse cx="108.05" cy="167" fill="#ADD1B2" rx="11" ry="11" style="stroke: #A80036; stroke-width: 1.0;"/><path d="M111.0231,172.6431 Q110.4421,172.9419 109.8029,173.0913 Q109.1638,173.2407 108.4582,173.2407 Q105.9514,173.2407 104.6315,171.5889 Q103.3117,169.937 103.3117,166.8159 Q103.3117,163.6865 104.6315,162.0347 Q105.9514,160.3828 108.4582,160.3828 Q109.1638,160.3828 109.8112,160.5322 Q110.4587,160.6816 111.0231,160.9805 L111.0231,163.7031 Q110.3923,163.1221 109.7988,162.8523 Q109.2053,162.5825 108.5744,162.5825 Q107.2297,162.5825 106.5449,163.6492 Q105.8601,164.7158 105.8601,166.8159 Q105.8601,168.9077 106.5449,169.9744 Q107.2297,171.041 108.5744,171.041 Q109.2053,171.041 109.7988,170.7712 Q110.3923,170.5015 111.0231,169.9204 Z "/><text fill="#000000" font-family="sans-serif" font-size="12" lengthAdjust="spacingAndGlyphs" textLength="58" x="125.95" y="171.5352">BoarsNest</text><line style="stroke: #A80036; stroke-width: 1.5;" x1="76.5" x2="203.5" y1="183" y2="183"/><line style="stroke: #A80036; stroke-width: 1.5;" x1="76.5" x2="203.5" y1="191" y2="191"/><ellipse cx="86.5" cy="202.9775" fill="#84BE84" rx="3" ry="3" style="stroke: #038048; stroke-width: 1.0;"/><text fill="#000000" font-family="sans-serif" font-size="11" lengthAdjust="spacingAndGlyphs" text-decoration="underline" textLength="103" x="95.5" y="205.6348">main(String[]): void</text></a><!--class io.vertx.rxjava.core.AbstractVerticle--><rect fill="#FEFECE" filter="url(#fvb5bioxht2jl)" height="48" id="io.vertx.rxjava.core.AbstractVerticle" style="stroke: #A80036; stroke-width: 1.5;" width="123" x="78.5" y="43"/><ellipse cx="93.5" cy="59" fill="#ADD1B2" rx="11" ry="11" style="stroke: #A80036; stroke-width: 1.0;"/><path d="M96.4731,64.6431 Q95.8921,64.9419 95.2529,65.0913 Q94.6138,65.2407 93.9082,65.2407 Q91.4014,65.2407 90.0815,63.5889 Q88.7617,61.937 88.7617,58.8159 Q88.7617,55.6865 90.0815,54.0347 Q91.4014,52.3828 93.9082,52.3828 Q94.6138,52.3828 95.2612,52.5322 Q95.9087,52.6816 96.4731,52.9805 L96.4731,55.7031 Q95.8423,55.1221 95.2488,54.8523 Q94.6553,54.5825 94.0244,54.5825 Q92.6797,54.5825 91.9949,55.6492 Q91.3101,56.7158 91.3101,58.8159 Q91.3101,60.9077 91.9949,61.9744 Q92.6797,63.041 94.0244,63.041 Q94.6553,63.041 95.2488,62.7712 Q95.8423,62.5015 96.4731,61.9204 Z "/><text fill="#000000" font-family="sans-serif" font-size="12" lengthAdjust="spacingAndGlyphs" textLength="91" x="107.5" y="63.5352">AbstractVerticle</text><line style="stroke: #A80036; stroke-width: 1.5;" x1="79.5" x2="200.5" y1="75" y2="75"/><line style="stroke: #A80036; stroke-width: 1.5;" x1="79.5" x2="200.5" y1="83" y2="83"/><!--link io.vertx.rxjava.core.AbstractVerticle to nl.vaneijndhoven.dukes.boarsnest.BoarsNest--><path d="M140,111.2477 C140,124.5296 140,138.7972 140,150.9818 " fill="none" id="io.vertx.rxjava.core.AbstractVerticle-nl.vaneijndhoven.dukes.boarsnest.BoarsNest" style="stroke: #A80036; stroke-width: 1.0;"/><polygon fill="none" points="133.0001,111.003,140,91.003,147.0001,111.0029,133.0001,111.003" style="stroke: #A80036; stroke-width: 1.0;"/><text fill="#888888" font-family="sans-serif" font-size="10" lengthAdjust="spacingAndGlyphs" textLength="182" x="57.5" y="247.668">UMLDoclet 1.1.4, PlantUML 1.2019.05</text><!--
@startuml

    namespace nl.vaneijndhoven.dukes.boarsnest {

        class BoarsNest [[BoarsNest.html]] {
            {static} +main(String[]): void
        }

        class io.vertx.rxjava.core.AbstractVerticle
        io.vertx.rxjava.core.AbstractVerticle <|- - BoarsNest

    }


    center footer UMLDoclet 1.1.4, PlantUML 1.2019.05
@enduml

PlantUML version 1.2019.05(Sat Apr 20 18:45:36 CEST 2019)
(APACHE source distribution)
Java Runtime: Java(TM) SE Runtime Environment
JVM: Java HotSpot(TM) 64-Bit Server VM
Java Version: 1.8.0_152-b16
Operating System: Mac OS X
OS Version: 10.13.6
Default Encoding: UTF-8
Language: de
Country: DE
--></g></svg>