<?xml version="1.0" encoding="UTF-8" standalone="no"?><svg xmlns="http://www.w3.org/2000/svg" xmlns:xlink="http://www.w3.org/1999/xlink" contentScriptType="application/ecmascript" contentStyleType="text/css" height="166px" preserveAspectRatio="none" style="width:346px;height:166px;" version="1.1" viewBox="0 0 346 166" width="346px" zoomAndPan="magnify"><defs><filter height="300%" id="fwq01bmtvophh" width="300%" x="-1" y="-1"><feGaussianBlur result="blurOut" stdDeviation="2.0"/><feColorMatrix in="blurOut" result="blurOut2" type="matrix" values="0 0 0 0 0 0 0 0 0 0 0 0 0 0 0 0 0 0 .4 0"/><feOffset dx="4.0" dy="4.0" in="blurOut2" result="blurOut3"/><feBlend in="SourceGraphic" in2="blurOut3" mode="normal"/></filter></defs><g><!--cluster DebugTools--><polygon fill="#FFFFFF" filter="url(#fwq01bmtvophh)" points="14,16,107,16,114,38.4883,324,38.4883,324,125,14,125,14,16" style="stroke: #000000; stroke-width: 1.5;"/><line style="stroke: #000000; stroke-width: 1.5;" x1="14" x2="114" y1="38.4883" y2="38.4883"/><text fill="#000000" font-family="sans-serif" font-size="14" font-weight="bold" lengthAdjust="spacingAndGlyphs" textLength="87" x="18" y="31.5352">DebugTools</text><!--class DebugTools.VoidTools--><a href="DebugTools.VoidTools.html" target="_top" xlink:actuate="onRequest" xlink:show="new" xlink:title="DebugTools.VoidTools.html" xlink:type="simple"><rect fill="#FEFECE" filter="url(#fwq01bmtvophh)" height="73.9102" id="DebugTools.VoidTools" style="stroke: #A80036; stroke-width: 1.5;" width="294" x="22" y="43"/><ellipse cx="136.25" cy="59" fill="#ADD1B2" rx="11" ry="11" style="stroke: #A80036; stroke-width: 1.0;"/><path d="M139.2231,64.6431 Q138.6421,64.9419 138.0029,65.0913 Q137.3638,65.2407 136.6582,65.2407 Q134.1514,65.2407 132.8315,63.5889 Q131.5117,61.937 131.5117,58.8159 Q131.5117,55.6865 132.8315,54.0347 Q134.1514,52.3828 136.6582,52.3828 Q137.3638,52.3828 138.0112,52.5322 Q138.6587,52.6816 139.2231,52.9805 L139.2231,55.7031 Q138.5923,55.1221 137.9988,54.8523 Q137.4053,54.5825 136.7744,54.5825 Q135.4297,54.5825 134.7449,55.6492 Q134.0601,56.7158 134.0601,58.8159 Q134.0601,60.9077 134.7449,61.9744 Q135.4297,63.041 136.7744,63.041 Q137.4053,63.041 137.9988,62.7712 Q138.5923,62.5015 139.2231,61.9204 Z "/><text fill="#000000" font-family="sans-serif" font-size="12" lengthAdjust="spacingAndGlyphs" textLength="57" x="156.75" y="63.5352">VoidTools</text><line style="stroke: #A80036; stroke-width: 1.5;" x1="23" x2="315" y1="75" y2="75"/><line style="stroke: #A80036; stroke-width: 1.5;" x1="23" x2="315" y1="83" y2="83"/><ellipse cx="33" cy="94.9775" fill="#84BE84" rx="3" ry="3" style="stroke: #038048; stroke-width: 1.0;"/><text fill="#000000" font-family="sans-serif" font-size="11" lengthAdjust="spacingAndGlyphs" textLength="130" x="42" y="97.6348">output(Mat, String): void</text><ellipse cx="33" cy="107.9326" fill="#84BE84" rx="3" ry="3" style="stroke: #038048; stroke-width: 1.0;"/><text fill="#000000" font-family="sans-serif" font-size="11" lengthAdjust="spacingAndGlyphs" textLength="268" x="42" y="110.5898">output(Mat, Collection&lt;Line&gt;, String, Scalar): void</text></a><text fill="#888888" font-family="sans-serif" font-size="10" lengthAdjust="spacingAndGlyphs" textLength="182" x="84" y="152.668">UMLDoclet 1.1.4, PlantUML 1.2019.05</text><!--
@startuml

    class DebugTools.VoidTools [[DebugTools.VoidTools.html]] {
        +output(Mat, String): void
        +output(Mat, Collection<Line>, String, Scalar): void
    }


    center footer UMLDoclet 1.1.4, PlantUML 1.2019.05
@enduml

PlantUML version 1.2019.05(Sat Apr 20 18:45:36 CEST 2019)
(APACHE source distribution)
Java Runtime: Java(TM) SE Runtime Environment
JVM: Java HotSpot(TM) 64-Bit Server VM
Java Version: 1.8.0_191-b12
Operating System: Mac OS X
OS Version: 10.13.6
Default Encoding: UTF-8
Language: de
Country: DE
--></g></svg>