<?xml version="1.0" encoding="UTF-8" standalone="no"?><svg xmlns="http://www.w3.org/2000/svg" xmlns:xlink="http://www.w3.org/1999/xlink" contentScriptType="application/ecmascript" contentStyleType="text/css" height="102px" preserveAspectRatio="none" style="width:194px;height:102px;" version="1.1" viewBox="0 0 194 102" width="194px" zoomAndPan="magnify"><defs><filter height="300%" id="fl29lwqsyuo6w" width="300%" x="-1" y="-1"><feGaussianBlur result="blurOut" stdDeviation="2.0"/><feColorMatrix in="blurOut" result="blurOut2" type="matrix" values="0 0 0 0 0 0 0 0 0 0 0 0 0 0 0 0 0 0 .4 0"/><feOffset dx="4.0" dy="4.0" in="blurOut2" result="blurOut3"/><feBlend in="SourceGraphic" in2="blurOut3" mode="normal"/></filter></defs><g><!--class RemoteCar--><a href="RemoteCar.html" target="_top" xlink:actuate="onRequest" xlink:show="new" xlink:title="RemoteCar.html" xlink:type="simple"><rect fill="#FEFECE" filter="url(#fl29lwqsyuo6w)" height="60.9551" id="RemoteCar" style="stroke: #A80036; stroke-width: 1.5;" width="129" x="20.5" y="8"/><ellipse cx="50.35" cy="24" fill="#ADD1B2" rx="11" ry="11" style="stroke: #A80036; stroke-width: 1.0;"/><path d="M53.3231,29.6431 Q52.7421,29.9419 52.1029,30.0913 Q51.4638,30.2407 50.7582,30.2407 Q48.2514,30.2407 46.9315,28.5889 Q45.6117,26.937 45.6117,23.8159 Q45.6117,20.6865 46.9315,19.0347 Q48.2514,17.3828 50.7582,17.3828 Q51.4638,17.3828 52.1112,17.5322 Q52.7587,17.6816 53.3231,17.9805 L53.3231,20.7031 Q52.6923,20.1221 52.0988,19.8523 Q51.5053,19.5825 50.8744,19.5825 Q49.5297,19.5825 48.8449,20.6492 Q48.1601,21.7158 48.1601,23.8159 Q48.1601,25.9077 48.8449,26.9744 Q49.5297,28.041 50.8744,28.041 Q51.5053,28.041 52.0988,27.7712 Q52.6923,27.5015 53.3231,26.9204 Z "/><text fill="#000000" font-family="sans-serif" font-size="12" lengthAdjust="spacingAndGlyphs" textLength="64" x="67.65" y="28.5352">RemoteCar</text><line style="stroke: #A80036; stroke-width: 1.5;" x1="21.5" x2="148.5" y1="40" y2="40"/><line style="stroke: #A80036; stroke-width: 1.5;" x1="21.5" x2="148.5" y1="48" y2="48"/><ellipse cx="31.5" cy="59.9775" fill="#84BE84" rx="3" ry="3" style="stroke: #038048; stroke-width: 1.0;"/><text fill="#000000" font-family="sans-serif" font-size="11" lengthAdjust="spacingAndGlyphs" text-decoration="underline" textLength="103" x="40.5" y="62.6348">main(String[]): void</text></a><text fill="#888888" font-family="sans-serif" font-size="10" lengthAdjust="spacingAndGlyphs" textLength="182" x="0" y="88.668">UMLDoclet 1.1.4, PlantUML 1.2019.05</text><!--
@startuml

    class RemoteCar [[RemoteCar.html]] {
        {static} +main(String[]): void
    }


    center footer UMLDoclet 1.1.4, PlantUML 1.2019.05
@enduml

PlantUML version 1.2019.05(Sat Apr 20 18:45:36 CEST 2019)
(APACHE source distribution)
Java Runtime: Java(TM) SE Runtime Environment
JVM: Java HotSpot(TM) 64-Bit Server VM
Java Version: 1.8.0_191-b12
Operating System: Mac OS X
OS Version: 10.13.6
Default Encoding: UTF-8
Language: de
Country: DE
--></g></svg>