<?xml version="1.0" encoding="UTF-8" standalone="no"?><svg xmlns="http://www.w3.org/2000/svg" xmlns:xlink="http://www.w3.org/1999/xlink" contentScriptType="application/ecmascript" contentStyleType="text/css" height="455px" preserveAspectRatio="none" style="width:742px;height:455px;" version="1.1" viewBox="0 0 742 455" width="742px" zoomAndPan="magnify"><defs><filter height="300%" id="fq7focagzqaun" width="300%" x="-1" y="-1"><feGaussianBlur result="blurOut" stdDeviation="2.0"/><feColorMatrix in="blurOut" result="blurOut2" type="matrix" values="0 0 0 0 0 0 0 0 0 0 0 0 0 0 0 0 0 0 .4 0"/><feOffset dx="4.0" dy="4.0" in="blurOut2" result="blurOut3"/><feBlend in="SourceGraphic" in2="blurOut3" mode="normal"/></filter></defs><g><!--cluster org.rcdukes.detect.linedetection--><polygon fill="#FFFFFF" filter="url(#fq7focagzqaun)" points="14,137,247,137,254,159.4883,720,159.4883,720,414,14,414,14,137" style="stroke: #000000; stroke-width: 1.5;"/><line style="stroke: #000000; stroke-width: 1.5;" x1="14" x2="254" y1="159.4883" y2="159.4883"/><text fill="#000000" font-family="sans-serif" font-size="14" font-weight="bold" lengthAdjust="spacingAndGlyphs" textLength="227" x="18" y="152.5352">org.rcdukes.detect.linedetection</text><!--cluster org.rcdukes.detectors--><polygon fill="#FFFFFF" filter="url(#fq7focagzqaun)" points="122,16,281,16,288,38.4883,324,38.4883,324,112,122,112,122,16" style="stroke: #000000; stroke-width: 1.5;"/><line style="stroke: #000000; stroke-width: 1.5;" x1="122" x2="288" y1="38.4883" y2="38.4883"/><text fill="#000000" font-family="sans-serif" font-size="14" font-weight="bold" lengthAdjust="spacingAndGlyphs" textLength="153" x="126" y="31.5352">org.rcdukes.detectors</text><!--class org.rcdukes.detect.linedetection.LineFilter--><a href="LineFilter.html" target="_top" xlink:actuate="onRequest" xlink:show="new" xlink:title="LineFilter.html" xlink:type="simple"><rect fill="#FEFECE" filter="url(#fq7focagzqaun)" height="86.8652" id="org.rcdukes.detect.linedetection.LineFilter" style="stroke: #A80036; stroke-width: 1.5;" width="253" x="458.5" y="241.5"/><ellipse cx="555.25" cy="257.5" fill="#ADD1B2" rx="11" ry="11" style="stroke: #A80036; stroke-width: 1.0;"/><path d="M558.2231,263.1431 Q557.6421,263.4419 557.0029,263.5913 Q556.3638,263.7407 555.6582,263.7407 Q553.1514,263.7407 551.8315,262.0889 Q550.5117,260.437 550.5117,257.3159 Q550.5117,254.1865 551.8315,252.5347 Q553.1514,250.8828 555.6582,250.8828 Q556.3638,250.8828 557.0112,251.0322 Q557.6587,251.1816 558.2231,251.4805 L558.2231,254.2031 Q557.5923,253.6221 556.9988,253.3523 Q556.4053,253.0825 555.7744,253.0825 Q554.4297,253.0825 553.7449,254.1492 Q553.0601,255.2158 553.0601,257.3159 Q553.0601,259.4077 553.7449,260.4744 Q554.4297,261.541 555.7744,261.541 Q556.4053,261.541 556.9988,261.2712 Q557.5923,261.0015 558.2231,260.4204 Z "/><text fill="#000000" font-family="sans-serif" font-size="12" lengthAdjust="spacingAndGlyphs" textLength="51" x="575.75" y="262.0352">LineFilter</text><line style="stroke: #A80036; stroke-width: 1.5;" x1="459.5" x2="710.5" y1="273.5" y2="273.5"/><line style="stroke: #A80036; stroke-width: 1.5;" x1="459.5" x2="710.5" y1="281.5" y2="281.5"/><ellipse cx="469.5" cy="293.4775" fill="#84BE84" rx="3" ry="3" style="stroke: #038048; stroke-width: 1.0;"/><text fill="#000000" font-family="sans-serif" font-size="11" lengthAdjust="spacingAndGlyphs" textLength="186" x="478.5" y="296.1348">LineFilter(double, double, boolean)</text><ellipse cx="469.5" cy="306.4326" fill="#84BE84" rx="3" ry="3" style="stroke: #038048; stroke-width: 1.0;"/><text fill="#000000" font-family="sans-serif" font-size="11" lengthAdjust="spacingAndGlyphs" textLength="227" x="478.5" y="309.0898">filter(Collection&lt;Line&gt;): Collection&lt;Line&gt;</text><ellipse cx="469.5" cy="319.3877" fill="#84BE84" rx="3" ry="3" style="stroke: #038048; stroke-width: 1.0;"/><text fill="#000000" font-family="sans-serif" font-size="11" lengthAdjust="spacingAndGlyphs" textLength="90" x="478.5" y="322.0449">debug(Mat): void</text></a><!--class org.rcdukes.detect.linedetection.HoughLinesLineDetector--><a href="HoughLinesLineDetector.html" target="_top" xlink:actuate="onRequest" xlink:show="new" xlink:title="HoughLinesLineDetector.html" xlink:type="simple"><rect fill="#FEFECE" filter="url(#fq7focagzqaun)" height="242.3262" id="org.rcdukes.detect.linedetection.HoughLinesLineDetector" style="stroke: #A80036; stroke-width: 1.5;" width="401" x="22.5" y="164"/><ellipse cx="149.75" cy="180" fill="#ADD1B2" rx="11" ry="11" style="stroke: #A80036; stroke-width: 1.0;"/><path d="M152.7231,185.6431 Q152.1421,185.9419 151.5029,186.0913 Q150.8638,186.2407 150.1582,186.2407 Q147.6514,186.2407 146.3315,184.5889 Q145.0117,182.937 145.0117,179.8159 Q145.0117,176.6865 146.3315,175.0347 Q147.6514,173.3828 150.1582,173.3828 Q150.8638,173.3828 151.5112,173.5322 Q152.1587,173.6816 152.7231,173.9805 L152.7231,176.7031 Q152.0923,176.1221 151.4988,175.8523 Q150.9053,175.5825 150.2744,175.5825 Q148.9297,175.5825 148.2449,176.6492 Q147.5601,177.7158 147.5601,179.8159 Q147.5601,181.9077 148.2449,182.9744 Q148.9297,184.041 150.2744,184.041 Q150.9053,184.041 151.4988,183.7712 Q152.0923,183.5015 152.7231,182.9204 Z "/><text fill="#000000" font-family="sans-serif" font-size="12" lengthAdjust="spacingAndGlyphs" textLength="138" x="170.25" y="184.5352">HoughLinesLineDetector</text><line style="stroke: #A80036; stroke-width: 1.5;" x1="23.5" x2="422.5" y1="196" y2="196"/><line style="stroke: #A80036; stroke-width: 1.5;" x1="23.5" x2="422.5" y1="204" y2="204"/><ellipse cx="33.5" cy="215.9775" fill="#84BE84" rx="3" ry="3" style="stroke: #038048; stroke-width: 1.0;"/><text fill="#000000" font-family="sans-serif" font-size="11" lengthAdjust="spacingAndGlyphs" textLength="140" x="42.5" y="218.6348">HoughLinesLineDetector()</text><ellipse cx="33.5" cy="228.9326" fill="#84BE84" rx="3" ry="3" style="stroke: #038048; stroke-width: 1.0;"/><text fill="#000000" font-family="sans-serif" font-size="11" lengthAdjust="spacingAndGlyphs" textLength="375" x="42.5" y="231.5898">HoughLinesLineDetector(boolean, double, double, int, double, double)</text><ellipse cx="33.5" cy="241.8877" fill="#84BE84" rx="3" ry="3" style="stroke: #038048; stroke-width: 1.0;"/><text fill="#000000" font-family="sans-serif" font-size="11" lengthAdjust="spacingAndGlyphs" textLength="160" x="42.5" y="244.5449">detect(Mat): Collection&lt;Line&gt;</text><ellipse cx="33.5" cy="254.8428" fill="#84BE84" rx="3" ry="3" style="stroke: #038048; stroke-width: 1.0;"/><text fill="#000000" font-family="sans-serif" font-size="11" lengthAdjust="spacingAndGlyphs" textLength="89" x="42.5" y="257.5">getRho(): double</text><ellipse cx="33.5" cy="267.7979" fill="#84BE84" rx="3" ry="3" style="stroke: #038048; stroke-width: 1.0;"/><text fill="#000000" font-family="sans-serif" font-size="11" lengthAdjust="spacingAndGlyphs" textLength="111" x="42.5" y="270.4551">setRho(double): void</text><ellipse cx="33.5" cy="280.7529" fill="#84BE84" rx="3" ry="3" style="stroke: #038048; stroke-width: 1.0;"/><text fill="#000000" font-family="sans-serif" font-size="11" lengthAdjust="spacingAndGlyphs" textLength="98" x="42.5" y="283.4102">getTheta(): double</text><ellipse cx="33.5" cy="293.708" fill="#84BE84" rx="3" ry="3" style="stroke: #038048; stroke-width: 1.0;"/><text fill="#000000" font-family="sans-serif" font-size="11" lengthAdjust="spacingAndGlyphs" textLength="120" x="42.5" y="296.3652">setTheta(double): void</text><ellipse cx="33.5" cy="306.6631" fill="#84BE84" rx="3" ry="3" style="stroke: #038048; stroke-width: 1.0;"/><text fill="#000000" font-family="sans-serif" font-size="11" lengthAdjust="spacingAndGlyphs" textLength="100" x="42.5" y="309.3203">getThreshold(): int</text><ellipse cx="33.5" cy="319.6182" fill="#84BE84" rx="3" ry="3" style="stroke: #038048; stroke-width: 1.0;"/><text fill="#000000" font-family="sans-serif" font-size="11" lengthAdjust="spacingAndGlyphs" textLength="122" x="42.5" y="322.2754">setThreshold(int): void</text><ellipse cx="33.5" cy="332.5732" fill="#84BE84" rx="3" ry="3" style="stroke: #038048; stroke-width: 1.0;"/><text fill="#000000" font-family="sans-serif" font-size="11" lengthAdjust="spacingAndGlyphs" textLength="146" x="42.5" y="335.2305">getMinLineLength(): double</text><ellipse cx="33.5" cy="345.5283" fill="#84BE84" rx="3" ry="3" style="stroke: #038048; stroke-width: 1.0;"/><text fill="#000000" font-family="sans-serif" font-size="11" lengthAdjust="spacingAndGlyphs" textLength="168" x="42.5" y="348.1855">setMinLineLength(double): void</text><ellipse cx="33.5" cy="358.4834" fill="#84BE84" rx="3" ry="3" style="stroke: #038048; stroke-width: 1.0;"/><text fill="#000000" font-family="sans-serif" font-size="11" lengthAdjust="spacingAndGlyphs" textLength="133" x="42.5" y="361.1406">getMaxLineGap(): double</text><ellipse cx="33.5" cy="371.4385" fill="#84BE84" rx="3" ry="3" style="stroke: #038048; stroke-width: 1.0;"/><text fill="#000000" font-family="sans-serif" font-size="11" lengthAdjust="spacingAndGlyphs" textLength="155" x="42.5" y="374.0957">setMaxLineGap(double): void</text><ellipse cx="33.5" cy="384.3936" fill="#84BE84" rx="3" ry="3" style="stroke: #038048; stroke-width: 1.0;"/><text fill="#000000" font-family="sans-serif" font-size="11" lengthAdjust="spacingAndGlyphs" textLength="132" x="42.5" y="387.0508">isProbabilistic(): boolean</text><ellipse cx="33.5" cy="397.3486" fill="#84BE84" rx="3" ry="3" style="stroke: #038048; stroke-width: 1.0;"/><text fill="#000000" font-family="sans-serif" font-size="11" lengthAdjust="spacingAndGlyphs" textLength="162" x="42.5" y="400.0059">setProbabilistic(boolean): void</text></a><!--class org.rcdukes.detectors.LineDetector--><rect fill="#FEFECE" filter="url(#fq7focagzqaun)" height="60.9551" id="org.rcdukes.detectors.LineDetector" style="stroke: #A80036; stroke-width: 1.5;" width="186" x="130" y="43"/><ellipse cx="182.75" cy="59" fill="#B4A7E5" rx="11" ry="11" style="stroke: #A80036; stroke-width: 1.0;"/><path d="M178.6777,54.7651 L178.6777,52.6069 L186.0571,52.6069 L186.0571,54.7651 L183.5918,54.7651 L183.5918,62.8418 L186.0571,62.8418 L186.0571,65 L178.6777,65 L178.6777,62.8418 L181.1431,62.8418 L181.1431,54.7651 Z "/><text fill="#000000" font-family="sans-serif" font-size="12" font-style="italic" lengthAdjust="spacingAndGlyphs" textLength="72" x="203.25" y="63.5352">LineDetector</text><line style="stroke: #A80036; stroke-width: 1.5;" x1="131" x2="315" y1="75" y2="75"/><line style="stroke: #A80036; stroke-width: 1.5;" x1="131" x2="315" y1="83" y2="83"/><ellipse cx="141" cy="94.9775" fill="#84BE84" rx="3" ry="3" style="stroke: #038048; stroke-width: 1.0;"/><text fill="#000000" font-family="sans-serif" font-size="11" font-style="italic" lengthAdjust="spacingAndGlyphs" textLength="160" x="150" y="97.6348">detect(Mat): Collection&lt;Line&gt;</text><!--link org.rcdukes.detectors.LineDetector to org.rcdukes.detect.linedetection.HoughLinesLineDetector--><path d="M223,124.4058 C223,136.5129 223,149.946 223,163.739 " fill="none" id="org.rcdukes.detectors.LineDetector-org.rcdukes.detect.linedetection.HoughLinesLineDetector" style="stroke: #A80036; stroke-width: 1.0; stroke-dasharray: 7.0,7.0;"/><polygon fill="none" points="216.0001,124.254,223,104.2539,230.0001,124.2539,216.0001,124.254" style="stroke: #A80036; stroke-width: 1.0;"/><text fill="#888888" font-family="sans-serif" font-size="10" lengthAdjust="spacingAndGlyphs" textLength="182" x="282" y="441.668">UMLDoclet 1.1.4, PlantUML 1.2019.05</text><!--
@startuml

    namespace org.rcdukes.detect.linedetection {

        class LineFilter [[LineFilter.html]] {
            +LineFilter(double, double, boolean)
            +filter(Collection<Line>): Collection<Line>
            +debug(Mat): void
        }

        class HoughLinesLineDetector [[HoughLinesLineDetector.html]] {
            +HoughLinesLineDetector()
            +HoughLinesLineDetector(boolean, double, double, int, double, double)
            +detect(Mat): Collection<Line>
            +getRho(): double
            +setRho(double): void
            +getTheta(): double
            +setTheta(double): void
            +getThreshold(): int
            +setThreshold(int): void
            +getMinLineLength(): double
            +setMinLineLength(double): void
            +getMaxLineGap(): double
            +setMaxLineGap(double): void
            +isProbabilistic(): boolean
            +setProbabilistic(boolean): void
        }

        interface org.rcdukes.detectors.LineDetector {
            {abstract} +detect(Mat): Collection<Line>
        }
        org.rcdukes.detectors.LineDetector <|.. HoughLinesLineDetector

    }


    center footer UMLDoclet 1.1.4, PlantUML 1.2019.05
@enduml

PlantUML version 1.2019.05(Sat Apr 20 18:45:36 CEST 2019)
(APACHE source distribution)
Java Runtime: Java(TM) SE Runtime Environment
JVM: Java HotSpot(TM) 64-Bit Server VM
Java Version: 1.8.0_152-b16
Operating System: Mac OS X
OS Version: 10.13.6
Default Encoding: UTF-8
Language: de
Country: DE
--></g></svg>