<?xml version="1.0" encoding="UTF-8" standalone="no"?><svg xmlns="http://www.w3.org/2000/svg" xmlns:xlink="http://www.w3.org/1999/xlink" contentScriptType="application/ecmascript" contentStyleType="text/css" height="261px" preserveAspectRatio="none" style="width:333px;height:261px;" version="1.1" viewBox="0 0 333 261" width="333px" zoomAndPan="magnify"><defs><filter height="300%" id="f1tdqgsawh05hz" width="300%" x="-1" y="-1"><feGaussianBlur result="blurOut" stdDeviation="2.0"/><feColorMatrix in="blurOut" result="blurOut2" type="matrix" values="0 0 0 0 0 0 0 0 0 0 0 0 0 0 0 0 0 0 .4 0"/><feOffset dx="4.0" dy="4.0" in="blurOut2" result="blurOut3"/><feBlend in="SourceGraphic" in2="blurOut3" mode="normal"/></filter></defs><g><!--cluster nl.vaneijndhoven.dukes.unclejesse--><polygon fill="#FFFFFF" filter="url(#f1tdqgsawh05hz)" points="33,124,284,124,291,146.4883,311,146.4883,311,220,33,220,33,124" style="stroke: #000000; stroke-width: 1.5;"/><line style="stroke: #000000; stroke-width: 1.5;" x1="33" x2="291" y1="146.4883" y2="146.4883"/><text fill="#000000" font-family="sans-serif" font-size="14" font-weight="bold" lengthAdjust="spacingAndGlyphs" textLength="245" x="37" y="139.5352">nl.vaneijndhoven.dukes.unclejesse</text><!--cluster io.vertx.rxjava.core--><polygon fill="#FFFFFF" filter="url(#f1tdqgsawh05hz)" points="14,16,152,16,159,38.4883,162,38.4883,162,99,14,99,14,16" style="stroke: #000000; stroke-width: 1.5;"/><line style="stroke: #000000; stroke-width: 1.5;" x1="14" x2="159" y1="38.4883" y2="38.4883"/><text fill="#000000" font-family="sans-serif" font-size="14" font-weight="bold" lengthAdjust="spacingAndGlyphs" textLength="132" x="18" y="31.5352">io.vertx.rxjava.core</text><!--class nl.vaneijndhoven.dukes.unclejesse.LaneDetectionGUI--><a href="LaneDetectionGUI.html" target="_top" xlink:actuate="onRequest" xlink:show="new" xlink:title="LaneDetectionGUI.html" xlink:type="simple"><rect fill="#FEFECE" filter="url(#f1tdqgsawh05hz)" height="48" id="nl.vaneijndhoven.dukes.unclejesse.LaneDetectionGUI" style="stroke: #A80036; stroke-width: 1.5;" width="133" x="169.5" y="157.5"/><ellipse cx="184.5" cy="173.5" fill="#ADD1B2" rx="11" ry="11" style="stroke: #A80036; stroke-width: 1.0;"/><path d="M187.4731,179.1431 Q186.8921,179.4419 186.2529,179.5913 Q185.6138,179.7407 184.9082,179.7407 Q182.4014,179.7407 181.0815,178.0889 Q179.7617,176.437 179.7617,173.3159 Q179.7617,170.1865 181.0815,168.5347 Q182.4014,166.8828 184.9082,166.8828 Q185.6138,166.8828 186.2612,167.0322 Q186.9087,167.1816 187.4731,167.4805 L187.4731,170.2031 Q186.8423,169.6221 186.2488,169.3523 Q185.6553,169.0825 185.0244,169.0825 Q183.6797,169.0825 182.9949,170.1492 Q182.3101,171.2158 182.3101,173.3159 Q182.3101,175.4077 182.9949,176.4744 Q183.6797,177.541 185.0244,177.541 Q185.6553,177.541 186.2488,177.2712 Q186.8423,177.0015 187.4731,176.4204 Z "/><text fill="#000000" font-family="sans-serif" font-size="12" lengthAdjust="spacingAndGlyphs" textLength="101" x="198.5" y="178.0352">LaneDetectionGUI</text><line style="stroke: #A80036; stroke-width: 1.5;" x1="170.5" x2="301.5" y1="189.5" y2="189.5"/><line style="stroke: #A80036; stroke-width: 1.5;" x1="170.5" x2="301.5" y1="197.5" y2="197.5"/></a><!--class nl.vaneijndhoven.dukes.unclejesse.UncleJesse--><a href="UncleJesse.html" target="_top" xlink:actuate="onRequest" xlink:show="new" xlink:title="UncleJesse.html" xlink:type="simple"><rect fill="#FEFECE" filter="url(#f1tdqgsawh05hz)" height="60.9551" id="nl.vaneijndhoven.dukes.unclejesse.UncleJesse" style="stroke: #A80036; stroke-width: 1.5;" width="93" x="41.5" y="151"/><ellipse cx="56.5" cy="167" fill="#ADD1B2" rx="11" ry="11" style="stroke: #A80036; stroke-width: 1.0;"/><path d="M59.4731,172.6431 Q58.8921,172.9419 58.2529,173.0913 Q57.6138,173.2407 56.9082,173.2407 Q54.4014,173.2407 53.0815,171.5889 Q51.7617,169.937 51.7617,166.8159 Q51.7617,163.6865 53.0815,162.0347 Q54.4014,160.3828 56.9082,160.3828 Q57.6138,160.3828 58.2612,160.5322 Q58.9087,160.6816 59.4731,160.9805 L59.4731,163.7031 Q58.8423,163.1221 58.2488,162.8523 Q57.6553,162.5825 57.0244,162.5825 Q55.6797,162.5825 54.9949,163.6492 Q54.3101,164.7158 54.3101,166.8159 Q54.3101,168.9077 54.9949,169.9744 Q55.6797,171.041 57.0244,171.041 Q57.6553,171.041 58.2488,170.7712 Q58.8423,170.5015 59.4731,169.9204 Z "/><text fill="#000000" font-family="sans-serif" font-size="12" lengthAdjust="spacingAndGlyphs" textLength="61" x="70.5" y="171.5352">UncleJesse</text><line style="stroke: #A80036; stroke-width: 1.5;" x1="42.5" x2="133.5" y1="183" y2="183"/><line style="stroke: #A80036; stroke-width: 1.5;" x1="42.5" x2="133.5" y1="191" y2="191"/><ellipse cx="52.5" cy="202.9775" fill="#84BE84" rx="3" ry="3" style="stroke: #038048; stroke-width: 1.0;"/><text fill="#000000" font-family="sans-serif" font-size="11" lengthAdjust="spacingAndGlyphs" textLength="62" x="61.5" y="205.6348">start(): void</text></a><!--class io.vertx.rxjava.core.AbstractVerticle--><rect fill="#FEFECE" filter="url(#f1tdqgsawh05hz)" height="48" id="io.vertx.rxjava.core.AbstractVerticle" style="stroke: #A80036; stroke-width: 1.5;" width="123" x="26.5" y="43"/><ellipse cx="41.5" cy="59" fill="#ADD1B2" rx="11" ry="11" style="stroke: #A80036; stroke-width: 1.0;"/><path d="M44.4731,64.6431 Q43.8921,64.9419 43.2529,65.0913 Q42.6138,65.2407 41.9082,65.2407 Q39.4014,65.2407 38.0815,63.5889 Q36.7617,61.937 36.7617,58.8159 Q36.7617,55.6865 38.0815,54.0347 Q39.4014,52.3828 41.9082,52.3828 Q42.6138,52.3828 43.2612,52.5322 Q43.9087,52.6816 44.4731,52.9805 L44.4731,55.7031 Q43.8423,55.1221 43.2488,54.8523 Q42.6553,54.5825 42.0244,54.5825 Q40.6797,54.5825 39.9949,55.6492 Q39.3101,56.7158 39.3101,58.8159 Q39.3101,60.9077 39.9949,61.9744 Q40.6797,63.041 42.0244,63.041 Q42.6553,63.041 43.2488,62.7712 Q43.8423,62.5015 44.4731,61.9204 Z "/><text fill="#000000" font-family="sans-serif" font-size="12" lengthAdjust="spacingAndGlyphs" textLength="91" x="55.5" y="63.5352">AbstractVerticle</text><line style="stroke: #A80036; stroke-width: 1.5;" x1="27.5" x2="148.5" y1="75" y2="75"/><line style="stroke: #A80036; stroke-width: 1.5;" x1="27.5" x2="148.5" y1="83" y2="83"/><!--link io.vertx.rxjava.core.AbstractVerticle to nl.vaneijndhoven.dukes.unclejesse.UncleJesse--><path d="M88,111.2477 C88,124.5296 88,138.7972 88,150.9818 " fill="none" id="io.vertx.rxjava.core.AbstractVerticle-nl.vaneijndhoven.dukes.unclejesse.UncleJesse" style="stroke: #A80036; stroke-width: 1.0;"/><polygon fill="none" points="81.0001,111.003,88,91.003,95.0001,111.0029,81.0001,111.003" style="stroke: #A80036; stroke-width: 1.0;"/><text fill="#888888" font-family="sans-serif" font-size="10" lengthAdjust="spacingAndGlyphs" textLength="182" x="77.5" y="247.668">UMLDoclet 1.1.4, PlantUML 1.2019.05</text><!--
@startuml

    namespace nl.vaneijndhoven.dukes.unclejesse {

        class LaneDetectionGUI [[LaneDetectionGUI.html]] {
        }

        class UncleJesse [[UncleJesse.html]] {
            +start(): void
        }

        class io.vertx.rxjava.core.AbstractVerticle
        io.vertx.rxjava.core.AbstractVerticle <|- - UncleJesse

    }


    center footer UMLDoclet 1.1.4, PlantUML 1.2019.05
@enduml

PlantUML version 1.2019.05(Sat Apr 20 18:45:36 CEST 2019)
(APACHE source distribution)
Java Runtime: Java(TM) SE Runtime Environment
JVM: Java HotSpot(TM) 64-Bit Server VM
Java Version: 1.8.0_191-b12
Operating System: Mac OS X
OS Version: 10.13.6
Default Encoding: UTF-8
Language: de
Country: DE
--></g></svg>