<?xml version="1.0" encoding="UTF-8" standalone="no"?><svg xmlns="http://www.w3.org/2000/svg" xmlns:xlink="http://www.w3.org/1999/xlink" contentScriptType="application/ecmascript" contentStyleType="text/css" height="395px" preserveAspectRatio="none" style="width:736px;height:395px;" version="1.1" viewBox="0 0 736 395" width="736px" zoomAndPan="magnify"><defs><filter height="300%" id="f32dx41om3ik8" width="300%" x="-1" y="-1"><feGaussianBlur result="blurOut" stdDeviation="2.0"/><feColorMatrix in="blurOut" result="blurOut2" type="matrix" values="0 0 0 0 0 0 0 0 0 0 0 0 0 0 0 0 0 0 .4 0"/><feOffset dx="4.0" dy="4.0" in="blurOut2" result="blurOut3"/><feBlend in="SourceGraphic" in2="blurOut3" mode="normal"/></filter></defs><g><!--cluster nl.vaneijndhoven.dukes.unclejesse--><polygon fill="#FFFFFF" filter="url(#f32dx41om3ik8)" points="34,137,285,137,292,159.4883,714,159.4883,714,354,34,354,34,137" style="stroke: #000000; stroke-width: 1.5;"/><line style="stroke: #000000; stroke-width: 1.5;" x1="34" x2="292" y1="159.4883" y2="159.4883"/><text fill="#000000" font-family="sans-serif" font-size="14" font-weight="bold" lengthAdjust="spacingAndGlyphs" textLength="245" x="38" y="152.5352">nl.vaneijndhoven.dukes.unclejesse</text><!--cluster io.vertx.rxjava.core--><polygon fill="#FFFFFF" filter="url(#f32dx41om3ik8)" points="14,22.5,152,22.5,159,44.9883,162,44.9883,162,105.5,14,105.5,14,22.5" style="stroke: #000000; stroke-width: 1.5;"/><line style="stroke: #000000; stroke-width: 1.5;" x1="14" x2="159" y1="44.9883" y2="44.9883"/><text fill="#000000" font-family="sans-serif" font-size="14" font-weight="bold" lengthAdjust="spacingAndGlyphs" textLength="132" x="18" y="38.0352">io.vertx.rxjava.core</text><!--cluster javafx.application--><polygon fill="#FFFFFF" filter="url(#f32dx41om3ik8)" points="171,16,303,16,310,38.4883,313,38.4883,313,112,171,112,171,16" style="stroke: #000000; stroke-width: 1.5;"/><line style="stroke: #000000; stroke-width: 1.5;" x1="171" x2="310" y1="38.4883" y2="38.4883"/><text fill="#000000" font-family="sans-serif" font-size="14" font-weight="bold" lengthAdjust="spacingAndGlyphs" textLength="126" x="175" y="31.5352">javafx.application</text><!--class nl.vaneijndhoven.dukes.unclejesse.LaneDetectionGUI--><a href="LaneDetectionGUI.html" target="_top" xlink:actuate="onRequest" xlink:show="new" xlink:title="LaneDetectionGUI.html" xlink:type="simple"><rect fill="#FEFECE" filter="url(#f32dx41om3ik8)" height="48" id="nl.vaneijndhoven.dukes.unclejesse.LaneDetectionGUI" style="stroke: #A80036; stroke-width: 1.5;" width="133" x="342.5" y="177"/><ellipse cx="357.5" cy="193" fill="#ADD1B2" rx="11" ry="11" style="stroke: #A80036; stroke-width: 1.0;"/><path d="M360.4731,198.6431 Q359.8921,198.9419 359.2529,199.0913 Q358.6138,199.2407 357.9082,199.2407 Q355.4014,199.2407 354.0815,197.5889 Q352.7617,195.937 352.7617,192.8159 Q352.7617,189.6865 354.0815,188.0347 Q355.4014,186.3828 357.9082,186.3828 Q358.6138,186.3828 359.2612,186.5322 Q359.9087,186.6816 360.4731,186.9805 L360.4731,189.7031 Q359.8423,189.1221 359.2488,188.8523 Q358.6553,188.5825 358.0244,188.5825 Q356.6797,188.5825 355.9949,189.6492 Q355.3101,190.7158 355.3101,192.8159 Q355.3101,194.9077 355.9949,195.9744 Q356.6797,197.041 358.0244,197.041 Q358.6553,197.041 359.2488,196.7712 Q359.8423,196.5015 360.4731,195.9204 Z "/><text fill="#000000" font-family="sans-serif" font-size="12" lengthAdjust="spacingAndGlyphs" textLength="101" x="371.5" y="197.5352">LaneDetectionGUI</text><line style="stroke: #A80036; stroke-width: 1.5;" x1="343.5" x2="474.5" y1="209" y2="209"/><line style="stroke: #A80036; stroke-width: 1.5;" x1="343.5" x2="474.5" y1="217" y2="217"/></a><!--class nl.vaneijndhoven.dukes.unclejesse.StartLightDetectionController--><a href="StartLightDetectionController.html" target="_top" xlink:actuate="onRequest" xlink:show="new" xlink:title="StartLightDetectionController.html" xlink:type="simple"><rect fill="#FEFECE" filter="url(#f32dx41om3ik8)" height="48" id="nl.vaneijndhoven.dukes.unclejesse.StartLightDetectionController" style="stroke: #A80036; stroke-width: 1.5;" width="195" x="510.5" y="177"/><ellipse cx="525.5" cy="193" fill="#ADD1B2" rx="11" ry="11" style="stroke: #A80036; stroke-width: 1.0;"/><path d="M528.4731,198.6431 Q527.8921,198.9419 527.2529,199.0913 Q526.6138,199.2407 525.9082,199.2407 Q523.4014,199.2407 522.0815,197.5889 Q520.7617,195.937 520.7617,192.8159 Q520.7617,189.6865 522.0815,188.0347 Q523.4014,186.3828 525.9082,186.3828 Q526.6138,186.3828 527.2612,186.5322 Q527.9087,186.6816 528.4731,186.9805 L528.4731,189.7031 Q527.8423,189.1221 527.2488,188.8523 Q526.6553,188.5825 526.0244,188.5825 Q524.6797,188.5825 523.9949,189.6492 Q523.3101,190.7158 523.3101,192.8159 Q523.3101,194.9077 523.9949,195.9744 Q524.6797,197.041 526.0244,197.041 Q526.6553,197.041 527.2488,196.7712 Q527.8423,196.5015 528.4731,195.9204 Z "/><text fill="#000000" font-family="sans-serif" font-size="12" lengthAdjust="spacingAndGlyphs" textLength="163" x="539.5" y="197.5352">StartLightDetectionController</text><line style="stroke: #A80036; stroke-width: 1.5;" x1="511.5" x2="704.5" y1="209" y2="209"/><line style="stroke: #A80036; stroke-width: 1.5;" x1="511.5" x2="704.5" y1="217" y2="217"/></a><!--class nl.vaneijndhoven.dukes.unclejesse.LaneDetectionController--><a href="LaneDetectionController.html" target="_top" xlink:actuate="onRequest" xlink:show="new" xlink:title="LaneDetectionController.html" xlink:type="simple"><rect fill="#FEFECE" filter="url(#f32dx41om3ik8)" height="48" id="nl.vaneijndhoven.dukes.unclejesse.LaneDetectionController" style="stroke: #A80036; stroke-width: 1.5;" width="169" x="324.5" y="298"/><ellipse cx="339.5" cy="314" fill="#ADD1B2" rx="11" ry="11" style="stroke: #A80036; stroke-width: 1.0;"/><path d="M342.4731,319.6431 Q341.8921,319.9419 341.2529,320.0913 Q340.6138,320.2407 339.9082,320.2407 Q337.4014,320.2407 336.0815,318.5889 Q334.7617,316.937 334.7617,313.8159 Q334.7617,310.6865 336.0815,309.0347 Q337.4014,307.3828 339.9082,307.3828 Q340.6138,307.3828 341.2612,307.5322 Q341.9087,307.6816 342.4731,307.9805 L342.4731,310.7031 Q341.8423,310.1221 341.2488,309.8523 Q340.6553,309.5825 340.0244,309.5825 Q338.6797,309.5825 337.9949,310.6492 Q337.3101,311.7158 337.3101,313.8159 Q337.3101,315.9077 337.9949,316.9744 Q338.6797,318.041 340.0244,318.041 Q340.6553,318.041 341.2488,317.7712 Q341.8423,317.5015 342.4731,316.9204 Z "/><text fill="#000000" font-family="sans-serif" font-size="12" lengthAdjust="spacingAndGlyphs" textLength="137" x="353.5" y="318.5352">LaneDetectionController</text><line style="stroke: #A80036; stroke-width: 1.5;" x1="325.5" x2="492.5" y1="330" y2="330"/><line style="stroke: #A80036; stroke-width: 1.5;" x1="325.5" x2="492.5" y1="338" y2="338"/></a><!--class nl.vaneijndhoven.dukes.unclejesse.StartLightDetectionApp--><a href="StartLightDetectionApp.html" target="_top" xlink:actuate="onRequest" xlink:show="new" xlink:title="StartLightDetectionApp.html" xlink:type="simple"><rect fill="#FEFECE" filter="url(#f32dx41om3ik8)" height="48" id="nl.vaneijndhoven.dukes.unclejesse.StartLightDetectionApp" style="stroke: #A80036; stroke-width: 1.5;" width="163" x="528.5" y="298"/><ellipse cx="543.5" cy="314" fill="#ADD1B2" rx="11" ry="11" style="stroke: #A80036; stroke-width: 1.0;"/><path d="M546.4731,319.6431 Q545.8921,319.9419 545.2529,320.0913 Q544.6138,320.2407 543.9082,320.2407 Q541.4014,320.2407 540.0815,318.5889 Q538.7617,316.937 538.7617,313.8159 Q538.7617,310.6865 540.0815,309.0347 Q541.4014,307.3828 543.9082,307.3828 Q544.6138,307.3828 545.2612,307.5322 Q545.9087,307.6816 546.4731,307.9805 L546.4731,310.7031 Q545.8423,310.1221 545.2488,309.8523 Q544.6553,309.5825 544.0244,309.5825 Q542.6797,309.5825 541.9949,310.6492 Q541.3101,311.7158 541.3101,313.8159 Q541.3101,315.9077 541.9949,316.9744 Q542.6797,318.041 544.0244,318.041 Q544.6553,318.041 545.2488,317.7712 Q545.8423,317.5015 546.4731,316.9204 Z "/><text fill="#000000" font-family="sans-serif" font-size="12" lengthAdjust="spacingAndGlyphs" textLength="131" x="557.5" y="318.5352">StartLightDetectionApp</text><line style="stroke: #A80036; stroke-width: 1.5;" x1="529.5" x2="690.5" y1="330" y2="330"/><line style="stroke: #A80036; stroke-width: 1.5;" x1="529.5" x2="690.5" y1="338" y2="338"/></a><!--class nl.vaneijndhoven.dukes.unclejesse.UncleJesse--><a href="UncleJesse.html" target="_top" xlink:actuate="onRequest" xlink:show="new" xlink:title="UncleJesse.html" xlink:type="simple"><rect fill="#FEFECE" filter="url(#f32dx41om3ik8)" height="60.9551" id="nl.vaneijndhoven.dukes.unclejesse.UncleJesse" style="stroke: #A80036; stroke-width: 1.5;" width="93" x="42.5" y="170.5"/><ellipse cx="57.5" cy="186.5" fill="#ADD1B2" rx="11" ry="11" style="stroke: #A80036; stroke-width: 1.0;"/><path d="M60.4731,192.1431 Q59.8921,192.4419 59.2529,192.5913 Q58.6138,192.7407 57.9082,192.7407 Q55.4014,192.7407 54.0815,191.0889 Q52.7617,189.437 52.7617,186.3159 Q52.7617,183.1865 54.0815,181.5347 Q55.4014,179.8828 57.9082,179.8828 Q58.6138,179.8828 59.2612,180.0322 Q59.9087,180.1816 60.4731,180.4805 L60.4731,183.2031 Q59.8423,182.6221 59.2488,182.3523 Q58.6553,182.0825 58.0244,182.0825 Q56.6797,182.0825 55.9949,183.1492 Q55.3101,184.2158 55.3101,186.3159 Q55.3101,188.4077 55.9949,189.4744 Q56.6797,190.541 58.0244,190.541 Q58.6553,190.541 59.2488,190.2712 Q59.8423,190.0015 60.4731,189.4204 Z "/><text fill="#000000" font-family="sans-serif" font-size="12" lengthAdjust="spacingAndGlyphs" textLength="61" x="71.5" y="191.0352">UncleJesse</text><line style="stroke: #A80036; stroke-width: 1.5;" x1="43.5" x2="134.5" y1="202.5" y2="202.5"/><line style="stroke: #A80036; stroke-width: 1.5;" x1="43.5" x2="134.5" y1="210.5" y2="210.5"/><ellipse cx="53.5" cy="222.4775" fill="#84BE84" rx="3" ry="3" style="stroke: #038048; stroke-width: 1.0;"/><text fill="#000000" font-family="sans-serif" font-size="11" lengthAdjust="spacingAndGlyphs" textLength="62" x="62.5" y="225.1348">start(): void</text></a><!--class nl.vaneijndhoven.dukes.unclejesse.LaneDetectionApp--><a href="LaneDetectionApp.html" target="_top" xlink:actuate="onRequest" xlink:show="new" xlink:title="LaneDetectionApp.html" xlink:type="simple"><rect fill="#FEFECE" filter="url(#f32dx41om3ik8)" height="73.9102" id="nl.vaneijndhoven.dukes.unclejesse.LaneDetectionApp" style="stroke: #A80036; stroke-width: 1.5;" width="137" x="170.5" y="164"/><ellipse cx="185.5" cy="180" fill="#ADD1B2" rx="11" ry="11" style="stroke: #A80036; stroke-width: 1.0;"/><path d="M188.4731,185.6431 Q187.8921,185.9419 187.2529,186.0913 Q186.6138,186.2407 185.9082,186.2407 Q183.4014,186.2407 182.0815,184.5889 Q180.7617,182.937 180.7617,179.8159 Q180.7617,176.6865 182.0815,175.0347 Q183.4014,173.3828 185.9082,173.3828 Q186.6138,173.3828 187.2612,173.5322 Q187.9087,173.6816 188.4731,173.9805 L188.4731,176.7031 Q187.8423,176.1221 187.2488,175.8523 Q186.6553,175.5825 186.0244,175.5825 Q184.6797,175.5825 183.9949,176.6492 Q183.3101,177.7158 183.3101,179.8159 Q183.3101,181.9077 183.9949,182.9744 Q184.6797,184.041 186.0244,184.041 Q186.6553,184.041 187.2488,183.7712 Q187.8423,183.5015 188.4731,182.9204 Z "/><text fill="#000000" font-family="sans-serif" font-size="12" lengthAdjust="spacingAndGlyphs" textLength="105" x="199.5" y="184.5352">LaneDetectionApp</text><line style="stroke: #A80036; stroke-width: 1.5;" x1="171.5" x2="306.5" y1="196" y2="196"/><line style="stroke: #A80036; stroke-width: 1.5;" x1="171.5" x2="306.5" y1="204" y2="204"/><ellipse cx="181.5" cy="215.9775" fill="#84BE84" rx="3" ry="3" style="stroke: #038048; stroke-width: 1.0;"/><text fill="#000000" font-family="sans-serif" font-size="11" lengthAdjust="spacingAndGlyphs" textLength="91" x="190.5" y="218.6348">start(Stage): void</text><ellipse cx="181.5" cy="228.9326" fill="#84BE84" rx="3" ry="3" style="stroke: #038048; stroke-width: 1.0;"/><text fill="#000000" font-family="sans-serif" font-size="11" lengthAdjust="spacingAndGlyphs" text-decoration="underline" textLength="103" x="190.5" y="231.5898">main(String[]): void</text></a><!--class io.vertx.rxjava.core.AbstractVerticle--><rect fill="#FEFECE" filter="url(#f32dx41om3ik8)" height="48" id="io.vertx.rxjava.core.AbstractVerticle" style="stroke: #A80036; stroke-width: 1.5;" width="123" x="25.5" y="49.5"/><ellipse cx="40.5" cy="65.5" fill="#ADD1B2" rx="11" ry="11" style="stroke: #A80036; stroke-width: 1.0;"/><path d="M43.4731,71.1431 Q42.8921,71.4419 42.2529,71.5913 Q41.6138,71.7407 40.9082,71.7407 Q38.4014,71.7407 37.0815,70.0889 Q35.7617,68.437 35.7617,65.3159 Q35.7617,62.1865 37.0815,60.5347 Q38.4014,58.8828 40.9082,58.8828 Q41.6138,58.8828 42.2612,59.0322 Q42.9087,59.1816 43.4731,59.4805 L43.4731,62.2031 Q42.8423,61.6221 42.2488,61.3523 Q41.6553,61.0825 41.0244,61.0825 Q39.6797,61.0825 38.9949,62.1492 Q38.3101,63.2158 38.3101,65.3159 Q38.3101,67.4077 38.9949,68.4744 Q39.6797,69.541 41.0244,69.541 Q41.6553,69.541 42.2488,69.2712 Q42.8423,69.0015 43.4731,68.4204 Z "/><text fill="#000000" font-family="sans-serif" font-size="12" lengthAdjust="spacingAndGlyphs" textLength="91" x="54.5" y="70.0352">AbstractVerticle</text><line style="stroke: #A80036; stroke-width: 1.5;" x1="26.5" x2="147.5" y1="81.5" y2="81.5"/><line style="stroke: #A80036; stroke-width: 1.5;" x1="26.5" x2="147.5" y1="89.5" y2="89.5"/><!--class javafx.application.Application--><rect fill="#FEFECE" filter="url(#f32dx41om3ik8)" height="60.9551" id="javafx.application.Application" style="stroke: #A80036; stroke-width: 1.5;" width="117" x="183.5" y="43"/><ellipse cx="207.95" cy="59" fill="#A9DCDF" rx="11" ry="11" style="stroke: #A80036; stroke-width: 1.0;"/><path d="M208.0633,54.3481 L206.9095,59.4199 L209.2254,59.4199 Z M206.5691,52.1069 L209.5657,52.1069 L212.9109,64.5 L210.4622,64.5 L209.6985,61.437 L206.4197,61.437 L205.6727,64.5 L203.2239,64.5 Z "/><text fill="#000000" font-family="sans-serif" font-size="12" font-style="italic" lengthAdjust="spacingAndGlyphs" textLength="64" x="224.05" y="63.5352">Application</text><line style="stroke: #A80036; stroke-width: 1.5;" x1="184.5" x2="299.5" y1="75" y2="75"/><line style="stroke: #A80036; stroke-width: 1.5;" x1="184.5" x2="299.5" y1="83" y2="83"/><ellipse cx="194.5" cy="94.9775" fill="#84BE84" rx="3" ry="3" style="stroke: #038048; stroke-width: 1.0;"/><text fill="#000000" font-family="sans-serif" font-size="11" font-style="italic" lengthAdjust="spacingAndGlyphs" textLength="91" x="203.5" y="97.6348">start(Stage): void</text><!--link io.vertx.rxjava.core.AbstractVerticle to nl.vaneijndhoven.dukes.unclejesse.UncleJesse--><path d="M87.6961,117.8739 C87.9687,135.2531 88.2746,154.7552 88.5216,170.4998 " fill="none" id="io.vertx.rxjava.core.AbstractVerticle-nl.vaneijndhoven.dukes.unclejesse.UncleJesse" style="stroke: #A80036; stroke-width: 1.0;"/><polygon fill="none" points="80.6955,117.8892,87.3809,97.7819,94.6938,117.6696,80.6955,117.8892" style="stroke: #A80036; stroke-width: 1.0;"/><!--link javafx.application.Application to nl.vaneijndhoven.dukes.unclejesse.LaneDetectionApp--><path d="M240.8016,124.4308 C240.4914,137.6149 240.1632,151.562 239.8732,163.8888 " fill="none" id="javafx.application.Application-nl.vaneijndhoven.dukes.unclejesse.LaneDetectionApp" style="stroke: #A80036; stroke-width: 1.0;"/><polygon fill="none" points="233.8128,123.8692,241.2814,104.0394,247.8089,124.1986,233.8128,123.8692" style="stroke: #A80036; stroke-width: 1.0;"/><!--link nl.vaneijndhoven.dukes.unclejesse.LaneDetectionGUI to nl.vaneijndhoven.dukes.unclejesse.StartLightDetectionController--><!--link nl.vaneijndhoven.dukes.unclejesse.LaneDetectionGUI to nl.vaneijndhoven.dukes.unclejesse.LaneDetectionController--><!--link nl.vaneijndhoven.dukes.unclejesse.LaneDetectionController to nl.vaneijndhoven.dukes.unclejesse.StartLightDetectionApp--><text fill="#888888" font-family="sans-serif" font-size="10" lengthAdjust="spacingAndGlyphs" textLength="182" x="279" y="381.668">UMLDoclet 1.1.4, PlantUML 1.2019.05</text><!--
@startuml

    namespace nl.vaneijndhoven.dukes.unclejesse {

        class LaneDetectionGUI [[LaneDetectionGUI.html]] {
        }

        class StartLightDetectionController [[StartLightDetectionController.html]] {
        }

        class LaneDetectionController [[LaneDetectionController.html]] {
        }

        class StartLightDetectionApp [[StartLightDetectionApp.html]] {
        }

        class UncleJesse [[UncleJesse.html]] {
            +start(): void
        }

        class LaneDetectionApp [[LaneDetectionApp.html]] {
            +start(Stage): void
            {static} +main(String[]): void
        }

        class io.vertx.rxjava.core.AbstractVerticle
        io.vertx.rxjava.core.AbstractVerticle <|- - UncleJesse

        abstract class javafx.application.Application {
            {abstract} +start(Stage): void
        }
        javafx.application.Application <|- - LaneDetectionApp

    }


    center footer UMLDoclet 1.1.4, PlantUML 1.2019.05
@enduml

PlantUML version 1.2019.05(Sat Apr 20 18:45:36 CEST 2019)
(APACHE source distribution)
Java Runtime: Java(TM) SE Runtime Environment
JVM: Java HotSpot(TM) 64-Bit Server VM
Java Version: 1.8.0_152-b16
Operating System: Mac OS X
OS Version: 10.13.6
Default Encoding: UTF-8
Language: de
Country: DE
--></g></svg>