<?xml version="1.0" encoding="UTF-8" standalone="no"?><svg xmlns="http://www.w3.org/2000/svg" xmlns:xlink="http://www.w3.org/1999/xlink" contentScriptType="application/ecmascript" contentStyleType="text/css" height="102px" preserveAspectRatio="none" style="width:194px;height:102px;" version="1.1" viewBox="0 0 194 102" width="194px" zoomAndPan="magnify"><defs><filter height="300%" id="f11bennp1mpcxm" width="300%" x="-1" y="-1"><feGaussianBlur result="blurOut" stdDeviation="2.0"/><feColorMatrix in="blurOut" result="blurOut2" type="matrix" values="0 0 0 0 0 0 0 0 0 0 0 0 0 0 0 0 0 0 .4 0"/><feOffset dx="4.0" dy="4.0" in="blurOut2" result="blurOut3"/><feBlend in="SourceGraphic" in2="blurOut3" mode="normal"/></filter></defs><g><!--class UncleJesse--><a href="UncleJesse.html" target="_top" xlink:actuate="onRequest" xlink:show="new" xlink:title="UncleJesse.html" xlink:type="simple"><rect fill="#FEFECE" filter="url(#f11bennp1mpcxm)" height="60.9551" id="UncleJesse" style="stroke: #A80036; stroke-width: 1.5;" width="93" x="38.5" y="8"/><ellipse cx="53.5" cy="24" fill="#ADD1B2" rx="11" ry="11" style="stroke: #A80036; stroke-width: 1.0;"/><path d="M56.4731,29.6431 Q55.8921,29.9419 55.2529,30.0913 Q54.6138,30.2407 53.9082,30.2407 Q51.4014,30.2407 50.0815,28.5889 Q48.7617,26.937 48.7617,23.8159 Q48.7617,20.6865 50.0815,19.0347 Q51.4014,17.3828 53.9082,17.3828 Q54.6138,17.3828 55.2612,17.5322 Q55.9087,17.6816 56.4731,17.9805 L56.4731,20.7031 Q55.8423,20.1221 55.2488,19.8523 Q54.6553,19.5825 54.0244,19.5825 Q52.6797,19.5825 51.9949,20.6492 Q51.3101,21.7158 51.3101,23.8159 Q51.3101,25.9077 51.9949,26.9744 Q52.6797,28.041 54.0244,28.041 Q54.6553,28.041 55.2488,27.7712 Q55.8423,27.5015 56.4731,26.9204 Z "/><text fill="#000000" font-family="sans-serif" font-size="12" lengthAdjust="spacingAndGlyphs" textLength="61" x="67.5" y="28.5352">UncleJesse</text><line style="stroke: #A80036; stroke-width: 1.5;" x1="39.5" x2="130.5" y1="40" y2="40"/><line style="stroke: #A80036; stroke-width: 1.5;" x1="39.5" x2="130.5" y1="48" y2="48"/><ellipse cx="49.5" cy="59.9775" fill="#84BE84" rx="3" ry="3" style="stroke: #038048; stroke-width: 1.0;"/><text fill="#000000" font-family="sans-serif" font-size="11" lengthAdjust="spacingAndGlyphs" textLength="62" x="58.5" y="62.6348">start(): void</text></a><text fill="#888888" font-family="sans-serif" font-size="10" lengthAdjust="spacingAndGlyphs" textLength="182" x="0" y="88.668">UMLDoclet 1.1.4, PlantUML 1.2019.05</text><!--
@startuml

    class UncleJesse [[UncleJesse.html]] {
        +start(): void
    }


    center footer UMLDoclet 1.1.4, PlantUML 1.2019.05
@enduml

PlantUML version 1.2019.05(Sat Apr 20 18:45:36 CEST 2019)
(APACHE source distribution)
Java Runtime: Java(TM) SE Runtime Environment
JVM: Java HotSpot(TM) 64-Bit Server VM
Java Version: 1.8.0_152-b16
Operating System: Mac OS X
OS Version: 10.13.6
Default Encoding: UTF-8
Language: de
Country: DE
--></g></svg>