<?xml version="1.0" encoding="UTF-8" standalone="no"?><svg xmlns="http://www.w3.org/2000/svg" xmlns:xlink="http://www.w3.org/1999/xlink" contentScriptType="application/ecmascript" contentStyleType="text/css" height="192px" preserveAspectRatio="none" style="width:294px;height:192px;" version="1.1" viewBox="0 0 294 192" width="294px" zoomAndPan="magnify"><defs><filter height="300%" id="f1btusezv3bjt0" width="300%" x="-1" y="-1"><feGaussianBlur result="blurOut" stdDeviation="2.0"/><feColorMatrix in="blurOut" result="blurOut2" type="matrix" values="0 0 0 0 0 0 0 0 0 0 0 0 0 0 0 0 0 0 .4 0"/><feOffset dx="4.0" dy="4.0" in="blurOut2" result="blurOut3"/><feBlend in="SourceGraphic" in2="blurOut3" mode="normal"/></filter></defs><g><!--cluster nl.vandeindhoven.dukes.geometry--><polygon fill="#FFFFFF" filter="url(#f1btusezv3bjt0)" points="14,16,262,16,269,38.4883,272,38.4883,272,151,14,151,14,16" style="stroke: #000000; stroke-width: 1.5;"/><line style="stroke: #000000; stroke-width: 1.5;" x1="14" x2="269" y1="38.4883" y2="38.4883"/><text fill="#000000" font-family="sans-serif" font-size="14" font-weight="bold" lengthAdjust="spacingAndGlyphs" textLength="242" x="18" y="31.5352">nl.vandeindhoven.dukes.geometry</text><!--class nl.vandeindhoven.dukes.geometry.TestGeometry--><a href="TestGeometry.html" target="_top" xlink:actuate="onRequest" xlink:show="new" xlink:title="TestGeometry.html" xlink:type="simple"><rect fill="#FEFECE" filter="url(#f1btusezv3bjt0)" height="99.8203" id="nl.vandeindhoven.dukes.geometry.TestGeometry" style="stroke: #A80036; stroke-width: 1.5;" width="126" x="80" y="43"/><ellipse cx="100.85" cy="59" fill="#ADD1B2" rx="11" ry="11" style="stroke: #A80036; stroke-width: 1.0;"/><path d="M103.8231,64.6431 Q103.2421,64.9419 102.6029,65.0913 Q101.9638,65.2407 101.2582,65.2407 Q98.7514,65.2407 97.4315,63.5889 Q96.1117,61.937 96.1117,58.8159 Q96.1117,55.6865 97.4315,54.0347 Q98.7514,52.3828 101.2582,52.3828 Q101.9638,52.3828 102.6112,52.5322 Q103.2587,52.6816 103.8231,52.9805 L103.8231,55.7031 Q103.1923,55.1221 102.5988,54.8523 Q102.0053,54.5825 101.3744,54.5825 Q100.0297,54.5825 99.3449,55.6492 Q98.6601,56.7158 98.6601,58.8159 Q98.6601,60.9077 99.3449,61.9744 Q100.0297,63.041 101.3744,63.041 Q102.0053,63.041 102.5988,62.7712 Q103.1923,62.5015 103.8231,61.9204 Z "/><text fill="#000000" font-family="sans-serif" font-size="12" lengthAdjust="spacingAndGlyphs" textLength="81" x="116.15" y="63.5352">TestGeometry</text><line style="stroke: #A80036; stroke-width: 1.5;" x1="81" x2="205" y1="75" y2="75"/><line style="stroke: #A80036; stroke-width: 1.5;" x1="81" x2="205" y1="83" y2="83"/><ellipse cx="91" cy="94.9775" fill="#84BE84" rx="3" ry="3" style="stroke: #038048; stroke-width: 1.0;"/><text fill="#000000" font-family="sans-serif" font-size="11" lengthAdjust="spacingAndGlyphs" textLength="79" x="100" y="97.6348">testLine(): void</text><ellipse cx="91" cy="107.9326" fill="#84BE84" rx="3" ry="3" style="stroke: #038048; stroke-width: 1.0;"/><text fill="#000000" font-family="sans-serif" font-size="11" lengthAdjust="spacingAndGlyphs" textLength="92" x="100" y="110.5898">testVector(): void</text><ellipse cx="91" cy="120.8877" fill="#84BE84" rx="3" ry="3" style="stroke: #038048; stroke-width: 1.0;"/><text fill="#000000" font-family="sans-serif" font-size="11" lengthAdjust="spacingAndGlyphs" textLength="84" x="100" y="123.5449">testPoint(): void</text><ellipse cx="91" cy="133.8428" fill="#84BE84" rx="3" ry="3" style="stroke: #038048; stroke-width: 1.0;"/><text fill="#000000" font-family="sans-serif" font-size="11" lengthAdjust="spacingAndGlyphs" textLength="100" x="100" y="136.5">testPolygon(): void</text></a><text fill="#888888" font-family="sans-serif" font-size="10" lengthAdjust="spacingAndGlyphs" textLength="182" x="58" y="178.668">UMLDoclet 1.1.4, PlantUML 1.2019.05</text><!--
@startuml

    namespace nl.vandeindhoven.dukes.geometry {

        class TestGeometry [[TestGeometry.html]] {
            +testLine(): void
            +testVector(): void
            +testPoint(): void
            +testPolygon(): void
        }

    }


    center footer UMLDoclet 1.1.4, PlantUML 1.2019.05
@enduml

PlantUML version 1.2019.05(Sat Apr 20 18:45:36 CEST 2019)
(APACHE source distribution)
Java Runtime: Java(TM) SE Runtime Environment
JVM: Java HotSpot(TM) 64-Bit Server VM
Java Version: 1.8.0_191-b12
Operating System: Mac OS X
OS Version: 10.13.6
Default Encoding: UTF-8
Language: de
Country: DE
--></g></svg>