<?xml version="1.0" encoding="UTF-8" standalone="no"?><svg xmlns="http://www.w3.org/2000/svg" xmlns:xlink="http://www.w3.org/1999/xlink" contentScriptType="application/ecmascript" contentStyleType="text/css" height="352px" preserveAspectRatio="none" style="width:803px;height:352px;" version="1.1" viewBox="0 0 803 352" width="803px" zoomAndPan="magnify"><defs><filter height="300%" id="fhb0xvxb10uxa" width="300%" x="-1" y="-1"><feGaussianBlur result="blurOut" stdDeviation="2.0"/><feColorMatrix in="blurOut" result="blurOut2" type="matrix" values="0 0 0 0 0 0 0 0 0 0 0 0 0 0 0 0 0 0 .4 0"/><feOffset dx="4.0" dy="4.0" in="blurOut2" result="blurOut3"/><feBlend in="SourceGraphic" in2="blurOut3" mode="normal"/></filter></defs><g><!--cluster org.rcsdukes.server--><polygon fill="#FFFFFF" filter="url(#fhb0xvxb10uxa)" points="14,16,158,16,165,38.4883,604,38.4883,604,311,14,311,14,16" style="stroke: #000000; stroke-width: 1.5;"/><line style="stroke: #000000; stroke-width: 1.5;" x1="14" x2="165" y1="38.4883" y2="38.4883"/><text fill="#000000" font-family="sans-serif" font-size="14" font-weight="bold" lengthAdjust="spacingAndGlyphs" textLength="138" x="18" y="31.5352">org.rcsdukes.server</text><!--cluster org.rcdukes.common--><polygon fill="#FFFFFF" filter="url(#fhb0xvxb10uxa)" points="617,55,771,55,778,77.4883,781,77.4883,781,138,617,138,617,55" style="stroke: #000000; stroke-width: 1.5;"/><line style="stroke: #000000; stroke-width: 1.5;" x1="617" x2="778" y1="77.4883" y2="77.4883"/><text fill="#000000" font-family="sans-serif" font-size="14" font-weight="bold" lengthAdjust="spacingAndGlyphs" textLength="148" x="621" y="70.5352">org.rcdukes.common</text><!--class org.rcsdukes.server.TestEventBus--><a href="TestEventBus.html" target="_top" xlink:actuate="onRequest" xlink:show="new" xlink:title="TestEventBus.html" xlink:type="simple"><rect fill="#FEFECE" filter="url(#fhb0xvxb10uxa)" height="125.7305" id="org.rcsdukes.server.TestEventBus" style="stroke: #A80036; stroke-width: 1.5;" width="213" x="382.5" y="43"/><ellipse cx="446.75" cy="59" fill="#ADD1B2" rx="11" ry="11" style="stroke: #A80036; stroke-width: 1.0;"/><path d="M449.7231,64.6431 Q449.1421,64.9419 448.5029,65.0913 Q447.8638,65.2407 447.1582,65.2407 Q444.6514,65.2407 443.3315,63.5889 Q442.0117,61.937 442.0117,58.8159 Q442.0117,55.6865 443.3315,54.0347 Q444.6514,52.3828 447.1582,52.3828 Q447.8638,52.3828 448.5112,52.5322 Q449.1587,52.6816 449.7231,52.9805 L449.7231,55.7031 Q449.0923,55.1221 448.4988,54.8523 Q447.9053,54.5825 447.2744,54.5825 Q445.9297,54.5825 445.2449,55.6492 Q444.5601,56.7158 444.5601,58.8159 Q444.5601,60.9077 445.2449,61.9744 Q445.9297,63.041 447.2744,63.041 Q447.9053,63.041 448.4988,62.7712 Q449.0923,62.5015 449.7231,61.9204 Z "/><text fill="#000000" font-family="sans-serif" font-size="12" lengthAdjust="spacingAndGlyphs" textLength="76" x="467.25" y="63.5352">TestEventBus</text><line style="stroke: #A80036; stroke-width: 1.5;" x1="383.5" x2="594.5" y1="75" y2="75"/><line style="stroke: #A80036; stroke-width: 1.5;" x1="383.5" x2="594.5" y1="83" y2="83"/><ellipse cx="393.5" cy="94.9775" fill="#84BE84" rx="3" ry="3" style="stroke: #038048; stroke-width: 1.0;"/><text fill="#000000" font-family="sans-serif" font-size="11" lengthAdjust="spacingAndGlyphs" text-decoration="underline" textLength="133" x="402.5" y="97.6348">configureLogging(): void</text><ellipse cx="393.5" cy="107.9326" fill="#84BE84" rx="3" ry="3" style="stroke: #038048; stroke-width: 1.0;"/><text fill="#000000" font-family="sans-serif" font-size="11" lengthAdjust="spacingAndGlyphs" textLength="131" x="402.5" y="110.5898">example0_5(Vertx): void</text><ellipse cx="393.5" cy="120.8877" fill="#84BE84" rx="3" ry="3" style="stroke: #038048; stroke-width: 1.0;"/><text fill="#000000" font-family="sans-serif" font-size="11" lengthAdjust="spacingAndGlyphs" textLength="185" x="402.5" y="123.5449">checkStart(VertxOptions, int): void</text><ellipse cx="393.5" cy="133.8428" fill="#84BE84" rx="3" ry="3" style="stroke: #038048; stroke-width: 1.0;"/><text fill="#000000" font-family="sans-serif" font-size="11" lengthAdjust="spacingAndGlyphs" textLength="187" x="402.5" y="136.5">createKeyStore(String, String): void</text><ellipse cx="393.5" cy="146.7979" fill="#84BE84" rx="3" ry="3" style="stroke: #038048; stroke-width: 1.0;"/><text fill="#000000" font-family="sans-serif" font-size="11" lengthAdjust="spacingAndGlyphs" textLength="116" x="402.5" y="149.4551">testExample13(): void</text><ellipse cx="393.5" cy="159.7529" fill="#84BE84" rx="3" ry="3" style="stroke: #038048; stroke-width: 1.0;"/><text fill="#000000" font-family="sans-serif" font-size="11" lengthAdjust="spacingAndGlyphs" textLength="116" x="402.5" y="162.4102">testExample14(): void</text></a><!--class org.rcsdukes.server.TestSuite--><a href="TestSuite.html" target="_top" xlink:actuate="onRequest" xlink:show="new" xlink:title="TestSuite.html" xlink:type="simple"><rect fill="#FEFECE" filter="url(#fhb0xvxb10uxa)" height="60.9551" id="org.rcsdukes.server.TestSuite" style="stroke: #A80036; stroke-width: 1.5;" width="125" x="222.5" y="75.5"/><ellipse cx="255.95" cy="91.5" fill="#ADD1B2" rx="11" ry="11" style="stroke: #A80036; stroke-width: 1.0;"/><path d="M258.9231,97.1431 Q258.3421,97.4419 257.7029,97.5913 Q257.0638,97.7407 256.3582,97.7407 Q253.8514,97.7407 252.5315,96.0889 Q251.2117,94.437 251.2117,91.3159 Q251.2117,88.1865 252.5315,86.5347 Q253.8514,84.8828 256.3582,84.8828 Q257.0638,84.8828 257.7112,85.0322 Q258.3587,85.1816 258.9231,85.4805 L258.9231,88.2031 Q258.2923,87.6221 257.6988,87.3523 Q257.1053,87.0825 256.4744,87.0825 Q255.1297,87.0825 254.4449,88.1492 Q253.7601,89.2158 253.7601,91.3159 Q253.7601,93.4077 254.4449,94.4744 Q255.1297,95.541 256.4744,95.541 Q257.1053,95.541 257.6988,95.2712 Q258.2923,95.0015 258.9231,94.4204 Z "/><text fill="#000000" font-family="sans-serif" font-size="12" lengthAdjust="spacingAndGlyphs" textLength="52" x="274.05" y="96.0352">TestSuite</text><line style="stroke: #A80036; stroke-width: 1.5;" x1="223.5" x2="346.5" y1="107.5" y2="107.5"/><line style="stroke: #A80036; stroke-width: 1.5;" x1="223.5" x2="346.5" y1="115.5" y2="115.5"/><ellipse cx="233.5" cy="127.4775" fill="#84BE84" rx="3" ry="3" style="stroke: #038048; stroke-width: 1.0;"/><text fill="#000000" font-family="sans-serif" font-size="11" lengthAdjust="spacingAndGlyphs" text-decoration="underline" textLength="99" x="242.5" y="130.1348">isTravis(): boolean</text></a><!--class org.rcsdukes.server.TestEventBusBridge--><a href="TestEventBusBridge.html" target="_top" xlink:actuate="onRequest" xlink:show="new" xlink:title="TestEventBusBridge.html" xlink:type="simple"><rect fill="#FEFECE" filter="url(#fhb0xvxb10uxa)" height="60.9551" id="org.rcsdukes.server.TestEventBusBridge" style="stroke: #A80036; stroke-width: 1.5;" width="165" x="22.5" y="75.5"/><ellipse cx="46.5" cy="91.5" fill="#ADD1B2" rx="11" ry="11" style="stroke: #A80036; stroke-width: 1.0;"/><path d="M49.4731,97.1431 Q48.8921,97.4419 48.2529,97.5913 Q47.6138,97.7407 46.9082,97.7407 Q44.4014,97.7407 43.0815,96.0889 Q41.7617,94.437 41.7617,91.3159 Q41.7617,88.1865 43.0815,86.5347 Q44.4014,84.8828 46.9082,84.8828 Q47.6138,84.8828 48.2612,85.0322 Q48.9087,85.1816 49.4731,85.4805 L49.4731,88.2031 Q48.8423,87.6221 48.2488,87.3523 Q47.6553,87.0825 47.0244,87.0825 Q45.6797,87.0825 44.9949,88.1492 Q44.3101,89.2158 44.3101,91.3159 Q44.3101,93.4077 44.9949,94.4744 Q45.6797,95.541 47.0244,95.541 Q47.6553,95.541 48.2488,95.2712 Q48.8423,95.0015 49.4731,94.4204 Z "/><text fill="#000000" font-family="sans-serif" font-size="12" lengthAdjust="spacingAndGlyphs" textLength="113" x="62.5" y="96.0352">TestEventBusBridge</text><line style="stroke: #A80036; stroke-width: 1.5;" x1="23.5" x2="186.5" y1="107.5" y2="107.5"/><line style="stroke: #A80036; stroke-width: 1.5;" x1="23.5" x2="186.5" y1="115.5" y2="115.5"/><ellipse cx="33.5" cy="127.4775" fill="#84BE84" rx="3" ry="3" style="stroke: #038048; stroke-width: 1.0;"/><text fill="#000000" font-family="sans-serif" font-size="11" lengthAdjust="spacingAndGlyphs" textLength="139" x="42.5" y="130.1348">testEventBusBridge(): void</text></a><!--class org.rcsdukes.server.TestEventBusBridge.EchoServer--><a href="TestEventBusBridge.EchoServer.html" target="_top" xlink:actuate="onRequest" xlink:show="new" xlink:title="TestEventBusBridge.EchoServer.html" xlink:type="simple"><rect fill="#FEFECE" filter="url(#fhb0xvxb10uxa)" height="73.9102" id="org.rcsdukes.server.TestEventBusBridge.EchoServer" style="stroke: #A80036; stroke-width: 1.5;" width="212" x="203" y="229"/><ellipse cx="218" cy="245" fill="#ADD1B2" rx="11" ry="11" style="stroke: #A80036; stroke-width: 1.0;"/><path d="M220.9731,250.6431 Q220.3921,250.9419 219.7529,251.0913 Q219.1138,251.2407 218.4082,251.2407 Q215.9014,251.2407 214.5815,249.5889 Q213.2617,247.937 213.2617,244.8159 Q213.2617,241.6865 214.5815,240.0347 Q215.9014,238.3828 218.4082,238.3828 Q219.1138,238.3828 219.7612,238.5322 Q220.4087,238.6816 220.9731,238.9805 L220.9731,241.7031 Q220.3423,241.1221 219.7488,240.8523 Q219.1553,240.5825 218.5244,240.5825 Q217.1797,240.5825 216.4949,241.6492 Q215.8101,242.7158 215.8101,244.8159 Q215.8101,246.9077 216.4949,247.9744 Q217.1797,249.041 218.5244,249.041 Q219.1553,249.041 219.7488,248.7712 Q220.3423,248.5015 220.9731,247.9204 Z "/><text fill="#000000" font-family="sans-serif" font-size="12" lengthAdjust="spacingAndGlyphs" textLength="180" x="232" y="249.5352">TestEventBusBridge.EchoServer</text><line style="stroke: #A80036; stroke-width: 1.5;" x1="204" x2="414" y1="261" y2="261"/><line style="stroke: #A80036; stroke-width: 1.5;" x1="204" x2="414" y1="269" y2="269"/><ellipse cx="214" cy="280.9775" fill="#84BE84" rx="3" ry="3" style="stroke: #038048; stroke-width: 1.0;"/><text fill="#000000" font-family="sans-serif" font-size="11" lengthAdjust="spacingAndGlyphs" textLength="127" x="223" y="283.6348">EchoServer(Characters)</text><ellipse cx="214" cy="293.9326" fill="#84BE84" rx="3" ry="3" style="stroke: #038048; stroke-width: 1.0;"/><text fill="#000000" font-family="sans-serif" font-size="11" lengthAdjust="spacingAndGlyphs" textLength="62" x="223" y="296.5898">start(): void</text></a><!--class org.rcdukes.common.DukesVerticle--><rect fill="#FEFECE" filter="url(#fhb0xvxb10uxa)" height="48" id="org.rcdukes.common.DukesVerticle" style="stroke: #A80036; stroke-width: 1.5;" width="111" x="630.5" y="82"/><ellipse cx="645.5" cy="98" fill="#A9DCDF" rx="11" ry="11" style="stroke: #A80036; stroke-width: 1.0;"/><path d="M645.6133,93.3481 L644.4595,98.4199 L646.7754,98.4199 Z M644.1191,91.1069 L647.1157,91.1069 L650.4609,103.5 L648.0122,103.5 L647.2485,100.437 L643.9697,100.437 L643.2227,103.5 L640.7739,103.5 Z "/><text fill="#000000" font-family="sans-serif" font-size="12" font-style="italic" lengthAdjust="spacingAndGlyphs" textLength="79" x="659.5" y="102.5352">DukesVerticle</text><line style="stroke: #A80036; stroke-width: 1.5;" x1="631.5" x2="740.5" y1="114" y2="114"/><line style="stroke: #A80036; stroke-width: 1.5;" x1="631.5" x2="740.5" y1="122" y2="122"/><!--link org.rcdukes.common.DukesVerticle to org.rcsdukes.server.TestEventBusBridge.EchoServer--><path d="M647.3203,143.8813 C636.5157,153.032 624.3378,162.1384 612,169 C550.5751,203.1613 475.3503,227.3281 415.2214,242.9958 " fill="none" id="org.rcdukes.common.DukesVerticle-org.rcsdukes.server.TestEventBusBridge.EchoServer" style="stroke: #A80036; stroke-width: 1.0;"/><polygon fill="none" points="642.9484,138.399,662.5062,130.2445,652.3024,148.8156,642.9484,138.399" style="stroke: #A80036; stroke-width: 1.0;"/><!--link org.rcsdukes.server.TestEventBusBridge to org.rcsdukes.server.TestEventBusBridge.EchoServer--><path d="M156.2306,146.1809 C188.5421,171.5232 229.9772,204.0213 261.541,228.7773 " fill="none" id="org.rcsdukes.server.TestEventBusBridge-org.rcsdukes.server.TestEventBusBridge.EchoServer" style="stroke: #A80036; stroke-width: 1.0;"/><ellipse cx="150.6281" cy="141.7868" fill="#FFFFFF" rx="8" ry="8" style="stroke: #A80036; stroke-width: 1.0;"/><line style="stroke: #A80036; stroke-width: 1.0;" x1="156.9229" x2="144.3333" y1="146.7239" y2="136.8496"/><line style="stroke: #A80036; stroke-width: 1.0;" x1="145.6909" x2="155.5653" y1="148.0816" y2="135.492"/><text fill="#888888" font-family="sans-serif" font-size="10" lengthAdjust="spacingAndGlyphs" textLength="182" x="312.5" y="338.668">UMLDoclet 1.1.4, PlantUML 1.2019.05</text><!--
@startuml

    namespace org.rcsdukes.server {

        class TestEventBus [[TestEventBus.html]] {
            {static} +configureLogging(): void
            +example0_5(Vertx): void
            +checkStart(VertxOptions, int): void
            +createKeyStore(String, String): void
            +testExample13(): void
            +testExample14(): void
        }

        class TestSuite [[TestSuite.html]] {
            {static} +isTravis(): boolean
        }

        class TestEventBusBridge [[TestEventBusBridge.html]] {
            +testEventBusBridge(): void
        }

        class org.rcsdukes.server.TestEventBusBridge.EchoServer [[TestEventBusBridge.EchoServer.html]] {
            +EchoServer(Characters)
            +start(): void
        }

        abstract class org.rcdukes.common.DukesVerticle
        org.rcdukes.common.DukesVerticle <|- - org.rcsdukes.server.TestEventBusBridge.EchoServer

        TestEventBusBridge +- - org.rcsdukes.server.TestEventBusBridge.EchoServer

    }


    center footer UMLDoclet 1.1.4, PlantUML 1.2019.05
@enduml

PlantUML version 1.2019.05(Sat Apr 20 18:45:36 CEST 2019)
(APACHE source distribution)
Java Runtime: Java(TM) SE Runtime Environment
JVM: Java HotSpot(TM) 64-Bit Server VM
Java Version: 1.8.0_152-b16
Operating System: Mac OS X
OS Version: 10.13.6
Default Encoding: UTF-8
Language: de
Country: DE
--></g></svg>