<?xml version="1.0" encoding="UTF-8" standalone="no"?><svg xmlns="http://www.w3.org/2000/svg" xmlns:xlink="http://www.w3.org/1999/xlink" contentScriptType="application/ecmascript" contentStyleType="text/css" height="166px" preserveAspectRatio="none" style="width:208px;height:166px;" version="1.1" viewBox="0 0 208 166" width="208px" zoomAndPan="magnify"><defs><filter height="300%" id="fltyxfobzej55" width="300%" x="-1" y="-1"><feGaussianBlur result="blurOut" stdDeviation="2.0"/><feColorMatrix in="blurOut" result="blurOut2" type="matrix" values="0 0 0 0 0 0 0 0 0 0 0 0 0 0 0 0 0 0 .4 0"/><feOffset dx="4.0" dy="4.0" in="blurOut2" result="blurOut3"/><feBlend in="SourceGraphic" in2="blurOut3" mode="normal"/></filter></defs><g><!--cluster TestEventBusBridge--><polygon fill="#FFFFFF" filter="url(#fltyxfobzej55)" points="14,16,163,16,170,38.4883,184,38.4883,184,125,14,125,14,16" style="stroke: #000000; stroke-width: 1.5;"/><line style="stroke: #000000; stroke-width: 1.5;" x1="14" x2="170" y1="38.4883" y2="38.4883"/><text fill="#000000" font-family="sans-serif" font-size="14" font-weight="bold" lengthAdjust="spacingAndGlyphs" textLength="143" x="18" y="31.5352">TestEventBusBridge</text><!--class TestEventBusBridge.EchoServer--><a href="TestEventBusBridge.EchoServer.html" target="_top" xlink:actuate="onRequest" xlink:show="new" xlink:title="TestEventBusBridge.EchoServer.html" xlink:type="simple"><rect fill="#FEFECE" filter="url(#fltyxfobzej55)" height="73.9102" id="TestEventBusBridge.EchoServer" style="stroke: #A80036; stroke-width: 1.5;" width="153" x="22.5" y="43"/><ellipse cx="63.6" cy="59" fill="#ADD1B2" rx="11" ry="11" style="stroke: #A80036; stroke-width: 1.0;"/><path d="M66.5731,64.6431 Q65.9921,64.9419 65.3529,65.0913 Q64.7138,65.2407 64.0082,65.2407 Q61.5014,65.2407 60.1815,63.5889 Q58.8617,61.937 58.8617,58.8159 Q58.8617,55.6865 60.1815,54.0347 Q61.5014,52.3828 64.0082,52.3828 Q64.7138,52.3828 65.3612,52.5322 Q66.0087,52.6816 66.5731,52.9805 L66.5731,55.7031 Q65.9423,55.1221 65.3488,54.8523 Q64.7553,54.5825 64.1244,54.5825 Q62.7797,54.5825 62.0949,55.6492 Q61.4101,56.7158 61.4101,58.8159 Q61.4101,60.9077 62.0949,61.9744 Q62.7797,63.041 64.1244,63.041 Q64.7553,63.041 65.3488,62.7712 Q65.9423,62.5015 66.5731,61.9204 Z "/><text fill="#000000" font-family="sans-serif" font-size="12" lengthAdjust="spacingAndGlyphs" textLength="63" x="83.4" y="63.5352">EchoServer</text><line style="stroke: #A80036; stroke-width: 1.5;" x1="23.5" x2="174.5" y1="75" y2="75"/><line style="stroke: #A80036; stroke-width: 1.5;" x1="23.5" x2="174.5" y1="83" y2="83"/><ellipse cx="33.5" cy="94.9775" fill="#84BE84" rx="3" ry="3" style="stroke: #038048; stroke-width: 1.0;"/><text fill="#000000" font-family="sans-serif" font-size="11" lengthAdjust="spacingAndGlyphs" textLength="127" x="42.5" y="97.6348">EchoServer(Characters)</text><ellipse cx="33.5" cy="107.9326" fill="#84BE84" rx="3" ry="3" style="stroke: #038048; stroke-width: 1.0;"/><text fill="#000000" font-family="sans-serif" font-size="11" lengthAdjust="spacingAndGlyphs" textLength="62" x="42.5" y="110.5898">start(): void</text></a><text fill="#888888" font-family="sans-serif" font-size="10" lengthAdjust="spacingAndGlyphs" textLength="182" x="14" y="152.668">UMLDoclet 1.1.4, PlantUML 1.2019.05</text><!--
@startuml

    class TestEventBusBridge.EchoServer [[TestEventBusBridge.EchoServer.html]] {
        +EchoServer(Characters)
        +start(): void
    }


    center footer UMLDoclet 1.1.4, PlantUML 1.2019.05
@enduml

PlantUML version 1.2019.05(Sat Apr 20 18:45:36 CEST 2019)
(APACHE source distribution)
Java Runtime: Java(TM) SE Runtime Environment
JVM: Java HotSpot(TM) 64-Bit Server VM
Java Version: 1.8.0_152-b16
Operating System: Mac OS X
OS Version: 10.13.6
Default Encoding: UTF-8
Language: de
Country: DE
--></g></svg>