<?xml version="1.0" encoding="UTF-8" standalone="no"?><svg xmlns="http://www.w3.org/2000/svg" xmlns:xlink="http://www.w3.org/1999/xlink" contentScriptType="application/ecmascript" contentStyleType="text/css" height="274px" preserveAspectRatio="none" style="width:258px;height:274px;" version="1.1" viewBox="0 0 258 274" width="258px" zoomAndPan="magnify"><defs><filter height="300%" id="fae3nqc5djlej" width="300%" x="-1" y="-1"><feGaussianBlur result="blurOut" stdDeviation="2.0"/><feColorMatrix in="blurOut" result="blurOut2" type="matrix" values="0 0 0 0 0 0 0 0 0 0 0 0 0 0 0 0 0 0 .4 0"/><feOffset dx="4.0" dy="4.0" in="blurOut2" result="blurOut3"/><feBlend in="SourceGraphic" in2="blurOut3" mode="normal"/></filter></defs><g><!--cluster nl.vaneijndhoven.dukes.flash--><polygon fill="#FFFFFF" filter="url(#fae3nqc5djlej)" points="14,124,226,124,233,146.4883,236,146.4883,236,233,14,233,14,124" style="stroke: #000000; stroke-width: 1.5;"/><line style="stroke: #000000; stroke-width: 1.5;" x1="14" x2="233" y1="146.4883" y2="146.4883"/><text fill="#000000" font-family="sans-serif" font-size="14" font-weight="bold" lengthAdjust="spacingAndGlyphs" textLength="206" x="18" y="139.5352">nl.vaneijndhoven.dukes.flash</text><!--cluster io.vertx.rxjava.core--><polygon fill="#FFFFFF" filter="url(#fae3nqc5djlej)" points="51,16,189,16,196,38.4883,199,38.4883,199,99,51,99,51,16" style="stroke: #000000; stroke-width: 1.5;"/><line style="stroke: #000000; stroke-width: 1.5;" x1="51" x2="196" y1="38.4883" y2="38.4883"/><text fill="#000000" font-family="sans-serif" font-size="14" font-weight="bold" lengthAdjust="spacingAndGlyphs" textLength="132" x="55" y="31.5352">io.vertx.rxjava.core</text><!--class nl.vaneijndhoven.dukes.flash.Flash--><a href="Flash.html" target="_top" xlink:actuate="onRequest" xlink:show="new" xlink:title="Flash.html" xlink:type="simple"><rect fill="#FEFECE" filter="url(#fae3nqc5djlej)" height="73.9102" id="nl.vaneijndhoven.dukes.flash.Flash" style="stroke: #A80036; stroke-width: 1.5;" width="188" x="31" y="151"/><ellipse cx="106.25" cy="167" fill="#ADD1B2" rx="11" ry="11" style="stroke: #A80036; stroke-width: 1.0;"/><path d="M109.2231,172.6431 Q108.6421,172.9419 108.0029,173.0913 Q107.3638,173.2407 106.6582,173.2407 Q104.1514,173.2407 102.8315,171.5889 Q101.5117,169.937 101.5117,166.8159 Q101.5117,163.6865 102.8315,162.0347 Q104.1514,160.3828 106.6582,160.3828 Q107.3638,160.3828 108.0112,160.5322 Q108.6587,160.6816 109.2231,160.9805 L109.2231,163.7031 Q108.5923,163.1221 107.9988,162.8523 Q107.4053,162.5825 106.7744,162.5825 Q105.4297,162.5825 104.7449,163.6492 Q104.0601,164.7158 104.0601,166.8159 Q104.0601,168.9077 104.7449,169.9744 Q105.4297,171.041 106.7744,171.041 Q107.4053,171.041 107.9988,170.7712 Q108.5923,170.5015 109.2231,169.9204 Z "/><text fill="#000000" font-family="sans-serif" font-size="12" lengthAdjust="spacingAndGlyphs" textLength="29" x="126.75" y="171.5352">Flash</text><line style="stroke: #A80036; stroke-width: 1.5;" x1="32" x2="218" y1="183" y2="183"/><ellipse cx="42" cy="194.9775" fill="none" rx="3" ry="3" style="stroke: #038048; stroke-width: 1.0;"/><text fill="#000000" font-family="sans-serif" font-size="11" lengthAdjust="spacingAndGlyphs" text-decoration="underline" textLength="162" x="51" y="197.6348">HEARTBEAT_INTERVAL_MS: int</text><line style="stroke: #A80036; stroke-width: 1.5;" x1="32" x2="218" y1="203.9551" y2="203.9551"/><ellipse cx="42" cy="215.9326" fill="#84BE84" rx="3" ry="3" style="stroke: #038048; stroke-width: 1.0;"/><text fill="#000000" font-family="sans-serif" font-size="11" lengthAdjust="spacingAndGlyphs" textLength="62" x="51" y="218.5898">start(): void</text></a><!--class io.vertx.rxjava.core.AbstractVerticle--><rect fill="#FEFECE" filter="url(#fae3nqc5djlej)" height="48" id="io.vertx.rxjava.core.AbstractVerticle" style="stroke: #A80036; stroke-width: 1.5;" width="123" x="63.5" y="43"/><ellipse cx="78.5" cy="59" fill="#ADD1B2" rx="11" ry="11" style="stroke: #A80036; stroke-width: 1.0;"/><path d="M81.4731,64.6431 Q80.8921,64.9419 80.2529,65.0913 Q79.6138,65.2407 78.9082,65.2407 Q76.4014,65.2407 75.0815,63.5889 Q73.7617,61.937 73.7617,58.8159 Q73.7617,55.6865 75.0815,54.0347 Q76.4014,52.3828 78.9082,52.3828 Q79.6138,52.3828 80.2612,52.5322 Q80.9087,52.6816 81.4731,52.9805 L81.4731,55.7031 Q80.8423,55.1221 80.2488,54.8523 Q79.6553,54.5825 79.0244,54.5825 Q77.6797,54.5825 76.9949,55.6492 Q76.3101,56.7158 76.3101,58.8159 Q76.3101,60.9077 76.9949,61.9744 Q77.6797,63.041 79.0244,63.041 Q79.6553,63.041 80.2488,62.7712 Q80.8423,62.5015 81.4731,61.9204 Z "/><text fill="#000000" font-family="sans-serif" font-size="12" lengthAdjust="spacingAndGlyphs" textLength="91" x="92.5" y="63.5352">AbstractVerticle</text><line style="stroke: #A80036; stroke-width: 1.5;" x1="64.5" x2="185.5" y1="75" y2="75"/><line style="stroke: #A80036; stroke-width: 1.5;" x1="64.5" x2="185.5" y1="83" y2="83"/><!--link io.vertx.rxjava.core.AbstractVerticle to nl.vaneijndhoven.dukes.flash.Flash--><path d="M125,111.5529 C125,124.5142 125,138.5269 125,150.9716 " fill="none" id="io.vertx.rxjava.core.AbstractVerticle-nl.vaneijndhoven.dukes.flash.Flash" style="stroke: #A80036; stroke-width: 1.0;"/><polygon fill="none" points="118.0001,111.1954,125,91.1953,132.0001,111.1953,118.0001,111.1954" style="stroke: #A80036; stroke-width: 1.0;"/><text fill="#888888" font-family="sans-serif" font-size="10" lengthAdjust="spacingAndGlyphs" textLength="182" x="40" y="260.668">UMLDoclet 1.1.4, PlantUML 1.2019.05</text><!--
@startuml

    namespace nl.vaneijndhoven.dukes.flash {

        class Flash [[Flash.html]] {
            {static} +HEARTBEAT_INTERVAL_MS: int
            +start(): void
        }

        class io.vertx.rxjava.core.AbstractVerticle
        io.vertx.rxjava.core.AbstractVerticle <|- - Flash

    }


    center footer UMLDoclet 1.1.4, PlantUML 1.2019.05
@enduml

PlantUML version 1.2019.05(Sat Apr 20 18:45:36 CEST 2019)
(APACHE source distribution)
Java Runtime: Java(TM) SE Runtime Environment
JVM: Java HotSpot(TM) 64-Bit Server VM
Java Version: 1.8.0_152-b16
Operating System: Mac OS X
OS Version: 10.13.6
Default Encoding: UTF-8
Language: de
Country: DE
--></g></svg>