<?xml version="1.0" encoding="UTF-8" standalone="no"?><svg xmlns="http://www.w3.org/2000/svg" xmlns:xlink="http://www.w3.org/1999/xlink" contentScriptType="application/ecmascript" contentStyleType="text/css" height="352px" preserveAspectRatio="none" style="width:633px;height:352px;" version="1.1" viewBox="0 0 633 352" width="633px" zoomAndPan="magnify"><defs><filter height="300%" id="f1t70e888ovk76" width="300%" x="-1" y="-1"><feGaussianBlur result="blurOut" stdDeviation="2.0"/><feColorMatrix in="blurOut" result="blurOut2" type="matrix" values="0 0 0 0 0 0 0 0 0 0 0 0 0 0 0 0 0 0 .4 0"/><feOffset dx="4.0" dy="4.0" in="blurOut2" result="blurOut3"/><feBlend in="SourceGraphic" in2="blurOut3" mode="normal"/></filter></defs><g><!--cluster nl.vaneijndhoven.dukes.roi--><polygon fill="#FFFFFF" filter="url(#f1t70e888ovk76)" points="14,16,210,16,217,38.4883,611,38.4883,611,311,14,311,14,16" style="stroke: #000000; stroke-width: 1.5;"/><line style="stroke: #000000; stroke-width: 1.5;" x1="14" x2="217" y1="38.4883" y2="38.4883"/><text fill="#000000" font-family="sans-serif" font-size="14" font-weight="bold" lengthAdjust="spacingAndGlyphs" textLength="190" x="18" y="31.5352">nl.vaneijndhoven.dukes.roi</text><!--class nl.vaneijndhoven.dukes.roi.RightField--><a href="RightField.html" target="_top" xlink:actuate="onRequest" xlink:show="new" xlink:title="RightField.html" xlink:type="simple"><rect fill="#FEFECE" filter="url(#f1t70e888ovk76)" height="60.9551" id="nl.vaneijndhoven.dukes.roi.RightField" style="stroke: #A80036; stroke-width: 1.5;" width="124" x="22" y="242"/><ellipse cx="53.2" cy="258" fill="#ADD1B2" rx="11" ry="11" style="stroke: #A80036; stroke-width: 1.0;"/><path d="M56.1731,263.6431 Q55.5921,263.9419 54.9529,264.0913 Q54.3138,264.2407 53.6082,264.2407 Q51.1014,264.2407 49.7815,262.5889 Q48.4617,260.937 48.4617,257.8159 Q48.4617,254.6865 49.7815,253.0347 Q51.1014,251.3828 53.6082,251.3828 Q54.3138,251.3828 54.9612,251.5322 Q55.6087,251.6816 56.1731,251.9805 L56.1731,254.7031 Q55.5423,254.1221 54.9488,253.8523 Q54.3553,253.5825 53.7244,253.5825 Q52.3797,253.5825 51.6949,254.6492 Q51.0101,255.7158 51.0101,257.8159 Q51.0101,259.9077 51.6949,260.9744 Q52.3797,262.041 53.7244,262.041 Q54.3553,262.041 54.9488,261.7712 Q55.5423,261.5015 56.1731,260.9204 Z "/><text fill="#000000" font-family="sans-serif" font-size="12" lengthAdjust="spacingAndGlyphs" textLength="56" x="70.8" y="262.5352">RightField</text><line style="stroke: #A80036; stroke-width: 1.5;" x1="23" x2="145" y1="274" y2="274"/><line style="stroke: #A80036; stroke-width: 1.5;" x1="23" x2="145" y1="282" y2="282"/><ellipse cx="33" cy="293.9775" fill="#84BE84" rx="3" ry="3" style="stroke: #038048; stroke-width: 1.0;"/><text fill="#000000" font-family="sans-serif" font-size="11" lengthAdjust="spacingAndGlyphs" textLength="98" x="42" y="296.6348">RightField(double)</text></a><!--class nl.vaneijndhoven.dukes.roi.RegionOfInterest--><a href="RegionOfInterest.html" target="_top" xlink:actuate="onRequest" xlink:show="new" xlink:title="RegionOfInterest.html" xlink:type="simple"><rect fill="#FEFECE" filter="url(#f1t70e888ovk76)" height="138.6855" id="nl.vaneijndhoven.dukes.roi.RegionOfInterest" style="stroke: #A80036; stroke-width: 1.5;" width="291" x="173.5" y="43"/><ellipse cx="267.25" cy="59" fill="#ADD1B2" rx="11" ry="11" style="stroke: #A80036; stroke-width: 1.0;"/><path d="M270.2231,64.6431 Q269.6421,64.9419 269.0029,65.0913 Q268.3638,65.2407 267.6582,65.2407 Q265.1514,65.2407 263.8315,63.5889 Q262.5117,61.937 262.5117,58.8159 Q262.5117,55.6865 263.8315,54.0347 Q265.1514,52.3828 267.6582,52.3828 Q268.3638,52.3828 269.0112,52.5322 Q269.6587,52.6816 270.2231,52.9805 L270.2231,55.7031 Q269.5923,55.1221 268.9988,54.8523 Q268.4053,54.5825 267.7744,54.5825 Q266.4297,54.5825 265.7449,55.6492 Q265.0601,56.7158 265.0601,58.8159 Q265.0601,60.9077 265.7449,61.9744 Q266.4297,63.041 267.7744,63.041 Q268.4053,63.041 268.9988,62.7712 Q269.5923,62.5015 270.2231,61.9204 Z "/><text fill="#000000" font-family="sans-serif" font-size="12" lengthAdjust="spacingAndGlyphs" textLength="95" x="287.75" y="63.5352">RegionOfInterest</text><line style="stroke: #A80036; stroke-width: 1.5;" x1="174.5" x2="463.5" y1="75" y2="75"/><line style="stroke: #A80036; stroke-width: 1.5;" x1="174.5" x2="463.5" y1="83" y2="83"/><ellipse cx="184.5" cy="94.9775" fill="#84BE84" rx="3" ry="3" style="stroke: #038048; stroke-width: 1.0;"/><text fill="#000000" font-family="sans-serif" font-size="11" lengthAdjust="spacingAndGlyphs" textLength="265" x="193.5" y="97.6348">RegionOfInterest(double, double, double, double)</text><ellipse cx="184.5" cy="107.9326" fill="#84BE84" rx="3" ry="3" style="stroke: #038048; stroke-width: 1.0;"/><text fill="#000000" font-family="sans-serif" font-size="11" lengthAdjust="spacingAndGlyphs" textLength="119" x="193.5" y="110.5898">getxFraction(): double</text><ellipse cx="184.5" cy="120.8877" fill="#84BE84" rx="3" ry="3" style="stroke: #038048; stroke-width: 1.0;"/><text fill="#000000" font-family="sans-serif" font-size="11" lengthAdjust="spacingAndGlyphs" textLength="118" x="193.5" y="123.5449">getyFraction(): double</text><ellipse cx="184.5" cy="133.8428" fill="#84BE84" rx="3" ry="3" style="stroke: #038048; stroke-width: 1.0;"/><text fill="#000000" font-family="sans-serif" font-size="11" lengthAdjust="spacingAndGlyphs" textLength="142" x="193.5" y="136.5">getWidthFraction(): double</text><ellipse cx="184.5" cy="146.7979" fill="#84BE84" rx="3" ry="3" style="stroke: #038048; stroke-width: 1.0;"/><text fill="#000000" font-family="sans-serif" font-size="11" lengthAdjust="spacingAndGlyphs" textLength="147" x="193.5" y="149.4551">getHeightFraction(): double</text><ellipse cx="184.5" cy="159.7529" fill="#84BE84" rx="3" ry="3" style="stroke: #038048; stroke-width: 1.0;"/><text fill="#000000" font-family="sans-serif" font-size="11" lengthAdjust="spacingAndGlyphs" textLength="73" x="193.5" y="162.4102">roi(Size): Rect</text><ellipse cx="184.5" cy="172.708" fill="#84BE84" rx="3" ry="3" style="stroke: #038048; stroke-width: 1.0;"/><text fill="#000000" font-family="sans-serif" font-size="11" lengthAdjust="spacingAndGlyphs" textLength="87" x="193.5" y="175.3652">region(Mat): Mat</text></a><!--class nl.vaneijndhoven.dukes.roi.NearField--><a href="NearField.html" target="_top" xlink:actuate="onRequest" xlink:show="new" xlink:title="NearField.html" xlink:type="simple"><rect fill="#FEFECE" filter="url(#f1t70e888ovk76)" height="60.9551" id="nl.vaneijndhoven.dukes.roi.NearField" style="stroke: #A80036; stroke-width: 1.5;" width="121" x="181.5" y="242"/><ellipse cx="211.8" cy="258" fill="#ADD1B2" rx="11" ry="11" style="stroke: #A80036; stroke-width: 1.0;"/><path d="M214.7731,263.6431 Q214.1921,263.9419 213.5529,264.0913 Q212.9138,264.2407 212.2082,264.2407 Q209.7014,264.2407 208.3815,262.5889 Q207.0617,260.937 207.0617,257.8159 Q207.0617,254.6865 208.3815,253.0347 Q209.7014,251.3828 212.2082,251.3828 Q212.9138,251.3828 213.5612,251.5322 Q214.2087,251.6816 214.7731,251.9805 L214.7731,254.7031 Q214.1423,254.1221 213.5488,253.8523 Q212.9553,253.5825 212.3244,253.5825 Q210.9797,253.5825 210.2949,254.6492 Q209.6101,255.7158 209.6101,257.8159 Q209.6101,259.9077 210.2949,260.9744 Q210.9797,262.041 212.3244,262.041 Q212.9553,262.041 213.5488,261.7712 Q214.1423,261.5015 214.7731,260.9204 Z "/><text fill="#000000" font-family="sans-serif" font-size="12" lengthAdjust="spacingAndGlyphs" textLength="55" x="229.2" y="262.5352">NearField</text><line style="stroke: #A80036; stroke-width: 1.5;" x1="182.5" x2="301.5" y1="274" y2="274"/><line style="stroke: #A80036; stroke-width: 1.5;" x1="182.5" x2="301.5" y1="282" y2="282"/><ellipse cx="192.5" cy="293.9775" fill="#84BE84" rx="3" ry="3" style="stroke: #038048; stroke-width: 1.0;"/><text fill="#000000" font-family="sans-serif" font-size="11" lengthAdjust="spacingAndGlyphs" textLength="95" x="201.5" y="296.6348">NearField(double)</text></a><!--class nl.vaneijndhoven.dukes.roi.LeftField--><a href="LeftField.html" target="_top" xlink:actuate="onRequest" xlink:show="new" xlink:title="LeftField.html" xlink:type="simple"><rect fill="#FEFECE" filter="url(#f1t70e888ovk76)" height="60.9551" id="nl.vaneijndhoven.dukes.roi.LeftField" style="stroke: #A80036; stroke-width: 1.5;" width="116" x="338" y="242"/><ellipse cx="369.2" cy="258" fill="#ADD1B2" rx="11" ry="11" style="stroke: #A80036; stroke-width: 1.0;"/><path d="M372.1731,263.6431 Q371.5921,263.9419 370.9529,264.0913 Q370.3138,264.2407 369.6082,264.2407 Q367.1014,264.2407 365.7815,262.5889 Q364.4617,260.937 364.4617,257.8159 Q364.4617,254.6865 365.7815,253.0347 Q367.1014,251.3828 369.6082,251.3828 Q370.3138,251.3828 370.9612,251.5322 Q371.6087,251.6816 372.1731,251.9805 L372.1731,254.7031 Q371.5423,254.1221 370.9488,253.8523 Q370.3553,253.5825 369.7244,253.5825 Q368.3797,253.5825 367.6949,254.6492 Q367.0101,255.7158 367.0101,257.8159 Q367.0101,259.9077 367.6949,260.9744 Q368.3797,262.041 369.7244,262.041 Q370.3553,262.041 370.9488,261.7712 Q371.5423,261.5015 372.1731,260.9204 Z "/><text fill="#000000" font-family="sans-serif" font-size="12" lengthAdjust="spacingAndGlyphs" textLength="48" x="386.8" y="262.5352">LeftField</text><line style="stroke: #A80036; stroke-width: 1.5;" x1="339" x2="453" y1="274" y2="274"/><line style="stroke: #A80036; stroke-width: 1.5;" x1="339" x2="453" y1="282" y2="282"/><ellipse cx="349" cy="293.9775" fill="#84BE84" rx="3" ry="3" style="stroke: #038048; stroke-width: 1.0;"/><text fill="#000000" font-family="sans-serif" font-size="11" lengthAdjust="spacingAndGlyphs" textLength="90" x="358" y="296.6348">LeftField(double)</text></a><!--class nl.vaneijndhoven.dukes.roi.FarField--><a href="FarField.html" target="_top" xlink:actuate="onRequest" xlink:show="new" xlink:title="FarField.html" xlink:type="simple"><rect fill="#FEFECE" filter="url(#f1t70e888ovk76)" height="60.9551" id="nl.vaneijndhoven.dukes.roi.FarField" style="stroke: #A80036; stroke-width: 1.5;" width="113" x="489.5" y="242"/><ellipse cx="520.7" cy="258" fill="#ADD1B2" rx="11" ry="11" style="stroke: #A80036; stroke-width: 1.0;"/><path d="M523.6731,263.6431 Q523.0921,263.9419 522.4529,264.0913 Q521.8138,264.2407 521.1082,264.2407 Q518.6014,264.2407 517.2815,262.5889 Q515.9617,260.937 515.9617,257.8159 Q515.9617,254.6865 517.2815,253.0347 Q518.6014,251.3828 521.1082,251.3828 Q521.8138,251.3828 522.4612,251.5322 Q523.1087,251.6816 523.6731,251.9805 L523.6731,254.7031 Q523.0423,254.1221 522.4488,253.8523 Q521.8553,253.5825 521.2244,253.5825 Q519.8797,253.5825 519.1949,254.6492 Q518.5101,255.7158 518.5101,257.8159 Q518.5101,259.9077 519.1949,260.9744 Q519.8797,262.041 521.2244,262.041 Q521.8553,262.041 522.4488,261.7712 Q523.0423,261.5015 523.6731,260.9204 Z "/><text fill="#000000" font-family="sans-serif" font-size="12" lengthAdjust="spacingAndGlyphs" textLength="45" x="538.3" y="262.5352">FarField</text><line style="stroke: #A80036; stroke-width: 1.5;" x1="490.5" x2="601.5" y1="274" y2="274"/><line style="stroke: #A80036; stroke-width: 1.5;" x1="490.5" x2="601.5" y1="282" y2="282"/><ellipse cx="500.5" cy="293.9775" fill="#84BE84" rx="3" ry="3" style="stroke: #038048; stroke-width: 1.0;"/><text fill="#000000" font-family="sans-serif" font-size="11" lengthAdjust="spacingAndGlyphs" textLength="87" x="509.5" y="296.6348">FarField(double)</text></a><!--link nl.vaneijndhoven.dukes.roi.RegionOfInterest to nl.vaneijndhoven.dukes.roi.RightField--><path d="M199.9881,193.5294 C174.6402,210.7875 149.3862,227.9818 128.9455,241.8988 " fill="none" id="nl.vaneijndhoven.dukes.roi.RegionOfInterest-nl.vaneijndhoven.dukes.roi.RightField" style="stroke: #A80036; stroke-width: 1.0;"/><polygon fill="none" points="196.1376,187.6825,216.6092,182.2129,204.0167,199.255,196.1376,187.6825" style="stroke: #A80036; stroke-width: 1.0;"/><!--link nl.vaneijndhoven.dukes.roi.RegionOfInterest to nl.vaneijndhoven.dukes.roi.NearField--><path d="M276.6877,200.4216 C269.5206,215.3144 262.5314,229.8374 256.7268,241.8988 " fill="none" id="nl.vaneijndhoven.dukes.roi.RegionOfInterest-nl.vaneijndhoven.dukes.roi.NearField" style="stroke: #A80036; stroke-width: 1.0;"/><polygon fill="none" points="270.4701,197.199,285.4507,182.2129,283.0853,203.2701,270.4701,197.199" style="stroke: #A80036; stroke-width: 1.0;"/><!--link nl.vaneijndhoven.dukes.roi.RegionOfInterest to nl.vaneijndhoven.dukes.roi.LeftField--><path d="M361.3123,200.4216 C368.4794,215.3144 375.4686,229.8374 381.2732,241.8988 " fill="none" id="nl.vaneijndhoven.dukes.roi.RegionOfInterest-nl.vaneijndhoven.dukes.roi.LeftField" style="stroke: #A80036; stroke-width: 1.0;"/><polygon fill="none" points="354.9147,203.2701,352.5493,182.2129,367.5299,197.199,354.9147,203.2701" style="stroke: #A80036; stroke-width: 1.0;"/><!--link nl.vaneijndhoven.dukes.roi.RegionOfInterest to nl.vaneijndhoven.dukes.roi.FarField--><path d="M434.3102,193.7759 C458.6776,210.9512 482.9338,228.048 502.5845,241.8988 " fill="none" id="nl.vaneijndhoven.dukes.roi.RegionOfInterest-nl.vaneijndhoven.dukes.roi.FarField" style="stroke: #A80036; stroke-width: 1.0;"/><polygon fill="none" points="430.2197,199.4569,417.9052,182.2129,438.2854,188.0137,430.2197,199.4569" style="stroke: #A80036; stroke-width: 1.0;"/><text fill="#888888" font-family="sans-serif" font-size="10" lengthAdjust="spacingAndGlyphs" textLength="182" x="227.5" y="338.668">UMLDoclet 1.1.4, PlantUML 1.2019.05</text><!--
@startuml

    namespace nl.vaneijndhoven.dukes.roi {

        class RightField [[RightField.html]] {
            +RightField(double)
        }

        class RegionOfInterest [[RegionOfInterest.html]] {
            +RegionOfInterest(double, double, double, double)
            +getxFraction(): double
            +getyFraction(): double
            +getWidthFraction(): double
            +getHeightFraction(): double
            +roi(Size): Rect
            +region(Mat): Mat
        }

        class NearField [[NearField.html]] {
            +NearField(double)
        }

        class LeftField [[LeftField.html]] {
            +LeftField(double)
        }

        class FarField [[FarField.html]] {
            +FarField(double)
        }

        RegionOfInterest <|- - RightField

        RegionOfInterest <|- - NearField

        RegionOfInterest <|- - LeftField

        RegionOfInterest <|- - FarField

    }


    center footer UMLDoclet 1.1.4, PlantUML 1.2019.05
@enduml

PlantUML version 1.2019.05(Sat Apr 20 18:45:36 CEST 2019)
(APACHE source distribution)
Java Runtime: Java(TM) SE Runtime Environment
JVM: Java HotSpot(TM) 64-Bit Server VM
Java Version: 1.8.0_191-b12
Operating System: Mac OS X
OS Version: 10.13.6
Default Encoding: UTF-8
Language: de
Country: DE
--></g></svg>