<?xml version="1.0" encoding="UTF-8" standalone="no"?><svg xmlns="http://www.w3.org/2000/svg" xmlns:xlink="http://www.w3.org/1999/xlink" contentScriptType="application/ecmascript" contentStyleType="text/css" height="180px" preserveAspectRatio="none" style="width:308px;height:180px;" version="1.1" viewBox="0 0 308 180" width="308px" zoomAndPan="magnify"><defs><filter height="300%" id="fvp7oej0c2iy0" width="300%" x="-1" y="-1"><feGaussianBlur result="blurOut" stdDeviation="2.0"/><feColorMatrix in="blurOut" result="blurOut2" type="matrix" values="0 0 0 0 0 0 0 0 0 0 0 0 0 0 0 0 0 0 .4 0"/><feOffset dx="4.0" dy="4.0" in="blurOut2" result="blurOut3"/><feBlend in="SourceGraphic" in2="blurOut3" mode="normal"/></filter></defs><g><!--class RegionOfInterest--><a href="RegionOfInterest.html" target="_top" xlink:actuate="onRequest" xlink:show="new" xlink:title="RegionOfInterest.html" xlink:type="simple"><rect fill="#FEFECE" filter="url(#fvp7oej0c2iy0)" height="138.6855" id="RegionOfInterest" style="stroke: #A80036; stroke-width: 1.5;" width="291" x="6" y="8"/><ellipse cx="99.75" cy="24" fill="#ADD1B2" rx="11" ry="11" style="stroke: #A80036; stroke-width: 1.0;"/><path d="M102.7231,29.6431 Q102.1421,29.9419 101.5029,30.0913 Q100.8638,30.2407 100.1582,30.2407 Q97.6514,30.2407 96.3315,28.5889 Q95.0117,26.937 95.0117,23.8159 Q95.0117,20.6865 96.3315,19.0347 Q97.6514,17.3828 100.1582,17.3828 Q100.8638,17.3828 101.5112,17.5322 Q102.1587,17.6816 102.7231,17.9805 L102.7231,20.7031 Q102.0923,20.1221 101.4988,19.8523 Q100.9053,19.5825 100.2744,19.5825 Q98.9297,19.5825 98.2449,20.6492 Q97.5601,21.7158 97.5601,23.8159 Q97.5601,25.9077 98.2449,26.9744 Q98.9297,28.041 100.2744,28.041 Q100.9053,28.041 101.4988,27.7712 Q102.0923,27.5015 102.7231,26.9204 Z "/><text fill="#000000" font-family="sans-serif" font-size="12" lengthAdjust="spacingAndGlyphs" textLength="95" x="120.25" y="28.5352">RegionOfInterest</text><line style="stroke: #A80036; stroke-width: 1.5;" x1="7" x2="296" y1="40" y2="40"/><line style="stroke: #A80036; stroke-width: 1.5;" x1="7" x2="296" y1="48" y2="48"/><ellipse cx="17" cy="59.9775" fill="#84BE84" rx="3" ry="3" style="stroke: #038048; stroke-width: 1.0;"/><text fill="#000000" font-family="sans-serif" font-size="11" lengthAdjust="spacingAndGlyphs" textLength="265" x="26" y="62.6348">RegionOfInterest(double, double, double, double)</text><ellipse cx="17" cy="72.9326" fill="#84BE84" rx="3" ry="3" style="stroke: #038048; stroke-width: 1.0;"/><text fill="#000000" font-family="sans-serif" font-size="11" lengthAdjust="spacingAndGlyphs" textLength="119" x="26" y="75.5898">getxFraction(): double</text><ellipse cx="17" cy="85.8877" fill="#84BE84" rx="3" ry="3" style="stroke: #038048; stroke-width: 1.0;"/><text fill="#000000" font-family="sans-serif" font-size="11" lengthAdjust="spacingAndGlyphs" textLength="118" x="26" y="88.5449">getyFraction(): double</text><ellipse cx="17" cy="98.8428" fill="#84BE84" rx="3" ry="3" style="stroke: #038048; stroke-width: 1.0;"/><text fill="#000000" font-family="sans-serif" font-size="11" lengthAdjust="spacingAndGlyphs" textLength="142" x="26" y="101.5">getWidthFraction(): double</text><ellipse cx="17" cy="111.7979" fill="#84BE84" rx="3" ry="3" style="stroke: #038048; stroke-width: 1.0;"/><text fill="#000000" font-family="sans-serif" font-size="11" lengthAdjust="spacingAndGlyphs" textLength="147" x="26" y="114.4551">getHeightFraction(): double</text><ellipse cx="17" cy="124.7529" fill="#84BE84" rx="3" ry="3" style="stroke: #038048; stroke-width: 1.0;"/><text fill="#000000" font-family="sans-serif" font-size="11" lengthAdjust="spacingAndGlyphs" textLength="73" x="26" y="127.4102">roi(Size): Rect</text><ellipse cx="17" cy="137.708" fill="#84BE84" rx="3" ry="3" style="stroke: #038048; stroke-width: 1.0;"/><text fill="#000000" font-family="sans-serif" font-size="11" lengthAdjust="spacingAndGlyphs" textLength="87" x="26" y="140.3652">region(Mat): Mat</text></a><text fill="#888888" font-family="sans-serif" font-size="10" lengthAdjust="spacingAndGlyphs" textLength="182" x="66.5" y="166.668">UMLDoclet 1.1.4, PlantUML 1.2019.05</text><!--
@startuml

    class RegionOfInterest [[RegionOfInterest.html]] {
        +RegionOfInterest(double, double, double, double)
        +getxFraction(): double
        +getyFraction(): double
        +getWidthFraction(): double
        +getHeightFraction(): double
        +roi(Size): Rect
        +region(Mat): Mat
    }


    center footer UMLDoclet 1.1.4, PlantUML 1.2019.05
@enduml

PlantUML version 1.2019.05(Sat Apr 20 18:45:36 CEST 2019)
(APACHE source distribution)
Java Runtime: Java(TM) SE Runtime Environment
JVM: Java HotSpot(TM) 64-Bit Server VM
Java Version: 1.8.0_191-b12
Operating System: Mac OS X
OS Version: 10.13.6
Default Encoding: UTF-8
Language: de
Country: DE
--></g></svg>