<?xml version="1.0" encoding="UTF-8" standalone="no"?><svg xmlns="http://www.w3.org/2000/svg" xmlns:xlink="http://www.w3.org/1999/xlink" contentScriptType="application/ecmascript" contentStyleType="text/css" height="179px" preserveAspectRatio="none" style="width:264px;height:179px;" version="1.1" viewBox="0 0 264 179" width="264px" zoomAndPan="magnify"><defs><filter height="300%" id="f1iaym5lx05w2g" width="300%" x="-1" y="-1"><feGaussianBlur result="blurOut" stdDeviation="2.0"/><feColorMatrix in="blurOut" result="blurOut2" type="matrix" values="0 0 0 0 0 0 0 0 0 0 0 0 0 0 0 0 0 0 .4 0"/><feOffset dx="4.0" dy="4.0" in="blurOut2" result="blurOut3"/><feBlend in="SourceGraphic" in2="blurOut3" mode="normal"/></filter></defs><g><!--cluster com.bitplan.watchdog--><polygon fill="#FFFFFF" filter="url(#f1iaym5lx05w2g)" points="14,16,176,16,183,38.4883,242,38.4883,242,138,14,138,14,16" style="stroke: #000000; stroke-width: 1.5;"/><line style="stroke: #000000; stroke-width: 1.5;" x1="14" x2="183" y1="38.4883" y2="38.4883"/><text fill="#000000" font-family="sans-serif" font-size="14" font-weight="bold" lengthAdjust="spacingAndGlyphs" textLength="156" x="18" y="31.5352">com.bitplan.watchdog</text><!--class com.bitplan.watchdog.TestWatchDog--><a href="TestWatchDog.html" target="_top" xlink:actuate="onRequest" xlink:show="new" xlink:title="TestWatchDog.html" xlink:type="simple"><rect fill="#FEFECE" filter="url(#f1iaym5lx05w2g)" height="86.8652" id="com.bitplan.watchdog.TestWatchDog" style="stroke: #A80036; stroke-width: 1.5;" width="212" x="22" y="43"/><ellipse cx="82.75" cy="59" fill="#ADD1B2" rx="11" ry="11" style="stroke: #A80036; stroke-width: 1.0;"/><path d="M85.7231,64.6431 Q85.1421,64.9419 84.5029,65.0913 Q83.8638,65.2407 83.1582,65.2407 Q80.6514,65.2407 79.3315,63.5889 Q78.0117,61.937 78.0117,58.8159 Q78.0117,55.6865 79.3315,54.0347 Q80.6514,52.3828 83.1582,52.3828 Q83.8638,52.3828 84.5112,52.5322 Q85.1587,52.6816 85.7231,52.9805 L85.7231,55.7031 Q85.0923,55.1221 84.4988,54.8523 Q83.9053,54.5825 83.2744,54.5825 Q81.9297,54.5825 81.2449,55.6492 Q80.5601,56.7158 80.5601,58.8159 Q80.5601,60.9077 81.2449,61.9744 Q81.9297,63.041 83.2744,63.041 Q83.9053,63.041 84.4988,62.7712 Q85.0923,62.5015 85.7231,61.9204 Z "/><text fill="#000000" font-family="sans-serif" font-size="12" lengthAdjust="spacingAndGlyphs" textLength="82" x="103.25" y="63.5352">TestWatchDog</text><line style="stroke: #A80036; stroke-width: 1.5;" x1="23" x2="233" y1="75" y2="75"/><line style="stroke: #A80036; stroke-width: 1.5;" x1="23" x2="233" y1="83" y2="83"/><ellipse cx="33" cy="94.9775" fill="#84BE84" rx="3" ry="3" style="stroke: #038048; stroke-width: 1.0;"/><text fill="#000000" font-family="sans-serif" font-size="11" lengthAdjust="spacingAndGlyphs" textLength="111" x="42" y="97.6348">testWatchDog(): void</text><ellipse cx="33" cy="107.9326" fill="#84BE84" rx="3" ry="3" style="stroke: #038048; stroke-width: 1.0;"/><text fill="#000000" font-family="sans-serif" font-size="11" lengthAdjust="spacingAndGlyphs" textLength="134" x="42" y="110.5898">setUp(TestContext): void</text><ellipse cx="33" cy="120.8877" fill="#84BE84" rx="3" ry="3" style="stroke: #038048; stroke-width: 1.0;"/><text fill="#000000" font-family="sans-serif" font-size="11" lengthAdjust="spacingAndGlyphs" textLength="186" x="42" y="123.5449">printSomething(TestContext): void</text></a><text fill="#888888" font-family="sans-serif" font-size="10" lengthAdjust="spacingAndGlyphs" textLength="182" x="43" y="165.668">UMLDoclet 1.1.4, PlantUML 1.2019.05</text><!--
@startuml

    namespace com.bitplan.watchdog {

        class TestWatchDog [[TestWatchDog.html]] {
            +testWatchDog(): void
            +setUp(TestContext): void
            +printSomething(TestContext): void
        }

    }


    center footer UMLDoclet 1.1.4, PlantUML 1.2019.05
@enduml

PlantUML version 1.2019.05(Sat Apr 20 18:45:36 CEST 2019)
(APACHE source distribution)
Java Runtime: Java(TM) SE Runtime Environment
JVM: Java HotSpot(TM) 64-Bit Server VM
Java Version: 1.8.0_191-b12
Operating System: Mac OS X
OS Version: 10.13.6
Default Encoding: UTF-8
Language: de
Country: DE
--></g></svg>