<?xml version="1.0" encoding="UTF-8" standalone="no"?><svg xmlns="http://www.w3.org/2000/svg" xmlns:xlink="http://www.w3.org/1999/xlink" contentScriptType="application/ecmascript" contentStyleType="text/css" height="295px" preserveAspectRatio="none" style="width:248px;height:295px;" version="1.1" viewBox="0 0 248 295" width="248px" zoomAndPan="magnify"><defs><filter height="300%" id="ffjqgnrx9a74l" width="300%" x="-1" y="-1"><feGaussianBlur result="blurOut" stdDeviation="2.0"/><feColorMatrix in="blurOut" result="blurOut2" type="matrix" values="0 0 0 0 0 0 0 0 0 0 0 0 0 0 0 0 0 0 .4 0"/><feOffset dx="4.0" dy="4.0" in="blurOut2" result="blurOut3"/><feBlend in="SourceGraphic" in2="blurOut3" mode="normal"/></filter></defs><g><!--cluster StartLightDetector--><polygon fill="#FFFFFF" filter="url(#ffjqgnrx9a74l)" points="14,16,152,16,159,38.4883,226,38.4883,226,254,14,254,14,16" style="stroke: #000000; stroke-width: 1.5;"/><line style="stroke: #000000; stroke-width: 1.5;" x1="14" x2="159" y1="38.4883" y2="38.4883"/><text fill="#000000" font-family="sans-serif" font-size="14" font-weight="bold" lengthAdjust="spacingAndGlyphs" textLength="132" x="18" y="31.5352">StartLightDetector</text><!--class StartLightDetector.Config--><a href="StartLightDetector.Config.html" target="_top" xlink:actuate="onRequest" xlink:show="new" xlink:title="StartLightDetector.Config.html" xlink:type="simple"><rect fill="#FEFECE" filter="url(#ffjqgnrx9a74l)" height="203.4609" id="StartLightDetector.Config" style="stroke: #A80036; stroke-width: 1.5;" width="196" x="22" y="43"/><ellipse cx="97.75" cy="59" fill="#ADD1B2" rx="11" ry="11" style="stroke: #A80036; stroke-width: 1.0;"/><path d="M100.7231,64.6431 Q100.1421,64.9419 99.5029,65.0913 Q98.8638,65.2407 98.1582,65.2407 Q95.6514,65.2407 94.3315,63.5889 Q93.0117,61.937 93.0117,58.8159 Q93.0117,55.6865 94.3315,54.0347 Q95.6514,52.3828 98.1582,52.3828 Q98.8638,52.3828 99.5112,52.5322 Q100.1587,52.6816 100.7231,52.9805 L100.7231,55.7031 Q100.0923,55.1221 99.4988,54.8523 Q98.9053,54.5825 98.2744,54.5825 Q96.9297,54.5825 96.2449,55.6492 Q95.5601,56.7158 95.5601,58.8159 Q95.5601,60.9077 96.2449,61.9744 Q96.9297,63.041 98.2744,63.041 Q98.9053,63.041 99.4988,62.7712 Q100.0923,62.5015 100.7231,61.9204 Z "/><text fill="#000000" font-family="sans-serif" font-size="12" lengthAdjust="spacingAndGlyphs" textLength="36" x="118.25" y="63.5352">Config</text><line style="stroke: #A80036; stroke-width: 1.5;" x1="23" x2="217" y1="75" y2="75"/><line style="stroke: #A80036; stroke-width: 1.5;" x1="23" x2="217" y1="83" y2="83"/><ellipse cx="33" cy="94.9775" fill="#84BE84" rx="3" ry="3" style="stroke: #038048; stroke-width: 1.0;"/><text fill="#000000" font-family="sans-serif" font-size="11" lengthAdjust="spacingAndGlyphs" textLength="114" x="42" y="97.6348">getHueStart(): double</text><ellipse cx="33" cy="107.9326" fill="#84BE84" rx="3" ry="3" style="stroke: #038048; stroke-width: 1.0;"/><text fill="#000000" font-family="sans-serif" font-size="11" lengthAdjust="spacingAndGlyphs" textLength="136" x="42" y="110.5898">setHueStart(double): void</text><ellipse cx="33" cy="120.8877" fill="#84BE84" rx="3" ry="3" style="stroke: #038048; stroke-width: 1.0;"/><text fill="#000000" font-family="sans-serif" font-size="11" lengthAdjust="spacingAndGlyphs" textLength="113" x="42" y="123.5449">getHueStop(): double</text><ellipse cx="33" cy="133.8428" fill="#84BE84" rx="3" ry="3" style="stroke: #038048; stroke-width: 1.0;"/><text fill="#000000" font-family="sans-serif" font-size="11" lengthAdjust="spacingAndGlyphs" textLength="135" x="42" y="136.5">setHueStop(double): void</text><ellipse cx="33" cy="146.7979" fill="#84BE84" rx="3" ry="3" style="stroke: #038048; stroke-width: 1.0;"/><text fill="#000000" font-family="sans-serif" font-size="11" lengthAdjust="spacingAndGlyphs" textLength="148" x="42" y="149.4551">getSaturationStart(): double</text><ellipse cx="33" cy="159.7529" fill="#84BE84" rx="3" ry="3" style="stroke: #038048; stroke-width: 1.0;"/><text fill="#000000" font-family="sans-serif" font-size="11" lengthAdjust="spacingAndGlyphs" textLength="170" x="42" y="162.4102">setSaturationStart(double): void</text><ellipse cx="33" cy="172.708" fill="#84BE84" rx="3" ry="3" style="stroke: #038048; stroke-width: 1.0;"/><text fill="#000000" font-family="sans-serif" font-size="11" lengthAdjust="spacingAndGlyphs" textLength="147" x="42" y="175.3652">getSaturationStop(): double</text><ellipse cx="33" cy="185.6631" fill="#84BE84" rx="3" ry="3" style="stroke: #038048; stroke-width: 1.0;"/><text fill="#000000" font-family="sans-serif" font-size="11" lengthAdjust="spacingAndGlyphs" textLength="169" x="42" y="188.3203">setSaturationStop(double): void</text><ellipse cx="33" cy="198.6182" fill="#84BE84" rx="3" ry="3" style="stroke: #038048; stroke-width: 1.0;"/><text fill="#000000" font-family="sans-serif" font-size="11" lengthAdjust="spacingAndGlyphs" textLength="122" x="42" y="201.2754">getValueStart(): double</text><ellipse cx="33" cy="211.5732" fill="#84BE84" rx="3" ry="3" style="stroke: #038048; stroke-width: 1.0;"/><text fill="#000000" font-family="sans-serif" font-size="11" lengthAdjust="spacingAndGlyphs" textLength="144" x="42" y="214.2305">setValueStart(double): void</text><ellipse cx="33" cy="224.5283" fill="#84BE84" rx="3" ry="3" style="stroke: #038048; stroke-width: 1.0;"/><text fill="#000000" font-family="sans-serif" font-size="11" lengthAdjust="spacingAndGlyphs" textLength="121" x="42" y="227.1855">getValueStop(): double</text><ellipse cx="33" cy="237.4834" fill="#84BE84" rx="3" ry="3" style="stroke: #038048; stroke-width: 1.0;"/><text fill="#000000" font-family="sans-serif" font-size="11" lengthAdjust="spacingAndGlyphs" textLength="143" x="42" y="240.1406">setValueStop(double): void</text></a><text fill="#888888" font-family="sans-serif" font-size="10" lengthAdjust="spacingAndGlyphs" textLength="182" x="35" y="281.668">UMLDoclet 1.1.4, PlantUML 1.2019.05</text><!--
@startuml

    class StartLightDetector.Config [[StartLightDetector.Config.html]] {
        +getHueStart(): double
        +setHueStart(double): void
        +getHueStop(): double
        +setHueStop(double): void
        +getSaturationStart(): double
        +setSaturationStart(double): void
        +getSaturationStop(): double
        +setSaturationStop(double): void
        +getValueStart(): double
        +setValueStart(double): void
        +getValueStop(): double
        +setValueStop(double): void
    }


    center footer UMLDoclet 1.1.4, PlantUML 1.2019.05
@enduml

PlantUML version 1.2019.05(Sat Apr 20 18:45:36 CEST 2019)
(APACHE source distribution)
Java Runtime: Java(TM) SE Runtime Environment
JVM: Java HotSpot(TM) 64-Bit Server VM
Java Version: 1.8.0_152-b16
Operating System: Mac OS X
OS Version: 10.13.6
Default Encoding: UTF-8
Language: de
Country: DE
--></g></svg>