<?xml version="1.0" encoding="UTF-8" standalone="no"?><svg xmlns="http://www.w3.org/2000/svg" xmlns:xlink="http://www.w3.org/1999/xlink" contentScriptType="application/ecmascript" contentStyleType="text/css" height="153px" preserveAspectRatio="none" style="width:266px;height:153px;" version="1.1" viewBox="0 0 266 153" width="266px" zoomAndPan="magnify"><defs><filter height="300%" id="f1igjoga5cmljf" width="300%" x="-1" y="-1"><feGaussianBlur result="blurOut" stdDeviation="2.0"/><feColorMatrix in="blurOut" result="blurOut2" type="matrix" values="0 0 0 0 0 0 0 0 0 0 0 0 0 0 0 0 0 0 .4 0"/><feOffset dx="4.0" dy="4.0" in="blurOut2" result="blurOut3"/><feBlend in="SourceGraphic" in2="blurOut3" mode="normal"/></filter></defs><g><!--cluster nl.vaneijndhoven.dukes.server--><polygon fill="#FFFFFF" filter="url(#f1igjoga5cmljf)" points="14,16,234,16,241,38.4883,244,38.4883,244,112,14,112,14,16" style="stroke: #000000; stroke-width: 1.5;"/><line style="stroke: #000000; stroke-width: 1.5;" x1="14" x2="241" y1="38.4883" y2="38.4883"/><text fill="#000000" font-family="sans-serif" font-size="14" font-weight="bold" lengthAdjust="spacingAndGlyphs" textLength="214" x="18" y="31.5352">nl.vaneijndhoven.dukes.server</text><!--class nl.vaneijndhoven.dukes.server.CarServer--><a href="CarServer.html" target="_top" xlink:actuate="onRequest" xlink:show="new" xlink:title="CarServer.html" xlink:type="simple"><rect fill="#FEFECE" filter="url(#f1igjoga5cmljf)" height="60.9551" id="nl.vaneijndhoven.dukes.server.CarServer" style="stroke: #A80036; stroke-width: 1.5;" width="129" x="64.5" y="43"/><ellipse cx="97.95" cy="59" fill="#ADD1B2" rx="11" ry="11" style="stroke: #A80036; stroke-width: 1.0;"/><path d="M100.9231,64.6431 Q100.3421,64.9419 99.7029,65.0913 Q99.0638,65.2407 98.3582,65.2407 Q95.8514,65.2407 94.5315,63.5889 Q93.2117,61.937 93.2117,58.8159 Q93.2117,55.6865 94.5315,54.0347 Q95.8514,52.3828 98.3582,52.3828 Q99.0638,52.3828 99.7112,52.5322 Q100.3587,52.6816 100.9231,52.9805 L100.9231,55.7031 Q100.2923,55.1221 99.6988,54.8523 Q99.1053,54.5825 98.4744,54.5825 Q97.1297,54.5825 96.4449,55.6492 Q95.7601,56.7158 95.7601,58.8159 Q95.7601,60.9077 96.4449,61.9744 Q97.1297,63.041 98.4744,63.041 Q99.1053,63.041 99.6988,62.7712 Q100.2923,62.5015 100.9231,61.9204 Z "/><text fill="#000000" font-family="sans-serif" font-size="12" lengthAdjust="spacingAndGlyphs" textLength="56" x="116.05" y="63.5352">CarServer</text><line style="stroke: #A80036; stroke-width: 1.5;" x1="65.5" x2="192.5" y1="75" y2="75"/><line style="stroke: #A80036; stroke-width: 1.5;" x1="65.5" x2="192.5" y1="83" y2="83"/><ellipse cx="75.5" cy="94.9775" fill="#84BE84" rx="3" ry="3" style="stroke: #038048; stroke-width: 1.0;"/><text fill="#000000" font-family="sans-serif" font-size="11" lengthAdjust="spacingAndGlyphs" text-decoration="underline" textLength="103" x="84.5" y="97.6348">main(String[]): void</text></a><text fill="#888888" font-family="sans-serif" font-size="10" lengthAdjust="spacingAndGlyphs" textLength="182" x="44" y="139.668">UMLDoclet 1.1.4, PlantUML 1.2019.05</text><!--
@startuml

    namespace nl.vaneijndhoven.dukes.server {

        class CarServer [[CarServer.html]] {
            {static} +main(String[]): void
        }

    }


    center footer UMLDoclet 1.1.4, PlantUML 1.2019.05
@enduml

PlantUML version 1.2019.05(Sat Apr 20 18:45:36 CEST 2019)
(APACHE source distribution)
Java Runtime: Java(TM) SE Runtime Environment
JVM: Java HotSpot(TM) 64-Bit Server VM
Java Version: 1.8.0_191-b12
Operating System: Mac OS X
OS Version: 10.13.6
Default Encoding: UTF-8
Language: de
Country: DE
--></g></svg>