<?xml version="1.0" encoding="UTF-8" standalone="no"?><svg xmlns="http://www.w3.org/2000/svg" xmlns:xlink="http://www.w3.org/1999/xlink" contentScriptType="application/ecmascript" contentStyleType="text/css" height="1257px" preserveAspectRatio="none" style="width:659px;height:1257px;" version="1.1" viewBox="0 0 659 1257" width="659px" zoomAndPan="magnify"><defs><filter height="300%" id="f4cmfypoxtjza" width="300%" x="-1" y="-1"><feGaussianBlur result="blurOut" stdDeviation="2.0"/><feColorMatrix in="blurOut" result="blurOut2" type="matrix" values="0 0 0 0 0 0 0 0 0 0 0 0 0 0 0 0 0 0 .4 0"/><feOffset dx="4.0" dy="4.0" in="blurOut2" result="blurOut3"/><feBlend in="SourceGraphic" in2="blurOut3" mode="normal"/></filter></defs><g><!--cluster nl.vaneijndhoven.dukes.geometry--><polygon fill="#FFFFFF" filter="url(#f4cmfypoxtjza)" points="14,16,258,16,265,38.4883,491,38.4883,491,1216,14,1216,14,16" style="stroke: #000000; stroke-width: 1.5;"/><line style="stroke: #000000; stroke-width: 1.5;" x1="14" x2="265" y1="38.4883" y2="38.4883"/><text fill="#000000" font-family="sans-serif" font-size="14" font-weight="bold" lengthAdjust="spacingAndGlyphs" textLength="238" x="18" y="31.5352">nl.vaneijndhoven.dukes.geometry</text><!--cluster java.lang--><polygon fill="#FFFFFF" filter="url(#f4cmfypoxtjza)" points="499,868,568,868,575,890.4883,637,890.4883,637,964,499,964,499,868" style="stroke: #000000; stroke-width: 1.5;"/><line style="stroke: #000000; stroke-width: 1.5;" x1="499" x2="575" y1="890.4883" y2="890.4883"/><text fill="#000000" font-family="sans-serif" font-size="14" font-weight="bold" lengthAdjust="spacingAndGlyphs" textLength="63" x="503" y="883.5352">java.lang</text><!--class nl.vaneijndhoven.dukes.geometry.Polygon--><a href="Polygon.html" target="_top" xlink:actuate="onRequest" xlink:show="new" xlink:title="Polygon.html" xlink:type="simple"><rect fill="#FEFECE" filter="url(#f4cmfypoxtjza)" height="125.7305" id="nl.vaneijndhoven.dukes.geometry.Polygon" style="stroke: #A80036; stroke-width: 1.5;" width="210" x="273" y="127"/><ellipse cx="351.75" cy="143" fill="#ADD1B2" rx="11" ry="11" style="stroke: #A80036; stroke-width: 1.0;"/><path d="M354.7231,148.6431 Q354.1421,148.9419 353.5029,149.0913 Q352.8638,149.2407 352.1582,149.2407 Q349.6514,149.2407 348.3315,147.5889 Q347.0117,145.937 347.0117,142.8159 Q347.0117,139.6865 348.3315,138.0347 Q349.6514,136.3828 352.1582,136.3828 Q352.8638,136.3828 353.5112,136.5322 Q354.1587,136.6816 354.7231,136.9805 L354.7231,139.7031 Q354.0923,139.1221 353.4988,138.8523 Q352.9053,138.5825 352.2744,138.5825 Q350.9297,138.5825 350.2449,139.6492 Q349.5601,140.7158 349.5601,142.8159 Q349.5601,144.9077 350.2449,145.9744 Q350.9297,147.041 352.2744,147.041 Q352.9053,147.041 353.4988,146.7712 Q354.0923,146.5015 354.7231,145.9204 Z "/><text fill="#000000" font-family="sans-serif" font-size="12" lengthAdjust="spacingAndGlyphs" textLength="44" x="372.25" y="147.5352">Polygon</text><line style="stroke: #A80036; stroke-width: 1.5;" x1="274" x2="482" y1="159" y2="159"/><ellipse cx="284" cy="170.9775" fill="none" rx="3" ry="3" style="stroke: #038048; stroke-width: 1.0;"/><text fill="#000000" font-family="sans-serif" font-size="11" lengthAdjust="spacingAndGlyphs" text-decoration="underline" textLength="83" x="293" y="173.6348">debug: boolean</text><line style="stroke: #A80036; stroke-width: 1.5;" x1="274" x2="482" y1="179.9551" y2="179.9551"/><ellipse cx="284" cy="191.9326" fill="#84BE84" rx="3" ry="3" style="stroke: #038048; stroke-width: 1.0;"/><text fill="#000000" font-family="sans-serif" font-size="11" lengthAdjust="spacingAndGlyphs" textLength="101" x="293" y="194.5898">Polygon(Point2D[])</text><ellipse cx="284" cy="204.8877" fill="#84BE84" rx="3" ry="3" style="stroke: #038048; stroke-width: 1.0;"/><text fill="#000000" font-family="sans-serif" font-size="11" lengthAdjust="spacingAndGlyphs" text-decoration="underline" textLength="184" x="293" y="207.5449">square(Point2D, Point2D): Polygon</text><ellipse cx="284" cy="217.8428" fill="#84BE84" rx="3" ry="3" style="stroke: #038048; stroke-width: 1.0;"/><text fill="#000000" font-family="sans-serif" font-size="11" lengthAdjust="spacingAndGlyphs" textLength="159" x="293" y="220.5">intersect(Line): Set&lt;Point2D&gt;</text><ellipse cx="284" cy="230.7979" fill="#84BE84" rx="3" ry="3" style="stroke: #038048; stroke-width: 1.0;"/><text fill="#000000" font-family="sans-serif" font-size="11" lengthAdjust="spacingAndGlyphs" textLength="105" x="293" y="233.4551">edges(): List&lt;Line&gt;</text><ellipse cx="284" cy="243.7529" fill="#84BE84" rx="3" ry="3" style="stroke: #038048; stroke-width: 1.0;"/><text fill="#000000" font-family="sans-serif" font-size="11" lengthAdjust="spacingAndGlyphs" textLength="98" x="293" y="246.4102">shoelace(): double</text></a><!--class nl.vaneijndhoven.dukes.geometry.Point3D--><a href="Point3D.html" target="_top" xlink:actuate="onRequest" xlink:show="new" xlink:title="Point3D.html" xlink:type="simple"><rect fill="#FEFECE" filter="url(#f4cmfypoxtjza)" height="73.9102" id="nl.vaneijndhoven.dukes.geometry.Point3D" style="stroke: #A80036; stroke-width: 1.5;" width="164" x="235" y="755"/><ellipse cx="290.25" cy="771" fill="#B4A7E5" rx="11" ry="11" style="stroke: #A80036; stroke-width: 1.0;"/><path d="M286.1777,766.7651 L286.1777,764.6069 L293.5571,764.6069 L293.5571,766.7651 L291.0918,766.7651 L291.0918,774.8418 L293.5571,774.8418 L293.5571,777 L286.1777,777 L286.1777,774.8418 L288.6431,774.8418 L288.6431,766.7651 Z "/><text fill="#000000" font-family="sans-serif" font-size="12" font-style="italic" lengthAdjust="spacingAndGlyphs" textLength="45" x="310.75" y="775.5352">Point3D</text><line style="stroke: #A80036; stroke-width: 1.5;" x1="236" x2="398" y1="787" y2="787"/><line style="stroke: #A80036; stroke-width: 1.5;" x1="236" x2="398" y1="795" y2="795"/><ellipse cx="246" cy="806.9775" fill="#84BE84" rx="3" ry="3" style="stroke: #038048; stroke-width: 1.0;"/><text fill="#000000" font-family="sans-serif" font-size="11" font-style="italic" lengthAdjust="spacingAndGlyphs" textLength="75" x="255" y="809.6348">getZ(): double</text><ellipse cx="246" cy="819.9326" fill="#84BE84" rx="3" ry="3" style="stroke: #038048; stroke-width: 1.0;"/><text fill="#000000" font-family="sans-serif" font-size="11" font-style="italic" lengthAdjust="spacingAndGlyphs" textLength="138" x="255" y="822.5898">distance(Point3D): double</text></a><!--class nl.vaneijndhoven.dukes.geometry.Point2D--><a href="Point2D.html" target="_top" xlink:actuate="onRequest" xlink:show="new" xlink:title="Point2D.html" xlink:type="simple"><rect fill="#FEFECE" filter="url(#f4cmfypoxtjza)" height="86.8652" id="nl.vaneijndhoven.dukes.geometry.Point2D" style="stroke: #A80036; stroke-width: 1.5;" width="164" x="271" y="525.5"/><ellipse cx="326.25" cy="541.5" fill="#B4A7E5" rx="11" ry="11" style="stroke: #A80036; stroke-width: 1.0;"/><path d="M322.1777,537.2651 L322.1777,535.1069 L329.5571,535.1069 L329.5571,537.2651 L327.0918,537.2651 L327.0918,545.3418 L329.5571,545.3418 L329.5571,547.5 L322.1777,547.5 L322.1777,545.3418 L324.6431,545.3418 L324.6431,537.2651 Z "/><text fill="#000000" font-family="sans-serif" font-size="12" font-style="italic" lengthAdjust="spacingAndGlyphs" textLength="45" x="346.75" y="546.0352">Point2D</text><line style="stroke: #A80036; stroke-width: 1.5;" x1="272" x2="434" y1="557.5" y2="557.5"/><line style="stroke: #A80036; stroke-width: 1.5;" x1="272" x2="434" y1="565.5" y2="565.5"/><ellipse cx="282" cy="577.4775" fill="#84BE84" rx="3" ry="3" style="stroke: #038048; stroke-width: 1.0;"/><text fill="#000000" font-family="sans-serif" font-size="11" font-style="italic" lengthAdjust="spacingAndGlyphs" textLength="75" x="291" y="580.1348">getX(): double</text><ellipse cx="282" cy="590.4326" fill="#84BE84" rx="3" ry="3" style="stroke: #038048; stroke-width: 1.0;"/><text fill="#000000" font-family="sans-serif" font-size="11" font-style="italic" lengthAdjust="spacingAndGlyphs" textLength="75" x="291" y="593.0898">getY(): double</text><ellipse cx="282" cy="603.3877" fill="#84BE84" rx="3" ry="3" style="stroke: #038048; stroke-width: 1.0;"/><text fill="#000000" font-family="sans-serif" font-size="11" font-style="italic" lengthAdjust="spacingAndGlyphs" textLength="138" x="291" y="606.0449">distance(Point2D): double</text></a><!--class nl.vaneijndhoven.dukes.geometry.Point--><a href="Point.html" target="_top" xlink:actuate="onRequest" xlink:show="new" xlink:title="Point.html" xlink:type="simple"><rect fill="#FEFECE" filter="url(#f4cmfypoxtjza)" height="190.5059" id="nl.vaneijndhoven.dukes.geometry.Point" style="stroke: #A80036; stroke-width: 1.5;" width="167" x="315.5" y="1017"/><ellipse cx="380.75" cy="1033" fill="#ADD1B2" rx="11" ry="11" style="stroke: #A80036; stroke-width: 1.0;"/><path d="M383.7231,1038.6431 Q383.1421,1038.9419 382.5029,1039.0913 Q381.8638,1039.2407 381.1582,1039.2407 Q378.6514,1039.2407 377.3315,1037.5889 Q376.0117,1035.937 376.0117,1032.8159 Q376.0117,1029.6865 377.3315,1028.0347 Q378.6514,1026.3828 381.1582,1026.3828 Q381.8638,1026.3828 382.5112,1026.5322 Q383.1587,1026.6816 383.7231,1026.9805 L383.7231,1029.7031 Q383.0923,1029.1221 382.4988,1028.8523 Q381.9053,1028.5825 381.2744,1028.5825 Q379.9297,1028.5825 379.2449,1029.6492 Q378.5601,1030.7158 378.5601,1032.8159 Q378.5601,1034.9077 379.2449,1035.9744 Q379.9297,1037.041 381.2744,1037.041 Q381.9053,1037.041 382.4988,1036.7712 Q383.0923,1036.5015 383.7231,1035.9204 Z "/><text fill="#000000" font-family="sans-serif" font-size="12" lengthAdjust="spacingAndGlyphs" textLength="28" x="401.25" y="1037.5352">Point</text><line style="stroke: #A80036; stroke-width: 1.5;" x1="316.5" x2="481.5" y1="1049" y2="1049"/><ellipse cx="326.5" cy="1060.9775" fill="none" rx="3" ry="3" style="stroke: #038048; stroke-width: 1.0;"/><text fill="#000000" font-family="sans-serif" font-size="11" lengthAdjust="spacingAndGlyphs" text-decoration="underline" textLength="27" x="335.5" y="1063.6348">X: int</text><ellipse cx="326.5" cy="1073.9326" fill="none" rx="3" ry="3" style="stroke: #038048; stroke-width: 1.0;"/><text fill="#000000" font-family="sans-serif" font-size="11" lengthAdjust="spacingAndGlyphs" text-decoration="underline" textLength="27" x="335.5" y="1076.5898">Y: int</text><ellipse cx="326.5" cy="1086.8877" fill="none" rx="3" ry="3" style="stroke: #038048; stroke-width: 1.0;"/><text fill="#000000" font-family="sans-serif" font-size="11" lengthAdjust="spacingAndGlyphs" text-decoration="underline" textLength="27" x="335.5" y="1089.5449">Z: int</text><line style="stroke: #A80036; stroke-width: 1.5;" x1="316.5" x2="481.5" y1="1095.8652" y2="1095.8652"/><ellipse cx="326.5" cy="1107.8428" fill="#84BE84" rx="3" ry="3" style="stroke: #038048; stroke-width: 1.0;"/><text fill="#000000" font-family="sans-serif" font-size="11" lengthAdjust="spacingAndGlyphs" textLength="80" x="335.5" y="1110.5">Point(double[])</text><ellipse cx="326.5" cy="1120.7979" fill="#84BE84" rx="3" ry="3" style="stroke: #038048; stroke-width: 1.0;"/><text fill="#000000" font-family="sans-serif" font-size="11" lengthAdjust="spacingAndGlyphs" textLength="141" x="335.5" y="1123.4551">distance(double[]): double</text><ellipse cx="326.5" cy="1133.7529" fill="#84BE84" rx="3" ry="3" style="stroke: #038048; stroke-width: 1.0;"/><text fill="#000000" font-family="sans-serif" font-size="11" lengthAdjust="spacingAndGlyphs" textLength="138" x="335.5" y="1136.4102">distance(Point2D): double</text><ellipse cx="326.5" cy="1146.708" fill="#84BE84" rx="3" ry="3" style="stroke: #038048; stroke-width: 1.0;"/><text fill="#000000" font-family="sans-serif" font-size="11" lengthAdjust="spacingAndGlyphs" textLength="138" x="335.5" y="1149.3652">distance(Point3D): double</text><ellipse cx="326.5" cy="1159.6631" fill="#84BE84" rx="3" ry="3" style="stroke: #038048; stroke-width: 1.0;"/><text fill="#000000" font-family="sans-serif" font-size="11" lengthAdjust="spacingAndGlyphs" textLength="75" x="335.5" y="1162.3203">getX(): double</text><ellipse cx="326.5" cy="1172.6182" fill="#84BE84" rx="3" ry="3" style="stroke: #038048; stroke-width: 1.0;"/><text fill="#000000" font-family="sans-serif" font-size="11" lengthAdjust="spacingAndGlyphs" textLength="75" x="335.5" y="1175.2754">getY(): double</text><ellipse cx="326.5" cy="1185.5732" fill="#84BE84" rx="3" ry="3" style="stroke: #038048; stroke-width: 1.0;"/><text fill="#000000" font-family="sans-serif" font-size="11" lengthAdjust="spacingAndGlyphs" textLength="75" x="335.5" y="1188.2305">getZ(): double</text><ellipse cx="326.5" cy="1198.5283" fill="#84BE84" rx="3" ry="3" style="stroke: #038048; stroke-width: 1.0;"/><text fill="#000000" font-family="sans-serif" font-size="11" lengthAdjust="spacingAndGlyphs" textLength="116" x="335.5" y="1201.1855">compareTo(Point): int</text></a><!--class nl.vaneijndhoven.dukes.geometry.Line--><a href="Line.html" target="_top" xlink:actuate="onRequest" xlink:show="new" xlink:title="Line.html" xlink:type="simple"><rect fill="#FEFECE" filter="url(#f4cmfypoxtjza)" height="294.1465" id="nl.vaneijndhoven.dukes.geometry.Line" style="stroke: #A80036; stroke-width: 1.5;" width="215" x="22.5" y="43"/><ellipse cx="114.25" cy="59" fill="#ADD1B2" rx="11" ry="11" style="stroke: #A80036; stroke-width: 1.0;"/><path d="M117.2231,64.6431 Q116.6421,64.9419 116.0029,65.0913 Q115.3638,65.2407 114.6582,65.2407 Q112.1514,65.2407 110.8315,63.5889 Q109.5117,61.937 109.5117,58.8159 Q109.5117,55.6865 110.8315,54.0347 Q112.1514,52.3828 114.6582,52.3828 Q115.3638,52.3828 116.0112,52.5322 Q116.6587,52.6816 117.2231,52.9805 L117.2231,55.7031 Q116.5923,55.1221 115.9988,54.8523 Q115.4053,54.5825 114.7744,54.5825 Q113.4297,54.5825 112.7449,55.6492 Q112.0601,56.7158 112.0601,58.8159 Q112.0601,60.9077 112.7449,61.9744 Q113.4297,63.041 114.7744,63.041 Q115.4053,63.041 115.9988,62.7712 Q116.5923,62.5015 117.2231,61.9204 Z "/><text fill="#000000" font-family="sans-serif" font-size="12" lengthAdjust="spacingAndGlyphs" textLength="23" x="134.75" y="63.5352">Line</text><line style="stroke: #A80036; stroke-width: 1.5;" x1="23.5" x2="236.5" y1="75" y2="75"/><line style="stroke: #A80036; stroke-width: 1.5;" x1="23.5" x2="236.5" y1="83" y2="83"/><ellipse cx="33.5" cy="94.9775" fill="#84BE84" rx="3" ry="3" style="stroke: #038048; stroke-width: 1.0;"/><text fill="#000000" font-family="sans-serif" font-size="11" lengthAdjust="spacingAndGlyphs" textLength="75" x="42.5" y="97.6348">Line(double[])</text><ellipse cx="33.5" cy="107.9326" fill="#84BE84" rx="3" ry="3" style="stroke: #038048; stroke-width: 1.0;"/><text fill="#000000" font-family="sans-serif" font-size="11" lengthAdjust="spacingAndGlyphs" textLength="120" x="42.5" y="110.5898">Line(Point2D, Point2D)</text><ellipse cx="33.5" cy="120.8877" fill="#84BE84" rx="3" ry="3" style="stroke: #038048; stroke-width: 1.0;"/><text fill="#000000" font-family="sans-serif" font-size="11" lengthAdjust="spacingAndGlyphs" textLength="85" x="42.5" y="123.5449">length(): double</text><ellipse cx="33.5" cy="133.8428" fill="#84BE84" rx="3" ry="3" style="stroke: #038048; stroke-width: 1.0;"/><text fill="#000000" font-family="sans-serif" font-size="11" lengthAdjust="spacingAndGlyphs" textLength="100" x="42.5" y="136.5">angleRad(): double</text><ellipse cx="33.5" cy="146.7979" fill="#84BE84" rx="3" ry="3" style="stroke: #038048; stroke-width: 1.0;"/><text fill="#000000" font-family="sans-serif" font-size="11" lengthAdjust="spacingAndGlyphs" textLength="101" x="42.5" y="149.4551">angleDeg(): double</text><ellipse cx="33.5" cy="159.7529" fill="#84BE84" rx="3" ry="3" style="stroke: #038048; stroke-width: 1.0;"/><text fill="#000000" font-family="sans-serif" font-size="11" lengthAdjust="spacingAndGlyphs" text-decoration="underline" textLength="108" x="42.5" y="162.4102">average(Line[]): Line</text><ellipse cx="33.5" cy="172.708" fill="#84BE84" rx="3" ry="3" style="stroke: #038048; stroke-width: 1.0;"/><text fill="#000000" font-family="sans-serif" font-size="11" lengthAdjust="spacingAndGlyphs" text-decoration="underline" textLength="172" x="42.5" y="175.3652">average(Collection&lt;Line&gt;): Line</text><ellipse cx="33.5" cy="185.6631" fill="#84BE84" rx="3" ry="3" style="stroke: #038048; stroke-width: 1.0;"/><text fill="#000000" font-family="sans-serif" font-size="11" lengthAdjust="spacingAndGlyphs" textLength="163" x="42.5" y="188.3203">isLeftOfLine(Point2D): boolean</text><ellipse cx="33.5" cy="198.6182" fill="#84BE84" rx="3" ry="3" style="stroke: #038048; stroke-width: 1.0;"/><text fill="#000000" font-family="sans-serif" font-size="11" lengthAdjust="spacingAndGlyphs" textLength="171" x="42.5" y="201.2754">isRightOfLine(Point2D): boolean</text><ellipse cx="33.5" cy="211.5732" fill="#84BE84" rx="3" ry="3" style="stroke: #038048; stroke-width: 1.0;"/><text fill="#000000" font-family="sans-serif" font-size="11" lengthAdjust="spacingAndGlyphs" textLength="169" x="42.5" y="214.2305">existsOnLine(Point2D): boolean</text><ellipse cx="33.5" cy="224.5283" fill="#84BE84" rx="3" ry="3" style="stroke: #038048; stroke-width: 1.0;"/><text fill="#000000" font-family="sans-serif" font-size="11" lengthAdjust="spacingAndGlyphs" textLength="121" x="42.5" y="227.1855">bottomMost(): Point2D</text><ellipse cx="33.5" cy="237.4834" fill="#84BE84" rx="3" ry="3" style="stroke: #038048; stroke-width: 1.0;"/><text fill="#000000" font-family="sans-serif" font-size="11" lengthAdjust="spacingAndGlyphs" textLength="99" x="42.5" y="240.1406">leftMost(): Point2D</text><ellipse cx="33.5" cy="250.4385" fill="#84BE84" rx="3" ry="3" style="stroke: #038048; stroke-width: 1.0;"/><text fill="#000000" font-family="sans-serif" font-size="11" lengthAdjust="spacingAndGlyphs" textLength="108" x="42.5" y="253.0957">rightMost(): Point2D</text><ellipse cx="33.5" cy="263.3936" fill="#84BE84" rx="3" ry="3" style="stroke: #038048; stroke-width: 1.0;"/><text fill="#000000" font-family="sans-serif" font-size="11" lengthAdjust="spacingAndGlyphs" textLength="100" x="42.5" y="266.0508">topMost(): Point2D</text><ellipse cx="33.5" cy="276.3486" fill="#84BE84" rx="3" ry="3" style="stroke: #038048; stroke-width: 1.0;"/><text fill="#000000" font-family="sans-serif" font-size="11" lengthAdjust="spacingAndGlyphs" textLength="133" x="42.5" y="279.0059">pointAt(double): Point2D</text><ellipse cx="33.5" cy="289.3037" fill="#84BE84" rx="3" ry="3" style="stroke: #038048; stroke-width: 1.0;"/><text fill="#000000" font-family="sans-serif" font-size="11" lengthAdjust="spacingAndGlyphs" textLength="80" x="42.5" y="291.9609">width(): double</text><ellipse cx="33.5" cy="302.2588" fill="#84BE84" rx="3" ry="3" style="stroke: #038048; stroke-width: 1.0;"/><text fill="#000000" font-family="sans-serif" font-size="11" lengthAdjust="spacingAndGlyphs" textLength="85" x="42.5" y="304.916">height(): double</text><ellipse cx="33.5" cy="315.2139" fill="#84BE84" rx="3" ry="3" style="stroke: #038048; stroke-width: 1.0;"/><text fill="#000000" font-family="sans-serif" font-size="11" lengthAdjust="spacingAndGlyphs" textLength="189" x="42.5" y="317.8711">intersect(Line): Optional&lt;Point2D&gt;</text><ellipse cx="33.5" cy="328.1689" fill="#84BE84" rx="3" ry="3" style="stroke: #038048; stroke-width: 1.0;"/><text fill="#000000" font-family="sans-serif" font-size="11" lengthAdjust="spacingAndGlyphs" textLength="138" x="42.5" y="330.8262">distance(Point2D): double</text></a><!--class nl.vaneijndhoven.dukes.geometry.Line.Vector--><a href="Line.Vector.html" target="_top" xlink:actuate="onRequest" xlink:show="new" xlink:title="Line.Vector.html" xlink:type="simple"><rect fill="#FEFECE" filter="url(#f4cmfypoxtjza)" height="125.7305" id="nl.vaneijndhoven.dukes.geometry.Line.Vector" style="stroke: #A80036; stroke-width: 1.5;" width="214" x="22" y="506"/><ellipse cx="92.75" cy="522" fill="#ADD1B2" rx="11" ry="11" style="stroke: #A80036; stroke-width: 1.0;"/><path d="M95.7231,527.6431 Q95.1421,527.9419 94.5029,528.0913 Q93.8638,528.2407 93.1582,528.2407 Q90.6514,528.2407 89.3315,526.5889 Q88.0117,524.937 88.0117,521.8159 Q88.0117,518.6865 89.3315,517.0347 Q90.6514,515.3828 93.1582,515.3828 Q93.8638,515.3828 94.5112,515.5322 Q95.1587,515.6816 95.7231,515.9805 L95.7231,518.7031 Q95.0923,518.1221 94.4988,517.8523 Q93.9053,517.5825 93.2744,517.5825 Q91.9297,517.5825 91.2449,518.6492 Q90.5601,519.7158 90.5601,521.8159 Q90.5601,523.9077 91.2449,524.9744 Q91.9297,526.041 93.2744,526.041 Q93.9053,526.041 94.4988,525.7712 Q95.0923,525.5015 95.7231,524.9204 Z "/><text fill="#000000" font-family="sans-serif" font-size="12" lengthAdjust="spacingAndGlyphs" textLength="64" x="113.25" y="526.5352">Line.Vector</text><line style="stroke: #A80036; stroke-width: 1.5;" x1="23" x2="235" y1="538" y2="538"/><line style="stroke: #A80036; stroke-width: 1.5;" x1="23" x2="235" y1="546" y2="546"/><ellipse cx="33" cy="557.9775" fill="#84BE84" rx="3" ry="3" style="stroke: #038048; stroke-width: 1.0;"/><text fill="#000000" font-family="sans-serif" font-size="11" lengthAdjust="spacingAndGlyphs" textLength="123" x="42" y="560.6348">Vector(double, double)</text><ellipse cx="33" cy="570.9326" fill="#84BE84" rx="3" ry="3" style="stroke: #038048; stroke-width: 1.0;"/><text fill="#000000" font-family="sans-serif" font-size="11" lengthAdjust="spacingAndGlyphs" textLength="188" x="42" y="573.5898">calculate(Point2D, double): Point2D</text><ellipse cx="33" cy="583.8877" fill="#84BE84" rx="3" ry="3" style="stroke: #038048; stroke-width: 1.0;"/><text fill="#000000" font-family="sans-serif" font-size="11" lengthAdjust="spacingAndGlyphs" textLength="142" x="42" y="586.5449">calculateX(double): double</text><ellipse cx="33" cy="596.8428" fill="#84BE84" rx="3" ry="3" style="stroke: #038048; stroke-width: 1.0;"/><text fill="#000000" font-family="sans-serif" font-size="11" lengthAdjust="spacingAndGlyphs" textLength="142" x="42" y="599.5">calculateY(double): double</text><ellipse cx="33" cy="609.7979" fill="#84BE84" rx="3" ry="3" style="stroke: #038048; stroke-width: 1.0;"/><text fill="#000000" font-family="sans-serif" font-size="11" lengthAdjust="spacingAndGlyphs" text-decoration="underline" textLength="134" x="42" y="612.4551">forY(double): Line.Vector</text><ellipse cx="33" cy="622.7529" fill="#84BE84" rx="3" ry="3" style="stroke: #038048; stroke-width: 1.0;"/><text fill="#000000" font-family="sans-serif" font-size="11" lengthAdjust="spacingAndGlyphs" text-decoration="underline" textLength="134" x="42" y="625.4102">forX(double): Line.Vector</text></a><!--class java.lang.Comparable--><rect fill="#FEFECE" filter="url(#f4cmfypoxtjza)" height="60.9551" id="java.lang.Comparable" style="stroke: #A80036; stroke-width: 1.5;" width="122" x="507" y="895"/><ellipse cx="525.15" cy="911" fill="#B4A7E5" rx="11" ry="11" style="stroke: #A80036; stroke-width: 1.0;"/><path d="M521.0777,906.7651 L521.0777,904.6069 L528.4571,904.6069 L528.4571,906.7651 L525.9918,906.7651 L525.9918,914.8418 L528.4571,914.8418 L528.4571,917 L521.0777,917 L521.0777,914.8418 L523.5431,914.8418 L523.5431,906.7651 Z "/><text fill="#000000" font-family="sans-serif" font-size="12" font-style="italic" lengthAdjust="spacingAndGlyphs" textLength="71" x="539.85" y="915.5352">Comparable</text><rect fill="#FFFFFF" height="16.1328" style="stroke: #000000; stroke-width: 1.0; stroke-dasharray: 2.0,2.0;" width="10" x="622" y="892"/><text fill="#000000" font-family="sans-serif" font-size="12" font-style="italic" lengthAdjust="spacingAndGlyphs" textLength="8" x="623" y="904.6016">T</text><line style="stroke: #A80036; stroke-width: 1.5;" x1="508" x2="628" y1="927" y2="927"/><line style="stroke: #A80036; stroke-width: 1.5;" x1="508" x2="628" y1="935" y2="935"/><ellipse cx="518" cy="946.9775" fill="#84BE84" rx="3" ry="3" style="stroke: #038048; stroke-width: 1.0;"/><text fill="#000000" font-family="sans-serif" font-size="11" font-style="italic" lengthAdjust="spacingAndGlyphs" textLength="96" x="527" y="949.6348">compareTo(T): int</text><!--link nl.vaneijndhoven.dukes.geometry.Point2D to nl.vaneijndhoven.dukes.geometry.Point3D--><path d="M342.756,632.4556 C336.3679,672.0264 328.3683,721.5795 322.9938,754.8719 " fill="none" id="nl.vaneijndhoven.dukes.geometry.Point2D-nl.vaneijndhoven.dukes.geometry.Point3D" style="stroke: #A80036; stroke-width: 1.0; stroke-dasharray: 7.0,7.0;"/><polygon fill="none" points="335.8753,631.1548,345.9734,612.526,349.6964,633.386,335.8753,631.1548" style="stroke: #A80036; stroke-width: 1.0;"/><!--link nl.vaneijndhoven.dukes.geometry.Point2D to nl.vaneijndhoven.dukes.geometry.Point--><path d="M411.6752,628.7064 C424.8413,647.8513 435,670.1793 435,693.5 C435,693.5 435,693.5 435,925.5 C435,955.4206 430.501,987.5564 424.6838,1016.6019 " fill="none" id="nl.vaneijndhoven.dukes.geometry.Point2D-nl.vaneijndhoven.dukes.geometry.Point" style="stroke: #A80036; stroke-width: 1.0; stroke-dasharray: 7.0,7.0;"/><polygon fill="none" points="406.0733,632.9043,399.5105,612.7565,417.2052,624.4142,406.0733,632.9043" style="stroke: #A80036; stroke-width: 1.0;"/><!--link nl.vaneijndhoven.dukes.geometry.Point3D to nl.vaneijndhoven.dukes.geometry.Point--><path d="M331.474,848.5723 C343.3638,895.044 360.4685,961.8983 374.4874,1016.6918 " fill="none" id="nl.vaneijndhoven.dukes.geometry.Point3D-nl.vaneijndhoven.dukes.geometry.Point" style="stroke: #A80036; stroke-width: 1.0; stroke-dasharray: 7.0,7.0;"/><polygon fill="none" points="324.6624,850.1895,326.4865,829.0785,338.2255,846.7193,324.6624,850.1895" style="stroke: #A80036; stroke-width: 1.0;"/><!--link java.lang.Comparable to nl.vaneijndhoven.dukes.geometry.Point--><path d="M526.5206,971.3973 C513.226,986.1079 497.9938,1002.9625 482.7921,1019.7832 " fill="none" id="java.lang.Comparable-nl.vaneijndhoven.dukes.geometry.Point" style="stroke: #A80036; stroke-width: 1.0; stroke-dasharray: 7.0,7.0;"/><polygon fill="none" points="521.4897,966.524,540.0931,956.3792,531.8765,975.911,521.4897,966.524" style="stroke: #A80036; stroke-width: 1.0;"/><!--link nl.vaneijndhoven.dukes.geometry.Line to nl.vaneijndhoven.dukes.geometry.Line.Vector--><path d="M129.5719,352.2585 C129.4289,406.4342 129.278,463.6436 129.1671,505.6748 " fill="none" id="nl.vaneijndhoven.dukes.geometry.Line-nl.vaneijndhoven.dukes.geometry.Line.Vector" style="stroke: #A80036; stroke-width: 1.0;"/><ellipse cx="129.5907" cy="345.0738" fill="#FFFFFF" rx="8" ry="8" style="stroke: #A80036; stroke-width: 1.0;"/><line style="stroke: #A80036; stroke-width: 1.0;" x1="129.5695" x2="129.6119" y1="353.0737" y2="337.0738"/><line style="stroke: #A80036; stroke-width: 1.0;" x1="121.5907" x2="137.5907" y1="345.0526" y2="345.095"/><!--link nl.vaneijndhoven.dukes.geometry.Polygon to nl.vaneijndhoven.dukes.geometry.Point2D--><path d="M373.8437,253.0096 C368.891,328.0924 360.7222,451.9318 356.2225,520.1471 " fill="none" id="nl.vaneijndhoven.dukes.geometry.Polygon-nl.vaneijndhoven.dukes.geometry.Point2D" style="stroke: #A80036; stroke-width: 1.0;"/><polygon fill="#A80036" points="355.8784,525.3635,360.4624,516.6465,356.2077,520.3744,352.4798,516.1196,355.8784,525.3635" style="stroke: #A80036; stroke-width: 1.0;"/><text fill="#000000" font-family="sans-serif" font-size="13" lengthAdjust="spacingAndGlyphs" textLength="40" x="422" y="411.5684">points</text><text fill="#000000" font-family="sans-serif" font-size="13" lengthAdjust="spacingAndGlyphs" textLength="104" x="390" y="426.8789">pointsClockwise</text><text fill="#000000" font-family="sans-serif" font-size="13" lengthAdjust="spacingAndGlyphs" textLength="154" x="365" y="442.1895">pointsCounterClockwise</text><text fill="#000000" font-family="sans-serif" font-size="13" lengthAdjust="spacingAndGlyphs" textLength="6" x="349.859" y="514.8175">*</text><!--link nl.vaneijndhoven.dukes.geometry.Line to nl.vaneijndhoven.dukes.geometry.Point2D--><path d="M216.5368,337.0738 C254.9643,402.3832 297.5616,474.7797 324.7747,521.0297 " fill="none" id="nl.vaneijndhoven.dukes.geometry.Line-nl.vaneijndhoven.dukes.geometry.Point2D" style="stroke: #A80036; stroke-width: 1.0;"/><polygon fill="#A80036" points="327.3596,525.4228,326.2431,515.6374,324.824,521.1134,319.3481,519.6943,327.3596,525.4228" style="stroke: #A80036; stroke-width: 1.0;"/><text fill="#000000" font-family="sans-serif" font-size="13" lengthAdjust="spacingAndGlyphs" textLength="41" x="280" y="419.0684">point1</text><text fill="#000000" font-family="sans-serif" font-size="13" lengthAdjust="spacingAndGlyphs" textLength="41" x="280" y="434.3789">point2</text><text fill="#888888" font-family="sans-serif" font-size="10" lengthAdjust="spacingAndGlyphs" textLength="182" x="240.5" y="1243.668">UMLDoclet 1.1.4, PlantUML 1.2019.05</text><!--
@startuml

    namespace nl.vaneijndhoven.dukes.geometry {

        class Polygon [[Polygon.html]] {
            {static} +debug: boolean
            +Polygon(Point2D[])
            {static} +square(Point2D, Point2D): Polygon
            +intersect(Line): Set<Point2D>
            +edges(): List<Line>
            +shoelace(): double
        }

        interface Point3D [[Point3D.html]] {
            {abstract} +getZ(): double
            {abstract} +distance(Point3D): double
        }

        interface Point2D [[Point2D.html]] {
            {abstract} +getX(): double
            {abstract} +getY(): double
            {abstract} +distance(Point2D): double
        }

        class Point [[Point.html]] {
            {static} +X: int
            {static} +Y: int
            {static} +Z: int
            +Point(double[])
            +distance(double[]): double
            +distance(Point2D): double
            +distance(Point3D): double
            +getX(): double
            +getY(): double
            +getZ(): double
            +compareTo(Point): int
        }

        class Line [[Line.html]] {
            +Line(double[])
            +Line(Point2D, Point2D)
            +length(): double
            +angleRad(): double
            +angleDeg(): double
            {static} +average(Line[]): Line
            {static} +average(Collection<Line>): Line
            +isLeftOfLine(Point2D): boolean
            +isRightOfLine(Point2D): boolean
            +existsOnLine(Point2D): boolean
            +bottomMost(): Point2D
            +leftMost(): Point2D
            +rightMost(): Point2D
            +topMost(): Point2D
            +pointAt(double): Point2D
            +width(): double
            +height(): double
            +intersect(Line): Optional<Point2D>
            +distance(Point2D): double
        }

        class nl.vaneijndhoven.dukes.geometry.Line.Vector [[Line.Vector.html]] {
            +Vector(double, double)
            +calculate(Point2D, double): Point2D
            +calculateX(double): double
            +calculateY(double): double
            {static} +forY(double): Line.Vector
            {static} +forX(double): Line.Vector
        }

        Point2D <|.. Point3D

        Point2D <|.. Point

        Point3D <|.. Point

        interface java.lang.Comparable<T> {
            {abstract} +compareTo(T): int
        }
        java.lang.Comparable <|.. Point

        Line +- - nl.vaneijndhoven.dukes.geometry.Line.Vector

        Polygon - -> "*" Point2D: points\npointsClockwise\npointsCounterClockwise

        Line - -> Point2D: point1\npoint2

    }


    center footer UMLDoclet 1.1.4, PlantUML 1.2019.05
@enduml

PlantUML version 1.2019.05(Sat Apr 20 18:45:36 CEST 2019)
(APACHE source distribution)
Java Runtime: Java(TM) SE Runtime Environment
JVM: Java HotSpot(TM) 64-Bit Server VM
Java Version: 1.8.0_191-b12
Operating System: Mac OS X
OS Version: 10.13.6
Default Encoding: UTF-8
Language: de
Country: DE
--></g></svg>