<?xml version="1.0" encoding="UTF-8" standalone="no"?><svg xmlns="http://www.w3.org/2000/svg" xmlns:xlink="http://www.w3.org/1999/xlink" contentScriptType="application/ecmascript" contentStyleType="text/css" height="1611px" preserveAspectRatio="none" style="width:856px;height:1611px;" version="1.1" viewBox="0 0 856 1611" width="856px" zoomAndPan="magnify"><defs><filter height="300%" id="f39yjd4kc2n5h" width="300%" x="-1" y="-1"><feGaussianBlur result="blurOut" stdDeviation="2.0"/><feColorMatrix in="blurOut" result="blurOut2" type="matrix" values="0 0 0 0 0 0 0 0 0 0 0 0 0 0 0 0 0 0 .4 0"/><feOffset dx="4.0" dy="4.0" in="blurOut2" result="blurOut3"/><feBlend in="SourceGraphic" in2="blurOut3" mode="normal"/></filter></defs><g><!--cluster org.rcdukes.geometry--><polygon fill="#FFFFFF" filter="url(#f39yjd4kc2n5h)" points="14,16,174,16,181,38.4883,688,38.4883,688,1570,14,1570,14,16" style="stroke: #000000; stroke-width: 1.5;"/><line style="stroke: #000000; stroke-width: 1.5;" x1="14" x2="181" y1="38.4883" y2="38.4883"/><text fill="#000000" font-family="sans-serif" font-size="14" font-weight="bold" lengthAdjust="spacingAndGlyphs" textLength="154" x="18" y="31.5352">org.rcdukes.geometry</text><!--cluster java.lang--><polygon fill="#FFFFFF" filter="url(#f39yjd4kc2n5h)" points="696,1145,765,1145,772,1167.4883,834,1167.4883,834,1241,696,1241,696,1145" style="stroke: #000000; stroke-width: 1.5;"/><line style="stroke: #000000; stroke-width: 1.5;" x1="696" x2="772" y1="1167.4883" y2="1167.4883"/><text fill="#000000" font-family="sans-serif" font-size="14" font-weight="bold" lengthAdjust="spacingAndGlyphs" textLength="63" x="700" y="1160.5352">java.lang</text><!--class org.rcdukes.geometry.TestGeometry--><a href="TestGeometry.html" target="_top" xlink:actuate="onRequest" xlink:show="new" xlink:title="TestGeometry.html" xlink:type="simple"><rect fill="#FEFECE" filter="url(#f39yjd4kc2n5h)" height="99.8203" id="org.rcdukes.geometry.TestGeometry" style="stroke: #A80036; stroke-width: 1.5;" width="126" x="554" y="107.5"/><ellipse cx="574.85" cy="123.5" fill="#ADD1B2" rx="11" ry="11" style="stroke: #A80036; stroke-width: 1.0;"/><path d="M577.8231,129.1431 Q577.2421,129.4419 576.6029,129.5913 Q575.9638,129.7407 575.2582,129.7407 Q572.7514,129.7407 571.4315,128.0889 Q570.1117,126.437 570.1117,123.3159 Q570.1117,120.1865 571.4315,118.5347 Q572.7514,116.8828 575.2582,116.8828 Q575.9638,116.8828 576.6112,117.0322 Q577.2587,117.1816 577.8231,117.4805 L577.8231,120.2031 Q577.1923,119.6221 576.5988,119.3523 Q576.0053,119.0825 575.3744,119.0825 Q574.0297,119.0825 573.3449,120.1492 Q572.6601,121.2158 572.6601,123.3159 Q572.6601,125.4077 573.3449,126.4744 Q574.0297,127.541 575.3744,127.541 Q576.0053,127.541 576.5988,127.2712 Q577.1923,127.0015 577.8231,126.4204 Z "/><text fill="#000000" font-family="sans-serif" font-size="12" lengthAdjust="spacingAndGlyphs" textLength="81" x="590.15" y="128.0352">TestGeometry</text><line style="stroke: #A80036; stroke-width: 1.5;" x1="555" x2="679" y1="139.5" y2="139.5"/><line style="stroke: #A80036; stroke-width: 1.5;" x1="555" x2="679" y1="147.5" y2="147.5"/><ellipse cx="565" cy="159.4775" fill="#84BE84" rx="3" ry="3" style="stroke: #038048; stroke-width: 1.0;"/><text fill="#000000" font-family="sans-serif" font-size="11" lengthAdjust="spacingAndGlyphs" textLength="79" x="574" y="162.1348">testLine(): void</text><ellipse cx="565" cy="172.4326" fill="#84BE84" rx="3" ry="3" style="stroke: #038048; stroke-width: 1.0;"/><text fill="#000000" font-family="sans-serif" font-size="11" lengthAdjust="spacingAndGlyphs" textLength="92" x="574" y="175.0898">testVector(): void</text><ellipse cx="565" cy="185.3877" fill="#84BE84" rx="3" ry="3" style="stroke: #038048; stroke-width: 1.0;"/><text fill="#000000" font-family="sans-serif" font-size="11" lengthAdjust="spacingAndGlyphs" textLength="84" x="574" y="188.0449">testPoint(): void</text><ellipse cx="565" cy="198.3428" fill="#84BE84" rx="3" ry="3" style="stroke: #038048; stroke-width: 1.0;"/><text fill="#000000" font-family="sans-serif" font-size="11" lengthAdjust="spacingAndGlyphs" textLength="100" x="574" y="201">testPolygon(): void</text></a><!--class org.rcdukes.geometry.Polygon--><a href="Polygon.html" target="_top" xlink:actuate="onRequest" xlink:show="new" xlink:title="Polygon.html" xlink:type="simple"><rect fill="#FEFECE" filter="url(#f39yjd4kc2n5h)" height="138.6855" id="org.rcdukes.geometry.Polygon" style="stroke: #A80036; stroke-width: 1.5;" width="210" x="469" y="549"/><ellipse cx="547.75" cy="565" fill="#ADD1B2" rx="11" ry="11" style="stroke: #A80036; stroke-width: 1.0;"/><path d="M550.7231,570.6431 Q550.1421,570.9419 549.5029,571.0913 Q548.8638,571.2407 548.1582,571.2407 Q545.6514,571.2407 544.3315,569.5889 Q543.0117,567.937 543.0117,564.8159 Q543.0117,561.6865 544.3315,560.0347 Q545.6514,558.3828 548.1582,558.3828 Q548.8638,558.3828 549.5112,558.5322 Q550.1587,558.6816 550.7231,558.9805 L550.7231,561.7031 Q550.0923,561.1221 549.4988,560.8523 Q548.9053,560.5825 548.2744,560.5825 Q546.9297,560.5825 546.2449,561.6492 Q545.5601,562.7158 545.5601,564.8159 Q545.5601,566.9077 546.2449,567.9744 Q546.9297,569.041 548.2744,569.041 Q548.9053,569.041 549.4988,568.7712 Q550.0923,568.5015 550.7231,567.9204 Z "/><text fill="#000000" font-family="sans-serif" font-size="12" lengthAdjust="spacingAndGlyphs" textLength="44" x="568.25" y="569.5352">Polygon</text><line style="stroke: #A80036; stroke-width: 1.5;" x1="470" x2="678" y1="581" y2="581"/><ellipse cx="480" cy="592.9775" fill="none" rx="3" ry="3" style="stroke: #038048; stroke-width: 1.0;"/><text fill="#000000" font-family="sans-serif" font-size="11" lengthAdjust="spacingAndGlyphs" text-decoration="underline" textLength="83" x="489" y="595.6348">debug: boolean</text><line style="stroke: #A80036; stroke-width: 1.5;" x1="470" x2="678" y1="601.9551" y2="601.9551"/><ellipse cx="480" cy="613.9326" fill="#84BE84" rx="3" ry="3" style="stroke: #038048; stroke-width: 1.0;"/><text fill="#000000" font-family="sans-serif" font-size="11" lengthAdjust="spacingAndGlyphs" textLength="101" x="489" y="616.5898">Polygon(Point2D[])</text><ellipse cx="480" cy="626.8877" fill="#84BE84" rx="3" ry="3" style="stroke: #038048; stroke-width: 1.0;"/><text fill="#000000" font-family="sans-serif" font-size="11" lengthAdjust="spacingAndGlyphs" textLength="104" x="489" y="629.5449">init(Point2D[]): void</text><ellipse cx="480" cy="639.8428" fill="#84BE84" rx="3" ry="3" style="stroke: #038048; stroke-width: 1.0;"/><text fill="#000000" font-family="sans-serif" font-size="11" lengthAdjust="spacingAndGlyphs" text-decoration="underline" textLength="184" x="489" y="642.5">square(Point2D, Point2D): Polygon</text><ellipse cx="480" cy="652.7979" fill="#84BE84" rx="3" ry="3" style="stroke: #038048; stroke-width: 1.0;"/><text fill="#000000" font-family="sans-serif" font-size="11" lengthAdjust="spacingAndGlyphs" textLength="159" x="489" y="655.4551">intersect(Line): Set&lt;Point2D&gt;</text><ellipse cx="480" cy="665.7529" fill="#84BE84" rx="3" ry="3" style="stroke: #038048; stroke-width: 1.0;"/><text fill="#000000" font-family="sans-serif" font-size="11" lengthAdjust="spacingAndGlyphs" textLength="105" x="489" y="668.4102">edges(): List&lt;Line&gt;</text><ellipse cx="480" cy="678.708" fill="#84BE84" rx="3" ry="3" style="stroke: #038048; stroke-width: 1.0;"/><text fill="#000000" font-family="sans-serif" font-size="11" lengthAdjust="spacingAndGlyphs" textLength="98" x="489" y="681.3652">shoelace(): double</text></a><!--class org.rcdukes.geometry.Line--><a href="Line.html" target="_top" xlink:actuate="onRequest" xlink:show="new" xlink:title="Line.html" xlink:type="simple"><rect fill="#FEFECE" filter="url(#f39yjd4kc2n5h)" height="384.832" id="org.rcdukes.geometry.Line" style="stroke: #A80036; stroke-width: 1.5;" width="258" x="176" y="426"/><ellipse cx="289.25" cy="442" fill="#ADD1B2" rx="11" ry="11" style="stroke: #A80036; stroke-width: 1.0;"/><path d="M292.2231,447.6431 Q291.6421,447.9419 291.0029,448.0913 Q290.3638,448.2407 289.6582,448.2407 Q287.1514,448.2407 285.8315,446.5889 Q284.5117,444.937 284.5117,441.8159 Q284.5117,438.6865 285.8315,437.0347 Q287.1514,435.3828 289.6582,435.3828 Q290.3638,435.3828 291.0112,435.5322 Q291.6587,435.6816 292.2231,435.9805 L292.2231,438.7031 Q291.5923,438.1221 290.9988,437.8523 Q290.4053,437.5825 289.7744,437.5825 Q288.4297,437.5825 287.7449,438.6492 Q287.0601,439.7158 287.0601,441.8159 Q287.0601,443.9077 287.7449,444.9744 Q288.4297,446.041 289.7744,446.041 Q290.4053,446.041 290.9988,445.7712 Q291.5923,445.5015 292.2231,444.9204 Z "/><text fill="#000000" font-family="sans-serif" font-size="12" lengthAdjust="spacingAndGlyphs" textLength="23" x="309.75" y="446.5352">Line</text><line style="stroke: #A80036; stroke-width: 1.5;" x1="177" x2="433" y1="458" y2="458"/><line style="stroke: #A80036; stroke-width: 1.5;" x1="177" x2="433" y1="466" y2="466"/><ellipse cx="187" cy="477.9775" fill="#84BE84" rx="3" ry="3" style="stroke: #038048; stroke-width: 1.0;"/><text fill="#000000" font-family="sans-serif" font-size="11" lengthAdjust="spacingAndGlyphs" textLength="30" x="196" y="480.6348">Line()</text><ellipse cx="187" cy="490.9326" fill="#84BE84" rx="3" ry="3" style="stroke: #038048; stroke-width: 1.0;"/><text fill="#000000" font-family="sans-serif" font-size="11" lengthAdjust="spacingAndGlyphs" textLength="75" x="196" y="493.5898">Line(double[])</text><ellipse cx="187" cy="503.8877" fill="#84BE84" rx="3" ry="3" style="stroke: #038048; stroke-width: 1.0;"/><text fill="#000000" font-family="sans-serif" font-size="11" lengthAdjust="spacingAndGlyphs" textLength="90" x="196" y="506.5449">Line(Point, Point)</text><ellipse cx="187" cy="516.8428" fill="#84BE84" rx="3" ry="3" style="stroke: #038048; stroke-width: 1.0;"/><text fill="#000000" font-family="sans-serif" font-size="11" lengthAdjust="spacingAndGlyphs" textLength="120" x="196" y="519.5">Line(Point2D, Point2D)</text><ellipse cx="187" cy="529.7979" fill="#84BE84" rx="3" ry="3" style="stroke: #038048; stroke-width: 1.0;"/><text fill="#000000" font-family="sans-serif" font-size="11" lengthAdjust="spacingAndGlyphs" text-decoration="underline" textLength="232" x="196" y="532.4551">fromHough(boolean, int, int, double[]): Line</text><ellipse cx="187" cy="542.7529" fill="#84BE84" rx="3" ry="3" style="stroke: #038048; stroke-width: 1.0;"/><text fill="#000000" font-family="sans-serif" font-size="11" lengthAdjust="spacingAndGlyphs" textLength="114" x="196" y="545.4102">init(Point, Point): void</text><ellipse cx="187" cy="555.708" fill="#84BE84" rx="3" ry="3" style="stroke: #038048; stroke-width: 1.0;"/><text fill="#000000" font-family="sans-serif" font-size="11" lengthAdjust="spacingAndGlyphs" textLength="85" x="196" y="558.3652">length(): double</text><ellipse cx="187" cy="568.6631" fill="#84BE84" rx="3" ry="3" style="stroke: #038048; stroke-width: 1.0;"/><text fill="#000000" font-family="sans-serif" font-size="11" lengthAdjust="spacingAndGlyphs" textLength="100" x="196" y="571.3203">angleRad(): double</text><ellipse cx="187" cy="581.6182" fill="#84BE84" rx="3" ry="3" style="stroke: #038048; stroke-width: 1.0;"/><text fill="#000000" font-family="sans-serif" font-size="11" lengthAdjust="spacingAndGlyphs" textLength="101" x="196" y="584.2754">angleDeg(): double</text><ellipse cx="187" cy="594.5732" fill="#84BE84" rx="3" ry="3" style="stroke: #038048; stroke-width: 1.0;"/><text fill="#000000" font-family="sans-serif" font-size="11" lengthAdjust="spacingAndGlyphs" textLength="115" x="196" y="597.2305">angleDeg90(): double</text><ellipse cx="187" cy="607.5283" fill="#84BE84" rx="3" ry="3" style="stroke: #038048; stroke-width: 1.0;"/><text fill="#000000" font-family="sans-serif" font-size="11" lengthAdjust="spacingAndGlyphs" text-decoration="underline" textLength="108" x="196" y="610.1855">average(Line[]): Line</text><ellipse cx="187" cy="620.4834" fill="#84BE84" rx="3" ry="3" style="stroke: #038048; stroke-width: 1.0;"/><text fill="#000000" font-family="sans-serif" font-size="11" lengthAdjust="spacingAndGlyphs" text-decoration="underline" textLength="172" x="196" y="623.1406">average(Collection&lt;Line&gt;): Line</text><ellipse cx="187" cy="633.4385" fill="#84BE84" rx="3" ry="3" style="stroke: #038048; stroke-width: 1.0;"/><text fill="#000000" font-family="sans-serif" font-size="11" lengthAdjust="spacingAndGlyphs" textLength="163" x="196" y="636.0957">isLeftOfLine(Point2D): boolean</text><ellipse cx="187" cy="646.3936" fill="#84BE84" rx="3" ry="3" style="stroke: #038048; stroke-width: 1.0;"/><text fill="#000000" font-family="sans-serif" font-size="11" lengthAdjust="spacingAndGlyphs" textLength="171" x="196" y="649.0508">isRightOfLine(Point2D): boolean</text><ellipse cx="187" cy="659.3486" fill="#84BE84" rx="3" ry="3" style="stroke: #038048; stroke-width: 1.0;"/><text fill="#000000" font-family="sans-serif" font-size="11" lengthAdjust="spacingAndGlyphs" textLength="169" x="196" y="662.0059">existsOnLine(Point2D): boolean</text><ellipse cx="187" cy="672.3037" fill="#84BE84" rx="3" ry="3" style="stroke: #038048; stroke-width: 1.0;"/><text fill="#000000" font-family="sans-serif" font-size="11" lengthAdjust="spacingAndGlyphs" textLength="121" x="196" y="674.9609">bottomMost(): Point2D</text><ellipse cx="187" cy="685.2588" fill="#84BE84" rx="3" ry="3" style="stroke: #038048; stroke-width: 1.0;"/><text fill="#000000" font-family="sans-serif" font-size="11" lengthAdjust="spacingAndGlyphs" textLength="99" x="196" y="687.916">leftMost(): Point2D</text><ellipse cx="187" cy="698.2139" fill="#84BE84" rx="3" ry="3" style="stroke: #038048; stroke-width: 1.0;"/><text fill="#000000" font-family="sans-serif" font-size="11" lengthAdjust="spacingAndGlyphs" textLength="108" x="196" y="700.8711">rightMost(): Point2D</text><ellipse cx="187" cy="711.1689" fill="#84BE84" rx="3" ry="3" style="stroke: #038048; stroke-width: 1.0;"/><text fill="#000000" font-family="sans-serif" font-size="11" lengthAdjust="spacingAndGlyphs" textLength="100" x="196" y="713.8262">topMost(): Point2D</text><ellipse cx="187" cy="724.124" fill="#84BE84" rx="3" ry="3" style="stroke: #038048; stroke-width: 1.0;"/><text fill="#000000" font-family="sans-serif" font-size="11" lengthAdjust="spacingAndGlyphs" textLength="133" x="196" y="726.7813">pointAt(double): Point2D</text><ellipse cx="187" cy="737.0791" fill="#84BE84" rx="3" ry="3" style="stroke: #038048; stroke-width: 1.0;"/><text fill="#000000" font-family="sans-serif" font-size="11" lengthAdjust="spacingAndGlyphs" textLength="80" x="196" y="739.7363">width(): double</text><ellipse cx="187" cy="750.0342" fill="#84BE84" rx="3" ry="3" style="stroke: #038048; stroke-width: 1.0;"/><text fill="#000000" font-family="sans-serif" font-size="11" lengthAdjust="spacingAndGlyphs" textLength="85" x="196" y="752.6914">height(): double</text><ellipse cx="187" cy="762.9893" fill="#84BE84" rx="3" ry="3" style="stroke: #038048; stroke-width: 1.0;"/><text fill="#000000" font-family="sans-serif" font-size="11" lengthAdjust="spacingAndGlyphs" text-decoration="underline" textLength="145" x="196" y="765.6465">angleString(Double): String</text><ellipse cx="187" cy="775.9443" fill="#84BE84" rx="3" ry="3" style="stroke: #038048; stroke-width: 1.0;"/><text fill="#000000" font-family="sans-serif" font-size="11" lengthAdjust="spacingAndGlyphs" text-decoration="underline" textLength="150" x="196" y="778.6016">lineAngleString(Line): String</text><ellipse cx="187" cy="788.8994" fill="#84BE84" rx="3" ry="3" style="stroke: #038048; stroke-width: 1.0;"/><text fill="#000000" font-family="sans-serif" font-size="11" lengthAdjust="spacingAndGlyphs" textLength="189" x="196" y="791.5566">intersect(Line): Optional&lt;Point2D&gt;</text><ellipse cx="187" cy="801.8545" fill="#84BE84" rx="3" ry="3" style="stroke: #038048; stroke-width: 1.0;"/><text fill="#000000" font-family="sans-serif" font-size="11" lengthAdjust="spacingAndGlyphs" textLength="138" x="196" y="804.5117">distance(Point2D): double</text></a><!--class org.rcdukes.geometry.Line.Vector--><a href="Line.Vector.html" target="_top" xlink:actuate="onRequest" xlink:show="new" xlink:title="Line.Vector.html" xlink:type="simple"><rect fill="#FEFECE" filter="url(#f39yjd4kc2n5h)" height="125.7305" id="org.rcdukes.geometry.Line.Vector" style="stroke: #A80036; stroke-width: 1.5;" width="214" x="196" y="980"/><ellipse cx="266.75" cy="996" fill="#ADD1B2" rx="11" ry="11" style="stroke: #A80036; stroke-width: 1.0;"/><path d="M269.7231,1001.6431 Q269.1421,1001.9419 268.5029,1002.0913 Q267.8638,1002.2407 267.1582,1002.2407 Q264.6514,1002.2407 263.3315,1000.5889 Q262.0117,998.937 262.0117,995.8159 Q262.0117,992.6865 263.3315,991.0347 Q264.6514,989.3828 267.1582,989.3828 Q267.8638,989.3828 268.5112,989.5322 Q269.1587,989.6816 269.7231,989.9805 L269.7231,992.7031 Q269.0923,992.1221 268.4988,991.8523 Q267.9053,991.5825 267.2744,991.5825 Q265.9297,991.5825 265.2449,992.6492 Q264.5601,993.7158 264.5601,995.8159 Q264.5601,997.9077 265.2449,998.9744 Q265.9297,1000.041 267.2744,1000.041 Q267.9053,1000.041 268.4988,999.7712 Q269.0923,999.5015 269.7231,998.9204 Z "/><text fill="#000000" font-family="sans-serif" font-size="12" lengthAdjust="spacingAndGlyphs" textLength="64" x="287.25" y="1000.5352">Line.Vector</text><line style="stroke: #A80036; stroke-width: 1.5;" x1="197" x2="409" y1="1012" y2="1012"/><line style="stroke: #A80036; stroke-width: 1.5;" x1="197" x2="409" y1="1020" y2="1020"/><ellipse cx="207" cy="1031.9775" fill="#84BE84" rx="3" ry="3" style="stroke: #038048; stroke-width: 1.0;"/><text fill="#000000" font-family="sans-serif" font-size="11" lengthAdjust="spacingAndGlyphs" textLength="123" x="216" y="1034.6348">Vector(double, double)</text><ellipse cx="207" cy="1044.9326" fill="#84BE84" rx="3" ry="3" style="stroke: #038048; stroke-width: 1.0;"/><text fill="#000000" font-family="sans-serif" font-size="11" lengthAdjust="spacingAndGlyphs" textLength="188" x="216" y="1047.5898">calculate(Point2D, double): Point2D</text><ellipse cx="207" cy="1057.8877" fill="#84BE84" rx="3" ry="3" style="stroke: #038048; stroke-width: 1.0;"/><text fill="#000000" font-family="sans-serif" font-size="11" lengthAdjust="spacingAndGlyphs" textLength="142" x="216" y="1060.5449">calculateX(double): double</text><ellipse cx="207" cy="1070.8428" fill="#84BE84" rx="3" ry="3" style="stroke: #038048; stroke-width: 1.0;"/><text fill="#000000" font-family="sans-serif" font-size="11" lengthAdjust="spacingAndGlyphs" textLength="142" x="216" y="1073.5">calculateY(double): double</text><ellipse cx="207" cy="1083.7979" fill="#84BE84" rx="3" ry="3" style="stroke: #038048; stroke-width: 1.0;"/><text fill="#000000" font-family="sans-serif" font-size="11" lengthAdjust="spacingAndGlyphs" text-decoration="underline" textLength="134" x="216" y="1086.4551">forY(double): Line.Vector</text><ellipse cx="207" cy="1096.7529" fill="#84BE84" rx="3" ry="3" style="stroke: #038048; stroke-width: 1.0;"/><text fill="#000000" font-family="sans-serif" font-size="11" lengthAdjust="spacingAndGlyphs" text-decoration="underline" textLength="134" x="216" y="1099.4102">forX(double): Line.Vector</text></a><!--class org.rcdukes.geometry.Point--><a href="Point.html" target="_top" xlink:actuate="onRequest" xlink:show="new" xlink:title="Point.html" xlink:type="simple"><rect fill="#FEFECE" filter="url(#f39yjd4kc2n5h)" height="268.2363" id="org.rcdukes.geometry.Point" style="stroke: #A80036; stroke-width: 1.5;" width="168" x="477" y="1294"/><ellipse cx="542.75" cy="1310" fill="#ADD1B2" rx="11" ry="11" style="stroke: #A80036; stroke-width: 1.0;"/><path d="M545.7231,1315.6431 Q545.1421,1315.9419 544.5029,1316.0913 Q543.8638,1316.2407 543.1582,1316.2407 Q540.6514,1316.2407 539.3315,1314.5889 Q538.0117,1312.937 538.0117,1309.8159 Q538.0117,1306.6865 539.3315,1305.0347 Q540.6514,1303.3828 543.1582,1303.3828 Q543.8638,1303.3828 544.5112,1303.5322 Q545.1587,1303.6816 545.7231,1303.9805 L545.7231,1306.7031 Q545.0923,1306.1221 544.4988,1305.8523 Q543.9053,1305.5825 543.2744,1305.5825 Q541.9297,1305.5825 541.2449,1306.6492 Q540.5601,1307.7158 540.5601,1309.8159 Q540.5601,1311.9077 541.2449,1312.9744 Q541.9297,1314.041 543.2744,1314.041 Q543.9053,1314.041 544.4988,1313.7712 Q545.0923,1313.5015 545.7231,1312.9204 Z "/><text fill="#000000" font-family="sans-serif" font-size="12" lengthAdjust="spacingAndGlyphs" textLength="28" x="563.25" y="1314.5352">Point</text><line style="stroke: #A80036; stroke-width: 1.5;" x1="478" x2="644" y1="1326" y2="1326"/><ellipse cx="488" cy="1337.9775" fill="none" rx="3" ry="3" style="stroke: #038048; stroke-width: 1.0;"/><text fill="#000000" font-family="sans-serif" font-size="11" lengthAdjust="spacingAndGlyphs" text-decoration="underline" textLength="27" x="497" y="1340.6348">X: int</text><ellipse cx="488" cy="1350.9326" fill="none" rx="3" ry="3" style="stroke: #038048; stroke-width: 1.0;"/><text fill="#000000" font-family="sans-serif" font-size="11" lengthAdjust="spacingAndGlyphs" text-decoration="underline" textLength="27" x="497" y="1353.5898">Y: int</text><ellipse cx="488" cy="1363.8877" fill="none" rx="3" ry="3" style="stroke: #038048; stroke-width: 1.0;"/><text fill="#000000" font-family="sans-serif" font-size="11" lengthAdjust="spacingAndGlyphs" text-decoration="underline" textLength="27" x="497" y="1366.5449">Z: int</text><line style="stroke: #A80036; stroke-width: 1.5;" x1="478" x2="644" y1="1372.8652" y2="1372.8652"/><ellipse cx="488" cy="1384.8428" fill="#84BE84" rx="3" ry="3" style="stroke: #038048; stroke-width: 1.0;"/><text fill="#000000" font-family="sans-serif" font-size="11" lengthAdjust="spacingAndGlyphs" textLength="35" x="497" y="1387.5">Point()</text><ellipse cx="488" cy="1397.7979" fill="#84BE84" rx="3" ry="3" style="stroke: #038048; stroke-width: 1.0;"/><text fill="#000000" font-family="sans-serif" font-size="11" lengthAdjust="spacingAndGlyphs" textLength="69" x="497" y="1400.4551">Point(int, int)</text><ellipse cx="488" cy="1410.7529" fill="#84BE84" rx="3" ry="3" style="stroke: #038048; stroke-width: 1.0;"/><text fill="#000000" font-family="sans-serif" font-size="11" lengthAdjust="spacingAndGlyphs" textLength="89" x="497" y="1413.4102">Point(long, long)</text><ellipse cx="488" cy="1423.708" fill="#84BE84" rx="3" ry="3" style="stroke: #038048; stroke-width: 1.0;"/><text fill="#000000" font-family="sans-serif" font-size="11" lengthAdjust="spacingAndGlyphs" textLength="81" x="497" y="1426.3652">Point(Double[])</text><ellipse cx="488" cy="1436.6631" fill="#84BE84" rx="3" ry="3" style="stroke: #038048; stroke-width: 1.0;"/><text fill="#000000" font-family="sans-serif" font-size="11" lengthAdjust="spacingAndGlyphs" textLength="142" x="497" y="1439.3203">distance(Double[]): double</text><ellipse cx="488" cy="1449.6182" fill="#84BE84" rx="3" ry="3" style="stroke: #038048; stroke-width: 1.0;"/><text fill="#000000" font-family="sans-serif" font-size="11" lengthAdjust="spacingAndGlyphs" textLength="138" x="497" y="1452.2754">distance(Point2D): double</text><ellipse cx="488" cy="1462.5732" fill="#84BE84" rx="3" ry="3" style="stroke: #038048; stroke-width: 1.0;"/><text fill="#000000" font-family="sans-serif" font-size="11" lengthAdjust="spacingAndGlyphs" textLength="127" x="497" y="1465.2305">valueStr(Double): String</text><ellipse cx="488" cy="1475.5283" fill="#84BE84" rx="3" ry="3" style="stroke: #038048; stroke-width: 1.0;"/><text fill="#000000" font-family="sans-serif" font-size="11" lengthAdjust="spacingAndGlyphs" textLength="75" x="497" y="1478.1855">getX(): double</text><ellipse cx="488" cy="1488.4834" fill="#84BE84" rx="3" ry="3" style="stroke: #038048; stroke-width: 1.0;"/><text fill="#000000" font-family="sans-serif" font-size="11" lengthAdjust="spacingAndGlyphs" textLength="97" x="497" y="1491.1406">setX(double): void</text><ellipse cx="488" cy="1501.4385" fill="#84BE84" rx="3" ry="3" style="stroke: #038048; stroke-width: 1.0;"/><text fill="#000000" font-family="sans-serif" font-size="11" lengthAdjust="spacingAndGlyphs" textLength="75" x="497" y="1504.0957">getY(): double</text><ellipse cx="488" cy="1514.3936" fill="#84BE84" rx="3" ry="3" style="stroke: #038048; stroke-width: 1.0;"/><text fill="#000000" font-family="sans-serif" font-size="11" lengthAdjust="spacingAndGlyphs" textLength="97" x="497" y="1517.0508">setY(double): void</text><ellipse cx="488" cy="1527.3486" fill="#84BE84" rx="3" ry="3" style="stroke: #038048; stroke-width: 1.0;"/><text fill="#000000" font-family="sans-serif" font-size="11" lengthAdjust="spacingAndGlyphs" textLength="98" x="497" y="1530.0059">setZ(Double): void</text><ellipse cx="488" cy="1540.3037" fill="#84BE84" rx="3" ry="3" style="stroke: #038048; stroke-width: 1.0;"/><text fill="#000000" font-family="sans-serif" font-size="11" lengthAdjust="spacingAndGlyphs" textLength="116" x="497" y="1542.9609">compareTo(Point): int</text><ellipse cx="488" cy="1553.2588" fill="#84BE84" rx="3" ry="3" style="stroke: #038048; stroke-width: 1.0;"/><text fill="#000000" font-family="sans-serif" font-size="11" lengthAdjust="spacingAndGlyphs" textLength="124" x="497" y="1555.916">compareTo(Object): int</text></a><!--class org.rcdukes.geometry.Lane--><a href="Lane.html" target="_top" xlink:actuate="onRequest" xlink:show="new" xlink:title="Lane.html" xlink:type="simple"><rect fill="#FEFECE" filter="url(#f39yjd4kc2n5h)" height="60.9551" id="org.rcdukes.geometry.Lane" style="stroke: #A80036; stroke-width: 1.5;" width="237" x="281.5" y="127"/><ellipse cx="382.25" cy="143" fill="#ADD1B2" rx="11" ry="11" style="stroke: #A80036; stroke-width: 1.0;"/><path d="M385.2231,148.6431 Q384.6421,148.9419 384.0029,149.0913 Q383.3638,149.2407 382.6582,149.2407 Q380.1514,149.2407 378.8315,147.5889 Q377.5117,145.937 377.5117,142.8159 Q377.5117,139.6865 378.8315,138.0347 Q380.1514,136.3828 382.6582,136.3828 Q383.3638,136.3828 384.0112,136.5322 Q384.6587,136.6816 385.2231,136.9805 L385.2231,139.7031 Q384.5923,139.1221 383.9988,138.8523 Q383.4053,138.5825 382.7744,138.5825 Q381.4297,138.5825 380.7449,139.6492 Q380.0601,140.7158 380.0601,142.8159 Q380.0601,144.9077 380.7449,145.9744 Q381.4297,147.041 382.7744,147.041 Q383.4053,147.041 383.9988,146.7712 Q384.5923,146.5015 385.2231,145.9204 Z "/><text fill="#000000" font-family="sans-serif" font-size="12" lengthAdjust="spacingAndGlyphs" textLength="27" x="402.75" y="147.5352">Lane</text><line style="stroke: #A80036; stroke-width: 1.5;" x1="282.5" x2="517.5" y1="159" y2="159"/><line style="stroke: #A80036; stroke-width: 1.5;" x1="282.5" x2="517.5" y1="167" y2="167"/><ellipse cx="292.5" cy="178.9775" fill="#84BE84" rx="3" ry="3" style="stroke: #038048; stroke-width: 1.0;"/><text fill="#000000" font-family="sans-serif" font-size="11" lengthAdjust="spacingAndGlyphs" textLength="211" x="301.5" y="181.6348">Lane(Optional&lt;Line&gt;, Optional&lt;Line&gt;)</text></a><!--class org.rcdukes.geometry.LaneDetectionResult--><a href="LaneDetectionResult.html" target="_top" xlink:actuate="onRequest" xlink:show="new" xlink:title="LaneDetectionResult.html" xlink:type="simple"><rect fill="#FEFECE" filter="url(#f39yjd4kc2n5h)" height="229.3711" id="org.rcdukes.geometry.LaneDetectionResult" style="stroke: #A80036; stroke-width: 1.5;" width="224" x="22" y="43"/><ellipse cx="71.75" cy="59" fill="#ADD1B2" rx="11" ry="11" style="stroke: #A80036; stroke-width: 1.0;"/><path d="M74.7231,64.6431 Q74.1421,64.9419 73.5029,65.0913 Q72.8638,65.2407 72.1582,65.2407 Q69.6514,65.2407 68.3315,63.5889 Q67.0117,61.937 67.0117,58.8159 Q67.0117,55.6865 68.3315,54.0347 Q69.6514,52.3828 72.1582,52.3828 Q72.8638,52.3828 73.5112,52.5322 Q74.1587,52.6816 74.7231,52.9805 L74.7231,55.7031 Q74.0923,55.1221 73.4988,54.8523 Q72.9053,54.5825 72.2744,54.5825 Q70.9297,54.5825 70.2449,55.6492 Q69.5601,56.7158 69.5601,58.8159 Q69.5601,60.9077 70.2449,61.9744 Q70.9297,63.041 72.2744,63.041 Q72.9053,63.041 73.4988,62.7712 Q74.0923,62.5015 74.7231,61.9204 Z "/><text fill="#000000" font-family="sans-serif" font-size="12" lengthAdjust="spacingAndGlyphs" textLength="116" x="92.25" y="63.5352">LaneDetectionResult</text><line style="stroke: #A80036; stroke-width: 1.5;" x1="23" x2="245" y1="75" y2="75"/><ellipse cx="33" cy="86.9775" fill="none" rx="3" ry="3" style="stroke: #038048; stroke-width: 1.0;"/><text fill="#000000" font-family="sans-serif" font-size="11" lengthAdjust="spacingAndGlyphs" text-decoration="underline" textLength="105" x="42" y="89.6348">forceError: boolean</text><ellipse cx="33" cy="99.9326" fill="none" rx="3" ry="3" style="stroke: #038048; stroke-width: 1.0;"/><text fill="#000000" font-family="sans-serif" font-size="11" lengthAdjust="spacingAndGlyphs" textLength="61" x="42" y="102.5898">left: Double</text><ellipse cx="33" cy="112.8877" fill="none" rx="3" ry="3" style="stroke: #038048; stroke-width: 1.0;"/><text fill="#000000" font-family="sans-serif" font-size="11" lengthAdjust="spacingAndGlyphs" textLength="80" x="42" y="115.5449">middle: Double</text><ellipse cx="33" cy="125.8428" fill="none" rx="3" ry="3" style="stroke: #038048; stroke-width: 1.0;"/><text fill="#000000" font-family="sans-serif" font-size="11" lengthAdjust="spacingAndGlyphs" textLength="70" x="42" y="128.5">right: Double</text><ellipse cx="33" cy="138.7979" fill="none" rx="3" ry="3" style="stroke: #038048; stroke-width: 1.0;"/><text fill="#000000" font-family="sans-serif" font-size="11" lengthAdjust="spacingAndGlyphs" textLength="124" x="42" y="141.4551">distanceMiddle: Double</text><ellipse cx="33" cy="151.7529" fill="none" rx="3" ry="3" style="stroke: #038048; stroke-width: 1.0;"/><text fill="#000000" font-family="sans-serif" font-size="11" lengthAdjust="spacingAndGlyphs" textLength="109" x="42" y="154.4102">distanceLeft: Double</text><ellipse cx="33" cy="164.708" fill="none" rx="3" ry="3" style="stroke: #038048; stroke-width: 1.0;"/><text fill="#000000" font-family="sans-serif" font-size="11" lengthAdjust="spacingAndGlyphs" textLength="117" x="42" y="167.3652">distanceRight: Double</text><ellipse cx="33" cy="177.6631" fill="none" rx="3" ry="3" style="stroke: #038048; stroke-width: 1.0;"/><text fill="#000000" font-family="sans-serif" font-size="11" lengthAdjust="spacingAndGlyphs" textLength="179" x="42" y="180.3203">courseRelativeToHorizon: Double</text><ellipse cx="33" cy="190.6182" fill="none" rx="3" ry="3" style="stroke: #038048; stroke-width: 1.0;"/><text fill="#000000" font-family="sans-serif" font-size="11" lengthAdjust="spacingAndGlyphs" textLength="178" x="42" y="193.2754">distanceToStoppingZone: Double</text><ellipse cx="33" cy="203.5732" fill="none" rx="3" ry="3" style="stroke: #038048; stroke-width: 1.0;"/><text fill="#000000" font-family="sans-serif" font-size="11" lengthAdjust="spacingAndGlyphs" textLength="198" x="42" y="206.2305">distanceToStoppingZoneEnd: Double</text><ellipse cx="33" cy="216.5283" fill="none" rx="3" ry="3" style="stroke: #038048; stroke-width: 1.0;"/><text fill="#000000" font-family="sans-serif" font-size="11" lengthAdjust="spacingAndGlyphs" textLength="81" x="42" y="219.1855">frameIndex: int</text><ellipse cx="33" cy="229.4834" fill="none" rx="3" ry="3" style="stroke: #038048; stroke-width: 1.0;"/><text fill="#000000" font-family="sans-serif" font-size="11" lengthAdjust="spacingAndGlyphs" textLength="111" x="42" y="232.1406">milliTimeStamp: long</text><line style="stroke: #A80036; stroke-width: 1.5;" x1="23" x2="245" y1="238.4609" y2="238.4609"/><ellipse cx="33" cy="250.4385" fill="#84BE84" rx="3" ry="3" style="stroke: #038048; stroke-width: 1.0;"/><text fill="#000000" font-family="sans-serif" font-size="11" lengthAdjust="spacingAndGlyphs" textLength="96" x="42" y="253.0957">checkError(): void</text><ellipse cx="33" cy="263.3936" fill="#84BE84" rx="3" ry="3" style="stroke: #038048; stroke-width: 1.0;"/><text fill="#000000" font-family="sans-serif" font-size="11" lengthAdjust="spacingAndGlyphs" textLength="101" x="42" y="266.0508">debugInfo(): String</text></a><!--class org.rcdukes.geometry.Point2D--><a href="Point2D.html" target="_top" xlink:actuate="onRequest" xlink:show="new" xlink:title="Point2D.html" xlink:type="simple"><rect fill="#FEFECE" filter="url(#f39yjd4kc2n5h)" height="86.8652" id="org.rcdukes.geometry.Point2D" style="stroke: #A80036; stroke-width: 1.5;" width="164" x="445" y="999.5"/><ellipse cx="500.25" cy="1015.5" fill="#B4A7E5" rx="11" ry="11" style="stroke: #A80036; stroke-width: 1.0;"/><path d="M496.1777,1011.2651 L496.1777,1009.1069 L503.5571,1009.1069 L503.5571,1011.2651 L501.0918,1011.2651 L501.0918,1019.3418 L503.5571,1019.3418 L503.5571,1021.5 L496.1777,1021.5 L496.1777,1019.3418 L498.6431,1019.3418 L498.6431,1011.2651 Z "/><text fill="#000000" font-family="sans-serif" font-size="12" font-style="italic" lengthAdjust="spacingAndGlyphs" textLength="45" x="520.75" y="1020.0352">Point2D</text><line style="stroke: #A80036; stroke-width: 1.5;" x1="446" x2="608" y1="1031.5" y2="1031.5"/><line style="stroke: #A80036; stroke-width: 1.5;" x1="446" x2="608" y1="1039.5" y2="1039.5"/><ellipse cx="456" cy="1051.4775" fill="#84BE84" rx="3" ry="3" style="stroke: #038048; stroke-width: 1.0;"/><text fill="#000000" font-family="sans-serif" font-size="11" font-style="italic" lengthAdjust="spacingAndGlyphs" textLength="75" x="465" y="1054.1348">getX(): double</text><ellipse cx="456" cy="1064.4326" fill="#84BE84" rx="3" ry="3" style="stroke: #038048; stroke-width: 1.0;"/><text fill="#000000" font-family="sans-serif" font-size="11" font-style="italic" lengthAdjust="spacingAndGlyphs" textLength="75" x="465" y="1067.0898">getY(): double</text><ellipse cx="456" cy="1077.3877" fill="#84BE84" rx="3" ry="3" style="stroke: #038048; stroke-width: 1.0;"/><text fill="#000000" font-family="sans-serif" font-size="11" font-style="italic" lengthAdjust="spacingAndGlyphs" textLength="138" x="465" y="1080.0449">distance(Point2D): double</text></a><!--class java.lang.Comparable--><rect fill="#FEFECE" filter="url(#f39yjd4kc2n5h)" height="60.9551" id="java.lang.Comparable" style="stroke: #A80036; stroke-width: 1.5;" width="122" x="704" y="1172"/><ellipse cx="722.15" cy="1188" fill="#B4A7E5" rx="11" ry="11" style="stroke: #A80036; stroke-width: 1.0;"/><path d="M718.0777,1183.7651 L718.0777,1181.6069 L725.4571,1181.6069 L725.4571,1183.7651 L722.9918,1183.7651 L722.9918,1191.8418 L725.4571,1191.8418 L725.4571,1194 L718.0777,1194 L718.0777,1191.8418 L720.5431,1191.8418 L720.5431,1183.7651 Z "/><text fill="#000000" font-family="sans-serif" font-size="12" font-style="italic" lengthAdjust="spacingAndGlyphs" textLength="71" x="736.85" y="1192.5352">Comparable</text><rect fill="#FFFFFF" height="16.1328" style="stroke: #000000; stroke-width: 1.0; stroke-dasharray: 2.0,2.0;" width="10" x="819" y="1169"/><text fill="#000000" font-family="sans-serif" font-size="12" font-style="italic" lengthAdjust="spacingAndGlyphs" textLength="8" x="820" y="1181.6016">T</text><line style="stroke: #A80036; stroke-width: 1.5;" x1="705" x2="825" y1="1204" y2="1204"/><line style="stroke: #A80036; stroke-width: 1.5;" x1="705" x2="825" y1="1212" y2="1212"/><ellipse cx="715" cy="1223.9775" fill="#84BE84" rx="3" ry="3" style="stroke: #038048; stroke-width: 1.0;"/><text fill="#000000" font-family="sans-serif" font-size="11" font-style="italic" lengthAdjust="spacingAndGlyphs" textLength="96" x="724" y="1226.6348">compareTo(T): int</text><!--link org.rcdukes.geometry.Line to org.rcdukes.geometry.Line.Vector--><path d="M304.0199,826.5187 C303.7569,882.3378 303.4921,938.5473 303.2982,979.6967 " fill="none" id="org.rcdukes.geometry.Line-org.rcdukes.geometry.Line.Vector" style="stroke: #A80036; stroke-width: 1.0;"/><ellipse cx="304.0545" cy="819.1871" fill="#FFFFFF" rx="8" ry="8" style="stroke: #A80036; stroke-width: 1.0;"/><line style="stroke: #A80036; stroke-width: 1.0;" x1="304.0168" x2="304.0922" y1="827.187" y2="811.1872"/><line style="stroke: #A80036; stroke-width: 1.0;" x1="296.0546" x2="312.0544" y1="819.1494" y2="819.2248"/><!--link org.rcdukes.geometry.Point2D to org.rcdukes.geometry.Point--><path d="M532.6327,1106.7826 C537.119,1157.5829 543.5547,1230.4575 549.1624,1293.9563 " fill="none" id="org.rcdukes.geometry.Point2D-org.rcdukes.geometry.Point" style="stroke: #A80036; stroke-width: 1.0; stroke-dasharray: 7.0,7.0;"/><polygon fill="none" points="525.6537,1107.3278,530.8671,1086.7896,539.5995,1106.0962,525.6537,1107.3278" style="stroke: #A80036; stroke-width: 1.0;"/><!--link java.lang.Comparable to org.rcdukes.geometry.Point--><path d="M723.5473,1248.3215 C700.9821,1273.2649 672.2206,1305.0576 645.1829,1334.9449 " fill="none" id="java.lang.Comparable-org.rcdukes.geometry.Point" style="stroke: #A80036; stroke-width: 1.0; stroke-dasharray: 7.0,7.0;"/><polygon fill="none" points="718.4539,1243.5174,737.0624,1233.382,728.836,1252.9096,718.4539,1243.5174" style="stroke: #A80036; stroke-width: 1.0;"/><!--link org.rcdukes.geometry.Polygon to org.rcdukes.geometry.Point2D--><path d="M566.2915,688.1222 C556.7545,774.2601 540.7591,918.7289 532.4232,994.0183 " fill="none" id="org.rcdukes.geometry.Polygon-org.rcdukes.geometry.Point2D" style="stroke: #A80036; stroke-width: 1.0;"/><polygon fill="#A80036" points="531.8364,999.3178,536.8026,990.8127,532.3867,994.3482,528.8512,989.9322,531.8364,999.3178" style="stroke: #A80036; stroke-width: 1.0;"/><text fill="#000000" font-family="sans-serif" font-size="13" lengthAdjust="spacingAndGlyphs" textLength="40" x="603" y="885.5684">points</text><text fill="#000000" font-family="sans-serif" font-size="13" lengthAdjust="spacingAndGlyphs" textLength="104" x="571" y="900.8789">pointsClockwise</text><text fill="#000000" font-family="sans-serif" font-size="13" lengthAdjust="spacingAndGlyphs" textLength="154" x="546" y="916.1895">pointsCounterClockwise</text><text fill="#000000" font-family="sans-serif" font-size="13" lengthAdjust="spacingAndGlyphs" textLength="6" x="526.1291" y="988.7645">*</text><!--link org.rcdukes.geometry.Line to org.rcdukes.geometry.Point2D--><path d="M405.7693,811.1872 C441.2335,879.0006 478.1026,949.5003 501.7302,994.6801 " fill="none" id="org.rcdukes.geometry.Line-org.rcdukes.geometry.Point2D" style="stroke: #A80036; stroke-width: 1.0;"/><polygon fill="#A80036" points="504.1172,999.2443,503.4909,989.4154,501.8001,994.8136,496.4018,993.1228,504.1172,999.2443" style="stroke: #A80036; stroke-width: 1.0;"/><text fill="#000000" font-family="sans-serif" font-size="13" lengthAdjust="spacingAndGlyphs" textLength="41" x="462" y="893.0684">point1</text><text fill="#000000" font-family="sans-serif" font-size="13" lengthAdjust="spacingAndGlyphs" textLength="41" x="462" y="908.3789">point2</text><!--link org.rcdukes.geometry.Lane to org.rcdukes.geometry.Line--><path d="M393.6932,188.1045 C383.8607,235.818 364.0946,331.7357 345.713,420.935 " fill="none" id="org.rcdukes.geometry.Lane-org.rcdukes.geometry.Line" style="stroke: #A80036; stroke-width: 1.0;"/><polygon fill="#A80036" points="344.672,425.9865,350.4064,417.9792,345.6813,421.0894,342.571,416.3643,344.672,425.9865" style="stroke: #A80036; stroke-width: 1.0;"/><text fill="#000000" font-family="sans-serif" font-size="13" lengthAdjust="spacingAndGlyphs" textLength="79" x="368.5" y="346.5684">leftBoundary</text><text fill="#000000" font-family="sans-serif" font-size="13" lengthAdjust="spacingAndGlyphs" textLength="88" x="364" y="361.8789">rightBoundary</text><text fill="#000000" font-family="sans-serif" font-size="13" lengthAdjust="spacingAndGlyphs" textLength="24" x="321.8394" y="415.1269">0..1</text><text fill="#888888" font-family="sans-serif" font-size="10" lengthAdjust="spacingAndGlyphs" textLength="182" x="339" y="1597.668">UMLDoclet 1.1.4, PlantUML 1.2019.05</text><!--
@startuml

    namespace org.rcdukes.geometry {

        class TestGeometry [[TestGeometry.html]] {
            +testLine(): void
            +testVector(): void
            +testPoint(): void
            +testPolygon(): void
        }

        class Polygon [[Polygon.html]] {
            {static} +debug: boolean
            +Polygon(Point2D[])
            +init(Point2D[]): void
            {static} +square(Point2D, Point2D): Polygon
            +intersect(Line): Set<Point2D>
            +edges(): List<Line>
            +shoelace(): double
        }

        class Line [[Line.html]] {
            +Line()
            +Line(double[])
            +Line(Point, Point)
            +Line(Point2D, Point2D)
            {static} +fromHough(boolean, int, int, double[]): Line
            +init(Point, Point): void
            +length(): double
            +angleRad(): double
            +angleDeg(): double
            +angleDeg90(): double
            {static} +average(Line[]): Line
            {static} +average(Collection<Line>): Line
            +isLeftOfLine(Point2D): boolean
            +isRightOfLine(Point2D): boolean
            +existsOnLine(Point2D): boolean
            +bottomMost(): Point2D
            +leftMost(): Point2D
            +rightMost(): Point2D
            +topMost(): Point2D
            +pointAt(double): Point2D
            +width(): double
            +height(): double
            {static} +angleString(Double): String
            {static} +lineAngleString(Line): String
            +intersect(Line): Optional<Point2D>
            +distance(Point2D): double
        }

        class org.rcdukes.geometry.Line.Vector [[Line.Vector.html]] {
            +Vector(double, double)
            +calculate(Point2D, double): Point2D
            +calculateX(double): double
            +calculateY(double): double
            {static} +forY(double): Line.Vector
            {static} +forX(double): Line.Vector
        }

        class Point [[Point.html]] {
            {static} +X: int
            {static} +Y: int
            {static} +Z: int
            +Point()
            +Point(int, int)
            +Point(long, long)
            +Point(Double[])
            +distance(Double[]): double
            +distance(Point2D): double
            +valueStr(Double): String
            +getX(): double
            +setX(double): void
            +getY(): double
            +setY(double): void
            +setZ(Double): void
            +compareTo(Point): int
            +compareTo(Object): int
        }

        class Lane [[Lane.html]] {
            +Lane(Optional<Line>, Optional<Line>)
        }

        class LaneDetectionResult [[LaneDetectionResult.html]] {
            {static} +forceError: boolean
            +left: Double
            +middle: Double
            +right: Double
            +distanceMiddle: Double
            +distanceLeft: Double
            +distanceRight: Double
            +courseRelativeToHorizon: Double
            +distanceToStoppingZone: Double
            +distanceToStoppingZoneEnd: Double
            +frameIndex: int
            +milliTimeStamp: long
            +checkError(): void
            +debugInfo(): String
        }

        interface Point2D [[Point2D.html]] {
            {abstract} +getX(): double
            {abstract} +getY(): double
            {abstract} +distance(Point2D): double
        }

        Line +- - org.rcdukes.geometry.Line.Vector

        Point2D <|.. Point

        interface java.lang.Comparable<T> {
            {abstract} +compareTo(T): int
        }
        java.lang.Comparable <|.. Point

        Polygon - -> "*" Point2D: points\npointsClockwise\npointsCounterClockwise

        Line - -> Point2D: point1\npoint2

        Lane - -> "0..1" Line: leftBoundary\nrightBoundary

    }


    center footer UMLDoclet 1.1.4, PlantUML 1.2019.05
@enduml

PlantUML version 1.2019.05(Sat Apr 20 18:45:36 CEST 2019)
(APACHE source distribution)
Java Runtime: Java(TM) SE Runtime Environment
JVM: Java HotSpot(TM) 64-Bit Server VM
Java Version: 1.8.0_152-b16
Operating System: Mac OS X
OS Version: 10.13.6
Default Encoding: UTF-8
Language: de
Country: DE
--></g></svg>