<?xml version="1.0" encoding="UTF-8" standalone="no"?><svg xmlns="http://www.w3.org/2000/svg" xmlns:xlink="http://www.w3.org/1999/xlink" contentScriptType="application/ecmascript" contentStyleType="text/css" height="391px" preserveAspectRatio="none" style="width:661px;height:391px;" version="1.1" viewBox="0 0 661 391" width="661px" zoomAndPan="magnify"><defs><filter height="300%" id="fk0v6fd82xsi8" width="300%" x="-1" y="-1"><feGaussianBlur result="blurOut" stdDeviation="2.0"/><feColorMatrix in="blurOut" result="blurOut2" type="matrix" values="0 0 0 0 0 0 0 0 0 0 0 0 0 0 0 0 0 0 .4 0"/><feOffset dx="4.0" dy="4.0" in="blurOut2" result="blurOut3"/><feBlend in="SourceGraphic" in2="blurOut3" mode="normal"/></filter></defs><g><!--cluster org.rcdukes.objects--><polygon fill="#FFFFFF" filter="url(#fk0v6fd82xsi8)" points="14,16,158,16,165,38.4883,639,38.4883,639,350,14,350,14,16" style="stroke: #000000; stroke-width: 1.5;"/><line style="stroke: #000000; stroke-width: 1.5;" x1="14" x2="165" y1="38.4883" y2="38.4883"/><text fill="#000000" font-family="sans-serif" font-size="14" font-weight="bold" lengthAdjust="spacingAndGlyphs" textLength="138" x="18" y="31.5352">org.rcdukes.objects</text><!--class org.rcdukes.objects.ViewPort--><a href="ViewPort.html" target="_top" xlink:actuate="onRequest" xlink:show="new" xlink:title="ViewPort.html" xlink:type="simple"><rect fill="#FEFECE" filter="url(#fk0v6fd82xsi8)" height="99.8203" id="org.rcdukes.objects.ViewPort" style="stroke: #A80036; stroke-width: 1.5;" width="208" x="62" y="69"/><ellipse cx="136.75" cy="85" fill="#ADD1B2" rx="11" ry="11" style="stroke: #A80036; stroke-width: 1.0;"/><path d="M139.7231,90.6431 Q139.1421,90.9419 138.5029,91.0913 Q137.8638,91.2407 137.1582,91.2407 Q134.6514,91.2407 133.3315,89.5889 Q132.0117,87.937 132.0117,84.8159 Q132.0117,81.6865 133.3315,80.0347 Q134.6514,78.3828 137.1582,78.3828 Q137.8638,78.3828 138.5112,78.5322 Q139.1587,78.6816 139.7231,78.9805 L139.7231,81.7031 Q139.0923,81.1221 138.4988,80.8523 Q137.9053,80.5825 137.2744,80.5825 Q135.9297,80.5825 135.2449,81.6492 Q134.5601,82.7158 134.5601,84.8159 Q134.5601,86.9077 135.2449,87.9744 Q135.9297,89.041 137.2744,89.041 Q137.9053,89.041 138.4988,88.7712 Q139.0923,88.5015 139.7231,87.9204 Z "/><text fill="#000000" font-family="sans-serif" font-size="12" lengthAdjust="spacingAndGlyphs" textLength="50" x="157.25" y="89.5352">ViewPort</text><line style="stroke: #A80036; stroke-width: 1.5;" x1="63" x2="269" y1="101" y2="101"/><line style="stroke: #A80036; stroke-width: 1.5;" x1="63" x2="269" y1="109" y2="109"/><ellipse cx="73" cy="120.9775" fill="#84BE84" rx="3" ry="3" style="stroke: #038048; stroke-width: 1.0;"/><text fill="#000000" font-family="sans-serif" font-size="11" lengthAdjust="spacingAndGlyphs" textLength="182" x="82" y="123.6348">ViewPort(Point2D, double, double)</text><ellipse cx="73" cy="133.9326" fill="#84BE84" rx="3" ry="3" style="stroke: #038048; stroke-width: 1.0;"/><text fill="#000000" font-family="sans-serif" font-size="11" lengthAdjust="spacingAndGlyphs" textLength="107" x="82" y="136.5898">getOrigin(): Point2D</text><ellipse cx="73" cy="146.8877" fill="#84BE84" rx="3" ry="3" style="stroke: #038048; stroke-width: 1.0;"/><text fill="#000000" font-family="sans-serif" font-size="11" lengthAdjust="spacingAndGlyphs" textLength="98" x="82" y="149.5449">getWidth(): double</text><ellipse cx="73" cy="159.8428" fill="#84BE84" rx="3" ry="3" style="stroke: #038048; stroke-width: 1.0;"/><text fill="#000000" font-family="sans-serif" font-size="11" lengthAdjust="spacingAndGlyphs" textLength="103" x="82" y="162.5">getHeight(): double</text></a><!--class org.rcdukes.objects.StartLight--><a href="StartLight.html" target="_top" xlink:actuate="onRequest" xlink:show="new" xlink:title="StartLight.html" xlink:type="simple"><rect fill="#FEFECE" filter="url(#fk0v6fd82xsi8)" height="151.6406" id="org.rcdukes.objects.StartLight" style="stroke: #A80036; stroke-width: 1.5;" width="121" x="305.5" y="43"/><ellipse cx="336.7" cy="59" fill="#EB937F" rx="11" ry="11" style="stroke: #A80036; stroke-width: 1.0;"/><path d="M340.8143,65 L333.0945,65 L333.0945,52.6069 L340.8143,52.6069 L340.8143,54.7651 L335.5433,54.7651 L335.5433,57.438 L340.3162,57.438 L340.3162,59.5962 L335.5433,59.5962 L335.5433,62.8418 L340.8143,62.8418 Z "/><text fill="#000000" font-family="sans-serif" font-size="12" lengthAdjust="spacingAndGlyphs" textLength="53" x="354.3" y="63.5352">StartLight</text><line style="stroke: #A80036; stroke-width: 1.5;" x1="306.5" x2="425.5" y1="75" y2="75"/><ellipse cx="316.5" cy="86.9775" fill="none" rx="3" ry="3" style="stroke: #038048; stroke-width: 1.0;"/><text fill="#000000" font-family="sans-serif" font-size="11" lengthAdjust="spacingAndGlyphs" text-decoration="underline" textLength="21" x="325.5" y="89.6348">OFF</text><ellipse cx="316.5" cy="99.9326" fill="none" rx="3" ry="3" style="stroke: #038048; stroke-width: 1.0;"/><text fill="#000000" font-family="sans-serif" font-size="11" lengthAdjust="spacingAndGlyphs" text-decoration="underline" textLength="16" x="325.5" y="102.5898">LIT</text><ellipse cx="316.5" cy="112.8877" fill="none" rx="3" ry="3" style="stroke: #038048; stroke-width: 1.0;"/><text fill="#000000" font-family="sans-serif" font-size="11" lengthAdjust="spacingAndGlyphs" text-decoration="underline" textLength="43" x="325.5" y="115.5449">DIMMED</text><polygon fill="none" points="316.5,120.8428,320.5,124.8428,316.5,128.8428,312.5,124.8428" style="stroke: #B38D22; stroke-width: 1.0;"/><text fill="#000000" font-family="sans-serif" font-size="11" lengthAdjust="spacingAndGlyphs" textLength="68" x="325.5" y="128.5">nrOfOffs: int</text><line style="stroke: #A80036; stroke-width: 1.5;" x1="306.5" x2="425.5" y1="134.8203" y2="134.8203"/><ellipse cx="316.5" cy="146.7979" fill="#84BE84" rx="3" ry="3" style="stroke: #038048; stroke-width: 1.0;"/><text fill="#000000" font-family="sans-serif" font-size="11" lengthAdjust="spacingAndGlyphs" text-decoration="underline" textLength="83" x="325.5" y="149.4551">init(): StartLight</text><ellipse cx="316.5" cy="159.7529" fill="#84BE84" rx="3" ry="3" style="stroke: #038048; stroke-width: 1.0;"/><text fill="#000000" font-family="sans-serif" font-size="11" lengthAdjust="spacingAndGlyphs" textLength="80" x="325.5" y="162.4102">on(): StartLight</text><ellipse cx="316.5" cy="172.708" fill="#84BE84" rx="3" ry="3" style="stroke: #038048; stroke-width: 1.0;"/><text fill="#000000" font-family="sans-serif" font-size="11" lengthAdjust="spacingAndGlyphs" textLength="81" x="325.5" y="175.3652">off(): StartLight</text><ellipse cx="316.5" cy="185.6631" fill="#84BE84" rx="3" ry="3" style="stroke: #038048; stroke-width: 1.0;"/><text fill="#000000" font-family="sans-serif" font-size="11" lengthAdjust="spacingAndGlyphs" textLength="95" x="325.5" y="188.3203">started(): boolean</text></a><!--class org.rcdukes.objects.StoppingZone--><a href="StoppingZone.html" target="_top" xlink:actuate="onRequest" xlink:show="new" xlink:title="StoppingZone.html" xlink:type="simple"><rect fill="#FEFECE" filter="url(#fk0v6fd82xsi8)" height="86.8652" id="org.rcdukes.objects.StoppingZone" style="stroke: #A80036; stroke-width: 1.5;" width="287" x="22.5" y="255"/><ellipse cx="122.75" cy="271" fill="#ADD1B2" rx="11" ry="11" style="stroke: #A80036; stroke-width: 1.0;"/><path d="M125.7231,276.6431 Q125.1421,276.9419 124.5029,277.0913 Q123.8638,277.2407 123.1582,277.2407 Q120.6514,277.2407 119.3315,275.5889 Q118.0117,273.937 118.0117,270.8159 Q118.0117,267.6865 119.3315,266.0347 Q120.6514,264.3828 123.1582,264.3828 Q123.8638,264.3828 124.5112,264.5322 Q125.1587,264.6816 125.7231,264.9805 L125.7231,267.7031 Q125.0923,267.1221 124.4988,266.8523 Q123.9053,266.5825 123.2744,266.5825 Q121.9297,266.5825 121.2449,267.6492 Q120.5601,268.7158 120.5601,270.8159 Q120.5601,272.9077 121.2449,273.9744 Q121.9297,275.041 123.2744,275.041 Q123.9053,275.041 124.4988,274.7712 Q125.0923,274.5015 125.7231,273.9204 Z "/><text fill="#000000" font-family="sans-serif" font-size="12" lengthAdjust="spacingAndGlyphs" textLength="78" x="143.25" y="275.5352">StoppingZone</text><line style="stroke: #A80036; stroke-width: 1.5;" x1="23.5" x2="308.5" y1="287" y2="287"/><line style="stroke: #A80036; stroke-width: 1.5;" x1="23.5" x2="308.5" y1="295" y2="295"/><ellipse cx="33.5" cy="306.9775" fill="#84BE84" rx="3" ry="3" style="stroke: #038048; stroke-width: 1.0;"/><text fill="#000000" font-family="sans-serif" font-size="11" lengthAdjust="spacingAndGlyphs" textLength="261" x="42.5" y="309.6348">StoppingZone(Optional&lt;Line&gt;, Optional&lt;Line&gt;)</text><ellipse cx="33.5" cy="319.9326" fill="#84BE84" rx="3" ry="3" style="stroke: #038048; stroke-width: 1.0;"/><text fill="#000000" font-family="sans-serif" font-size="11" lengthAdjust="spacingAndGlyphs" textLength="164" x="42.5" y="322.5898">getEntrance(): Optional&lt;Line&gt;</text><ellipse cx="33.5" cy="332.8877" fill="#84BE84" rx="3" ry="3" style="stroke: #038048; stroke-width: 1.0;"/><text fill="#000000" font-family="sans-serif" font-size="11" lengthAdjust="spacingAndGlyphs" textLength="137" x="42.5" y="335.5449">getExit(): Optional&lt;Line&gt;</text></a><!--class org.rcdukes.objects.Boundary--><a href="Boundary.html" target="_top" xlink:actuate="onRequest" xlink:show="new" xlink:title="Boundary.html" xlink:type="simple"><rect fill="#FEFECE" filter="url(#fk0v6fd82xsi8)" height="86.8652" id="org.rcdukes.objects.Boundary" style="stroke: #A80036; stroke-width: 1.5;" width="286" x="345" y="255"/><ellipse cx="456.75" cy="271" fill="#ADD1B2" rx="11" ry="11" style="stroke: #A80036; stroke-width: 1.0;"/><path d="M459.7231,276.6431 Q459.1421,276.9419 458.5029,277.0913 Q457.8638,277.2407 457.1582,277.2407 Q454.6514,277.2407 453.3315,275.5889 Q452.0117,273.937 452.0117,270.8159 Q452.0117,267.6865 453.3315,266.0347 Q454.6514,264.3828 457.1582,264.3828 Q457.8638,264.3828 458.5112,264.5322 Q459.1587,264.6816 459.7231,264.9805 L459.7231,267.7031 Q459.0923,267.1221 458.4988,266.8523 Q457.9053,266.5825 457.2744,266.5825 Q455.9297,266.5825 455.2449,267.6492 Q454.5601,268.7158 454.5601,270.8159 Q454.5601,272.9077 455.2449,273.9744 Q455.9297,275.041 457.2744,275.041 Q457.9053,275.041 458.4988,274.7712 Q459.0923,274.5015 459.7231,273.9204 Z "/><text fill="#000000" font-family="sans-serif" font-size="12" lengthAdjust="spacingAndGlyphs" textLength="54" x="477.25" y="275.5352">Boundary</text><line style="stroke: #A80036; stroke-width: 1.5;" x1="346" x2="630" y1="287" y2="287"/><line style="stroke: #A80036; stroke-width: 1.5;" x1="346" x2="630" y1="295" y2="295"/><ellipse cx="356" cy="306.9775" fill="#84BE84" rx="3" ry="3" style="stroke: #038048; stroke-width: 1.0;"/><text fill="#000000" font-family="sans-serif" font-size="11" lengthAdjust="spacingAndGlyphs" textLength="108" x="365" y="309.6348">Boundary(LineFilter)</text><ellipse cx="356" cy="319.9326" fill="#84BE84" rx="3" ry="3" style="stroke: #038048; stroke-width: 1.0;"/><text fill="#000000" font-family="sans-serif" font-size="11" lengthAdjust="spacingAndGlyphs" textLength="246" x="365" y="322.5898">boundary(Collection&lt;Line&gt;): Optional&lt;Line&gt;</text><ellipse cx="356" cy="332.8877" fill="#84BE84" rx="3" ry="3" style="stroke: #038048; stroke-width: 1.0;"/><text fill="#000000" font-family="sans-serif" font-size="11" lengthAdjust="spacingAndGlyphs" textLength="260" x="365" y="335.5449">candidates(Collection&lt;Line&gt;): Collection&lt;Line&gt;</text></a><!--link org.rcdukes.objects.ViewPort to org.rcdukes.objects.StartLight--><!--link org.rcdukes.objects.ViewPort to org.rcdukes.objects.StoppingZone--><!--link org.rcdukes.objects.StoppingZone to org.rcdukes.objects.Boundary--><text fill="#888888" font-family="sans-serif" font-size="10" lengthAdjust="spacingAndGlyphs" textLength="182" x="241.5" y="377.668">UMLDoclet 1.1.4, PlantUML 1.2019.05</text><!--
@startuml

    namespace org.rcdukes.objects {

        class ViewPort [[ViewPort.html]] {
            +ViewPort(Point2D, double, double)
            +getOrigin(): Point2D
            +getWidth(): double
            +getHeight(): double
        }

        enum StartLight [[StartLight.html]] {
            {static} +OFF
            {static} +LIT
            {static} +DIMMED
            #nrOfOffs: int
            {static} +init(): StartLight
            +on(): StartLight
            +off(): StartLight
            +started(): boolean
        }

        class StoppingZone [[StoppingZone.html]] {
            +StoppingZone(Optional<Line>, Optional<Line>)
            +getEntrance(): Optional<Line>
            +getExit(): Optional<Line>
        }

        class Boundary [[Boundary.html]] {
            +Boundary(LineFilter)
            +boundary(Collection<Line>): Optional<Line>
            +candidates(Collection<Line>): Collection<Line>
        }

    }


    center footer UMLDoclet 1.1.4, PlantUML 1.2019.05
@enduml

PlantUML version 1.2019.05(Sat Apr 20 18:45:36 CEST 2019)
(APACHE source distribution)
Java Runtime: Java(TM) SE Runtime Environment
JVM: Java HotSpot(TM) 64-Bit Server VM
Java Version: 1.8.0_152-b16
Operating System: Mac OS X
OS Version: 10.13.6
Default Encoding: UTF-8
Language: de
Country: DE
--></g></svg>