<?xml version="1.0" encoding="UTF-8" standalone="no"?><svg xmlns="http://www.w3.org/2000/svg" xmlns:xlink="http://www.w3.org/1999/xlink" contentScriptType="application/ecmascript" contentStyleType="text/css" height="705px" preserveAspectRatio="none" style="width:1479px;height:705px;" version="1.1" viewBox="0 0 1479 705" width="1479px" zoomAndPan="magnify"><defs><filter height="300%" id="fr3kh14t6ak2e" width="300%" x="-1" y="-1"><feGaussianBlur result="blurOut" stdDeviation="2.0"/><feColorMatrix in="blurOut" result="blurOut2" type="matrix" values="0 0 0 0 0 0 0 0 0 0 0 0 0 0 0 0 0 0 .4 0"/><feOffset dx="4.0" dy="4.0" in="blurOut2" result="blurOut3"/><feBlend in="SourceGraphic" in2="blurOut3" mode="normal"/></filter></defs><g><!--cluster nl.vaneijndhoven.daisy--><polygon fill="#FFFFFF" filter="url(#fr3kh14t6ak2e)" points="14,124,182,124,189,146.4883,1457,146.4883,1457,664,14,664,14,124" style="stroke: #000000; stroke-width: 1.5;"/><line style="stroke: #000000; stroke-width: 1.5;" x1="14" x2="189" y1="146.4883" y2="146.4883"/><text fill="#000000" font-family="sans-serif" font-size="14" font-weight="bold" lengthAdjust="spacingAndGlyphs" textLength="162" x="18" y="139.5352">nl.vaneijndhoven.daisy</text><!--cluster io.vertx.rxjava.core--><polygon fill="#FFFFFF" filter="url(#fr3kh14t6ak2e)" points="709,16,847,16,854,38.4883,857,38.4883,857,99,709,99,709,16" style="stroke: #000000; stroke-width: 1.5;"/><line style="stroke: #000000; stroke-width: 1.5;" x1="709" x2="854" y1="38.4883" y2="38.4883"/><text fill="#000000" font-family="sans-serif" font-size="14" font-weight="bold" lengthAdjust="spacingAndGlyphs" textLength="132" x="713" y="31.5352">io.vertx.rxjava.core</text><!--class nl.vaneijndhoven.daisy.StartLightDetector--><a href="StartLightDetector.html" target="_top" xlink:actuate="onRequest" xlink:show="new" xlink:title="StartLightDetector.html" xlink:type="simple"><rect fill="#FEFECE" filter="url(#fr3kh14t6ak2e)" height="138.6855" id="nl.vaneijndhoven.daisy.StartLightDetector" style="stroke: #A80036; stroke-width: 1.5;" width="322" x="1127" y="202.5"/><ellipse cx="1232.75" cy="218.5" fill="#ADD1B2" rx="11" ry="11" style="stroke: #A80036; stroke-width: 1.0;"/><path d="M1235.7231,224.1431 Q1235.1421,224.4419 1234.5029,224.5913 Q1233.8638,224.7407 1233.1582,224.7407 Q1230.6514,224.7407 1229.3315,223.0889 Q1228.0117,221.437 1228.0117,218.3159 Q1228.0117,215.1865 1229.3315,213.5347 Q1230.6514,211.8828 1233.1582,211.8828 Q1233.8638,211.8828 1234.5112,212.0322 Q1235.1587,212.1816 1235.7231,212.4805 L1235.7231,215.2031 Q1235.0923,214.6221 1234.4988,214.3523 Q1233.9053,214.0825 1233.2744,214.0825 Q1231.9297,214.0825 1231.2449,215.1492 Q1230.5601,216.2158 1230.5601,218.3159 Q1230.5601,220.4077 1231.2449,221.4744 Q1231.9297,222.541 1233.2744,222.541 Q1233.9053,222.541 1234.4988,222.2712 Q1235.0923,222.0015 1235.7231,221.4204 Z "/><text fill="#000000" font-family="sans-serif" font-size="12" lengthAdjust="spacingAndGlyphs" textLength="102" x="1253.25" y="223.0352">StartLightDetector</text><line style="stroke: #A80036; stroke-width: 1.5;" x1="1128" x2="1448" y1="234.5" y2="234.5"/><line style="stroke: #A80036; stroke-width: 1.5;" x1="1128" x2="1448" y1="242.5" y2="242.5"/><ellipse cx="1138" cy="254.4775" fill="#84BE84" rx="3" ry="3" style="stroke: #038048; stroke-width: 1.0;"/><text fill="#000000" font-family="sans-serif" font-size="11" lengthAdjust="spacingAndGlyphs" textLength="106" x="1147" y="257.1348">StartLightDetector()</text><ellipse cx="1138" cy="267.4326" fill="#84BE84" rx="3" ry="3" style="stroke: #038048; stroke-width: 1.0;"/><text fill="#000000" font-family="sans-serif" font-size="11" lengthAdjust="spacingAndGlyphs" textLength="220" x="1147" y="270.0898">StartLightDetector(int, int, int, int, int, int)</text><ellipse cx="1138" cy="280.3877" fill="#84BE84" rx="3" ry="3" style="stroke: #038048; stroke-width: 1.0;"/><text fill="#000000" font-family="sans-serif" font-size="11" lengthAdjust="spacingAndGlyphs" textLength="243" x="1147" y="283.0449">StartLightDetector(StartLightDetector.Config)</text><ellipse cx="1138" cy="293.3428" fill="#84BE84" rx="3" ry="3" style="stroke: #038048; stroke-width: 1.0;"/><text fill="#000000" font-family="sans-serif" font-size="11" lengthAdjust="spacingAndGlyphs" textLength="118" x="1147" y="296">detect(Mat): StartLight</text><ellipse cx="1138" cy="306.2979" fill="#84BE84" rx="3" ry="3" style="stroke: #038048; stroke-width: 1.0;"/><text fill="#000000" font-family="sans-serif" font-size="11" lengthAdjust="spacingAndGlyphs" textLength="234" x="1147" y="308.9551">withDebug(DebugTools): StartLightDetector</text><ellipse cx="1138" cy="319.2529" fill="#84BE84" rx="3" ry="3" style="stroke: #038048; stroke-width: 1.0;"/><text fill="#000000" font-family="sans-serif" font-size="11" lengthAdjust="spacingAndGlyphs" textLength="83" x="1147" y="321.9102">getFrame(): Mat</text><ellipse cx="1138" cy="332.208" fill="#84BE84" rx="3" ry="3" style="stroke: #038048; stroke-width: 1.0;"/><text fill="#000000" font-family="sans-serif" font-size="11" lengthAdjust="spacingAndGlyphs" textLength="296" x="1147" y="334.8652">withImageCollector(ImageCollector): StartLightDetector</text></a><!--class nl.vaneijndhoven.daisy.StartLightDetector.Config--><a href="StartLightDetector.Config.html" target="_top" xlink:actuate="onRequest" xlink:show="new" xlink:title="StartLightDetector.Config.html" xlink:type="simple"><rect fill="#FEFECE" filter="url(#fr3kh14t6ak2e)" height="203.4609" id="nl.vaneijndhoven.daisy.StartLightDetector.Config" style="stroke: #A80036; stroke-width: 1.5;" width="196" x="1190" y="453"/><ellipse cx="1214.9" cy="469" fill="#ADD1B2" rx="11" ry="11" style="stroke: #A80036; stroke-width: 1.0;"/><path d="M1217.8731,474.6431 Q1217.2921,474.9419 1216.6529,475.0913 Q1216.0138,475.2407 1215.3082,475.2407 Q1212.8014,475.2407 1211.4815,473.5889 Q1210.1617,471.937 1210.1617,468.8159 Q1210.1617,465.6865 1211.4815,464.0347 Q1212.8014,462.3828 1215.3082,462.3828 Q1216.0138,462.3828 1216.6612,462.5322 Q1217.3087,462.6816 1217.8731,462.9805 L1217.8731,465.7031 Q1217.2423,465.1221 1216.6488,464.8523 Q1216.0553,464.5825 1215.4244,464.5825 Q1214.0797,464.5825 1213.3949,465.6492 Q1212.7101,466.7158 1212.7101,468.8159 Q1212.7101,470.9077 1213.3949,471.9744 Q1214.0797,473.041 1215.4244,473.041 Q1216.0553,473.041 1216.6488,472.7712 Q1217.2423,472.5015 1217.8731,471.9204 Z "/><text fill="#000000" font-family="sans-serif" font-size="12" lengthAdjust="spacingAndGlyphs" textLength="142" x="1231.1" y="473.5352">StartLightDetector.Config</text><line style="stroke: #A80036; stroke-width: 1.5;" x1="1191" x2="1385" y1="485" y2="485"/><line style="stroke: #A80036; stroke-width: 1.5;" x1="1191" x2="1385" y1="493" y2="493"/><ellipse cx="1201" cy="504.9775" fill="#84BE84" rx="3" ry="3" style="stroke: #038048; stroke-width: 1.0;"/><text fill="#000000" font-family="sans-serif" font-size="11" lengthAdjust="spacingAndGlyphs" textLength="114" x="1210" y="507.6348">getHueStart(): double</text><ellipse cx="1201" cy="517.9326" fill="#84BE84" rx="3" ry="3" style="stroke: #038048; stroke-width: 1.0;"/><text fill="#000000" font-family="sans-serif" font-size="11" lengthAdjust="spacingAndGlyphs" textLength="136" x="1210" y="520.5898">setHueStart(double): void</text><ellipse cx="1201" cy="530.8877" fill="#84BE84" rx="3" ry="3" style="stroke: #038048; stroke-width: 1.0;"/><text fill="#000000" font-family="sans-serif" font-size="11" lengthAdjust="spacingAndGlyphs" textLength="113" x="1210" y="533.5449">getHueStop(): double</text><ellipse cx="1201" cy="543.8428" fill="#84BE84" rx="3" ry="3" style="stroke: #038048; stroke-width: 1.0;"/><text fill="#000000" font-family="sans-serif" font-size="11" lengthAdjust="spacingAndGlyphs" textLength="135" x="1210" y="546.5">setHueStop(double): void</text><ellipse cx="1201" cy="556.7979" fill="#84BE84" rx="3" ry="3" style="stroke: #038048; stroke-width: 1.0;"/><text fill="#000000" font-family="sans-serif" font-size="11" lengthAdjust="spacingAndGlyphs" textLength="148" x="1210" y="559.4551">getSaturationStart(): double</text><ellipse cx="1201" cy="569.7529" fill="#84BE84" rx="3" ry="3" style="stroke: #038048; stroke-width: 1.0;"/><text fill="#000000" font-family="sans-serif" font-size="11" lengthAdjust="spacingAndGlyphs" textLength="170" x="1210" y="572.4102">setSaturationStart(double): void</text><ellipse cx="1201" cy="582.708" fill="#84BE84" rx="3" ry="3" style="stroke: #038048; stroke-width: 1.0;"/><text fill="#000000" font-family="sans-serif" font-size="11" lengthAdjust="spacingAndGlyphs" textLength="147" x="1210" y="585.3652">getSaturationStop(): double</text><ellipse cx="1201" cy="595.6631" fill="#84BE84" rx="3" ry="3" style="stroke: #038048; stroke-width: 1.0;"/><text fill="#000000" font-family="sans-serif" font-size="11" lengthAdjust="spacingAndGlyphs" textLength="169" x="1210" y="598.3203">setSaturationStop(double): void</text><ellipse cx="1201" cy="608.6182" fill="#84BE84" rx="3" ry="3" style="stroke: #038048; stroke-width: 1.0;"/><text fill="#000000" font-family="sans-serif" font-size="11" lengthAdjust="spacingAndGlyphs" textLength="122" x="1210" y="611.2754">getValueStart(): double</text><ellipse cx="1201" cy="621.5732" fill="#84BE84" rx="3" ry="3" style="stroke: #038048; stroke-width: 1.0;"/><text fill="#000000" font-family="sans-serif" font-size="11" lengthAdjust="spacingAndGlyphs" textLength="144" x="1210" y="624.2305">setValueStart(double): void</text><ellipse cx="1201" cy="634.5283" fill="#84BE84" rx="3" ry="3" style="stroke: #038048; stroke-width: 1.0;"/><text fill="#000000" font-family="sans-serif" font-size="11" lengthAdjust="spacingAndGlyphs" textLength="121" x="1210" y="637.1855">getValueStop(): double</text><ellipse cx="1201" cy="647.4834" fill="#84BE84" rx="3" ry="3" style="stroke: #038048; stroke-width: 1.0;"/><text fill="#000000" font-family="sans-serif" font-size="11" lengthAdjust="spacingAndGlyphs" textLength="143" x="1210" y="650.1406">setValueStop(double): void</text></a><!--class nl.vaneijndhoven.daisy.ImageFetcher--><a href="ImageFetcher.html" target="_top" xlink:actuate="onRequest" xlink:show="new" xlink:title="ImageFetcher.html" xlink:type="simple"><rect fill="#FEFECE" filter="url(#fr3kh14t6ak2e)" height="86.8652" id="nl.vaneijndhoven.daisy.ImageFetcher" style="stroke: #A80036; stroke-width: 1.5;" width="210" x="882" y="228.5"/><ellipse cx="944.25" cy="244.5" fill="#ADD1B2" rx="11" ry="11" style="stroke: #A80036; stroke-width: 1.0;"/><path d="M947.2231,250.1431 Q946.6421,250.4419 946.0029,250.5913 Q945.3638,250.7407 944.6582,250.7407 Q942.1514,250.7407 940.8315,249.0889 Q939.5117,247.437 939.5117,244.3159 Q939.5117,241.1865 940.8315,239.5347 Q942.1514,237.8828 944.6582,237.8828 Q945.3638,237.8828 946.0112,238.0322 Q946.6587,238.1816 947.2231,238.4805 L947.2231,241.2031 Q946.5923,240.6221 945.9988,240.3523 Q945.4053,240.0825 944.7744,240.0825 Q943.4297,240.0825 942.7449,241.1492 Q942.0601,242.2158 942.0601,244.3159 Q942.0601,246.4077 942.7449,247.4744 Q943.4297,248.541 944.7744,248.541 Q945.4053,248.541 945.9988,248.2712 Q946.5923,248.0015 947.2231,247.4204 Z "/><text fill="#000000" font-family="sans-serif" font-size="12" lengthAdjust="spacingAndGlyphs" textLength="77" x="964.75" y="249.0352">ImageFetcher</text><line style="stroke: #A80036; stroke-width: 1.5;" x1="883" x2="1091" y1="260.5" y2="260.5"/><line style="stroke: #A80036; stroke-width: 1.5;" x1="883" x2="1091" y1="268.5" y2="268.5"/><ellipse cx="893" cy="280.4775" fill="#84BE84" rx="3" ry="3" style="stroke: #038048; stroke-width: 1.0;"/><text fill="#000000" font-family="sans-serif" font-size="11" lengthAdjust="spacingAndGlyphs" textLength="112" x="902" y="283.1348">ImageFetcher(String)</text><ellipse cx="893" cy="293.4326" fill="#84BE84" rx="3" ry="3" style="stroke: #038048; stroke-width: 1.0;"/><text fill="#000000" font-family="sans-serif" font-size="11" lengthAdjust="spacingAndGlyphs" textLength="60" x="902" y="296.0898">fetch(): Mat</text><ellipse cx="893" cy="306.3877" fill="#84BE84" rx="3" ry="3" style="stroke: #038048; stroke-width: 1.0;"/><text fill="#000000" font-family="sans-serif" font-size="11" lengthAdjust="spacingAndGlyphs" textLength="184" x="902" y="309.0449">toObservable(): Observable&lt;Mat&gt;</text></a><!--class nl.vaneijndhoven.daisy.Daisy--><a href="Daisy.html" target="_top" xlink:actuate="onRequest" xlink:show="new" xlink:title="Daisy.html" xlink:type="simple"><rect fill="#FEFECE" filter="url(#fr3kh14t6ak2e)" height="99.8203" id="nl.vaneijndhoven.daisy.Daisy" style="stroke: #A80036; stroke-width: 1.5;" width="128" x="719" y="222"/><ellipse cx="763.25" cy="238" fill="#ADD1B2" rx="11" ry="11" style="stroke: #A80036; stroke-width: 1.0;"/><path d="M766.2231,243.6431 Q765.6421,243.9419 765.0029,244.0913 Q764.3638,244.2407 763.6582,244.2407 Q761.1514,244.2407 759.8315,242.5889 Q758.5117,240.937 758.5117,237.8159 Q758.5117,234.6865 759.8315,233.0347 Q761.1514,231.3828 763.6582,231.3828 Q764.3638,231.3828 765.0112,231.5322 Q765.6587,231.6816 766.2231,231.9805 L766.2231,234.7031 Q765.5923,234.1221 764.9988,233.8523 Q764.4053,233.5825 763.7744,233.5825 Q762.4297,233.5825 761.7449,234.6492 Q761.0601,235.7158 761.0601,237.8159 Q761.0601,239.9077 761.7449,240.9744 Q762.4297,242.041 763.7744,242.041 Q764.4053,242.041 764.9988,241.7712 Q765.5923,241.5015 766.2231,240.9204 Z "/><text fill="#000000" font-family="sans-serif" font-size="12" lengthAdjust="spacingAndGlyphs" textLength="31" x="783.75" y="242.5352">Daisy</text><line style="stroke: #A80036; stroke-width: 1.5;" x1="720" x2="846" y1="254" y2="254"/><ellipse cx="730" cy="265.9775" fill="none" rx="3" ry="3" style="stroke: #038048; stroke-width: 1.0;"/><text fill="#000000" font-family="sans-serif" font-size="11" lengthAdjust="spacingAndGlyphs" text-decoration="underline" textLength="49" x="739" y="268.6348">MAT: Mat</text><ellipse cx="730" cy="278.9326" fill="none" rx="3" ry="3" style="stroke: #038048; stroke-width: 1.0;"/><text fill="#000000" font-family="sans-serif" font-size="11" lengthAdjust="spacingAndGlyphs" text-decoration="underline" textLength="80" x="739" y="281.5898">BIRDS_EYE: Mat</text><ellipse cx="730" cy="291.8877" fill="none" rx="3" ry="3" style="stroke: #038048; stroke-width: 1.0;"/><text fill="#000000" font-family="sans-serif" font-size="11" lengthAdjust="spacingAndGlyphs" text-decoration="underline" textLength="102" x="739" y="294.5449">CANNY_IMG: byte[]</text><line style="stroke: #A80036; stroke-width: 1.5;" x1="720" x2="846" y1="300.8652" y2="300.8652"/><ellipse cx="730" cy="312.8428" fill="#84BE84" rx="3" ry="3" style="stroke: #038048; stroke-width: 1.0;"/><text fill="#000000" font-family="sans-serif" font-size="11" lengthAdjust="spacingAndGlyphs" textLength="62" x="739" y="315.5">start(): void</text></a><!--class nl.vaneijndhoven.daisy.LaneDetector--><a href="LaneDetector.html" target="_top" xlink:actuate="onRequest" xlink:show="new" xlink:title="LaneDetector.html" xlink:type="simple"><rect fill="#FEFECE" filter="url(#fr3kh14t6ak2e)" height="242.3262" id="nl.vaneijndhoven.daisy.LaneDetector" style="stroke: #A80036; stroke-width: 1.5;" width="661" x="22.5" y="151"/><ellipse cx="310.75" cy="167" fill="#ADD1B2" rx="11" ry="11" style="stroke: #A80036; stroke-width: 1.0;"/><path d="M313.7231,172.6431 Q313.1421,172.9419 312.5029,173.0913 Q311.8638,173.2407 311.1582,173.2407 Q308.6514,173.2407 307.3315,171.5889 Q306.0117,169.937 306.0117,166.8159 Q306.0117,163.6865 307.3315,162.0347 Q308.6514,160.3828 311.1582,160.3828 Q311.8638,160.3828 312.5112,160.5322 Q313.1587,160.6816 313.7231,160.9805 L313.7231,163.7031 Q313.0923,163.1221 312.4988,162.8523 Q311.9053,162.5825 311.2744,162.5825 Q309.9297,162.5825 309.2449,163.6492 Q308.5601,164.7158 308.5601,166.8159 Q308.5601,168.9077 309.2449,169.9744 Q309.9297,171.041 311.2744,171.041 Q311.9053,171.041 312.4988,170.7712 Q313.0923,170.5015 313.7231,169.9204 Z "/><text fill="#000000" font-family="sans-serif" font-size="12" lengthAdjust="spacingAndGlyphs" textLength="76" x="331.25" y="171.5352">LaneDetector</text><line style="stroke: #A80036; stroke-width: 1.5;" x1="23.5" x2="682.5" y1="183" y2="183"/><ellipse cx="33.5" cy="194.9775" fill="none" rx="3" ry="3" style="stroke: #038048; stroke-width: 1.0;"/><text fill="#000000" font-family="sans-serif" font-size="11" lengthAdjust="spacingAndGlyphs" text-decoration="underline" textLength="235" x="42.5" y="197.6348">DEFAULT_LANE_BOUNDARY_ANGLE: double</text><ellipse cx="33.5" cy="207.9326" fill="none" rx="3" ry="3" style="stroke: #038048; stroke-width: 1.0;"/><text fill="#000000" font-family="sans-serif" font-size="11" lengthAdjust="spacingAndGlyphs" text-decoration="underline" textLength="264" x="42.5" y="210.5898">DEFAULT_LANE_BOUNDARY_TOLERANCE: double</text><ellipse cx="33.5" cy="220.8877" fill="none" rx="3" ry="3" style="stroke: #038048; stroke-width: 1.0;"/><text fill="#000000" font-family="sans-serif" font-size="11" lengthAdjust="spacingAndGlyphs" text-decoration="underline" textLength="221" x="42.5" y="223.5449">DEFAULT_CANNY_THRESHOLD_1: double</text><ellipse cx="33.5" cy="233.8428" fill="none" rx="3" ry="3" style="stroke: #038048; stroke-width: 1.0;"/><text fill="#000000" font-family="sans-serif" font-size="11" lengthAdjust="spacingAndGlyphs" text-decoration="underline" textLength="221" x="42.5" y="236.5">DEFAULT_CANNY_THRESHOLD_2: double</text><ellipse cx="33.5" cy="246.7979" fill="none" rx="3" ry="3" style="stroke: #038048; stroke-width: 1.0;"/><text fill="#000000" font-family="sans-serif" font-size="11" lengthAdjust="spacingAndGlyphs" text-decoration="underline" textLength="176" x="42.5" y="249.4551">DEFAULT_LINE_DETECT_RHO: int</text><ellipse cx="33.5" cy="259.7529" fill="none" rx="3" ry="3" style="stroke: #038048; stroke-width: 1.0;"/><text fill="#000000" font-family="sans-serif" font-size="11" lengthAdjust="spacingAndGlyphs" text-decoration="underline" textLength="211" x="42.5" y="262.4102">DEFAULT_LINE_DETECT_THETA: double</text><ellipse cx="33.5" cy="272.708" fill="none" rx="3" ry="3" style="stroke: #038048; stroke-width: 1.0;"/><text fill="#000000" font-family="sans-serif" font-size="11" lengthAdjust="spacingAndGlyphs" text-decoration="underline" textLength="240" x="42.5" y="275.3652">DEFAULT_LINE_DETECT_THRESHOLD: double</text><ellipse cx="33.5" cy="285.6631" fill="none" rx="3" ry="3" style="stroke: #038048; stroke-width: 1.0;"/><text fill="#000000" font-family="sans-serif" font-size="11" lengthAdjust="spacingAndGlyphs" text-decoration="underline" textLength="273" x="42.5" y="288.3203">DEFAULT_LINE_DETECT_MIN_LINE_LENGTH: double</text><ellipse cx="33.5" cy="298.6182" fill="none" rx="3" ry="3" style="stroke: #038048; stroke-width: 1.0;"/><text fill="#000000" font-family="sans-serif" font-size="11" lengthAdjust="spacingAndGlyphs" text-decoration="underline" textLength="256" x="42.5" y="301.2754">DEFAULT_LINE_DETECT_MAX_LINE_GAP: double</text><line style="stroke: #A80036; stroke-width: 1.5;" x1="23.5" x2="682.5" y1="307.5957" y2="307.5957"/><ellipse cx="33.5" cy="319.5732" fill="#84BE84" rx="3" ry="3" style="stroke: #038048; stroke-width: 1.0;"/><text fill="#000000" font-family="sans-serif" font-size="11" lengthAdjust="spacingAndGlyphs" textLength="635" x="42.5" y="322.2305">LaneDetector(CannyEdgeDetector.Config, ProbabilisticHoughLinesLineDetector.Config, CameraMatrix, ImageCollector)</text><ellipse cx="33.5" cy="332.5283" fill="#84BE84" rx="3" ry="3" style="stroke: #038048; stroke-width: 1.0;"/><text fill="#000000" font-family="sans-serif" font-size="11" lengthAdjust="spacingAndGlyphs" textLength="179" x="42.5" y="335.1855">detect(Mat): Map&lt;String, Object&gt;</text><ellipse cx="33.5" cy="345.4834" fill="#84BE84" rx="3" ry="3" style="stroke: #038048; stroke-width: 1.0;"/><text fill="#000000" font-family="sans-serif" font-size="11" lengthAdjust="spacingAndGlyphs" textLength="266" x="42.5" y="348.1406">performLaneDetection(Mat): Map&lt;String, Object&gt;</text><ellipse cx="33.5" cy="358.4385" fill="#84BE84" rx="3" ry="3" style="stroke: #038048; stroke-width: 1.0;"/><text fill="#000000" font-family="sans-serif" font-size="11" lengthAdjust="spacingAndGlyphs" textLength="268" x="42.5" y="361.0957">setCannyConfig(CannyEdgeDetector.Config): void</text><ellipse cx="33.5" cy="371.3936" fill="#84BE84" rx="3" ry="3" style="stroke: #038048; stroke-width: 1.0;"/><text fill="#000000" font-family="sans-serif" font-size="11" lengthAdjust="spacingAndGlyphs" textLength="394" x="42.5" y="374.0508">setLineDetectorConfig(ProbabilisticHoughLinesLineDetector.Config): void</text><ellipse cx="33.5" cy="384.3486" fill="#84BE84" rx="3" ry="3" style="stroke: #038048; stroke-width: 1.0;"/><text fill="#000000" font-family="sans-serif" font-size="11" lengthAdjust="spacingAndGlyphs" textLength="183" x="42.5" y="387.0059">setCollector(ImageCollector): void</text></a><!--class io.vertx.rxjava.core.AbstractVerticle--><rect fill="#FEFECE" filter="url(#fr3kh14t6ak2e)" height="48" id="io.vertx.rxjava.core.AbstractVerticle" style="stroke: #A80036; stroke-width: 1.5;" width="123" x="721.5" y="43"/><ellipse cx="736.5" cy="59" fill="#ADD1B2" rx="11" ry="11" style="stroke: #A80036; stroke-width: 1.0;"/><path d="M739.4731,64.6431 Q738.8921,64.9419 738.2529,65.0913 Q737.6138,65.2407 736.9082,65.2407 Q734.4014,65.2407 733.0815,63.5889 Q731.7617,61.937 731.7617,58.8159 Q731.7617,55.6865 733.0815,54.0347 Q734.4014,52.3828 736.9082,52.3828 Q737.6138,52.3828 738.2612,52.5322 Q738.9087,52.6816 739.4731,52.9805 L739.4731,55.7031 Q738.8423,55.1221 738.2488,54.8523 Q737.6553,54.5825 737.0244,54.5825 Q735.6797,54.5825 734.9949,55.6492 Q734.3101,56.7158 734.3101,58.8159 Q734.3101,60.9077 734.9949,61.9744 Q735.6797,63.041 737.0244,63.041 Q737.6553,63.041 738.2488,62.7712 Q738.8423,62.5015 739.4731,61.9204 Z "/><text fill="#000000" font-family="sans-serif" font-size="12" lengthAdjust="spacingAndGlyphs" textLength="91" x="750.5" y="63.5352">AbstractVerticle</text><line style="stroke: #A80036; stroke-width: 1.5;" x1="722.5" x2="843.5" y1="75" y2="75"/><line style="stroke: #A80036; stroke-width: 1.5;" x1="722.5" x2="843.5" y1="83" y2="83"/><!--link nl.vaneijndhoven.daisy.StartLightDetector to nl.vaneijndhoven.daisy.StartLightDetector.Config--><path d="M1288,357.1913 C1288,387.3428 1288,421.5622 1288,452.9382 " fill="none" id="nl.vaneijndhoven.daisy.StartLightDetector-nl.vaneijndhoven.daisy.StartLightDetector.Config" style="stroke: #A80036; stroke-width: 1.0;"/><ellipse cx="1288.0001" cy="349.8315" fill="#FFFFFF" rx="8" ry="8" style="stroke: #A80036; stroke-width: 1.0;"/><line style="stroke: #A80036; stroke-width: 1.0;" x1="1288.0002" x2="1288" y1="357.8315" y2="341.8315"/><line style="stroke: #A80036; stroke-width: 1.0;" x1="1280.0001" x2="1296.0001" y1="349.8316" y2="349.8314"/><!--link io.vertx.rxjava.core.AbstractVerticle to nl.vaneijndhoven.daisy.Daisy--><path d="M783,111.7143 C783,144.2155 783,188.2297 783,221.9128 " fill="none" id="io.vertx.rxjava.core.AbstractVerticle-nl.vaneijndhoven.daisy.Daisy" style="stroke: #A80036; stroke-width: 1.0;"/><polygon fill="none" points="776.0001,111.3212,783,91.3212,790.0001,111.3212,776.0001,111.3212" style="stroke: #A80036; stroke-width: 1.0;"/><text fill="#888888" font-family="sans-serif" font-size="10" lengthAdjust="spacingAndGlyphs" textLength="182" x="650.5" y="691.668">UMLDoclet 1.1.4, PlantUML 1.2019.05</text><!--
@startuml

    namespace nl.vaneijndhoven.daisy {

        class StartLightDetector [[StartLightDetector.html]] {
            +StartLightDetector()
            +StartLightDetector(int, int, int, int, int, int)
            +StartLightDetector(StartLightDetector.Config)
            +detect(Mat): StartLight
            +withDebug(DebugTools): StartLightDetector
            +getFrame(): Mat
            +withImageCollector(ImageCollector): StartLightDetector
        }

        class nl.vaneijndhoven.daisy.StartLightDetector.Config [[StartLightDetector.Config.html]] {
            +getHueStart(): double
            +setHueStart(double): void
            +getHueStop(): double
            +setHueStop(double): void
            +getSaturationStart(): double
            +setSaturationStart(double): void
            +getSaturationStop(): double
            +setSaturationStop(double): void
            +getValueStart(): double
            +setValueStart(double): void
            +getValueStop(): double
            +setValueStop(double): void
        }

        class ImageFetcher [[ImageFetcher.html]] {
            +ImageFetcher(String)
            +fetch(): Mat
            +toObservable(): Observable<Mat>
        }

        class Daisy [[Daisy.html]] {
            {static} +MAT: Mat
            {static} +BIRDS_EYE: Mat
            {static} +CANNY_IMG: byte[]
            +start(): void
        }

        class LaneDetector [[LaneDetector.html]] {
            {static} +DEFAULT_LANE_BOUNDARY_ANGLE: double
            {static} +DEFAULT_LANE_BOUNDARY_TOLERANCE: double
            {static} +DEFAULT_CANNY_THRESHOLD_1: double
            {static} +DEFAULT_CANNY_THRESHOLD_2: double
            {static} +DEFAULT_LINE_DETECT_RHO: int
            {static} +DEFAULT_LINE_DETECT_THETA: double
            {static} +DEFAULT_LINE_DETECT_THRESHOLD: double
            {static} +DEFAULT_LINE_DETECT_MIN_LINE_LENGTH: double
            {static} +DEFAULT_LINE_DETECT_MAX_LINE_GAP: double
            +LaneDetector(CannyEdgeDetector.Config, ProbabilisticHoughLinesLineDetector.Config, CameraMatrix, ImageCollector)
            +detect(Mat): Map<String, Object>
            +performLaneDetection(Mat): Map<String, Object>
            +setCannyConfig(CannyEdgeDetector.Config): void
            +setLineDetectorConfig(ProbabilisticHoughLinesLineDetector.Config): void
            +setCollector(ImageCollector): void
        }

        StartLightDetector +- - nl.vaneijndhoven.daisy.StartLightDetector.Config

        class io.vertx.rxjava.core.AbstractVerticle
        io.vertx.rxjava.core.AbstractVerticle <|- - Daisy

    }


    center footer UMLDoclet 1.1.4, PlantUML 1.2019.05
@enduml

PlantUML version 1.2019.05(Sat Apr 20 18:45:36 CEST 2019)
(APACHE source distribution)
Java Runtime: Java(TM) SE Runtime Environment
JVM: Java HotSpot(TM) 64-Bit Server VM
Java Version: 1.8.0_152-b16
Operating System: Mac OS X
OS Version: 10.13.6
Default Encoding: UTF-8
Language: de
Country: DE
--></g></svg>