<?xml version="1.0" encoding="UTF-8" standalone="no"?><svg xmlns="http://www.w3.org/2000/svg" xmlns:xlink="http://www.w3.org/1999/xlink" contentScriptType="application/ecmascript" contentStyleType="text/css" height="287px" preserveAspectRatio="none" style="width:943px;height:287px;" version="1.1" viewBox="0 0 943 287" width="943px" zoomAndPan="magnify"><defs><filter height="300%" id="f12ru6ebkxcx5f" width="300%" x="-1" y="-1"><feGaussianBlur result="blurOut" stdDeviation="2.0"/><feColorMatrix in="blurOut" result="blurOut2" type="matrix" values="0 0 0 0 0 0 0 0 0 0 0 0 0 0 0 0 0 0 .4 0"/><feOffset dx="4.0" dy="4.0" in="blurOut2" result="blurOut3"/><feBlend in="SourceGraphic" in2="blurOut3" mode="normal"/></filter></defs><g><!--cluster nl.vaneijndhoven.opencv.lanedetection--><polygon fill="#FFFFFF" filter="url(#f12ru6ebkxcx5f)" points="14,16,294,16,301,38.4883,921,38.4883,921,246,14,246,14,16" style="stroke: #000000; stroke-width: 1.5;"/><line style="stroke: #000000; stroke-width: 1.5;" x1="14" x2="301" y1="38.4883" y2="38.4883"/><text fill="#000000" font-family="sans-serif" font-size="14" font-weight="bold" lengthAdjust="spacingAndGlyphs" textLength="274" x="18" y="31.5352">nl.vaneijndhoven.opencv.lanedetection</text><!--class nl.vaneijndhoven.opencv.lanedetection.DefaultLaneDetector--><a href="DefaultLaneDetector.html" target="_top" xlink:actuate="onRequest" xlink:show="new" xlink:title="DefaultLaneDetector.html" xlink:type="simple"><rect fill="#FEFECE" filter="url(#f12ru6ebkxcx5f)" height="60.9551" id="nl.vaneijndhoven.opencv.lanedetection.DefaultLaneDetector" style="stroke: #A80036; stroke-width: 1.5;" width="244" x="22" y="177"/><ellipse cx="81.25" cy="193" fill="#ADD1B2" rx="11" ry="11" style="stroke: #A80036; stroke-width: 1.0;"/><path d="M84.2231,198.6431 Q83.6421,198.9419 83.0029,199.0913 Q82.3638,199.2407 81.6582,199.2407 Q79.1514,199.2407 77.8315,197.5889 Q76.5117,195.937 76.5117,192.8159 Q76.5117,189.6865 77.8315,188.0347 Q79.1514,186.3828 81.6582,186.3828 Q82.3638,186.3828 83.0112,186.5322 Q83.6587,186.6816 84.2231,186.9805 L84.2231,189.7031 Q83.5923,189.1221 82.9988,188.8523 Q82.4053,188.5825 81.7744,188.5825 Q80.4297,188.5825 79.7449,189.6492 Q79.0601,190.7158 79.0601,192.8159 Q79.0601,194.9077 79.7449,195.9744 Q80.4297,197.041 81.7744,197.041 Q82.4053,197.041 82.9988,196.7712 Q83.5923,196.5015 84.2231,195.9204 Z "/><text fill="#000000" font-family="sans-serif" font-size="12" lengthAdjust="spacingAndGlyphs" textLength="117" x="101.75" y="197.5352">DefaultLaneDetector</text><line style="stroke: #A80036; stroke-width: 1.5;" x1="23" x2="265" y1="209" y2="209"/><line style="stroke: #A80036; stroke-width: 1.5;" x1="23" x2="265" y1="217" y2="217"/><ellipse cx="33" cy="228.9775" fill="#84BE84" rx="3" ry="3" style="stroke: #038048; stroke-width: 1.0;"/><text fill="#000000" font-family="sans-serif" font-size="11" lengthAdjust="spacingAndGlyphs" textLength="218" x="42" y="231.6348">detect(Collection&lt;Line&gt;, ViewPort): Lane</text></a><!--class nl.vaneijndhoven.opencv.lanedetection.ImageLaneDetection--><a href="ImageLaneDetection.html" target="_top" xlink:actuate="onRequest" xlink:show="new" xlink:title="ImageLaneDetection.html" xlink:type="simple"><rect fill="#FEFECE" filter="url(#f12ru6ebkxcx5f)" height="73.9102" id="nl.vaneijndhoven.opencv.lanedetection.ImageLaneDetection" style="stroke: #A80036; stroke-width: 1.5;" width="611" x="301.5" y="43"/><ellipse cx="544.75" cy="59" fill="#ADD1B2" rx="11" ry="11" style="stroke: #A80036; stroke-width: 1.0;"/><path d="M547.7231,64.6431 Q547.1421,64.9419 546.5029,65.0913 Q545.8638,65.2407 545.1582,65.2407 Q542.6514,65.2407 541.3315,63.5889 Q540.0117,61.937 540.0117,58.8159 Q540.0117,55.6865 541.3315,54.0347 Q542.6514,52.3828 545.1582,52.3828 Q545.8638,52.3828 546.5112,52.5322 Q547.1587,52.6816 547.7231,52.9805 L547.7231,55.7031 Q547.0923,55.1221 546.4988,54.8523 Q545.9053,54.5825 545.2744,54.5825 Q543.9297,54.5825 543.2449,55.6492 Q542.5601,56.7158 542.5601,58.8159 Q542.5601,60.9077 543.2449,61.9744 Q543.9297,63.041 545.2744,63.041 Q545.9053,63.041 546.4988,62.7712 Q547.0923,62.5015 547.7231,61.9204 Z "/><text fill="#000000" font-family="sans-serif" font-size="12" lengthAdjust="spacingAndGlyphs" textLength="116" x="565.25" y="63.5352">ImageLaneDetection</text><line style="stroke: #A80036; stroke-width: 1.5;" x1="302.5" x2="911.5" y1="75" y2="75"/><line style="stroke: #A80036; stroke-width: 1.5;" x1="302.5" x2="911.5" y1="83" y2="83"/><ellipse cx="312.5" cy="94.9775" fill="#84BE84" rx="3" ry="3" style="stroke: #038048; stroke-width: 1.0;"/><text fill="#000000" font-family="sans-serif" font-size="11" lengthAdjust="spacingAndGlyphs" textLength="585" x="321.5" y="97.6348">ImageLaneDetection(CannyEdgeDetector.Config, ProbabilisticHoughLinesLineDetector.Config, CameraMatrix)</text><ellipse cx="312.5" cy="107.9326" fill="#84BE84" rx="3" ry="3" style="stroke: #038048; stroke-width: 1.0;"/><text fill="#000000" font-family="sans-serif" font-size="11" lengthAdjust="spacingAndGlyphs" textLength="291" x="321.5" y="110.5898">detectLane(Mat, ImageCollector): Map&lt;String, Object&gt;</text></a><!--class nl.vaneijndhoven.opencv.lanedetection.LaneDetector--><a href="LaneDetector.html" target="_top" xlink:actuate="onRequest" xlink:show="new" xlink:title="LaneDetector.html" xlink:type="simple"><rect fill="#FEFECE" filter="url(#f12ru6ebkxcx5f)" height="60.9551" id="nl.vaneijndhoven.opencv.lanedetection.LaneDetector" style="stroke: #A80036; stroke-width: 1.5;" width="244" x="22" y="49.5"/><ellipse cx="101.75" cy="65.5" fill="#B4A7E5" rx="11" ry="11" style="stroke: #A80036; stroke-width: 1.0;"/><path d="M97.6777,61.2651 L97.6777,59.1069 L105.0571,59.1069 L105.0571,61.2651 L102.5918,61.2651 L102.5918,69.3418 L105.0571,69.3418 L105.0571,71.5 L97.6777,71.5 L97.6777,69.3418 L100.1431,69.3418 L100.1431,61.2651 Z "/><text fill="#000000" font-family="sans-serif" font-size="12" font-style="italic" lengthAdjust="spacingAndGlyphs" textLength="76" x="122.25" y="70.0352">LaneDetector</text><line style="stroke: #A80036; stroke-width: 1.5;" x1="23" x2="265" y1="81.5" y2="81.5"/><line style="stroke: #A80036; stroke-width: 1.5;" x1="23" x2="265" y1="89.5" y2="89.5"/><ellipse cx="33" cy="101.4775" fill="#84BE84" rx="3" ry="3" style="stroke: #038048; stroke-width: 1.0;"/><text fill="#000000" font-family="sans-serif" font-size="11" font-style="italic" lengthAdjust="spacingAndGlyphs" textLength="218" x="42" y="104.1348">detect(Collection&lt;Line&gt;, ViewPort): Lane</text></a><!--link nl.vaneijndhoven.opencv.lanedetection.LaneDetector to nl.vaneijndhoven.opencv.lanedetection.DefaultLaneDetector--><path d="M144,130.7355 C144,146.309 144,162.9647 144,176.7679 " fill="none" id="nl.vaneijndhoven.opencv.lanedetection.LaneDetector-nl.vaneijndhoven.opencv.lanedetection.DefaultLaneDetector" style="stroke: #A80036; stroke-width: 1.0; stroke-dasharray: 7.0,7.0;"/><polygon fill="none" points="137.0001,130.5395,144,110.5394,151.0001,130.5394,137.0001,130.5395" style="stroke: #A80036; stroke-width: 1.0;"/><text fill="#888888" font-family="sans-serif" font-size="10" lengthAdjust="spacingAndGlyphs" textLength="182" x="382.5" y="273.668">UMLDoclet 1.1.4, PlantUML 1.2019.05</text><!--
@startuml

    namespace nl.vaneijndhoven.opencv.lanedetection {

        class DefaultLaneDetector [[DefaultLaneDetector.html]] {
            +detect(Collection<Line>, ViewPort): Lane
        }

        class ImageLaneDetection [[ImageLaneDetection.html]] {
            +ImageLaneDetection(CannyEdgeDetector.Config, ProbabilisticHoughLinesLineDetector.Config, CameraMatrix)
            +detectLane(Mat, ImageCollector): Map<String, Object>
        }

        interface LaneDetector [[LaneDetector.html]] {
            {abstract} +detect(Collection<Line>, ViewPort): Lane
        }

        LaneDetector <|.. DefaultLaneDetector

    }


    center footer UMLDoclet 1.1.4, PlantUML 1.2019.05
@enduml

PlantUML version 1.2019.05(Sat Apr 20 18:45:36 CEST 2019)
(APACHE source distribution)
Java Runtime: Java(TM) SE Runtime Environment
JVM: Java HotSpot(TM) 64-Bit Server VM
Java Version: 1.8.0_152-b16
Operating System: Mac OS X
OS Version: 10.13.6
Default Encoding: UTF-8
Language: de
Country: DE
--></g></svg>