<?xml version="1.0" encoding="UTF-8" standalone="no"?><svg xmlns="http://www.w3.org/2000/svg" xmlns:xlink="http://www.w3.org/1999/xlink" contentScriptType="application/ecmascript" contentStyleType="text/css" height="326px" preserveAspectRatio="none" style="width:246px;height:326px;" version="1.1" viewBox="0 0 246 326" width="246px" zoomAndPan="magnify"><defs><filter height="300%" id="f1o65pfc0fuvjg" width="300%" x="-1" y="-1"><feGaussianBlur result="blurOut" stdDeviation="2.0"/><feColorMatrix in="blurOut" result="blurOut2" type="matrix" values="0 0 0 0 0 0 0 0 0 0 0 0 0 0 0 0 0 0 .4 0"/><feOffset dx="4.0" dy="4.0" in="blurOut2" result="blurOut3"/><feBlend in="SourceGraphic" in2="blurOut3" mode="normal"/></filter></defs><g><!--cluster org.rcdukes.server--><polygon fill="#FFFFFF" filter="url(#f1o65pfc0fuvjg)" points="14,124,150,124,157,146.4883,224,146.4883,224,285,14,285,14,124" style="stroke: #000000; stroke-width: 1.5;"/><line style="stroke: #000000; stroke-width: 1.5;" x1="14" x2="157" y1="146.4883" y2="146.4883"/><text fill="#000000" font-family="sans-serif" font-size="14" font-weight="bold" lengthAdjust="spacingAndGlyphs" textLength="130" x="18" y="139.5352">org.rcdukes.server</text><!--cluster org.rcdukes.common--><polygon fill="#FFFFFF" filter="url(#f1o65pfc0fuvjg)" points="37,16,191,16,198,38.4883,201,38.4883,201,99,37,99,37,16" style="stroke: #000000; stroke-width: 1.5;"/><line style="stroke: #000000; stroke-width: 1.5;" x1="37" x2="198" y1="38.4883" y2="38.4883"/><text fill="#000000" font-family="sans-serif" font-size="14" font-weight="bold" lengthAdjust="spacingAndGlyphs" textLength="148" x="41" y="31.5352">org.rcdukes.common</text><!--class org.rcdukes.server.CarServer--><a href="CarServer.html" target="_top" xlink:actuate="onRequest" xlink:show="new" xlink:title="CarServer.html" xlink:type="simple"><rect fill="#FEFECE" filter="url(#f1o65pfc0fuvjg)" height="125.7305" id="org.rcdukes.server.CarServer" style="stroke: #A80036; stroke-width: 1.5;" width="193" x="22.5" y="151"/><ellipse cx="86.75" cy="167" fill="#ADD1B2" rx="11" ry="11" style="stroke: #A80036; stroke-width: 1.0;"/><path d="M89.7231,172.6431 Q89.1421,172.9419 88.5029,173.0913 Q87.8638,173.2407 87.1582,173.2407 Q84.6514,173.2407 83.3315,171.5889 Q82.0117,169.937 82.0117,166.8159 Q82.0117,163.6865 83.3315,162.0347 Q84.6514,160.3828 87.1582,160.3828 Q87.8638,160.3828 88.5112,160.5322 Q89.1587,160.6816 89.7231,160.9805 L89.7231,163.7031 Q89.0923,163.1221 88.4988,162.8523 Q87.9053,162.5825 87.2744,162.5825 Q85.9297,162.5825 85.2449,163.6492 Q84.5601,164.7158 84.5601,166.8159 Q84.5601,168.9077 85.2449,169.9744 Q85.9297,171.041 87.2744,171.041 Q87.9053,171.041 88.4988,170.7712 Q89.0923,170.5015 89.7231,169.9204 Z "/><text fill="#000000" font-family="sans-serif" font-size="12" lengthAdjust="spacingAndGlyphs" textLength="56" x="107.25" y="171.5352">CarServer</text><line style="stroke: #A80036; stroke-width: 1.5;" x1="23.5" x2="214.5" y1="183" y2="183"/><polygon fill="none" points="33.5,189.9775,37.5,193.9775,33.5,197.9775,29.5,193.9775" style="stroke: #B38D22; stroke-width: 1.0;"/><text fill="#000000" font-family="sans-serif" font-size="11" lengthAdjust="spacingAndGlyphs" textLength="122" x="42.5" y="197.6348">parser: CmdLineParser</text><polygon fill="none" points="33.5,202.9326,37.5,206.9326,33.5,210.9326,29.5,206.9326" style="stroke: #B38D22; stroke-width: 1.0;"/><text fill="#000000" font-family="sans-serif" font-size="11" lengthAdjust="spacingAndGlyphs" textLength="83" x="42.5" y="210.5898">debug: boolean</text><line style="stroke: #A80036; stroke-width: 1.5;" x1="23.5" x2="214.5" y1="216.9102" y2="216.9102"/><ellipse cx="33.5" cy="228.8877" fill="#84BE84" rx="3" ry="3" style="stroke: #038048; stroke-width: 1.0;"/><text fill="#000000" font-family="sans-serif" font-size="11" lengthAdjust="spacingAndGlyphs" textLength="62" x="42.5" y="231.5449">start(): void</text><ellipse cx="33.5" cy="241.8428" fill="#84BE84" rx="3" ry="3" style="stroke: #038048; stroke-width: 1.0;"/><text fill="#000000" font-family="sans-serif" font-size="11" lengthAdjust="spacingAndGlyphs" textLength="167" x="42.5" y="244.5">parseArguments(String[]): void</text><ellipse cx="33.5" cy="254.7979" fill="#84BE84" rx="3" ry="3" style="stroke: #038048; stroke-width: 1.0;"/><text fill="#000000" font-family="sans-serif" font-size="11" lengthAdjust="spacingAndGlyphs" textLength="148" x="42.5" y="257.4551">mainInstance(String[]): void</text><ellipse cx="33.5" cy="267.7529" fill="#84BE84" rx="3" ry="3" style="stroke: #038048; stroke-width: 1.0;"/><text fill="#000000" font-family="sans-serif" font-size="11" lengthAdjust="spacingAndGlyphs" text-decoration="underline" textLength="103" x="42.5" y="270.4102">main(String[]): void</text></a><!--class org.rcdukes.common.DukesVerticle--><rect fill="#FEFECE" filter="url(#f1o65pfc0fuvjg)" height="48" id="org.rcdukes.common.DukesVerticle" style="stroke: #A80036; stroke-width: 1.5;" width="111" x="63.5" y="43"/><ellipse cx="78.5" cy="59" fill="#A9DCDF" rx="11" ry="11" style="stroke: #A80036; stroke-width: 1.0;"/><path d="M78.6133,54.3481 L77.4595,59.4199 L79.7754,59.4199 Z M77.1191,52.1069 L80.1157,52.1069 L83.4609,64.5 L81.0122,64.5 L80.2485,61.437 L76.9697,61.437 L76.2227,64.5 L73.7739,64.5 Z "/><text fill="#000000" font-family="sans-serif" font-size="12" font-style="italic" lengthAdjust="spacingAndGlyphs" textLength="79" x="92.5" y="63.5352">DukesVerticle</text><line style="stroke: #A80036; stroke-width: 1.5;" x1="64.5" x2="173.5" y1="75" y2="75"/><line style="stroke: #A80036; stroke-width: 1.5;" x1="64.5" x2="173.5" y1="83" y2="83"/><!--link org.rcdukes.common.DukesVerticle to org.rcdukes.server.CarServer--><path d="M119,111.3059 C119,123.7967 119,137.6307 119,150.9924 " fill="none" id="org.rcdukes.common.DukesVerticle-org.rcdukes.server.CarServer" style="stroke: #A80036; stroke-width: 1.0;"/><polygon fill="none" points="112.0001,111.2741,119,91.2741,126.0001,111.274,112.0001,111.2741" style="stroke: #A80036; stroke-width: 1.0;"/><text fill="#888888" font-family="sans-serif" font-size="10" lengthAdjust="spacingAndGlyphs" textLength="182" x="34" y="312.668">UMLDoclet 1.1.4, PlantUML 1.2019.05</text><!--
@startuml

    namespace org.rcdukes.server {

        class CarServer [[CarServer.html]] {
            #parser: CmdLineParser
            #debug: boolean
            +start(): void
            +parseArguments(String[]): void
            +mainInstance(String[]): void
            {static} +main(String[]): void
        }

        abstract class org.rcdukes.common.DukesVerticle
        org.rcdukes.common.DukesVerticle <|- - CarServer

    }


    center footer UMLDoclet 1.1.4, PlantUML 1.2019.05
@enduml

PlantUML version 1.2019.05(Sat Apr 20 18:45:36 CEST 2019)
(APACHE source distribution)
Java Runtime: Java(TM) SE Runtime Environment
JVM: Java HotSpot(TM) 64-Bit Server VM
Java Version: 1.8.0_152-b16
Operating System: Mac OS X
OS Version: 10.13.6
Default Encoding: UTF-8
Language: de
Country: DE
--></g></svg>