<?xml version="1.0" encoding="UTF-8" standalone="no"?><svg xmlns="http://www.w3.org/2000/svg" xmlns:xlink="http://www.w3.org/1999/xlink" contentScriptType="application/ecmascript" contentStyleType="text/css" height="192px" preserveAspectRatio="none" style="width:208px;height:192px;" version="1.1" viewBox="0 0 208 192" width="208px" zoomAndPan="magnify"><defs><filter height="300%" id="f42wmuzilb31l" width="300%" x="-1" y="-1"><feGaussianBlur result="blurOut" stdDeviation="2.0"/><feColorMatrix in="blurOut" result="blurOut2" type="matrix" values="0 0 0 0 0 0 0 0 0 0 0 0 0 0 0 0 0 0 .4 0"/><feOffset dx="4.0" dy="4.0" in="blurOut2" result="blurOut3"/><feBlend in="SourceGraphic" in2="blurOut3" mode="normal"/></filter></defs><g><!--cluster com.bitplan.rc.roi--><polygon fill="#FFFFFF" filter="url(#f42wmuzilb31l)" points="14,16,143,16,150,38.4883,184,38.4883,184,151,14,151,14,16" style="stroke: #000000; stroke-width: 1.5;"/><line style="stroke: #000000; stroke-width: 1.5;" x1="14" x2="150" y1="38.4883" y2="38.4883"/><text fill="#000000" font-family="sans-serif" font-size="14" font-weight="bold" lengthAdjust="spacingAndGlyphs" textLength="123" x="18" y="31.5352">com.bitplan.rc.roi</text><!--class com.bitplan.rc.roi.TestROI--><a href="TestROI.html" target="_top" xlink:actuate="onRequest" xlink:show="new" xlink:title="TestROI.html" xlink:type="simple"><rect fill="#FEFECE" filter="url(#f42wmuzilb31l)" height="99.8203" id="com.bitplan.rc.roi.TestROI" style="stroke: #A80036; stroke-width: 1.5;" width="154" x="22" y="43"/><ellipse cx="72.25" cy="59" fill="#ADD1B2" rx="11" ry="11" style="stroke: #A80036; stroke-width: 1.0;"/><path d="M75.2231,64.6431 Q74.6421,64.9419 74.0029,65.0913 Q73.3638,65.2407 72.6582,65.2407 Q70.1514,65.2407 68.8315,63.5889 Q67.5117,61.937 67.5117,58.8159 Q67.5117,55.6865 68.8315,54.0347 Q70.1514,52.3828 72.6582,52.3828 Q73.3638,52.3828 74.0112,52.5322 Q74.6587,52.6816 75.2231,52.9805 L75.2231,55.7031 Q74.5923,55.1221 73.9988,54.8523 Q73.4053,54.5825 72.7744,54.5825 Q71.4297,54.5825 70.7449,55.6492 Q70.0601,56.7158 70.0601,58.8159 Q70.0601,60.9077 70.7449,61.9744 Q71.4297,63.041 72.7744,63.041 Q73.4053,63.041 73.9988,62.7712 Q74.5923,62.5015 75.2231,61.9204 Z "/><text fill="#000000" font-family="sans-serif" font-size="12" lengthAdjust="spacingAndGlyphs" textLength="45" x="92.75" y="63.5352">TestROI</text><line style="stroke: #A80036; stroke-width: 1.5;" x1="23" x2="175" y1="75" y2="75"/><ellipse cx="33" cy="86.9775" fill="none" rx="3" ry="3" style="stroke: #038048; stroke-width: 1.0;"/><text fill="#000000" font-family="sans-serif" font-size="11" lengthAdjust="spacingAndGlyphs" text-decoration="underline" textLength="83" x="42" y="89.6348">debug: boolean</text><line style="stroke: #A80036; stroke-width: 1.5;" x1="23" x2="175" y1="95.9551" y2="95.9551"/><ellipse cx="33" cy="107.9326" fill="#84BE84" rx="3" ry="3" style="stroke: #038048; stroke-width: 1.0;"/><text fill="#000000" font-family="sans-serif" font-size="11" lengthAdjust="spacingAndGlyphs" textLength="99" x="42" y="110.5898">isTravis(): boolean</text><ellipse cx="33" cy="120.8877" fill="#84BE84" rx="3" ry="3" style="stroke: #038048; stroke-width: 1.0;"/><text fill="#000000" font-family="sans-serif" font-size="11" lengthAdjust="spacingAndGlyphs" textLength="128" x="42" y="123.5449">testNativeLibrary(): void</text><ellipse cx="33" cy="133.8428" fill="#84BE84" rx="3" ry="3" style="stroke: #038048; stroke-width: 1.0;"/><text fill="#000000" font-family="sans-serif" font-size="11" lengthAdjust="spacingAndGlyphs" textLength="76" x="42" y="136.5">testROI(): void</text></a><text fill="#888888" font-family="sans-serif" font-size="10" lengthAdjust="spacingAndGlyphs" textLength="182" x="14" y="178.668">UMLDoclet 1.1.4, PlantUML 1.2019.05</text><!--
@startuml

    namespace com.bitplan.rc.roi {

        class TestROI [[TestROI.html]] {
            {static} +debug: boolean
            +isTravis(): boolean
            +testNativeLibrary(): void
            +testROI(): void
        }

    }


    center footer UMLDoclet 1.1.4, PlantUML 1.2019.05
@enduml

PlantUML version 1.2019.05(Sat Apr 20 18:45:36 CEST 2019)
(APACHE source distribution)
Java Runtime: Java(TM) SE Runtime Environment
JVM: Java HotSpot(TM) 64-Bit Server VM
Java Version: 1.8.0_191-b12
Operating System: Mac OS X
OS Version: 10.13.6
Default Encoding: UTF-8
Language: de
Country: DE
--></g></svg>