<?xml version="1.0" encoding="UTF-8" standalone="no"?><svg xmlns="http://www.w3.org/2000/svg" xmlns:xlink="http://www.w3.org/1999/xlink" contentScriptType="application/ecmascript" contentStyleType="text/css" height="615px" preserveAspectRatio="none" style="width:1992px;height:615px;" version="1.1" viewBox="0 0 1992 615" width="1992px" zoomAndPan="magnify"><defs><filter height="300%" id="f5cuon2sygba1" width="300%" x="-1" y="-1"><feGaussianBlur result="blurOut" stdDeviation="2.0"/><feColorMatrix in="blurOut" result="blurOut2" type="matrix" values="0 0 0 0 0 0 0 0 0 0 0 0 0 0 0 0 0 0 .4 0"/><feOffset dx="4.0" dy="4.0" in="blurOut2" result="blurOut3"/><feBlend in="SourceGraphic" in2="blurOut3" mode="normal"/></filter></defs><g><!--cluster org.rcdukes.imageview--><polygon fill="#FFFFFF" filter="url(#f5cuon2sygba1)" points="14,137,183,137,190,159.4883,1970,159.4883,1970,574,14,574,14,137" style="stroke: #000000; stroke-width: 1.5;"/><line style="stroke: #000000; stroke-width: 1.5;" x1="14" x2="190" y1="159.4883" y2="159.4883"/><text fill="#000000" font-family="sans-serif" font-size="14" font-weight="bold" lengthAdjust="spacingAndGlyphs" textLength="163" x="18" y="152.5352">org.rcdukes.imageview</text><!--cluster org.rcdukes.common--><polygon fill="#FFFFFF" filter="url(#f5cuon2sygba1)" points="595,22.5,749,22.5,756,44.9883,759,44.9883,759,105.5,595,105.5,595,22.5" style="stroke: #000000; stroke-width: 1.5;"/><line style="stroke: #000000; stroke-width: 1.5;" x1="595" x2="756" y1="44.9883" y2="44.9883"/><text fill="#000000" font-family="sans-serif" font-size="14" font-weight="bold" lengthAdjust="spacingAndGlyphs" textLength="148" x="599" y="38.0352">org.rcdukes.common</text><!--cluster rx--><polygon fill="#FFFFFF" filter="url(#f5cuon2sygba1)" points="944,22.5,964,22.5,971,44.9883,1066,44.9883,1066,105.5,944,105.5,944,22.5" style="stroke: #000000; stroke-width: 1.5;"/><line style="stroke: #000000; stroke-width: 1.5;" x1="944" x2="971" y1="44.9883" y2="44.9883"/><text fill="#000000" font-family="sans-serif" font-size="14" font-weight="bold" lengthAdjust="spacingAndGlyphs" textLength="14" x="948" y="38.0352">rx</text><!--cluster java.lang--><polygon fill="#FFFFFF" filter="url(#f5cuon2sygba1)" points="1329,16,1398,16,1405,38.4883,1431,38.4883,1431,112,1329,112,1329,16" style="stroke: #000000; stroke-width: 1.5;"/><line style="stroke: #000000; stroke-width: 1.5;" x1="1329" x2="1405" y1="38.4883" y2="38.4883"/><text fill="#000000" font-family="sans-serif" font-size="14" font-weight="bold" lengthAdjust="spacingAndGlyphs" textLength="63" x="1333" y="31.5352">java.lang</text><!--class org.rcdukes.imageview.TestDebugImageServer--><a href="TestDebugImageServer.html" target="_top" xlink:actuate="onRequest" xlink:show="new" xlink:title="TestDebugImageServer.html" xlink:type="simple"><rect fill="#FEFECE" filter="url(#f5cuon2sygba1)" height="112.7754" id="org.rcdukes.imageview.TestDebugImageServer" style="stroke: #A80036; stroke-width: 1.5;" width="209" x="1689.5" y="453"/><ellipse cx="1723.85" cy="469" fill="#ADD1B2" rx="11" ry="11" style="stroke: #A80036; stroke-width: 1.0;"/><path d="M1726.8231,474.6431 Q1726.2421,474.9419 1725.6029,475.0913 Q1724.9638,475.2407 1724.2582,475.2407 Q1721.7514,475.2407 1720.4315,473.5889 Q1719.1117,471.937 1719.1117,468.8159 Q1719.1117,465.6865 1720.4315,464.0347 Q1721.7514,462.3828 1724.2582,462.3828 Q1724.9638,462.3828 1725.6112,462.5322 Q1726.2587,462.6816 1726.8231,462.9805 L1726.8231,465.7031 Q1726.1923,465.1221 1725.5988,464.8523 Q1725.0053,464.5825 1724.3744,464.5825 Q1723.0297,464.5825 1722.3449,465.6492 Q1721.6601,466.7158 1721.6601,468.8159 Q1721.6601,470.9077 1722.3449,471.9744 Q1723.0297,473.041 1724.3744,473.041 Q1725.0053,473.041 1725.5988,472.7712 Q1726.1923,472.5015 1726.8231,471.9204 Z "/><text fill="#000000" font-family="sans-serif" font-size="12" lengthAdjust="spacingAndGlyphs" textLength="134" x="1742.15" y="473.5352">TestDebugImageServer</text><line style="stroke: #A80036; stroke-width: 1.5;" x1="1690.5" x2="1897.5" y1="485" y2="485"/><line style="stroke: #A80036; stroke-width: 1.5;" x1="1690.5" x2="1897.5" y1="493" y2="493"/><ellipse cx="1700.5" cy="504.9775" fill="#84BE84" rx="3" ry="3" style="stroke: #038048; stroke-width: 1.0;"/><text fill="#000000" font-family="sans-serif" font-size="11" lengthAdjust="spacingAndGlyphs" textLength="128" x="1709.5" y="507.6348">startImageServer(): void</text><ellipse cx="1700.5" cy="517.9326" fill="#84BE84" rx="3" ry="3" style="stroke: #038048; stroke-width: 1.0;"/><text fill="#000000" font-family="sans-serif" font-size="11" lengthAdjust="spacingAndGlyphs" textLength="183" x="1709.5" y="520.5898">testDebugImageServerStart(): void</text><ellipse cx="1700.5" cy="530.8877" fill="#84BE84" rx="3" ry="3" style="stroke: #038048; stroke-width: 1.0;"/><text fill="#000000" font-family="sans-serif" font-size="11" lengthAdjust="spacingAndGlyphs" textLength="112" x="1709.5" y="533.5449">testTestImage(): void</text><ellipse cx="1700.5" cy="543.8428" fill="#84BE84" rx="3" ry="3" style="stroke: #038048; stroke-width: 1.0;"/><text fill="#000000" font-family="sans-serif" font-size="11" lengthAdjust="spacingAndGlyphs" textLength="126" x="1709.5" y="546.5">testMJpegStream(): void</text><ellipse cx="1700.5" cy="556.7979" fill="#84BE84" rx="3" ry="3" style="stroke: #038048; stroke-width: 1.0;"/><text fill="#000000" font-family="sans-serif" font-size="11" lengthAdjust="spacingAndGlyphs" textLength="101" x="1709.5" y="559.4551">testOpenCV(): void</text></a><!--class org.rcdukes.imageview.TestSuite--><a href="TestSuite.html" target="_top" xlink:actuate="onRequest" xlink:show="new" xlink:title="TestSuite.html" xlink:type="simple"><rect fill="#FEFECE" filter="url(#f5cuon2sygba1)" height="60.9551" id="org.rcdukes.imageview.TestSuite" style="stroke: #A80036; stroke-width: 1.5;" width="125" x="1836.5" y="248"/><ellipse cx="1869.95" cy="264" fill="#ADD1B2" rx="11" ry="11" style="stroke: #A80036; stroke-width: 1.0;"/><path d="M1872.9231,269.6431 Q1872.3421,269.9419 1871.7029,270.0913 Q1871.0638,270.2407 1870.3582,270.2407 Q1867.8514,270.2407 1866.5315,268.5889 Q1865.2117,266.937 1865.2117,263.8159 Q1865.2117,260.6865 1866.5315,259.0347 Q1867.8514,257.3828 1870.3582,257.3828 Q1871.0638,257.3828 1871.7112,257.5322 Q1872.3587,257.6816 1872.9231,257.9805 L1872.9231,260.7031 Q1872.2923,260.1221 1871.6988,259.8523 Q1871.1053,259.5825 1870.4744,259.5825 Q1869.1297,259.5825 1868.4449,260.6492 Q1867.7601,261.7158 1867.7601,263.8159 Q1867.7601,265.9077 1868.4449,266.9744 Q1869.1297,268.041 1870.4744,268.041 Q1871.1053,268.041 1871.6988,267.7712 Q1872.2923,267.5015 1872.9231,266.9204 Z "/><text fill="#000000" font-family="sans-serif" font-size="12" lengthAdjust="spacingAndGlyphs" textLength="52" x="1888.05" y="268.5352">TestSuite</text><line style="stroke: #A80036; stroke-width: 1.5;" x1="1837.5" x2="1960.5" y1="280" y2="280"/><line style="stroke: #A80036; stroke-width: 1.5;" x1="1837.5" x2="1960.5" y1="288" y2="288"/><ellipse cx="1847.5" cy="299.9775" fill="#84BE84" rx="3" ry="3" style="stroke: #038048; stroke-width: 1.0;"/><text fill="#000000" font-family="sans-serif" font-size="11" lengthAdjust="spacingAndGlyphs" text-decoration="underline" textLength="99" x="1856.5" y="302.6348">isTravis(): boolean</text></a><!--class org.rcdukes.imageview.OpenCVBasedTest--><a href="OpenCVBasedTest.html" target="_top" xlink:actuate="onRequest" xlink:show="new" xlink:title="OpenCVBasedTest.html" xlink:type="simple"><rect fill="#FEFECE" filter="url(#f5cuon2sygba1)" height="60.9551" id="org.rcdukes.imageview.OpenCVBasedTest" style="stroke: #A80036; stroke-width: 1.5;" width="139" x="1662.5" y="248"/><ellipse cx="1677.5" cy="264" fill="#ADD1B2" rx="11" ry="11" style="stroke: #A80036; stroke-width: 1.0;"/><path d="M1680.4731,269.6431 Q1679.8921,269.9419 1679.2529,270.0913 Q1678.6138,270.2407 1677.9082,270.2407 Q1675.4014,270.2407 1674.0815,268.5889 Q1672.7617,266.937 1672.7617,263.8159 Q1672.7617,260.6865 1674.0815,259.0347 Q1675.4014,257.3828 1677.9082,257.3828 Q1678.6138,257.3828 1679.2612,257.5322 Q1679.9087,257.6816 1680.4731,257.9805 L1680.4731,260.7031 Q1679.8423,260.1221 1679.2488,259.8523 Q1678.6553,259.5825 1678.0244,259.5825 Q1676.6797,259.5825 1675.9949,260.6492 Q1675.3101,261.7158 1675.3101,263.8159 Q1675.3101,265.9077 1675.9949,266.9744 Q1676.6797,268.041 1678.0244,268.041 Q1678.6553,268.041 1679.2488,267.7712 Q1679.8423,267.5015 1680.4731,266.9204 Z "/><text fill="#000000" font-family="sans-serif" font-size="12" lengthAdjust="spacingAndGlyphs" textLength="107" x="1691.5" y="268.5352">OpenCVBasedTest</text><line style="stroke: #A80036; stroke-width: 1.5;" x1="1663.5" x2="1800.5" y1="280" y2="280"/><line style="stroke: #A80036; stroke-width: 1.5;" x1="1663.5" x2="1800.5" y1="288" y2="288"/><ellipse cx="1673.5" cy="299.9775" fill="#84BE84" rx="3" ry="3" style="stroke: #038048; stroke-width: 1.0;"/><text fill="#000000" font-family="sans-serif" font-size="11" lengthAdjust="spacingAndGlyphs" text-decoration="underline" textLength="67" x="1682.5" y="302.6348">setup(): void</text></a><!--class org.rcdukes.imageview.TestVideoRecorder--><a href="TestVideoRecorder.html" target="_top" xlink:actuate="onRequest" xlink:show="new" xlink:title="TestVideoRecorder.html" xlink:type="simple"><rect fill="#FEFECE" filter="url(#f5cuon2sygba1)" height="99.8203" id="org.rcdukes.imageview.TestVideoRecorder" style="stroke: #A80036; stroke-width: 1.5;" width="216" x="1438" y="459.5"/><ellipse cx="1486.25" cy="475.5" fill="#ADD1B2" rx="11" ry="11" style="stroke: #A80036; stroke-width: 1.0;"/><path d="M1489.2231,481.1431 Q1488.6421,481.4419 1488.0029,481.5913 Q1487.3638,481.7407 1486.6582,481.7407 Q1484.1514,481.7407 1482.8315,480.0889 Q1481.5117,478.437 1481.5117,475.3159 Q1481.5117,472.1865 1482.8315,470.5347 Q1484.1514,468.8828 1486.6582,468.8828 Q1487.3638,468.8828 1488.0112,469.0322 Q1488.6587,469.1816 1489.2231,469.4805 L1489.2231,472.2031 Q1488.5923,471.6221 1487.9988,471.3523 Q1487.4053,471.0825 1486.7744,471.0825 Q1485.4297,471.0825 1484.7449,472.1492 Q1484.0601,473.2158 1484.0601,475.3159 Q1484.0601,477.4077 1484.7449,478.4744 Q1485.4297,479.541 1486.7744,479.541 Q1487.4053,479.541 1487.9988,479.2712 Q1488.5923,479.0015 1489.2231,478.4204 Z "/><text fill="#000000" font-family="sans-serif" font-size="12" lengthAdjust="spacingAndGlyphs" textLength="111" x="1506.75" y="480.0352">TestVideoRecorder</text><line style="stroke: #A80036; stroke-width: 1.5;" x1="1439" x2="1653" y1="491.5" y2="491.5"/><ellipse cx="1449" cy="503.4775" fill="none" rx="3" ry="3" style="stroke: #038048; stroke-width: 1.0;"/><text fill="#000000" font-family="sans-serif" font-size="11" lengthAdjust="spacingAndGlyphs" text-decoration="underline" textLength="83" x="1458" y="506.1348">debug: boolean</text><line style="stroke: #A80036; stroke-width: 1.5;" x1="1439" x2="1653" y1="512.4551" y2="512.4551"/><ellipse cx="1449" cy="524.4326" fill="#84BE84" rx="3" ry="3" style="stroke: #038048; stroke-width: 1.0;"/><text fill="#000000" font-family="sans-serif" font-size="11" lengthAdjust="spacingAndGlyphs" textLength="136" x="1458" y="527.0898">testVideoRecorder(): void</text><ellipse cx="1449" cy="537.3877" fill="#84BE84" rx="3" ry="3" style="stroke: #038048; stroke-width: 1.0;"/><text fill="#000000" font-family="sans-serif" font-size="11" lengthAdjust="spacingAndGlyphs" textLength="142" x="1458" y="540.0449">testVideoRecorders(): void</text><ellipse cx="1449" cy="550.3428" fill="#84BE84" rx="3" ry="3" style="stroke: #038048; stroke-width: 1.0;"/><text fill="#000000" font-family="sans-serif" font-size="11" lengthAdjust="spacingAndGlyphs" textLength="190" x="1458" y="553">testVideoInfoGraphDatabase(): void</text></a><!--class org.rcdukes.imageview.DebugImageServer--><a href="DebugImageServer.html" target="_top" xlink:actuate="onRequest" xlink:show="new" xlink:title="DebugImageServer.html" xlink:type="simple"><rect fill="#FEFECE" filter="url(#f5cuon2sygba1)" height="229.3711" id="org.rcdukes.imageview.DebugImageServer" style="stroke: #A80036; stroke-width: 1.5;" width="401" x="476.5" y="164"/><ellipse cx="618.25" cy="180" fill="#ADD1B2" rx="11" ry="11" style="stroke: #A80036; stroke-width: 1.0;"/><path d="M621.2231,185.6431 Q620.6421,185.9419 620.0029,186.0913 Q619.3638,186.2407 618.6582,186.2407 Q616.1514,186.2407 614.8315,184.5889 Q613.5117,182.937 613.5117,179.8159 Q613.5117,176.6865 614.8315,175.0347 Q616.1514,173.3828 618.6582,173.3828 Q619.3638,173.3828 620.0112,173.5322 Q620.6587,173.6816 621.2231,173.9805 L621.2231,176.7031 Q620.5923,176.1221 619.9988,175.8523 Q619.4053,175.5825 618.7744,175.5825 Q617.4297,175.5825 616.7449,176.6492 Q616.0601,177.7158 616.0601,179.8159 Q616.0601,181.9077 616.7449,182.9744 Q617.4297,184.041 618.7744,184.041 Q619.4053,184.041 619.9988,183.7712 Q620.5923,183.5015 621.2231,182.9204 Z "/><text fill="#000000" font-family="sans-serif" font-size="12" lengthAdjust="spacingAndGlyphs" textLength="109" x="638.75" y="184.5352">DebugImageServer</text><line style="stroke: #A80036; stroke-width: 1.5;" x1="477.5" x2="876.5" y1="196" y2="196"/><ellipse cx="487.5" cy="207.9775" fill="none" rx="3" ry="3" style="stroke: #038048; stroke-width: 1.0;"/><text fill="#000000" font-family="sans-serif" font-size="11" lengthAdjust="spacingAndGlyphs" text-decoration="underline" textLength="159" x="496.5" y="210.6348">SERVE_TEST_IMAGES: boolean</text><ellipse cx="487.5" cy="220.9326" fill="none" rx="3" ry="3" style="stroke: #038048; stroke-width: 1.0;"/><text fill="#000000" font-family="sans-serif" font-size="11" lengthAdjust="spacingAndGlyphs" text-decoration="underline" textLength="250" x="496.5" y="223.5898">imageFormat: DebugImageServer.ImageFormat</text><ellipse cx="487.5" cy="233.8877" fill="none" rx="3" ry="3" style="stroke: #038048; stroke-width: 1.0;"/><text fill="#000000" font-family="sans-serif" font-size="11" lengthAdjust="spacingAndGlyphs" text-decoration="underline" textLength="69" x="496.5" y="236.5449">exts: String[]</text><ellipse cx="487.5" cy="246.8428" fill="none" rx="3" ry="3" style="stroke: #038048; stroke-width: 1.0;"/><text fill="#000000" font-family="sans-serif" font-size="11" lengthAdjust="spacingAndGlyphs" text-decoration="underline" textLength="119" x="496.5" y="249.5">contentTypes: String[]</text><ellipse cx="487.5" cy="259.7979" fill="none" rx="3" ry="3" style="stroke: #038048; stroke-width: 1.0;"/><text fill="#000000" font-family="sans-serif" font-size="11" lengthAdjust="spacingAndGlyphs" text-decoration="underline" textLength="60" x="496.5" y="262.4551">fps: double</text><polygon fill="none" points="487.5,267.7529,491.5,271.7529,487.5,275.7529,483.5,271.7529" style="stroke: #B38D22; stroke-width: 1.0;"/><text fill="#000000" font-family="sans-serif" font-size="11" lengthAdjust="spacingAndGlyphs" textLength="97" x="496.5" y="275.4102">server: HttpServer</text><line style="stroke: #A80036; stroke-width: 1.5;" x1="477.5" x2="876.5" y1="281.7305" y2="281.7305"/><ellipse cx="487.5" cy="293.708" fill="#84BE84" rx="3" ry="3" style="stroke: #038048; stroke-width: 1.0;"/><text fill="#000000" font-family="sans-serif" font-size="11" lengthAdjust="spacingAndGlyphs" textLength="139" x="496.5" y="296.3652">start(Future&lt;Void&gt;): void</text><polygon fill="#FFFF44" points="487.5,301.6631,491.5,305.6631,487.5,309.6631,483.5,305.6631" style="stroke: #B38D22; stroke-width: 1.0;"/><text fill="#000000" font-family="sans-serif" font-size="11" lengthAdjust="spacingAndGlyphs" textLength="254" x="496.5" y="309.3203">receiveSimulatorImage(Message&lt;String&gt;): void</text><ellipse cx="487.5" cy="319.6182" fill="#84BE84" rx="3" ry="3" style="stroke: #038048; stroke-width: 1.0;"/><text fill="#000000" font-family="sans-serif" font-size="11" lengthAdjust="spacingAndGlyphs" textLength="262" x="496.5" y="322.2754">getNextImage(ImageCollector.ImageType): Image</text><polygon fill="#FFFF44" points="487.5,327.5732,491.5,331.5732,487.5,335.5732,483.5,331.5732" style="stroke: #B38D22; stroke-width: 1.0;"/><text fill="#000000" font-family="sans-serif" font-size="11" lengthAdjust="spacingAndGlyphs" textLength="99" x="496.5" y="335.2305">shootPhoto(): void</text><ellipse cx="487.5" cy="345.5283" fill="#84BE84" rx="3" ry="3" style="stroke: #038048; stroke-width: 1.0;"/><text fill="#000000" font-family="sans-serif" font-size="11" lengthAdjust="spacingAndGlyphs" textLength="195" x="496.5" y="348.1855">sendImage(HttpServerRequest): void</text><ellipse cx="487.5" cy="358.4834" fill="#84BE84" rx="3" ry="3" style="stroke: #038048; stroke-width: 1.0;"/><text fill="#000000" font-family="sans-serif" font-size="11" lengthAdjust="spacingAndGlyphs" textLength="375" x="496.5" y="361.1406">sendSingleImage(HttpServerRequest, ImageCollector.ImageType): void</text><ellipse cx="487.5" cy="371.4385" fill="#84BE84" rx="3" ry="3" style="stroke: #038048; stroke-width: 1.0;"/><text fill="#000000" font-family="sans-serif" font-size="11" lengthAdjust="spacingAndGlyphs" textLength="260" x="496.5" y="374.0957">sendImageBytes(HttpServerRequest, byte[]): void</text><ellipse cx="487.5" cy="384.3936" fill="#84BE84" rx="3" ry="3" style="stroke: #038048; stroke-width: 1.0;"/><text fill="#000000" font-family="sans-serif" font-size="11" lengthAdjust="spacingAndGlyphs" textLength="273" x="496.5" y="387.0508">recordFrame(Mat, ImageCollector.ImageType): void</text></a><!--class org.rcdukes.imageview.DebugImageServer.ImageFormat--><a href="DebugImageServer.ImageFormat.html" target="_top" xlink:actuate="onRequest" xlink:show="new" xlink:title="DebugImageServer.ImageFormat.html" xlink:type="simple"><rect fill="#FEFECE" filter="url(#f5cuon2sygba1)" height="73.9102" id="org.rcdukes.imageview.DebugImageServer.ImageFormat" style="stroke: #A80036; stroke-width: 1.5;" width="220" x="567" y="472.5"/><ellipse cx="582" cy="488.5" fill="#EB937F" rx="11" ry="11" style="stroke: #A80036; stroke-width: 1.0;"/><path d="M586.1143,494.5 L578.3945,494.5 L578.3945,482.1069 L586.1143,482.1069 L586.1143,484.2651 L580.8433,484.2651 L580.8433,486.938 L585.6162,486.938 L585.6162,489.0962 L580.8433,489.0962 L580.8433,492.3418 L586.1143,492.3418 Z "/><text fill="#000000" font-family="sans-serif" font-size="12" lengthAdjust="spacingAndGlyphs" textLength="188" x="596" y="493.0352">DebugImageServer.ImageFormat</text><line style="stroke: #A80036; stroke-width: 1.5;" x1="568" x2="786" y1="504.5" y2="504.5"/><ellipse cx="578" cy="516.4775" fill="none" rx="3" ry="3" style="stroke: #038048; stroke-width: 1.0;"/><text fill="#000000" font-family="sans-serif" font-size="11" lengthAdjust="spacingAndGlyphs" text-decoration="underline" textLength="21" x="587" y="519.1348">png</text><ellipse cx="578" cy="529.4326" fill="none" rx="3" ry="3" style="stroke: #038048; stroke-width: 1.0;"/><text fill="#000000" font-family="sans-serif" font-size="11" lengthAdjust="spacingAndGlyphs" text-decoration="underline" textLength="17" x="587" y="532.0898">jpg</text><line style="stroke: #A80036; stroke-width: 1.5;" x1="568" x2="786" y1="538.4102" y2="538.4102"/></a><!--class org.rcdukes.imageview.MJpegDecoder--><a href="MJpegDecoder.html" target="_top" xlink:actuate="onRequest" xlink:show="new" xlink:title="MJpegDecoder.html" xlink:type="simple"><rect fill="#FEFECE" filter="url(#f5cuon2sygba1)" height="164.5957" id="org.rcdukes.imageview.MJpegDecoder" style="stroke: #A80036; stroke-width: 1.5;" width="185" x="912.5" y="196"/><ellipse cx="958.25" cy="212" fill="#ADD1B2" rx="11" ry="11" style="stroke: #A80036; stroke-width: 1.0;"/><path d="M961.2231,217.6431 Q960.6421,217.9419 960.0029,218.0913 Q959.3638,218.2407 958.6582,218.2407 Q956.1514,218.2407 954.8315,216.5889 Q953.5117,214.937 953.5117,211.8159 Q953.5117,208.6865 954.8315,207.0347 Q956.1514,205.3828 958.6582,205.3828 Q959.3638,205.3828 960.0112,205.5322 Q960.6587,205.6816 961.2231,205.9805 L961.2231,208.7031 Q960.5923,208.1221 959.9988,207.8523 Q959.4053,207.5825 958.7744,207.5825 Q957.4297,207.5825 956.7449,208.6492 Q956.0601,209.7158 956.0601,211.8159 Q956.0601,213.9077 956.7449,214.9744 Q957.4297,216.041 958.7744,216.041 Q959.4053,216.041 959.9988,215.7712 Q960.5923,215.5015 961.2231,214.9204 Z "/><text fill="#000000" font-family="sans-serif" font-size="12" lengthAdjust="spacingAndGlyphs" textLength="85" x="978.75" y="216.5352">MJpegDecoder</text><line style="stroke: #A80036; stroke-width: 1.5;" x1="913.5" x2="1096.5" y1="228" y2="228"/><polygon fill="none" points="923.5,234.9775,927.5,238.9775,923.5,242.9775,919.5,238.9775" style="stroke: #B38D22; stroke-width: 1.0;"/><text fill="#000000" font-family="sans-serif" font-size="11" lengthAdjust="spacingAndGlyphs" text-decoration="underline" textLength="67" x="932.5" y="242.6348">LOG: Logger</text><ellipse cx="923.5" cy="252.9326" fill="none" rx="3" ry="3" style="stroke: #038048; stroke-width: 1.0;"/><text fill="#000000" font-family="sans-serif" font-size="11" lengthAdjust="spacingAndGlyphs" text-decoration="underline" textLength="83" x="932.5" y="255.5898">debug: boolean</text><line style="stroke: #A80036; stroke-width: 1.5;" x1="913.5" x2="1096.5" y1="261.9102" y2="261.9102"/><ellipse cx="923.5" cy="273.8877" fill="#84BE84" rx="3" ry="3" style="stroke: #038048; stroke-width: 1.0;"/><text fill="#000000" font-family="sans-serif" font-size="11" lengthAdjust="spacingAndGlyphs" textLength="159" x="932.5" y="276.5449">MJpegDecoder(MJpegHandler)</text><ellipse cx="923.5" cy="286.8428" fill="#84BE84" rx="3" ry="3" style="stroke: #038048; stroke-width: 1.0;"/><text fill="#000000" font-family="sans-serif" font-size="11" lengthAdjust="spacingAndGlyphs" textLength="109" x="932.5" y="289.5">onCompleted(): void</text><ellipse cx="923.5" cy="299.7979" fill="#84BE84" rx="3" ry="3" style="stroke: #038048; stroke-width: 1.0;"/><text fill="#000000" font-family="sans-serif" font-size="11" lengthAdjust="spacingAndGlyphs" textLength="135" x="932.5" y="302.4551">onError(Throwable): void</text><ellipse cx="923.5" cy="312.7529" fill="#84BE84" rx="3" ry="3" style="stroke: #038048; stroke-width: 1.0;"/><text fill="#000000" font-family="sans-serif" font-size="11" lengthAdjust="spacingAndGlyphs" textLength="107" x="932.5" y="315.4102">onNext(byte[]): void</text><ellipse cx="923.5" cy="325.708" fill="#84BE84" rx="3" ry="3" style="stroke: #038048; stroke-width: 1.0;"/><text fill="#000000" font-family="sans-serif" font-size="11" lengthAdjust="spacingAndGlyphs" textLength="78" x="932.5" y="328.3652">open(int): void</text><ellipse cx="923.5" cy="338.6631" fill="#84BE84" rx="3" ry="3" style="stroke: #038048; stroke-width: 1.0;"/><text fill="#000000" font-family="sans-serif" font-size="11" lengthAdjust="spacingAndGlyphs" textLength="65" x="932.5" y="341.3203">close(): void</text><ellipse cx="923.5" cy="351.6182" fill="#84BE84" rx="3" ry="3" style="stroke: #038048; stroke-width: 1.0;"/><text fill="#000000" font-family="sans-serif" font-size="11" lengthAdjust="spacingAndGlyphs" textLength="111" x="932.5" y="354.2754">onNext(Object): void</text></a><!--class org.rcdukes.imageview.MultipartStreamer--><a href="MultipartStreamer.html" target="_top" xlink:actuate="onRequest" xlink:show="new" xlink:title="MultipartStreamer.html" xlink:type="simple"><rect fill="#FEFECE" filter="url(#f5cuon2sygba1)" height="112.7754" id="org.rcdukes.imageview.MultipartStreamer" style="stroke: #A80036; stroke-width: 1.5;" width="494" x="1133" y="222"/><ellipse cx="1324.25" cy="238" fill="#ADD1B2" rx="11" ry="11" style="stroke: #A80036; stroke-width: 1.0;"/><path d="M1327.2231,243.6431 Q1326.6421,243.9419 1326.0029,244.0913 Q1325.3638,244.2407 1324.6582,244.2407 Q1322.1514,244.2407 1320.8315,242.5889 Q1319.5117,240.937 1319.5117,237.8159 Q1319.5117,234.6865 1320.8315,233.0347 Q1322.1514,231.3828 1324.6582,231.3828 Q1325.3638,231.3828 1326.0112,231.5322 Q1326.6587,231.6816 1327.2231,231.9805 L1327.2231,234.7031 Q1326.5923,234.1221 1325.9988,233.8523 Q1325.4053,233.5825 1324.7744,233.5825 Q1323.4297,233.5825 1322.7449,234.6492 Q1322.0601,235.7158 1322.0601,237.8159 Q1322.0601,239.9077 1322.7449,240.9744 Q1323.4297,242.041 1324.7744,242.041 Q1325.4053,242.041 1325.9988,241.7712 Q1326.5923,241.5015 1327.2231,240.9204 Z "/><text fill="#000000" font-family="sans-serif" font-size="12" lengthAdjust="spacingAndGlyphs" textLength="103" x="1344.75" y="242.5352">MultipartStreamer</text><line style="stroke: #A80036; stroke-width: 1.5;" x1="1134" x2="1626" y1="254" y2="254"/><line style="stroke: #A80036; stroke-width: 1.5;" x1="1134" x2="1626" y1="262" y2="262"/><ellipse cx="1144" cy="273.9775" fill="#84BE84" rx="3" ry="3" style="stroke: #038048; stroke-width: 1.0;"/><text fill="#000000" font-family="sans-serif" font-size="11" lengthAdjust="spacingAndGlyphs" textLength="468" x="1153" y="276.6348">MultipartStreamer(DebugImageServer, HttpServerResponse, ImageCollector.ImageType)</text><ellipse cx="1144" cy="286.9326" fill="#84BE84" rx="3" ry="3" style="stroke: #038048; stroke-width: 1.0;"/><text fill="#000000" font-family="sans-serif" font-size="11" lengthAdjust="spacingAndGlyphs" textLength="131" x="1153" y="289.5898">streamNextImage(): void</text><ellipse cx="1144" cy="299.8877" fill="#84BE84" rx="3" ry="3" style="stroke: #038048; stroke-width: 1.0;"/><text fill="#000000" font-family="sans-serif" font-size="11" lengthAdjust="spacingAndGlyphs" textLength="175" x="1153" y="302.5449">writeMultiPartFrame(Buffer): void</text><ellipse cx="1144" cy="312.8428" fill="#84BE84" rx="3" ry="3" style="stroke: #038048; stroke-width: 1.0;"/><text fill="#000000" font-family="sans-serif" font-size="11" lengthAdjust="spacingAndGlyphs" textLength="87" x="1153" y="315.5">preamble(): void</text><ellipse cx="1144" cy="325.7979" fill="#84BE84" rx="3" ry="3" style="stroke: #038048; stroke-width: 1.0;"/><text fill="#000000" font-family="sans-serif" font-size="11" lengthAdjust="spacingAndGlyphs" textLength="56" x="1153" y="328.4551">run(): void</text></a><!--class org.rcdukes.imageview.MJpegHandler--><a href="MJpegHandler.html" target="_top" xlink:actuate="onRequest" xlink:show="new" xlink:title="MJpegHandler.html" xlink:type="simple"><rect fill="#FEFECE" filter="url(#f5cuon2sygba1)" height="112.7754" id="org.rcdukes.imageview.MJpegHandler" style="stroke: #A80036; stroke-width: 1.5;" width="419" x="22.5" y="222"/><ellipse cx="186.75" cy="238" fill="#ADD1B2" rx="11" ry="11" style="stroke: #A80036; stroke-width: 1.0;"/><path d="M189.7231,243.6431 Q189.1421,243.9419 188.5029,244.0913 Q187.8638,244.2407 187.1582,244.2407 Q184.6514,244.2407 183.3315,242.5889 Q182.0117,240.937 182.0117,237.8159 Q182.0117,234.6865 183.3315,233.0347 Q184.6514,231.3828 187.1582,231.3828 Q187.8638,231.3828 188.5112,231.5322 Q189.1587,231.6816 189.7231,231.9805 L189.7231,234.7031 Q189.0923,234.1221 188.4988,233.8523 Q187.9053,233.5825 187.2744,233.5825 Q185.9297,233.5825 185.2449,234.6492 Q184.5601,235.7158 184.5601,237.8159 Q184.5601,239.9077 185.2449,240.9744 Q185.9297,242.041 187.2744,242.041 Q187.9053,242.041 188.4988,241.7712 Q189.0923,241.5015 189.7231,240.9204 Z "/><text fill="#000000" font-family="sans-serif" font-size="12" lengthAdjust="spacingAndGlyphs" textLength="82" x="207.25" y="242.5352">MJpegHandler</text><line style="stroke: #A80036; stroke-width: 1.5;" x1="23.5" x2="440.5" y1="254" y2="254"/><line style="stroke: #A80036; stroke-width: 1.5;" x1="23.5" x2="440.5" y1="262" y2="262"/><ellipse cx="33.5" cy="273.9775" fill="#84BE84" rx="3" ry="3" style="stroke: #038048; stroke-width: 1.0;"/><text fill="#000000" font-family="sans-serif" font-size="11" lengthAdjust="spacingAndGlyphs" textLength="114" x="42.5" y="276.6348">MJpegHandler(String)</text><ellipse cx="33.5" cy="286.9326" fill="#84BE84" rx="3" ry="3" style="stroke: #038048; stroke-width: 1.0;"/><text fill="#000000" font-family="sans-serif" font-size="11" lengthAdjust="spacingAndGlyphs" textLength="82" x="42.5" y="289.5898">MJpegHandler()</text><ellipse cx="33.5" cy="299.8877" fill="#84BE84" rx="3" ry="3" style="stroke: #038048; stroke-width: 1.0;"/><text fill="#000000" font-family="sans-serif" font-size="11" lengthAdjust="spacingAndGlyphs" textLength="393" x="42.5" y="302.5449">getInputStream(): BodyDeferringAsyncHandler.BodyDeferringInputStream</text><ellipse cx="33.5" cy="312.8428" fill="#84BE84" rx="3" ry="3" style="stroke: #038048; stroke-width: 1.0;"/><text fill="#000000" font-family="sans-serif" font-size="11" lengthAdjust="spacingAndGlyphs" textLength="132" x="42.5" y="315.5">open(int): MJpegDecoder</text><ellipse cx="33.5" cy="325.7979" fill="#84BE84" rx="3" ry="3" style="stroke: #038048; stroke-width: 1.0;"/><text fill="#000000" font-family="sans-serif" font-size="11" lengthAdjust="spacingAndGlyphs" textLength="65" x="42.5" y="328.4551">close(): void</text></a><!--class org.rcdukes.common.DukesVerticle--><rect fill="#FEFECE" filter="url(#f5cuon2sygba1)" height="48" id="org.rcdukes.common.DukesVerticle" style="stroke: #A80036; stroke-width: 1.5;" width="111" x="621.5" y="49.5"/><ellipse cx="636.5" cy="65.5" fill="#A9DCDF" rx="11" ry="11" style="stroke: #A80036; stroke-width: 1.0;"/><path d="M636.6133,60.8481 L635.4595,65.9199 L637.7754,65.9199 Z M635.1191,58.6069 L638.1157,58.6069 L641.4609,71 L639.0122,71 L638.2485,67.937 L634.9697,67.937 L634.2227,71 L631.7739,71 Z "/><text fill="#000000" font-family="sans-serif" font-size="12" font-style="italic" lengthAdjust="spacingAndGlyphs" textLength="79" x="650.5" y="70.0352">DukesVerticle</text><line style="stroke: #A80036; stroke-width: 1.5;" x1="622.5" x2="731.5" y1="81.5" y2="81.5"/><line style="stroke: #A80036; stroke-width: 1.5;" x1="622.5" x2="731.5" y1="89.5" y2="89.5"/><!--class rx.Subscriber--><rect fill="#FEFECE" filter="url(#f5cuon2sygba1)" height="48" id="rx.Subscriber" style="stroke: #A80036; stroke-width: 1.5;" width="105" x="952.5" y="49.5"/><ellipse cx="967.5" cy="65.5" fill="#A9DCDF" rx="11" ry="11" style="stroke: #A80036; stroke-width: 1.0;"/><path d="M967.6133,60.8481 L966.4595,65.9199 L968.7754,65.9199 Z M966.1191,58.6069 L969.1157,58.6069 L972.4609,71 L970.0122,71 L969.2485,67.937 L965.9697,67.937 L965.2227,71 L962.7739,71 Z "/><text fill="#000000" font-family="sans-serif" font-size="12" font-style="italic" lengthAdjust="spacingAndGlyphs" textLength="61" x="981.5" y="70.0352">Subscriber</text><rect fill="#FFFFFF" height="16.1328" style="stroke: #000000; stroke-width: 1.0; stroke-dasharray: 2.0,2.0;" width="10" x="1050.5" y="46.5"/><text fill="#000000" font-family="sans-serif" font-size="12" font-style="italic" lengthAdjust="spacingAndGlyphs" textLength="8" x="1051.5" y="59.1016">T</text><line style="stroke: #A80036; stroke-width: 1.5;" x1="953.5" x2="1056.5" y1="81.5" y2="81.5"/><line style="stroke: #A80036; stroke-width: 1.5;" x1="953.5" x2="1056.5" y1="89.5" y2="89.5"/><!--class java.lang.Runnable--><rect fill="#FEFECE" filter="url(#f5cuon2sygba1)" height="60.9551" id="java.lang.Runnable" style="stroke: #A80036; stroke-width: 1.5;" width="86" x="1337" y="43"/><ellipse cx="1352" cy="59" fill="#B4A7E5" rx="11" ry="11" style="stroke: #A80036; stroke-width: 1.0;"/><path d="M1347.9277,54.7651 L1347.9277,52.6069 L1355.3071,52.6069 L1355.3071,54.7651 L1352.8418,54.7651 L1352.8418,62.8418 L1355.3071,62.8418 L1355.3071,65 L1347.9277,65 L1347.9277,62.8418 L1350.3931,62.8418 L1350.3931,54.7651 Z "/><text fill="#000000" font-family="sans-serif" font-size="12" font-style="italic" lengthAdjust="spacingAndGlyphs" textLength="54" x="1366" y="63.5352">Runnable</text><line style="stroke: #A80036; stroke-width: 1.5;" x1="1338" x2="1422" y1="75" y2="75"/><line style="stroke: #A80036; stroke-width: 1.5;" x1="1338" x2="1422" y1="83" y2="83"/><ellipse cx="1348" cy="94.9775" fill="#84BE84" rx="3" ry="3" style="stroke: #038048; stroke-width: 1.0;"/><text fill="#000000" font-family="sans-serif" font-size="11" font-style="italic" lengthAdjust="spacingAndGlyphs" textLength="56" x="1357" y="97.6348">run(): void</text><!--link org.rcdukes.imageview.OpenCVBasedTest to org.rcdukes.imageview.TestDebugImageServer--><path d="M1745.4256,328.5213 C1755.2537,365.1388 1768.6011,414.8686 1778.8176,452.9333 " fill="none" id="org.rcdukes.imageview.OpenCVBasedTest-org.rcdukes.imageview.TestDebugImageServer" style="stroke: #A80036; stroke-width: 1.0;"/><polygon fill="none" points="1738.6569,330.306,1740.2331,309.175,1752.1784,326.6768,1738.6569,330.306" style="stroke: #A80036; stroke-width: 1.0;"/><!--link org.rcdukes.imageview.OpenCVBasedTest to org.rcdukes.imageview.TestVideoRecorder--><path d="M1697.1311,325.5868 C1681.4536,346.444 1662.5616,371.1523 1645,393 C1627.2902,415.0321 1607.1817,438.8953 1589.7353,459.2531 " fill="none" id="org.rcdukes.imageview.OpenCVBasedTest-org.rcdukes.imageview.TestVideoRecorder" style="stroke: #A80036; stroke-width: 1.0;"/><polygon fill="none" points="1691.6017,321.2922,1709.1854,309.4678,1702.8134,329.6767,1691.6017,321.2922" style="stroke: #A80036; stroke-width: 1.0;"/><!--link org.rcdukes.common.DukesVerticle to org.rcdukes.imageview.DebugImageServer--><path d="M677,118.0654 C677,131.7927 677,147.5843 677,163.7889 " fill="none" id="org.rcdukes.common.DukesVerticle-org.rcdukes.imageview.DebugImageServer" style="stroke: #A80036; stroke-width: 1.0;"/><polygon fill="none" points="670.0001,117.8212,677,97.8212,684.0001,117.8212,670.0001,117.8212" style="stroke: #A80036; stroke-width: 1.0;"/><!--link org.rcdukes.imageview.DebugImageServer to org.rcdukes.imageview.DebugImageServer.ImageFormat--><path d="M677,408.3973 C677,431.8457 677,454.4901 677,472.3828 " fill="none" id="org.rcdukes.imageview.DebugImageServer-org.rcdukes.imageview.DebugImageServer.ImageFormat" style="stroke: #A80036; stroke-width: 1.0;"/><ellipse cx="677.0001" cy="401.3232" fill="#FFFFFF" rx="8" ry="8" style="stroke: #A80036; stroke-width: 1.0;"/><line style="stroke: #A80036; stroke-width: 1.0;" x1="677.0002" x2="677" y1="409.3232" y2="393.3232"/><line style="stroke: #A80036; stroke-width: 1.0;" x1="669.0001" x2="685.0001" y1="401.3233" y2="401.3231"/><!--link rx.Subscriber to org.rcdukes.imageview.MJpegDecoder--><path d="M1005,118.0095 C1005,140.7434 1005,169.1496 1005,195.7188 " fill="none" id="rx.Subscriber-org.rcdukes.imageview.MJpegDecoder" style="stroke: #A80036; stroke-width: 1.0;"/><polygon fill="none" points="998.0001,117.8212,1005,97.8212,1012.0001,117.8212,998.0001,117.8212" style="stroke: #A80036; stroke-width: 1.0;"/><!--link java.lang.Runnable to org.rcdukes.imageview.MultipartStreamer--><path d="M1380,124.5488 C1380,154.0308 1380,191.18 1380,221.5992 " fill="none" id="java.lang.Runnable-org.rcdukes.imageview.MultipartStreamer" style="stroke: #A80036; stroke-width: 1.0; stroke-dasharray: 7.0,7.0;"/><polygon fill="none" points="1373.0001,124.1906,1380,104.1906,1387.0001,124.1905,1373.0001,124.1906" style="stroke: #A80036; stroke-width: 1.0;"/><text fill="#888888" font-family="sans-serif" font-size="10" lengthAdjust="spacingAndGlyphs" textLength="182" x="907" y="601.668">UMLDoclet 1.1.4, PlantUML 1.2019.05</text><!--
@startuml

    namespace org.rcdukes.imageview {

        class TestDebugImageServer [[TestDebugImageServer.html]] {
            +startImageServer(): void
            +testDebugImageServerStart(): void
            +testTestImage(): void
            +testMJpegStream(): void
            +testOpenCV(): void
        }

        class TestSuite [[TestSuite.html]] {
            {static} +isTravis(): boolean
        }

        class OpenCVBasedTest [[OpenCVBasedTest.html]] {
            {static} +setup(): void
        }

        class TestVideoRecorder [[TestVideoRecorder.html]] {
            {static} +debug: boolean
            +testVideoRecorder(): void
            +testVideoRecorders(): void
            +testVideoInfoGraphDatabase(): void
        }

        class DebugImageServer [[DebugImageServer.html]] {
            {static} +SERVE_TEST_IMAGES: boolean
            {static} +imageFormat: DebugImageServer.ImageFormat
            {static} +exts: String[]
            {static} +contentTypes: String[]
            {static} +fps: double
            #server: HttpServer
            +start(Future<Void>): void
            #receiveSimulatorImage(Message<String>): void
            +getNextImage(ImageCollector.ImageType): Image
            #shootPhoto(): void
            +sendImage(HttpServerRequest): void
            +sendSingleImage(HttpServerRequest, ImageCollector.ImageType): void
            +sendImageBytes(HttpServerRequest, byte[]): void
            +recordFrame(Mat, ImageCollector.ImageType): void
        }

        enum org.rcdukes.imageview.DebugImageServer.ImageFormat [[DebugImageServer.ImageFormat.html]] {
            {static} +png
            {static} +jpg
        }

        class MJpegDecoder [[MJpegDecoder.html]] {
            {static} #LOG: Logger
            {static} +debug: boolean
            +MJpegDecoder(MJpegHandler)
            +onCompleted(): void
            +onError(Throwable): void
            +onNext(byte[]): void
            +open(int): void
            +close(): void
            +onNext(Object): void
        }

        class MultipartStreamer [[MultipartStreamer.html]] {
            +MultipartStreamer(DebugImageServer, HttpServerResponse, ImageCollector.ImageType)
            +streamNextImage(): void
            +writeMultiPartFrame(Buffer): void
            +preamble(): void
            +run(): void
        }

        class MJpegHandler [[MJpegHandler.html]] {
            +MJpegHandler(String)
            +MJpegHandler()
            +getInputStream(): BodyDeferringAsyncHandler.BodyDeferringInputStream
            +open(int): MJpegDecoder
            +close(): void
        }

        OpenCVBasedTest <|- - TestDebugImageServer

        OpenCVBasedTest <|- - TestVideoRecorder

        abstract class org.rcdukes.common.DukesVerticle
        org.rcdukes.common.DukesVerticle <|- - DebugImageServer

        DebugImageServer +- - org.rcdukes.imageview.DebugImageServer.ImageFormat

        abstract class rx.Subscriber<T>
        rx.Subscriber <|- - MJpegDecoder

        interface java.lang.Runnable {
            {abstract} +run(): void
        }
        java.lang.Runnable <|.. MultipartStreamer

    }


    center footer UMLDoclet 1.1.4, PlantUML 1.2019.05
@enduml

PlantUML version 1.2019.05(Sat Apr 20 18:45:36 CEST 2019)
(APACHE source distribution)
Java Runtime: Java(TM) SE Runtime Environment
JVM: Java HotSpot(TM) 64-Bit Server VM
Java Version: 1.8.0_152-b16
Operating System: Mac OS X
OS Version: 10.13.6
Default Encoding: UTF-8
Language: de
Country: DE
--></g></svg>