<?xml version="1.0" encoding="UTF-8" standalone="no"?><svg xmlns="http://www.w3.org/2000/svg" xmlns:xlink="http://www.w3.org/1999/xlink" contentScriptType="application/ecmascript" contentStyleType="text/css" height="128px" preserveAspectRatio="none" style="width:228px;height:128px;" version="1.1" viewBox="0 0 228 128" width="228px" zoomAndPan="magnify"><defs><filter height="300%" id="f2zhfclfa3hat" width="300%" x="-1" y="-1"><feGaussianBlur result="blurOut" stdDeviation="2.0"/><feColorMatrix in="blurOut" result="blurOut2" type="matrix" values="0 0 0 0 0 0 0 0 0 0 0 0 0 0 0 0 0 0 .4 0"/><feOffset dx="4.0" dy="4.0" in="blurOut2" result="blurOut3"/><feBlend in="SourceGraphic" in2="blurOut3" mode="normal"/></filter></defs><g><!--class Action--><a href="Action.html" target="_top" xlink:actuate="onRequest" xlink:show="new" xlink:title="Action.html" xlink:type="simple"><rect fill="#FEFECE" filter="url(#f2zhfclfa3hat)" height="86.8652" id="Action" style="stroke: #A80036; stroke-width: 1.5;" width="211" x="6" y="8"/><ellipse cx="89.75" cy="24" fill="#ADD1B2" rx="11" ry="11" style="stroke: #A80036; stroke-width: 1.0;"/><path d="M92.7231,29.6431 Q92.1421,29.9419 91.5029,30.0913 Q90.8638,30.2407 90.1582,30.2407 Q87.6514,30.2407 86.3315,28.5889 Q85.0117,26.937 85.0117,23.8159 Q85.0117,20.6865 86.3315,19.0347 Q87.6514,17.3828 90.1582,17.3828 Q90.8638,17.3828 91.5112,17.5322 Q92.1587,17.6816 92.7231,17.9805 L92.7231,20.7031 Q92.0923,20.1221 91.4988,19.8523 Q90.9053,19.5825 90.2744,19.5825 Q88.9297,19.5825 88.2449,20.6492 Q87.5601,21.7158 87.5601,23.8159 Q87.5601,25.9077 88.2449,26.9744 Q88.9297,28.041 90.2744,28.041 Q90.9053,28.041 91.4988,27.7712 Q92.0923,27.5015 92.7231,26.9204 Z "/><text fill="#000000" font-family="sans-serif" font-size="12" lengthAdjust="spacingAndGlyphs" textLength="35" x="110.25" y="28.5352">Action</text><line style="stroke: #A80036; stroke-width: 1.5;" x1="7" x2="216" y1="40" y2="40"/><ellipse cx="17" cy="51.9775" fill="none" rx="3" ry="3" style="stroke: #038048; stroke-width: 1.0;"/><text fill="#000000" font-family="sans-serif" font-size="11" lengthAdjust="spacingAndGlyphs" text-decoration="underline" textLength="185" x="26" y="54.6348">START_DRAG_NAVIGATION: String</text><ellipse cx="17" cy="64.9326" fill="none" rx="3" ry="3" style="stroke: #038048; stroke-width: 1.0;"/><text fill="#000000" font-family="sans-serif" font-size="11" lengthAdjust="spacingAndGlyphs" text-decoration="underline" textLength="141" x="26" y="67.5898">STOP_NAVIGATION: String</text><line style="stroke: #A80036; stroke-width: 1.5;" x1="7" x2="216" y1="73.9102" y2="73.9102"/><ellipse cx="17" cy="85.8877" fill="#84BE84" rx="3" ry="3" style="stroke: #038048; stroke-width: 1.0;"/><text fill="#000000" font-family="sans-serif" font-size="11" lengthAdjust="spacingAndGlyphs" textLength="62" x="26" y="88.5449">start(): void</text></a><text fill="#888888" font-family="sans-serif" font-size="10" lengthAdjust="spacingAndGlyphs" textLength="182" x="26.5" y="114.668">UMLDoclet 1.1.4, PlantUML 1.2019.05</text><!--
@startuml

    class Action [[Action.html]] {
        {static} +START_DRAG_NAVIGATION: String
        {static} +STOP_NAVIGATION: String
        +start(): void
    }


    center footer UMLDoclet 1.1.4, PlantUML 1.2019.05
@enduml

PlantUML version 1.2019.05(Sat Apr 20 18:45:36 CEST 2019)
(APACHE source distribution)
Java Runtime: Java(TM) SE Runtime Environment
JVM: Java HotSpot(TM) 64-Bit Server VM
Java Version: 1.8.0_191-b12
Operating System: Mac OS X
OS Version: 10.13.6
Default Encoding: UTF-8
Language: de
Country: DE
--></g></svg>