<?xml version="1.0" encoding="UTF-8" standalone="no"?><svg xmlns="http://www.w3.org/2000/svg" xmlns:xlink="http://www.w3.org/1999/xlink" contentScriptType="application/ecmascript" contentStyleType="text/css" height="287px" preserveAspectRatio="none" style="width:266px;height:287px;" version="1.1" viewBox="0 0 266 287" width="266px" zoomAndPan="magnify"><defs><filter height="300%" id="f1xwqyfj88qu8i" width="300%" x="-1" y="-1"><feGaussianBlur result="blurOut" stdDeviation="2.0"/><feColorMatrix in="blurOut" result="blurOut2" type="matrix" values="0 0 0 0 0 0 0 0 0 0 0 0 0 0 0 0 0 0 .4 0"/><feOffset dx="4.0" dy="4.0" in="blurOut2" result="blurOut3"/><feBlend in="SourceGraphic" in2="blurOut3" mode="normal"/></filter></defs><g><!--cluster nl.vaneijndhoven.dukes.action--><polygon fill="#FFFFFF" filter="url(#f1xwqyfj88qu8i)" points="14,124,234,124,241,146.4883,244,146.4883,244,246,14,246,14,124" style="stroke: #000000; stroke-width: 1.5;"/><line style="stroke: #000000; stroke-width: 1.5;" x1="14" x2="241" y1="146.4883" y2="146.4883"/><text fill="#000000" font-family="sans-serif" font-size="14" font-weight="bold" lengthAdjust="spacingAndGlyphs" textLength="214" x="18" y="139.5352">nl.vaneijndhoven.dukes.action</text><!--cluster io.vertx.rxjava.core--><polygon fill="#FFFFFF" filter="url(#f1xwqyfj88qu8i)" points="55,16,193,16,200,38.4883,203,38.4883,203,99,55,99,55,16" style="stroke: #000000; stroke-width: 1.5;"/><line style="stroke: #000000; stroke-width: 1.5;" x1="55" x2="200" y1="38.4883" y2="38.4883"/><text fill="#000000" font-family="sans-serif" font-size="14" font-weight="bold" lengthAdjust="spacingAndGlyphs" textLength="132" x="59" y="31.5352">io.vertx.rxjava.core</text><!--class nl.vaneijndhoven.dukes.action.Action--><a href="Action.html" target="_top" xlink:actuate="onRequest" xlink:show="new" xlink:title="Action.html" xlink:type="simple"><rect fill="#FEFECE" filter="url(#f1xwqyfj88qu8i)" height="86.8652" id="nl.vaneijndhoven.dukes.action.Action" style="stroke: #A80036; stroke-width: 1.5;" width="211" x="23.5" y="151"/><ellipse cx="107.25" cy="167" fill="#ADD1B2" rx="11" ry="11" style="stroke: #A80036; stroke-width: 1.0;"/><path d="M110.2231,172.6431 Q109.6421,172.9419 109.0029,173.0913 Q108.3638,173.2407 107.6582,173.2407 Q105.1514,173.2407 103.8315,171.5889 Q102.5117,169.937 102.5117,166.8159 Q102.5117,163.6865 103.8315,162.0347 Q105.1514,160.3828 107.6582,160.3828 Q108.3638,160.3828 109.0112,160.5322 Q109.6587,160.6816 110.2231,160.9805 L110.2231,163.7031 Q109.5923,163.1221 108.9988,162.8523 Q108.4053,162.5825 107.7744,162.5825 Q106.4297,162.5825 105.7449,163.6492 Q105.0601,164.7158 105.0601,166.8159 Q105.0601,168.9077 105.7449,169.9744 Q106.4297,171.041 107.7744,171.041 Q108.4053,171.041 108.9988,170.7712 Q109.5923,170.5015 110.2231,169.9204 Z "/><text fill="#000000" font-family="sans-serif" font-size="12" lengthAdjust="spacingAndGlyphs" textLength="35" x="127.75" y="171.5352">Action</text><line style="stroke: #A80036; stroke-width: 1.5;" x1="24.5" x2="233.5" y1="183" y2="183"/><ellipse cx="34.5" cy="194.9775" fill="none" rx="3" ry="3" style="stroke: #038048; stroke-width: 1.0;"/><text fill="#000000" font-family="sans-serif" font-size="11" lengthAdjust="spacingAndGlyphs" text-decoration="underline" textLength="185" x="43.5" y="197.6348">START_DRAG_NAVIGATION: String</text><ellipse cx="34.5" cy="207.9326" fill="none" rx="3" ry="3" style="stroke: #038048; stroke-width: 1.0;"/><text fill="#000000" font-family="sans-serif" font-size="11" lengthAdjust="spacingAndGlyphs" text-decoration="underline" textLength="141" x="43.5" y="210.5898">STOP_NAVIGATION: String</text><line style="stroke: #A80036; stroke-width: 1.5;" x1="24.5" x2="233.5" y1="216.9102" y2="216.9102"/><ellipse cx="34.5" cy="228.8877" fill="#84BE84" rx="3" ry="3" style="stroke: #038048; stroke-width: 1.0;"/><text fill="#000000" font-family="sans-serif" font-size="11" lengthAdjust="spacingAndGlyphs" textLength="62" x="43.5" y="231.5449">start(): void</text></a><!--class io.vertx.rxjava.core.AbstractVerticle--><rect fill="#FEFECE" filter="url(#f1xwqyfj88qu8i)" height="48" id="io.vertx.rxjava.core.AbstractVerticle" style="stroke: #A80036; stroke-width: 1.5;" width="123" x="67.5" y="43"/><ellipse cx="82.5" cy="59" fill="#ADD1B2" rx="11" ry="11" style="stroke: #A80036; stroke-width: 1.0;"/><path d="M85.4731,64.6431 Q84.8921,64.9419 84.2529,65.0913 Q83.6138,65.2407 82.9082,65.2407 Q80.4014,65.2407 79.0815,63.5889 Q77.7617,61.937 77.7617,58.8159 Q77.7617,55.6865 79.0815,54.0347 Q80.4014,52.3828 82.9082,52.3828 Q83.6138,52.3828 84.2612,52.5322 Q84.9087,52.6816 85.4731,52.9805 L85.4731,55.7031 Q84.8423,55.1221 84.2488,54.8523 Q83.6553,54.5825 83.0244,54.5825 Q81.6797,54.5825 80.9949,55.6492 Q80.3101,56.7158 80.3101,58.8159 Q80.3101,60.9077 80.9949,61.9744 Q81.6797,63.041 83.0244,63.041 Q83.6553,63.041 84.2488,62.7712 Q84.8423,62.5015 85.4731,61.9204 Z "/><text fill="#000000" font-family="sans-serif" font-size="12" lengthAdjust="spacingAndGlyphs" textLength="91" x="96.5" y="63.5352">AbstractVerticle</text><line style="stroke: #A80036; stroke-width: 1.5;" x1="68.5" x2="189.5" y1="75" y2="75"/><line style="stroke: #A80036; stroke-width: 1.5;" x1="68.5" x2="189.5" y1="83" y2="83"/><!--link io.vertx.rxjava.core.AbstractVerticle to nl.vaneijndhoven.dukes.action.Action--><path d="M129,111.3598 C129,124.1877 129,138.1732 129,150.9512 " fill="none" id="io.vertx.rxjava.core.AbstractVerticle-nl.vaneijndhoven.dukes.action.Action" style="stroke: #A80036; stroke-width: 1.0;"/><polygon fill="none" points="122.0001,111.2819,129,91.2819,136.0001,111.2818,122.0001,111.2819" style="stroke: #A80036; stroke-width: 1.0;"/><text fill="#888888" font-family="sans-serif" font-size="10" lengthAdjust="spacingAndGlyphs" textLength="182" x="44" y="273.668">UMLDoclet 1.1.4, PlantUML 1.2019.05</text><!--
@startuml

    namespace nl.vaneijndhoven.dukes.action {

        class Action [[Action.html]] {
            {static} +START_DRAG_NAVIGATION: String
            {static} +STOP_NAVIGATION: String
            +start(): void
        }

        class io.vertx.rxjava.core.AbstractVerticle
        io.vertx.rxjava.core.AbstractVerticle <|- - Action

    }


    center footer UMLDoclet 1.1.4, PlantUML 1.2019.05
@enduml

PlantUML version 1.2019.05(Sat Apr 20 18:45:36 CEST 2019)
(APACHE source distribution)
Java Runtime: Java(TM) SE Runtime Environment
JVM: Java HotSpot(TM) 64-Bit Server VM
Java Version: 1.8.0_191-b12
Operating System: Mac OS X
OS Version: 10.13.6
Default Encoding: UTF-8
Language: de
Country: DE
--></g></svg>