<?xml version="1.0" encoding="UTF-8" standalone="no"?><svg xmlns="http://www.w3.org/2000/svg" xmlns:xlink="http://www.w3.org/1999/xlink" contentScriptType="application/ecmascript" contentStyleType="text/css" height="391px" preserveAspectRatio="none" style="width:539px;height:391px;" version="1.1" viewBox="0 0 539 391" width="539px" zoomAndPan="magnify"><defs><filter height="300%" id="ft5ucvtdbhguv" width="300%" x="-1" y="-1"><feGaussianBlur result="blurOut" stdDeviation="2.0"/><feColorMatrix in="blurOut" result="blurOut2" type="matrix" values="0 0 0 0 0 0 0 0 0 0 0 0 0 0 0 0 0 0 .4 0"/><feOffset dx="4.0" dy="4.0" in="blurOut2" result="blurOut3"/><feBlend in="SourceGraphic" in2="blurOut3" mode="normal"/></filter></defs><g><!--cluster nl.vaneijndhoven.navigation.plot--><polygon fill="#FFFFFF" filter="url(#ft5ucvtdbhguv)" points="14,16,252,16,259,38.4883,517,38.4883,517,350,14,350,14,16" style="stroke: #000000; stroke-width: 1.5;"/><line style="stroke: #000000; stroke-width: 1.5;" x1="14" x2="259" y1="38.4883" y2="38.4883"/><text fill="#000000" font-family="sans-serif" font-size="14" font-weight="bold" lengthAdjust="spacingAndGlyphs" textLength="232" x="18" y="31.5352">nl.vaneijndhoven.navigation.plot</text><!--class nl.vaneijndhoven.navigation.plot.LaneOrientation--><a href="LaneOrientation.html" target="_top" xlink:actuate="onRequest" xlink:show="new" xlink:title="LaneOrientation.html" xlink:type="simple"><rect fill="#FEFECE" filter="url(#ft5ucvtdbhguv)" height="151.6406" id="nl.vaneijndhoven.navigation.plot.LaneOrientation" style="stroke: #A80036; stroke-width: 1.5;" width="268" x="22" y="43"/><ellipse cx="106.75" cy="59" fill="#ADD1B2" rx="11" ry="11" style="stroke: #A80036; stroke-width: 1.0;"/><path d="M109.7231,64.6431 Q109.1421,64.9419 108.5029,65.0913 Q107.8638,65.2407 107.1582,65.2407 Q104.6514,65.2407 103.3315,63.5889 Q102.0117,61.937 102.0117,58.8159 Q102.0117,55.6865 103.3315,54.0347 Q104.6514,52.3828 107.1582,52.3828 Q107.8638,52.3828 108.5112,52.5322 Q109.1587,52.6816 109.7231,52.9805 L109.7231,55.7031 Q109.0923,55.1221 108.4988,54.8523 Q107.9053,54.5825 107.2744,54.5825 Q105.9297,54.5825 105.2449,55.6492 Q104.5601,56.7158 104.5601,58.8159 Q104.5601,60.9077 105.2449,61.9744 Q105.9297,63.041 107.2744,63.041 Q107.9053,63.041 108.4988,62.7712 Q109.0923,62.5015 109.7231,61.9204 Z "/><text fill="#000000" font-family="sans-serif" font-size="12" lengthAdjust="spacingAndGlyphs" textLength="90" x="127.25" y="63.5352">LaneOrientation</text><line style="stroke: #A80036; stroke-width: 1.5;" x1="23" x2="289" y1="75" y2="75"/><line style="stroke: #A80036; stroke-width: 1.5;" x1="23" x2="289" y1="83" y2="83"/><ellipse cx="33" cy="94.9775" fill="#84BE84" rx="3" ry="3" style="stroke: #038048; stroke-width: 1.0;"/><text fill="#000000" font-family="sans-serif" font-size="11" lengthAdjust="spacingAndGlyphs" textLength="171" x="42" y="97.6348">LaneOrientation(Lane, ViewPort)</text><ellipse cx="33" cy="107.9326" fill="#84BE84" rx="3" ry="3" style="stroke: #038048; stroke-width: 1.0;"/><text fill="#000000" font-family="sans-serif" font-size="11" lengthAdjust="spacingAndGlyphs" textLength="178" x="42" y="110.5898">determineCurrentAngle(): double</text><ellipse cx="33" cy="120.8877" fill="#84BE84" rx="3" ry="3" style="stroke: #038048; stroke-width: 1.0;"/><text fill="#000000" font-family="sans-serif" font-size="11" lengthAdjust="spacingAndGlyphs" textLength="195" x="42" y="123.5449">distanceFromLeftBoundary(): double</text><ellipse cx="33" cy="133.8428" fill="#84BE84" rx="3" ry="3" style="stroke: #038048; stroke-width: 1.0;"/><text fill="#000000" font-family="sans-serif" font-size="11" lengthAdjust="spacingAndGlyphs" textLength="203" x="42" y="136.5">distanceFromRightBoundary(): double</text><ellipse cx="33" cy="146.7979" fill="#84BE84" rx="3" ry="3" style="stroke: #038048; stroke-width: 1.0;"/><text fill="#000000" font-family="sans-serif" font-size="11" lengthAdjust="spacingAndGlyphs" textLength="200" x="42" y="149.4551">determineDistanceToMiddle(): double</text><ellipse cx="33" cy="159.7529" fill="#84BE84" rx="3" ry="3" style="stroke: #038048; stroke-width: 1.0;"/><text fill="#000000" font-family="sans-serif" font-size="11" lengthAdjust="spacingAndGlyphs" textLength="242" x="42" y="162.4102">determineCourseRelativeToHorizon(): double</text><ellipse cx="33" cy="172.708" fill="#84BE84" rx="3" ry="3" style="stroke: #038048; stroke-width: 1.0;"/><text fill="#000000" font-family="sans-serif" font-size="11" lengthAdjust="spacingAndGlyphs" textLength="214" x="42" y="175.3652">determineLaneMiddle(): Optional&lt;Line&gt;</text><ellipse cx="33" cy="185.6631" fill="#84BE84" rx="3" ry="3" style="stroke: #038048; stroke-width: 1.0;"/><text fill="#000000" font-family="sans-serif" font-size="11" lengthAdjust="spacingAndGlyphs" textLength="178" x="42" y="188.3203">determineBase(): Optional&lt;Line&gt;</text></a><!--class nl.vaneijndhoven.navigation.plot.PathPlanner--><a href="PathPlanner.html" target="_top" xlink:actuate="onRequest" xlink:show="new" xlink:title="PathPlanner.html" xlink:type="simple"><rect fill="#FEFECE" filter="url(#ft5ucvtdbhguv)" height="73.9102" id="nl.vaneijndhoven.navigation.plot.PathPlanner" style="stroke: #A80036; stroke-width: 1.5;" width="183" x="325.5" y="82"/><ellipse cx="378.75" cy="98" fill="#ADD1B2" rx="11" ry="11" style="stroke: #A80036; stroke-width: 1.0;"/><path d="M381.7231,103.6431 Q381.1421,103.9419 380.5029,104.0913 Q379.8638,104.2407 379.1582,104.2407 Q376.6514,104.2407 375.3315,102.5889 Q374.0117,100.937 374.0117,97.8159 Q374.0117,94.6865 375.3315,93.0347 Q376.6514,91.3828 379.1582,91.3828 Q379.8638,91.3828 380.5112,91.5322 Q381.1587,91.6816 381.7231,91.9805 L381.7231,94.7031 Q381.0923,94.1221 380.4988,93.8523 Q379.9053,93.5825 379.2744,93.5825 Q377.9297,93.5825 377.2449,94.6492 Q376.5601,95.7158 376.5601,97.8159 Q376.5601,99.9077 377.2449,100.9744 Q377.9297,102.041 379.2744,102.041 Q379.9053,102.041 380.4988,101.7712 Q381.0923,101.5015 381.7231,100.9204 Z "/><text fill="#000000" font-family="sans-serif" font-size="12" lengthAdjust="spacingAndGlyphs" textLength="68" x="399.25" y="102.5352">PathPlanner</text><line style="stroke: #A80036; stroke-width: 1.5;" x1="326.5" x2="507.5" y1="114" y2="114"/><line style="stroke: #A80036; stroke-width: 1.5;" x1="326.5" x2="507.5" y1="122" y2="122"/><ellipse cx="336.5" cy="133.9775" fill="#84BE84" rx="3" ry="3" style="stroke: #038048; stroke-width: 1.0;"/><text fill="#000000" font-family="sans-serif" font-size="11" lengthAdjust="spacingAndGlyphs" textLength="157" x="345.5" y="136.6348">PathPlanner(LaneOrientation)</text><ellipse cx="336.5" cy="146.9326" fill="#84BE84" rx="3" ry="3" style="stroke: #038048; stroke-width: 1.0;"/><text fill="#000000" font-family="sans-serif" font-size="11" lengthAdjust="spacingAndGlyphs" textLength="155" x="345.5" y="149.5898">determineDeviation(): double</text></a><!--class nl.vaneijndhoven.navigation.plot.ShortestPath--><a href="ShortestPath.html" target="_top" xlink:actuate="onRequest" xlink:show="new" xlink:title="ShortestPath.html" xlink:type="simple"><rect fill="#FEFECE" filter="url(#ft5ucvtdbhguv)" height="48" id="nl.vaneijndhoven.navigation.plot.ShortestPath" style="stroke: #A80036; stroke-width: 1.5;" width="103" x="42.5" y="274.5"/><ellipse cx="57.5" cy="290.5" fill="#ADD1B2" rx="11" ry="11" style="stroke: #A80036; stroke-width: 1.0;"/><path d="M60.4731,296.1431 Q59.8921,296.4419 59.2529,296.5913 Q58.6138,296.7407 57.9082,296.7407 Q55.4014,296.7407 54.0815,295.0889 Q52.7617,293.437 52.7617,290.3159 Q52.7617,287.1865 54.0815,285.5347 Q55.4014,283.8828 57.9082,283.8828 Q58.6138,283.8828 59.2612,284.0322 Q59.9087,284.1816 60.4731,284.4805 L60.4731,287.2031 Q59.8423,286.6221 59.2488,286.3523 Q58.6553,286.0825 58.0244,286.0825 Q56.6797,286.0825 55.9949,287.1492 Q55.3101,288.2158 55.3101,290.3159 Q55.3101,292.4077 55.9949,293.4744 Q56.6797,294.541 58.0244,294.541 Q58.6553,294.541 59.2488,294.2712 Q59.8423,294.0015 60.4731,293.4204 Z "/><text fill="#000000" font-family="sans-serif" font-size="12" lengthAdjust="spacingAndGlyphs" textLength="71" x="71.5" y="295.0352">ShortestPath</text><line style="stroke: #A80036; stroke-width: 1.5;" x1="43.5" x2="144.5" y1="306.5" y2="306.5"/><line style="stroke: #A80036; stroke-width: 1.5;" x1="43.5" x2="144.5" y1="314.5" y2="314.5"/></a><!--class nl.vaneijndhoven.navigation.plot.StoppingZoneOrientation--><a href="StoppingZoneOrientation.html" target="_top" xlink:actuate="onRequest" xlink:show="new" xlink:title="StoppingZoneOrientation.html" xlink:type="simple"><rect fill="#FEFECE" filter="url(#ft5ucvtdbhguv)" height="86.8652" id="nl.vaneijndhoven.navigation.plot.StoppingZoneOrientation" style="stroke: #A80036; stroke-width: 1.5;" width="328" x="181" y="255"/><ellipse cx="270.25" cy="271" fill="#ADD1B2" rx="11" ry="11" style="stroke: #A80036; stroke-width: 1.0;"/><path d="M273.2231,276.6431 Q272.6421,276.9419 272.0029,277.0913 Q271.3638,277.2407 270.6582,277.2407 Q268.1514,277.2407 266.8315,275.5889 Q265.5117,273.937 265.5117,270.8159 Q265.5117,267.6865 266.8315,266.0347 Q268.1514,264.3828 270.6582,264.3828 Q271.3638,264.3828 272.0112,264.5322 Q272.6587,264.6816 273.2231,264.9805 L273.2231,267.7031 Q272.5923,267.1221 271.9988,266.8523 Q271.4053,266.5825 270.7744,266.5825 Q269.4297,266.5825 268.7449,267.6492 Q268.0601,268.7158 268.0601,270.8159 Q268.0601,272.9077 268.7449,273.9744 Q269.4297,275.041 270.7744,275.041 Q271.4053,275.041 271.9988,274.7712 Q272.5923,274.5015 273.2231,273.9204 Z "/><text fill="#000000" font-family="sans-serif" font-size="12" lengthAdjust="spacingAndGlyphs" textLength="141" x="290.75" y="275.5352">StoppingZoneOrientation</text><line style="stroke: #A80036; stroke-width: 1.5;" x1="182" x2="508" y1="287" y2="287"/><line style="stroke: #A80036; stroke-width: 1.5;" x1="182" x2="508" y1="295" y2="295"/><ellipse cx="192" cy="306.9775" fill="#84BE84" rx="3" ry="3" style="stroke: #038048; stroke-width: 1.0;"/><text fill="#000000" font-family="sans-serif" font-size="11" lengthAdjust="spacingAndGlyphs" textLength="302" x="201" y="309.6348">StoppingZoneOrientation(StoppingZone, Lane, ViewPort)</text><ellipse cx="192" cy="319.9326" fill="#84BE84" rx="3" ry="3" style="stroke: #038048; stroke-width: 1.0;"/><text fill="#000000" font-family="sans-serif" font-size="11" lengthAdjust="spacingAndGlyphs" textLength="240" x="201" y="322.5898">determineDistanceToStoppingZone(): double</text><ellipse cx="192" cy="332.8877" fill="#84BE84" rx="3" ry="3" style="stroke: #038048; stroke-width: 1.0;"/><text fill="#000000" font-family="sans-serif" font-size="11" lengthAdjust="spacingAndGlyphs" textLength="260" x="201" y="335.5449">determineDistanceToStoppingZoneEnd(): double</text></a><!--link nl.vaneijndhoven.navigation.plot.LaneOrientation to nl.vaneijndhoven.navigation.plot.PathPlanner--><!--link nl.vaneijndhoven.navigation.plot.LaneOrientation to nl.vaneijndhoven.navigation.plot.ShortestPath--><!--link nl.vaneijndhoven.navigation.plot.ShortestPath to nl.vaneijndhoven.navigation.plot.StoppingZoneOrientation--><text fill="#888888" font-family="sans-serif" font-size="10" lengthAdjust="spacingAndGlyphs" textLength="182" x="180.5" y="377.668">UMLDoclet 1.1.4, PlantUML 1.2019.05</text><!--
@startuml

    namespace nl.vaneijndhoven.navigation.plot {

        class LaneOrientation [[LaneOrientation.html]] {
            +LaneOrientation(Lane, ViewPort)
            +determineCurrentAngle(): double
            +distanceFromLeftBoundary(): double
            +distanceFromRightBoundary(): double
            +determineDistanceToMiddle(): double
            +determineCourseRelativeToHorizon(): double
            +determineLaneMiddle(): Optional<Line>
            +determineBase(): Optional<Line>
        }

        class PathPlanner [[PathPlanner.html]] {
            +PathPlanner(LaneOrientation)
            +determineDeviation(): double
        }

        class ShortestPath [[ShortestPath.html]] {
        }

        class StoppingZoneOrientation [[StoppingZoneOrientation.html]] {
            +StoppingZoneOrientation(StoppingZone, Lane, ViewPort)
            +determineDistanceToStoppingZone(): double
            +determineDistanceToStoppingZoneEnd(): double
        }

    }


    center footer UMLDoclet 1.1.4, PlantUML 1.2019.05
@enduml

PlantUML version 1.2019.05(Sat Apr 20 18:45:36 CEST 2019)
(APACHE source distribution)
Java Runtime: Java(TM) SE Runtime Environment
JVM: Java HotSpot(TM) 64-Bit Server VM
Java Version: 1.8.0_152-b16
Operating System: Mac OS X
OS Version: 10.13.6
Default Encoding: UTF-8
Language: de
Country: DE
--></g></svg>