<?xml version="1.0" encoding="UTF-8" standalone="no"?><svg xmlns="http://www.w3.org/2000/svg" xmlns:xlink="http://www.w3.org/1999/xlink" contentScriptType="application/ecmascript" contentStyleType="text/css" height="219px" preserveAspectRatio="none" style="width:298px;height:219px;" version="1.1" viewBox="0 0 298 219" width="298px" zoomAndPan="magnify"><defs><filter height="300%" id="f181irgyt0gp4j" width="300%" x="-1" y="-1"><feGaussianBlur result="blurOut" stdDeviation="2.0"/><feColorMatrix in="blurOut" result="blurOut2" type="matrix" values="0 0 0 0 0 0 0 0 0 0 0 0 0 0 0 0 0 0 .4 0"/><feOffset dx="4.0" dy="4.0" in="blurOut2" result="blurOut3"/><feBlend in="SourceGraphic" in2="blurOut3" mode="normal"/></filter></defs><g><!--class CameraMatrix--><a href="CameraMatrix.html" target="_top" xlink:actuate="onRequest" xlink:show="new" xlink:title="CameraMatrix.html" xlink:type="simple"><rect fill="#FEFECE" filter="url(#f181irgyt0gp4j)" height="177.5508" id="CameraMatrix" style="stroke: #A80036; stroke-width: 1.5;" width="281" x="6" y="8"/><ellipse cx="101.75" cy="24" fill="#ADD1B2" rx="11" ry="11" style="stroke: #A80036; stroke-width: 1.0;"/><path d="M104.7231,29.6431 Q104.1421,29.9419 103.5029,30.0913 Q102.8638,30.2407 102.1582,30.2407 Q99.6514,30.2407 98.3315,28.5889 Q97.0117,26.937 97.0117,23.8159 Q97.0117,20.6865 98.3315,19.0347 Q99.6514,17.3828 102.1582,17.3828 Q102.8638,17.3828 103.5112,17.5322 Q104.1587,17.6816 104.7231,17.9805 L104.7231,20.7031 Q104.0923,20.1221 103.4988,19.8523 Q102.9053,19.5825 102.2744,19.5825 Q100.9297,19.5825 100.2449,20.6492 Q99.5601,21.7158 99.5601,23.8159 Q99.5601,25.9077 100.2449,26.9744 Q100.9297,28.041 102.2744,28.041 Q102.9053,28.041 103.4988,27.7712 Q104.0923,27.5015 104.7231,26.9204 Z "/><text fill="#000000" font-family="sans-serif" font-size="12" lengthAdjust="spacingAndGlyphs" textLength="81" x="122.25" y="28.5352">CameraMatrix</text><line style="stroke: #A80036; stroke-width: 1.5;" x1="7" x2="286" y1="40" y2="40"/><ellipse cx="17" cy="51.9775" fill="none" rx="3" ry="3" style="stroke: #038048; stroke-width: 1.0;"/><text fill="#000000" font-family="sans-serif" font-size="11" lengthAdjust="spacingAndGlyphs" text-decoration="underline" textLength="130" x="26" y="54.6348">DEFAULT: CameraMatrix</text><line style="stroke: #A80036; stroke-width: 1.5;" x1="7" x2="286" y1="60.9551" y2="60.9551"/><ellipse cx="17" cy="72.9326" fill="#84BE84" rx="3" ry="3" style="stroke: #038048; stroke-width: 1.0;"/><text fill="#000000" font-family="sans-serif" font-size="11" lengthAdjust="spacingAndGlyphs" textLength="117" x="26" y="75.5898">CameraMatrix(int, int)</text><ellipse cx="17" cy="85.8877" fill="#84BE84" rx="3" ry="3" style="stroke: #038048; stroke-width: 1.0;"/><text fill="#000000" font-family="sans-serif" font-size="11" lengthAdjust="spacingAndGlyphs" textLength="118" x="26" y="88.5449">getRvecs(): List&lt;Mat&gt;</text><ellipse cx="17" cy="98.8428" fill="#84BE84" rx="3" ry="3" style="stroke: #038048; stroke-width: 1.0;"/><text fill="#000000" font-family="sans-serif" font-size="11" lengthAdjust="spacingAndGlyphs" textLength="118" x="26" y="101.5">getTvecs(): List&lt;Mat&gt;</text><ellipse cx="17" cy="111.7979" fill="#84BE84" rx="3" ry="3" style="stroke: #038048; stroke-width: 1.0;"/><text fill="#000000" font-family="sans-serif" font-size="11" lengthAdjust="spacingAndGlyphs" textLength="110" x="26" y="114.4551">calibrate(Mat[]): void</text><ellipse cx="17" cy="124.7529" fill="#84BE84" rx="3" ry="3" style="stroke: #038048; stroke-width: 1.0;"/><text fill="#000000" font-family="sans-serif" font-size="11" lengthAdjust="spacingAndGlyphs" textLength="255" x="26" y="127.4102">findOuterChessBoardCornerPoints(Mat): Point[]</text><ellipse cx="17" cy="137.708" fill="#84BE84" rx="3" ry="3" style="stroke: #038048; stroke-width: 1.0;"/><text fill="#000000" font-family="sans-serif" font-size="11" lengthAdjust="spacingAndGlyphs" textLength="167" x="26" y="140.3652">addCalibrationImage(Mat): void</text><ellipse cx="17" cy="150.6631" fill="#84BE84" rx="3" ry="3" style="stroke: #038048; stroke-width: 1.0;"/><text fill="#000000" font-family="sans-serif" font-size="11" lengthAdjust="spacingAndGlyphs" textLength="81" x="26" y="153.3203">apply(Mat): Mat</text><ellipse cx="17" cy="163.6182" fill="#84BE84" rx="3" ry="3" style="stroke: #038048; stroke-width: 1.0;"/><text fill="#000000" font-family="sans-serif" font-size="11" lengthAdjust="spacingAndGlyphs" textLength="90" x="26" y="166.2754">serialize(): String</text><ellipse cx="17" cy="176.5732" fill="#84BE84" rx="3" ry="3" style="stroke: #038048; stroke-width: 1.0;"/><text fill="#000000" font-family="sans-serif" font-size="11" lengthAdjust="spacingAndGlyphs" text-decoration="underline" textLength="184" x="26" y="179.2305">deserizalize(String): CameraMatrix</text></a><text fill="#888888" font-family="sans-serif" font-size="10" lengthAdjust="spacingAndGlyphs" textLength="182" x="61.5" y="205.668">UMLDoclet 1.1.4, PlantUML 1.2019.05</text><!--
@startuml

    class CameraMatrix [[CameraMatrix.html]] {
        {static} +DEFAULT: CameraMatrix
        +CameraMatrix(int, int)
        +getRvecs(): List<Mat>
        +getTvecs(): List<Mat>
        +calibrate(Mat[]): void
        +findOuterChessBoardCornerPoints(Mat): Point[]
        +addCalibrationImage(Mat): void
        +apply(Mat): Mat
        +serialize(): String
        {static} +deserizalize(String): CameraMatrix
    }


    center footer UMLDoclet 1.1.4, PlantUML 1.2019.05
@enduml

PlantUML version 1.2019.05(Sat Apr 20 18:45:36 CEST 2019)
(APACHE source distribution)
Java Runtime: Java(TM) SE Runtime Environment
JVM: Java HotSpot(TM) 64-Bit Server VM
Java Version: 1.8.0_152-b16
Operating System: Mac OS X
OS Version: 10.13.6
Default Encoding: UTF-8
Language: de
Country: DE
--></g></svg>