<?xml version="1.0" encoding="UTF-8" standalone="no"?><svg xmlns="http://www.w3.org/2000/svg" xmlns:xlink="http://www.w3.org/1999/xlink" contentScriptType="application/ecmascript" contentStyleType="text/css" height="128px" preserveAspectRatio="none" style="width:491px;height:128px;" version="1.1" viewBox="0 0 491 128" width="491px" zoomAndPan="magnify"><defs><filter height="300%" id="f2tfooey0ik6t" width="300%" x="-1" y="-1"><feGaussianBlur result="blurOut" stdDeviation="2.0"/><feColorMatrix in="blurOut" result="blurOut2" type="matrix" values="0 0 0 0 0 0 0 0 0 0 0 0 0 0 0 0 0 0 .4 0"/><feOffset dx="4.0" dy="4.0" in="blurOut2" result="blurOut3"/><feBlend in="SourceGraphic" in2="blurOut3" mode="normal"/></filter></defs><g><!--class ImagePolygon--><a href="ImagePolygon.html" target="_top" xlink:actuate="onRequest" xlink:show="new" xlink:title="ImagePolygon.html" xlink:type="simple"><rect fill="#FEFECE" filter="url(#f2tfooey0ik6t)" height="86.8652" id="ImagePolygon" style="stroke: #A80036; stroke-width: 1.5;" width="474" x="6" y="8"/><ellipse cx="199.25" cy="24" fill="#ADD1B2" rx="11" ry="11" style="stroke: #A80036; stroke-width: 1.0;"/><path d="M202.2231,29.6431 Q201.6421,29.9419 201.0029,30.0913 Q200.3638,30.2407 199.6582,30.2407 Q197.1514,30.2407 195.8315,28.5889 Q194.5117,26.937 194.5117,23.8159 Q194.5117,20.6865 195.8315,19.0347 Q197.1514,17.3828 199.6582,17.3828 Q200.3638,17.3828 201.0112,17.5322 Q201.6587,17.6816 202.2231,17.9805 L202.2231,20.7031 Q201.5923,20.1221 200.9988,19.8523 Q200.4053,19.5825 199.7744,19.5825 Q198.4297,19.5825 197.7449,20.6492 Q197.0601,21.7158 197.0601,23.8159 Q197.0601,25.9077 197.7449,26.9744 Q198.4297,28.041 199.7744,28.041 Q200.4053,28.041 200.9988,27.7712 Q201.5923,27.5015 202.2231,26.9204 Z "/><text fill="#000000" font-family="sans-serif" font-size="12" lengthAdjust="spacingAndGlyphs" textLength="79" x="219.75" y="28.5352">ImagePolygon</text><line style="stroke: #A80036; stroke-width: 1.5;" x1="7" x2="479" y1="40" y2="40"/><line style="stroke: #A80036; stroke-width: 1.5;" x1="7" x2="479" y1="48" y2="48"/><ellipse cx="17" cy="59.9775" fill="#84BE84" rx="3" ry="3" style="stroke: #038048; stroke-width: 1.0;"/><text fill="#000000" font-family="sans-serif" font-size="11" lengthAdjust="spacingAndGlyphs" textLength="448" x="26" y="62.6348">ImagePolygon(Size, double, double, double, double, double, double, double, double)</text><ellipse cx="17" cy="72.9326" fill="#84BE84" rx="3" ry="3" style="stroke: #038048; stroke-width: 1.0;"/><text fill="#000000" font-family="sans-serif" font-size="11" lengthAdjust="spacingAndGlyphs" textLength="118" x="26" y="75.5898">ImagePolygon(Point[])</text><ellipse cx="17" cy="85.8877" fill="#84BE84" rx="3" ry="3" style="stroke: #038048; stroke-width: 1.0;"/><text fill="#000000" font-family="sans-serif" font-size="11" lengthAdjust="spacingAndGlyphs" textLength="129" x="26" y="88.5449">ImagePolygon(Size, ROI)</text></a><text fill="#888888" font-family="sans-serif" font-size="10" lengthAdjust="spacingAndGlyphs" textLength="182" x="158" y="114.668">UMLDoclet 1.1.4, PlantUML 1.2019.05</text><!--
@startuml

    class ImagePolygon [[ImagePolygon.html]] {
        +ImagePolygon(Size, double, double, double, double, double, double, double, double)
        +ImagePolygon(Point[])
        +ImagePolygon(Size, ROI)
    }


    center footer UMLDoclet 1.1.4, PlantUML 1.2019.05
@enduml

PlantUML version 1.2019.05(Sat Apr 20 18:45:36 CEST 2019)
(APACHE source distribution)
Java Runtime: Java(TM) SE Runtime Environment
JVM: Java HotSpot(TM) 64-Bit Server VM
Java Version: 1.8.0_152-b16
Operating System: Mac OS X
OS Version: 10.13.6
Default Encoding: UTF-8
Language: de
Country: DE
--></g></svg>