<?xml version="1.0" encoding="UTF-8" standalone="no"?><svg xmlns="http://www.w3.org/2000/svg" xmlns:xlink="http://www.w3.org/1999/xlink" contentScriptType="application/ecmascript" contentStyleType="text/css" height="378px" preserveAspectRatio="none" style="width:1089px;height:378px;" version="1.1" viewBox="0 0 1089 378" width="1089px" zoomAndPan="magnify"><defs><filter height="300%" id="f1pao1s1eshp2f" width="300%" x="-1" y="-1"><feGaussianBlur result="blurOut" stdDeviation="2.0"/><feColorMatrix in="blurOut" result="blurOut2" type="matrix" values="0 0 0 0 0 0 0 0 0 0 0 0 0 0 0 0 0 0 .4 0"/><feOffset dx="4.0" dy="4.0" in="blurOut2" result="blurOut3"/><feBlend in="SourceGraphic" in2="blurOut3" mode="normal"/></filter></defs><g><!--cluster org.rcdukes.camera--><polygon fill="#FFFFFF" filter="url(#f1pao1s1eshp2f)" points="14,124,157,124,164,146.4883,1067,146.4883,1067,337,14,337,14,124" style="stroke: #000000; stroke-width: 1.5;"/><line style="stroke: #000000; stroke-width: 1.5;" x1="14" x2="164" y1="146.4883" y2="146.4883"/><text fill="#000000" font-family="sans-serif" font-size="14" font-weight="bold" lengthAdjust="spacingAndGlyphs" textLength="137" x="18" y="139.5352">org.rcdukes.camera</text><!--cluster org.rcdukes.geometry--><polygon fill="#FFFFFF" filter="url(#f1pao1s1eshp2f)" points="174,16,334,16,341,38.4883,344,38.4883,344,99,174,99,174,16" style="stroke: #000000; stroke-width: 1.5;"/><line style="stroke: #000000; stroke-width: 1.5;" x1="174" x2="341" y1="38.4883" y2="38.4883"/><text fill="#000000" font-family="sans-serif" font-size="14" font-weight="bold" lengthAdjust="spacingAndGlyphs" textLength="154" x="178" y="31.5352">org.rcdukes.geometry</text><!--cluster java.util.function--><polygon fill="#FFFFFF" filter="url(#f1pao1s1eshp2f)" points="739,16,865,16,872,38.4883,885,38.4883,885,99,739,99,739,16" style="stroke: #000000; stroke-width: 1.5;"/><line style="stroke: #000000; stroke-width: 1.5;" x1="739" x2="872" y1="38.4883" y2="38.4883"/><text fill="#000000" font-family="sans-serif" font-size="14" font-weight="bold" lengthAdjust="spacingAndGlyphs" textLength="120" x="743" y="31.5352">java.util.function</text><!--class org.rcdukes.camera.ImagePolygon--><a href="ImagePolygon.html" target="_top" xlink:actuate="onRequest" xlink:show="new" xlink:title="ImagePolygon.html" xlink:type="simple"><rect fill="#FEFECE" filter="url(#f1pao1s1eshp2f)" height="86.8652" id="org.rcdukes.camera.ImagePolygon" style="stroke: #A80036; stroke-width: 1.5;" width="474" x="22" y="196.5"/><ellipse cx="215.25" cy="212.5" fill="#ADD1B2" rx="11" ry="11" style="stroke: #A80036; stroke-width: 1.0;"/><path d="M218.2231,218.1431 Q217.6421,218.4419 217.0029,218.5913 Q216.3638,218.7407 215.6582,218.7407 Q213.1514,218.7407 211.8315,217.0889 Q210.5117,215.437 210.5117,212.3159 Q210.5117,209.1865 211.8315,207.5347 Q213.1514,205.8828 215.6582,205.8828 Q216.3638,205.8828 217.0112,206.0322 Q217.6587,206.1816 218.2231,206.4805 L218.2231,209.2031 Q217.5923,208.6221 216.9988,208.3523 Q216.4053,208.0825 215.7744,208.0825 Q214.4297,208.0825 213.7449,209.1492 Q213.0601,210.2158 213.0601,212.3159 Q213.0601,214.4077 213.7449,215.4744 Q214.4297,216.541 215.7744,216.541 Q216.4053,216.541 216.9988,216.2712 Q217.5923,216.0015 218.2231,215.4204 Z "/><text fill="#000000" font-family="sans-serif" font-size="12" lengthAdjust="spacingAndGlyphs" textLength="79" x="235.75" y="217.0352">ImagePolygon</text><line style="stroke: #A80036; stroke-width: 1.5;" x1="23" x2="495" y1="228.5" y2="228.5"/><line style="stroke: #A80036; stroke-width: 1.5;" x1="23" x2="495" y1="236.5" y2="236.5"/><ellipse cx="33" cy="248.4775" fill="#84BE84" rx="3" ry="3" style="stroke: #038048; stroke-width: 1.0;"/><text fill="#000000" font-family="sans-serif" font-size="11" lengthAdjust="spacingAndGlyphs" textLength="448" x="42" y="251.1348">ImagePolygon(Size, double, double, double, double, double, double, double, double)</text><ellipse cx="33" cy="261.4326" fill="#84BE84" rx="3" ry="3" style="stroke: #038048; stroke-width: 1.0;"/><text fill="#000000" font-family="sans-serif" font-size="11" lengthAdjust="spacingAndGlyphs" textLength="118" x="42" y="264.0898">ImagePolygon(Point[])</text><ellipse cx="33" cy="274.3877" fill="#84BE84" rx="3" ry="3" style="stroke: #038048; stroke-width: 1.0;"/><text fill="#000000" font-family="sans-serif" font-size="11" lengthAdjust="spacingAndGlyphs" textLength="129" x="42" y="277.0449">ImagePolygon(Size, ROI)</text></a><!--class org.rcdukes.camera.CameraMatrix--><a href="CameraMatrix.html" target="_top" xlink:actuate="onRequest" xlink:show="new" xlink:title="CameraMatrix.html" xlink:type="simple"><rect fill="#FEFECE" filter="url(#f1pao1s1eshp2f)" height="177.5508" id="org.rcdukes.camera.CameraMatrix" style="stroke: #A80036; stroke-width: 1.5;" width="281" x="531.5" y="151"/><ellipse cx="627.25" cy="167" fill="#ADD1B2" rx="11" ry="11" style="stroke: #A80036; stroke-width: 1.0;"/><path d="M630.2231,172.6431 Q629.6421,172.9419 629.0029,173.0913 Q628.3638,173.2407 627.6582,173.2407 Q625.1514,173.2407 623.8315,171.5889 Q622.5117,169.937 622.5117,166.8159 Q622.5117,163.6865 623.8315,162.0347 Q625.1514,160.3828 627.6582,160.3828 Q628.3638,160.3828 629.0112,160.5322 Q629.6587,160.6816 630.2231,160.9805 L630.2231,163.7031 Q629.5923,163.1221 628.9988,162.8523 Q628.4053,162.5825 627.7744,162.5825 Q626.4297,162.5825 625.7449,163.6492 Q625.0601,164.7158 625.0601,166.8159 Q625.0601,168.9077 625.7449,169.9744 Q626.4297,171.041 627.7744,171.041 Q628.4053,171.041 628.9988,170.7712 Q629.5923,170.5015 630.2231,169.9204 Z "/><text fill="#000000" font-family="sans-serif" font-size="12" lengthAdjust="spacingAndGlyphs" textLength="81" x="647.75" y="171.5352">CameraMatrix</text><line style="stroke: #A80036; stroke-width: 1.5;" x1="532.5" x2="811.5" y1="183" y2="183"/><ellipse cx="542.5" cy="194.9775" fill="none" rx="3" ry="3" style="stroke: #038048; stroke-width: 1.0;"/><text fill="#000000" font-family="sans-serif" font-size="11" lengthAdjust="spacingAndGlyphs" text-decoration="underline" textLength="130" x="551.5" y="197.6348">DEFAULT: CameraMatrix</text><line style="stroke: #A80036; stroke-width: 1.5;" x1="532.5" x2="811.5" y1="203.9551" y2="203.9551"/><ellipse cx="542.5" cy="215.9326" fill="#84BE84" rx="3" ry="3" style="stroke: #038048; stroke-width: 1.0;"/><text fill="#000000" font-family="sans-serif" font-size="11" lengthAdjust="spacingAndGlyphs" textLength="117" x="551.5" y="218.5898">CameraMatrix(int, int)</text><ellipse cx="542.5" cy="228.8877" fill="#84BE84" rx="3" ry="3" style="stroke: #038048; stroke-width: 1.0;"/><text fill="#000000" font-family="sans-serif" font-size="11" lengthAdjust="spacingAndGlyphs" textLength="118" x="551.5" y="231.5449">getRvecs(): List&lt;Mat&gt;</text><ellipse cx="542.5" cy="241.8428" fill="#84BE84" rx="3" ry="3" style="stroke: #038048; stroke-width: 1.0;"/><text fill="#000000" font-family="sans-serif" font-size="11" lengthAdjust="spacingAndGlyphs" textLength="118" x="551.5" y="244.5">getTvecs(): List&lt;Mat&gt;</text><ellipse cx="542.5" cy="254.7979" fill="#84BE84" rx="3" ry="3" style="stroke: #038048; stroke-width: 1.0;"/><text fill="#000000" font-family="sans-serif" font-size="11" lengthAdjust="spacingAndGlyphs" textLength="110" x="551.5" y="257.4551">calibrate(Mat[]): void</text><ellipse cx="542.5" cy="267.7529" fill="#84BE84" rx="3" ry="3" style="stroke: #038048; stroke-width: 1.0;"/><text fill="#000000" font-family="sans-serif" font-size="11" lengthAdjust="spacingAndGlyphs" textLength="255" x="551.5" y="270.4102">findOuterChessBoardCornerPoints(Mat): Point[]</text><ellipse cx="542.5" cy="280.708" fill="#84BE84" rx="3" ry="3" style="stroke: #038048; stroke-width: 1.0;"/><text fill="#000000" font-family="sans-serif" font-size="11" lengthAdjust="spacingAndGlyphs" textLength="167" x="551.5" y="283.3652">addCalibrationImage(Mat): void</text><ellipse cx="542.5" cy="293.6631" fill="#84BE84" rx="3" ry="3" style="stroke: #038048; stroke-width: 1.0;"/><text fill="#000000" font-family="sans-serif" font-size="11" lengthAdjust="spacingAndGlyphs" textLength="81" x="551.5" y="296.3203">apply(Mat): Mat</text><ellipse cx="542.5" cy="306.6182" fill="#84BE84" rx="3" ry="3" style="stroke: #038048; stroke-width: 1.0;"/><text fill="#000000" font-family="sans-serif" font-size="11" lengthAdjust="spacingAndGlyphs" textLength="90" x="551.5" y="309.2754">serialize(): String</text><ellipse cx="542.5" cy="319.5732" fill="#84BE84" rx="3" ry="3" style="stroke: #038048; stroke-width: 1.0;"/><text fill="#000000" font-family="sans-serif" font-size="11" lengthAdjust="spacingAndGlyphs" text-decoration="underline" textLength="184" x="551.5" y="322.2305">deserizalize(String): CameraMatrix</text></a><!--class org.rcdukes.camera.PerspectiveShift--><a href="PerspectiveShift.html" target="_top" xlink:actuate="onRequest" xlink:show="new" xlink:title="PerspectiveShift.html" xlink:type="simple"><rect fill="#FEFECE" filter="url(#f1pao1s1eshp2f)" height="73.9102" id="org.rcdukes.camera.PerspectiveShift" style="stroke: #A80036; stroke-width: 1.5;" width="211" x="847.5" y="203"/><ellipse cx="903.75" cy="219" fill="#ADD1B2" rx="11" ry="11" style="stroke: #A80036; stroke-width: 1.0;"/><path d="M906.7231,224.6431 Q906.1421,224.9419 905.5029,225.0913 Q904.8638,225.2407 904.1582,225.2407 Q901.6514,225.2407 900.3315,223.5889 Q899.0117,221.937 899.0117,218.8159 Q899.0117,215.6865 900.3315,214.0347 Q901.6514,212.3828 904.1582,212.3828 Q904.8638,212.3828 905.5112,212.5322 Q906.1587,212.6816 906.7231,212.9805 L906.7231,215.7031 Q906.0923,215.1221 905.4988,214.8523 Q904.9053,214.5825 904.2744,214.5825 Q902.9297,214.5825 902.2449,215.6492 Q901.5601,216.7158 901.5601,218.8159 Q901.5601,220.9077 902.2449,221.9744 Q902.9297,223.041 904.2744,223.041 Q904.9053,223.041 905.4988,222.7712 Q906.0923,222.5015 906.7231,221.9204 Z "/><text fill="#000000" font-family="sans-serif" font-size="12" lengthAdjust="spacingAndGlyphs" textLength="90" x="924.25" y="223.5352">PerspectiveShift</text><line style="stroke: #A80036; stroke-width: 1.5;" x1="848.5" x2="1057.5" y1="235" y2="235"/><line style="stroke: #A80036; stroke-width: 1.5;" x1="848.5" x2="1057.5" y1="243" y2="243"/><ellipse cx="858.5" cy="254.9775" fill="#84BE84" rx="3" ry="3" style="stroke: #038048; stroke-width: 1.0;"/><text fill="#000000" font-family="sans-serif" font-size="11" lengthAdjust="spacingAndGlyphs" textLength="185" x="867.5" y="257.6348">PerspectiveShift(Polygon, Polygon)</text><ellipse cx="858.5" cy="267.9326" fill="#84BE84" rx="3" ry="3" style="stroke: #038048; stroke-width: 1.0;"/><text fill="#000000" font-family="sans-serif" font-size="11" lengthAdjust="spacingAndGlyphs" textLength="81" x="867.5" y="270.5898">apply(Mat): Mat</text></a><!--class org.rcdukes.geometry.Polygon--><rect fill="#FEFECE" filter="url(#f1pao1s1eshp2f)" height="48" id="org.rcdukes.geometry.Polygon" style="stroke: #A80036; stroke-width: 1.5;" width="76" x="221" y="43"/><ellipse cx="236" cy="59" fill="#ADD1B2" rx="11" ry="11" style="stroke: #A80036; stroke-width: 1.0;"/><path d="M238.9731,64.6431 Q238.3921,64.9419 237.7529,65.0913 Q237.1138,65.2407 236.4082,65.2407 Q233.9014,65.2407 232.5815,63.5889 Q231.2617,61.937 231.2617,58.8159 Q231.2617,55.6865 232.5815,54.0347 Q233.9014,52.3828 236.4082,52.3828 Q237.1138,52.3828 237.7612,52.5322 Q238.4087,52.6816 238.9731,52.9805 L238.9731,55.7031 Q238.3423,55.1221 237.7488,54.8523 Q237.1553,54.5825 236.5244,54.5825 Q235.1797,54.5825 234.4949,55.6492 Q233.8101,56.7158 233.8101,58.8159 Q233.8101,60.9077 234.4949,61.9744 Q235.1797,63.041 236.5244,63.041 Q237.1553,63.041 237.7488,62.7712 Q238.3423,62.5015 238.9731,61.9204 Z "/><text fill="#000000" font-family="sans-serif" font-size="12" lengthAdjust="spacingAndGlyphs" textLength="44" x="250" y="63.5352">Polygon</text><line style="stroke: #A80036; stroke-width: 1.5;" x1="222" x2="296" y1="75" y2="75"/><line style="stroke: #A80036; stroke-width: 1.5;" x1="222" x2="296" y1="83" y2="83"/><!--class java.util.function.UnaryOperator--><rect fill="#FEFECE" filter="url(#f1pao1s1eshp2f)" height="48" id="java.util.function.UnaryOperator" style="stroke: #A80036; stroke-width: 1.5;" width="129" x="747.5" y="43"/><ellipse cx="762.5" cy="59" fill="#B4A7E5" rx="11" ry="11" style="stroke: #A80036; stroke-width: 1.0;"/><path d="M758.4277,54.7651 L758.4277,52.6069 L765.8071,52.6069 L765.8071,54.7651 L763.3418,54.7651 L763.3418,62.8418 L765.8071,62.8418 L765.8071,65 L758.4277,65 L758.4277,62.8418 L760.8931,62.8418 L760.8931,54.7651 Z "/><text fill="#000000" font-family="sans-serif" font-size="12" font-style="italic" lengthAdjust="spacingAndGlyphs" textLength="85" x="776.5" y="63.5352">UnaryOperator</text><rect fill="#FFFFFF" height="16.1328" style="stroke: #000000; stroke-width: 1.0; stroke-dasharray: 2.0,2.0;" width="10" x="869.5" y="40"/><text fill="#000000" font-family="sans-serif" font-size="12" font-style="italic" lengthAdjust="spacingAndGlyphs" textLength="8" x="870.5" y="52.6016">T</text><line style="stroke: #A80036; stroke-width: 1.5;" x1="748.5" x2="875.5" y1="75" y2="75"/><line style="stroke: #A80036; stroke-width: 1.5;" x1="748.5" x2="875.5" y1="83" y2="83"/><!--link org.rcdukes.geometry.Polygon to org.rcdukes.camera.ImagePolygon--><path d="M259,111.135 C259,137.3298 259,170.4075 259,196.4914 " fill="none" id="org.rcdukes.geometry.Polygon-org.rcdukes.camera.ImagePolygon" style="stroke: #A80036; stroke-width: 1.0;"/><polygon fill="none" points="252.0001,111.0549,259,91.0549,266.0001,111.0549,252.0001,111.0549" style="stroke: #A80036; stroke-width: 1.0;"/><!--link java.util.function.UnaryOperator to org.rcdukes.camera.CameraMatrix--><path d="M779.9277,106.6322 C769.154,119.9454 756.6632,135.3805 744.0826,150.9266 " fill="none" id="java.util.function.UnaryOperator-org.rcdukes.camera.CameraMatrix" style="stroke: #A80036; stroke-width: 1.0; stroke-dasharray: 7.0,7.0;"/><polygon fill="none" points="774.5107,102.1984,792.5336,91.0549,785.3936,111.0054,774.5107,102.1984" style="stroke: #A80036; stroke-width: 1.0;"/><!--link java.util.function.UnaryOperator to org.rcdukes.camera.PerspectiveShift--><path d="M844.4156,106.7724 C867.9792,135.6837 899.6533,174.5462 922.7087,202.834 " fill="none" id="java.util.function.UnaryOperator-org.rcdukes.camera.PerspectiveShift" style="stroke: #A80036; stroke-width: 1.0; stroke-dasharray: 7.0,7.0;"/><polygon fill="none" points="838.8149,110.9804,831.6054,91.0549,849.667,102.1356,838.8149,110.9804" style="stroke: #A80036; stroke-width: 1.0;"/><text fill="#888888" font-family="sans-serif" font-size="10" lengthAdjust="spacingAndGlyphs" textLength="182" x="455.5" y="364.668">UMLDoclet 1.1.4, PlantUML 1.2019.05</text><!--
@startuml

    namespace org.rcdukes.camera {

        class ImagePolygon [[ImagePolygon.html]] {
            +ImagePolygon(Size, double, double, double, double, double, double, double, double)
            +ImagePolygon(Point[])
            +ImagePolygon(Size, ROI)
        }

        class CameraMatrix [[CameraMatrix.html]] {
            {static} +DEFAULT: CameraMatrix
            +CameraMatrix(int, int)
            +getRvecs(): List<Mat>
            +getTvecs(): List<Mat>
            +calibrate(Mat[]): void
            +findOuterChessBoardCornerPoints(Mat): Point[]
            +addCalibrationImage(Mat): void
            +apply(Mat): Mat
            +serialize(): String
            {static} +deserizalize(String): CameraMatrix
        }

        class PerspectiveShift [[PerspectiveShift.html]] {
            +PerspectiveShift(Polygon, Polygon)
            +apply(Mat): Mat
        }

        class org.rcdukes.geometry.Polygon
        org.rcdukes.geometry.Polygon <|- - ImagePolygon

        interface java.util.function.UnaryOperator<T>
        java.util.function.UnaryOperator <|.. CameraMatrix

        java.util.function.UnaryOperator <|.. PerspectiveShift

    }


    center footer UMLDoclet 1.1.4, PlantUML 1.2019.05
@enduml

PlantUML version 1.2019.05(Sat Apr 20 18:45:36 CEST 2019)
(APACHE source distribution)
Java Runtime: Java(TM) SE Runtime Environment
JVM: Java HotSpot(TM) 64-Bit Server VM
Java Version: 1.8.0_152-b16
Operating System: Mac OS X
OS Version: 10.13.6
Default Encoding: UTF-8
Language: de
Country: DE
--></g></svg>