<?xml version="1.0" encoding="UTF-8" standalone="no"?><svg xmlns="http://www.w3.org/2000/svg" xmlns:xlink="http://www.w3.org/1999/xlink" contentScriptType="application/ecmascript" contentStyleType="text/css" height="274px" preserveAspectRatio="none" style="width:583px;height:274px;" version="1.1" viewBox="0 0 583 274" width="583px" zoomAndPan="magnify"><defs><filter height="300%" id="fae1druwg1axf" width="300%" x="-1" y="-1"><feGaussianBlur result="blurOut" stdDeviation="2.0"/><feColorMatrix in="blurOut" result="blurOut2" type="matrix" values="0 0 0 0 0 0 0 0 0 0 0 0 0 0 0 0 0 0 .4 0"/><feOffset dx="4.0" dy="4.0" in="blurOut2" result="blurOut3"/><feBlend in="SourceGraphic" in2="blurOut3" mode="normal"/></filter></defs><g><!--cluster nl.vaneijndhoven.dukes.enos.geometry.pointinplane--><polygon fill="#FFFFFF" filter="url(#fae1druwg1axf)" points="14,16,389,16,396,38.4883,561,38.4883,561,233,14,233,14,16" style="stroke: #000000; stroke-width: 1.5;"/><line style="stroke: #000000; stroke-width: 1.5;" x1="14" x2="396" y1="38.4883" y2="38.4883"/><text fill="#000000" font-family="sans-serif" font-size="14" font-weight="bold" lengthAdjust="spacingAndGlyphs" textLength="369" x="18" y="31.5352">nl.vaneijndhoven.dukes.enos.geometry.pointinplane</text><!--class nl.vaneijndhoven.dukes.enos.geometry.pointinplane.PointInPlane--><a href="PointInPlane.html" target="_top" xlink:actuate="onRequest" xlink:show="new" xlink:title="PointInPlane.html" xlink:type="simple"><rect fill="#FEFECE" filter="url(#fae1druwg1axf)" height="60.9551" id="nl.vaneijndhoven.dukes.enos.geometry.pointinplane.PointInPlane" style="stroke: #A80036; stroke-width: 1.5;" width="248" x="163" y="43"/><ellipse cx="248.25" cy="59" fill="#B4A7E5" rx="11" ry="11" style="stroke: #A80036; stroke-width: 1.0;"/><path d="M244.1777,54.7651 L244.1777,52.6069 L251.5571,52.6069 L251.5571,54.7651 L249.0918,54.7651 L249.0918,62.8418 L251.5571,62.8418 L251.5571,65 L244.1777,65 L244.1777,62.8418 L246.6431,62.8418 L246.6431,54.7651 Z "/><text fill="#000000" font-family="sans-serif" font-size="12" font-style="italic" lengthAdjust="spacingAndGlyphs" textLength="69" x="268.75" y="63.5352">PointInPlane</text><line style="stroke: #A80036; stroke-width: 1.5;" x1="164" x2="410" y1="75" y2="75"/><line style="stroke: #A80036; stroke-width: 1.5;" x1="164" x2="410" y1="83" y2="83"/><ellipse cx="174" cy="94.9775" fill="#84BE84" rx="3" ry="3" style="stroke: #038048; stroke-width: 1.0;"/><text fill="#000000" font-family="sans-serif" font-size="11" font-style="italic" lengthAdjust="spacingAndGlyphs" textLength="222" x="183" y="97.6348">isPointInPlane(Point2D, Polygon): boolean</text></a><!--class nl.vaneijndhoven.dukes.enos.geometry.pointinplane.WindingNumbers--><a href="WindingNumbers.html" target="_top" xlink:actuate="onRequest" xlink:show="new" xlink:title="WindingNumbers.html" xlink:type="simple"><rect fill="#FEFECE" filter="url(#fae1druwg1axf)" height="60.9551" id="nl.vaneijndhoven.dukes.enos.geometry.pointinplane.WindingNumbers" style="stroke: #A80036; stroke-width: 1.5;" width="248" x="22" y="164"/><ellipse cx="92.75" cy="180" fill="#ADD1B2" rx="11" ry="11" style="stroke: #A80036; stroke-width: 1.0;"/><path d="M95.7231,185.6431 Q95.1421,185.9419 94.5029,186.0913 Q93.8638,186.2407 93.1582,186.2407 Q90.6514,186.2407 89.3315,184.5889 Q88.0117,182.937 88.0117,179.8159 Q88.0117,176.6865 89.3315,175.0347 Q90.6514,173.3828 93.1582,173.3828 Q93.8638,173.3828 94.5112,173.5322 Q95.1587,173.6816 95.7231,173.9805 L95.7231,176.7031 Q95.0923,176.1221 94.4988,175.8523 Q93.9053,175.5825 93.2744,175.5825 Q91.9297,175.5825 91.2449,176.6492 Q90.5601,177.7158 90.5601,179.8159 Q90.5601,181.9077 91.2449,182.9744 Q91.9297,184.041 93.2744,184.041 Q93.9053,184.041 94.4988,183.7712 Q95.0923,183.5015 95.7231,182.9204 Z "/><text fill="#000000" font-family="sans-serif" font-size="12" lengthAdjust="spacingAndGlyphs" textLength="98" x="113.25" y="184.5352">WindingNumbers</text><line style="stroke: #A80036; stroke-width: 1.5;" x1="23" x2="269" y1="196" y2="196"/><line style="stroke: #A80036; stroke-width: 1.5;" x1="23" x2="269" y1="204" y2="204"/><ellipse cx="33" cy="215.9775" fill="#84BE84" rx="3" ry="3" style="stroke: #038048; stroke-width: 1.0;"/><text fill="#000000" font-family="sans-serif" font-size="11" lengthAdjust="spacingAndGlyphs" textLength="222" x="42" y="218.6348">isPointInPlane(Point2D, Polygon): boolean</text></a><!--class nl.vaneijndhoven.dukes.enos.geometry.pointinplane.CrossingNumber--><a href="CrossingNumber.html" target="_top" xlink:actuate="onRequest" xlink:show="new" xlink:title="CrossingNumber.html" xlink:type="simple"><rect fill="#FEFECE" filter="url(#fae1druwg1axf)" height="60.9551" id="nl.vaneijndhoven.dukes.enos.geometry.pointinplane.CrossingNumber" style="stroke: #A80036; stroke-width: 1.5;" width="248" x="305" y="164"/><ellipse cx="376.75" cy="180" fill="#ADD1B2" rx="11" ry="11" style="stroke: #A80036; stroke-width: 1.0;"/><path d="M379.7231,185.6431 Q379.1421,185.9419 378.5029,186.0913 Q377.8638,186.2407 377.1582,186.2407 Q374.6514,186.2407 373.3315,184.5889 Q372.0117,182.937 372.0117,179.8159 Q372.0117,176.6865 373.3315,175.0347 Q374.6514,173.3828 377.1582,173.3828 Q377.8638,173.3828 378.5112,173.5322 Q379.1587,173.6816 379.7231,173.9805 L379.7231,176.7031 Q379.0923,176.1221 378.4988,175.8523 Q377.9053,175.5825 377.2744,175.5825 Q375.9297,175.5825 375.2449,176.6492 Q374.5601,177.7158 374.5601,179.8159 Q374.5601,181.9077 375.2449,182.9744 Q375.9297,184.041 377.2744,184.041 Q377.9053,184.041 378.4988,183.7712 Q379.0923,183.5015 379.7231,182.9204 Z "/><text fill="#000000" font-family="sans-serif" font-size="12" lengthAdjust="spacingAndGlyphs" textLength="96" x="397.25" y="184.5352">CrossingNumber</text><line style="stroke: #A80036; stroke-width: 1.5;" x1="306" x2="552" y1="196" y2="196"/><line style="stroke: #A80036; stroke-width: 1.5;" x1="306" x2="552" y1="204" y2="204"/><ellipse cx="316" cy="215.9775" fill="#84BE84" rx="3" ry="3" style="stroke: #038048; stroke-width: 1.0;"/><text fill="#000000" font-family="sans-serif" font-size="11" lengthAdjust="spacingAndGlyphs" textLength="222" x="325" y="218.6348">isPointInPlane(Point2D, Polygon): boolean</text></a><!--link nl.vaneijndhoven.dukes.enos.geometry.pointinplane.PointInPlane to nl.vaneijndhoven.dukes.enos.geometry.pointinplane.WindingNumbers--><path d="M236.1428,117.1434 C218.058,132.663 198.0992,149.7908 181.5689,163.9764 " fill="none" id="nl.vaneijndhoven.dukes.enos.geometry.pointinplane.PointInPlane-nl.vaneijndhoven.dukes.enos.geometry.pointinplane.WindingNumbers" style="stroke: #A80036; stroke-width: 1.0; stroke-dasharray: 7.0,7.0;"/><polygon fill="none" points="231.6835,111.746,251.4197,104.0334,240.8008,122.3703,231.6835,111.746" style="stroke: #A80036; stroke-width: 1.0;"/><!--link nl.vaneijndhoven.dukes.enos.geometry.pointinplane.PointInPlane to nl.vaneijndhoven.dukes.enos.geometry.pointinplane.CrossingNumber--><path d="M338.2179,117.1434 C356.431,132.663 376.5313,149.7908 393.1789,163.9764 " fill="none" id="nl.vaneijndhoven.dukes.enos.geometry.pointinplane.PointInPlane-nl.vaneijndhoven.dukes.enos.geometry.pointinplane.CrossingNumber" style="stroke: #A80036; stroke-width: 1.0; stroke-dasharray: 7.0,7.0;"/><polygon fill="none" points="333.5154,122.3331,322.8326,104.0334,342.5956,111.677,333.5154,122.3331" style="stroke: #A80036; stroke-width: 1.0;"/><text fill="#888888" font-family="sans-serif" font-size="10" lengthAdjust="spacingAndGlyphs" textLength="182" x="202.5" y="260.668">UMLDoclet 1.1.4, PlantUML 1.2019.05</text><!--
@startuml

    namespace nl.vaneijndhoven.dukes.enos.geometry.pointinplane {

        interface PointInPlane [[PointInPlane.html]] {
            {abstract} +isPointInPlane(Point2D, Polygon): boolean
        }

        class WindingNumbers [[WindingNumbers.html]] {
            +isPointInPlane(Point2D, Polygon): boolean
        }

        class CrossingNumber [[CrossingNumber.html]] {
            +isPointInPlane(Point2D, Polygon): boolean
        }

        PointInPlane <|.. WindingNumbers

        PointInPlane <|.. CrossingNumber

    }


    center footer UMLDoclet 1.1.4, PlantUML 1.2019.05
@enduml

PlantUML version 1.2019.05(Sat Apr 20 18:45:36 CEST 2019)
(APACHE source distribution)
Java Runtime: Java(TM) SE Runtime Environment
JVM: Java HotSpot(TM) 64-Bit Server VM
Java Version: 1.8.0_152-b16
Operating System: Mac OS X
OS Version: 10.13.6
Default Encoding: UTF-8
Language: de
Country: DE
--></g></svg>