<?xml version="1.0" encoding="UTF-8" standalone="no"?><svg xmlns="http://www.w3.org/2000/svg" xmlns:xlink="http://www.w3.org/1999/xlink" contentScriptType="application/ecmascript" contentStyleType="text/css" height="180px" preserveAspectRatio="none" style="width:212px;height:180px;" version="1.1" viewBox="0 0 212 180" width="212px" zoomAndPan="magnify"><defs><filter height="300%" id="fh0c4ikklsrli" width="300%" x="-1" y="-1"><feGaussianBlur result="blurOut" stdDeviation="2.0"/><feColorMatrix in="blurOut" result="blurOut2" type="matrix" values="0 0 0 0 0 0 0 0 0 0 0 0 0 0 0 0 0 0 .4 0"/><feOffset dx="4.0" dy="4.0" in="blurOut2" result="blurOut3"/><feBlend in="SourceGraphic" in2="blurOut3" mode="normal"/></filter></defs><g><!--class CameraGUI--><a href="CameraGUI.html" target="_top" xlink:actuate="onRequest" xlink:show="new" xlink:title="CameraGUI.html" xlink:type="simple"><rect fill="#FEFECE" filter="url(#fh0c4ikklsrli)" height="138.6855" id="CameraGUI" style="stroke: #A80036; stroke-width: 1.5;" width="194" x="6" y="8"/><ellipse cx="66.25" cy="24" fill="#ADD1B2" rx="11" ry="11" style="stroke: #A80036; stroke-width: 1.0;"/><path d="M69.2231,29.6431 Q68.6421,29.9419 68.0029,30.0913 Q67.3638,30.2407 66.6582,30.2407 Q64.1514,30.2407 62.8315,28.5889 Q61.5117,26.937 61.5117,23.8159 Q61.5117,20.6865 62.8315,19.0347 Q64.1514,17.3828 66.6582,17.3828 Q67.3638,17.3828 68.0112,17.5322 Q68.6587,17.6816 69.2231,17.9805 L69.2231,20.7031 Q68.5923,20.1221 67.9988,19.8523 Q67.4053,19.5825 66.7744,19.5825 Q65.4297,19.5825 64.7449,20.6492 Q64.0601,21.7158 64.0601,23.8159 Q64.0601,25.9077 64.7449,26.9744 Q65.4297,28.041 66.7744,28.041 Q67.4053,28.041 67.9988,27.7712 Q68.5923,27.5015 69.2231,26.9204 Z "/><text fill="#000000" font-family="sans-serif" font-size="12" lengthAdjust="spacingAndGlyphs" textLength="65" x="86.75" y="28.5352">CameraGUI</text><line style="stroke: #A80036; stroke-width: 1.5;" x1="7" x2="199" y1="40" y2="40"/><ellipse cx="17" cy="51.9775" fill="none" rx="3" ry="3" style="stroke: #038048; stroke-width: 1.0;"/><text fill="#000000" font-family="sans-serif" font-size="11" lengthAdjust="spacingAndGlyphs" textLength="127" x="26" y="54.6348">roiy: LabeledValueSlider</text><ellipse cx="17" cy="64.9326" fill="none" rx="3" ry="3" style="stroke: #038048; stroke-width: 1.0;"/><text fill="#000000" font-family="sans-serif" font-size="11" lengthAdjust="spacingAndGlyphs" textLength="128" x="26" y="67.5898">roih: LabeledValueSlider</text><ellipse cx="17" cy="77.8877" fill="none" rx="3" ry="3" style="stroke: #038048; stroke-width: 1.0;"/><text fill="#000000" font-family="sans-serif" font-size="11" lengthAdjust="spacingAndGlyphs" textLength="168" x="26" y="80.5449">angleOffset: LabeledValueSlider</text><ellipse cx="17" cy="90.8428" fill="none" rx="3" ry="3" style="stroke: #038048; stroke-width: 1.0;"/><text fill="#000000" font-family="sans-serif" font-size="11" lengthAdjust="spacingAndGlyphs" textLength="82" x="26" y="93.5">imageWidth: int</text><ellipse cx="17" cy="103.7979" fill="none" rx="3" ry="3" style="stroke: #038048; stroke-width: 1.0;"/><text fill="#000000" font-family="sans-serif" font-size="11" lengthAdjust="spacingAndGlyphs" textLength="162" x="26" y="106.4551">showStoppingZone: CheckBox</text><line style="stroke: #A80036; stroke-width: 1.5;" x1="7" x2="199" y1="112.7754" y2="112.7754"/><ellipse cx="17" cy="124.7529" fill="#84BE84" rx="3" ry="3" style="stroke: #038048; stroke-width: 1.0;"/><text fill="#000000" font-family="sans-serif" font-size="11" lengthAdjust="spacingAndGlyphs" textLength="81" x="26" y="127.4102">initialize(): void</text><ellipse cx="17" cy="137.708" fill="#84BE84" rx="3" ry="3" style="stroke: #038048; stroke-width: 1.0;"/><text fill="#000000" font-family="sans-serif" font-size="11" lengthAdjust="spacingAndGlyphs" textLength="131" x="26" y="140.3652">applySliderValues(): void</text></a><text fill="#888888" font-family="sans-serif" font-size="10" lengthAdjust="spacingAndGlyphs" textLength="182" x="18" y="166.668">UMLDoclet 1.1.4, PlantUML 1.2019.05</text><!--
@startuml

    class CameraGUI [[CameraGUI.html]] {
        +roiy: LabeledValueSlider
        +roih: LabeledValueSlider
        +angleOffset: LabeledValueSlider
        +imageWidth: int
        +showStoppingZone: CheckBox
        +initialize(): void
        +applySliderValues(): void
    }


    center footer UMLDoclet 1.1.4, PlantUML 1.2019.05
@enduml

PlantUML version 1.2019.05(Sat Apr 20 18:45:36 CEST 2019)
(APACHE source distribution)
Java Runtime: Java(TM) SE Runtime Environment
JVM: Java HotSpot(TM) 64-Bit Server VM
Java Version: 1.8.0_152-b16
Operating System: Mac OS X
OS Version: 10.13.6
Default Encoding: UTF-8
Language: de
Country: DE
--></g></svg>