<?xml version="1.0" encoding="UTF-8" standalone="no"?><svg xmlns="http://www.w3.org/2000/svg" xmlns:xlink="http://www.w3.org/1999/xlink" contentScriptType="application/ecmascript" contentStyleType="text/css" height="102px" preserveAspectRatio="none" style="width:281px;height:102px;" version="1.1" viewBox="0 0 281 102" width="281px" zoomAndPan="magnify"><defs><filter height="300%" id="fihpdtm1zm4g1" width="300%" x="-1" y="-1"><feGaussianBlur result="blurOut" stdDeviation="2.0"/><feColorMatrix in="blurOut" result="blurOut2" type="matrix" values="0 0 0 0 0 0 0 0 0 0 0 0 0 0 0 0 0 0 .4 0"/><feOffset dx="4.0" dy="4.0" in="blurOut2" result="blurOut3"/><feBlend in="SourceGraphic" in2="blurOut3" mode="normal"/></filter></defs><g><!--class LaneDetectionGUI--><a href="LaneDetectionGUI.html" target="_top" xlink:actuate="onRequest" xlink:show="new" xlink:title="LaneDetectionGUI.html" xlink:type="simple"><rect fill="#FEFECE" filter="url(#fihpdtm1zm4g1)" height="60.9551" id="LaneDetectionGUI" style="stroke: #A80036; stroke-width: 1.5;" width="264" x="6" y="8"/><ellipse cx="83.25" cy="24" fill="#ADD1B2" rx="11" ry="11" style="stroke: #A80036; stroke-width: 1.0;"/><path d="M86.2231,29.6431 Q85.6421,29.9419 85.0029,30.0913 Q84.3638,30.2407 83.6582,30.2407 Q81.1514,30.2407 79.8315,28.5889 Q78.5117,26.937 78.5117,23.8159 Q78.5117,20.6865 79.8315,19.0347 Q81.1514,17.3828 83.6582,17.3828 Q84.3638,17.3828 85.0112,17.5322 Q85.6587,17.6816 86.2231,17.9805 L86.2231,20.7031 Q85.5923,20.1221 84.9988,19.8523 Q84.4053,19.5825 83.7744,19.5825 Q82.4297,19.5825 81.7449,20.6492 Q81.0601,21.7158 81.0601,23.8159 Q81.0601,25.9077 81.7449,26.9744 Q82.4297,28.041 83.7744,28.041 Q84.4053,28.041 84.9988,27.7712 Q85.5923,27.5015 86.2231,26.9204 Z "/><text fill="#000000" font-family="sans-serif" font-size="12" lengthAdjust="spacingAndGlyphs" textLength="101" x="103.75" y="28.5352">LaneDetectionGUI</text><line style="stroke: #A80036; stroke-width: 1.5;" x1="7" x2="269" y1="40" y2="40"/><line style="stroke: #A80036; stroke-width: 1.5;" x1="7" x2="269" y1="48" y2="48"/><ellipse cx="17" cy="59.9775" fill="#84BE84" rx="3" ry="3" style="stroke: #038048; stroke-width: 1.0;"/><text fill="#000000" font-family="sans-serif" font-size="11" lengthAdjust="spacingAndGlyphs" textLength="238" x="26" y="62.6348">startCamera(CameraGUI, ImageSource): void</text></a><text fill="#888888" font-family="sans-serif" font-size="10" lengthAdjust="spacingAndGlyphs" textLength="182" x="53" y="88.668">UMLDoclet 1.1.4, PlantUML 1.2019.05</text><!--
@startuml

    class LaneDetectionGUI [[LaneDetectionGUI.html]] {
        +startCamera(CameraGUI, ImageSource): void
    }


    center footer UMLDoclet 1.1.4, PlantUML 1.2019.05
@enduml

PlantUML version 1.2019.05(Sat Apr 20 18:45:36 CEST 2019)
(APACHE source distribution)
Java Runtime: Java(TM) SE Runtime Environment
JVM: Java HotSpot(TM) 64-Bit Server VM
Java Version: 1.8.0_152-b16
Operating System: Mac OS X
OS Version: 10.13.6
Default Encoding: UTF-8
Language: de
Country: DE
--></g></svg>