<?xml version="1.0" encoding="UTF-8" standalone="no"?><svg xmlns="http://www.w3.org/2000/svg" xmlns:xlink="http://www.w3.org/1999/xlink" contentScriptType="application/ecmascript" contentStyleType="text/css" height="361px" preserveAspectRatio="none" style="width:266px;height:361px;" version="1.1" viewBox="0 0 266 361" width="266px" zoomAndPan="magnify"><defs><filter height="300%" id="fmal1eqhuiutf" width="300%" x="-1" y="-1"><feGaussianBlur result="blurOut" stdDeviation="2.0"/><feColorMatrix in="blurOut" result="blurOut2" type="matrix" values="0 0 0 0 0 0 0 0 0 0 0 0 0 0 0 0 0 0 .4 0"/><feOffset dx="4.0" dy="4.0" in="blurOut2" result="blurOut3"/><feBlend in="SourceGraphic" in2="blurOut3" mode="normal"/></filter></defs><g><!--class NavigationGUI--><a href="NavigationGUI.html" target="_top" xlink:actuate="onRequest" xlink:show="new" xlink:title="NavigationGUI.html" xlink:type="simple"><rect fill="#FEFECE" filter="url(#fmal1eqhuiutf)" height="320.0566" id="NavigationGUI" style="stroke: #A80036; stroke-width: 1.5;" width="249" x="6" y="8"/><ellipse cx="86.25" cy="24" fill="#ADD1B2" rx="11" ry="11" style="stroke: #A80036; stroke-width: 1.0;"/><path d="M89.2231,29.6431 Q88.6421,29.9419 88.0029,30.0913 Q87.3638,30.2407 86.6582,30.2407 Q84.1514,30.2407 82.8315,28.5889 Q81.5117,26.937 81.5117,23.8159 Q81.5117,20.6865 82.8315,19.0347 Q84.1514,17.3828 86.6582,17.3828 Q87.3638,17.3828 88.0112,17.5322 Q88.6587,17.6816 89.2231,17.9805 L89.2231,20.7031 Q88.5923,20.1221 87.9988,19.8523 Q87.4053,19.5825 86.7744,19.5825 Q85.4297,19.5825 84.7449,20.6492 Q84.0601,21.7158 84.0601,23.8159 Q84.0601,25.9077 84.7449,26.9744 Q85.4297,28.041 86.7744,28.041 Q87.4053,28.041 87.9988,27.7712 Q88.5923,27.5015 89.2231,26.9204 Z "/><text fill="#000000" font-family="sans-serif" font-size="12" lengthAdjust="spacingAndGlyphs" textLength="80" x="106.75" y="28.5352">NavigationGUI</text><line style="stroke: #A80036; stroke-width: 1.5;" x1="7" x2="254" y1="40" y2="40"/><polygon fill="none" points="17,46.9775,21,50.9775,17,54.9775,13,50.9775" style="stroke: #B38D22; stroke-width: 1.0;"/><text fill="#000000" font-family="sans-serif" font-size="11" lengthAdjust="spacingAndGlyphs" textLength="90" x="26" y="54.6348">upButton: Button</text><polygon fill="none" points="17,59.9326,21,63.9326,17,67.9326,13,63.9326" style="stroke: #B38D22; stroke-width: 1.0;"/><text fill="#000000" font-family="sans-serif" font-size="11" lengthAdjust="spacingAndGlyphs" textLength="123" x="26" y="67.5898">autoPilotButton: Button</text><polygon fill="none" points="17,72.8877,21,76.8877,17,80.8877,13,76.8877" style="stroke: #B38D22; stroke-width: 1.0;"/><text fill="#000000" font-family="sans-serif" font-size="11" lengthAdjust="spacingAndGlyphs" textLength="93" x="26" y="80.5449">leftButton: Button</text><polygon fill="none" points="17,85.8428,21,89.8428,17,93.8428,13,89.8428" style="stroke: #B38D22; stroke-width: 1.0;"/><text fill="#000000" font-family="sans-serif" font-size="11" lengthAdjust="spacingAndGlyphs" textLength="102" x="26" y="93.5">rightButton: Button</text><polygon fill="none" points="17,98.7979,21,102.7979,17,106.7979,13,102.7979" style="stroke: #B38D22; stroke-width: 1.0;"/><text fill="#000000" font-family="sans-serif" font-size="11" lengthAdjust="spacingAndGlyphs" textLength="100" x="26" y="106.4551">stopButton: Button</text><polygon fill="none" points="17,111.7529,21,115.7529,17,119.7529,13,115.7529" style="stroke: #B38D22; stroke-width: 1.0;"/><text fill="#000000" font-family="sans-serif" font-size="11" lengthAdjust="spacingAndGlyphs" textLength="105" x="26" y="119.4102">downButton: Button</text><polygon fill="none" points="17,124.708,21,128.708,17,132.708,13,128.708" style="stroke: #B38D22; stroke-width: 1.0;"/><text fill="#000000" font-family="sans-serif" font-size="11" lengthAdjust="spacingAndGlyphs" textLength="115" x="26" y="132.3652">manualButton: Button</text><polygon fill="none" points="17,137.6631,21,141.6631,17,145.6631,13,141.6631" style="stroke: #B38D22; stroke-width: 1.0;"/><text fill="#000000" font-family="sans-serif" font-size="11" lengthAdjust="spacingAndGlyphs" textLength="106" x="26" y="145.3203">brakeButton: Button</text><polygon fill="none" points="17,150.6182,21,154.6182,17,158.6182,13,154.6182" style="stroke: #B38D22; stroke-width: 1.0;"/><text fill="#000000" font-family="sans-serif" font-size="11" lengthAdjust="spacingAndGlyphs" textLength="110" x="26" y="158.2754">centerButton: Button</text><polygon fill="none" points="17,163.5732,21,167.5732,17,171.5732,13,167.5732" style="stroke: #B38D22; stroke-width: 1.0;"/><text fill="#000000" font-family="sans-serif" font-size="11" lengthAdjust="spacingAndGlyphs" textLength="109" x="26" y="171.2305">powerButton: Button</text><polygon fill="none" points="17,176.5283,21,180.5283,17,184.5283,13,180.5283" style="stroke: #B38D22; stroke-width: 1.0;"/><text fill="#000000" font-family="sans-serif" font-size="11" lengthAdjust="spacingAndGlyphs" textLength="108" x="26" y="184.1855">photoButton: Button</text><polygon fill="none" points="17,189.4834,21,193.4834,17,197.4834,13,193.4834" style="stroke: #B38D22; stroke-width: 1.0;"/><text fill="#000000" font-family="sans-serif" font-size="11" lengthAdjust="spacingAndGlyphs" textLength="112" x="26" y="197.1406">recordButton: Button</text><polygon fill="none" points="17,202.4385,21,206.4385,17,210.4385,13,206.4385" style="stroke: #B38D22; stroke-width: 1.0;"/><text fill="#000000" font-family="sans-serif" font-size="11" lengthAdjust="spacingAndGlyphs" textLength="120" x="26" y="210.0957">startCarButton: Button</text><polygon fill="none" points="17,215.3936,21,219.3936,17,223.3936,13,219.3936" style="stroke: #B38D22; stroke-width: 1.0;"/><text fill="#000000" font-family="sans-serif" font-size="11" lengthAdjust="spacingAndGlyphs" textLength="153" x="26" y="223.0508">requestConfigButton: Button</text><polygon fill="none" points="17,228.3486,21,232.3486,17,236.3486,13,232.3486" style="stroke: #B38D22; stroke-width: 1.0;"/><text fill="#000000" font-family="sans-serif" font-size="11" lengthAdjust="spacingAndGlyphs" textLength="102" x="26" y="236.0059">echoButton: Button</text><polygon fill="none" points="17,241.3037,21,245.3037,17,249.3037,13,245.3037" style="stroke: #B38D22; stroke-width: 1.0;"/><text fill="#000000" font-family="sans-serif" font-size="11" lengthAdjust="spacingAndGlyphs" textLength="175" x="26" y="248.9609">videoRecorders: VideoRecorders</text><line style="stroke: #A80036; stroke-width: 1.5;" x1="7" x2="254" y1="255.2813" y2="255.2813"/><ellipse cx="17" cy="267.2588" fill="#84BE84" rx="3" ry="3" style="stroke: #038048; stroke-width: 1.0;"/><text fill="#000000" font-family="sans-serif" font-size="11" lengthAdjust="spacingAndGlyphs" textLength="81" x="26" y="269.916">initialize(): void</text><ellipse cx="17" cy="280.2139" fill="#84BE84" rx="3" ry="3" style="stroke: #038048; stroke-width: 1.0;"/><text fill="#000000" font-family="sans-serif" font-size="11" lengthAdjust="spacingAndGlyphs" textLength="163" x="26" y="282.8711">setControlState(boolean): void</text><ellipse cx="17" cy="293.1689" fill="#84BE84" rx="3" ry="3" style="stroke: #038048; stroke-width: 1.0;"/><text fill="#000000" font-family="sans-serif" font-size="11" lengthAdjust="spacingAndGlyphs" textLength="197" x="26" y="295.8262">handleNavigationKey(KeyEvent): void</text><ellipse cx="17" cy="306.124" fill="#84BE84" rx="3" ry="3" style="stroke: #038048; stroke-width: 1.0;"/><text fill="#000000" font-family="sans-serif" font-size="11" lengthAdjust="spacingAndGlyphs" textLength="215" x="26" y="308.7813">setImageCollector(ImageCollector): void</text><ellipse cx="17" cy="319.0791" fill="#84BE84" rx="3" ry="3" style="stroke: #038048; stroke-width: 1.0;"/><text fill="#000000" font-family="sans-serif" font-size="11" lengthAdjust="spacingAndGlyphs" textLength="223" x="26" y="321.7363">setVideoRecorders(VideoRecorders): void</text></a><text fill="#888888" font-family="sans-serif" font-size="10" lengthAdjust="spacingAndGlyphs" textLength="182" x="45.5" y="347.668">UMLDoclet 1.1.4, PlantUML 1.2019.05</text><!--
@startuml

    class NavigationGUI [[NavigationGUI.html]] {
        #upButton: Button
        #autoPilotButton: Button
        #leftButton: Button
        #rightButton: Button
        #stopButton: Button
        #downButton: Button
        #manualButton: Button
        #brakeButton: Button
        #centerButton: Button
        #powerButton: Button
        #photoButton: Button
        #recordButton: Button
        #startCarButton: Button
        #requestConfigButton: Button
        #echoButton: Button
        #videoRecorders: VideoRecorders
        +initialize(): void
        +setControlState(boolean): void
        +handleNavigationKey(KeyEvent): void
        +setImageCollector(ImageCollector): void
        +setVideoRecorders(VideoRecorders): void
    }


    center footer UMLDoclet 1.1.4, PlantUML 1.2019.05
@enduml

PlantUML version 1.2019.05(Sat Apr 20 18:45:36 CEST 2019)
(APACHE source distribution)
Java Runtime: Java(TM) SE Runtime Environment
JVM: Java HotSpot(TM) 64-Bit Server VM
Java Version: 1.8.0_152-b16
Operating System: Mac OS X
OS Version: 10.13.6
Default Encoding: UTF-8
Language: de
Country: DE
--></g></svg>