<?xml version="1.0" encoding="UTF-8" standalone="no"?><svg xmlns="http://www.w3.org/2000/svg" xmlns:xlink="http://www.w3.org/1999/xlink" contentScriptType="application/ecmascript" contentStyleType="text/css" height="141px" preserveAspectRatio="none" style="width:297px;height:141px;" version="1.1" viewBox="0 0 297 141" width="297px" zoomAndPan="magnify"><defs><filter height="300%" id="f2nsplif3c610" width="300%" x="-1" y="-1"><feGaussianBlur result="blurOut" stdDeviation="2.0"/><feColorMatrix in="blurOut" result="blurOut2" type="matrix" values="0 0 0 0 0 0 0 0 0 0 0 0 0 0 0 0 0 0 .4 0"/><feOffset dx="4.0" dy="4.0" in="blurOut2" result="blurOut3"/><feBlend in="SourceGraphic" in2="blurOut3" mode="normal"/></filter></defs><g><!--class SimulatorImageFetcher--><a href="SimulatorImageFetcher.html" target="_top" xlink:actuate="onRequest" xlink:show="new" xlink:title="SimulatorImageFetcher.html" xlink:type="simple"><rect fill="#FEFECE" filter="url(#f2nsplif3c610)" height="99.8203" id="SimulatorImageFetcher" style="stroke: #A80036; stroke-width: 1.5;" width="280" x="6" y="8"/><ellipse cx="76.75" cy="24" fill="#ADD1B2" rx="11" ry="11" style="stroke: #A80036; stroke-width: 1.0;"/><path d="M79.7231,29.6431 Q79.1421,29.9419 78.5029,30.0913 Q77.8638,30.2407 77.1582,30.2407 Q74.6514,30.2407 73.3315,28.5889 Q72.0117,26.937 72.0117,23.8159 Q72.0117,20.6865 73.3315,19.0347 Q74.6514,17.3828 77.1582,17.3828 Q77.8638,17.3828 78.5112,17.5322 Q79.1587,17.6816 79.7231,17.9805 L79.7231,20.7031 Q79.0923,20.1221 78.4988,19.8523 Q77.9053,19.5825 77.2744,19.5825 Q75.9297,19.5825 75.2449,20.6492 Q74.5601,21.7158 74.5601,23.8159 Q74.5601,25.9077 75.2449,26.9744 Q75.9297,28.041 77.2744,28.041 Q77.9053,28.041 78.4988,27.7712 Q79.0923,27.5015 79.7231,26.9204 Z "/><text fill="#000000" font-family="sans-serif" font-size="12" lengthAdjust="spacingAndGlyphs" textLength="130" x="97.25" y="28.5352">SimulatorImageFetcher</text><line style="stroke: #A80036; stroke-width: 1.5;" x1="7" x2="285" y1="40" y2="40"/><ellipse cx="17" cy="51.9775" fill="none" rx="3" ry="3" style="stroke: #038048; stroke-width: 1.0;"/><text fill="#000000" font-family="sans-serif" font-size="11" lengthAdjust="spacingAndGlyphs" text-decoration="underline" textLength="83" x="26" y="54.6348">debug: boolean</text><polygon fill="none" points="17,59.9326,21,63.9326,17,67.9326,13,63.9326" style="stroke: #B38D22; stroke-width: 1.0;"/><text fill="#000000" font-family="sans-serif" font-size="11" lengthAdjust="spacingAndGlyphs" text-decoration="underline" textLength="67" x="26" y="67.5898">LOG: Logger</text><line style="stroke: #A80036; stroke-width: 1.5;" x1="7" x2="285" y1="73.9102" y2="73.9102"/><polygon fill="#FFFF44" points="17,80.8877,21,84.8877,17,88.8877,13,84.8877" style="stroke: #B38D22; stroke-width: 1.0;"/><text fill="#000000" font-family="sans-serif" font-size="11" lengthAdjust="spacingAndGlyphs" textLength="254" x="26" y="88.5449">receiveSimulatorImage(Message&lt;String&gt;): void</text><ellipse cx="17" cy="98.8428" fill="#84BE84" rx="3" ry="3" style="stroke: #038048; stroke-width: 1.0;"/><text fill="#000000" font-family="sans-serif" font-size="11" lengthAdjust="spacingAndGlyphs" textLength="197" x="26" y="101.5">toObservable(): Observable&lt;Image&gt;</text></a><text fill="#888888" font-family="sans-serif" font-size="10" lengthAdjust="spacingAndGlyphs" textLength="182" x="61" y="127.668">UMLDoclet 1.1.4, PlantUML 1.2019.05</text><!--
@startuml

    class SimulatorImageFetcher [[SimulatorImageFetcher.html]] {
        {static} +debug: boolean
        {static} #LOG: Logger
        #receiveSimulatorImage(Message<String>): void
        +toObservable(): Observable<Image>
    }


    center footer UMLDoclet 1.1.4, PlantUML 1.2019.05
@enduml

PlantUML version 1.2019.05(Sat Apr 20 18:45:36 CEST 2019)
(APACHE source distribution)
Java Runtime: Java(TM) SE Runtime Environment
JVM: Java HotSpot(TM) 64-Bit Server VM
Java Version: 1.8.0_152-b16
Operating System: Mac OS X
OS Version: 10.13.6
Default Encoding: UTF-8
Language: de
Country: DE
--></g></svg>