<?xml version="1.0" encoding="UTF-8" standalone="no"?><svg xmlns="http://www.w3.org/2000/svg" xmlns:xlink="http://www.w3.org/1999/xlink" contentScriptType="application/ecmascript" contentStyleType="text/css" height="481px" preserveAspectRatio="none" style="width:538px;height:481px;" version="1.1" viewBox="0 0 538 481" width="538px" zoomAndPan="magnify"><defs><filter height="300%" id="fgb2csuicwe5q" width="300%" x="-1" y="-1"><feGaussianBlur result="blurOut" stdDeviation="2.0"/><feColorMatrix in="blurOut" result="blurOut2" type="matrix" values="0 0 0 0 0 0 0 0 0 0 0 0 0 0 0 0 0 0 .4 0"/><feOffset dx="4.0" dy="4.0" in="blurOut2" result="blurOut3"/><feBlend in="SourceGraphic" in2="blurOut3" mode="normal"/></filter></defs><g><!--cluster nl.vaneijndhoven.dukes.generallee--><polygon fill="#FFFFFF" filter="url(#fgb2csuicwe5q)" points="14,202,264,202,271,224.4883,516,224.4883,516,440,14,440,14,202" style="stroke: #000000; stroke-width: 1.5;"/><line style="stroke: #000000; stroke-width: 1.5;" x1="14" x2="271" y1="224.4883" y2="224.4883"/><text fill="#000000" font-family="sans-serif" font-size="14" font-weight="bold" lengthAdjust="spacingAndGlyphs" textLength="244" x="18" y="217.5352">nl.vaneijndhoven.dukes.generallee</text><!--cluster nl.vaneijndhoven.dukes.car--><polygon fill="#FFFFFF" filter="url(#fgb2csuicwe5q)" points="125,16,322,16,329,38.4883,403,38.4883,403,177,125,177,125,16" style="stroke: #000000; stroke-width: 1.5;"/><line style="stroke: #000000; stroke-width: 1.5;" x1="125" x2="329" y1="38.4883" y2="38.4883"/><text fill="#000000" font-family="sans-serif" font-size="14" font-weight="bold" lengthAdjust="spacingAndGlyphs" textLength="191" x="129" y="31.5352">nl.vaneijndhoven.dukes.car</text><!--class nl.vaneijndhoven.dukes.generallee.EngineMap--><a href="EngineMap.html" target="_top" xlink:actuate="onRequest" xlink:show="new" xlink:title="EngineMap.html" xlink:type="simple"><rect fill="#FEFECE" filter="url(#fgb2csuicwe5q)" height="203.4609" id="nl.vaneijndhoven.dukes.generallee.EngineMap" style="stroke: #A80036; stroke-width: 1.5;" width="168" x="340" y="229"/><ellipse cx="388.25" cy="245" fill="#ADD1B2" rx="11" ry="11" style="stroke: #A80036; stroke-width: 1.0;"/><path d="M391.2231,250.6431 Q390.6421,250.9419 390.0029,251.0913 Q389.3638,251.2407 388.6582,251.2407 Q386.1514,251.2407 384.8315,249.5889 Q383.5117,247.937 383.5117,244.8159 Q383.5117,241.6865 384.8315,240.0347 Q386.1514,238.3828 388.6582,238.3828 Q389.3638,238.3828 390.0112,238.5322 Q390.6587,238.6816 391.2231,238.9805 L391.2231,241.7031 Q390.5923,241.1221 389.9988,240.8523 Q389.4053,240.5825 388.7744,240.5825 Q387.4297,240.5825 386.7449,241.6492 Q386.0601,242.7158 386.0601,244.8159 Q386.0601,246.9077 386.7449,247.9744 Q387.4297,249.041 388.7744,249.041 Q389.4053,249.041 389.9988,248.7712 Q390.5923,248.5015 391.2231,247.9204 Z "/><text fill="#000000" font-family="sans-serif" font-size="12" lengthAdjust="spacingAndGlyphs" textLength="63" x="408.75" y="249.5352">EngineMap</text><line style="stroke: #A80036; stroke-width: 1.5;" x1="341" x2="507" y1="261" y2="261"/><ellipse cx="351" cy="272.9775" fill="none" rx="3" ry="3" style="stroke: #038048; stroke-width: 1.0;"/><text fill="#000000" font-family="sans-serif" font-size="11" lengthAdjust="spacingAndGlyphs" text-decoration="underline" textLength="87" x="360" y="275.6348">SPEED_ZERO: int</text><ellipse cx="351" cy="285.9326" fill="none" rx="3" ry="3" style="stroke: #038048; stroke-width: 1.0;"/><text fill="#000000" font-family="sans-serif" font-size="11" lengthAdjust="spacingAndGlyphs" text-decoration="underline" textLength="111" x="360" y="288.5898">SPEED_STEP_SIZE: int</text><ellipse cx="351" cy="298.8877" fill="none" rx="3" ry="3" style="stroke: #038048; stroke-width: 1.0;"/><text fill="#000000" font-family="sans-serif" font-size="11" lengthAdjust="spacingAndGlyphs" text-decoration="underline" textLength="129" x="360" y="301.5449">MIN_SPEED_REVERSE: int</text><ellipse cx="351" cy="311.8428" fill="none" rx="3" ry="3" style="stroke: #038048; stroke-width: 1.0;"/><text fill="#000000" font-family="sans-serif" font-size="11" lengthAdjust="spacingAndGlyphs" text-decoration="underline" textLength="138" x="360" y="314.5">MIN_SPEED_FORWARD: int</text><ellipse cx="351" cy="324.7979" fill="none" rx="3" ry="3" style="stroke: #038048; stroke-width: 1.0;"/><text fill="#000000" font-family="sans-serif" font-size="11" lengthAdjust="spacingAndGlyphs" text-decoration="underline" textLength="133" x="360" y="327.4551">MAX_SPEED_REVERSE: int</text><ellipse cx="351" cy="337.7529" fill="none" rx="3" ry="3" style="stroke: #038048; stroke-width: 1.0;"/><text fill="#000000" font-family="sans-serif" font-size="11" lengthAdjust="spacingAndGlyphs" text-decoration="underline" textLength="142" x="360" y="340.4102">MAX_SPEED_FORWARD: int</text><line style="stroke: #A80036; stroke-width: 1.5;" x1="341" x2="507" y1="346.7305" y2="346.7305"/><ellipse cx="351" cy="358.708" fill="#84BE84" rx="3" ry="3" style="stroke: #038048; stroke-width: 1.0;"/><text fill="#000000" font-family="sans-serif" font-size="11" lengthAdjust="spacingAndGlyphs" textLength="66" x="360" y="361.3652">neutral(): int</text><ellipse cx="351" cy="371.6631" fill="#84BE84" rx="3" ry="3" style="stroke: #038048; stroke-width: 1.0;"/><text fill="#000000" font-family="sans-serif" font-size="11" lengthAdjust="spacingAndGlyphs" textLength="72" x="360" y="374.3203">stepSize(): int</text><ellipse cx="351" cy="384.6182" fill="#84BE84" rx="3" ry="3" style="stroke: #038048; stroke-width: 1.0;"/><text fill="#000000" font-family="sans-serif" font-size="11" lengthAdjust="spacingAndGlyphs" textLength="90" x="360" y="387.2754">minReverse(): int</text><ellipse cx="351" cy="397.5732" fill="#84BE84" rx="3" ry="3" style="stroke: #038048; stroke-width: 1.0;"/><text fill="#000000" font-family="sans-serif" font-size="11" lengthAdjust="spacingAndGlyphs" textLength="93" x="360" y="400.2305">maxReverse(): int</text><ellipse cx="351" cy="410.5283" fill="#84BE84" rx="3" ry="3" style="stroke: #038048; stroke-width: 1.0;"/><text fill="#000000" font-family="sans-serif" font-size="11" lengthAdjust="spacingAndGlyphs" textLength="92" x="360" y="413.1855">minForward(): int</text><ellipse cx="351" cy="423.4834" fill="#84BE84" rx="3" ry="3" style="stroke: #038048; stroke-width: 1.0;"/><text fill="#000000" font-family="sans-serif" font-size="11" lengthAdjust="spacingAndGlyphs" textLength="95" x="360" y="426.1406">maxForward(): int</text></a><!--class nl.vaneijndhoven.dukes.generallee.GeneralLee--><a href="GeneralLee.html" target="_top" xlink:actuate="onRequest" xlink:show="new" xlink:title="GeneralLee.html" xlink:type="simple"><rect fill="#FEFECE" filter="url(#fgb2csuicwe5q)" height="48" id="nl.vaneijndhoven.dukes.generallee.GeneralLee" style="stroke: #A80036; stroke-width: 1.5;" width="97" x="207.5" y="306.5"/><ellipse cx="222.5" cy="322.5" fill="#ADD1B2" rx="11" ry="11" style="stroke: #A80036; stroke-width: 1.0;"/><path d="M225.4731,328.1431 Q224.8921,328.4419 224.2529,328.5913 Q223.6138,328.7407 222.9082,328.7407 Q220.4014,328.7407 219.0815,327.0889 Q217.7617,325.437 217.7617,322.3159 Q217.7617,319.1865 219.0815,317.5347 Q220.4014,315.8828 222.9082,315.8828 Q223.6138,315.8828 224.2612,316.0322 Q224.9087,316.1816 225.4731,316.4805 L225.4731,319.2031 Q224.8423,318.6221 224.2488,318.3523 Q223.6553,318.0825 223.0244,318.0825 Q221.6797,318.0825 220.9949,319.1492 Q220.3101,320.2158 220.3101,322.3159 Q220.3101,324.4077 220.9949,325.4744 Q221.6797,326.541 223.0244,326.541 Q223.6553,326.541 224.2488,326.2712 Q224.8423,326.0015 225.4731,325.4204 Z "/><text fill="#000000" font-family="sans-serif" font-size="12" lengthAdjust="spacingAndGlyphs" textLength="65" x="236.5" y="327.0352">GeneralLee</text><line style="stroke: #A80036; stroke-width: 1.5;" x1="208.5" x2="303.5" y1="338.5" y2="338.5"/><line style="stroke: #A80036; stroke-width: 1.5;" x1="208.5" x2="303.5" y1="346.5" y2="346.5"/></a><!--class nl.vaneijndhoven.dukes.generallee.SteeringMap--><a href="SteeringMap.html" target="_top" xlink:actuate="onRequest" xlink:show="new" xlink:title="SteeringMap.html" xlink:type="simple"><rect fill="#FEFECE" filter="url(#fgb2csuicwe5q)" height="151.6406" id="nl.vaneijndhoven.dukes.generallee.SteeringMap" style="stroke: #A80036; stroke-width: 1.5;" width="150" x="22" y="254.5"/><ellipse cx="58.15" cy="270.5" fill="#ADD1B2" rx="11" ry="11" style="stroke: #A80036; stroke-width: 1.0;"/><path d="M61.1231,276.1431 Q60.5421,276.4419 59.9029,276.5913 Q59.2638,276.7407 58.5582,276.7407 Q56.0514,276.7407 54.7315,275.0889 Q53.4117,273.437 53.4117,270.3159 Q53.4117,267.1865 54.7315,265.5347 Q56.0514,263.8828 58.5582,263.8828 Q59.2638,263.8828 59.9112,264.0322 Q60.5587,264.1816 61.1231,264.4805 L61.1231,267.2031 Q60.4923,266.6221 59.8988,266.3523 Q59.3053,266.0825 58.6744,266.0825 Q57.3297,266.0825 56.6449,267.1492 Q55.9601,268.2158 55.9601,270.3159 Q55.9601,272.4077 56.6449,273.4744 Q57.3297,274.541 58.6744,274.541 Q59.3053,274.541 59.8988,274.2712 Q60.4923,274.0015 61.1231,273.4204 Z "/><text fill="#000000" font-family="sans-serif" font-size="12" lengthAdjust="spacingAndGlyphs" textLength="71" x="76.85" y="275.0352">SteeringMap</text><line style="stroke: #A80036; stroke-width: 1.5;" x1="23" x2="171" y1="286.5" y2="286.5"/><ellipse cx="33" cy="298.4775" fill="none" rx="3" ry="3" style="stroke: #038048; stroke-width: 1.0;"/><text fill="#000000" font-family="sans-serif" font-size="11" lengthAdjust="spacingAndGlyphs" text-decoration="underline" textLength="103" x="42" y="301.1348">WHEEL_CENTER: int</text><ellipse cx="33" cy="311.4326" fill="none" rx="3" ry="3" style="stroke: #038048; stroke-width: 1.0;"/><text fill="#000000" font-family="sans-serif" font-size="11" lengthAdjust="spacingAndGlyphs" text-decoration="underline" textLength="114" x="42" y="314.0898">WHEEL_STEP_SIZE: int</text><ellipse cx="33" cy="324.3877" fill="none" rx="3" ry="3" style="stroke: #038048; stroke-width: 1.0;"/><text fill="#000000" font-family="sans-serif" font-size="11" lengthAdjust="spacingAndGlyphs" text-decoration="underline" textLength="116" x="42" y="327.0449">WHEEL_MAX_LEFT: int</text><ellipse cx="33" cy="337.3428" fill="none" rx="3" ry="3" style="stroke: #038048; stroke-width: 1.0;"/><text fill="#000000" font-family="sans-serif" font-size="11" lengthAdjust="spacingAndGlyphs" text-decoration="underline" textLength="124" x="42" y="340">WHEEL_MAX_RIGHT: int</text><line style="stroke: #A80036; stroke-width: 1.5;" x1="23" x2="171" y1="346.3203" y2="346.3203"/><ellipse cx="33" cy="358.2979" fill="#84BE84" rx="3" ry="3" style="stroke: #038048; stroke-width: 1.0;"/><text fill="#000000" font-family="sans-serif" font-size="11" lengthAdjust="spacingAndGlyphs" textLength="62" x="42" y="360.9551">center(): int</text><ellipse cx="33" cy="371.2529" fill="#84BE84" rx="3" ry="3" style="stroke: #038048; stroke-width: 1.0;"/><text fill="#000000" font-family="sans-serif" font-size="11" lengthAdjust="spacingAndGlyphs" textLength="72" x="42" y="373.9102">stepSize(): int</text><ellipse cx="33" cy="384.208" fill="#84BE84" rx="3" ry="3" style="stroke: #038048; stroke-width: 1.0;"/><text fill="#000000" font-family="sans-serif" font-size="11" lengthAdjust="spacingAndGlyphs" textLength="71" x="42" y="386.8652">maxLeft(): int</text><ellipse cx="33" cy="397.1631" fill="#84BE84" rx="3" ry="3" style="stroke: #038048; stroke-width: 1.0;"/><text fill="#000000" font-family="sans-serif" font-size="11" lengthAdjust="spacingAndGlyphs" textLength="79" x="42" y="399.8203">maxRight(): int</text></a><!--class nl.vaneijndhoven.dukes.car.EngineMap--><rect fill="#FEFECE" filter="url(#fgb2csuicwe5q)" height="125.7305" id="nl.vaneijndhoven.dukes.car.EngineMap" style="stroke: #A80036; stroke-width: 1.5;" width="121" x="273.5" y="43"/><ellipse cx="300.2" cy="59" fill="#B4A7E5" rx="11" ry="11" style="stroke: #A80036; stroke-width: 1.0;"/><path d="M296.1277,54.7651 L296.1277,52.6069 L303.5071,52.6069 L303.5071,54.7651 L301.0418,54.7651 L301.0418,62.8418 L303.5071,62.8418 L303.5071,65 L296.1277,65 L296.1277,62.8418 L298.5931,62.8418 L298.5931,54.7651 Z "/><text fill="#000000" font-family="sans-serif" font-size="12" font-style="italic" lengthAdjust="spacingAndGlyphs" textLength="63" x="316.8" y="63.5352">EngineMap</text><line style="stroke: #A80036; stroke-width: 1.5;" x1="274.5" x2="393.5" y1="75" y2="75"/><line style="stroke: #A80036; stroke-width: 1.5;" x1="274.5" x2="393.5" y1="83" y2="83"/><ellipse cx="284.5" cy="94.9775" fill="#84BE84" rx="3" ry="3" style="stroke: #038048; stroke-width: 1.0;"/><text fill="#000000" font-family="sans-serif" font-size="11" font-style="italic" lengthAdjust="spacingAndGlyphs" textLength="66" x="293.5" y="97.6348">neutral(): int</text><ellipse cx="284.5" cy="107.9326" fill="#84BE84" rx="3" ry="3" style="stroke: #038048; stroke-width: 1.0;"/><text fill="#000000" font-family="sans-serif" font-size="11" font-style="italic" lengthAdjust="spacingAndGlyphs" textLength="72" x="293.5" y="110.5898">stepSize(): int</text><ellipse cx="284.5" cy="120.8877" fill="#84BE84" rx="3" ry="3" style="stroke: #038048; stroke-width: 1.0;"/><text fill="#000000" font-family="sans-serif" font-size="11" font-style="italic" lengthAdjust="spacingAndGlyphs" textLength="90" x="293.5" y="123.5449">minReverse(): int</text><ellipse cx="284.5" cy="133.8428" fill="#84BE84" rx="3" ry="3" style="stroke: #038048; stroke-width: 1.0;"/><text fill="#000000" font-family="sans-serif" font-size="11" font-style="italic" lengthAdjust="spacingAndGlyphs" textLength="93" x="293.5" y="136.5">maxReverse(): int</text><ellipse cx="284.5" cy="146.7979" fill="#84BE84" rx="3" ry="3" style="stroke: #038048; stroke-width: 1.0;"/><text fill="#000000" font-family="sans-serif" font-size="11" font-style="italic" lengthAdjust="spacingAndGlyphs" textLength="92" x="293.5" y="149.4551">minForward(): int</text><ellipse cx="284.5" cy="159.7529" fill="#84BE84" rx="3" ry="3" style="stroke: #038048; stroke-width: 1.0;"/><text fill="#000000" font-family="sans-serif" font-size="11" font-style="italic" lengthAdjust="spacingAndGlyphs" textLength="95" x="293.5" y="162.4102">maxForward(): int</text><!--class nl.vaneijndhoven.dukes.car.SteeringMap--><rect fill="#FEFECE" filter="url(#fgb2csuicwe5q)" height="99.8203" id="nl.vaneijndhoven.dukes.car.SteeringMap" style="stroke: #A80036; stroke-width: 1.5;" width="105" x="133.5" y="56"/><ellipse cx="149.4" cy="72" fill="#B4A7E5" rx="11" ry="11" style="stroke: #A80036; stroke-width: 1.0;"/><path d="M145.3277,67.7651 L145.3277,65.6069 L152.7071,65.6069 L152.7071,67.7651 L150.2418,67.7651 L150.2418,75.8418 L152.7071,75.8418 L152.7071,78 L145.3277,78 L145.3277,75.8418 L147.7931,75.8418 L147.7931,67.7651 Z "/><text fill="#000000" font-family="sans-serif" font-size="12" font-style="italic" lengthAdjust="spacingAndGlyphs" textLength="71" x="163.6" y="76.5352">SteeringMap</text><line style="stroke: #A80036; stroke-width: 1.5;" x1="134.5" x2="237.5" y1="88" y2="88"/><line style="stroke: #A80036; stroke-width: 1.5;" x1="134.5" x2="237.5" y1="96" y2="96"/><ellipse cx="144.5" cy="107.9775" fill="#84BE84" rx="3" ry="3" style="stroke: #038048; stroke-width: 1.0;"/><text fill="#000000" font-family="sans-serif" font-size="11" font-style="italic" lengthAdjust="spacingAndGlyphs" textLength="62" x="153.5" y="110.6348">center(): int</text><ellipse cx="144.5" cy="120.9326" fill="#84BE84" rx="3" ry="3" style="stroke: #038048; stroke-width: 1.0;"/><text fill="#000000" font-family="sans-serif" font-size="11" font-style="italic" lengthAdjust="spacingAndGlyphs" textLength="72" x="153.5" y="123.5898">stepSize(): int</text><ellipse cx="144.5" cy="133.8877" fill="#84BE84" rx="3" ry="3" style="stroke: #038048; stroke-width: 1.0;"/><text fill="#000000" font-family="sans-serif" font-size="11" font-style="italic" lengthAdjust="spacingAndGlyphs" textLength="71" x="153.5" y="136.5449">maxLeft(): int</text><ellipse cx="144.5" cy="146.8428" fill="#84BE84" rx="3" ry="3" style="stroke: #038048; stroke-width: 1.0;"/><text fill="#000000" font-family="sans-serif" font-size="11" font-style="italic" lengthAdjust="spacingAndGlyphs" textLength="79" x="153.5" y="149.5">maxRight(): int</text><!--link nl.vaneijndhoven.dukes.car.EngineMap to nl.vaneijndhoven.dukes.generallee.EngineMap--><path d="M366.8786,188.0138 C372.1896,201.2619 377.7441,215.1173 383.2148,228.7636 " fill="none" id="nl.vaneijndhoven.dukes.car.EngineMap-nl.vaneijndhoven.dukes.generallee.EngineMap" style="stroke: #A80036; stroke-width: 1.0; stroke-dasharray: 7.0,7.0;"/><polygon fill="none" points="360.2543,190.3018,359.3095,169.1332,373.249,185.0923,360.2543,190.3018" style="stroke: #A80036; stroke-width: 1.0;"/><!--link nl.vaneijndhoven.dukes.car.SteeringMap to nl.vaneijndhoven.dukes.generallee.SteeringMap--><path d="M158.6786,174.9174 C148.7479,199.9673 137.4688,228.4185 127.2961,254.079 " fill="none" id="nl.vaneijndhoven.dukes.car.SteeringMap-nl.vaneijndhoven.dukes.generallee.SteeringMap" style="stroke: #A80036; stroke-width: 1.0; stroke-dasharray: 7.0,7.0;"/><polygon fill="none" points="152.2594,172.1153,166.1374,156.1028,165.274,177.2748,152.2594,172.1153" style="stroke: #A80036; stroke-width: 1.0;"/><text fill="#888888" font-family="sans-serif" font-size="10" lengthAdjust="spacingAndGlyphs" textLength="182" x="180" y="467.668">UMLDoclet 1.1.4, PlantUML 1.2019.05</text><!--
@startuml

    namespace nl.vaneijndhoven.dukes.generallee {

        class EngineMap [[EngineMap.html]] {
            {static} +SPEED_ZERO: int
            {static} +SPEED_STEP_SIZE: int
            {static} +MIN_SPEED_REVERSE: int
            {static} +MIN_SPEED_FORWARD: int
            {static} +MAX_SPEED_REVERSE: int
            {static} +MAX_SPEED_FORWARD: int
            +neutral(): int
            +stepSize(): int
            +minReverse(): int
            +maxReverse(): int
            +minForward(): int
            +maxForward(): int
        }

        class GeneralLee [[GeneralLee.html]] {
        }

        class SteeringMap [[SteeringMap.html]] {
            {static} +WHEEL_CENTER: int
            {static} +WHEEL_STEP_SIZE: int
            {static} +WHEEL_MAX_LEFT: int
            {static} +WHEEL_MAX_RIGHT: int
            +center(): int
            +stepSize(): int
            +maxLeft(): int
            +maxRight(): int
        }

        interface nl.vaneijndhoven.dukes.car.EngineMap {
            {abstract} +neutral(): int
            {abstract} +stepSize(): int
            {abstract} +minReverse(): int
            {abstract} +maxReverse(): int
            {abstract} +minForward(): int
            {abstract} +maxForward(): int
        }
        nl.vaneijndhoven.dukes.car.EngineMap <|.. EngineMap

        interface nl.vaneijndhoven.dukes.car.SteeringMap {
            {abstract} +center(): int
            {abstract} +stepSize(): int
            {abstract} +maxLeft(): int
            {abstract} +maxRight(): int
        }
        nl.vaneijndhoven.dukes.car.SteeringMap <|.. SteeringMap

    }


    center footer UMLDoclet 1.1.4, PlantUML 1.2019.05
@enduml

PlantUML version 1.2019.05(Sat Apr 20 18:45:36 CEST 2019)
(APACHE source distribution)
Java Runtime: Java(TM) SE Runtime Environment
JVM: Java HotSpot(TM) 64-Bit Server VM
Java Version: 1.8.0_152-b16
Operating System: Mac OS X
OS Version: 10.13.6
Default Encoding: UTF-8
Language: de
Country: DE
--></g></svg>