<?xml version="1.0" encoding="UTF-8" standalone="no"?><svg xmlns="http://www.w3.org/2000/svg" xmlns:xlink="http://www.w3.org/1999/xlink" contentScriptType="application/ecmascript" contentStyleType="text/css" height="339px" preserveAspectRatio="none" style="width:246px;height:339px;" version="1.1" viewBox="0 0 246 339" width="246px" zoomAndPan="magnify"><defs><filter height="300%" id="fepo4ddrnb2kl" width="300%" x="-1" y="-1"><feGaussianBlur result="blurOut" stdDeviation="2.0"/><feColorMatrix in="blurOut" result="blurOut2" type="matrix" values="0 0 0 0 0 0 0 0 0 0 0 0 0 0 0 0 0 0 .4 0"/><feOffset dx="4.0" dy="4.0" in="blurOut2" result="blurOut3"/><feBlend in="SourceGraphic" in2="blurOut3" mode="normal"/></filter></defs><g><!--cluster org.rcdukes.error--><polygon fill="#FFFFFF" filter="url(#fepo4ddrnb2kl)" points="14,16,141,16,148,38.4883,224,38.4883,224,298,14,298,14,16" style="stroke: #000000; stroke-width: 1.5;"/><line style="stroke: #000000; stroke-width: 1.5;" x1="14" x2="148" y1="38.4883" y2="38.4883"/><text fill="#000000" font-family="sans-serif" font-size="14" font-weight="bold" lengthAdjust="spacingAndGlyphs" textLength="121" x="18" y="31.5352">org.rcdukes.error</text><!--class org.rcdukes.error.ExceptionHandler--><a href="ExceptionHandler.html" target="_top" xlink:actuate="onRequest" xlink:show="new" xlink:title="ExceptionHandler.html" xlink:type="simple"><rect fill="#FEFECE" filter="url(#fepo4ddrnb2kl)" height="86.8652" id="org.rcdukes.error.ExceptionHandler" style="stroke: #A80036; stroke-width: 1.5;" width="193" x="22.5" y="43"/><ellipse cx="64.05" cy="59" fill="#B4A7E5" rx="11" ry="11" style="stroke: #A80036; stroke-width: 1.0;"/><path d="M59.9777,54.7651 L59.9777,52.6069 L67.3571,52.6069 L67.3571,54.7651 L64.8918,54.7651 L64.8918,62.8418 L67.3571,62.8418 L67.3571,65 L59.9777,65 L59.9777,62.8418 L62.4431,62.8418 L62.4431,54.7651 Z "/><text fill="#000000" font-family="sans-serif" font-size="12" font-style="italic" lengthAdjust="spacingAndGlyphs" textLength="102" x="83.95" y="63.5352">ExceptionHandler</text><line style="stroke: #A80036; stroke-width: 1.5;" x1="23.5" x2="214.5" y1="75" y2="75"/><line style="stroke: #A80036; stroke-width: 1.5;" x1="23.5" x2="214.5" y1="83" y2="83"/><ellipse cx="33.5" cy="94.9775" fill="#84BE84" rx="3" ry="3" style="stroke: #038048; stroke-width: 1.0;"/><text fill="#000000" font-family="sans-serif" font-size="11" font-style="italic" lengthAdjust="spacingAndGlyphs" textLength="167" x="42.5" y="97.6348">handle(Throwable, String): void</text><ellipse cx="33.5" cy="107.9326" fill="#84BE84" rx="3" ry="3" style="stroke: #038048; stroke-width: 1.0;"/><text fill="#000000" font-family="sans-serif" font-size="11" font-style="italic" lengthAdjust="spacingAndGlyphs" textLength="129" x="42.5" y="110.5898">handle(Throwable): void</text><ellipse cx="33.5" cy="120.8877" fill="#84BE84" rx="3" ry="3" style="stroke: #038048; stroke-width: 1.0;"/><text fill="#000000" font-family="sans-serif" font-size="11" font-style="italic" lengthAdjust="spacingAndGlyphs" textLength="95" x="42.5" y="123.5449">warn(String): void</text></a><!--class org.rcdukes.error.ErrorHandler--><a href="ErrorHandler.html" target="_top" xlink:actuate="onRequest" xlink:show="new" xlink:title="ErrorHandler.html" xlink:type="simple"><rect fill="#FEFECE" filter="url(#fepo4ddrnb2kl)" height="99.8203" id="org.rcdukes.error.ErrorHandler" style="stroke: #A80036; stroke-width: 1.5;" width="193" x="22.5" y="190"/><ellipse cx="77.25" cy="206" fill="#ADD1B2" rx="11" ry="11" style="stroke: #A80036; stroke-width: 1.0;"/><path d="M80.2231,211.6431 Q79.6421,211.9419 79.0029,212.0913 Q78.3638,212.2407 77.6582,212.2407 Q75.1514,212.2407 73.8315,210.5889 Q72.5117,208.937 72.5117,205.8159 Q72.5117,202.6865 73.8315,201.0347 Q75.1514,199.3828 77.6582,199.3828 Q78.3638,199.3828 79.0112,199.5322 Q79.6587,199.6816 80.2231,199.9805 L80.2231,202.7031 Q79.5923,202.1221 78.9988,201.8523 Q78.4053,201.5825 77.7744,201.5825 Q76.4297,201.5825 75.7449,202.6492 Q75.0601,203.7158 75.0601,205.8159 Q75.0601,207.9077 75.7449,208.9744 Q76.4297,210.041 77.7744,210.041 Q78.4053,210.041 78.9988,209.7712 Q79.5923,209.5015 80.2231,208.9204 Z "/><text fill="#000000" font-family="sans-serif" font-size="12" lengthAdjust="spacingAndGlyphs" textLength="75" x="97.75" y="210.5352">ErrorHandler</text><line style="stroke: #A80036; stroke-width: 1.5;" x1="23.5" x2="214.5" y1="222" y2="222"/><line style="stroke: #A80036; stroke-width: 1.5;" x1="23.5" x2="214.5" y1="230" y2="230"/><ellipse cx="33.5" cy="241.9775" fill="#84BE84" rx="3" ry="3" style="stroke: #038048; stroke-width: 1.0;"/><text fill="#000000" font-family="sans-serif" font-size="11" lengthAdjust="spacingAndGlyphs" textLength="167" x="42.5" y="244.6348">handle(Throwable, String): void</text><ellipse cx="33.5" cy="254.9326" fill="#84BE84" rx="3" ry="3" style="stroke: #038048; stroke-width: 1.0;"/><text fill="#000000" font-family="sans-serif" font-size="11" lengthAdjust="spacingAndGlyphs" textLength="95" x="42.5" y="257.5898">warn(String): void</text><ellipse cx="33.5" cy="267.8877" fill="#84BE84" rx="3" ry="3" style="stroke: #038048; stroke-width: 1.0;"/><text fill="#000000" font-family="sans-serif" font-size="11" lengthAdjust="spacingAndGlyphs" textLength="129" x="42.5" y="270.5449">handle(Throwable): void</text><ellipse cx="33.5" cy="280.8428" fill="#84BE84" rx="3" ry="3" style="stroke: #038048; stroke-width: 1.0;"/><text fill="#000000" font-family="sans-serif" font-size="11" lengthAdjust="spacingAndGlyphs" text-decoration="underline" textLength="146" x="42.5" y="283.5">getInstance(): ErrorHandler</text></a><!--link org.rcdukes.error.ExceptionHandler to org.rcdukes.error.ErrorHandler--><path d="M119,150.1795 C119,163.4011 119,177.1558 119,189.8114 " fill="none" id="org.rcdukes.error.ExceptionHandler-org.rcdukes.error.ErrorHandler" style="stroke: #A80036; stroke-width: 1.0; stroke-dasharray: 7.0,7.0;"/><polygon fill="none" points="112.0001,150.0764,119,130.0763,126.0001,150.0763,112.0001,150.0764" style="stroke: #A80036; stroke-width: 1.0;"/><text fill="#888888" font-family="sans-serif" font-size="10" lengthAdjust="spacingAndGlyphs" textLength="182" x="34" y="325.668">UMLDoclet 1.1.4, PlantUML 1.2019.05</text><!--
@startuml

    namespace org.rcdukes.error {

        interface ExceptionHandler [[ExceptionHandler.html]] {
            {abstract} +handle(Throwable, String): void
            {abstract} +handle(Throwable): void
            {abstract} +warn(String): void
        }

        class ErrorHandler [[ErrorHandler.html]] {
            +handle(Throwable, String): void
            +warn(String): void
            +handle(Throwable): void
            {static} +getInstance(): ErrorHandler
        }

        ExceptionHandler <|.. ErrorHandler

    }


    center footer UMLDoclet 1.1.4, PlantUML 1.2019.05
@enduml

PlantUML version 1.2019.05(Sat Apr 20 18:45:36 CEST 2019)
(APACHE source distribution)
Java Runtime: Java(TM) SE Runtime Environment
JVM: Java HotSpot(TM) 64-Bit Server VM
Java Version: 1.8.0_152-b16
Operating System: Mac OS X
OS Version: 10.13.6
Default Encoding: UTF-8
Language: de
Country: DE
--></g></svg>