<?xml version="1.0" encoding="UTF-8" standalone="no"?><svg xmlns="http://www.w3.org/2000/svg" xmlns:xlink="http://www.w3.org/1999/xlink" contentScriptType="application/ecmascript" contentStyleType="text/css" height="313px" preserveAspectRatio="none" style="width:984px;height:313px;" version="1.1" viewBox="0 0 984 313" width="984px" zoomAndPan="magnify"><defs><filter height="300%" id="f39314zehamjl" width="300%" x="-1" y="-1"><feGaussianBlur result="blurOut" stdDeviation="2.0"/><feColorMatrix in="blurOut" result="blurOut2" type="matrix" values="0 0 0 0 0 0 0 0 0 0 0 0 0 0 0 0 0 0 .4 0"/><feOffset dx="4.0" dy="4.0" in="blurOut2" result="blurOut3"/><feBlend in="SourceGraphic" in2="blurOut3" mode="normal"/></filter></defs><g><!--cluster org.rcdukes.objects.stoppingzone--><polygon fill="#FFFFFF" filter="url(#f39314zehamjl)" points="14,124,259,124,266,146.4883,962,146.4883,962,272,14,272,14,124" style="stroke: #000000; stroke-width: 1.5;"/><line style="stroke: #000000; stroke-width: 1.5;" x1="14" x2="266" y1="146.4883" y2="146.4883"/><text fill="#000000" font-family="sans-serif" font-size="14" font-weight="bold" lengthAdjust="spacingAndGlyphs" textLength="239" x="18" y="139.5352">org.rcdukes.objects.stoppingzone</text><!--cluster org.rcdukes.objects--><polygon fill="#FFFFFF" filter="url(#f39314zehamjl)" points="408,16,552,16,559,38.4883,562,38.4883,562,99,408,99,408,16" style="stroke: #000000; stroke-width: 1.5;"/><line style="stroke: #000000; stroke-width: 1.5;" x1="408" x2="559" y1="38.4883" y2="38.4883"/><text fill="#000000" font-family="sans-serif" font-size="14" font-weight="bold" lengthAdjust="spacingAndGlyphs" textLength="138" x="412" y="31.5352">org.rcdukes.objects</text><!--class org.rcdukes.objects.stoppingzone.ZoneStartBoundary--><a href="ZoneStartBoundary.html" target="_top" xlink:actuate="onRequest" xlink:show="new" xlink:title="ZoneStartBoundary.html" xlink:type="simple"><rect fill="#FEFECE" filter="url(#f39314zehamjl)" height="112.7754" id="org.rcdukes.objects.stoppingzone.ZoneStartBoundary" style="stroke: #A80036; stroke-width: 1.5;" width="272" x="682" y="151"/><ellipse cx="759.75" cy="167" fill="#ADD1B2" rx="11" ry="11" style="stroke: #A80036; stroke-width: 1.0;"/><path d="M762.7231,172.6431 Q762.1421,172.9419 761.5029,173.0913 Q760.8638,173.2407 760.1582,173.2407 Q757.6514,173.2407 756.3315,171.5889 Q755.0117,169.937 755.0117,166.8159 Q755.0117,163.6865 756.3315,162.0347 Q757.6514,160.3828 760.1582,160.3828 Q760.8638,160.3828 761.5112,160.5322 Q762.1587,160.6816 762.7231,160.9805 L762.7231,163.7031 Q762.0923,163.1221 761.4988,162.8523 Q760.9053,162.5825 760.2744,162.5825 Q758.9297,162.5825 758.2449,163.6492 Q757.5601,164.7158 757.5601,166.8159 Q757.5601,168.9077 758.2449,169.9744 Q758.9297,171.041 760.2744,171.041 Q760.9053,171.041 761.4988,170.7712 Q762.0923,170.5015 762.7231,169.9204 Z "/><text fill="#000000" font-family="sans-serif" font-size="12" lengthAdjust="spacingAndGlyphs" textLength="108" x="780.25" y="171.5352">ZoneStartBoundary</text><line style="stroke: #A80036; stroke-width: 1.5;" x1="683" x2="953" y1="183" y2="183"/><ellipse cx="693" cy="194.9775" fill="none" rx="3" ry="3" style="stroke: #038048; stroke-width: 1.0;"/><text fill="#000000" font-family="sans-serif" font-size="11" lengthAdjust="spacingAndGlyphs" text-decoration="underline" textLength="134" x="702" y="197.6348">DEFAULT_ANGLE: double</text><ellipse cx="693" cy="207.9326" fill="none" rx="3" ry="3" style="stroke: #038048; stroke-width: 1.0;"/><text fill="#000000" font-family="sans-serif" font-size="11" lengthAdjust="spacingAndGlyphs" text-decoration="underline" textLength="163" x="702" y="210.5898">DEFAULT_TOLERANCE: double</text><line style="stroke: #A80036; stroke-width: 1.5;" x1="683" x2="953" y1="216.9102" y2="216.9102"/><ellipse cx="693" cy="228.8877" fill="#84BE84" rx="3" ry="3" style="stroke: #038048; stroke-width: 1.0;"/><text fill="#000000" font-family="sans-serif" font-size="11" lengthAdjust="spacingAndGlyphs" textLength="111" x="702" y="231.5449">ZoneStartBoundary()</text><ellipse cx="693" cy="241.8428" fill="#84BE84" rx="3" ry="3" style="stroke: #038048; stroke-width: 1.0;"/><text fill="#000000" font-family="sans-serif" font-size="11" lengthAdjust="spacingAndGlyphs" textLength="240" x="702" y="244.5">ZoneStartBoundary(double, double, boolean)</text><ellipse cx="693" cy="254.7979" fill="#84BE84" rx="3" ry="3" style="stroke: #038048; stroke-width: 1.0;"/><text fill="#000000" font-family="sans-serif" font-size="11" lengthAdjust="spacingAndGlyphs" textLength="246" x="702" y="257.4551">boundary(Collection&lt;Line&gt;): Optional&lt;Line&gt;</text></a><!--class org.rcdukes.objects.stoppingzone.StoppingZoneOrientation--><a href="StoppingZoneOrientation.html" target="_top" xlink:actuate="onRequest" xlink:show="new" xlink:title="StoppingZoneOrientation.html" xlink:type="simple"><rect fill="#FEFECE" filter="url(#f39314zehamjl)" height="86.8652" id="org.rcdukes.objects.stoppingzone.StoppingZoneOrientation" style="stroke: #A80036; stroke-width: 1.5;" width="328" x="319" y="164"/><ellipse cx="408.25" cy="180" fill="#ADD1B2" rx="11" ry="11" style="stroke: #A80036; stroke-width: 1.0;"/><path d="M411.2231,185.6431 Q410.6421,185.9419 410.0029,186.0913 Q409.3638,186.2407 408.6582,186.2407 Q406.1514,186.2407 404.8315,184.5889 Q403.5117,182.937 403.5117,179.8159 Q403.5117,176.6865 404.8315,175.0347 Q406.1514,173.3828 408.6582,173.3828 Q409.3638,173.3828 410.0112,173.5322 Q410.6587,173.6816 411.2231,173.9805 L411.2231,176.7031 Q410.5923,176.1221 409.9988,175.8523 Q409.4053,175.5825 408.7744,175.5825 Q407.4297,175.5825 406.7449,176.6492 Q406.0601,177.7158 406.0601,179.8159 Q406.0601,181.9077 406.7449,182.9744 Q407.4297,184.041 408.7744,184.041 Q409.4053,184.041 409.9988,183.7712 Q410.5923,183.5015 411.2231,182.9204 Z "/><text fill="#000000" font-family="sans-serif" font-size="12" lengthAdjust="spacingAndGlyphs" textLength="141" x="428.75" y="184.5352">StoppingZoneOrientation</text><line style="stroke: #A80036; stroke-width: 1.5;" x1="320" x2="646" y1="196" y2="196"/><line style="stroke: #A80036; stroke-width: 1.5;" x1="320" x2="646" y1="204" y2="204"/><ellipse cx="330" cy="215.9775" fill="#84BE84" rx="3" ry="3" style="stroke: #038048; stroke-width: 1.0;"/><text fill="#000000" font-family="sans-serif" font-size="11" lengthAdjust="spacingAndGlyphs" textLength="302" x="339" y="218.6348">StoppingZoneOrientation(StoppingZone, Lane, ViewPort)</text><ellipse cx="330" cy="228.9326" fill="#84BE84" rx="3" ry="3" style="stroke: #038048; stroke-width: 1.0;"/><text fill="#000000" font-family="sans-serif" font-size="11" lengthAdjust="spacingAndGlyphs" textLength="240" x="339" y="231.5898">determineDistanceToStoppingZone(): double</text><ellipse cx="330" cy="241.8877" fill="#84BE84" rx="3" ry="3" style="stroke: #038048; stroke-width: 1.0;"/><text fill="#000000" font-family="sans-serif" font-size="11" lengthAdjust="spacingAndGlyphs" textLength="260" x="339" y="244.5449">determineDistanceToStoppingZoneEnd(): double</text></a><!--class org.rcdukes.objects.stoppingzone.ZoneEndBoundary--><a href="ZoneEndBoundary.html" target="_top" xlink:actuate="onRequest" xlink:show="new" xlink:title="ZoneEndBoundary.html" xlink:type="simple"><rect fill="#FEFECE" filter="url(#f39314zehamjl)" height="99.8203" id="org.rcdukes.objects.stoppingzone.ZoneEndBoundary" style="stroke: #A80036; stroke-width: 1.5;" width="261" x="22.5" y="157.5"/><ellipse cx="96.75" cy="173.5" fill="#ADD1B2" rx="11" ry="11" style="stroke: #A80036; stroke-width: 1.0;"/><path d="M99.7231,179.1431 Q99.1421,179.4419 98.5029,179.5913 Q97.8638,179.7407 97.1582,179.7407 Q94.6514,179.7407 93.3315,178.0889 Q92.0117,176.437 92.0117,173.3159 Q92.0117,170.1865 93.3315,168.5347 Q94.6514,166.8828 97.1582,166.8828 Q97.8638,166.8828 98.5112,167.0322 Q99.1587,167.1816 99.7231,167.4805 L99.7231,170.2031 Q99.0923,169.6221 98.4988,169.3523 Q97.9053,169.0825 97.2744,169.0825 Q95.9297,169.0825 95.2449,170.1492 Q94.5601,171.2158 94.5601,173.3159 Q94.5601,175.4077 95.2449,176.4744 Q95.9297,177.541 97.2744,177.541 Q97.9053,177.541 98.4988,177.2712 Q99.0923,177.0015 99.7231,176.4204 Z "/><text fill="#000000" font-family="sans-serif" font-size="12" lengthAdjust="spacingAndGlyphs" textLength="104" x="117.25" y="178.0352">ZoneEndBoundary</text><line style="stroke: #A80036; stroke-width: 1.5;" x1="23.5" x2="282.5" y1="189.5" y2="189.5"/><ellipse cx="33.5" cy="201.4775" fill="none" rx="3" ry="3" style="stroke: #038048; stroke-width: 1.0;"/><text fill="#000000" font-family="sans-serif" font-size="11" lengthAdjust="spacingAndGlyphs" text-decoration="underline" textLength="134" x="42.5" y="204.1348">DEFAULT_ANGLE: double</text><ellipse cx="33.5" cy="214.4326" fill="none" rx="3" ry="3" style="stroke: #038048; stroke-width: 1.0;"/><text fill="#000000" font-family="sans-serif" font-size="11" lengthAdjust="spacingAndGlyphs" text-decoration="underline" textLength="163" x="42.5" y="217.0898">DEFAULT_TOLERANCE: double</text><line style="stroke: #A80036; stroke-width: 1.5;" x1="23.5" x2="282.5" y1="223.4102" y2="223.4102"/><ellipse cx="33.5" cy="235.3877" fill="#84BE84" rx="3" ry="3" style="stroke: #038048; stroke-width: 1.0;"/><text fill="#000000" font-family="sans-serif" font-size="11" lengthAdjust="spacingAndGlyphs" textLength="106" x="42.5" y="238.0449">ZoneEndBoundary()</text><ellipse cx="33.5" cy="248.3428" fill="#84BE84" rx="3" ry="3" style="stroke: #038048; stroke-width: 1.0;"/><text fill="#000000" font-family="sans-serif" font-size="11" lengthAdjust="spacingAndGlyphs" textLength="235" x="42.5" y="251">ZoneEndBoundary(double, double, boolean)</text></a><!--class org.rcdukes.objects.Boundary--><rect fill="#FEFECE" filter="url(#f39314zehamjl)" height="48" id="org.rcdukes.objects.Boundary" style="stroke: #A80036; stroke-width: 1.5;" width="86" x="442" y="43"/><ellipse cx="457" cy="59" fill="#ADD1B2" rx="11" ry="11" style="stroke: #A80036; stroke-width: 1.0;"/><path d="M459.9731,64.6431 Q459.3921,64.9419 458.7529,65.0913 Q458.1138,65.2407 457.4082,65.2407 Q454.9014,65.2407 453.5815,63.5889 Q452.2617,61.937 452.2617,58.8159 Q452.2617,55.6865 453.5815,54.0347 Q454.9014,52.3828 457.4082,52.3828 Q458.1138,52.3828 458.7612,52.5322 Q459.4087,52.6816 459.9731,52.9805 L459.9731,55.7031 Q459.3423,55.1221 458.7488,54.8523 Q458.1553,54.5825 457.5244,54.5825 Q456.1797,54.5825 455.4949,55.6492 Q454.8101,56.7158 454.8101,58.8159 Q454.8101,60.9077 455.4949,61.9744 Q456.1797,63.041 457.5244,63.041 Q458.1553,63.041 458.7488,62.7712 Q459.3423,62.5015 459.9731,61.9204 Z "/><text fill="#000000" font-family="sans-serif" font-size="12" lengthAdjust="spacingAndGlyphs" textLength="54" x="471" y="63.5352">Boundary</text><line style="stroke: #A80036; stroke-width: 1.5;" x1="443" x2="527" y1="75" y2="75"/><line style="stroke: #A80036; stroke-width: 1.5;" x1="443" x2="527" y1="83" y2="83"/><!--link org.rcdukes.objects.Boundary to org.rcdukes.objects.stoppingzone.ZoneStartBoundary--><path d="M547.5292,83.5788 C582.6514,93.6855 626.9404,107.7682 665,124 C683.5103,131.8943 702.7281,141.3217 721.0368,150.9531 " fill="none" id="org.rcdukes.objects.Boundary-org.rcdukes.objects.stoppingzone.ZoneStartBoundary" style="stroke: #A80036; stroke-width: 1.0;"/><polygon fill="none" points="545.3878,90.2483,528.0254,78.1014,549.1731,76.7697,545.3878,90.2483" style="stroke: #A80036; stroke-width: 1.0;"/><!--link org.rcdukes.objects.Boundary to org.rcdukes.objects.stoppingzone.ZoneEndBoundary--><path d="M422.5537,82.9537 C386.6292,92.9901 341.0198,107.2088 302,124 C279.8009,133.5528 256.6348,145.4862 235.3674,157.3161 " fill="none" id="org.rcdukes.objects.Boundary-org.rcdukes.objects.stoppingzone.ZoneEndBoundary" style="stroke: #A80036; stroke-width: 1.0;"/><polygon fill="none" points="420.8001,76.1764,441.9363,77.6793,424.4761,89.6851,420.8001,76.1764" style="stroke: #A80036; stroke-width: 1.0;"/><text fill="#888888" font-family="sans-serif" font-size="10" lengthAdjust="spacingAndGlyphs" textLength="182" x="403" y="299.668">UMLDoclet 1.1.4, PlantUML 1.2019.05</text><!--
@startuml

    namespace org.rcdukes.objects.stoppingzone {

        class ZoneStartBoundary [[ZoneStartBoundary.html]] {
            {static} +DEFAULT_ANGLE: double
            {static} +DEFAULT_TOLERANCE: double
            +ZoneStartBoundary()
            +ZoneStartBoundary(double, double, boolean)
            +boundary(Collection<Line>): Optional<Line>
        }

        class StoppingZoneOrientation [[StoppingZoneOrientation.html]] {
            +StoppingZoneOrientation(StoppingZone, Lane, ViewPort)
            +determineDistanceToStoppingZone(): double
            +determineDistanceToStoppingZoneEnd(): double
        }

        class ZoneEndBoundary [[ZoneEndBoundary.html]] {
            {static} +DEFAULT_ANGLE: double
            {static} +DEFAULT_TOLERANCE: double
            +ZoneEndBoundary()
            +ZoneEndBoundary(double, double, boolean)
        }

        class org.rcdukes.objects.Boundary
        org.rcdukes.objects.Boundary <|- - ZoneStartBoundary

        org.rcdukes.objects.Boundary <|- - ZoneEndBoundary

    }


    center footer UMLDoclet 1.1.4, PlantUML 1.2019.05
@enduml

PlantUML version 1.2019.05(Sat Apr 20 18:45:36 CEST 2019)
(APACHE source distribution)
Java Runtime: Java(TM) SE Runtime Environment
JVM: Java HotSpot(TM) 64-Bit Server VM
Java Version: 1.8.0_152-b16
Operating System: Mac OS X
OS Version: 10.13.6
Default Encoding: UTF-8
Language: de
Country: DE
--></g></svg>