<?xml version="1.0" encoding="UTF-8" standalone="no"?><svg xmlns="http://www.w3.org/2000/svg" xmlns:xlink="http://www.w3.org/1999/xlink" contentScriptType="application/ecmascript" contentStyleType="text/css" height="326px" preserveAspectRatio="none" style="width:509px;height:326px;" version="1.1" viewBox="0 0 509 326" width="509px" zoomAndPan="magnify"><defs><filter height="300%" id="f13bx8v58v2i9y" width="300%" x="-1" y="-1"><feGaussianBlur result="blurOut" stdDeviation="2.0"/><feColorMatrix in="blurOut" result="blurOut2" type="matrix" values="0 0 0 0 0 0 0 0 0 0 0 0 0 0 0 0 0 0 .4 0"/><feOffset dx="4.0" dy="4.0" in="blurOut2" result="blurOut3"/><feBlend in="SourceGraphic" in2="blurOut3" mode="normal"/></filter></defs><g><!--cluster nl.vaneijndhoven.dukes.cooter--><polygon fill="#FFFFFF" filter="url(#f13bx8v58v2i9y)" points="14,124,235,124,242,146.4883,487,146.4883,487,285,14,285,14,124" style="stroke: #000000; stroke-width: 1.5;"/><line style="stroke: #000000; stroke-width: 1.5;" x1="14" x2="242" y1="146.4883" y2="146.4883"/><text fill="#000000" font-family="sans-serif" font-size="14" font-weight="bold" lengthAdjust="spacingAndGlyphs" textLength="215" x="18" y="139.5352">nl.vaneijndhoven.dukes.cooter</text><!--cluster java.util.function--><polygon fill="#FFFFFF" filter="url(#f13bx8v58v2i9y)" points="177,16,303,16,310,38.4883,323,38.4883,323,99,177,99,177,16" style="stroke: #000000; stroke-width: 1.5;"/><line style="stroke: #000000; stroke-width: 1.5;" x1="177" x2="310" y1="38.4883" y2="38.4883"/><text fill="#000000" font-family="sans-serif" font-size="14" font-weight="bold" lengthAdjust="spacingAndGlyphs" textLength="120" x="181" y="31.5352">java.util.function</text><!--class nl.vaneijndhoven.dukes.cooter.PerspectiveShift--><a href="PerspectiveShift.html" target="_top" xlink:actuate="onRequest" xlink:show="new" xlink:title="PerspectiveShift.html" xlink:type="simple"><rect fill="#FEFECE" filter="url(#f13bx8v58v2i9y)" height="73.9102" id="nl.vaneijndhoven.dukes.cooter.PerspectiveShift" style="stroke: #A80036; stroke-width: 1.5;" width="211" x="267.5" y="177"/><ellipse cx="323.75" cy="193" fill="#ADD1B2" rx="11" ry="11" style="stroke: #A80036; stroke-width: 1.0;"/><path d="M326.7231,198.6431 Q326.1421,198.9419 325.5029,199.0913 Q324.8638,199.2407 324.1582,199.2407 Q321.6514,199.2407 320.3315,197.5889 Q319.0117,195.937 319.0117,192.8159 Q319.0117,189.6865 320.3315,188.0347 Q321.6514,186.3828 324.1582,186.3828 Q324.8638,186.3828 325.5112,186.5322 Q326.1587,186.6816 326.7231,186.9805 L326.7231,189.7031 Q326.0923,189.1221 325.4988,188.8523 Q324.9053,188.5825 324.2744,188.5825 Q322.9297,188.5825 322.2449,189.6492 Q321.5601,190.7158 321.5601,192.8159 Q321.5601,194.9077 322.2449,195.9744 Q322.9297,197.041 324.2744,197.041 Q324.9053,197.041 325.4988,196.7712 Q326.0923,196.5015 326.7231,195.9204 Z "/><text fill="#000000" font-family="sans-serif" font-size="12" lengthAdjust="spacingAndGlyphs" textLength="90" x="344.25" y="197.5352">PerspectiveShift</text><line style="stroke: #A80036; stroke-width: 1.5;" x1="268.5" x2="477.5" y1="209" y2="209"/><line style="stroke: #A80036; stroke-width: 1.5;" x1="268.5" x2="477.5" y1="217" y2="217"/><ellipse cx="278.5" cy="228.9775" fill="#84BE84" rx="3" ry="3" style="stroke: #038048; stroke-width: 1.0;"/><text fill="#000000" font-family="sans-serif" font-size="11" lengthAdjust="spacingAndGlyphs" textLength="185" x="287.5" y="231.6348">PerspectiveShift(Polygon, Polygon)</text><ellipse cx="278.5" cy="241.9326" fill="#84BE84" rx="3" ry="3" style="stroke: #038048; stroke-width: 1.0;"/><text fill="#000000" font-family="sans-serif" font-size="11" lengthAdjust="spacingAndGlyphs" textLength="81" x="287.5" y="244.5898">apply(Mat): Mat</text></a><!--class nl.vaneijndhoven.dukes.cooter.CameraMatrix--><a href="CameraMatrix.html" target="_top" xlink:actuate="onRequest" xlink:show="new" xlink:title="CameraMatrix.html" xlink:type="simple"><rect fill="#FEFECE" filter="url(#f13bx8v58v2i9y)" height="125.7305" id="nl.vaneijndhoven.dukes.cooter.CameraMatrix" style="stroke: #A80036; stroke-width: 1.5;" width="210" x="22" y="151"/><ellipse cx="82.25" cy="167" fill="#ADD1B2" rx="11" ry="11" style="stroke: #A80036; stroke-width: 1.0;"/><path d="M85.2231,172.6431 Q84.6421,172.9419 84.0029,173.0913 Q83.3638,173.2407 82.6582,173.2407 Q80.1514,173.2407 78.8315,171.5889 Q77.5117,169.937 77.5117,166.8159 Q77.5117,163.6865 78.8315,162.0347 Q80.1514,160.3828 82.6582,160.3828 Q83.3638,160.3828 84.0112,160.5322 Q84.6587,160.6816 85.2231,160.9805 L85.2231,163.7031 Q84.5923,163.1221 83.9988,162.8523 Q83.4053,162.5825 82.7744,162.5825 Q81.4297,162.5825 80.7449,163.6492 Q80.0601,164.7158 80.0601,166.8159 Q80.0601,168.9077 80.7449,169.9744 Q81.4297,171.041 82.7744,171.041 Q83.4053,171.041 83.9988,170.7712 Q84.5923,170.5015 85.2231,169.9204 Z "/><text fill="#000000" font-family="sans-serif" font-size="12" lengthAdjust="spacingAndGlyphs" textLength="81" x="102.75" y="171.5352">CameraMatrix</text><line style="stroke: #A80036; stroke-width: 1.5;" x1="23" x2="231" y1="183" y2="183"/><ellipse cx="33" cy="194.9775" fill="none" rx="3" ry="3" style="stroke: #038048; stroke-width: 1.0;"/><text fill="#000000" font-family="sans-serif" font-size="11" lengthAdjust="spacingAndGlyphs" text-decoration="underline" textLength="130" x="42" y="197.6348">DEFAULT: CameraMatrix</text><line style="stroke: #A80036; stroke-width: 1.5;" x1="23" x2="231" y1="203.9551" y2="203.9551"/><ellipse cx="33" cy="215.9326" fill="#84BE84" rx="3" ry="3" style="stroke: #038048; stroke-width: 1.0;"/><text fill="#000000" font-family="sans-serif" font-size="11" lengthAdjust="spacingAndGlyphs" textLength="117" x="42" y="218.5898">CameraMatrix(int, int)</text><ellipse cx="33" cy="228.8877" fill="#84BE84" rx="3" ry="3" style="stroke: #038048; stroke-width: 1.0;"/><text fill="#000000" font-family="sans-serif" font-size="11" lengthAdjust="spacingAndGlyphs" textLength="110" x="42" y="231.5449">calibrate(Mat[]): void</text><ellipse cx="33" cy="241.8428" fill="#84BE84" rx="3" ry="3" style="stroke: #038048; stroke-width: 1.0;"/><text fill="#000000" font-family="sans-serif" font-size="11" lengthAdjust="spacingAndGlyphs" textLength="81" x="42" y="244.5">apply(Mat): Mat</text><ellipse cx="33" cy="254.7979" fill="#84BE84" rx="3" ry="3" style="stroke: #038048; stroke-width: 1.0;"/><text fill="#000000" font-family="sans-serif" font-size="11" lengthAdjust="spacingAndGlyphs" textLength="90" x="42" y="257.4551">serialize(): String</text><ellipse cx="33" cy="267.7529" fill="#84BE84" rx="3" ry="3" style="stroke: #038048; stroke-width: 1.0;"/><text fill="#000000" font-family="sans-serif" font-size="11" lengthAdjust="spacingAndGlyphs" text-decoration="underline" textLength="184" x="42" y="270.4102">deserizalize(String): CameraMatrix</text></a><!--class java.util.function.UnaryOperator--><rect fill="#FEFECE" filter="url(#f13bx8v58v2i9y)" height="48" id="java.util.function.UnaryOperator" style="stroke: #A80036; stroke-width: 1.5;" width="129" x="185.5" y="43"/><ellipse cx="200.5" cy="59" fill="#B4A7E5" rx="11" ry="11" style="stroke: #A80036; stroke-width: 1.0;"/><path d="M196.4277,54.7651 L196.4277,52.6069 L203.8071,52.6069 L203.8071,54.7651 L201.3418,54.7651 L201.3418,62.8418 L203.8071,62.8418 L203.8071,65 L196.4277,65 L196.4277,62.8418 L198.8931,62.8418 L198.8931,54.7651 Z "/><text fill="#000000" font-family="sans-serif" font-size="12" font-style="italic" lengthAdjust="spacingAndGlyphs" textLength="85" x="214.5" y="63.5352">UnaryOperator</text><rect fill="#FFFFFF" height="16.1328" style="stroke: #000000; stroke-width: 1.0; stroke-dasharray: 2.0,2.0;" width="10" x="307.5" y="40"/><text fill="#000000" font-family="sans-serif" font-size="12" font-style="italic" lengthAdjust="spacingAndGlyphs" textLength="8" x="308.5" y="52.6016">T</text><line style="stroke: #A80036; stroke-width: 1.5;" x1="186.5" x2="313.5" y1="75" y2="75"/><line style="stroke: #A80036; stroke-width: 1.5;" x1="186.5" x2="313.5" y1="83" y2="83"/><!--link java.util.function.UnaryOperator to nl.vaneijndhoven.dukes.cooter.PerspectiveShift--><path d="M283.2744,106.767 C301.4925,128.5398 323.9303,155.3557 341.8104,176.7246 " fill="none" id="java.util.function.UnaryOperator-nl.vaneijndhoven.dukes.cooter.PerspectiveShift" style="stroke: #A80036; stroke-width: 1.0; stroke-dasharray: 7.0,7.0;"/><polygon fill="none" points="277.7769,111.1049,270.3109,91.2741,288.514,102.1207,277.7769,111.1049" style="stroke: #A80036; stroke-width: 1.0;"/><!--link java.util.function.UnaryOperator to nl.vaneijndhoven.dukes.cooter.CameraMatrix--><path d="M216.7444,106.7446 C205.3403,120.3738 192.2811,135.9811 179.7207,150.9924 " fill="none" id="java.util.function.UnaryOperator-nl.vaneijndhoven.dukes.cooter.CameraMatrix" style="stroke: #A80036; stroke-width: 1.0; stroke-dasharray: 7.0,7.0;"/><polygon fill="none" points="211.486,102.1207,229.6891,91.2741,222.2231,111.1049,211.486,102.1207" style="stroke: #A80036; stroke-width: 1.0;"/><text fill="#888888" font-family="sans-serif" font-size="10" lengthAdjust="spacingAndGlyphs" textLength="182" x="165.5" y="312.668">UMLDoclet 1.1.4, PlantUML 1.2019.05</text><!--
@startuml

    namespace nl.vaneijndhoven.dukes.cooter {

        class PerspectiveShift [[PerspectiveShift.html]] {
            +PerspectiveShift(Polygon, Polygon)
            +apply(Mat): Mat
        }

        class CameraMatrix [[CameraMatrix.html]] {
            {static} +DEFAULT: CameraMatrix
            +CameraMatrix(int, int)
            +calibrate(Mat[]): void
            +apply(Mat): Mat
            +serialize(): String
            {static} +deserizalize(String): CameraMatrix
        }

        interface java.util.function.UnaryOperator<T>
        java.util.function.UnaryOperator <|.. PerspectiveShift

        java.util.function.UnaryOperator <|.. CameraMatrix

    }


    center footer UMLDoclet 1.1.4, PlantUML 1.2019.05
@enduml

PlantUML version 1.2019.05(Sat Apr 20 18:45:36 CEST 2019)
(APACHE source distribution)
Java Runtime: Java(TM) SE Runtime Environment
JVM: Java HotSpot(TM) 64-Bit Server VM
Java Version: 1.8.0_152-b16
Operating System: Mac OS X
OS Version: 10.13.6
Default Encoding: UTF-8
Language: de
Country: DE
--></g></svg>