<?xml version="1.0" encoding="UTF-8" standalone="no"?><svg xmlns="http://www.w3.org/2000/svg" xmlns:xlink="http://www.w3.org/1999/xlink" contentScriptType="application/ecmascript" contentStyleType="text/css" height="192px" preserveAspectRatio="none" style="width:201px;height:192px;" version="1.1" viewBox="0 0 201 192" width="201px" zoomAndPan="magnify"><defs><filter height="300%" id="f13ebry2rfhysx" width="300%" x="-1" y="-1"><feGaussianBlur result="blurOut" stdDeviation="2.0"/><feColorMatrix in="blurOut" result="blurOut2" type="matrix" values="0 0 0 0 0 0 0 0 0 0 0 0 0 0 0 0 0 0 .4 0"/><feOffset dx="4.0" dy="4.0" in="blurOut2" result="blurOut3"/><feBlend in="SourceGraphic" in2="blurOut3" mode="normal"/></filter></defs><g><!--cluster TestGraphDatabase--><polygon fill="#FFFFFF" filter="url(#f13ebry2rfhysx)" points="14,16,160,16,167,38.4883,170,38.4883,170,151,14,151,14,16" style="stroke: #000000; stroke-width: 1.5;"/><line style="stroke: #000000; stroke-width: 1.5;" x1="14" x2="167" y1="38.4883" y2="38.4883"/><text fill="#000000" font-family="sans-serif" font-size="14" font-weight="bold" lengthAdjust="spacingAndGlyphs" textLength="140" x="18" y="31.5352">TestGraphDatabase</text><!--class TestGraphDatabase.Person--><a href="TestGraphDatabase.Person.html" target="_top" xlink:actuate="onRequest" xlink:show="new" xlink:title="TestGraphDatabase.Person.html" xlink:type="simple"><rect fill="#FEFECE" filter="url(#f13ebry2rfhysx)" height="99.8203" id="TestGraphDatabase.Person" style="stroke: #A80036; stroke-width: 1.5;" width="123" x="30.5" y="43"/><ellipse cx="68.9" cy="59" fill="#ADD1B2" rx="11" ry="11" style="stroke: #A80036; stroke-width: 1.0;"/><path d="M71.8731,64.6431 Q71.2921,64.9419 70.6529,65.0913 Q70.0138,65.2407 69.3082,65.2407 Q66.8014,65.2407 65.4815,63.5889 Q64.1617,61.937 64.1617,58.8159 Q64.1617,55.6865 65.4815,54.0347 Q66.8014,52.3828 69.3082,52.3828 Q70.0138,52.3828 70.6612,52.5322 Q71.3087,52.6816 71.8731,52.9805 L71.8731,55.7031 Q71.2423,55.1221 70.6488,54.8523 Q70.0553,54.5825 69.4244,54.5825 Q68.0797,54.5825 67.3949,55.6492 Q66.7101,56.7158 66.7101,58.8159 Q66.7101,60.9077 67.3949,61.9744 Q68.0797,63.041 69.4244,63.041 Q70.0553,63.041 70.6488,62.7712 Q71.2423,62.5015 71.8731,61.9204 Z "/><text fill="#000000" font-family="sans-serif" font-size="12" lengthAdjust="spacingAndGlyphs" textLength="39" x="88.1" y="63.5352">Person</text><line style="stroke: #A80036; stroke-width: 1.5;" x1="31.5" x2="152.5" y1="75" y2="75"/><ellipse cx="41.5" cy="86.9775" fill="none" rx="3" ry="3" style="stroke: #038048; stroke-width: 1.0;"/><text fill="#000000" font-family="sans-serif" font-size="11" lengthAdjust="spacingAndGlyphs" textLength="67" x="50.5" y="89.6348">name: String</text><ellipse cx="41.5" cy="99.9326" fill="none" rx="3" ry="3" style="stroke: #038048; stroke-width: 1.0;"/><text fill="#000000" font-family="sans-serif" font-size="11" lengthAdjust="spacingAndGlyphs" textLength="39" x="50.5" y="102.5898">age: int</text><line style="stroke: #A80036; stroke-width: 1.5;" x1="31.5" x2="152.5" y1="108.9102" y2="108.9102"/><ellipse cx="41.5" cy="120.8877" fill="#84BE84" rx="3" ry="3" style="stroke: #038048; stroke-width: 1.0;"/><text fill="#000000" font-family="sans-serif" font-size="11" lengthAdjust="spacingAndGlyphs" textLength="45" x="50.5" y="123.5449">Person()</text><ellipse cx="41.5" cy="133.8428" fill="#84BE84" rx="3" ry="3" style="stroke: #038048; stroke-width: 1.0;"/><text fill="#000000" font-family="sans-serif" font-size="11" lengthAdjust="spacingAndGlyphs" textLength="97" x="50.5" y="136.5">Person(String, int)</text></a><text fill="#888888" font-family="sans-serif" font-size="10" lengthAdjust="spacingAndGlyphs" textLength="182" x="7" y="178.668">UMLDoclet 1.1.4, PlantUML 1.2019.05</text><!--
@startuml

    class TestGraphDatabase.Person [[TestGraphDatabase.Person.html]] {
        +name: String
        +age: int
        +Person()
        +Person(String, int)
    }


    center footer UMLDoclet 1.1.4, PlantUML 1.2019.05
@enduml

PlantUML version 1.2019.05(Sat Apr 20 18:45:36 CEST 2019)
(APACHE source distribution)
Java Runtime: Java(TM) SE Runtime Environment
JVM: Java HotSpot(TM) 64-Bit Server VM
Java Version: 1.8.0_152-b16
Operating System: Mac OS X
OS Version: 10.13.6
Default Encoding: UTF-8
Language: de
Country: DE
--></g></svg>