<?xml version="1.0" encoding="UTF-8" standalone="no"?><svg xmlns="http://www.w3.org/2000/svg" xmlns:xlink="http://www.w3.org/1999/xlink" contentScriptType="application/ecmascript" contentStyleType="text/css" height="525px" preserveAspectRatio="none" style="width:1308px;height:525px;" version="1.1" viewBox="0 0 1308 525" width="1308px" zoomAndPan="magnify"><defs><filter height="300%" id="f7zzv9xtec85x" width="300%" x="-1" y="-1"><feGaussianBlur result="blurOut" stdDeviation="2.0"/><feColorMatrix in="blurOut" result="blurOut2" type="matrix" values="0 0 0 0 0 0 0 0 0 0 0 0 0 0 0 0 0 0 .4 0"/><feOffset dx="4.0" dy="4.0" in="blurOut2" result="blurOut3"/><feBlend in="SourceGraphic" in2="blurOut3" mode="normal"/></filter></defs><g><!--cluster nl.vaneijndhoven.opencv.video--><polygon fill="#FFFFFF" filter="url(#f7zzv9xtec85x)" points="14,137,236,137,243,159.4883,1286,159.4883,1286,484,14,484,14,137" style="stroke: #000000; stroke-width: 1.5;"/><line style="stroke: #000000; stroke-width: 1.5;" x1="14" x2="243" y1="159.4883" y2="159.4883"/><text fill="#000000" font-family="sans-serif" font-size="14" font-weight="bold" lengthAdjust="spacingAndGlyphs" textLength="216" x="18" y="152.5352">nl.vaneijndhoven.opencv.video</text><!--cluster javafx.application--><polygon fill="#FFFFFF" filter="url(#f7zzv9xtec85x)" points="125,16,257,16,264,38.4883,267,38.4883,267,112,125,112,125,16" style="stroke: #000000; stroke-width: 1.5;"/><line style="stroke: #000000; stroke-width: 1.5;" x1="125" x2="264" y1="38.4883" y2="38.4883"/><text fill="#000000" font-family="sans-serif" font-size="14" font-weight="bold" lengthAdjust="spacingAndGlyphs" textLength="126" x="129" y="31.5352">javafx.application</text><!--class nl.vaneijndhoven.opencv.video.ImageUtils--><a href="ImageUtils.html" target="_top" xlink:actuate="onRequest" xlink:show="new" xlink:title="ImageUtils.html" xlink:type="simple"><rect fill="#FEFECE" filter="url(#f7zzv9xtec85x)" height="73.9102" id="nl.vaneijndhoven.opencv.video.ImageUtils" style="stroke: #A80036; stroke-width: 1.5;" width="166" x="393" y="222.5"/><ellipse cx="442.25" cy="238.5" fill="#ADD1B2" rx="11" ry="11" style="stroke: #A80036; stroke-width: 1.0;"/><path d="M445.2231,244.1431 Q444.6421,244.4419 444.0029,244.5913 Q443.3638,244.7407 442.6582,244.7407 Q440.1514,244.7407 438.8315,243.0889 Q437.5117,241.437 437.5117,238.3159 Q437.5117,235.1865 438.8315,233.5347 Q440.1514,231.8828 442.6582,231.8828 Q443.3638,231.8828 444.0112,232.0322 Q444.6587,232.1816 445.2231,232.4805 L445.2231,235.2031 Q444.5923,234.6221 443.9988,234.3523 Q443.4053,234.0825 442.7744,234.0825 Q441.4297,234.0825 440.7449,235.1492 Q440.0601,236.2158 440.0601,238.3159 Q440.0601,240.4077 440.7449,241.4744 Q441.4297,242.541 442.7744,242.541 Q443.4053,242.541 443.9988,242.2712 Q444.5923,242.0015 445.2231,241.4204 Z "/><text fill="#000000" font-family="sans-serif" font-size="12" lengthAdjust="spacingAndGlyphs" textLength="59" x="462.75" y="243.0352">ImageUtils</text><line style="stroke: #A80036; stroke-width: 1.5;" x1="394" x2="558" y1="254.5" y2="254.5"/><line style="stroke: #A80036; stroke-width: 1.5;" x1="394" x2="558" y1="262.5" y2="262.5"/><ellipse cx="404" cy="274.4775" fill="#84BE84" rx="3" ry="3" style="stroke: #038048; stroke-width: 1.0;"/><text fill="#000000" font-family="sans-serif" font-size="11" lengthAdjust="spacingAndGlyphs" text-decoration="underline" textLength="124" x="413" y="277.1348">mat2Image(Mat): Image</text><ellipse cx="404" cy="287.4326" fill="#84BE84" rx="3" ry="3" style="stroke: #038048; stroke-width: 1.0;"/><text fill="#000000" font-family="sans-serif" font-size="11" lengthAdjust="spacingAndGlyphs" text-decoration="underline" textLength="140" x="413" y="290.0898">releaseImages(Mat[]): void</text></a><!--class nl.vaneijndhoven.opencv.video.LaneDetectionController--><a href="LaneDetectionController.html" target="_top" xlink:actuate="onRequest" xlink:show="new" xlink:title="LaneDetectionController.html" xlink:type="simple"><rect fill="#FEFECE" filter="url(#f7zzv9xtec85x)" height="190.5059" id="nl.vaneijndhoven.opencv.video.LaneDetectionController" style="stroke: #A80036; stroke-width: 1.5;" width="683" x="594.5" y="164"/><ellipse cx="863.25" cy="180" fill="#ADD1B2" rx="11" ry="11" style="stroke: #A80036; stroke-width: 1.0;"/><path d="M866.2231,185.6431 Q865.6421,185.9419 865.0029,186.0913 Q864.3638,186.2407 863.6582,186.2407 Q861.1514,186.2407 859.8315,184.5889 Q858.5117,182.937 858.5117,179.8159 Q858.5117,176.6865 859.8315,175.0347 Q861.1514,173.3828 863.6582,173.3828 Q864.3638,173.3828 865.0112,173.5322 Q865.6587,173.6816 866.2231,173.9805 L866.2231,176.7031 Q865.5923,176.1221 864.9988,175.8523 Q864.4053,175.5825 863.7744,175.5825 Q862.4297,175.5825 861.7449,176.6492 Q861.0601,177.7158 861.0601,179.8159 Q861.0601,181.9077 861.7449,182.9744 Q862.4297,184.041 863.7744,184.041 Q864.4053,184.041 864.9988,183.7712 Q865.5923,183.5015 866.2231,182.9204 Z "/><text fill="#000000" font-family="sans-serif" font-size="12" lengthAdjust="spacingAndGlyphs" textLength="137" x="883.75" y="184.5352">LaneDetectionController</text><line style="stroke: #A80036; stroke-width: 1.5;" x1="595.5" x2="1276.5" y1="196" y2="196"/><ellipse cx="605.5" cy="207.9775" fill="none" rx="3" ry="3" style="stroke: #038048; stroke-width: 1.0;"/><text fill="#000000" font-family="sans-serif" font-size="11" lengthAdjust="spacingAndGlyphs" text-decoration="underline" textLength="235" x="614.5" y="210.6348">DEFAULT_LANE_BOUNDARY_ANGLE: double</text><ellipse cx="605.5" cy="220.9326" fill="none" rx="3" ry="3" style="stroke: #038048; stroke-width: 1.0;"/><text fill="#000000" font-family="sans-serif" font-size="11" lengthAdjust="spacingAndGlyphs" text-decoration="underline" textLength="264" x="614.5" y="223.5898">DEFAULT_LANE_BOUNDARY_TOLERANCE: double</text><ellipse cx="605.5" cy="233.8877" fill="none" rx="3" ry="3" style="stroke: #038048; stroke-width: 1.0;"/><text fill="#000000" font-family="sans-serif" font-size="11" lengthAdjust="spacingAndGlyphs" text-decoration="underline" textLength="221" x="614.5" y="236.5449">DEFAULT_CANNY_THRESHOLD_1: double</text><ellipse cx="605.5" cy="246.8428" fill="none" rx="3" ry="3" style="stroke: #038048; stroke-width: 1.0;"/><text fill="#000000" font-family="sans-serif" font-size="11" lengthAdjust="spacingAndGlyphs" text-decoration="underline" textLength="221" x="614.5" y="249.5">DEFAULT_CANNY_THRESHOLD_2: double</text><ellipse cx="605.5" cy="259.7979" fill="none" rx="3" ry="3" style="stroke: #038048; stroke-width: 1.0;"/><text fill="#000000" font-family="sans-serif" font-size="11" lengthAdjust="spacingAndGlyphs" text-decoration="underline" textLength="176" x="614.5" y="262.4551">DEFAULT_LINE_DETECT_RHO: int</text><ellipse cx="605.5" cy="272.7529" fill="none" rx="3" ry="3" style="stroke: #038048; stroke-width: 1.0;"/><text fill="#000000" font-family="sans-serif" font-size="11" lengthAdjust="spacingAndGlyphs" text-decoration="underline" textLength="211" x="614.5" y="275.4102">DEFAULT_LINE_DETECT_THETA: double</text><ellipse cx="605.5" cy="285.708" fill="none" rx="3" ry="3" style="stroke: #038048; stroke-width: 1.0;"/><text fill="#000000" font-family="sans-serif" font-size="11" lengthAdjust="spacingAndGlyphs" text-decoration="underline" textLength="240" x="614.5" y="288.3652">DEFAULT_LINE_DETECT_THRESHOLD: double</text><ellipse cx="605.5" cy="298.6631" fill="none" rx="3" ry="3" style="stroke: #038048; stroke-width: 1.0;"/><text fill="#000000" font-family="sans-serif" font-size="11" lengthAdjust="spacingAndGlyphs" text-decoration="underline" textLength="273" x="614.5" y="301.3203">DEFAULT_LINE_DETECT_MIN_LINE_LENGTH: double</text><ellipse cx="605.5" cy="311.6182" fill="none" rx="3" ry="3" style="stroke: #038048; stroke-width: 1.0;"/><text fill="#000000" font-family="sans-serif" font-size="11" lengthAdjust="spacingAndGlyphs" text-decoration="underline" textLength="256" x="614.5" y="314.2754">DEFAULT_LINE_DETECT_MAX_LINE_GAP: double</text><line style="stroke: #A80036; stroke-width: 1.5;" x1="595.5" x2="1276.5" y1="320.5957" y2="320.5957"/><ellipse cx="605.5" cy="332.5732" fill="#84BE84" rx="3" ry="3" style="stroke: #038048; stroke-width: 1.0;"/><text fill="#000000" font-family="sans-serif" font-size="11" lengthAdjust="spacingAndGlyphs" textLength="168" x="614.5" y="335.2305">LaneDetectionController(Vertx)</text><ellipse cx="605.5" cy="345.5283" fill="#84BE84" rx="3" ry="3" style="stroke: #038048; stroke-width: 1.0;"/><text fill="#000000" font-family="sans-serif" font-size="11" lengthAdjust="spacingAndGlyphs" textLength="657" x="614.5" y="348.1855">performLaneDetection(Mat, CannyEdgeDetector.Config, ProbabilisticHoughLinesLineDetector.Config, ImageCollector): void</text></a><!--class nl.vaneijndhoven.opencv.video.LaneDetectionApp--><a href="LaneDetectionApp.html" target="_top" xlink:actuate="onRequest" xlink:show="new" xlink:title="LaneDetectionApp.html" xlink:type="simple"><rect fill="#FEFECE" filter="url(#f7zzv9xtec85x)" height="73.9102" id="nl.vaneijndhoven.opencv.video.LaneDetectionApp" style="stroke: #A80036; stroke-width: 1.5;" width="137" x="220.5" y="222.5"/><ellipse cx="235.5" cy="238.5" fill="#ADD1B2" rx="11" ry="11" style="stroke: #A80036; stroke-width: 1.0;"/><path d="M238.4731,244.1431 Q237.8921,244.4419 237.2529,244.5913 Q236.6138,244.7407 235.9082,244.7407 Q233.4014,244.7407 232.0815,243.0889 Q230.7617,241.437 230.7617,238.3159 Q230.7617,235.1865 232.0815,233.5347 Q233.4014,231.8828 235.9082,231.8828 Q236.6138,231.8828 237.2612,232.0322 Q237.9087,232.1816 238.4731,232.4805 L238.4731,235.2031 Q237.8423,234.6221 237.2488,234.3523 Q236.6553,234.0825 236.0244,234.0825 Q234.6797,234.0825 233.9949,235.1492 Q233.3101,236.2158 233.3101,238.3159 Q233.3101,240.4077 233.9949,241.4744 Q234.6797,242.541 236.0244,242.541 Q236.6553,242.541 237.2488,242.2712 Q237.8423,242.0015 238.4731,241.4204 Z "/><text fill="#000000" font-family="sans-serif" font-size="12" lengthAdjust="spacingAndGlyphs" textLength="105" x="249.5" y="243.0352">LaneDetectionApp</text><line style="stroke: #A80036; stroke-width: 1.5;" x1="221.5" x2="356.5" y1="254.5" y2="254.5"/><line style="stroke: #A80036; stroke-width: 1.5;" x1="221.5" x2="356.5" y1="262.5" y2="262.5"/><ellipse cx="231.5" cy="274.4775" fill="#84BE84" rx="3" ry="3" style="stroke: #038048; stroke-width: 1.0;"/><text fill="#000000" font-family="sans-serif" font-size="11" lengthAdjust="spacingAndGlyphs" textLength="91" x="240.5" y="277.1348">start(Stage): void</text><ellipse cx="231.5" cy="287.4326" fill="#84BE84" rx="3" ry="3" style="stroke: #038048; stroke-width: 1.0;"/><text fill="#000000" font-family="sans-serif" font-size="11" lengthAdjust="spacingAndGlyphs" text-decoration="underline" textLength="103" x="240.5" y="290.0898">main(String[]): void</text></a><!--class nl.vaneijndhoven.opencv.video.StartLightDetectionController--><a href="StartLightDetectionController.html" target="_top" xlink:actuate="onRequest" xlink:show="new" xlink:title="StartLightDetectionController.html" xlink:type="simple"><rect fill="#FEFECE" filter="url(#f7zzv9xtec85x)" height="48" id="nl.vaneijndhoven.opencv.video.StartLightDetectionController" style="stroke: #A80036; stroke-width: 1.5;" width="195" x="378.5" y="421.5"/><ellipse cx="393.5" cy="437.5" fill="#ADD1B2" rx="11" ry="11" style="stroke: #A80036; stroke-width: 1.0;"/><path d="M396.4731,443.1431 Q395.8921,443.4419 395.2529,443.5913 Q394.6138,443.7407 393.9082,443.7407 Q391.4014,443.7407 390.0815,442.0889 Q388.7617,440.437 388.7617,437.3159 Q388.7617,434.1865 390.0815,432.5347 Q391.4014,430.8828 393.9082,430.8828 Q394.6138,430.8828 395.2612,431.0322 Q395.9087,431.1816 396.4731,431.4805 L396.4731,434.2031 Q395.8423,433.6221 395.2488,433.3523 Q394.6553,433.0825 394.0244,433.0825 Q392.6797,433.0825 391.9949,434.1492 Q391.3101,435.2158 391.3101,437.3159 Q391.3101,439.4077 391.9949,440.4744 Q392.6797,441.541 394.0244,441.541 Q394.6553,441.541 395.2488,441.2712 Q395.8423,441.0015 396.4731,440.4204 Z "/><text fill="#000000" font-family="sans-serif" font-size="12" lengthAdjust="spacingAndGlyphs" textLength="163" x="407.5" y="442.0352">StartLightDetectionController</text><line style="stroke: #A80036; stroke-width: 1.5;" x1="379.5" x2="572.5" y1="453.5" y2="453.5"/><line style="stroke: #A80036; stroke-width: 1.5;" x1="379.5" x2="572.5" y1="461.5" y2="461.5"/></a><!--class nl.vaneijndhoven.opencv.video.StartLightDetectionApp--><a href="StartLightDetectionApp.html" target="_top" xlink:actuate="onRequest" xlink:show="new" xlink:title="StartLightDetectionApp.html" xlink:type="simple"><rect fill="#FEFECE" filter="url(#f7zzv9xtec85x)" height="73.9102" id="nl.vaneijndhoven.opencv.video.StartLightDetectionApp" style="stroke: #A80036; stroke-width: 1.5;" width="163" x="22.5" y="222.5"/><ellipse cx="37.5" cy="238.5" fill="#ADD1B2" rx="11" ry="11" style="stroke: #A80036; stroke-width: 1.0;"/><path d="M40.4731,244.1431 Q39.8921,244.4419 39.2529,244.5913 Q38.6138,244.7407 37.9082,244.7407 Q35.4014,244.7407 34.0815,243.0889 Q32.7617,241.437 32.7617,238.3159 Q32.7617,235.1865 34.0815,233.5347 Q35.4014,231.8828 37.9082,231.8828 Q38.6138,231.8828 39.2612,232.0322 Q39.9087,232.1816 40.4731,232.4805 L40.4731,235.2031 Q39.8423,234.6221 39.2488,234.3523 Q38.6553,234.0825 38.0244,234.0825 Q36.6797,234.0825 35.9949,235.1492 Q35.3101,236.2158 35.3101,238.3159 Q35.3101,240.4077 35.9949,241.4744 Q36.6797,242.541 38.0244,242.541 Q38.6553,242.541 39.2488,242.2712 Q39.8423,242.0015 40.4731,241.4204 Z "/><text fill="#000000" font-family="sans-serif" font-size="12" lengthAdjust="spacingAndGlyphs" textLength="131" x="51.5" y="243.0352">StartLightDetectionApp</text><line style="stroke: #A80036; stroke-width: 1.5;" x1="23.5" x2="184.5" y1="254.5" y2="254.5"/><line style="stroke: #A80036; stroke-width: 1.5;" x1="23.5" x2="184.5" y1="262.5" y2="262.5"/><ellipse cx="33.5" cy="274.4775" fill="#84BE84" rx="3" ry="3" style="stroke: #038048; stroke-width: 1.0;"/><text fill="#000000" font-family="sans-serif" font-size="11" lengthAdjust="spacingAndGlyphs" textLength="91" x="42.5" y="277.1348">start(Stage): void</text><ellipse cx="33.5" cy="287.4326" fill="#84BE84" rx="3" ry="3" style="stroke: #038048; stroke-width: 1.0;"/><text fill="#000000" font-family="sans-serif" font-size="11" lengthAdjust="spacingAndGlyphs" text-decoration="underline" textLength="103" x="42.5" y="290.0898">main(String[]): void</text></a><!--class nl.vaneijndhoven.opencv.video.LaneDetectionGUI--><a href="LaneDetectionGUI.html" target="_top" xlink:actuate="onRequest" xlink:show="new" xlink:title="LaneDetectionGUI.html" xlink:type="simple"><rect fill="#FEFECE" filter="url(#f7zzv9xtec85x)" height="60.9551" id="nl.vaneijndhoven.opencv.video.LaneDetectionGUI" style="stroke: #A80036; stroke-width: 1.5;" width="133" x="608.5" y="415"/><ellipse cx="623.5" cy="431" fill="#ADD1B2" rx="11" ry="11" style="stroke: #A80036; stroke-width: 1.0;"/><path d="M626.4731,436.6431 Q625.8921,436.9419 625.2529,437.0913 Q624.6138,437.2407 623.9082,437.2407 Q621.4014,437.2407 620.0815,435.5889 Q618.7617,433.937 618.7617,430.8159 Q618.7617,427.6865 620.0815,426.0347 Q621.4014,424.3828 623.9082,424.3828 Q624.6138,424.3828 625.2612,424.5322 Q625.9087,424.6816 626.4731,424.9805 L626.4731,427.7031 Q625.8423,427.1221 625.2488,426.8523 Q624.6553,426.5825 624.0244,426.5825 Q622.6797,426.5825 621.9949,427.6492 Q621.3101,428.7158 621.3101,430.8159 Q621.3101,432.9077 621.9949,433.9744 Q622.6797,435.041 624.0244,435.041 Q624.6553,435.041 625.2488,434.7712 Q625.8423,434.5015 626.4731,433.9204 Z "/><text fill="#000000" font-family="sans-serif" font-size="12" lengthAdjust="spacingAndGlyphs" textLength="101" x="637.5" y="435.5352">LaneDetectionGUI</text><line style="stroke: #A80036; stroke-width: 1.5;" x1="609.5" x2="740.5" y1="447" y2="447"/><line style="stroke: #A80036; stroke-width: 1.5;" x1="609.5" x2="740.5" y1="455" y2="455"/><ellipse cx="619.5" cy="466.9775" fill="#84BE84" rx="3" ry="3" style="stroke: #038048; stroke-width: 1.0;"/><text fill="#000000" font-family="sans-serif" font-size="11" lengthAdjust="spacingAndGlyphs" textLength="103" x="628.5" y="469.6348">startCamera(): void</text></a><!--class javafx.application.Application--><rect fill="#FEFECE" filter="url(#f7zzv9xtec85x)" height="60.9551" id="javafx.application.Application" style="stroke: #A80036; stroke-width: 1.5;" width="117" x="137.5" y="43"/><ellipse cx="161.95" cy="59" fill="#A9DCDF" rx="11" ry="11" style="stroke: #A80036; stroke-width: 1.0;"/><path d="M162.0633,54.3481 L160.9095,59.4199 L163.2254,59.4199 Z M160.5691,52.1069 L163.5657,52.1069 L166.9109,64.5 L164.4622,64.5 L163.6985,61.437 L160.4197,61.437 L159.6727,64.5 L157.2239,64.5 Z "/><text fill="#000000" font-family="sans-serif" font-size="12" font-style="italic" lengthAdjust="spacingAndGlyphs" textLength="64" x="178.05" y="63.5352">Application</text><line style="stroke: #A80036; stroke-width: 1.5;" x1="138.5" x2="253.5" y1="75" y2="75"/><line style="stroke: #A80036; stroke-width: 1.5;" x1="138.5" x2="253.5" y1="83" y2="83"/><ellipse cx="148.5" cy="94.9775" fill="#84BE84" rx="3" ry="3" style="stroke: #038048; stroke-width: 1.0;"/><text fill="#000000" font-family="sans-serif" font-size="11" font-style="italic" lengthAdjust="spacingAndGlyphs" textLength="91" x="157.5" y="97.6348">start(Stage): void</text><!--link javafx.application.Application to nl.vaneijndhoven.opencv.video.LaneDetectionApp--><path d="M220.448,122.396 C236.0909,153.6819 256.0668,193.6335 270.414,222.3281 " fill="none" id="javafx.application.Application-nl.vaneijndhoven.opencv.video.LaneDetectionApp" style="stroke: #A80036; stroke-width: 1.0;"/><polygon fill="none" points="214.0404,125.2332,211.3571,104.2141,226.5624,118.9722,214.0404,125.2332" style="stroke: #A80036; stroke-width: 1.0;"/><!--link javafx.application.Application to nl.vaneijndhoven.opencv.video.StartLightDetectionApp--><path d="M171.8149,122.396 C156.3401,153.6819 136.5791,193.6335 122.3861,222.3281 " fill="none" id="javafx.application.Application-nl.vaneijndhoven.opencv.video.StartLightDetectionApp" style="stroke: #A80036; stroke-width: 1.0;"/><polygon fill="none" points="165.6665,119.0376,180.8081,104.2141,178.2154,125.2446,165.6665,119.0376" style="stroke: #A80036; stroke-width: 1.0;"/><!--link nl.vaneijndhoven.opencv.video.ImageUtils to nl.vaneijndhoven.opencv.video.LaneDetectionController--><!--link nl.vaneijndhoven.opencv.video.ImageUtils to nl.vaneijndhoven.opencv.video.StartLightDetectionController--><!--link nl.vaneijndhoven.opencv.video.StartLightDetectionController to nl.vaneijndhoven.opencv.video.LaneDetectionGUI--><text fill="#888888" font-family="sans-serif" font-size="10" lengthAdjust="spacingAndGlyphs" textLength="182" x="565" y="511.668">UMLDoclet 1.1.4, PlantUML 1.2019.05</text><!--
@startuml

    namespace nl.vaneijndhoven.opencv.video {

        class ImageUtils [[ImageUtils.html]] {
            {static} +mat2Image(Mat): Image
            {static} +releaseImages(Mat[]): void
        }

        class LaneDetectionController [[LaneDetectionController.html]] {
            {static} +DEFAULT_LANE_BOUNDARY_ANGLE: double
            {static} +DEFAULT_LANE_BOUNDARY_TOLERANCE: double
            {static} +DEFAULT_CANNY_THRESHOLD_1: double
            {static} +DEFAULT_CANNY_THRESHOLD_2: double
            {static} +DEFAULT_LINE_DETECT_RHO: int
            {static} +DEFAULT_LINE_DETECT_THETA: double
            {static} +DEFAULT_LINE_DETECT_THRESHOLD: double
            {static} +DEFAULT_LINE_DETECT_MIN_LINE_LENGTH: double
            {static} +DEFAULT_LINE_DETECT_MAX_LINE_GAP: double
            +LaneDetectionController(Vertx)
            +performLaneDetection(Mat, CannyEdgeDetector.Config, ProbabilisticHoughLinesLineDetector.Config, ImageCollector): void
        }

        class LaneDetectionApp [[LaneDetectionApp.html]] {
            +start(Stage): void
            {static} +main(String[]): void
        }

        class StartLightDetectionController [[StartLightDetectionController.html]] {
        }

        class StartLightDetectionApp [[StartLightDetectionApp.html]] {
            +start(Stage): void
            {static} +main(String[]): void
        }

        class LaneDetectionGUI [[LaneDetectionGUI.html]] {
            +startCamera(): void
        }

        abstract class javafx.application.Application {
            {abstract} +start(Stage): void
        }
        javafx.application.Application <|- - LaneDetectionApp

        javafx.application.Application <|- - StartLightDetectionApp

    }


    center footer UMLDoclet 1.1.4, PlantUML 1.2019.05
@enduml

PlantUML version 1.2019.05(Sat Apr 20 18:45:36 CEST 2019)
(APACHE source distribution)
Java Runtime: Java(TM) SE Runtime Environment
JVM: Java HotSpot(TM) 64-Bit Server VM
Java Version: 1.8.0_152-b16
Operating System: Mac OS X
OS Version: 10.13.6
Default Encoding: UTF-8
Language: de
Country: DE
--></g></svg>