<?xml version="1.0" encoding="UTF-8" standalone="no"?><svg xmlns="http://www.w3.org/2000/svg" xmlns:xlink="http://www.w3.org/1999/xlink" contentScriptType="application/ecmascript" contentStyleType="text/css" height="167px" preserveAspectRatio="none" style="width:194px;height:167px;" version="1.1" viewBox="0 0 194 167" width="194px" zoomAndPan="magnify"><defs><filter height="300%" id="f1h8rvq9pvqipv" width="300%" x="-1" y="-1"><feGaussianBlur result="blurOut" stdDeviation="2.0"/><feColorMatrix in="blurOut" result="blurOut2" type="matrix" values="0 0 0 0 0 0 0 0 0 0 0 0 0 0 0 0 0 0 .4 0"/><feOffset dx="4.0" dy="4.0" in="blurOut2" result="blurOut3"/><feBlend in="SourceGraphic" in2="blurOut3" mode="normal"/></filter></defs><g><!--class Car--><a href="Car.html" target="_top" xlink:actuate="onRequest" xlink:show="new" xlink:title="Car.html" xlink:type="simple"><rect fill="#FEFECE" filter="url(#f1h8rvq9pvqipv)" height="125.7305" id="Car" style="stroke: #A80036; stroke-width: 1.5;" width="145" x="12.5" y="8"/><ellipse cx="70.75" cy="24" fill="#ADD1B2" rx="11" ry="11" style="stroke: #A80036; stroke-width: 1.0;"/><path d="M73.7231,29.6431 Q73.1421,29.9419 72.5029,30.0913 Q71.8638,30.2407 71.1582,30.2407 Q68.6514,30.2407 67.3315,28.5889 Q66.0117,26.937 66.0117,23.8159 Q66.0117,20.6865 67.3315,19.0347 Q68.6514,17.3828 71.1582,17.3828 Q71.8638,17.3828 72.5112,17.5322 Q73.1587,17.6816 73.7231,17.9805 L73.7231,20.7031 Q73.0923,20.1221 72.4988,19.8523 Q71.9053,19.5825 71.2744,19.5825 Q69.9297,19.5825 69.2449,20.6492 Q68.5601,21.7158 68.5601,23.8159 Q68.5601,25.9077 69.2449,26.9744 Q69.9297,28.041 71.2744,28.041 Q71.9053,28.041 72.4988,27.7712 Q73.0923,27.5015 73.7231,26.9204 Z "/><text fill="#000000" font-family="sans-serif" font-size="12" lengthAdjust="spacingAndGlyphs" textLength="20" x="91.25" y="28.5352">Car</text><line style="stroke: #A80036; stroke-width: 1.5;" x1="13.5" x2="156.5" y1="40" y2="40"/><line style="stroke: #A80036; stroke-width: 1.5;" x1="13.5" x2="156.5" y1="48" y2="48"/><ellipse cx="23.5" cy="59.9775" fill="#84BE84" rx="3" ry="3" style="stroke: #038048; stroke-width: 1.0;"/><text fill="#000000" font-family="sans-serif" font-size="11" lengthAdjust="spacingAndGlyphs" textLength="113" x="32.5" y="62.6348">Car(Engine, Steering)</text><ellipse cx="23.5" cy="72.9326" fill="#84BE84" rx="3" ry="3" style="stroke: #038048; stroke-width: 1.0;"/><text fill="#000000" font-family="sans-serif" font-size="11" lengthAdjust="spacingAndGlyphs" textLength="61" x="32.5" y="75.5898">stop(): void</text><ellipse cx="23.5" cy="85.8877" fill="#84BE84" rx="3" ry="3" style="stroke: #038048; stroke-width: 1.0;"/><text fill="#000000" font-family="sans-serif" font-size="11" lengthAdjust="spacingAndGlyphs" textLength="97" x="32.5" y="88.5449">turn(double): void</text><ellipse cx="23.5" cy="98.8428" fill="#84BE84" rx="3" ry="3" style="stroke: #038048; stroke-width: 1.0;"/><text fill="#000000" font-family="sans-serif" font-size="11" lengthAdjust="spacingAndGlyphs" textLength="101" x="32.5" y="101.5">drive(double): void</text><ellipse cx="23.5" cy="111.7979" fill="#84BE84" rx="3" ry="3" style="stroke: #038048; stroke-width: 1.0;"/><text fill="#000000" font-family="sans-serif" font-size="11" lengthAdjust="spacingAndGlyphs" textLength="103" x="32.5" y="114.4551">getEngine(): Engine</text><ellipse cx="23.5" cy="124.7529" fill="#84BE84" rx="3" ry="3" style="stroke: #038048; stroke-width: 1.0;"/><text fill="#000000" font-family="sans-serif" font-size="11" lengthAdjust="spacingAndGlyphs" textLength="119" x="32.5" y="127.4102">getSteering(): Steering</text></a><text fill="#888888" font-family="sans-serif" font-size="10" lengthAdjust="spacingAndGlyphs" textLength="182" x="0" y="153.668">UMLDoclet 1.1.4, PlantUML 1.2019.05</text><!--
@startuml

    class Car [[Car.html]] {
        +Car(Engine, Steering)
        +stop(): void
        +turn(double): void
        +drive(double): void
        +getEngine(): Engine
        +getSteering(): Steering
    }


    center footer UMLDoclet 1.1.4, PlantUML 1.2019.05
@enduml

PlantUML version 1.2019.05(Sat Apr 20 18:45:36 CEST 2019)
(APACHE source distribution)
Java Runtime: Java(TM) SE Runtime Environment
JVM: Java HotSpot(TM) 64-Bit Server VM
Java Version: 1.8.0_152-b16
Operating System: Mac OS X
OS Version: 10.13.6
Default Encoding: UTF-8
Language: de
Country: DE
--></g></svg>