<?xml version="1.0" encoding="UTF-8" standalone="no"?><svg xmlns="http://www.w3.org/2000/svg" xmlns:xlink="http://www.w3.org/1999/xlink" contentScriptType="application/ecmascript" contentStyleType="text/css" height="750px" preserveAspectRatio="none" style="width:399px;height:750px;" version="1.1" viewBox="0 0 399 750" width="399px" zoomAndPan="magnify"><defs><filter height="300%" id="f1blfi9c9nt8c3" width="300%" x="-1" y="-1"><feGaussianBlur result="blurOut" stdDeviation="2.0"/><feColorMatrix in="blurOut" result="blurOut2" type="matrix" values="0 0 0 0 0 0 0 0 0 0 0 0 0 0 0 0 0 0 .4 0"/><feOffset dx="4.0" dy="4.0" in="blurOut2" result="blurOut3"/><feBlend in="SourceGraphic" in2="blurOut3" mode="normal"/></filter></defs><g><!--cluster nl.vaneijndhoven.dukes.car--><polygon fill="#FFFFFF" filter="url(#f1blfi9c9nt8c3)" points="14,16,211,16,218,38.4883,377,38.4883,377,709,14,709,14,16" style="stroke: #000000; stroke-width: 1.5;"/><line style="stroke: #000000; stroke-width: 1.5;" x1="14" x2="218" y1="38.4883" y2="38.4883"/><text fill="#000000" font-family="sans-serif" font-size="14" font-weight="bold" lengthAdjust="spacingAndGlyphs" textLength="191" x="18" y="31.5352">nl.vaneijndhoven.dukes.car</text><!--class nl.vaneijndhoven.dukes.car.Car--><a href="Car.html" target="_top" xlink:actuate="onRequest" xlink:show="new" xlink:title="Car.html" xlink:type="simple"><rect fill="#FEFECE" filter="url(#f1blfi9c9nt8c3)" height="99.8203" id="nl.vaneijndhoven.dukes.car.Car" style="stroke: #A80036; stroke-width: 1.5;" width="139" x="220.5" y="56"/><ellipse cx="275.75" cy="72" fill="#ADD1B2" rx="11" ry="11" style="stroke: #A80036; stroke-width: 1.0;"/><path d="M278.7231,77.6431 Q278.1421,77.9419 277.5029,78.0913 Q276.8638,78.2407 276.1582,78.2407 Q273.6514,78.2407 272.3315,76.5889 Q271.0117,74.937 271.0117,71.8159 Q271.0117,68.6865 272.3315,67.0347 Q273.6514,65.3828 276.1582,65.3828 Q276.8638,65.3828 277.5112,65.5322 Q278.1587,65.6816 278.7231,65.9805 L278.7231,68.7031 Q278.0923,68.1221 277.4988,67.8523 Q276.9053,67.5825 276.2744,67.5825 Q274.9297,67.5825 274.2449,68.6492 Q273.5601,69.7158 273.5601,71.8159 Q273.5601,73.9077 274.2449,74.9744 Q274.9297,76.041 276.2744,76.041 Q276.9053,76.041 277.4988,75.7712 Q278.0923,75.5015 278.7231,74.9204 Z "/><text fill="#000000" font-family="sans-serif" font-size="12" lengthAdjust="spacingAndGlyphs" textLength="20" x="296.25" y="76.5352">Car</text><line style="stroke: #A80036; stroke-width: 1.5;" x1="221.5" x2="358.5" y1="88" y2="88"/><line style="stroke: #A80036; stroke-width: 1.5;" x1="221.5" x2="358.5" y1="96" y2="96"/><ellipse cx="231.5" cy="107.9775" fill="#84BE84" rx="3" ry="3" style="stroke: #038048; stroke-width: 1.0;"/><text fill="#000000" font-family="sans-serif" font-size="11" lengthAdjust="spacingAndGlyphs" textLength="113" x="240.5" y="110.6348">Car(Engine, Steering)</text><ellipse cx="231.5" cy="120.9326" fill="#84BE84" rx="3" ry="3" style="stroke: #038048; stroke-width: 1.0;"/><text fill="#000000" font-family="sans-serif" font-size="11" lengthAdjust="spacingAndGlyphs" textLength="61" x="240.5" y="123.5898">stop(): void</text><ellipse cx="231.5" cy="133.8877" fill="#84BE84" rx="3" ry="3" style="stroke: #038048; stroke-width: 1.0;"/><text fill="#000000" font-family="sans-serif" font-size="11" lengthAdjust="spacingAndGlyphs" textLength="97" x="240.5" y="136.5449">turn(double): void</text><ellipse cx="231.5" cy="146.8428" fill="#84BE84" rx="3" ry="3" style="stroke: #038048; stroke-width: 1.0;"/><text fill="#000000" font-family="sans-serif" font-size="11" lengthAdjust="spacingAndGlyphs" textLength="101" x="240.5" y="149.5">drive(double): void</text></a><!--class nl.vaneijndhoven.dukes.car.EngineMap--><a href="EngineMap.html" target="_top" xlink:actuate="onRequest" xlink:show="new" xlink:title="EngineMap.html" xlink:type="simple"><rect fill="#FEFECE" filter="url(#f1blfi9c9nt8c3)" height="125.7305" id="nl.vaneijndhoven.dukes.car.EngineMap" style="stroke: #A80036; stroke-width: 1.5;" width="121" x="33.5" y="575"/><ellipse cx="60.2" cy="591" fill="#B4A7E5" rx="11" ry="11" style="stroke: #A80036; stroke-width: 1.0;"/><path d="M56.1277,586.7651 L56.1277,584.6069 L63.5071,584.6069 L63.5071,586.7651 L61.0418,586.7651 L61.0418,594.8418 L63.5071,594.8418 L63.5071,597 L56.1277,597 L56.1277,594.8418 L58.5931,594.8418 L58.5931,586.7651 Z "/><text fill="#000000" font-family="sans-serif" font-size="12" font-style="italic" lengthAdjust="spacingAndGlyphs" textLength="63" x="76.8" y="595.5352">EngineMap</text><line style="stroke: #A80036; stroke-width: 1.5;" x1="34.5" x2="153.5" y1="607" y2="607"/><line style="stroke: #A80036; stroke-width: 1.5;" x1="34.5" x2="153.5" y1="615" y2="615"/><ellipse cx="44.5" cy="626.9775" fill="#84BE84" rx="3" ry="3" style="stroke: #038048; stroke-width: 1.0;"/><text fill="#000000" font-family="sans-serif" font-size="11" font-style="italic" lengthAdjust="spacingAndGlyphs" textLength="66" x="53.5" y="629.6348">neutral(): int</text><ellipse cx="44.5" cy="639.9326" fill="#84BE84" rx="3" ry="3" style="stroke: #038048; stroke-width: 1.0;"/><text fill="#000000" font-family="sans-serif" font-size="11" font-style="italic" lengthAdjust="spacingAndGlyphs" textLength="72" x="53.5" y="642.5898">stepSize(): int</text><ellipse cx="44.5" cy="652.8877" fill="#84BE84" rx="3" ry="3" style="stroke: #038048; stroke-width: 1.0;"/><text fill="#000000" font-family="sans-serif" font-size="11" font-style="italic" lengthAdjust="spacingAndGlyphs" textLength="90" x="53.5" y="655.5449">minReverse(): int</text><ellipse cx="44.5" cy="665.8428" fill="#84BE84" rx="3" ry="3" style="stroke: #038048; stroke-width: 1.0;"/><text fill="#000000" font-family="sans-serif" font-size="11" font-style="italic" lengthAdjust="spacingAndGlyphs" textLength="93" x="53.5" y="668.5">maxReverse(): int</text><ellipse cx="44.5" cy="678.7979" fill="#84BE84" rx="3" ry="3" style="stroke: #038048; stroke-width: 1.0;"/><text fill="#000000" font-family="sans-serif" font-size="11" font-style="italic" lengthAdjust="spacingAndGlyphs" textLength="92" x="53.5" y="681.4551">minForward(): int</text><ellipse cx="44.5" cy="691.7529" fill="#84BE84" rx="3" ry="3" style="stroke: #038048; stroke-width: 1.0;"/><text fill="#000000" font-family="sans-serif" font-size="11" font-style="italic" lengthAdjust="spacingAndGlyphs" textLength="95" x="53.5" y="694.4102">maxForward(): int</text></a><!--class nl.vaneijndhoven.dukes.car.Engine--><a href="Engine.html" target="_top" xlink:actuate="onRequest" xlink:show="new" xlink:title="Engine.html" xlink:type="simple"><rect fill="#FEFECE" filter="url(#f1blfi9c9nt8c3)" height="112.7754" id="nl.vaneijndhoven.dukes.car.Engine" style="stroke: #A80036; stroke-width: 1.5;" width="144" x="22" y="308"/><ellipse cx="70.75" cy="324" fill="#ADD1B2" rx="11" ry="11" style="stroke: #A80036; stroke-width: 1.0;"/><path d="M73.7231,329.6431 Q73.1421,329.9419 72.5029,330.0913 Q71.8638,330.2407 71.1582,330.2407 Q68.6514,330.2407 67.3315,328.5889 Q66.0117,326.937 66.0117,323.8159 Q66.0117,320.6865 67.3315,319.0347 Q68.6514,317.3828 71.1582,317.3828 Q71.8638,317.3828 72.5112,317.5322 Q73.1587,317.6816 73.7231,317.9805 L73.7231,320.7031 Q73.0923,320.1221 72.4988,319.8523 Q71.9053,319.5825 71.2744,319.5825 Q69.9297,319.5825 69.2449,320.6492 Q68.5601,321.7158 68.5601,323.8159 Q68.5601,325.9077 69.2449,326.9744 Q69.9297,328.041 71.2744,328.041 Q71.9053,328.041 72.4988,327.7712 Q73.0923,327.5015 73.7231,326.9204 Z "/><text fill="#000000" font-family="sans-serif" font-size="12" lengthAdjust="spacingAndGlyphs" textLength="38" x="91.25" y="328.5352">Engine</text><line style="stroke: #A80036; stroke-width: 1.5;" x1="23" x2="165" y1="340" y2="340"/><line style="stroke: #A80036; stroke-width: 1.5;" x1="23" x2="165" y1="348" y2="348"/><ellipse cx="33" cy="359.9775" fill="#84BE84" rx="3" ry="3" style="stroke: #038048; stroke-width: 1.0;"/><text fill="#000000" font-family="sans-serif" font-size="11" lengthAdjust="spacingAndGlyphs" textLength="102" x="42" y="362.6348">Engine(EngineMap)</text><ellipse cx="33" cy="372.9326" fill="#84BE84" rx="3" ry="3" style="stroke: #038048; stroke-width: 1.0;"/><text fill="#000000" font-family="sans-serif" font-size="11" lengthAdjust="spacingAndGlyphs" textLength="75" x="42" y="375.5898">neutral(): void</text><ellipse cx="33" cy="385.8877" fill="#84BE84" rx="3" ry="3" style="stroke: #038048; stroke-width: 1.0;"/><text fill="#000000" font-family="sans-serif" font-size="11" lengthAdjust="spacingAndGlyphs" textLength="114" x="42" y="388.5449">forceInNeutral(): void</text><ellipse cx="33" cy="398.8428" fill="#84BE84" rx="3" ry="3" style="stroke: #038048; stroke-width: 1.0;"/><text fill="#000000" font-family="sans-serif" font-size="11" lengthAdjust="spacingAndGlyphs" textLength="118" x="42" y="401.5">neutral(boolean): void</text><ellipse cx="33" cy="411.7979" fill="#84BE84" rx="3" ry="3" style="stroke: #038048; stroke-width: 1.0;"/><text fill="#000000" font-family="sans-serif" font-size="11" lengthAdjust="spacingAndGlyphs" text-decoration="underline" textLength="99" x="42" y="414.4551">setSpeed(int): void</text></a><!--class nl.vaneijndhoven.dukes.car.Command--><a href="Command.html" target="_top" xlink:actuate="onRequest" xlink:show="new" xlink:title="Command.html" xlink:type="simple"><rect fill="#FEFECE" filter="url(#f1blfi9c9nt8c3)" height="125.7305" id="nl.vaneijndhoven.dukes.car.Command" style="stroke: #A80036; stroke-width: 1.5;" width="163" x="22.5" y="43"/><ellipse cx="70.25" cy="59" fill="#ADD1B2" rx="11" ry="11" style="stroke: #A80036; stroke-width: 1.0;"/><path d="M73.2231,64.6431 Q72.6421,64.9419 72.0029,65.0913 Q71.3638,65.2407 70.6582,65.2407 Q68.1514,65.2407 66.8315,63.5889 Q65.5117,61.937 65.5117,58.8159 Q65.5117,55.6865 66.8315,54.0347 Q68.1514,52.3828 70.6582,52.3828 Q71.3638,52.3828 72.0112,52.5322 Q72.6587,52.6816 73.2231,52.9805 L73.2231,55.7031 Q72.5923,55.1221 71.9988,54.8523 Q71.4053,54.5825 70.7744,54.5825 Q69.4297,54.5825 68.7449,55.6492 Q68.0601,56.7158 68.0601,58.8159 Q68.0601,60.9077 68.7449,61.9744 Q69.4297,63.041 70.7744,63.041 Q71.4053,63.041 71.9988,62.7712 Q72.5923,62.5015 73.2231,61.9204 Z "/><text fill="#000000" font-family="sans-serif" font-size="12" lengthAdjust="spacingAndGlyphs" textLength="59" x="90.75" y="63.5352">Command</text><line style="stroke: #A80036; stroke-width: 1.5;" x1="23.5" x2="184.5" y1="75" y2="75"/><line style="stroke: #A80036; stroke-width: 1.5;" x1="23.5" x2="184.5" y1="83" y2="83"/><ellipse cx="33.5" cy="94.9775" fill="#84BE84" rx="3" ry="3" style="stroke: #038048; stroke-width: 1.0;"/><text fill="#000000" font-family="sans-serif" font-size="11" lengthAdjust="spacingAndGlyphs" text-decoration="underline" textLength="105" x="42.5" y="97.6348">statusLedOn(): void</text><ellipse cx="33.5" cy="107.9326" fill="#84BE84" rx="3" ry="3" style="stroke: #038048; stroke-width: 1.0;"/><text fill="#000000" font-family="sans-serif" font-size="11" lengthAdjust="spacingAndGlyphs" text-decoration="underline" textLength="106" x="42.5" y="110.5898">statusLedOff(): void</text><ellipse cx="33.5" cy="120.8877" fill="#84BE84" rx="3" ry="3" style="stroke: #038048; stroke-width: 1.0;"/><text fill="#000000" font-family="sans-serif" font-size="11" lengthAdjust="spacingAndGlyphs" text-decoration="underline" textLength="101" x="42.5" y="123.5449">setPowerOn(): void</text><ellipse cx="33.5" cy="133.8428" fill="#84BE84" rx="3" ry="3" style="stroke: #038048; stroke-width: 1.0;"/><text fill="#000000" font-family="sans-serif" font-size="11" lengthAdjust="spacingAndGlyphs" text-decoration="underline" textLength="102" x="42.5" y="136.5">setPowerOff(): void</text><ellipse cx="33.5" cy="146.7979" fill="#84BE84" rx="3" ry="3" style="stroke: #038048; stroke-width: 1.0;"/><text fill="#000000" font-family="sans-serif" font-size="11" lengthAdjust="spacingAndGlyphs" text-decoration="underline" textLength="115" x="42.5" y="149.4551">powerIsOn(): boolean</text><ellipse cx="33.5" cy="159.7529" fill="#84BE84" rx="3" ry="3" style="stroke: #038048; stroke-width: 1.0;"/><text fill="#000000" font-family="sans-serif" font-size="11" lengthAdjust="spacingAndGlyphs" text-decoration="underline" textLength="137" x="42.5" y="162.4102">servoBlaster(int, int): void</text></a><!--class nl.vaneijndhoven.dukes.car.SteeringMap--><a href="SteeringMap.html" target="_top" xlink:actuate="onRequest" xlink:show="new" xlink:title="SteeringMap.html" xlink:type="simple"><rect fill="#FEFECE" filter="url(#f1blfi9c9nt8c3)" height="99.8203" id="nl.vaneijndhoven.dukes.car.SteeringMap" style="stroke: #A80036; stroke-width: 1.5;" width="105" x="232.5" y="588"/><ellipse cx="248.4" cy="604" fill="#B4A7E5" rx="11" ry="11" style="stroke: #A80036; stroke-width: 1.0;"/><path d="M244.3277,599.7651 L244.3277,597.6069 L251.7071,597.6069 L251.7071,599.7651 L249.2418,599.7651 L249.2418,607.8418 L251.7071,607.8418 L251.7071,610 L244.3277,610 L244.3277,607.8418 L246.7931,607.8418 L246.7931,599.7651 Z "/><text fill="#000000" font-family="sans-serif" font-size="12" font-style="italic" lengthAdjust="spacingAndGlyphs" textLength="71" x="262.6" y="608.5352">SteeringMap</text><line style="stroke: #A80036; stroke-width: 1.5;" x1="233.5" x2="336.5" y1="620" y2="620"/><line style="stroke: #A80036; stroke-width: 1.5;" x1="233.5" x2="336.5" y1="628" y2="628"/><ellipse cx="243.5" cy="639.9775" fill="#84BE84" rx="3" ry="3" style="stroke: #038048; stroke-width: 1.0;"/><text fill="#000000" font-family="sans-serif" font-size="11" font-style="italic" lengthAdjust="spacingAndGlyphs" textLength="62" x="252.5" y="642.6348">center(): int</text><ellipse cx="243.5" cy="652.9326" fill="#84BE84" rx="3" ry="3" style="stroke: #038048; stroke-width: 1.0;"/><text fill="#000000" font-family="sans-serif" font-size="11" font-style="italic" lengthAdjust="spacingAndGlyphs" textLength="72" x="252.5" y="655.5898">stepSize(): int</text><ellipse cx="243.5" cy="665.8877" fill="#84BE84" rx="3" ry="3" style="stroke: #038048; stroke-width: 1.0;"/><text fill="#000000" font-family="sans-serif" font-size="11" font-style="italic" lengthAdjust="spacingAndGlyphs" textLength="71" x="252.5" y="668.5449">maxLeft(): int</text><ellipse cx="243.5" cy="678.8428" fill="#84BE84" rx="3" ry="3" style="stroke: #038048; stroke-width: 1.0;"/><text fill="#000000" font-family="sans-serif" font-size="11" font-style="italic" lengthAdjust="spacingAndGlyphs" textLength="79" x="252.5" y="681.5">maxRight(): int</text></a><!--class nl.vaneijndhoven.dukes.car.Steering--><a href="Steering.html" target="_top" xlink:actuate="onRequest" xlink:show="new" xlink:title="Steering.html" xlink:type="simple"><rect fill="#FEFECE" filter="url(#f1blfi9c9nt8c3)" height="99.8203" id="nl.vaneijndhoven.dukes.car.Steering" style="stroke: #A80036; stroke-width: 1.5;" width="167" x="201.5" y="314.5"/><ellipse cx="257.75" cy="330.5" fill="#ADD1B2" rx="11" ry="11" style="stroke: #A80036; stroke-width: 1.0;"/><path d="M260.7231,336.1431 Q260.1421,336.4419 259.5029,336.5913 Q258.8638,336.7407 258.1582,336.7407 Q255.6514,336.7407 254.3315,335.0889 Q253.0117,333.437 253.0117,330.3159 Q253.0117,327.1865 254.3315,325.5347 Q255.6514,323.8828 258.1582,323.8828 Q258.8638,323.8828 259.5112,324.0322 Q260.1587,324.1816 260.7231,324.4805 L260.7231,327.2031 Q260.0923,326.6221 259.4988,326.3523 Q258.9053,326.0825 258.2744,326.0825 Q256.9297,326.0825 256.2449,327.1492 Q255.5601,328.2158 255.5601,330.3159 Q255.5601,332.4077 256.2449,333.4744 Q256.9297,334.541 258.2744,334.541 Q258.9053,334.541 259.4988,334.2712 Q260.0923,334.0015 260.7231,333.4204 Z "/><text fill="#000000" font-family="sans-serif" font-size="12" lengthAdjust="spacingAndGlyphs" textLength="46" x="278.25" y="335.0352">Steering</text><line style="stroke: #A80036; stroke-width: 1.5;" x1="202.5" x2="367.5" y1="346.5" y2="346.5"/><line style="stroke: #A80036; stroke-width: 1.5;" x1="202.5" x2="367.5" y1="354.5" y2="354.5"/><ellipse cx="212.5" cy="366.4775" fill="#84BE84" rx="3" ry="3" style="stroke: #038048; stroke-width: 1.0;"/><text fill="#000000" font-family="sans-serif" font-size="11" lengthAdjust="spacingAndGlyphs" textLength="118" x="221.5" y="369.1348">Steering(SteeringMap)</text><ellipse cx="212.5" cy="379.4326" fill="#84BE84" rx="3" ry="3" style="stroke: #038048; stroke-width: 1.0;"/><text fill="#000000" font-family="sans-serif" font-size="11" lengthAdjust="spacingAndGlyphs" textLength="71" x="221.5" y="382.0898">center(): void</text><ellipse cx="212.5" cy="392.3877" fill="#84BE84" rx="3" ry="3" style="stroke: #038048; stroke-width: 1.0;"/><text fill="#000000" font-family="sans-serif" font-size="11" lengthAdjust="spacingAndGlyphs" textLength="101" x="221.5" y="395.0449">forceCenter(): void</text><ellipse cx="212.5" cy="405.3428" fill="#84BE84" rx="3" ry="3" style="stroke: #038048; stroke-width: 1.0;"/><text fill="#000000" font-family="sans-serif" font-size="11" lengthAdjust="spacingAndGlyphs" text-decoration="underline" textLength="141" x="221.5" y="408">setWheelPosition(int): void</text></a><!--link nl.vaneijndhoven.dukes.car.Car to nl.vaneijndhoven.dukes.car.Engine--><path d="M251.9768,156.1479 C219.9903,198.3342 174.1528,258.7883 140.0838,303.7211 " fill="none" id="nl.vaneijndhoven.dukes.car.Car-nl.vaneijndhoven.dukes.car.Engine" style="stroke: #A80036; stroke-width: 1.0;"/><polygon fill="#A80036" points="137.032,307.7461,145.6571,302.9913,140.0529,303.7619,139.2823,298.1578,137.032,307.7461" style="stroke: #A80036; stroke-width: 1.0;"/><text fill="#000000" font-family="sans-serif" font-size="13" lengthAdjust="spacingAndGlyphs" textLength="42" x="196" y="243.5684">engine</text><!--link nl.vaneijndhoven.dukes.car.Car to nl.vaneijndhoven.dukes.car.Steering--><path d="M289.03,156.1479 C288.1796,200.1153 286.9453,263.9256 286.0672,309.3267 " fill="none" id="nl.vaneijndhoven.dukes.car.Car-nl.vaneijndhoven.dukes.car.Steering" style="stroke: #A80036; stroke-width: 1.0;"/><polygon fill="#A80036" points="285.9673,314.4917,290.1409,305.5709,286.0642,309.4926,282.1424,305.4159,285.9673,314.4917" style="stroke: #A80036; stroke-width: 1.0;"/><text fill="#000000" font-family="sans-serif" font-size="13" lengthAdjust="spacingAndGlyphs" textLength="51" x="288" y="243.5684">steering</text><!--link nl.vaneijndhoven.dukes.car.Engine to nl.vaneijndhoven.dukes.car.EngineMap--><path d="M94,421.1694 C94,464.2576 94,523.7233 94,569.4834 " fill="none" id="nl.vaneijndhoven.dukes.car.Engine-nl.vaneijndhoven.dukes.car.EngineMap" style="stroke: #A80036; stroke-width: 1.0;"/><polygon fill="#A80036" points="94,574.7114,98,565.7114,94,569.7114,90,565.7114,94,574.7114" style="stroke: #A80036; stroke-width: 1.0;"/><text fill="#000000" font-family="sans-serif" font-size="13" lengthAdjust="spacingAndGlyphs" textLength="55" x="101.5" y="495.5684">mapping</text><text fill="#000000" font-family="sans-serif" font-size="13" lengthAdjust="spacingAndGlyphs" textLength="68" x="95" y="510.8789">engineMap</text><!--link nl.vaneijndhoven.dukes.car.Steering to nl.vaneijndhoven.dukes.car.SteeringMap--><path d="M285,414.6641 C285,462.1286 285,533.2347 285,582.4061 " fill="none" id="nl.vaneijndhoven.dukes.car.Steering-nl.vaneijndhoven.dukes.car.SteeringMap" style="stroke: #A80036; stroke-width: 1.0;"/><polygon fill="#A80036" points="285,587.6915,289,578.6915,285,582.6915,281,578.6915,285,587.6915" style="stroke: #A80036; stroke-width: 1.0;"/><text fill="#000000" font-family="sans-serif" font-size="13" lengthAdjust="spacingAndGlyphs" textLength="77" x="286" y="503.0684">steeringMap</text><text fill="#888888" font-family="sans-serif" font-size="10" lengthAdjust="spacingAndGlyphs" textLength="182" x="110.5" y="736.668">UMLDoclet 1.1.4, PlantUML 1.2019.05</text><!--
@startuml

    namespace nl.vaneijndhoven.dukes.car {

        class Car [[Car.html]] {
            +Car(Engine, Steering)
            +stop(): void
            +turn(double): void
            +drive(double): void
        }

        interface EngineMap [[EngineMap.html]] {
            {abstract} +neutral(): int
            {abstract} +stepSize(): int
            {abstract} +minReverse(): int
            {abstract} +maxReverse(): int
            {abstract} +minForward(): int
            {abstract} +maxForward(): int
        }

        class Engine [[Engine.html]] {
            +Engine(EngineMap)
            +neutral(): void
            +forceInNeutral(): void
            +neutral(boolean): void
            {static} +setSpeed(int): void
        }

        class Command [[Command.html]] {
            {static} +statusLedOn(): void
            {static} +statusLedOff(): void
            {static} +setPowerOn(): void
            {static} +setPowerOff(): void
            {static} +powerIsOn(): boolean
            {static} +servoBlaster(int, int): void
        }

        interface SteeringMap [[SteeringMap.html]] {
            {abstract} +center(): int
            {abstract} +stepSize(): int
            {abstract} +maxLeft(): int
            {abstract} +maxRight(): int
        }

        class Steering [[Steering.html]] {
            +Steering(SteeringMap)
            +center(): void
            +forceCenter(): void
            {static} +setWheelPosition(int): void
        }

        Car - -> Engine: engine

        Car - -> Steering: steering

        Engine - -> EngineMap: mapping\nengineMap

        Steering - -> SteeringMap: steeringMap

    }


    center footer UMLDoclet 1.1.4, PlantUML 1.2019.05
@enduml

PlantUML version 1.2019.05(Sat Apr 20 18:45:36 CEST 2019)
(APACHE source distribution)
Java Runtime: Java(TM) SE Runtime Environment
JVM: Java HotSpot(TM) 64-Bit Server VM
Java Version: 1.8.0_152-b16
Operating System: Mac OS X
OS Version: 10.13.6
Default Encoding: UTF-8
Language: de
Country: DE
--></g></svg>