<?xml version="1.0" encoding="UTF-8" standalone="no"?><svg xmlns="http://www.w3.org/2000/svg" xmlns:xlink="http://www.w3.org/1999/xlink" contentScriptType="application/ecmascript" contentStyleType="text/css" height="287px" preserveAspectRatio="none" style="width:264px;height:287px;" version="1.1" viewBox="0 0 264 287" width="264px" zoomAndPan="magnify"><defs><filter height="300%" id="fthfu872iha36" width="300%" x="-1" y="-1"><feGaussianBlur result="blurOut" stdDeviation="2.0"/><feColorMatrix in="blurOut" result="blurOut2" type="matrix" values="0 0 0 0 0 0 0 0 0 0 0 0 0 0 0 0 0 0 .4 0"/><feOffset dx="4.0" dy="4.0" in="blurOut2" result="blurOut3"/><feBlend in="SourceGraphic" in2="blurOut3" mode="normal"/></filter></defs><g><!--cluster nl.vaneijndhoven.dukes.luke--><polygon fill="#FFFFFF" filter="url(#fthfu872iha36)" points="14,124,221,124,228,146.4883,242,146.4883,242,246,14,246,14,124" style="stroke: #000000; stroke-width: 1.5;"/><line style="stroke: #000000; stroke-width: 1.5;" x1="14" x2="228" y1="146.4883" y2="146.4883"/><text fill="#000000" font-family="sans-serif" font-size="14" font-weight="bold" lengthAdjust="spacingAndGlyphs" textLength="201" x="18" y="139.5352">nl.vaneijndhoven.dukes.luke</text><!--cluster io.vertx.rxjava.core--><polygon fill="#FFFFFF" filter="url(#fthfu872iha36)" points="54,16,192,16,199,38.4883,202,38.4883,202,99,54,99,54,16" style="stroke: #000000; stroke-width: 1.5;"/><line style="stroke: #000000; stroke-width: 1.5;" x1="54" x2="199" y1="38.4883" y2="38.4883"/><text fill="#000000" font-family="sans-serif" font-size="14" font-weight="bold" lengthAdjust="spacingAndGlyphs" textLength="132" x="58" y="31.5352">io.vertx.rxjava.core</text><!--class nl.vaneijndhoven.dukes.luke.Luke--><a href="Luke.html" target="_top" xlink:actuate="onRequest" xlink:show="new" xlink:title="Luke.html" xlink:type="simple"><rect fill="#FEFECE" filter="url(#fthfu872iha36)" height="86.8652" id="nl.vaneijndhoven.dukes.luke.Luke" style="stroke: #A80036; stroke-width: 1.5;" width="211" x="22.5" y="151"/><ellipse cx="110.25" cy="167" fill="#ADD1B2" rx="11" ry="11" style="stroke: #A80036; stroke-width: 1.0;"/><path d="M113.2231,172.6431 Q112.6421,172.9419 112.0029,173.0913 Q111.3638,173.2407 110.6582,173.2407 Q108.1514,173.2407 106.8315,171.5889 Q105.5117,169.937 105.5117,166.8159 Q105.5117,163.6865 106.8315,162.0347 Q108.1514,160.3828 110.6582,160.3828 Q111.3638,160.3828 112.0112,160.5322 Q112.6587,160.6816 113.2231,160.9805 L113.2231,163.7031 Q112.5923,163.1221 111.9988,162.8523 Q111.4053,162.5825 110.7744,162.5825 Q109.4297,162.5825 108.7449,163.6492 Q108.0601,164.7158 108.0601,166.8159 Q108.0601,168.9077 108.7449,169.9744 Q109.4297,171.041 110.7744,171.041 Q111.4053,171.041 111.9988,170.7712 Q112.5923,170.5015 113.2231,169.9204 Z "/><text fill="#000000" font-family="sans-serif" font-size="12" lengthAdjust="spacingAndGlyphs" textLength="27" x="130.75" y="171.5352">Luke</text><line style="stroke: #A80036; stroke-width: 1.5;" x1="23.5" x2="232.5" y1="183" y2="183"/><ellipse cx="33.5" cy="194.9775" fill="none" rx="3" ry="3" style="stroke: #038048; stroke-width: 1.0;"/><text fill="#000000" font-family="sans-serif" font-size="11" lengthAdjust="spacingAndGlyphs" text-decoration="underline" textLength="185" x="42.5" y="197.6348">START_DRAG_NAVIGATION: String</text><ellipse cx="33.5" cy="207.9326" fill="none" rx="3" ry="3" style="stroke: #038048; stroke-width: 1.0;"/><text fill="#000000" font-family="sans-serif" font-size="11" lengthAdjust="spacingAndGlyphs" text-decoration="underline" textLength="141" x="42.5" y="210.5898">STOP_NAVIGATION: String</text><line style="stroke: #A80036; stroke-width: 1.5;" x1="23.5" x2="232.5" y1="216.9102" y2="216.9102"/><ellipse cx="33.5" cy="228.8877" fill="#84BE84" rx="3" ry="3" style="stroke: #038048; stroke-width: 1.0;"/><text fill="#000000" font-family="sans-serif" font-size="11" lengthAdjust="spacingAndGlyphs" textLength="62" x="42.5" y="231.5449">start(): void</text></a><!--class io.vertx.rxjava.core.AbstractVerticle--><rect fill="#FEFECE" filter="url(#fthfu872iha36)" height="48" id="io.vertx.rxjava.core.AbstractVerticle" style="stroke: #A80036; stroke-width: 1.5;" width="123" x="66.5" y="43"/><ellipse cx="81.5" cy="59" fill="#ADD1B2" rx="11" ry="11" style="stroke: #A80036; stroke-width: 1.0;"/><path d="M84.4731,64.6431 Q83.8921,64.9419 83.2529,65.0913 Q82.6138,65.2407 81.9082,65.2407 Q79.4014,65.2407 78.0815,63.5889 Q76.7617,61.937 76.7617,58.8159 Q76.7617,55.6865 78.0815,54.0347 Q79.4014,52.3828 81.9082,52.3828 Q82.6138,52.3828 83.2612,52.5322 Q83.9087,52.6816 84.4731,52.9805 L84.4731,55.7031 Q83.8423,55.1221 83.2488,54.8523 Q82.6553,54.5825 82.0244,54.5825 Q80.6797,54.5825 79.9949,55.6492 Q79.3101,56.7158 79.3101,58.8159 Q79.3101,60.9077 79.9949,61.9744 Q80.6797,63.041 82.0244,63.041 Q82.6553,63.041 83.2488,62.7712 Q83.8423,62.5015 84.4731,61.9204 Z "/><text fill="#000000" font-family="sans-serif" font-size="12" lengthAdjust="spacingAndGlyphs" textLength="91" x="95.5" y="63.5352">AbstractVerticle</text><line style="stroke: #A80036; stroke-width: 1.5;" x1="67.5" x2="188.5" y1="75" y2="75"/><line style="stroke: #A80036; stroke-width: 1.5;" x1="67.5" x2="188.5" y1="83" y2="83"/><!--link io.vertx.rxjava.core.AbstractVerticle to nl.vaneijndhoven.dukes.luke.Luke--><path d="M128,111.3598 C128,124.1877 128,138.1732 128,150.9512 " fill="none" id="io.vertx.rxjava.core.AbstractVerticle-nl.vaneijndhoven.dukes.luke.Luke" style="stroke: #A80036; stroke-width: 1.0;"/><polygon fill="none" points="121.0001,111.2819,128,91.2819,135.0001,111.2818,121.0001,111.2819" style="stroke: #A80036; stroke-width: 1.0;"/><text fill="#888888" font-family="sans-serif" font-size="10" lengthAdjust="spacingAndGlyphs" textLength="182" x="43" y="273.668">UMLDoclet 1.1.4, PlantUML 1.2019.05</text><!--
@startuml

    namespace nl.vaneijndhoven.dukes.luke {

        class Luke [[Luke.html]] {
            {static} +START_DRAG_NAVIGATION: String
            {static} +STOP_NAVIGATION: String
            +start(): void
        }

        class io.vertx.rxjava.core.AbstractVerticle
        io.vertx.rxjava.core.AbstractVerticle <|- - Luke

    }


    center footer UMLDoclet 1.1.4, PlantUML 1.2019.05
@enduml

PlantUML version 1.2019.05(Sat Apr 20 18:45:36 CEST 2019)
(APACHE source distribution)
Java Runtime: Java(TM) SE Runtime Environment
JVM: Java HotSpot(TM) 64-Bit Server VM
Java Version: 1.8.0_191-b12
Operating System: Mac OS X
OS Version: 10.13.6
Default Encoding: UTF-8
Language: de
Country: DE
--></g></svg>