<?xml version="1.0" encoding="UTF-8" standalone="no"?><svg xmlns="http://www.w3.org/2000/svg" xmlns:xlink="http://www.w3.org/1999/xlink" contentScriptType="application/ecmascript" contentStyleType="text/css" height="486px" preserveAspectRatio="none" style="width:788px;height:486px;" version="1.1" viewBox="0 0 788 486" width="788px" zoomAndPan="magnify"><defs><filter height="300%" id="f1n39szfbpdu34" width="300%" x="-1" y="-1"><feGaussianBlur result="blurOut" stdDeviation="2.0"/><feColorMatrix in="blurOut" result="blurOut2" type="matrix" values="0 0 0 0 0 0 0 0 0 0 0 0 0 0 0 0 0 0 .4 0"/><feOffset dx="4.0" dy="4.0" in="blurOut2" result="blurOut3"/><feBlend in="SourceGraphic" in2="blurOut3" mode="normal"/></filter></defs><g><!--cluster nl.vaneijndhoven.dukes.camera.matrix--><polygon fill="#FFFFFF" filter="url(#f1n39szfbpdu34)" points="14,124,291,124,298,146.4883,766,146.4883,766,445,14,445,14,124" style="stroke: #000000; stroke-width: 1.5;"/><line style="stroke: #000000; stroke-width: 1.5;" x1="14" x2="298" y1="146.4883" y2="146.4883"/><text fill="#000000" font-family="sans-serif" font-size="14" font-weight="bold" lengthAdjust="spacingAndGlyphs" textLength="271" x="18" y="139.5352">nl.vaneijndhoven.dukes.camera.matrix</text><!--cluster java.util.function--><polygon fill="#FFFFFF" filter="url(#f1n39szfbpdu34)" points="177,16,303,16,310,38.4883,323,38.4883,323,99,177,99,177,16" style="stroke: #000000; stroke-width: 1.5;"/><line style="stroke: #000000; stroke-width: 1.5;" x1="177" x2="310" y1="38.4883" y2="38.4883"/><text fill="#000000" font-family="sans-serif" font-size="14" font-weight="bold" lengthAdjust="spacingAndGlyphs" textLength="120" x="181" y="31.5352">java.util.function</text><!--class nl.vaneijndhoven.dukes.camera.matrix.TestSuite--><a href="TestSuite.html" target="_top" xlink:actuate="onRequest" xlink:show="new" xlink:title="TestSuite.html" xlink:type="simple"><rect fill="#FEFECE" filter="url(#f1n39szfbpdu34)" height="48" id="nl.vaneijndhoven.dukes.camera.matrix.TestSuite" style="stroke: #A80036; stroke-width: 1.5;" width="84" x="674" y="209.5"/><ellipse cx="689" cy="225.5" fill="#ADD1B2" rx="11" ry="11" style="stroke: #A80036; stroke-width: 1.0;"/><path d="M691.9731,231.1431 Q691.3921,231.4419 690.7529,231.5913 Q690.1138,231.7407 689.4082,231.7407 Q686.9014,231.7407 685.5815,230.0889 Q684.2617,228.437 684.2617,225.3159 Q684.2617,222.1865 685.5815,220.5347 Q686.9014,218.8828 689.4082,218.8828 Q690.1138,218.8828 690.7612,219.0322 Q691.4087,219.1816 691.9731,219.4805 L691.9731,222.2031 Q691.3423,221.6221 690.7488,221.3523 Q690.1553,221.0825 689.5244,221.0825 Q688.1797,221.0825 687.4949,222.1492 Q686.8101,223.2158 686.8101,225.3159 Q686.8101,227.4077 687.4949,228.4744 Q688.1797,229.541 689.5244,229.541 Q690.1553,229.541 690.7488,229.2712 Q691.3423,229.0015 691.9731,228.4204 Z "/><text fill="#000000" font-family="sans-serif" font-size="12" lengthAdjust="spacingAndGlyphs" textLength="52" x="703" y="230.0352">TestSuite</text><line style="stroke: #A80036; stroke-width: 1.5;" x1="675" x2="757" y1="241.5" y2="241.5"/><line style="stroke: #A80036; stroke-width: 1.5;" x1="675" x2="757" y1="249.5" y2="249.5"/></a><!--class nl.vaneijndhoven.dukes.camera.matrix.TestPerspectiveShift--><a href="TestPerspectiveShift.html" target="_top" xlink:actuate="onRequest" xlink:show="new" xlink:title="TestPerspectiveShift.html" xlink:type="simple"><rect fill="#FEFECE" filter="url(#f1n39szfbpdu34)" height="60.9551" id="nl.vaneijndhoven.dukes.camera.matrix.TestPerspectiveShift" style="stroke: #A80036; stroke-width: 1.5;" width="147" x="377.5" y="376"/><ellipse cx="392.5" cy="392" fill="#ADD1B2" rx="11" ry="11" style="stroke: #A80036; stroke-width: 1.0;"/><path d="M395.4731,397.6431 Q394.8921,397.9419 394.2529,398.0913 Q393.6138,398.2407 392.9082,398.2407 Q390.4014,398.2407 389.0815,396.5889 Q387.7617,394.937 387.7617,391.8159 Q387.7617,388.6865 389.0815,387.0347 Q390.4014,385.3828 392.9082,385.3828 Q393.6138,385.3828 394.2612,385.5322 Q394.9087,385.6816 395.4731,385.9805 L395.4731,388.7031 Q394.8423,388.1221 394.2488,387.8523 Q393.6553,387.5825 393.0244,387.5825 Q391.6797,387.5825 390.9949,388.6492 Q390.3101,389.7158 390.3101,391.8159 Q390.3101,393.9077 390.9949,394.9744 Q391.6797,396.041 393.0244,396.041 Q393.6553,396.041 394.2488,395.7712 Q394.8423,395.5015 395.4731,394.9204 Z "/><text fill="#000000" font-family="sans-serif" font-size="12" lengthAdjust="spacingAndGlyphs" textLength="115" x="406.5" y="396.5352">TestPerspectiveShift</text><line style="stroke: #A80036; stroke-width: 1.5;" x1="378.5" x2="523.5" y1="408" y2="408"/><line style="stroke: #A80036; stroke-width: 1.5;" x1="378.5" x2="523.5" y1="416" y2="416"/><ellipse cx="388.5" cy="427.9775" fill="#84BE84" rx="3" ry="3" style="stroke: #038048; stroke-width: 1.0;"/><text fill="#000000" font-family="sans-serif" font-size="11" lengthAdjust="spacingAndGlyphs" textLength="91" x="397.5" y="430.6348">transform(): void</text></a><!--class nl.vaneijndhoven.dukes.camera.matrix.TestCameraMatrix--><a href="TestCameraMatrix.html" target="_top" xlink:actuate="onRequest" xlink:show="new" xlink:title="TestCameraMatrix.html" xlink:type="simple"><rect fill="#FEFECE" filter="url(#f1n39szfbpdu34)" height="60.9551" id="nl.vaneijndhoven.dukes.camera.matrix.TestCameraMatrix" style="stroke: #A80036; stroke-width: 1.5;" width="143" x="559.5" y="376"/><ellipse cx="576.75" cy="392" fill="#ADD1B2" rx="11" ry="11" style="stroke: #A80036; stroke-width: 1.0;"/><path d="M579.7231,397.6431 Q579.1421,397.9419 578.5029,398.0913 Q577.8638,398.2407 577.1582,398.2407 Q574.6514,398.2407 573.3315,396.5889 Q572.0117,394.937 572.0117,391.8159 Q572.0117,388.6865 573.3315,387.0347 Q574.6514,385.3828 577.1582,385.3828 Q577.8638,385.3828 578.5112,385.5322 Q579.1587,385.6816 579.7231,385.9805 L579.7231,388.7031 Q579.0923,388.1221 578.4988,387.8523 Q577.9053,387.5825 577.2744,387.5825 Q575.9297,387.5825 575.2449,388.6492 Q574.5601,389.7158 574.5601,391.8159 Q574.5601,393.9077 575.2449,394.9744 Q575.9297,396.041 577.2744,396.041 Q577.9053,396.041 578.4988,395.7712 Q579.0923,395.5015 579.7231,394.9204 Z "/><text fill="#000000" font-family="sans-serif" font-size="12" lengthAdjust="spacingAndGlyphs" textLength="106" x="591.25" y="396.5352">TestCameraMatrix</text><line style="stroke: #A80036; stroke-width: 1.5;" x1="560.5" x2="701.5" y1="408" y2="408"/><line style="stroke: #A80036; stroke-width: 1.5;" x1="560.5" x2="701.5" y1="416" y2="416"/><ellipse cx="570.5" cy="427.9775" fill="#84BE84" rx="3" ry="3" style="stroke: #038048; stroke-width: 1.0;"/><text fill="#000000" font-family="sans-serif" font-size="11" lengthAdjust="spacingAndGlyphs" textLength="117" x="579.5" y="430.6348">testCalculation(): void</text></a><!--class nl.vaneijndhoven.dukes.camera.matrix.MatrixTestbase--><a href="MatrixTestbase.html" target="_top" xlink:actuate="onRequest" xlink:show="new" xlink:title="MatrixTestbase.html" xlink:type="simple"><rect fill="#FEFECE" filter="url(#f1n39szfbpdu34)" height="73.9102" id="nl.vaneijndhoven.dukes.camera.matrix.MatrixTestbase" style="stroke: #A80036; stroke-width: 1.5;" width="125" x="513.5" y="196.5"/><ellipse cx="530.3" cy="212.5" fill="#ADD1B2" rx="11" ry="11" style="stroke: #A80036; stroke-width: 1.0;"/><path d="M533.2731,218.1431 Q532.6921,218.4419 532.0529,218.5913 Q531.4138,218.7407 530.7082,218.7407 Q528.2014,218.7407 526.8815,217.0889 Q525.5617,215.437 525.5617,212.3159 Q525.5617,209.1865 526.8815,207.5347 Q528.2014,205.8828 530.7082,205.8828 Q531.4138,205.8828 532.0612,206.0322 Q532.7087,206.1816 533.2731,206.4805 L533.2731,209.2031 Q532.6423,208.6221 532.0488,208.3523 Q531.4553,208.0825 530.8244,208.0825 Q529.4797,208.0825 528.7949,209.1492 Q528.1101,210.2158 528.1101,212.3159 Q528.1101,214.4077 528.7949,215.4744 Q529.4797,216.541 530.8244,216.541 Q531.4553,216.541 532.0488,216.2712 Q532.6423,216.0015 533.2731,215.4204 Z "/><text fill="#000000" font-family="sans-serif" font-size="12" lengthAdjust="spacingAndGlyphs" textLength="89" x="544.7" y="217.0352">MatrixTestbase</text><line style="stroke: #A80036; stroke-width: 1.5;" x1="514.5" x2="637.5" y1="228.5" y2="228.5"/><ellipse cx="524.5" cy="240.4775" fill="none" rx="3" ry="3" style="stroke: #038048; stroke-width: 1.0;"/><text fill="#000000" font-family="sans-serif" font-size="11" lengthAdjust="spacingAndGlyphs" text-decoration="underline" textLength="83" x="533.5" y="243.1348">debug: boolean</text><line style="stroke: #A80036; stroke-width: 1.5;" x1="514.5" x2="637.5" y1="249.4551" y2="249.4551"/><ellipse cx="524.5" cy="261.4326" fill="#84BE84" rx="3" ry="3" style="stroke: #038048; stroke-width: 1.0;"/><text fill="#000000" font-family="sans-serif" font-size="11" lengthAdjust="spacingAndGlyphs" textLength="99" x="533.5" y="264.0898">isTravis(): boolean</text></a><!--class nl.vaneijndhoven.dukes.camera.matrix.PerspectiveShift--><a href="PerspectiveShift.html" target="_top" xlink:actuate="onRequest" xlink:show="new" xlink:title="PerspectiveShift.html" xlink:type="simple"><rect fill="#FEFECE" filter="url(#f1n39szfbpdu34)" height="86.8652" id="nl.vaneijndhoven.dukes.camera.matrix.PerspectiveShift" style="stroke: #A80036; stroke-width: 1.5;" width="211" x="267.5" y="190"/><ellipse cx="323.75" cy="206" fill="#ADD1B2" rx="11" ry="11" style="stroke: #A80036; stroke-width: 1.0;"/><path d="M326.7231,211.6431 Q326.1421,211.9419 325.5029,212.0913 Q324.8638,212.2407 324.1582,212.2407 Q321.6514,212.2407 320.3315,210.5889 Q319.0117,208.937 319.0117,205.8159 Q319.0117,202.6865 320.3315,201.0347 Q321.6514,199.3828 324.1582,199.3828 Q324.8638,199.3828 325.5112,199.5322 Q326.1587,199.6816 326.7231,199.9805 L326.7231,202.7031 Q326.0923,202.1221 325.4988,201.8523 Q324.9053,201.5825 324.2744,201.5825 Q322.9297,201.5825 322.2449,202.6492 Q321.5601,203.7158 321.5601,205.8159 Q321.5601,207.9077 322.2449,208.9744 Q322.9297,210.041 324.2744,210.041 Q324.9053,210.041 325.4988,209.7712 Q326.0923,209.5015 326.7231,208.9204 Z "/><text fill="#000000" font-family="sans-serif" font-size="12" lengthAdjust="spacingAndGlyphs" textLength="90" x="344.25" y="210.5352">PerspectiveShift</text><line style="stroke: #A80036; stroke-width: 1.5;" x1="268.5" x2="477.5" y1="222" y2="222"/><line style="stroke: #A80036; stroke-width: 1.5;" x1="268.5" x2="477.5" y1="230" y2="230"/><ellipse cx="278.5" cy="241.9775" fill="#84BE84" rx="3" ry="3" style="stroke: #038048; stroke-width: 1.0;"/><text fill="#000000" font-family="sans-serif" font-size="11" lengthAdjust="spacingAndGlyphs" textLength="185" x="287.5" y="244.6348">PerspectiveShift(Polygon, Polygon)</text><ellipse cx="278.5" cy="254.9326" fill="#84BE84" rx="3" ry="3" style="stroke: #038048; stroke-width: 1.0;"/><text fill="#000000" font-family="sans-serif" font-size="11" lengthAdjust="spacingAndGlyphs" textLength="81" x="287.5" y="257.5898">apply(Mat): Mat</text><ellipse cx="278.5" cy="267.8877" fill="#84BE84" rx="3" ry="3" style="stroke: #038048; stroke-width: 1.0;"/><text fill="#000000" font-family="sans-serif" font-size="11" lengthAdjust="spacingAndGlyphs" textLength="113" x="287.5" y="270.5449">apply(Object): Object</text></a><!--class nl.vaneijndhoven.dukes.camera.matrix.CameraMatrix--><a href="CameraMatrix.html" target="_top" xlink:actuate="onRequest" xlink:show="new" xlink:title="CameraMatrix.html" xlink:type="simple"><rect fill="#FEFECE" filter="url(#f1n39szfbpdu34)" height="164.5957" id="nl.vaneijndhoven.dukes.camera.matrix.CameraMatrix" style="stroke: #A80036; stroke-width: 1.5;" width="210" x="22" y="151"/><ellipse cx="82.25" cy="167" fill="#ADD1B2" rx="11" ry="11" style="stroke: #A80036; stroke-width: 1.0;"/><path d="M85.2231,172.6431 Q84.6421,172.9419 84.0029,173.0913 Q83.3638,173.2407 82.6582,173.2407 Q80.1514,173.2407 78.8315,171.5889 Q77.5117,169.937 77.5117,166.8159 Q77.5117,163.6865 78.8315,162.0347 Q80.1514,160.3828 82.6582,160.3828 Q83.3638,160.3828 84.0112,160.5322 Q84.6587,160.6816 85.2231,160.9805 L85.2231,163.7031 Q84.5923,163.1221 83.9988,162.8523 Q83.4053,162.5825 82.7744,162.5825 Q81.4297,162.5825 80.7449,163.6492 Q80.0601,164.7158 80.0601,166.8159 Q80.0601,168.9077 80.7449,169.9744 Q81.4297,171.041 82.7744,171.041 Q83.4053,171.041 83.9988,170.7712 Q84.5923,170.5015 85.2231,169.9204 Z "/><text fill="#000000" font-family="sans-serif" font-size="12" lengthAdjust="spacingAndGlyphs" textLength="81" x="102.75" y="171.5352">CameraMatrix</text><line style="stroke: #A80036; stroke-width: 1.5;" x1="23" x2="231" y1="183" y2="183"/><ellipse cx="33" cy="194.9775" fill="none" rx="3" ry="3" style="stroke: #038048; stroke-width: 1.0;"/><text fill="#000000" font-family="sans-serif" font-size="11" lengthAdjust="spacingAndGlyphs" text-decoration="underline" textLength="130" x="42" y="197.6348">DEFAULT: CameraMatrix</text><line style="stroke: #A80036; stroke-width: 1.5;" x1="23" x2="231" y1="203.9551" y2="203.9551"/><ellipse cx="33" cy="215.9326" fill="#84BE84" rx="3" ry="3" style="stroke: #038048; stroke-width: 1.0;"/><text fill="#000000" font-family="sans-serif" font-size="11" lengthAdjust="spacingAndGlyphs" textLength="117" x="42" y="218.5898">CameraMatrix(int, int)</text><ellipse cx="33" cy="228.8877" fill="#84BE84" rx="3" ry="3" style="stroke: #038048; stroke-width: 1.0;"/><text fill="#000000" font-family="sans-serif" font-size="11" lengthAdjust="spacingAndGlyphs" textLength="118" x="42" y="231.5449">getRvecs(): List&lt;Mat&gt;</text><ellipse cx="33" cy="241.8428" fill="#84BE84" rx="3" ry="3" style="stroke: #038048; stroke-width: 1.0;"/><text fill="#000000" font-family="sans-serif" font-size="11" lengthAdjust="spacingAndGlyphs" textLength="118" x="42" y="244.5">getTvecs(): List&lt;Mat&gt;</text><ellipse cx="33" cy="254.7979" fill="#84BE84" rx="3" ry="3" style="stroke: #038048; stroke-width: 1.0;"/><text fill="#000000" font-family="sans-serif" font-size="11" lengthAdjust="spacingAndGlyphs" textLength="110" x="42" y="257.4551">calibrate(Mat[]): void</text><ellipse cx="33" cy="267.7529" fill="#84BE84" rx="3" ry="3" style="stroke: #038048; stroke-width: 1.0;"/><text fill="#000000" font-family="sans-serif" font-size="11" lengthAdjust="spacingAndGlyphs" textLength="81" x="42" y="270.4102">apply(Mat): Mat</text><ellipse cx="33" cy="280.708" fill="#84BE84" rx="3" ry="3" style="stroke: #038048; stroke-width: 1.0;"/><text fill="#000000" font-family="sans-serif" font-size="11" lengthAdjust="spacingAndGlyphs" textLength="90" x="42" y="283.3652">serialize(): String</text><ellipse cx="33" cy="293.6631" fill="#84BE84" rx="3" ry="3" style="stroke: #038048; stroke-width: 1.0;"/><text fill="#000000" font-family="sans-serif" font-size="11" lengthAdjust="spacingAndGlyphs" text-decoration="underline" textLength="184" x="42" y="296.3203">deserizalize(String): CameraMatrix</text><ellipse cx="33" cy="306.6182" fill="#84BE84" rx="3" ry="3" style="stroke: #038048; stroke-width: 1.0;"/><text fill="#000000" font-family="sans-serif" font-size="11" lengthAdjust="spacingAndGlyphs" textLength="113" x="42" y="309.2754">apply(Object): Object</text></a><!--class java.util.function.UnaryOperator--><rect fill="#FEFECE" filter="url(#f1n39szfbpdu34)" height="48" id="java.util.function.UnaryOperator" style="stroke: #A80036; stroke-width: 1.5;" width="129" x="185.5" y="43"/><ellipse cx="200.5" cy="59" fill="#B4A7E5" rx="11" ry="11" style="stroke: #A80036; stroke-width: 1.0;"/><path d="M196.4277,54.7651 L196.4277,52.6069 L203.8071,52.6069 L203.8071,54.7651 L201.3418,54.7651 L201.3418,62.8418 L203.8071,62.8418 L203.8071,65 L196.4277,65 L196.4277,62.8418 L198.8931,62.8418 L198.8931,54.7651 Z "/><text fill="#000000" font-family="sans-serif" font-size="12" font-style="italic" lengthAdjust="spacingAndGlyphs" textLength="85" x="214.5" y="63.5352">UnaryOperator</text><rect fill="#FFFFFF" height="16.1328" style="stroke: #000000; stroke-width: 1.0; stroke-dasharray: 2.0,2.0;" width="10" x="307.5" y="40"/><text fill="#000000" font-family="sans-serif" font-size="12" font-style="italic" lengthAdjust="spacingAndGlyphs" textLength="8" x="308.5" y="52.6016">T</text><line style="stroke: #A80036; stroke-width: 1.5;" x1="186.5" x2="313.5" y1="75" y2="75"/><line style="stroke: #A80036; stroke-width: 1.5;" x1="186.5" x2="313.5" y1="83" y2="83"/><!--link nl.vaneijndhoven.dukes.camera.matrix.MatrixTestbase to nl.vaneijndhoven.dukes.camera.matrix.TestPerspectiveShift--><path d="M537.356,286.9833 C516.2788,316.1542 490.9427,351.2193 473.1832,375.7984 " fill="none" id="nl.vaneijndhoven.dukes.camera.matrix.MatrixTestbase-nl.vaneijndhoven.dukes.camera.matrix.TestPerspectiveShift" style="stroke: #A80036; stroke-width: 1.0;"/><polygon fill="none" points="531.7972,282.7243,549.1844,270.6128,543.145,290.9236,531.7972,282.7243" style="stroke: #A80036; stroke-width: 1.0;"/><!--link nl.vaneijndhoven.dukes.camera.matrix.MatrixTestbase to nl.vaneijndhoven.dukes.camera.matrix.TestCameraMatrix--><path d="M593.9193,289.8642 C603.0031,318.437 613.6808,352.0233 621.2394,375.7984 " fill="none" id="nl.vaneijndhoven.dukes.camera.matrix.MatrixTestbase-nl.vaneijndhoven.dukes.camera.matrix.TestCameraMatrix" style="stroke: #A80036; stroke-width: 1.0;"/><polygon fill="none" points="587.1875,291.7937,587.7989,270.6128,600.5295,287.5519,587.1875,291.7937" style="stroke: #A80036; stroke-width: 1.0;"/><!--link java.util.function.UnaryOperator to nl.vaneijndhoven.dukes.camera.matrix.PerspectiveShift--><path d="M279.9606,107.5564 C298.3746,132.4827 321.9607,164.4102 340.7774,189.8816 " fill="none" id="java.util.function.UnaryOperator-nl.vaneijndhoven.dukes.camera.matrix.PerspectiveShift" style="stroke: #A80036; stroke-width: 1.0; stroke-dasharray: 7.0,7.0;"/><polygon fill="none" points="274.1387,111.4564,267.8853,91.2105,285.3993,103.1378,274.1387,111.4564" style="stroke: #A80036; stroke-width: 1.0;"/><!--link java.util.function.UnaryOperator to nl.vaneijndhoven.dukes.camera.matrix.CameraMatrix--><path d="M219.9031,107.7409 C210.2003,120.8752 199.0722,135.9389 187.9672,150.9712 " fill="none" id="java.util.function.UnaryOperator-nl.vaneijndhoven.dukes.camera.matrix.CameraMatrix" style="stroke: #A80036; stroke-width: 1.0; stroke-dasharray: 7.0,7.0;"/><polygon fill="none" points="214.6007,103.1378,232.1147,91.2105,225.8613,111.4564,214.6007,103.1378" style="stroke: #A80036; stroke-width: 1.0;"/><text fill="#888888" font-family="sans-serif" font-size="10" lengthAdjust="spacingAndGlyphs" textLength="182" x="305" y="472.668">UMLDoclet 1.1.4, PlantUML 1.2019.05</text><!--
@startuml

    namespace nl.vaneijndhoven.dukes.camera.matrix {

        class TestSuite [[TestSuite.html]] {
        }

        class TestPerspectiveShift [[TestPerspectiveShift.html]] {
            +transform(): void
        }

        class TestCameraMatrix [[TestCameraMatrix.html]] {
            +testCalculation(): void
        }

        class MatrixTestbase [[MatrixTestbase.html]] {
            {static} +debug: boolean
            +isTravis(): boolean
        }

        class PerspectiveShift [[PerspectiveShift.html]] {
            +PerspectiveShift(Polygon, Polygon)
            +apply(Mat): Mat
            +apply(Object): Object
        }

        class CameraMatrix [[CameraMatrix.html]] {
            {static} +DEFAULT: CameraMatrix
            +CameraMatrix(int, int)
            +getRvecs(): List<Mat>
            +getTvecs(): List<Mat>
            +calibrate(Mat[]): void
            +apply(Mat): Mat
            +serialize(): String
            {static} +deserizalize(String): CameraMatrix
            +apply(Object): Object
        }

        MatrixTestbase <|- - TestPerspectiveShift

        MatrixTestbase <|- - TestCameraMatrix

        interface java.util.function.UnaryOperator<T>
        java.util.function.UnaryOperator <|.. PerspectiveShift

        java.util.function.UnaryOperator <|.. CameraMatrix

    }


    center footer UMLDoclet 1.1.4, PlantUML 1.2019.05
@enduml

PlantUML version 1.2019.05(Sat Apr 20 18:45:36 CEST 2019)
(APACHE source distribution)
Java Runtime: Java(TM) SE Runtime Environment
JVM: Java HotSpot(TM) 64-Bit Server VM
Java Version: 1.8.0_191-b12
Operating System: Mac OS X
OS Version: 10.13.6
Default Encoding: UTF-8
Language: de
Country: DE
--></g></svg>