<?xml version="1.0" encoding="UTF-8" standalone="no"?><svg xmlns="http://www.w3.org/2000/svg" xmlns:xlink="http://www.w3.org/1999/xlink" contentScriptType="application/ecmascript" contentStyleType="text/css" height="167px" preserveAspectRatio="none" style="width:196px;height:167px;" version="1.1" viewBox="0 0 196 167" width="196px" zoomAndPan="magnify"><defs><filter height="300%" id="f1cg0bc9a5q845" width="300%" x="-1" y="-1"><feGaussianBlur result="blurOut" stdDeviation="2.0"/><feColorMatrix in="blurOut" result="blurOut2" type="matrix" values="0 0 0 0 0 0 0 0 0 0 0 0 0 0 0 0 0 0 .4 0"/><feOffset dx="4.0" dy="4.0" in="blurOut2" result="blurOut3"/><feBlend in="SourceGraphic" in2="blurOut3" mode="normal"/></filter></defs><g><!--class Command--><a href="Command.html" target="_top" xlink:actuate="onRequest" xlink:show="new" xlink:title="Command.html" xlink:type="simple"><rect fill="#FEFECE" filter="url(#f1cg0bc9a5q845)" height="125.7305" id="Command" style="stroke: #A80036; stroke-width: 1.5;" width="163" x="6" y="8"/><ellipse cx="53.75" cy="24" fill="#ADD1B2" rx="11" ry="11" style="stroke: #A80036; stroke-width: 1.0;"/><path d="M56.7231,29.6431 Q56.1421,29.9419 55.5029,30.0913 Q54.8638,30.2407 54.1582,30.2407 Q51.6514,30.2407 50.3315,28.5889 Q49.0117,26.937 49.0117,23.8159 Q49.0117,20.6865 50.3315,19.0347 Q51.6514,17.3828 54.1582,17.3828 Q54.8638,17.3828 55.5112,17.5322 Q56.1587,17.6816 56.7231,17.9805 L56.7231,20.7031 Q56.0923,20.1221 55.4988,19.8523 Q54.9053,19.5825 54.2744,19.5825 Q52.9297,19.5825 52.2449,20.6492 Q51.5601,21.7158 51.5601,23.8159 Q51.5601,25.9077 52.2449,26.9744 Q52.9297,28.041 54.2744,28.041 Q54.9053,28.041 55.4988,27.7712 Q56.0923,27.5015 56.7231,26.9204 Z "/><text fill="#000000" font-family="sans-serif" font-size="12" lengthAdjust="spacingAndGlyphs" textLength="59" x="74.25" y="28.5352">Command</text><line style="stroke: #A80036; stroke-width: 1.5;" x1="7" x2="168" y1="40" y2="40"/><line style="stroke: #A80036; stroke-width: 1.5;" x1="7" x2="168" y1="48" y2="48"/><ellipse cx="17" cy="59.9775" fill="#84BE84" rx="3" ry="3" style="stroke: #038048; stroke-width: 1.0;"/><text fill="#000000" font-family="sans-serif" font-size="11" lengthAdjust="spacingAndGlyphs" text-decoration="underline" textLength="105" x="26" y="62.6348">statusLedOn(): void</text><ellipse cx="17" cy="72.9326" fill="#84BE84" rx="3" ry="3" style="stroke: #038048; stroke-width: 1.0;"/><text fill="#000000" font-family="sans-serif" font-size="11" lengthAdjust="spacingAndGlyphs" text-decoration="underline" textLength="106" x="26" y="75.5898">statusLedOff(): void</text><ellipse cx="17" cy="85.8877" fill="#84BE84" rx="3" ry="3" style="stroke: #038048; stroke-width: 1.0;"/><text fill="#000000" font-family="sans-serif" font-size="11" lengthAdjust="spacingAndGlyphs" text-decoration="underline" textLength="101" x="26" y="88.5449">setPowerOn(): void</text><ellipse cx="17" cy="98.8428" fill="#84BE84" rx="3" ry="3" style="stroke: #038048; stroke-width: 1.0;"/><text fill="#000000" font-family="sans-serif" font-size="11" lengthAdjust="spacingAndGlyphs" text-decoration="underline" textLength="102" x="26" y="101.5">setPowerOff(): void</text><ellipse cx="17" cy="111.7979" fill="#84BE84" rx="3" ry="3" style="stroke: #038048; stroke-width: 1.0;"/><text fill="#000000" font-family="sans-serif" font-size="11" lengthAdjust="spacingAndGlyphs" text-decoration="underline" textLength="115" x="26" y="114.4551">powerIsOn(): boolean</text><ellipse cx="17" cy="124.7529" fill="#84BE84" rx="3" ry="3" style="stroke: #038048; stroke-width: 1.0;"/><text fill="#000000" font-family="sans-serif" font-size="11" lengthAdjust="spacingAndGlyphs" text-decoration="underline" textLength="137" x="26" y="127.4102">servoBlaster(int, int): void</text></a><text fill="#888888" font-family="sans-serif" font-size="10" lengthAdjust="spacingAndGlyphs" textLength="182" x="2.5" y="153.668">UMLDoclet 1.1.4, PlantUML 1.2019.05</text><!--
@startuml

    class Command [[Command.html]] {
        {static} +statusLedOn(): void
        {static} +statusLedOff(): void
        {static} +setPowerOn(): void
        {static} +setPowerOff(): void
        {static} +powerIsOn(): boolean
        {static} +servoBlaster(int, int): void
    }


    center footer UMLDoclet 1.1.4, PlantUML 1.2019.05
@enduml

PlantUML version 1.2019.05(Sat Apr 20 18:45:36 CEST 2019)
(APACHE source distribution)
Java Runtime: Java(TM) SE Runtime Environment
JVM: Java HotSpot(TM) 64-Bit Server VM
Java Version: 1.8.0_191-b12
Operating System: Mac OS X
OS Version: 10.13.6
Default Encoding: UTF-8
Language: de
Country: DE
--></g></svg>