<?xml version="1.0" encoding="UTF-8" standalone="no"?><svg xmlns="http://www.w3.org/2000/svg" xmlns:xlink="http://www.w3.org/1999/xlink" contentScriptType="application/ecmascript" contentStyleType="text/css" height="153px" preserveAspectRatio="none" style="width:283px;height:153px;" version="1.1" viewBox="0 0 283 153" width="283px" zoomAndPan="magnify"><defs><filter height="300%" id="fhggc6wyvgvd7" width="300%" x="-1" y="-1"><feGaussianBlur result="blurOut" stdDeviation="2.0"/><feColorMatrix in="blurOut" result="blurOut2" type="matrix" values="0 0 0 0 0 0 0 0 0 0 0 0 0 0 0 0 0 0 .4 0"/><feOffset dx="4.0" dy="4.0" in="blurOut2" result="blurOut3"/><feBlend in="SourceGraphic" in2="blurOut3" mode="normal"/></filter></defs><g><!--cluster nl.vaneijndhoven.opencv.mapper--><polygon fill="#FFFFFF" filter="url(#fhggc6wyvgvd7)" points="14,16,251,16,258,38.4883,261,38.4883,261,112,14,112,14,16" style="stroke: #000000; stroke-width: 1.5;"/><line style="stroke: #000000; stroke-width: 1.5;" x1="14" x2="258" y1="38.4883" y2="38.4883"/><text fill="#000000" font-family="sans-serif" font-size="14" font-weight="bold" lengthAdjust="spacingAndGlyphs" textLength="231" x="18" y="31.5352">nl.vaneijndhoven.opencv.mapper</text><!--class nl.vaneijndhoven.opencv.mapper.PointMapper--><a href="PointMapper.html" target="_top" xlink:actuate="onRequest" xlink:show="new" xlink:title="PointMapper.html" xlink:type="simple"><rect fill="#FEFECE" filter="url(#fhggc6wyvgvd7)" height="60.9551" id="nl.vaneijndhoven.opencv.mapper.PointMapper" style="stroke: #A80036; stroke-width: 1.5;" width="147" x="63.5" y="43"/><ellipse cx="97.4" cy="59" fill="#ADD1B2" rx="11" ry="11" style="stroke: #A80036; stroke-width: 1.0;"/><path d="M100.3731,64.6431 Q99.7921,64.9419 99.1529,65.0913 Q98.5138,65.2407 97.8082,65.2407 Q95.3014,65.2407 93.9815,63.5889 Q92.6617,61.937 92.6617,58.8159 Q92.6617,55.6865 93.9815,54.0347 Q95.3014,52.3828 97.8082,52.3828 Q98.5138,52.3828 99.1612,52.5322 Q99.8087,52.6816 100.3731,52.9805 L100.3731,55.7031 Q99.7423,55.1221 99.1488,54.8523 Q98.5553,54.5825 97.9244,54.5825 Q96.5797,54.5825 95.8949,55.6492 Q95.2101,56.7158 95.2101,58.8159 Q95.2101,60.9077 95.8949,61.9744 Q96.5797,63.041 97.9244,63.041 Q98.5553,63.041 99.1488,62.7712 Q99.7423,62.5015 100.3731,61.9204 Z "/><text fill="#000000" font-family="sans-serif" font-size="12" lengthAdjust="spacingAndGlyphs" textLength="73" x="115.6" y="63.5352">PointMapper</text><line style="stroke: #A80036; stroke-width: 1.5;" x1="64.5" x2="209.5" y1="75" y2="75"/><line style="stroke: #A80036; stroke-width: 1.5;" x1="64.5" x2="209.5" y1="83" y2="83"/><ellipse cx="74.5" cy="94.9775" fill="#84BE84" rx="3" ry="3" style="stroke: #038048; stroke-width: 1.0;"/><text fill="#000000" font-family="sans-serif" font-size="11" lengthAdjust="spacingAndGlyphs" text-decoration="underline" textLength="121" x="83.5" y="97.6348">toPoint(Point2D): Point</text></a><text fill="#888888" font-family="sans-serif" font-size="10" lengthAdjust="spacingAndGlyphs" textLength="182" x="52.5" y="139.668">UMLDoclet 1.1.4, PlantUML 1.2019.05</text><!--
@startuml

    namespace nl.vaneijndhoven.opencv.mapper {

        class PointMapper [[PointMapper.html]] {
            {static} +toPoint(Point2D): Point
        }

    }


    center footer UMLDoclet 1.1.4, PlantUML 1.2019.05
@enduml

PlantUML version 1.2019.05(Sat Apr 20 18:45:36 CEST 2019)
(APACHE source distribution)
Java Runtime: Java(TM) SE Runtime Environment
JVM: Java HotSpot(TM) 64-Bit Server VM
Java Version: 1.8.0_191-b12
Operating System: Mac OS X
OS Version: 10.13.6
Default Encoding: UTF-8
Language: de
Country: DE
--></g></svg>