<?xml version="1.0" encoding="UTF-8" standalone="no"?><svg xmlns="http://www.w3.org/2000/svg" xmlns:xlink="http://www.w3.org/1999/xlink" contentScriptType="application/ecmascript" contentStyleType="text/css" height="206px" preserveAspectRatio="none" style="width:217px;height:206px;" version="1.1" viewBox="0 0 217 206" width="217px" zoomAndPan="magnify"><defs><filter height="300%" id="f4v5j3ze63292" width="300%" x="-1" y="-1"><feGaussianBlur result="blurOut" stdDeviation="2.0"/><feColorMatrix in="blurOut" result="blurOut2" type="matrix" values="0 0 0 0 0 0 0 0 0 0 0 0 0 0 0 0 0 0 .4 0"/><feOffset dx="4.0" dy="4.0" in="blurOut2" result="blurOut3"/><feBlend in="SourceGraphic" in2="blurOut3" mode="normal"/></filter></defs><g><!--class NativeLibrary--><a href="NativeLibrary.html" target="_top" xlink:actuate="onRequest" xlink:show="new" xlink:title="NativeLibrary.html" xlink:type="simple"><rect fill="#FEFECE" filter="url(#f4v5j3ze63292)" height="164.5957" id="NativeLibrary" style="stroke: #A80036; stroke-width: 1.5;" width="200" x="6" y="8"/><ellipse cx="63.75" cy="24" fill="#ADD1B2" rx="11" ry="11" style="stroke: #A80036; stroke-width: 1.0;"/><path d="M66.7231,29.6431 Q66.1421,29.9419 65.5029,30.0913 Q64.8638,30.2407 64.1582,30.2407 Q61.6514,30.2407 60.3315,28.5889 Q59.0117,26.937 59.0117,23.8159 Q59.0117,20.6865 60.3315,19.0347 Q61.6514,17.3828 64.1582,17.3828 Q64.8638,17.3828 65.5112,17.5322 Q66.1587,17.6816 66.7231,17.9805 L66.7231,20.7031 Q66.0923,20.1221 65.4988,19.8523 Q64.9053,19.5825 64.2744,19.5825 Q62.9297,19.5825 62.2449,20.6492 Q61.5601,21.7158 61.5601,23.8159 Q61.5601,25.9077 62.2449,26.9744 Q62.9297,28.041 64.2744,28.041 Q64.9053,28.041 65.4988,27.7712 Q66.0923,27.5015 66.7231,26.9204 Z "/><text fill="#000000" font-family="sans-serif" font-size="12" lengthAdjust="spacingAndGlyphs" textLength="76" x="84.25" y="28.5352">NativeLibrary</text><line style="stroke: #A80036; stroke-width: 1.5;" x1="7" x2="205" y1="40" y2="40"/><polygon fill="none" points="17,46.9775,21,50.9775,17,54.9775,13,50.9775" style="stroke: #B38D22; stroke-width: 1.0;"/><text fill="#000000" font-family="sans-serif" font-size="11" lengthAdjust="spacingAndGlyphs" text-decoration="underline" textLength="95" x="26" y="54.6348">nativeLibPath: File</text><polygon fill="none" points="17,59.9326,21,63.9326,17,67.9326,13,63.9326" style="stroke: #B38D22; stroke-width: 1.0;"/><text fill="#000000" font-family="sans-serif" font-size="11" lengthAdjust="spacingAndGlyphs" text-decoration="underline" textLength="147" x="26" y="67.5898">currentLibraryPath: String[]</text><line style="stroke: #A80036; stroke-width: 1.5;" x1="7" x2="205" y1="73.9102" y2="73.9102"/><ellipse cx="17" cy="85.8877" fill="#84BE84" rx="3" ry="3" style="stroke: #038048; stroke-width: 1.0;"/><text fill="#000000" font-family="sans-serif" font-size="11" lengthAdjust="spacingAndGlyphs" text-decoration="underline" textLength="121" x="26" y="88.5449">getNativeLibPath(): File</text><ellipse cx="17" cy="98.8428" fill="#84BE84" rx="3" ry="3" style="stroke: #038048; stroke-width: 1.0;"/><text fill="#000000" font-family="sans-serif" font-size="11" lengthAdjust="spacingAndGlyphs" text-decoration="underline" textLength="143" x="26" y="101.5">setNativeLibPath(File): void</text><ellipse cx="17" cy="111.7979" fill="#84BE84" rx="3" ry="3" style="stroke: #038048; stroke-width: 1.0;"/><text fill="#000000" font-family="sans-serif" font-size="11" lengthAdjust="spacingAndGlyphs" text-decoration="underline" textLength="174" x="26" y="114.4551">getCurrentLibraryPath(): String[]</text><ellipse cx="17" cy="124.7529" fill="#84BE84" rx="3" ry="3" style="stroke: #038048; stroke-width: 1.0;"/><text fill="#000000" font-family="sans-serif" font-size="11" lengthAdjust="spacingAndGlyphs" text-decoration="underline" textLength="150" x="26" y="127.4102">addLibraryPath(String): void</text><ellipse cx="17" cy="137.708" fill="#84BE84" rx="3" ry="3" style="stroke: #038048; stroke-width: 1.0;"/><text fill="#000000" font-family="sans-serif" font-size="11" lengthAdjust="spacingAndGlyphs" text-decoration="underline" textLength="149" x="26" y="140.3652">getLibraryFileName(): String</text><ellipse cx="17" cy="150.6631" fill="#84BE84" rx="3" ry="3" style="stroke: #038048; stroke-width: 1.0;"/><text fill="#000000" font-family="sans-serif" font-size="11" lengthAdjust="spacingAndGlyphs" text-decoration="underline" textLength="98" x="26" y="153.3203">getNativeLib(): File</text><ellipse cx="17" cy="163.6182" fill="#84BE84" rx="3" ry="3" style="stroke: #038048; stroke-width: 1.0;"/><text fill="#000000" font-family="sans-serif" font-size="11" lengthAdjust="spacingAndGlyphs" text-decoration="underline" textLength="60" x="26" y="166.2754">load(): void</text></a><text fill="#888888" font-family="sans-serif" font-size="10" lengthAdjust="spacingAndGlyphs" textLength="182" x="21" y="192.668">UMLDoclet 1.1.4, PlantUML 1.2019.05</text><!--
@startuml

    class NativeLibrary [[NativeLibrary.html]] {
        {static} #nativeLibPath: File
        {static} #currentLibraryPath: String[]
        {static} +getNativeLibPath(): File
        {static} +setNativeLibPath(File): void
        {static} +getCurrentLibraryPath(): String[]
        {static} +addLibraryPath(String): void
        {static} +getLibraryFileName(): String
        {static} +getNativeLib(): File
        {static} +load(): void
    }


    center footer UMLDoclet 1.1.4, PlantUML 1.2019.05
@enduml

PlantUML version 1.2019.05(Sat Apr 20 18:45:36 CEST 2019)
(APACHE source distribution)
Java Runtime: Java(TM) SE Runtime Environment
JVM: Java HotSpot(TM) 64-Bit Server VM
Java Version: 1.8.0_191-b12
Operating System: Mac OS X
OS Version: 10.13.6
Default Encoding: UTF-8
Language: de
Country: DE
--></g></svg>