<?xml version="1.0" encoding="UTF-8" standalone="no"?><svg xmlns="http://www.w3.org/2000/svg" xmlns:xlink="http://www.w3.org/1999/xlink" contentScriptType="application/ecmascript" contentStyleType="text/css" height="115px" preserveAspectRatio="none" style="width:201px;height:115px;" version="1.1" viewBox="0 0 201 115" width="201px" zoomAndPan="magnify"><defs><filter height="300%" id="fvkylqmduoa6p" width="300%" x="-1" y="-1"><feGaussianBlur result="blurOut" stdDeviation="2.0"/><feColorMatrix in="blurOut" result="blurOut2" type="matrix" values="0 0 0 0 0 0 0 0 0 0 0 0 0 0 0 0 0 0 .4 0"/><feOffset dx="4.0" dy="4.0" in="blurOut2" result="blurOut3"/><feBlend in="SourceGraphic" in2="blurOut3" mode="normal"/></filter></defs><g><!--class ClusterStarter--><a href="ClusterStarter.html" target="_top" xlink:actuate="onRequest" xlink:show="new" xlink:title="ClusterStarter.html" xlink:type="simple"><rect fill="#FEFECE" filter="url(#fvkylqmduoa6p)" height="73.9102" id="ClusterStarter" style="stroke: #A80036; stroke-width: 1.5;" width="172" x="6" y="8"/><ellipse cx="48.9" cy="24" fill="#ADD1B2" rx="11" ry="11" style="stroke: #A80036; stroke-width: 1.0;"/><path d="M51.8731,29.6431 Q51.2921,29.9419 50.6529,30.0913 Q50.0138,30.2407 49.3082,30.2407 Q46.8014,30.2407 45.4815,28.5889 Q44.1617,26.937 44.1617,23.8159 Q44.1617,20.6865 45.4815,19.0347 Q46.8014,17.3828 49.3082,17.3828 Q50.0138,17.3828 50.6612,17.5322 Q51.3087,17.6816 51.8731,17.9805 L51.8731,20.7031 Q51.2423,20.1221 50.6488,19.8523 Q50.0553,19.5825 49.4244,19.5825 Q48.0797,19.5825 47.3949,20.6492 Q46.7101,21.7158 46.7101,23.8159 Q46.7101,25.9077 47.3949,26.9744 Q48.0797,28.041 49.4244,28.041 Q50.0553,28.041 50.6488,27.7712 Q51.2423,27.5015 51.8731,26.9204 Z "/><text fill="#000000" font-family="sans-serif" font-size="12" lengthAdjust="spacingAndGlyphs" textLength="78" x="69.1" y="28.5352">ClusterStarter</text><line style="stroke: #A80036; stroke-width: 1.5;" x1="7" x2="177" y1="40" y2="40"/><line style="stroke: #A80036; stroke-width: 1.5;" x1="7" x2="177" y1="48" y2="48"/><ellipse cx="17" cy="59.9775" fill="#84BE84" rx="3" ry="3" style="stroke: #038048; stroke-width: 1.0;"/><text fill="#000000" font-family="sans-serif" font-size="11" lengthAdjust="spacingAndGlyphs" textLength="79" x="26" y="62.6348">prepare(): void</text><ellipse cx="17" cy="72.9326" fill="#84BE84" rx="3" ry="3" style="stroke: #038048; stroke-width: 1.0;"/><text fill="#000000" font-family="sans-serif" font-size="11" lengthAdjust="spacingAndGlyphs" textLength="146" x="26" y="75.5898">getOptions(): VertxOptions</text></a><text fill="#888888" font-family="sans-serif" font-size="10" lengthAdjust="spacingAndGlyphs" textLength="182" x="7" y="101.668">UMLDoclet 1.1.4, PlantUML 1.2019.05</text><!--
@startuml

    class ClusterStarter [[ClusterStarter.html]] {
        +prepare(): void
        +getOptions(): VertxOptions
    }


    center footer UMLDoclet 1.1.4, PlantUML 1.2019.05
@enduml

PlantUML version 1.2019.05(Sat Apr 20 18:45:36 CEST 2019)
(APACHE source distribution)
Java Runtime: Java(TM) SE Runtime Environment
JVM: Java HotSpot(TM) 64-Bit Server VM
Java Version: 1.8.0_191-b12
Operating System: Mac OS X
OS Version: 10.13.6
Default Encoding: UTF-8
Language: de
Country: DE
--></g></svg>