<?xml version="1.0" encoding="UTF-8" standalone="no"?><svg xmlns="http://www.w3.org/2000/svg" xmlns:xlink="http://www.w3.org/1999/xlink" contentScriptType="application/ecmascript" contentStyleType="text/css" height="559px" preserveAspectRatio="none" style="width:732px;height:559px;" version="1.1" viewBox="0 0 732 559" width="732px" zoomAndPan="magnify"><defs><filter height="300%" id="fwydi7c3ovo1j" width="300%" x="-1" y="-1"><feGaussianBlur result="blurOut" stdDeviation="2.0"/><feColorMatrix in="blurOut" result="blurOut2" type="matrix" values="0 0 0 0 0 0 0 0 0 0 0 0 0 0 0 0 0 0 .4 0"/><feOffset dx="4.0" dy="4.0" in="blurOut2" result="blurOut3"/><feBlend in="SourceGraphic" in2="blurOut3" mode="normal"/></filter></defs><g><!--cluster nl.vaneijndhoven.dukes.common--><polygon fill="#FFFFFF" filter="url(#fwydi7c3ovo1j)" points="14,16,252,16,259,38.4883,710,38.4883,710,518,14,518,14,16" style="stroke: #000000; stroke-width: 1.5;"/><line style="stroke: #000000; stroke-width: 1.5;" x1="14" x2="259" y1="38.4883" y2="38.4883"/><text fill="#000000" font-family="sans-serif" font-size="14" font-weight="bold" lengthAdjust="spacingAndGlyphs" textLength="232" x="18" y="31.5352">nl.vaneijndhoven.dukes.common</text><!--class nl.vaneijndhoven.dukes.common.Events--><a href="Events.html" target="_top" xlink:actuate="onRequest" xlink:show="new" xlink:title="Events.html" xlink:type="simple"><rect fill="#FEFECE" filter="url(#fwydi7c3ovo1j)" height="112.7754" id="nl.vaneijndhoven.dukes.common.Events" style="stroke: #A80036; stroke-width: 1.5;" width="155" x="22.5" y="94.5"/><ellipse cx="77.25" cy="110.5" fill="#EB937F" rx="11" ry="11" style="stroke: #A80036; stroke-width: 1.0;"/><path d="M81.3643,116.5 L73.6445,116.5 L73.6445,104.1069 L81.3643,104.1069 L81.3643,106.2651 L76.0933,106.2651 L76.0933,108.938 L80.8662,108.938 L80.8662,111.0962 L76.0933,111.0962 L76.0933,114.3418 L81.3643,114.3418 Z "/><text fill="#000000" font-family="sans-serif" font-size="12" lengthAdjust="spacingAndGlyphs" textLength="37" x="97.75" y="115.0352">Events</text><line style="stroke: #A80036; stroke-width: 1.5;" x1="23.5" x2="176.5" y1="126.5" y2="126.5"/><ellipse cx="33.5" cy="138.4775" fill="none" rx="3" ry="3" style="stroke: #038048; stroke-width: 1.0;"/><text fill="#000000" font-family="sans-serif" font-size="11" lengthAdjust="spacingAndGlyphs" text-decoration="underline" textLength="81" x="42.5" y="141.1348">STREAMADDED</text><ellipse cx="33.5" cy="151.4326" fill="none" rx="3" ry="3" style="stroke: #038048; stroke-width: 1.0;"/><text fill="#000000" font-family="sans-serif" font-size="11" lengthAdjust="spacingAndGlyphs" text-decoration="underline" textLength="81" x="42.5" y="154.0898">CANNYCONFIG</text><ellipse cx="33.5" cy="164.3877" fill="none" rx="3" ry="3" style="stroke: #038048; stroke-width: 1.0;"/><text fill="#000000" font-family="sans-serif" font-size="11" lengthAdjust="spacingAndGlyphs" text-decoration="underline" textLength="112" x="42.5" y="167.0449">HOUGHLINESCONFIG</text><ellipse cx="33.5" cy="177.3428" fill="none" rx="3" ry="3" style="stroke: #038048; stroke-width: 1.0;"/><text fill="#000000" font-family="sans-serif" font-size="11" lengthAdjust="spacingAndGlyphs" text-decoration="underline" textLength="90" x="42.5" y="180">LANEDETECTION</text><ellipse cx="33.5" cy="190.2979" fill="none" rx="3" ry="3" style="stroke: #038048; stroke-width: 1.0;"/><text fill="#000000" font-family="sans-serif" font-size="11" lengthAdjust="spacingAndGlyphs" text-decoration="underline" textLength="129" x="42.5" y="192.9551">STARTLIGHTDETECTION</text><line style="stroke: #A80036; stroke-width: 1.5;" x1="23.5" x2="176.5" y1="199.2754" y2="199.2754"/></a><!--class nl.vaneijndhoven.dukes.common.Environment--><a href="Environment.html" target="_top" xlink:actuate="onRequest" xlink:show="new" xlink:title="Environment.html" xlink:type="simple"><rect fill="#FEFECE" filter="url(#fwydi7c3ovo1j)" height="216.416" id="nl.vaneijndhoven.dukes.common.Environment" style="stroke: #A80036; stroke-width: 1.5;" width="208" x="213" y="43"/><ellipse cx="277.25" cy="59" fill="#ADD1B2" rx="11" ry="11" style="stroke: #A80036; stroke-width: 1.0;"/><path d="M280.2231,64.6431 Q279.6421,64.9419 279.0029,65.0913 Q278.3638,65.2407 277.6582,65.2407 Q275.1514,65.2407 273.8315,63.5889 Q272.5117,61.937 272.5117,58.8159 Q272.5117,55.6865 273.8315,54.0347 Q275.1514,52.3828 277.6582,52.3828 Q278.3638,52.3828 279.0112,52.5322 Q279.6587,52.6816 280.2231,52.9805 L280.2231,55.7031 Q279.5923,55.1221 278.9988,54.8523 Q278.4053,54.5825 277.7744,54.5825 Q276.4297,54.5825 275.7449,55.6492 Q275.0601,56.7158 275.0601,58.8159 Q275.0601,60.9077 275.7449,61.9744 Q276.4297,63.041 277.7744,63.041 Q278.4053,63.041 278.9988,62.7712 Q279.5923,62.5015 280.2231,61.9204 Z "/><text fill="#000000" font-family="sans-serif" font-size="12" lengthAdjust="spacingAndGlyphs" textLength="71" x="297.75" y="63.5352">Environment</text><line style="stroke: #A80036; stroke-width: 1.5;" x1="214" x2="420" y1="75" y2="75"/><ellipse cx="224" cy="86.9775" fill="none" rx="3" ry="3" style="stroke: #038048; stroke-width: 1.0;"/><text fill="#000000" font-family="sans-serif" font-size="11" lengthAdjust="spacingAndGlyphs" text-decoration="underline" textLength="105" x="233" y="89.6348">propFilePath: String</text><line style="stroke: #A80036; stroke-width: 1.5;" x1="214" x2="420" y1="95.9551" y2="95.9551"/><ellipse cx="224" cy="107.9326" fill="#84BE84" rx="3" ry="3" style="stroke: #038048; stroke-width: 1.0;"/><text fill="#000000" font-family="sans-serif" font-size="11" lengthAdjust="spacingAndGlyphs" text-decoration="underline" textLength="134" x="233" y="110.5898">readFirstLine(File): String</text><ellipse cx="224" cy="120.8877" fill="#84BE84" rx="3" ry="3" style="stroke: #038048; stroke-width: 1.0;"/><text fill="#000000" font-family="sans-serif" font-size="11" lengthAdjust="spacingAndGlyphs" text-decoration="underline" textLength="99" x="233" y="123.5449">osRelease(): String</text><ellipse cx="224" cy="133.8428" fill="#84BE84" rx="3" ry="3" style="stroke: #038048; stroke-width: 1.0;"/><text fill="#000000" font-family="sans-serif" font-size="11" lengthAdjust="spacingAndGlyphs" textLength="75" x="233" y="136.5">isPi(): boolean</text><ellipse cx="224" cy="146.7979" fill="#84BE84" rx="3" ry="3" style="stroke: #038048; stroke-width: 1.0;"/><text fill="#000000" font-family="sans-serif" font-size="11" lengthAdjust="spacingAndGlyphs" text-decoration="underline" textLength="144" x="233" y="149.4551">getInstance(): Environment</text><ellipse cx="224" cy="159.7529" fill="#84BE84" rx="3" ry="3" style="stroke: #038048; stroke-width: 1.0;"/><text fill="#000000" font-family="sans-serif" font-size="11" lengthAdjust="spacingAndGlyphs" textLength="180" x="233" y="162.4102">runningOnRaspberryPi(): boolean</text><ellipse cx="224" cy="172.708" fill="#84BE84" rx="3" ry="3" style="stroke: #038048; stroke-width: 1.0;"/><text fill="#000000" font-family="sans-serif" font-size="11" lengthAdjust="spacingAndGlyphs" textLength="141" x="233" y="175.3652">getProperties(): Properties</text><ellipse cx="224" cy="185.6631" fill="#84BE84" rx="3" ry="3" style="stroke: #038048; stroke-width: 1.0;"/><text fill="#000000" font-family="sans-serif" font-size="11" lengthAdjust="spacingAndGlyphs" textLength="117" x="233" y="188.3203">getPiAddress(): String</text><ellipse cx="224" cy="198.6182" fill="#84BE84" rx="3" ry="3" style="stroke: #038048; stroke-width: 1.0;"/><text fill="#000000" font-family="sans-serif" font-size="11" lengthAdjust="spacingAndGlyphs" textLength="120" x="233" y="201.2754">getCameraUrl(): String</text><ellipse cx="224" cy="211.5732" fill="#84BE84" rx="3" ry="3" style="stroke: #038048; stroke-width: 1.0;"/><text fill="#000000" font-family="sans-serif" font-size="11" lengthAdjust="spacingAndGlyphs" textLength="182" x="233" y="214.2305">getMyIpAddresses(): List&lt;String&gt;</text><ellipse cx="224" cy="224.5283" fill="#84BE84" rx="3" ry="3" style="stroke: #038048; stroke-width: 1.0;"/><text fill="#000000" font-family="sans-serif" font-size="11" lengthAdjust="spacingAndGlyphs" textLength="127" x="233" y="227.1855">getString(String): String</text><ellipse cx="224" cy="237.4834" fill="#84BE84" rx="3" ry="3" style="stroke: #038048; stroke-width: 1.0;"/><text fill="#000000" font-family="sans-serif" font-size="11" lengthAdjust="spacingAndGlyphs" textLength="115" x="233" y="240.1406">getInteger(String): int</text><ellipse cx="224" cy="250.4385" fill="#84BE84" rx="3" ry="3" style="stroke: #038048; stroke-width: 1.0;"/><text fill="#000000" font-family="sans-serif" font-size="11" lengthAdjust="spacingAndGlyphs" text-decoration="underline" textLength="64" x="233" y="253.0957">reset(): void</text></a><!--class nl.vaneijndhoven.dukes.common.Config--><a href="Config.html" target="_top" xlink:actuate="onRequest" xlink:show="new" xlink:title="Config.html" xlink:type="simple"><rect fill="#FEFECE" filter="url(#fwydi7c3ovo1j)" height="99.8203" id="nl.vaneijndhoven.dukes.common.Config" style="stroke: #A80036; stroke-width: 1.5;" width="245" x="456.5" y="101"/><ellipse cx="556.75" cy="117" fill="#ADD1B2" rx="11" ry="11" style="stroke: #A80036; stroke-width: 1.0;"/><path d="M559.7231,122.6431 Q559.1421,122.9419 558.5029,123.0913 Q557.8638,123.2407 557.1582,123.2407 Q554.6514,123.2407 553.3315,121.5889 Q552.0117,119.937 552.0117,116.8159 Q552.0117,113.6865 553.3315,112.0347 Q554.6514,110.3828 557.1582,110.3828 Q557.8638,110.3828 558.5112,110.5322 Q559.1587,110.6816 559.7231,110.9805 L559.7231,113.7031 Q559.0923,113.1221 558.4988,112.8523 Q557.9053,112.5825 557.2744,112.5825 Q555.9297,112.5825 555.2449,113.6492 Q554.5601,114.7158 554.5601,116.8159 Q554.5601,118.9077 555.2449,119.9744 Q555.9297,121.041 557.2744,121.041 Q557.9053,121.041 558.4988,120.7712 Q559.0923,120.5015 559.7231,119.9204 Z "/><text fill="#000000" font-family="sans-serif" font-size="12" lengthAdjust="spacingAndGlyphs" textLength="36" x="577.25" y="121.5352">Config</text><line style="stroke: #A80036; stroke-width: 1.5;" x1="457.5" x2="700.5" y1="133" y2="133"/><line style="stroke: #A80036; stroke-width: 1.5;" x1="457.5" x2="700.5" y1="141" y2="141"/><ellipse cx="467.5" cy="152.9775" fill="#84BE84" rx="3" ry="3" style="stroke: #038048; stroke-width: 1.0;"/><text fill="#000000" font-family="sans-serif" font-size="11" lengthAdjust="spacingAndGlyphs" text-decoration="underline" textLength="133" x="476.5" y="155.6348">configureLogging(): void</text><ellipse cx="467.5" cy="165.9326" fill="#84BE84" rx="3" ry="3" style="stroke: #038048; stroke-width: 1.0;"/><text fill="#000000" font-family="sans-serif" font-size="11" lengthAdjust="spacingAndGlyphs" text-decoration="underline" textLength="219" x="476.5" y="168.5898">createHazelcastConfig(): ClusterManager</text><ellipse cx="467.5" cy="178.8877" fill="#84BE84" rx="3" ry="3" style="stroke: #038048; stroke-width: 1.0;"/><text fill="#000000" font-family="sans-serif" font-size="11" lengthAdjust="spacingAndGlyphs" text-decoration="underline" textLength="182" x="476.5" y="181.5449">getMyIpAddresses(): List&lt;String&gt;</text><ellipse cx="467.5" cy="191.8428" fill="#84BE84" rx="3" ry="3" style="stroke: #038048; stroke-width: 1.0;"/><text fill="#000000" font-family="sans-serif" font-size="11" lengthAdjust="spacingAndGlyphs" text-decoration="underline" textLength="167" x="476.5" y="194.5">getEnvironment(): Environment</text></a><!--class nl.vaneijndhoven.dukes.common.ClusterStarter--><a href="ClusterStarter.html" target="_top" xlink:actuate="onRequest" xlink:show="new" xlink:title="ClusterStarter.html" xlink:type="simple"><rect fill="#FEFECE" filter="url(#fwydi7c3ovo1j)" height="73.9102" id="nl.vaneijndhoven.dukes.common.ClusterStarter" style="stroke: #A80036; stroke-width: 1.5;" width="172" x="22" y="377.5"/><ellipse cx="64.9" cy="393.5" fill="#ADD1B2" rx="11" ry="11" style="stroke: #A80036; stroke-width: 1.0;"/><path d="M67.8731,399.1431 Q67.2921,399.4419 66.6529,399.5913 Q66.0138,399.7407 65.3082,399.7407 Q62.8014,399.7407 61.4815,398.0889 Q60.1617,396.437 60.1617,393.3159 Q60.1617,390.1865 61.4815,388.5347 Q62.8014,386.8828 65.3082,386.8828 Q66.0138,386.8828 66.6612,387.0322 Q67.3087,387.1816 67.8731,387.4805 L67.8731,390.2031 Q67.2423,389.6221 66.6488,389.3523 Q66.0553,389.0825 65.4244,389.0825 Q64.0797,389.0825 63.3949,390.1492 Q62.7101,391.2158 62.7101,393.3159 Q62.7101,395.4077 63.3949,396.4744 Q64.0797,397.541 65.4244,397.541 Q66.0553,397.541 66.6488,397.2712 Q67.2423,397.0015 67.8731,396.4204 Z "/><text fill="#000000" font-family="sans-serif" font-size="12" lengthAdjust="spacingAndGlyphs" textLength="78" x="85.1" y="398.0352">ClusterStarter</text><line style="stroke: #A80036; stroke-width: 1.5;" x1="23" x2="193" y1="409.5" y2="409.5"/><line style="stroke: #A80036; stroke-width: 1.5;" x1="23" x2="193" y1="417.5" y2="417.5"/><ellipse cx="33" cy="429.4775" fill="#84BE84" rx="3" ry="3" style="stroke: #038048; stroke-width: 1.0;"/><text fill="#000000" font-family="sans-serif" font-size="11" lengthAdjust="spacingAndGlyphs" textLength="79" x="42" y="432.1348">prepare(): void</text><ellipse cx="33" cy="442.4326" fill="#84BE84" rx="3" ry="3" style="stroke: #038048; stroke-width: 1.0;"/><text fill="#000000" font-family="sans-serif" font-size="11" lengthAdjust="spacingAndGlyphs" textLength="146" x="42" y="445.0898">getOptions(): VertxOptions</text></a><!--class nl.vaneijndhoven.dukes.common.Characters--><a href="Characters.html" target="_top" xlink:actuate="onRequest" xlink:show="new" xlink:title="Characters.html" xlink:type="simple"><rect fill="#FEFECE" filter="url(#fwydi7c3ovo1j)" height="190.5059" id="nl.vaneijndhoven.dukes.common.Characters" style="stroke: #A80036; stroke-width: 1.5;" width="132" x="229" y="319"/><ellipse cx="261.1" cy="335" fill="#EB937F" rx="11" ry="11" style="stroke: #A80036; stroke-width: 1.0;"/><path d="M265.2143,341 L257.4945,341 L257.4945,328.6069 L265.2143,328.6069 L265.2143,330.7651 L259.9433,330.7651 L259.9433,333.438 L264.7162,333.438 L264.7162,335.5962 L259.9433,335.5962 L259.9433,338.8418 L265.2143,338.8418 Z "/><text fill="#000000" font-family="sans-serif" font-size="12" lengthAdjust="spacingAndGlyphs" textLength="62" x="278.9" y="339.5352">Characters</text><line style="stroke: #A80036; stroke-width: 1.5;" x1="230" x2="360" y1="351" y2="351"/><ellipse cx="240" cy="362.9775" fill="none" rx="3" ry="3" style="stroke: #038048; stroke-width: 1.0;"/><text fill="#000000" font-family="sans-serif" font-size="11" lengthAdjust="spacingAndGlyphs" text-decoration="underline" textLength="15" x="249" y="365.6348">BO</text><ellipse cx="240" cy="375.9326" fill="none" rx="3" ry="3" style="stroke: #038048; stroke-width: 1.0;"/><text fill="#000000" font-family="sans-serif" font-size="11" lengthAdjust="spacingAndGlyphs" text-decoration="underline" textLength="27" x="249" y="378.5898">LUKE</text><ellipse cx="240" cy="388.8877" fill="none" rx="3" ry="3" style="stroke: #038048; stroke-width: 1.0;"/><text fill="#000000" font-family="sans-serif" font-size="11" lengthAdjust="spacingAndGlyphs" text-decoration="underline" textLength="32" x="249" y="391.5449">DAISY</text><ellipse cx="240" cy="401.8428" fill="none" rx="3" ry="3" style="stroke: #038048; stroke-width: 1.0;"/><text fill="#000000" font-family="sans-serif" font-size="11" lengthAdjust="spacingAndGlyphs" text-decoration="underline" textLength="69" x="249" y="404.5">UNCLE_JESSE</text><ellipse cx="240" cy="414.7979" fill="none" rx="3" ry="3" style="stroke: #038048; stroke-width: 1.0;"/><text fill="#000000" font-family="sans-serif" font-size="11" lengthAdjust="spacingAndGlyphs" text-decoration="underline" textLength="45" x="249" y="417.4551">ROSCOE</text><ellipse cx="240" cy="427.7529" fill="none" rx="3" ry="3" style="stroke: #038048; stroke-width: 1.0;"/><text fill="#000000" font-family="sans-serif" font-size="11" lengthAdjust="spacingAndGlyphs" text-decoration="underline" textLength="34" x="249" y="430.4102">FLASH</text><ellipse cx="240" cy="440.708" fill="none" rx="3" ry="3" style="stroke: #038048; stroke-width: 1.0;"/><text fill="#000000" font-family="sans-serif" font-size="11" lengthAdjust="spacingAndGlyphs" text-decoration="underline" textLength="66" x="249" y="443.3652">BOSS_HOGG</text><ellipse cx="240" cy="453.6631" fill="none" rx="3" ry="3" style="stroke: #038048; stroke-width: 1.0;"/><text fill="#000000" font-family="sans-serif" font-size="11" lengthAdjust="spacingAndGlyphs" text-decoration="underline" textLength="46" x="249" y="456.3203">COOTER</text><ellipse cx="240" cy="466.6182" fill="none" rx="3" ry="3" style="stroke: #038048; stroke-width: 1.0;"/><text fill="#000000" font-family="sans-serif" font-size="11" lengthAdjust="spacingAndGlyphs" text-decoration="underline" textLength="29" x="249" y="469.2754">ENOS</text><ellipse cx="240" cy="479.5732" fill="none" rx="3" ry="3" style="stroke: #038048; stroke-width: 1.0;"/><text fill="#000000" font-family="sans-serif" font-size="11" lengthAdjust="spacingAndGlyphs" text-decoration="underline" textLength="41" x="249" y="482.2305">CLETUS</text><line style="stroke: #A80036; stroke-width: 1.5;" x1="230" x2="360" y1="488.5508" y2="488.5508"/><ellipse cx="240" cy="500.5283" fill="#84BE84" rx="3" ry="3" style="stroke: #038048; stroke-width: 1.0;"/><text fill="#000000" font-family="sans-serif" font-size="11" lengthAdjust="spacingAndGlyphs" textLength="106" x="249" y="503.1855">getCallsign(): String</text></a><!--link nl.vaneijndhoven.dukes.common.Events to nl.vaneijndhoven.dukes.common.Environment--><!--link nl.vaneijndhoven.dukes.common.Environment to nl.vaneijndhoven.dukes.common.Config--><!--link nl.vaneijndhoven.dukes.common.Events to nl.vaneijndhoven.dukes.common.ClusterStarter--><!--link nl.vaneijndhoven.dukes.common.ClusterStarter to nl.vaneijndhoven.dukes.common.Characters--><text fill="#888888" font-family="sans-serif" font-size="10" lengthAdjust="spacingAndGlyphs" textLength="182" x="277" y="545.668">UMLDoclet 1.1.4, PlantUML 1.2019.05</text><!--
@startuml

    namespace nl.vaneijndhoven.dukes.common {

        enum Events [[Events.html]] {
            {static} +STREAMADDED
            {static} +CANNYCONFIG
            {static} +HOUGHLINESCONFIG
            {static} +LANEDETECTION
            {static} +STARTLIGHTDETECTION
        }

        class Environment [[Environment.html]] {
            {static} +propFilePath: String
            {static} +readFirstLine(File): String
            {static} +osRelease(): String
            +isPi(): boolean
            {static} +getInstance(): Environment
            +runningOnRaspberryPi(): boolean
            +getProperties(): Properties
            +getPiAddress(): String
            +getCameraUrl(): String
            +getMyIpAddresses(): List<String>
            +getString(String): String
            +getInteger(String): int
            {static} +reset(): void
        }

        class Config [[Config.html]] {
            {static} +configureLogging(): void
            {static} +createHazelcastConfig(): ClusterManager
            {static} +getMyIpAddresses(): List<String>
            {static} +getEnvironment(): Environment
        }

        class ClusterStarter [[ClusterStarter.html]] {
            +prepare(): void
            +getOptions(): VertxOptions
        }

        enum Characters [[Characters.html]] {
            {static} +BO
            {static} +LUKE
            {static} +DAISY
            {static} +UNCLE_JESSE
            {static} +ROSCOE
            {static} +FLASH
            {static} +BOSS_HOGG
            {static} +COOTER
            {static} +ENOS
            {static} +CLETUS
            +getCallsign(): String
        }

    }


    center footer UMLDoclet 1.1.4, PlantUML 1.2019.05
@enduml

PlantUML version 1.2019.05(Sat Apr 20 18:45:36 CEST 2019)
(APACHE source distribution)
Java Runtime: Java(TM) SE Runtime Environment
JVM: Java HotSpot(TM) 64-Bit Server VM
Java Version: 1.8.0_191-b12
Operating System: Mac OS X
OS Version: 10.13.6
Default Encoding: UTF-8
Language: de
Country: DE
--></g></svg>