<?xml version="1.0" encoding="UTF-8" standalone="no"?><svg xmlns="http://www.w3.org/2000/svg" xmlns:xlink="http://www.w3.org/1999/xlink" contentScriptType="application/ecmascript" contentStyleType="text/css" height="102px" preserveAspectRatio="none" style="width:259px;height:102px;" version="1.1" viewBox="0 0 259 102" width="259px" zoomAndPan="magnify"><defs><filter height="300%" id="f12aiceuzboeqd" width="300%" x="-1" y="-1"><feGaussianBlur result="blurOut" stdDeviation="2.0"/><feColorMatrix in="blurOut" result="blurOut2" type="matrix" values="0 0 0 0 0 0 0 0 0 0 0 0 0 0 0 0 0 0 .4 0"/><feOffset dx="4.0" dy="4.0" in="blurOut2" result="blurOut3"/><feBlend in="SourceGraphic" in2="blurOut3" mode="normal"/></filter></defs><g><!--class DefaultStoppingZoneDetector--><a href="DefaultStoppingZoneDetector.html" target="_top" xlink:actuate="onRequest" xlink:show="new" xlink:title="DefaultStoppingZoneDetector.html" xlink:type="simple"><rect fill="#FEFECE" filter="url(#f12aiceuzboeqd)" height="60.9551" id="DefaultStoppingZoneDetector" style="stroke: #A80036; stroke-width: 1.5;" width="242" x="6" y="8"/><ellipse cx="39.9" cy="24" fill="#ADD1B2" rx="11" ry="11" style="stroke: #A80036; stroke-width: 1.0;"/><path d="M42.8731,29.6431 Q42.2921,29.9419 41.6529,30.0913 Q41.0138,30.2407 40.3082,30.2407 Q37.8014,30.2407 36.4815,28.5889 Q35.1617,26.937 35.1617,23.8159 Q35.1617,20.6865 36.4815,19.0347 Q37.8014,17.3828 40.3082,17.3828 Q41.0138,17.3828 41.6612,17.5322 Q42.3087,17.6816 42.8731,17.9805 L42.8731,20.7031 Q42.2423,20.1221 41.6488,19.8523 Q41.0553,19.5825 40.4244,19.5825 Q39.0797,19.5825 38.3949,20.6492 Q37.7101,21.7158 37.7101,23.8159 Q37.7101,25.9077 38.3949,26.9744 Q39.0797,28.041 40.4244,28.041 Q41.0553,28.041 41.6488,27.7712 Q42.2423,27.5015 42.8731,26.9204 Z "/><text fill="#000000" font-family="sans-serif" font-size="12" lengthAdjust="spacingAndGlyphs" textLength="168" x="58.1" y="28.5352">DefaultStoppingZoneDetector</text><line style="stroke: #A80036; stroke-width: 1.5;" x1="7" x2="247" y1="40" y2="40"/><line style="stroke: #A80036; stroke-width: 1.5;" x1="7" x2="247" y1="48" y2="48"/><ellipse cx="17" cy="59.9775" fill="#84BE84" rx="3" ry="3" style="stroke: #038048; stroke-width: 1.0;"/><text fill="#000000" font-family="sans-serif" font-size="11" lengthAdjust="spacingAndGlyphs" textLength="216" x="26" y="62.6348">detect(Collection&lt;Line&gt;): StoppingZone</text></a><text fill="#888888" font-family="sans-serif" font-size="10" lengthAdjust="spacingAndGlyphs" textLength="182" x="42" y="88.668">UMLDoclet 1.1.4, PlantUML 1.2019.05</text><!--
@startuml

    class DefaultStoppingZoneDetector [[DefaultStoppingZoneDetector.html]] {
        +detect(Collection<Line>): StoppingZone
    }


    center footer UMLDoclet 1.1.4, PlantUML 1.2019.05
@enduml

PlantUML version 1.2019.05(Sat Apr 20 18:45:36 CEST 2019)
(APACHE source distribution)
Java Runtime: Java(TM) SE Runtime Environment
JVM: Java HotSpot(TM) 64-Bit Server VM
Java Version: 1.8.0_191-b12
Operating System: Mac OS X
OS Version: 10.13.6
Default Encoding: UTF-8
Language: de
Country: DE
--></g></svg>