<?xml version="1.0" encoding="UTF-8" standalone="no"?><svg xmlns="http://www.w3.org/2000/svg" xmlns:xlink="http://www.w3.org/1999/xlink" contentScriptType="application/ecmascript" contentStyleType="text/css" height="154px" preserveAspectRatio="none" style="width:226px;height:154px;" version="1.1" viewBox="0 0 226 154" width="226px" zoomAndPan="magnify"><defs><filter height="300%" id="f1pcl4q9rtrqc" width="300%" x="-1" y="-1"><feGaussianBlur result="blurOut" stdDeviation="2.0"/><feColorMatrix in="blurOut" result="blurOut2" type="matrix" values="0 0 0 0 0 0 0 0 0 0 0 0 0 0 0 0 0 0 .4 0"/><feOffset dx="4.0" dy="4.0" in="blurOut2" result="blurOut3"/><feBlend in="SourceGraphic" in2="blurOut3" mode="normal"/></filter></defs><g><!--class TestDebugImageServer--><a href="TestDebugImageServer.html" target="_top" xlink:actuate="onRequest" xlink:show="new" xlink:title="TestDebugImageServer.html" xlink:type="simple"><rect fill="#FEFECE" filter="url(#f1pcl4q9rtrqc)" height="112.7754" id="TestDebugImageServer" style="stroke: #A80036; stroke-width: 1.5;" width="209" x="6" y="8"/><ellipse cx="40.35" cy="24" fill="#ADD1B2" rx="11" ry="11" style="stroke: #A80036; stroke-width: 1.0;"/><path d="M43.3231,29.6431 Q42.7421,29.9419 42.1029,30.0913 Q41.4638,30.2407 40.7582,30.2407 Q38.2514,30.2407 36.9315,28.5889 Q35.6117,26.937 35.6117,23.8159 Q35.6117,20.6865 36.9315,19.0347 Q38.2514,17.3828 40.7582,17.3828 Q41.4638,17.3828 42.1112,17.5322 Q42.7587,17.6816 43.3231,17.9805 L43.3231,20.7031 Q42.6923,20.1221 42.0988,19.8523 Q41.5053,19.5825 40.8744,19.5825 Q39.5297,19.5825 38.8449,20.6492 Q38.1601,21.7158 38.1601,23.8159 Q38.1601,25.9077 38.8449,26.9744 Q39.5297,28.041 40.8744,28.041 Q41.5053,28.041 42.0988,27.7712 Q42.6923,27.5015 43.3231,26.9204 Z "/><text fill="#000000" font-family="sans-serif" font-size="12" lengthAdjust="spacingAndGlyphs" textLength="134" x="58.65" y="28.5352">TestDebugImageServer</text><line style="stroke: #A80036; stroke-width: 1.5;" x1="7" x2="214" y1="40" y2="40"/><line style="stroke: #A80036; stroke-width: 1.5;" x1="7" x2="214" y1="48" y2="48"/><ellipse cx="17" cy="59.9775" fill="#84BE84" rx="3" ry="3" style="stroke: #038048; stroke-width: 1.0;"/><text fill="#000000" font-family="sans-serif" font-size="11" lengthAdjust="spacingAndGlyphs" textLength="128" x="26" y="62.6348">startImageServer(): void</text><ellipse cx="17" cy="72.9326" fill="#84BE84" rx="3" ry="3" style="stroke: #038048; stroke-width: 1.0;"/><text fill="#000000" font-family="sans-serif" font-size="11" lengthAdjust="spacingAndGlyphs" textLength="183" x="26" y="75.5898">testDebugImageServerStart(): void</text><ellipse cx="17" cy="85.8877" fill="#84BE84" rx="3" ry="3" style="stroke: #038048; stroke-width: 1.0;"/><text fill="#000000" font-family="sans-serif" font-size="11" lengthAdjust="spacingAndGlyphs" textLength="112" x="26" y="88.5449">testTestImage(): void</text><ellipse cx="17" cy="98.8428" fill="#84BE84" rx="3" ry="3" style="stroke: #038048; stroke-width: 1.0;"/><text fill="#000000" font-family="sans-serif" font-size="11" lengthAdjust="spacingAndGlyphs" textLength="126" x="26" y="101.5">testMJpegStream(): void</text><ellipse cx="17" cy="111.7979" fill="#84BE84" rx="3" ry="3" style="stroke: #038048; stroke-width: 1.0;"/><text fill="#000000" font-family="sans-serif" font-size="11" lengthAdjust="spacingAndGlyphs" textLength="101" x="26" y="114.4551">testOpenCV(): void</text></a><text fill="#888888" font-family="sans-serif" font-size="10" lengthAdjust="spacingAndGlyphs" textLength="182" x="25.5" y="140.668">UMLDoclet 1.1.4, PlantUML 1.2019.05</text><!--
@startuml

    class TestDebugImageServer [[TestDebugImageServer.html]] {
        +startImageServer(): void
        +testDebugImageServerStart(): void
        +testTestImage(): void
        +testMJpegStream(): void
        +testOpenCV(): void
    }


    center footer UMLDoclet 1.1.4, PlantUML 1.2019.05
@enduml

PlantUML version 1.2019.05(Sat Apr 20 18:45:36 CEST 2019)
(APACHE source distribution)
Java Runtime: Java(TM) SE Runtime Environment
JVM: Java HotSpot(TM) 64-Bit Server VM
Java Version: 1.8.0_152-b16
Operating System: Mac OS X
OS Version: 10.13.6
Default Encoding: UTF-8
Language: de
Country: DE
--></g></svg>