<?xml version="1.0" encoding="UTF-8" standalone="no"?><svg xmlns="http://www.w3.org/2000/svg" xmlns:xlink="http://www.w3.org/1999/xlink" contentScriptType="application/ecmascript" contentStyleType="text/css" height="244px" preserveAspectRatio="none" style="width:194px;height:244px;" version="1.1" viewBox="0 0 194 244" width="194px" zoomAndPan="magnify"><defs><filter height="300%" id="f1f5kwvb07pd3j" width="300%" x="-1" y="-1"><feGaussianBlur result="blurOut" stdDeviation="2.0"/><feColorMatrix in="blurOut" result="blurOut2" type="matrix" values="0 0 0 0 0 0 0 0 0 0 0 0 0 0 0 0 0 0 .4 0"/><feOffset dx="4.0" dy="4.0" in="blurOut2" result="blurOut3"/><feBlend in="SourceGraphic" in2="blurOut3" mode="normal"/></filter></defs><g><!--class ImageCollector--><a href="ImageCollector.html" target="_top" xlink:actuate="onRequest" xlink:show="new" xlink:title="ImageCollector.html" xlink:type="simple"><rect fill="#FEFECE" filter="url(#f1f5kwvb07pd3j)" height="203.4609" id="ImageCollector" style="stroke: #A80036; stroke-width: 1.5;" width="156" x="7" y="8"/><ellipse cx="39.55" cy="24" fill="#ADD1B2" rx="11" ry="11" style="stroke: #A80036; stroke-width: 1.0;"/><path d="M42.5231,29.6431 Q41.9421,29.9419 41.3029,30.0913 Q40.6638,30.2407 39.9582,30.2407 Q37.4514,30.2407 36.1315,28.5889 Q34.8117,26.937 34.8117,23.8159 Q34.8117,20.6865 36.1315,19.0347 Q37.4514,17.3828 39.9582,17.3828 Q40.6638,17.3828 41.3112,17.5322 Q41.9587,17.6816 42.5231,17.9805 L42.5231,20.7031 Q41.8923,20.1221 41.2988,19.8523 Q40.7053,19.5825 40.0744,19.5825 Q38.7297,19.5825 38.0449,20.6492 Q37.3601,21.7158 37.3601,23.8159 Q37.3601,25.9077 38.0449,26.9744 Q38.7297,28.041 40.0744,28.041 Q40.7053,28.041 41.2988,27.7712 Q41.8923,27.5015 42.5231,26.9204 Z "/><text fill="#000000" font-family="sans-serif" font-size="12" lengthAdjust="spacingAndGlyphs" textLength="85" x="57.45" y="28.5352">ImageCollector</text><line style="stroke: #A80036; stroke-width: 1.5;" x1="8" x2="162" y1="40" y2="40"/><line style="stroke: #A80036; stroke-width: 1.5;" x1="8" x2="162" y1="48" y2="48"/><ellipse cx="18" cy="59.9775" fill="#84BE84" rx="3" ry="3" style="stroke: #038048; stroke-width: 1.0;"/><text fill="#000000" font-family="sans-serif" font-size="11" lengthAdjust="spacingAndGlyphs" textLength="88" x="27" y="62.6348">edges(Mat): void</text><ellipse cx="18" cy="72.9326" fill="#84BE84" rx="3" ry="3" style="stroke: #038048; stroke-width: 1.0;"/><text fill="#000000" font-family="sans-serif" font-size="11" lengthAdjust="spacingAndGlyphs" textLength="81" x="27" y="75.5898">lines(Mat): void</text><ellipse cx="18" cy="85.8877" fill="#84BE84" rx="3" ry="3" style="stroke: #038048; stroke-width: 1.0;"/><text fill="#000000" font-family="sans-serif" font-size="11" lengthAdjust="spacingAndGlyphs" textLength="108" x="27" y="88.5449">startLight(Mat): void</text><ellipse cx="18" cy="98.8428" fill="#84BE84" rx="3" ry="3" style="stroke: #038048; stroke-width: 1.0;"/><text fill="#000000" font-family="sans-serif" font-size="11" lengthAdjust="spacingAndGlyphs" textLength="84" x="27" y="101.5">mask(Mat): void</text><ellipse cx="18" cy="111.7979" fill="#84BE84" rx="3" ry="3" style="stroke: #038048; stroke-width: 1.0;"/><text fill="#000000" font-family="sans-serif" font-size="11" lengthAdjust="spacingAndGlyphs" textLength="92" x="27" y="114.4551">morph(Mat): void</text><ellipse cx="18" cy="124.7529" fill="#84BE84" rx="3" ry="3" style="stroke: #038048; stroke-width: 1.0;"/><text fill="#000000" font-family="sans-serif" font-size="11" lengthAdjust="spacingAndGlyphs" textLength="130" x="27" y="127.4102">originalFrame(Mat): void</text><ellipse cx="18" cy="137.708" fill="#84BE84" rx="3" ry="3" style="stroke: #038048; stroke-width: 1.0;"/><text fill="#000000" font-family="sans-serif" font-size="11" lengthAdjust="spacingAndGlyphs" textLength="77" x="27" y="140.3652">edges(): byte[]</text><ellipse cx="18" cy="150.6631" fill="#84BE84" rx="3" ry="3" style="stroke: #038048; stroke-width: 1.0;"/><text fill="#000000" font-family="sans-serif" font-size="11" lengthAdjust="spacingAndGlyphs" textLength="70" x="27" y="153.3203">lines(): byte[]</text><ellipse cx="18" cy="163.6182" fill="#84BE84" rx="3" ry="3" style="stroke: #038048; stroke-width: 1.0;"/><text fill="#000000" font-family="sans-serif" font-size="11" lengthAdjust="spacingAndGlyphs" textLength="97" x="27" y="166.2754">startLight(): byte[]</text><ellipse cx="18" cy="176.5732" fill="#84BE84" rx="3" ry="3" style="stroke: #038048; stroke-width: 1.0;"/><text fill="#000000" font-family="sans-serif" font-size="11" lengthAdjust="spacingAndGlyphs" textLength="73" x="27" y="179.2305">mask(): byte[]</text><ellipse cx="18" cy="189.5283" fill="#84BE84" rx="3" ry="3" style="stroke: #038048; stroke-width: 1.0;"/><text fill="#000000" font-family="sans-serif" font-size="11" lengthAdjust="spacingAndGlyphs" textLength="81" x="27" y="192.1855">morph(): byte[]</text><ellipse cx="18" cy="202.4834" fill="#84BE84" rx="3" ry="3" style="stroke: #038048; stroke-width: 1.0;"/><text fill="#000000" font-family="sans-serif" font-size="11" lengthAdjust="spacingAndGlyphs" textLength="119" x="27" y="205.1406">originalFrame(): byte[]</text></a><text fill="#888888" font-family="sans-serif" font-size="10" lengthAdjust="spacingAndGlyphs" textLength="182" x="0" y="230.668">UMLDoclet 1.1.4, PlantUML 1.2019.05</text><!--
@startuml

    class ImageCollector [[ImageCollector.html]] {
        +edges(Mat): void
        +lines(Mat): void
        +startLight(Mat): void
        +mask(Mat): void
        +morph(Mat): void
        +originalFrame(Mat): void
        +edges(): byte[]
        +lines(): byte[]
        +startLight(): byte[]
        +mask(): byte[]
        +morph(): byte[]
        +originalFrame(): byte[]
    }


    center footer UMLDoclet 1.1.4, PlantUML 1.2019.05
@enduml

PlantUML version 1.2019.05(Sat Apr 20 18:45:36 CEST 2019)
(APACHE source distribution)
Java Runtime: Java(TM) SE Runtime Environment
JVM: Java HotSpot(TM) 64-Bit Server VM
Java Version: 1.8.0_152-b16
Operating System: Mac OS X
OS Version: 10.13.6
Default Encoding: UTF-8
Language: de
Country: DE
--></g></svg>