<?xml version="1.0" encoding="UTF-8" standalone="no"?><svg xmlns="http://www.w3.org/2000/svg" xmlns:xlink="http://www.w3.org/1999/xlink" contentScriptType="application/ecmascript" contentStyleType="text/css" height="442px" preserveAspectRatio="none" style="width:1138px;height:442px;" version="1.1" viewBox="0 0 1138 442" width="1138px" zoomAndPan="magnify"><defs><filter height="300%" id="f1c4n9tlu0hcmb" width="300%" x="-1" y="-1"><feGaussianBlur result="blurOut" stdDeviation="2.0"/><feColorMatrix in="blurOut" result="blurOut2" type="matrix" values="0 0 0 0 0 0 0 0 0 0 0 0 0 0 0 0 0 0 .4 0"/><feOffset dx="4.0" dy="4.0" in="blurOut2" result="blurOut3"/><feBlend in="SourceGraphic" in2="blurOut3" mode="normal"/></filter></defs><g><!--cluster nl.vaneijndhoven.opencv.tools--><polygon fill="#FFFFFF" filter="url(#f1c4n9tlu0hcmb)" points="14,16,234,16,241,38.4883,844,38.4883,844,401,14,401,14,16" style="stroke: #000000; stroke-width: 1.5;"/><line style="stroke: #000000; stroke-width: 1.5;" x1="14" x2="241" y1="38.4883" y2="38.4883"/><text fill="#000000" font-family="sans-serif" font-size="14" font-weight="bold" lengthAdjust="spacingAndGlyphs" textLength="214" x="18" y="31.5352">nl.vaneijndhoven.opencv.tools</text><!--cluster org.opencv.core--><polygon fill="#FFFFFF" filter="url(#f1c4n9tlu0hcmb)" points="852,93.5,968,93.5,975,115.9883,978,115.9883,978,176.5,852,176.5,852,93.5" style="stroke: #000000; stroke-width: 1.5;"/><line style="stroke: #000000; stroke-width: 1.5;" x1="852" x2="975" y1="115.9883" y2="115.9883"/><text fill="#000000" font-family="sans-serif" font-size="14" font-weight="bold" lengthAdjust="spacingAndGlyphs" textLength="110" x="856" y="109.0352">org.opencv.core</text><!--cluster java.lang--><polygon fill="#FFFFFF" filter="url(#f1c4n9tlu0hcmb)" points="986,87,1055,87,1062,109.4883,1116,109.4883,1116,183,986,183,986,87" style="stroke: #000000; stroke-width: 1.5;"/><line style="stroke: #000000; stroke-width: 1.5;" x1="986" x2="1062" y1="109.4883" y2="109.4883"/><text fill="#000000" font-family="sans-serif" font-size="14" font-weight="bold" lengthAdjust="spacingAndGlyphs" textLength="63" x="990" y="102.5352">java.lang</text><!--class nl.vaneijndhoven.opencv.tools.ImageCollector--><a href="ImageCollector.html" target="_top" xlink:actuate="onRequest" xlink:show="new" xlink:title="ImageCollector.html" xlink:type="simple"><rect fill="#FEFECE" filter="url(#f1c4n9tlu0hcmb)" height="203.4609" id="nl.vaneijndhoven.opencv.tools.ImageCollector" style="stroke: #A80036; stroke-width: 1.5;" width="156" x="680" y="43"/><ellipse cx="712.55" cy="59" fill="#ADD1B2" rx="11" ry="11" style="stroke: #A80036; stroke-width: 1.0;"/><path d="M715.5231,64.6431 Q714.9421,64.9419 714.3029,65.0913 Q713.6638,65.2407 712.9582,65.2407 Q710.4514,65.2407 709.1315,63.5889 Q707.8117,61.937 707.8117,58.8159 Q707.8117,55.6865 709.1315,54.0347 Q710.4514,52.3828 712.9582,52.3828 Q713.6638,52.3828 714.3112,52.5322 Q714.9587,52.6816 715.5231,52.9805 L715.5231,55.7031 Q714.8923,55.1221 714.2988,54.8523 Q713.7053,54.5825 713.0744,54.5825 Q711.7297,54.5825 711.0449,55.6492 Q710.3601,56.7158 710.3601,58.8159 Q710.3601,60.9077 711.0449,61.9744 Q711.7297,63.041 713.0744,63.041 Q713.7053,63.041 714.2988,62.7712 Q714.8923,62.5015 715.5231,61.9204 Z "/><text fill="#000000" font-family="sans-serif" font-size="12" lengthAdjust="spacingAndGlyphs" textLength="85" x="730.45" y="63.5352">ImageCollector</text><line style="stroke: #A80036; stroke-width: 1.5;" x1="681" x2="835" y1="75" y2="75"/><line style="stroke: #A80036; stroke-width: 1.5;" x1="681" x2="835" y1="83" y2="83"/><ellipse cx="691" cy="94.9775" fill="#84BE84" rx="3" ry="3" style="stroke: #038048; stroke-width: 1.0;"/><text fill="#000000" font-family="sans-serif" font-size="11" lengthAdjust="spacingAndGlyphs" textLength="88" x="700" y="97.6348">edges(Mat): void</text><ellipse cx="691" cy="107.9326" fill="#84BE84" rx="3" ry="3" style="stroke: #038048; stroke-width: 1.0;"/><text fill="#000000" font-family="sans-serif" font-size="11" lengthAdjust="spacingAndGlyphs" textLength="81" x="700" y="110.5898">lines(Mat): void</text><ellipse cx="691" cy="120.8877" fill="#84BE84" rx="3" ry="3" style="stroke: #038048; stroke-width: 1.0;"/><text fill="#000000" font-family="sans-serif" font-size="11" lengthAdjust="spacingAndGlyphs" textLength="108" x="700" y="123.5449">startLight(Mat): void</text><ellipse cx="691" cy="133.8428" fill="#84BE84" rx="3" ry="3" style="stroke: #038048; stroke-width: 1.0;"/><text fill="#000000" font-family="sans-serif" font-size="11" lengthAdjust="spacingAndGlyphs" textLength="84" x="700" y="136.5">mask(Mat): void</text><ellipse cx="691" cy="146.7979" fill="#84BE84" rx="3" ry="3" style="stroke: #038048; stroke-width: 1.0;"/><text fill="#000000" font-family="sans-serif" font-size="11" lengthAdjust="spacingAndGlyphs" textLength="92" x="700" y="149.4551">morph(Mat): void</text><ellipse cx="691" cy="159.7529" fill="#84BE84" rx="3" ry="3" style="stroke: #038048; stroke-width: 1.0;"/><text fill="#000000" font-family="sans-serif" font-size="11" lengthAdjust="spacingAndGlyphs" textLength="130" x="700" y="162.4102">originalFrame(Mat): void</text><ellipse cx="691" cy="172.708" fill="#84BE84" rx="3" ry="3" style="stroke: #038048; stroke-width: 1.0;"/><text fill="#000000" font-family="sans-serif" font-size="11" lengthAdjust="spacingAndGlyphs" textLength="77" x="700" y="175.3652">edges(): byte[]</text><ellipse cx="691" cy="185.6631" fill="#84BE84" rx="3" ry="3" style="stroke: #038048; stroke-width: 1.0;"/><text fill="#000000" font-family="sans-serif" font-size="11" lengthAdjust="spacingAndGlyphs" textLength="70" x="700" y="188.3203">lines(): byte[]</text><ellipse cx="691" cy="198.6182" fill="#84BE84" rx="3" ry="3" style="stroke: #038048; stroke-width: 1.0;"/><text fill="#000000" font-family="sans-serif" font-size="11" lengthAdjust="spacingAndGlyphs" textLength="97" x="700" y="201.2754">startLight(): byte[]</text><ellipse cx="691" cy="211.5732" fill="#84BE84" rx="3" ry="3" style="stroke: #038048; stroke-width: 1.0;"/><text fill="#000000" font-family="sans-serif" font-size="11" lengthAdjust="spacingAndGlyphs" textLength="73" x="700" y="214.2305">mask(): byte[]</text><ellipse cx="691" cy="224.5283" fill="#84BE84" rx="3" ry="3" style="stroke: #038048; stroke-width: 1.0;"/><text fill="#000000" font-family="sans-serif" font-size="11" lengthAdjust="spacingAndGlyphs" textLength="81" x="700" y="227.1855">morph(): byte[]</text><ellipse cx="691" cy="237.4834" fill="#84BE84" rx="3" ry="3" style="stroke: #038048; stroke-width: 1.0;"/><text fill="#000000" font-family="sans-serif" font-size="11" lengthAdjust="spacingAndGlyphs" textLength="119" x="700" y="240.1406">originalFrame(): byte[]</text></a><!--class nl.vaneijndhoven.opencv.tools.DebugTools--><a href="DebugTools.html" target="_top" xlink:actuate="onRequest" xlink:show="new" xlink:title="DebugTools.html" xlink:type="simple"><rect fill="#FEFECE" filter="url(#f1c4n9tlu0hcmb)" height="86.8652" id="nl.vaneijndhoven.opencv.tools.DebugTools" style="stroke: #A80036; stroke-width: 1.5;" width="294" x="22" y="101"/><ellipse cx="130.25" cy="117" fill="#ADD1B2" rx="11" ry="11" style="stroke: #A80036; stroke-width: 1.0;"/><path d="M133.2231,122.6431 Q132.6421,122.9419 132.0029,123.0913 Q131.3638,123.2407 130.6582,123.2407 Q128.1514,123.2407 126.8315,121.5889 Q125.5117,119.937 125.5117,116.8159 Q125.5117,113.6865 126.8315,112.0347 Q128.1514,110.3828 130.6582,110.3828 Q131.3638,110.3828 132.0112,110.5322 Q132.6587,110.6816 133.2231,110.9805 L133.2231,113.7031 Q132.5923,113.1221 131.9988,112.8523 Q131.4053,112.5825 130.7744,112.5825 Q129.4297,112.5825 128.7449,113.6492 Q128.0601,114.7158 128.0601,116.8159 Q128.0601,118.9077 128.7449,119.9744 Q129.4297,121.041 130.7744,121.041 Q131.4053,121.041 131.9988,120.7712 Q132.5923,120.5015 133.2231,119.9204 Z "/><text fill="#000000" font-family="sans-serif" font-size="12" lengthAdjust="spacingAndGlyphs" textLength="69" x="150.75" y="121.5352">DebugTools</text><line style="stroke: #A80036; stroke-width: 1.5;" x1="23" x2="315" y1="133" y2="133"/><line style="stroke: #A80036; stroke-width: 1.5;" x1="23" x2="315" y1="141" y2="141"/><ellipse cx="33" cy="152.9775" fill="#84BE84" rx="3" ry="3" style="stroke: #038048; stroke-width: 1.0;"/><text fill="#000000" font-family="sans-serif" font-size="11" lengthAdjust="spacingAndGlyphs" textLength="143" x="42" y="155.6348">DebugTools(String, String)</text><ellipse cx="33" cy="165.9326" fill="#84BE84" rx="3" ry="3" style="stroke: #038048; stroke-width: 1.0;"/><text fill="#000000" font-family="sans-serif" font-size="11" lengthAdjust="spacingAndGlyphs" textLength="130" x="42" y="168.5898">output(Mat, String): void</text><ellipse cx="33" cy="178.8877" fill="#84BE84" rx="3" ry="3" style="stroke: #038048; stroke-width: 1.0;"/><text fill="#000000" font-family="sans-serif" font-size="11" lengthAdjust="spacingAndGlyphs" textLength="268" x="42" y="181.5449">output(Mat, Collection&lt;Line&gt;, String, Scalar): void</text></a><!--class nl.vaneijndhoven.opencv.tools.DebugTools.VoidTools--><a href="DebugTools.VoidTools.html" target="_top" xlink:actuate="onRequest" xlink:show="new" xlink:title="DebugTools.VoidTools.html" xlink:type="simple"><rect fill="#FEFECE" filter="url(#f1c4n9tlu0hcmb)" height="73.9102" id="nl.vaneijndhoven.opencv.tools.DebugTools.VoidTools" style="stroke: #A80036; stroke-width: 1.5;" width="294" x="22" y="312.5"/><ellipse cx="99.75" cy="328.5" fill="#ADD1B2" rx="11" ry="11" style="stroke: #A80036; stroke-width: 1.0;"/><path d="M102.7231,334.1431 Q102.1421,334.4419 101.5029,334.5913 Q100.8638,334.7407 100.1582,334.7407 Q97.6514,334.7407 96.3315,333.0889 Q95.0117,331.437 95.0117,328.3159 Q95.0117,325.1865 96.3315,323.5347 Q97.6514,321.8828 100.1582,321.8828 Q100.8638,321.8828 101.5112,322.0322 Q102.1587,322.1816 102.7231,322.4805 L102.7231,325.2031 Q102.0923,324.6221 101.4988,324.3523 Q100.9053,324.0825 100.2744,324.0825 Q98.9297,324.0825 98.2449,325.1492 Q97.5601,326.2158 97.5601,328.3159 Q97.5601,330.4077 98.2449,331.4744 Q98.9297,332.541 100.2744,332.541 Q100.9053,332.541 101.4988,332.2712 Q102.0923,332.0015 102.7231,331.4204 Z "/><text fill="#000000" font-family="sans-serif" font-size="12" lengthAdjust="spacingAndGlyphs" textLength="130" x="120.25" y="333.0352">DebugTools.VoidTools</text><line style="stroke: #A80036; stroke-width: 1.5;" x1="23" x2="315" y1="344.5" y2="344.5"/><line style="stroke: #A80036; stroke-width: 1.5;" x1="23" x2="315" y1="352.5" y2="352.5"/><ellipse cx="33" cy="364.4775" fill="#84BE84" rx="3" ry="3" style="stroke: #038048; stroke-width: 1.0;"/><text fill="#000000" font-family="sans-serif" font-size="11" lengthAdjust="spacingAndGlyphs" textLength="130" x="42" y="367.1348">output(Mat, String): void</text><ellipse cx="33" cy="377.4326" fill="#84BE84" rx="3" ry="3" style="stroke: #038048; stroke-width: 1.0;"/><text fill="#000000" font-family="sans-serif" font-size="11" lengthAdjust="spacingAndGlyphs" textLength="268" x="42" y="380.0898">output(Mat, Collection&lt;Line&gt;, String, Scalar): void</text></a><!--class nl.vaneijndhoven.opencv.tools.MemoryManagement--><a href="MemoryManagement.html" target="_top" xlink:actuate="onRequest" xlink:show="new" xlink:title="MemoryManagement.html" xlink:type="simple"><rect fill="#FEFECE" filter="url(#f1c4n9tlu0hcmb)" height="125.7305" id="nl.vaneijndhoven.opencv.tools.MemoryManagement" style="stroke: #A80036; stroke-width: 1.5;" width="293" x="351.5" y="81.5"/><ellipse cx="433.75" cy="97.5" fill="#ADD1B2" rx="11" ry="11" style="stroke: #A80036; stroke-width: 1.0;"/><path d="M436.7231,103.1431 Q436.1421,103.4419 435.5029,103.5913 Q434.8638,103.7407 434.1582,103.7407 Q431.6514,103.7407 430.3315,102.0889 Q429.0117,100.437 429.0117,97.3159 Q429.0117,94.1865 430.3315,92.5347 Q431.6514,90.8828 434.1582,90.8828 Q434.8638,90.8828 435.5112,91.0322 Q436.1587,91.1816 436.7231,91.4805 L436.7231,94.2031 Q436.0923,93.6221 435.4988,93.3523 Q434.9053,93.0825 434.2744,93.0825 Q432.9297,93.0825 432.2449,94.1492 Q431.5601,95.2158 431.5601,97.3159 Q431.5601,99.4077 432.2449,100.4744 Q432.9297,101.541 434.2744,101.541 Q434.9053,101.541 435.4988,101.2712 Q436.0923,101.0015 436.7231,100.4204 Z "/><text fill="#000000" font-family="sans-serif" font-size="12" lengthAdjust="spacingAndGlyphs" textLength="120" x="454.25" y="102.0352">MemoryManagement</text><line style="stroke: #A80036; stroke-width: 1.5;" x1="352.5" x2="643.5" y1="113.5" y2="113.5"/><line style="stroke: #A80036; stroke-width: 1.5;" x1="352.5" x2="643.5" y1="121.5" y2="121.5"/><ellipse cx="362.5" cy="133.4775" fill="#84BE84" rx="3" ry="3" style="stroke: #038048; stroke-width: 1.0;"/><text fill="#000000" font-family="sans-serif" font-size="11" lengthAdjust="spacingAndGlyphs" text-decoration="underline" textLength="267" x="371.5" y="136.1348">closable(S): MemoryManagement.ClosableMat&lt;S&gt;</text><ellipse cx="362.5" cy="146.4326" fill="#84BE84" rx="3" ry="3" style="stroke: #038048; stroke-width: 1.0;"/><text fill="#000000" font-family="sans-serif" font-size="11" lengthAdjust="spacingAndGlyphs" text-decoration="underline" textLength="87" x="371.5" y="149.0898">scoped(Supplier</text><text fill="#000000" font-family="sans-serif" font-size="11" lengthAdjust="spacingAndGlyphs" text-decoration="underline" textLength="107" x="458.5" y="149.0898">, Function&lt;S, T&gt;): T</text><ellipse cx="362.5" cy="159.3877" fill="#84BE84" rx="3" ry="3" style="stroke: #038048; stroke-width: 1.0;"/><text fill="#000000" font-family="sans-serif" font-size="11" lengthAdjust="spacingAndGlyphs" text-decoration="underline" textLength="125" x="371.5" y="162.0449">scoped(String, Supplier</text><text fill="#000000" font-family="sans-serif" font-size="11" lengthAdjust="spacingAndGlyphs" text-decoration="underline" textLength="107" x="496.5" y="162.0449">, Function&lt;S, T&gt;): T</text><ellipse cx="362.5" cy="172.3428" fill="#84BE84" rx="3" ry="3" style="stroke: #038048; stroke-width: 1.0;"/><text fill="#000000" font-family="sans-serif" font-size="11" lengthAdjust="spacingAndGlyphs" text-decoration="underline" textLength="87" x="371.5" y="175">scoped(Supplier</text><text fill="#000000" font-family="sans-serif" font-size="11" lengthAdjust="spacingAndGlyphs" text-decoration="underline" textLength="62" x="458.5" y="175">, Consumer</text><text fill="#000000" font-family="sans-serif" font-size="11" lengthAdjust="spacingAndGlyphs" text-decoration="underline" textLength="33" x="520.5" y="175">): void</text><ellipse cx="362.5" cy="185.2979" fill="#84BE84" rx="3" ry="3" style="stroke: #038048; stroke-width: 1.0;"/><text fill="#000000" font-family="sans-serif" font-size="11" lengthAdjust="spacingAndGlyphs" text-decoration="underline" textLength="125" x="371.5" y="187.9551">scoped(String, Supplier</text><text fill="#000000" font-family="sans-serif" font-size="11" lengthAdjust="spacingAndGlyphs" text-decoration="underline" textLength="62" x="496.5" y="187.9551">, Consumer</text><text fill="#000000" font-family="sans-serif" font-size="11" lengthAdjust="spacingAndGlyphs" text-decoration="underline" textLength="33" x="558.5" y="187.9551">): void</text><ellipse cx="362.5" cy="198.2529" fill="#84BE84" rx="3" ry="3" style="stroke: #038048; stroke-width: 1.0;"/><text fill="#000000" font-family="sans-serif" font-size="11" lengthAdjust="spacingAndGlyphs" text-decoration="underline" textLength="189" x="371.5" y="200.9102">disposable(Mat): Observable&lt;Mat&gt;</text></a><!--class nl.vaneijndhoven.opencv.tools.MemoryManagement.ClosableMat--><a href="MemoryManagement.ClosableMat.html" target="_top" xlink:actuate="onRequest" xlink:show="new" xlink:title="MemoryManagement.ClosableMat.html" xlink:type="simple"><rect fill="#FEFECE" filter="url(#f1c4n9tlu0hcmb)" height="86.8652" id="nl.vaneijndhoven.opencv.tools.MemoryManagement.ClosableMat" style="stroke: #A80036; stroke-width: 1.5;" width="236" x="600" y="306"/><ellipse cx="615" cy="322" fill="#ADD1B2" rx="11" ry="11" style="stroke: #A80036; stroke-width: 1.0;"/><path d="M617.9731,327.6431 Q617.3921,327.9419 616.7529,328.0913 Q616.1138,328.2407 615.4082,328.2407 Q612.9014,328.2407 611.5815,326.5889 Q610.2617,324.937 610.2617,321.8159 Q610.2617,318.6865 611.5815,317.0347 Q612.9014,315.3828 615.4082,315.3828 Q616.1138,315.3828 616.7612,315.5322 Q617.4087,315.6816 617.9731,315.9805 L617.9731,318.7031 Q617.3423,318.1221 616.7488,317.8523 Q616.1553,317.5825 615.5244,317.5825 Q614.1797,317.5825 613.4949,318.6492 Q612.8101,319.7158 612.8101,321.8159 Q612.8101,323.9077 613.4949,324.9744 Q614.1797,326.041 615.5244,326.041 Q616.1553,326.041 616.7488,325.7712 Q617.3423,325.5015 617.9731,324.9204 Z "/><text fill="#000000" font-family="sans-serif" font-size="12" lengthAdjust="spacingAndGlyphs" textLength="194" x="629" y="326.5352">MemoryManagement.ClosableMat</text><rect fill="#FFFFFF" height="16.1328" style="stroke: #000000; stroke-width: 1.0; stroke-dasharray: 2.0,2.0;" width="8" x="831" y="303"/><text fill="#000000" font-family="sans-serif" font-size="12" font-style="italic" lengthAdjust="spacingAndGlyphs" textLength="6" x="832" y="315.6016">S</text><line style="stroke: #A80036; stroke-width: 1.5;" x1="601" x2="835" y1="338" y2="338"/><line style="stroke: #A80036; stroke-width: 1.5;" x1="601" x2="835" y1="346" y2="346"/><ellipse cx="611" cy="357.9775" fill="#84BE84" rx="3" ry="3" style="stroke: #038048; stroke-width: 1.0;"/><text fill="#000000" font-family="sans-serif" font-size="11" lengthAdjust="spacingAndGlyphs" textLength="79" x="620" y="360.6348">ClosableMat(S)</text><ellipse cx="611" cy="370.9326" fill="#84BE84" rx="3" ry="3" style="stroke: #038048; stroke-width: 1.0;"/><text fill="#000000" font-family="sans-serif" font-size="11" lengthAdjust="spacingAndGlyphs" textLength="65" x="620" y="373.5898">close(): void</text><ellipse cx="611" cy="383.8877" fill="#84BE84" rx="3" ry="3" style="stroke: #038048; stroke-width: 1.0;"/><text fill="#000000" font-family="sans-serif" font-size="11" lengthAdjust="spacingAndGlyphs" textLength="37" x="620" y="386.5449">get(): S</text></a><!--class org.opencv.core.Mat--><rect fill="#FEFECE" filter="url(#f1c4n9tlu0hcmb)" height="48" id="org.opencv.core.Mat" style="stroke: #A80036; stroke-width: 1.5;" width="53" x="871.5" y="120.5"/><ellipse cx="886.5" cy="136.5" fill="#ADD1B2" rx="11" ry="11" style="stroke: #A80036; stroke-width: 1.0;"/><path d="M889.4731,142.1431 Q888.8921,142.4419 888.2529,142.5913 Q887.6138,142.7407 886.9082,142.7407 Q884.4014,142.7407 883.0815,141.0889 Q881.7617,139.437 881.7617,136.3159 Q881.7617,133.1865 883.0815,131.5347 Q884.4014,129.8828 886.9082,129.8828 Q887.6138,129.8828 888.2612,130.0322 Q888.9087,130.1816 889.4731,130.4805 L889.4731,133.2031 Q888.8423,132.6221 888.2488,132.3523 Q887.6553,132.0825 887.0244,132.0825 Q885.6797,132.0825 884.9949,133.1492 Q884.3101,134.2158 884.3101,136.3159 Q884.3101,138.4077 884.9949,139.4744 Q885.6797,140.541 887.0244,140.541 Q887.6553,140.541 888.2488,140.2712 Q888.8423,140.0015 889.4731,139.4204 Z "/><text fill="#000000" font-family="sans-serif" font-size="12" lengthAdjust="spacingAndGlyphs" textLength="21" x="900.5" y="141.0352">Mat</text><line style="stroke: #A80036; stroke-width: 1.5;" x1="872.5" x2="923.5" y1="152.5" y2="152.5"/><line style="stroke: #A80036; stroke-width: 1.5;" x1="872.5" x2="923.5" y1="160.5" y2="160.5"/><!--class java.lang.AutoCloseable--><rect fill="#FEFECE" filter="url(#f1c4n9tlu0hcmb)" height="60.9551" id="java.lang.AutoCloseable" style="stroke: #A80036; stroke-width: 1.5;" width="114" x="994" y="114"/><ellipse cx="1009" cy="130" fill="#B4A7E5" rx="11" ry="11" style="stroke: #A80036; stroke-width: 1.0;"/><path d="M1004.9277,125.7651 L1004.9277,123.6069 L1012.3071,123.6069 L1012.3071,125.7651 L1009.8418,125.7651 L1009.8418,133.8418 L1012.3071,133.8418 L1012.3071,136 L1004.9277,136 L1004.9277,133.8418 L1007.3931,133.8418 L1007.3931,125.7651 Z "/><text fill="#000000" font-family="sans-serif" font-size="12" font-style="italic" lengthAdjust="spacingAndGlyphs" textLength="82" x="1023" y="134.5352">AutoCloseable</text><line style="stroke: #A80036; stroke-width: 1.5;" x1="995" x2="1107" y1="146" y2="146"/><line style="stroke: #A80036; stroke-width: 1.5;" x1="995" x2="1107" y1="154" y2="154"/><ellipse cx="1005" cy="165.9775" fill="#84BE84" rx="3" ry="3" style="stroke: #038048; stroke-width: 1.0;"/><text fill="#000000" font-family="sans-serif" font-size="11" font-style="italic" lengthAdjust="spacingAndGlyphs" textLength="65" x="1014" y="168.6348">close(): void</text><!--link nl.vaneijndhoven.opencv.tools.DebugTools to nl.vaneijndhoven.opencv.tools.DebugTools.VoidTools--><path d="M157.0874,208.4606 C155.5338,242.6118 156.142,283.4437 158.912,312.364 " fill="none" id="nl.vaneijndhoven.opencv.tools.DebugTools-nl.vaneijndhoven.opencv.tools.DebugTools.VoidTools" style="stroke: #A80036; stroke-width: 1.0;"/><polygon fill="none" points="150.1173,207.7578,158.3341,188.2262,164.0908,208.6188,150.1173,207.7578" style="stroke: #A80036; stroke-width: 1.0;"/><!--link nl.vaneijndhoven.opencv.tools.DebugTools to nl.vaneijndhoven.opencv.tools.DebugTools.VoidTools--><path d="M181.3388,203.2012 C183.319,238.3424 182.7665,281.9432 179.6814,312.364 " fill="none" id="nl.vaneijndhoven.opencv.tools.DebugTools-nl.vaneijndhoven.opencv.tools.DebugTools.VoidTools-1" style="stroke: #A80036; stroke-width: 1.0;"/><ellipse cx="180.8505" cy="196.2068" fill="#FFFFFF" rx="8" ry="8" style="stroke: #A80036; stroke-width: 1.0;"/><line style="stroke: #A80036; stroke-width: 1.0;" x1="181.4077" x2="180.2933" y1="204.1873" y2="188.2262"/><line style="stroke: #A80036; stroke-width: 1.0;" x1="172.8699" x2="188.8311" y1="196.764" y2="195.6496"/><!--link org.opencv.core.Mat to nl.vaneijndhoven.opencv.tools.MemoryManagement.ClosableMat--><path d="M883.8118,187.7307 C876.2461,206.8013 865.6476,228.7495 852,246 C834.0352,268.7074 810.057,289.2633 787.3523,305.9617 " fill="none" id="org.opencv.core.Mat-nl.vaneijndhoven.opencv.tools.MemoryManagement.ClosableMat" style="stroke: #A80036; stroke-width: 1.0;"/><polygon fill="none" points="877.2669,185.2466,890.7154,168.8716,890.4137,190.0591,877.2669,185.2466" style="stroke: #A80036; stroke-width: 1.0;"/><!--link java.lang.AutoCloseable to nl.vaneijndhoven.opencv.tools.MemoryManagement.ClosableMat--><path d="M1028.2716,193.1033 C1017.6077,211.6874 1003.3815,231.8035 986,246 C942.8315,281.2583 886.2829,305.4566 836.2617,321.5323 " fill="none" id="java.lang.AutoCloseable-nl.vaneijndhoven.opencv.tools.MemoryManagement.ClosableMat" style="stroke: #A80036; stroke-width: 1.0; stroke-dasharray: 7.0,7.0;"/><polygon fill="none" points="1022.164,189.6795,1037.7331,175.3058,1034.5257,196.2513,1022.164,189.6795" style="stroke: #A80036; stroke-width: 1.0;"/><!--link nl.vaneijndhoven.opencv.tools.MemoryManagement to nl.vaneijndhoven.opencv.tools.MemoryManagement.ClosableMat--><path d="M576.7817,217.9103 C608.3159,247.2943 643.582,280.1559 670.9837,305.6894 " fill="none" id="nl.vaneijndhoven.opencv.tools.MemoryManagement-nl.vaneijndhoven.opencv.tools.MemoryManagement.ClosableMat" style="stroke: #A80036; stroke-width: 1.0;"/><ellipse cx="571.6553" cy="213.1333" fill="#FFFFFF" rx="8" ry="8" style="stroke: #A80036; stroke-width: 1.0;"/><line style="stroke: #A80036; stroke-width: 1.0;" x1="577.5082" x2="565.8024" y1="218.5871" y2="207.6795"/><line style="stroke: #A80036; stroke-width: 1.0;" x1="566.2015" x2="577.1091" y1="218.9862" y2="207.2804"/><text fill="#888888" font-family="sans-serif" font-size="10" lengthAdjust="spacingAndGlyphs" textLength="182" x="480" y="428.668">UMLDoclet 1.1.4, PlantUML 1.2019.05</text><!--
@startuml

    namespace nl.vaneijndhoven.opencv.tools {

        class ImageCollector [[ImageCollector.html]] {
            +edges(Mat): void
            +lines(Mat): void
            +startLight(Mat): void
            +mask(Mat): void
            +morph(Mat): void
            +originalFrame(Mat): void
            +edges(): byte[]
            +lines(): byte[]
            +startLight(): byte[]
            +mask(): byte[]
            +morph(): byte[]
            +originalFrame(): byte[]
        }

        class DebugTools [[DebugTools.html]] {
            +DebugTools(String, String)
            +output(Mat, String): void
            +output(Mat, Collection<Line>, String, Scalar): void
        }

        class nl.vaneijndhoven.opencv.tools.DebugTools.VoidTools [[DebugTools.VoidTools.html]] {
            +output(Mat, String): void
            +output(Mat, Collection<Line>, String, Scalar): void
        }

        class MemoryManagement [[MemoryManagement.html]] {
            {static} +closable(S): MemoryManagement.ClosableMat<S>
            {static} +scoped(Supplier<S>, Function<S, T>): T
            {static} +scoped(String, Supplier<S>, Function<S, T>): T
            {static} +scoped(Supplier<S>, Consumer<S>): void
            {static} +scoped(String, Supplier<S>, Consumer<S>): void
            {static} +disposable(Mat): Observable<Mat>
        }

        class nl.vaneijndhoven.opencv.tools.MemoryManagement.ClosableMat<S> [[MemoryManagement.ClosableMat.html]] {
            +ClosableMat(S)
            +close(): void
            +get(): S
        }

        DebugTools <|- - nl.vaneijndhoven.opencv.tools.DebugTools.VoidTools

        DebugTools +- - nl.vaneijndhoven.opencv.tools.DebugTools.VoidTools

        class org.opencv.core.Mat
        org.opencv.core.Mat <|- - nl.vaneijndhoven.opencv.tools.MemoryManagement.ClosableMat

        interface java.lang.AutoCloseable {
            {abstract} +close(): void
        }
        java.lang.AutoCloseable <|.. nl.vaneijndhoven.opencv.tools.MemoryManagement.ClosableMat

        MemoryManagement +- - nl.vaneijndhoven.opencv.tools.MemoryManagement.ClosableMat

    }


    center footer UMLDoclet 1.1.4, PlantUML 1.2019.05
@enduml

PlantUML version 1.2019.05(Sat Apr 20 18:45:36 CEST 2019)
(APACHE source distribution)
Java Runtime: Java(TM) SE Runtime Environment
JVM: Java HotSpot(TM) 64-Bit Server VM
Java Version: 1.8.0_152-b16
Operating System: Mac OS X
OS Version: 10.13.6
Default Encoding: UTF-8
Language: de
Country: DE
--></g></svg>