<?xml version="1.0" encoding="UTF-8" standalone="no"?><svg xmlns="http://www.w3.org/2000/svg" xmlns:xlink="http://www.w3.org/1999/xlink" contentScriptType="application/ecmascript" contentStyleType="text/css" height="456px" preserveAspectRatio="none" style="width:488px;height:456px;" version="1.1" viewBox="0 0 488 456" width="488px" zoomAndPan="magnify"><defs><filter height="300%" id="f4lbi3r9gorw1" width="300%" x="-1" y="-1"><feGaussianBlur result="blurOut" stdDeviation="2.0"/><feColorMatrix in="blurOut" result="blurOut2" type="matrix" values="0 0 0 0 0 0 0 0 0 0 0 0 0 0 0 0 0 0 .4 0"/><feOffset dx="4.0" dy="4.0" in="blurOut2" result="blurOut3"/><feBlend in="SourceGraphic" in2="blurOut3" mode="normal"/></filter></defs><g><!--cluster nl.vaneijndhoven.dukes.hazardcounty--><polygon fill="#FFFFFF" filter="url(#f4lbi3r9gorw1)" points="14,16,286,16,293,38.4883,466,38.4883,466,415,14,415,14,16" style="stroke: #000000; stroke-width: 1.5;"/><line style="stroke: #000000; stroke-width: 1.5;" x1="14" x2="293" y1="38.4883" y2="38.4883"/><text fill="#000000" font-family="sans-serif" font-size="14" font-weight="bold" lengthAdjust="spacingAndGlyphs" textLength="266" x="18" y="31.5352">nl.vaneijndhoven.dukes.hazardcounty</text><!--class nl.vaneijndhoven.dukes.hazardcounty.Events--><a href="Events.html" target="_top" xlink:actuate="onRequest" xlink:show="new" xlink:title="Events.html" xlink:type="simple"><rect fill="#FEFECE" filter="url(#f4lbi3r9gorw1)" height="112.7754" id="nl.vaneijndhoven.dukes.hazardcounty.Events" style="stroke: #A80036; stroke-width: 1.5;" width="155" x="22.5" y="43"/><ellipse cx="77.25" cy="59" fill="#EB937F" rx="11" ry="11" style="stroke: #A80036; stroke-width: 1.0;"/><path d="M81.3643,65 L73.6445,65 L73.6445,52.6069 L81.3643,52.6069 L81.3643,54.7651 L76.0933,54.7651 L76.0933,57.438 L80.8662,57.438 L80.8662,59.5962 L76.0933,59.5962 L76.0933,62.8418 L81.3643,62.8418 Z "/><text fill="#000000" font-family="sans-serif" font-size="12" lengthAdjust="spacingAndGlyphs" textLength="37" x="97.75" y="63.5352">Events</text><line style="stroke: #A80036; stroke-width: 1.5;" x1="23.5" x2="176.5" y1="75" y2="75"/><ellipse cx="33.5" cy="86.9775" fill="none" rx="3" ry="3" style="stroke: #038048; stroke-width: 1.0;"/><text fill="#000000" font-family="sans-serif" font-size="11" lengthAdjust="spacingAndGlyphs" text-decoration="underline" textLength="81" x="42.5" y="89.6348">STREAMADDED</text><ellipse cx="33.5" cy="99.9326" fill="none" rx="3" ry="3" style="stroke: #038048; stroke-width: 1.0;"/><text fill="#000000" font-family="sans-serif" font-size="11" lengthAdjust="spacingAndGlyphs" text-decoration="underline" textLength="81" x="42.5" y="102.5898">CANNYCONFIG</text><ellipse cx="33.5" cy="112.8877" fill="none" rx="3" ry="3" style="stroke: #038048; stroke-width: 1.0;"/><text fill="#000000" font-family="sans-serif" font-size="11" lengthAdjust="spacingAndGlyphs" text-decoration="underline" textLength="112" x="42.5" y="115.5449">HOUGHLINESCONFIG</text><ellipse cx="33.5" cy="125.8428" fill="none" rx="3" ry="3" style="stroke: #038048; stroke-width: 1.0;"/><text fill="#000000" font-family="sans-serif" font-size="11" lengthAdjust="spacingAndGlyphs" text-decoration="underline" textLength="90" x="42.5" y="128.5">LANEDETECTION</text><ellipse cx="33.5" cy="138.7979" fill="none" rx="3" ry="3" style="stroke: #038048; stroke-width: 1.0;"/><text fill="#000000" font-family="sans-serif" font-size="11" lengthAdjust="spacingAndGlyphs" text-decoration="underline" textLength="129" x="42.5" y="141.4551">STARTLIGHTDETECTION</text><line style="stroke: #A80036; stroke-width: 1.5;" x1="23.5" x2="176.5" y1="147.7754" y2="147.7754"/></a><!--class nl.vaneijndhoven.dukes.hazardcounty.Config--><a href="Config.html" target="_top" xlink:actuate="onRequest" xlink:show="new" xlink:title="Config.html" xlink:type="simple"><rect fill="#FEFECE" filter="url(#f4lbi3r9gorw1)" height="73.9102" id="nl.vaneijndhoven.dukes.hazardcounty.Config" style="stroke: #A80036; stroke-width: 1.5;" width="245" x="212.5" y="62.5"/><ellipse cx="312.75" cy="78.5" fill="#ADD1B2" rx="11" ry="11" style="stroke: #A80036; stroke-width: 1.0;"/><path d="M315.7231,84.1431 Q315.1421,84.4419 314.5029,84.5913 Q313.8638,84.7407 313.1582,84.7407 Q310.6514,84.7407 309.3315,83.0889 Q308.0117,81.437 308.0117,78.3159 Q308.0117,75.1865 309.3315,73.5347 Q310.6514,71.8828 313.1582,71.8828 Q313.8638,71.8828 314.5112,72.0322 Q315.1587,72.1816 315.7231,72.4805 L315.7231,75.2031 Q315.0923,74.6221 314.4988,74.3523 Q313.9053,74.0825 313.2744,74.0825 Q311.9297,74.0825 311.2449,75.1492 Q310.5601,76.2158 310.5601,78.3159 Q310.5601,80.4077 311.2449,81.4744 Q311.9297,82.541 313.2744,82.541 Q313.9053,82.541 314.4988,82.2712 Q315.0923,82.0015 315.7231,81.4204 Z "/><text fill="#000000" font-family="sans-serif" font-size="12" lengthAdjust="spacingAndGlyphs" textLength="36" x="333.25" y="83.0352">Config</text><line style="stroke: #A80036; stroke-width: 1.5;" x1="213.5" x2="456.5" y1="94.5" y2="94.5"/><line style="stroke: #A80036; stroke-width: 1.5;" x1="213.5" x2="456.5" y1="102.5" y2="102.5"/><ellipse cx="223.5" cy="114.4775" fill="#84BE84" rx="3" ry="3" style="stroke: #038048; stroke-width: 1.0;"/><text fill="#000000" font-family="sans-serif" font-size="11" lengthAdjust="spacingAndGlyphs" text-decoration="underline" textLength="133" x="232.5" y="117.1348">configureLogging(): void</text><ellipse cx="223.5" cy="127.4326" fill="#84BE84" rx="3" ry="3" style="stroke: #038048; stroke-width: 1.0;"/><text fill="#000000" font-family="sans-serif" font-size="11" lengthAdjust="spacingAndGlyphs" text-decoration="underline" textLength="219" x="232.5" y="130.0898">createHazelcastConfig(): ClusterManager</text></a><!--class nl.vaneijndhoven.dukes.hazardcounty.Characters--><a href="Characters.html" target="_top" xlink:actuate="onRequest" xlink:show="new" xlink:title="Characters.html" xlink:type="simple"><rect fill="#FEFECE" filter="url(#f4lbi3r9gorw1)" height="190.5059" id="nl.vaneijndhoven.dukes.hazardcounty.Characters" style="stroke: #A80036; stroke-width: 1.5;" width="132" x="34" y="216"/><ellipse cx="66.1" cy="232" fill="#EB937F" rx="11" ry="11" style="stroke: #A80036; stroke-width: 1.0;"/><path d="M70.2143,238 L62.4945,238 L62.4945,225.6069 L70.2143,225.6069 L70.2143,227.7651 L64.9433,227.7651 L64.9433,230.438 L69.7162,230.438 L69.7162,232.5962 L64.9433,232.5962 L64.9433,235.8418 L70.2143,235.8418 Z "/><text fill="#000000" font-family="sans-serif" font-size="12" lengthAdjust="spacingAndGlyphs" textLength="62" x="83.9" y="236.5352">Characters</text><line style="stroke: #A80036; stroke-width: 1.5;" x1="35" x2="165" y1="248" y2="248"/><ellipse cx="45" cy="259.9775" fill="none" rx="3" ry="3" style="stroke: #038048; stroke-width: 1.0;"/><text fill="#000000" font-family="sans-serif" font-size="11" lengthAdjust="spacingAndGlyphs" text-decoration="underline" textLength="15" x="54" y="262.6348">BO</text><ellipse cx="45" cy="272.9326" fill="none" rx="3" ry="3" style="stroke: #038048; stroke-width: 1.0;"/><text fill="#000000" font-family="sans-serif" font-size="11" lengthAdjust="spacingAndGlyphs" text-decoration="underline" textLength="27" x="54" y="275.5898">LUKE</text><ellipse cx="45" cy="285.8877" fill="none" rx="3" ry="3" style="stroke: #038048; stroke-width: 1.0;"/><text fill="#000000" font-family="sans-serif" font-size="11" lengthAdjust="spacingAndGlyphs" text-decoration="underline" textLength="32" x="54" y="288.5449">DAISY</text><ellipse cx="45" cy="298.8428" fill="none" rx="3" ry="3" style="stroke: #038048; stroke-width: 1.0;"/><text fill="#000000" font-family="sans-serif" font-size="11" lengthAdjust="spacingAndGlyphs" text-decoration="underline" textLength="69" x="54" y="301.5">UNCLE_JESSE</text><ellipse cx="45" cy="311.7979" fill="none" rx="3" ry="3" style="stroke: #038048; stroke-width: 1.0;"/><text fill="#000000" font-family="sans-serif" font-size="11" lengthAdjust="spacingAndGlyphs" text-decoration="underline" textLength="45" x="54" y="314.4551">ROSCOE</text><ellipse cx="45" cy="324.7529" fill="none" rx="3" ry="3" style="stroke: #038048; stroke-width: 1.0;"/><text fill="#000000" font-family="sans-serif" font-size="11" lengthAdjust="spacingAndGlyphs" text-decoration="underline" textLength="34" x="54" y="327.4102">FLASH</text><ellipse cx="45" cy="337.708" fill="none" rx="3" ry="3" style="stroke: #038048; stroke-width: 1.0;"/><text fill="#000000" font-family="sans-serif" font-size="11" lengthAdjust="spacingAndGlyphs" text-decoration="underline" textLength="66" x="54" y="340.3652">BOSS_HOGG</text><ellipse cx="45" cy="350.6631" fill="none" rx="3" ry="3" style="stroke: #038048; stroke-width: 1.0;"/><text fill="#000000" font-family="sans-serif" font-size="11" lengthAdjust="spacingAndGlyphs" text-decoration="underline" textLength="46" x="54" y="353.3203">COOTER</text><ellipse cx="45" cy="363.6182" fill="none" rx="3" ry="3" style="stroke: #038048; stroke-width: 1.0;"/><text fill="#000000" font-family="sans-serif" font-size="11" lengthAdjust="spacingAndGlyphs" text-decoration="underline" textLength="29" x="54" y="366.2754">ENOS</text><ellipse cx="45" cy="376.5732" fill="none" rx="3" ry="3" style="stroke: #038048; stroke-width: 1.0;"/><text fill="#000000" font-family="sans-serif" font-size="11" lengthAdjust="spacingAndGlyphs" text-decoration="underline" textLength="41" x="54" y="379.2305">CLETUS</text><line style="stroke: #A80036; stroke-width: 1.5;" x1="35" x2="165" y1="385.5508" y2="385.5508"/><ellipse cx="45" cy="397.5283" fill="#84BE84" rx="3" ry="3" style="stroke: #038048; stroke-width: 1.0;"/><text fill="#000000" font-family="sans-serif" font-size="11" lengthAdjust="spacingAndGlyphs" textLength="106" x="54" y="400.1855">getCallsign(): String</text></a><!--class nl.vaneijndhoven.dukes.hazardcounty.Environment--><a href="Environment.html" target="_top" xlink:actuate="onRequest" xlink:show="new" xlink:title="Environment.html" xlink:type="simple"><rect fill="#FEFECE" filter="url(#f4lbi3r9gorw1)" height="190.5059" id="nl.vaneijndhoven.dukes.hazardcounty.Environment" style="stroke: #A80036; stroke-width: 1.5;" width="208" x="201" y="216"/><ellipse cx="265.25" cy="232" fill="#ADD1B2" rx="11" ry="11" style="stroke: #A80036; stroke-width: 1.0;"/><path d="M268.2231,237.6431 Q267.6421,237.9419 267.0029,238.0913 Q266.3638,238.2407 265.6582,238.2407 Q263.1514,238.2407 261.8315,236.5889 Q260.5117,234.937 260.5117,231.8159 Q260.5117,228.6865 261.8315,227.0347 Q263.1514,225.3828 265.6582,225.3828 Q266.3638,225.3828 267.0112,225.5322 Q267.6587,225.6816 268.2231,225.9805 L268.2231,228.7031 Q267.5923,228.1221 266.9988,227.8523 Q266.4053,227.5825 265.7744,227.5825 Q264.4297,227.5825 263.7449,228.6492 Q263.0601,229.7158 263.0601,231.8159 Q263.0601,233.9077 263.7449,234.9744 Q264.4297,236.041 265.7744,236.041 Q266.4053,236.041 266.9988,235.7712 Q267.5923,235.5015 268.2231,234.9204 Z "/><text fill="#000000" font-family="sans-serif" font-size="12" lengthAdjust="spacingAndGlyphs" textLength="71" x="285.75" y="236.5352">Environment</text><line style="stroke: #A80036; stroke-width: 1.5;" x1="202" x2="408" y1="248" y2="248"/><ellipse cx="212" cy="259.9775" fill="none" rx="3" ry="3" style="stroke: #038048; stroke-width: 1.0;"/><text fill="#000000" font-family="sans-serif" font-size="11" lengthAdjust="spacingAndGlyphs" text-decoration="underline" textLength="105" x="221" y="262.6348">propFilePath: String</text><line style="stroke: #A80036; stroke-width: 1.5;" x1="202" x2="408" y1="268.9551" y2="268.9551"/><ellipse cx="212" cy="280.9326" fill="#84BE84" rx="3" ry="3" style="stroke: #038048; stroke-width: 1.0;"/><text fill="#000000" font-family="sans-serif" font-size="11" lengthAdjust="spacingAndGlyphs" text-decoration="underline" textLength="134" x="221" y="283.5898">readFirstLine(File): String</text><ellipse cx="212" cy="293.8877" fill="#84BE84" rx="3" ry="3" style="stroke: #038048; stroke-width: 1.0;"/><text fill="#000000" font-family="sans-serif" font-size="11" lengthAdjust="spacingAndGlyphs" text-decoration="underline" textLength="99" x="221" y="296.5449">osRelease(): String</text><ellipse cx="212" cy="306.8428" fill="#84BE84" rx="3" ry="3" style="stroke: #038048; stroke-width: 1.0;"/><text fill="#000000" font-family="sans-serif" font-size="11" lengthAdjust="spacingAndGlyphs" textLength="75" x="221" y="309.5">isPi(): boolean</text><ellipse cx="212" cy="319.7979" fill="#84BE84" rx="3" ry="3" style="stroke: #038048; stroke-width: 1.0;"/><text fill="#000000" font-family="sans-serif" font-size="11" lengthAdjust="spacingAndGlyphs" text-decoration="underline" textLength="144" x="221" y="322.4551">getInstance(): Environment</text><ellipse cx="212" cy="332.7529" fill="#84BE84" rx="3" ry="3" style="stroke: #038048; stroke-width: 1.0;"/><text fill="#000000" font-family="sans-serif" font-size="11" lengthAdjust="spacingAndGlyphs" textLength="180" x="221" y="335.4102">runningOnRaspberryPi(): boolean</text><ellipse cx="212" cy="345.708" fill="#84BE84" rx="3" ry="3" style="stroke: #038048; stroke-width: 1.0;"/><text fill="#000000" font-family="sans-serif" font-size="11" lengthAdjust="spacingAndGlyphs" textLength="141" x="221" y="348.3652">getProperties(): Properties</text><ellipse cx="212" cy="358.6631" fill="#84BE84" rx="3" ry="3" style="stroke: #038048; stroke-width: 1.0;"/><text fill="#000000" font-family="sans-serif" font-size="11" lengthAdjust="spacingAndGlyphs" textLength="117" x="221" y="361.3203">getPiAddress(): String</text><ellipse cx="212" cy="371.6182" fill="#84BE84" rx="3" ry="3" style="stroke: #038048; stroke-width: 1.0;"/><text fill="#000000" font-family="sans-serif" font-size="11" lengthAdjust="spacingAndGlyphs" textLength="120" x="221" y="374.2754">getCameraUrl(): String</text><ellipse cx="212" cy="384.5732" fill="#84BE84" rx="3" ry="3" style="stroke: #038048; stroke-width: 1.0;"/><text fill="#000000" font-family="sans-serif" font-size="11" lengthAdjust="spacingAndGlyphs" textLength="182" x="221" y="387.2305">getMyIpAddresses(): List&lt;String&gt;</text><ellipse cx="212" cy="397.5283" fill="#84BE84" rx="3" ry="3" style="stroke: #038048; stroke-width: 1.0;"/><text fill="#000000" font-family="sans-serif" font-size="11" lengthAdjust="spacingAndGlyphs" text-decoration="underline" textLength="64" x="221" y="400.1855">reset(): void</text></a><!--link nl.vaneijndhoven.dukes.hazardcounty.Events to nl.vaneijndhoven.dukes.hazardcounty.Config--><!--link nl.vaneijndhoven.dukes.hazardcounty.Events to nl.vaneijndhoven.dukes.hazardcounty.Characters--><!--link nl.vaneijndhoven.dukes.hazardcounty.Characters to nl.vaneijndhoven.dukes.hazardcounty.Environment--><text fill="#888888" font-family="sans-serif" font-size="10" lengthAdjust="spacingAndGlyphs" textLength="182" x="155" y="442.668">UMLDoclet 1.1.4, PlantUML 1.2019.05</text><!--
@startuml

    namespace nl.vaneijndhoven.dukes.hazardcounty {

        enum Events [[Events.html]] {
            {static} +STREAMADDED
            {static} +CANNYCONFIG
            {static} +HOUGHLINESCONFIG
            {static} +LANEDETECTION
            {static} +STARTLIGHTDETECTION
        }

        class Config [[Config.html]] {
            {static} +configureLogging(): void
            {static} +createHazelcastConfig(): ClusterManager
        }

        enum Characters [[Characters.html]] {
            {static} +BO
            {static} +LUKE
            {static} +DAISY
            {static} +UNCLE_JESSE
            {static} +ROSCOE
            {static} +FLASH
            {static} +BOSS_HOGG
            {static} +COOTER
            {static} +ENOS
            {static} +CLETUS
            +getCallsign(): String
        }

        class Environment [[Environment.html]] {
            {static} +propFilePath: String
            {static} +readFirstLine(File): String
            {static} +osRelease(): String
            +isPi(): boolean
            {static} +getInstance(): Environment
            +runningOnRaspberryPi(): boolean
            +getProperties(): Properties
            +getPiAddress(): String
            +getCameraUrl(): String
            +getMyIpAddresses(): List<String>
            {static} +reset(): void
        }

    }


    center footer UMLDoclet 1.1.4, PlantUML 1.2019.05
@enduml

PlantUML version 1.2019.05(Sat Apr 20 18:45:36 CEST 2019)
(APACHE source distribution)
Java Runtime: Java(TM) SE Runtime Environment
JVM: Java HotSpot(TM) 64-Bit Server VM
Java Version: 1.8.0_152-b16
Operating System: Mac OS X
OS Version: 10.13.6
Default Encoding: UTF-8
Language: de
Country: DE
--></g></svg>