<?xml version="1.0" encoding="UTF-8" standalone="no"?><svg xmlns="http://www.w3.org/2000/svg" xmlns:xlink="http://www.w3.org/1999/xlink" contentScriptType="application/ecmascript" contentStyleType="text/css" height="261px" preserveAspectRatio="none" style="width:278px;height:261px;" version="1.1" viewBox="0 0 278 261" width="278px" zoomAndPan="magnify"><defs><filter height="300%" id="fla8xos1cr4yt" width="300%" x="-1" y="-1"><feGaussianBlur result="blurOut" stdDeviation="2.0"/><feColorMatrix in="blurOut" result="blurOut2" type="matrix" values="0 0 0 0 0 0 0 0 0 0 0 0 0 0 0 0 0 0 .4 0"/><feOffset dx="4.0" dy="4.0" in="blurOut2" result="blurOut3"/><feBlend in="SourceGraphic" in2="blurOut3" mode="normal"/></filter></defs><g><!--cluster nl.vaneijndhoven.dukes.roscoe--><polygon fill="#FFFFFF" filter="url(#fla8xos1cr4yt)" points="23,124,246,124,253,146.4883,256,146.4883,256,220,23,220,23,124" style="stroke: #000000; stroke-width: 1.5;"/><line style="stroke: #000000; stroke-width: 1.5;" x1="23" x2="253" y1="146.4883" y2="146.4883"/><text fill="#000000" font-family="sans-serif" font-size="14" font-weight="bold" lengthAdjust="spacingAndGlyphs" textLength="217" x="27" y="139.5352">nl.vaneijndhoven.dukes.roscoe</text><!--cluster io.vertx.core--><polygon fill="#FFFFFF" filter="url(#fla8xos1cr4yt)" points="14,16,106,16,113,38.4883,154,38.4883,154,99,14,99,14,16" style="stroke: #000000; stroke-width: 1.5;"/><line style="stroke: #000000; stroke-width: 1.5;" x1="14" x2="113" y1="38.4883" y2="38.4883"/><text fill="#000000" font-family="sans-serif" font-size="14" font-weight="bold" lengthAdjust="spacingAndGlyphs" textLength="86" x="18" y="31.5352">io.vertx.core</text><!--class nl.vaneijndhoven.dukes.roscoe.Roscoe--><a href="Roscoe.html" target="_top" xlink:actuate="onRequest" xlink:show="new" xlink:title="Roscoe.html" xlink:type="simple"><rect fill="#FEFECE" filter="url(#fla8xos1cr4yt)" height="60.9551" id="nl.vaneijndhoven.dukes.roscoe.Roscoe" style="stroke: #A80036; stroke-width: 1.5;" width="88" x="40" y="151"/><ellipse cx="61.75" cy="167" fill="#ADD1B2" rx="11" ry="11" style="stroke: #A80036; stroke-width: 1.0;"/><path d="M64.7231,172.6431 Q64.1421,172.9419 63.5029,173.0913 Q62.8638,173.2407 62.1582,173.2407 Q59.6514,173.2407 58.3315,171.5889 Q57.0117,169.937 57.0117,166.8159 Q57.0117,163.6865 58.3315,162.0347 Q59.6514,160.3828 62.1582,160.3828 Q62.8638,160.3828 63.5112,160.5322 Q64.1587,160.6816 64.7231,160.9805 L64.7231,163.7031 Q64.0923,163.1221 63.4988,162.8523 Q62.9053,162.5825 62.2744,162.5825 Q60.9297,162.5825 60.2449,163.6492 Q59.5601,164.7158 59.5601,166.8159 Q59.5601,168.9077 60.2449,169.9744 Q60.9297,171.041 62.2744,171.041 Q62.9053,171.041 63.4988,170.7712 Q64.0923,170.5015 64.7231,169.9204 Z "/><text fill="#000000" font-family="sans-serif" font-size="12" lengthAdjust="spacingAndGlyphs" textLength="41" x="77.25" y="171.5352">Roscoe</text><line style="stroke: #A80036; stroke-width: 1.5;" x1="41" x2="127" y1="183" y2="183"/><line style="stroke: #A80036; stroke-width: 1.5;" x1="41" x2="127" y1="191" y2="191"/><ellipse cx="51" cy="202.9775" fill="#84BE84" rx="3" ry="3" style="stroke: #038048; stroke-width: 1.0;"/><text fill="#000000" font-family="sans-serif" font-size="11" lengthAdjust="spacingAndGlyphs" textLength="62" x="60" y="205.6348">start(): void</text></a><!--class io.vertx.core.AbstractVerticle--><rect fill="#FEFECE" filter="url(#fla8xos1cr4yt)" height="48" id="io.vertx.core.AbstractVerticle" style="stroke: #A80036; stroke-width: 1.5;" width="123" x="22.5" y="43"/><ellipse cx="37.5" cy="59" fill="#A9DCDF" rx="11" ry="11" style="stroke: #A80036; stroke-width: 1.0;"/><path d="M37.6133,54.3481 L36.4595,59.4199 L38.7754,59.4199 Z M36.1191,52.1069 L39.1157,52.1069 L42.4609,64.5 L40.0122,64.5 L39.2485,61.437 L35.9697,61.437 L35.2227,64.5 L32.7739,64.5 Z "/><text fill="#000000" font-family="sans-serif" font-size="12" font-style="italic" lengthAdjust="spacingAndGlyphs" textLength="91" x="51.5" y="63.5352">AbstractVerticle</text><line style="stroke: #A80036; stroke-width: 1.5;" x1="23.5" x2="144.5" y1="75" y2="75"/><line style="stroke: #A80036; stroke-width: 1.5;" x1="23.5" x2="144.5" y1="83" y2="83"/><!--link io.vertx.core.AbstractVerticle to nl.vaneijndhoven.dukes.roscoe.Roscoe--><path d="M84,111.2477 C84,124.5296 84,138.7972 84,150.9818 " fill="none" id="io.vertx.core.AbstractVerticle-nl.vaneijndhoven.dukes.roscoe.Roscoe" style="stroke: #A80036; stroke-width: 1.0;"/><polygon fill="none" points="77.0001,111.003,84,91.003,91.0001,111.0029,77.0001,111.003" style="stroke: #A80036; stroke-width: 1.0;"/><text fill="#888888" font-family="sans-serif" font-size="10" lengthAdjust="spacingAndGlyphs" textLength="182" x="50" y="247.668">UMLDoclet 1.1.4, PlantUML 1.2019.05</text><!--
@startuml

    namespace nl.vaneijndhoven.dukes.roscoe {

        class Roscoe [[Roscoe.html]] {
            +start(): void
        }

        abstract class io.vertx.core.AbstractVerticle
        io.vertx.core.AbstractVerticle <|- - Roscoe

    }


    center footer UMLDoclet 1.1.4, PlantUML 1.2019.05
@enduml

PlantUML version 1.2019.05(Sat Apr 20 18:45:36 CEST 2019)
(APACHE source distribution)
Java Runtime: Java(TM) SE Runtime Environment
JVM: Java HotSpot(TM) 64-Bit Server VM
Java Version: 1.8.0_152-b16
Operating System: Mac OS X
OS Version: 10.13.6
Default Encoding: UTF-8
Language: de
Country: DE
--></g></svg>