<?xml version="1.0" encoding="UTF-8" standalone="no"?><svg xmlns="http://www.w3.org/2000/svg" xmlns:xlink="http://www.w3.org/1999/xlink" contentScriptType="application/ecmascript" contentStyleType="text/css" height="154px" preserveAspectRatio="none" style="width:347px;height:154px;" version="1.1" viewBox="0 0 347 154" width="347px" zoomAndPan="magnify"><defs><filter height="300%" id="fwk6qo8k28ck2" width="300%" x="-1" y="-1"><feGaussianBlur result="blurOut" stdDeviation="2.0"/><feColorMatrix in="blurOut" result="blurOut2" type="matrix" values="0 0 0 0 0 0 0 0 0 0 0 0 0 0 0 0 0 0 .4 0"/><feOffset dx="4.0" dy="4.0" in="blurOut2" result="blurOut3"/><feBlend in="SourceGraphic" in2="blurOut3" mode="normal"/></filter></defs><g><!--class CannyEdgeDetector--><a href="CannyEdgeDetector.html" target="_top" xlink:actuate="onRequest" xlink:show="new" xlink:title="CannyEdgeDetector.html" xlink:type="simple"><rect fill="#FEFECE" filter="url(#fwk6qo8k28ck2)" height="112.7754" id="CannyEdgeDetector" style="stroke: #A80036; stroke-width: 1.5;" width="330" x="6" y="8"/><ellipse cx="110.25" cy="24" fill="#ADD1B2" rx="11" ry="11" style="stroke: #A80036; stroke-width: 1.0;"/><path d="M113.2231,29.6431 Q112.6421,29.9419 112.0029,30.0913 Q111.3638,30.2407 110.6582,30.2407 Q108.1514,30.2407 106.8315,28.5889 Q105.5117,26.937 105.5117,23.8159 Q105.5117,20.6865 106.8315,19.0347 Q108.1514,17.3828 110.6582,17.3828 Q111.3638,17.3828 112.0112,17.5322 Q112.6587,17.6816 113.2231,17.9805 L113.2231,20.7031 Q112.5923,20.1221 111.9988,19.8523 Q111.4053,19.5825 110.7744,19.5825 Q109.4297,19.5825 108.7449,20.6492 Q108.0601,21.7158 108.0601,23.8159 Q108.0601,25.9077 108.7449,26.9744 Q109.4297,28.041 110.7744,28.041 Q111.4053,28.041 111.9988,27.7712 Q112.5923,27.5015 113.2231,26.9204 Z "/><text fill="#000000" font-family="sans-serif" font-size="12" lengthAdjust="spacingAndGlyphs" textLength="113" x="130.75" y="28.5352">CannyEdgeDetector</text><line style="stroke: #A80036; stroke-width: 1.5;" x1="7" x2="335" y1="40" y2="40"/><line style="stroke: #A80036; stroke-width: 1.5;" x1="7" x2="335" y1="48" y2="48"/><ellipse cx="17" cy="59.9775" fill="#84BE84" rx="3" ry="3" style="stroke: #038048; stroke-width: 1.0;"/><text fill="#000000" font-family="sans-serif" font-size="11" lengthAdjust="spacingAndGlyphs" textLength="114" x="26" y="62.6348">CannyEdgeDetector()</text><ellipse cx="17" cy="72.9326" fill="#84BE84" rx="3" ry="3" style="stroke: #038048; stroke-width: 1.0;"/><text fill="#000000" font-family="sans-serif" font-size="11" lengthAdjust="spacingAndGlyphs" textLength="263" x="26" y="75.5898">CannyEdgeDetector(double, double, int, boolean)</text><ellipse cx="17" cy="85.8877" fill="#84BE84" rx="3" ry="3" style="stroke: #038048; stroke-width: 1.0;"/><text fill="#000000" font-family="sans-serif" font-size="11" lengthAdjust="spacingAndGlyphs" textLength="259" x="26" y="88.5449">CannyEdgeDetector(CannyEdgeDetector.Config)</text><ellipse cx="17" cy="98.8428" fill="#84BE84" rx="3" ry="3" style="stroke: #038048; stroke-width: 1.0;"/><text fill="#000000" font-family="sans-serif" font-size="11" lengthAdjust="spacingAndGlyphs" textLength="304" x="26" y="101.5">withImageCollector(ImageCollector): CannyEdgeDetector</text><ellipse cx="17" cy="111.7979" fill="#84BE84" rx="3" ry="3" style="stroke: #038048; stroke-width: 1.0;"/><text fill="#000000" font-family="sans-serif" font-size="11" lengthAdjust="spacingAndGlyphs" textLength="85" x="26" y="114.4551">detect(Mat): Mat</text></a><text fill="#888888" font-family="sans-serif" font-size="10" lengthAdjust="spacingAndGlyphs" textLength="182" x="86" y="140.668">UMLDoclet 1.1.4, PlantUML 1.2019.05</text><!--
@startuml

    class CannyEdgeDetector [[CannyEdgeDetector.html]] {
        +CannyEdgeDetector()
        +CannyEdgeDetector(double, double, int, boolean)
        +CannyEdgeDetector(CannyEdgeDetector.Config)
        +withImageCollector(ImageCollector): CannyEdgeDetector
        +detect(Mat): Mat
    }


    center footer UMLDoclet 1.1.4, PlantUML 1.2019.05
@enduml

PlantUML version 1.2019.05(Sat Apr 20 18:45:36 CEST 2019)
(APACHE source distribution)
Java Runtime: Java(TM) SE Runtime Environment
JVM: Java HotSpot(TM) 64-Bit Server VM
Java Version: 1.8.0_152-b16
Operating System: Mac OS X
OS Version: 10.13.6
Default Encoding: UTF-8
Language: de
Country: DE
--></g></svg>