<?xml version="1.0" encoding="UTF-8" standalone="no"?><svg xmlns="http://www.w3.org/2000/svg" xmlns:xlink="http://www.w3.org/1999/xlink" contentScriptType="application/ecmascript" contentStyleType="text/css" height="512px" preserveAspectRatio="none" style="width:990px;height:512px;" version="1.1" viewBox="0 0 990 512" width="990px" zoomAndPan="magnify"><defs><filter height="300%" id="fbktg2stfjebb" width="300%" x="-1" y="-1"><feGaussianBlur result="blurOut" stdDeviation="2.0"/><feColorMatrix in="blurOut" result="blurOut2" type="matrix" values="0 0 0 0 0 0 0 0 0 0 0 0 0 0 0 0 0 0 .4 0"/><feOffset dx="4.0" dy="4.0" in="blurOut2" result="blurOut3"/><feBlend in="SourceGraphic" in2="blurOut3" mode="normal"/></filter></defs><g><!--cluster nl.vaneijndhoven.opencv.edgedectection--><polygon fill="#FFFFFF" filter="url(#fbktg2stfjebb)" points="14,16,305,16,312,38.4883,968,38.4883,968,471,14,471,14,16" style="stroke: #000000; stroke-width: 1.5;"/><line style="stroke: #000000; stroke-width: 1.5;" x1="14" x2="312" y1="38.4883" y2="38.4883"/><text fill="#000000" font-family="sans-serif" font-size="14" font-weight="bold" lengthAdjust="spacingAndGlyphs" textLength="285" x="18" y="31.5352">nl.vaneijndhoven.opencv.edgedectection</text><!--class nl.vaneijndhoven.opencv.edgedectection.CannyEdgeDetector--><a href="CannyEdgeDetector.html" target="_top" xlink:actuate="onRequest" xlink:show="new" xlink:title="CannyEdgeDetector.html" xlink:type="simple"><rect fill="#FEFECE" filter="url(#fbktg2stfjebb)" height="112.7754" id="nl.vaneijndhoven.opencv.edgedectection.CannyEdgeDetector" style="stroke: #A80036; stroke-width: 1.5;" width="330" x="22" y="164"/><ellipse cx="126.25" cy="180" fill="#ADD1B2" rx="11" ry="11" style="stroke: #A80036; stroke-width: 1.0;"/><path d="M129.2231,185.6431 Q128.6421,185.9419 128.0029,186.0913 Q127.3638,186.2407 126.6582,186.2407 Q124.1514,186.2407 122.8315,184.5889 Q121.5117,182.937 121.5117,179.8159 Q121.5117,176.6865 122.8315,175.0347 Q124.1514,173.3828 126.6582,173.3828 Q127.3638,173.3828 128.0112,173.5322 Q128.6587,173.6816 129.2231,173.9805 L129.2231,176.7031 Q128.5923,176.1221 127.9988,175.8523 Q127.4053,175.5825 126.7744,175.5825 Q125.4297,175.5825 124.7449,176.6492 Q124.0601,177.7158 124.0601,179.8159 Q124.0601,181.9077 124.7449,182.9744 Q125.4297,184.041 126.7744,184.041 Q127.4053,184.041 127.9988,183.7712 Q128.5923,183.5015 129.2231,182.9204 Z "/><text fill="#000000" font-family="sans-serif" font-size="12" lengthAdjust="spacingAndGlyphs" textLength="113" x="146.75" y="184.5352">CannyEdgeDetector</text><line style="stroke: #A80036; stroke-width: 1.5;" x1="23" x2="351" y1="196" y2="196"/><line style="stroke: #A80036; stroke-width: 1.5;" x1="23" x2="351" y1="204" y2="204"/><ellipse cx="33" cy="215.9775" fill="#84BE84" rx="3" ry="3" style="stroke: #038048; stroke-width: 1.0;"/><text fill="#000000" font-family="sans-serif" font-size="11" lengthAdjust="spacingAndGlyphs" textLength="114" x="42" y="218.6348">CannyEdgeDetector()</text><ellipse cx="33" cy="228.9326" fill="#84BE84" rx="3" ry="3" style="stroke: #038048; stroke-width: 1.0;"/><text fill="#000000" font-family="sans-serif" font-size="11" lengthAdjust="spacingAndGlyphs" textLength="263" x="42" y="231.5898">CannyEdgeDetector(double, double, int, boolean)</text><ellipse cx="33" cy="241.8877" fill="#84BE84" rx="3" ry="3" style="stroke: #038048; stroke-width: 1.0;"/><text fill="#000000" font-family="sans-serif" font-size="11" lengthAdjust="spacingAndGlyphs" textLength="259" x="42" y="244.5449">CannyEdgeDetector(CannyEdgeDetector.Config)</text><ellipse cx="33" cy="254.8428" fill="#84BE84" rx="3" ry="3" style="stroke: #038048; stroke-width: 1.0;"/><text fill="#000000" font-family="sans-serif" font-size="11" lengthAdjust="spacingAndGlyphs" textLength="304" x="42" y="257.5">withImageCollector(ImageCollector): CannyEdgeDetector</text><ellipse cx="33" cy="267.7979" fill="#84BE84" rx="3" ry="3" style="stroke: #038048; stroke-width: 1.0;"/><text fill="#000000" font-family="sans-serif" font-size="11" lengthAdjust="spacingAndGlyphs" textLength="85" x="42" y="270.4551">detect(Mat): Mat</text></a><!--class nl.vaneijndhoven.opencv.edgedectection.CannyEdgeDetector.Config--><a href="CannyEdgeDetector.Config.html" target="_top" xlink:actuate="onRequest" xlink:show="new" xlink:title="CannyEdgeDetector.Config.html" xlink:type="simple"><rect fill="#FEFECE" filter="url(#fbktg2stfjebb)" height="125.7305" id="nl.vaneijndhoven.opencv.edgedectection.CannyEdgeDetector.Config" style="stroke: #A80036; stroke-width: 1.5;" width="185" x="94.5" y="337"/><ellipse cx="109.5" cy="353" fill="#ADD1B2" rx="11" ry="11" style="stroke: #A80036; stroke-width: 1.0;"/><path d="M112.4731,358.6431 Q111.8921,358.9419 111.2529,359.0913 Q110.6138,359.2407 109.9082,359.2407 Q107.4014,359.2407 106.0815,357.5889 Q104.7617,355.937 104.7617,352.8159 Q104.7617,349.6865 106.0815,348.0347 Q107.4014,346.3828 109.9082,346.3828 Q110.6138,346.3828 111.2612,346.5322 Q111.9087,346.6816 112.4731,346.9805 L112.4731,349.7031 Q111.8423,349.1221 111.2488,348.8523 Q110.6553,348.5825 110.0244,348.5825 Q108.6797,348.5825 107.9949,349.6492 Q107.3101,350.7158 107.3101,352.8159 Q107.3101,354.9077 107.9949,355.9744 Q108.6797,357.041 110.0244,357.041 Q110.6553,357.041 111.2488,356.7712 Q111.8423,356.5015 112.4731,355.9204 Z "/><text fill="#000000" font-family="sans-serif" font-size="12" lengthAdjust="spacingAndGlyphs" textLength="153" x="123.5" y="357.5352">CannyEdgeDetector.Config</text><line style="stroke: #A80036; stroke-width: 1.5;" x1="95.5" x2="278.5" y1="369" y2="369"/><line style="stroke: #A80036; stroke-width: 1.5;" x1="95.5" x2="278.5" y1="377" y2="377"/><ellipse cx="105.5" cy="388.9775" fill="#84BE84" rx="3" ry="3" style="stroke: #038048; stroke-width: 1.0;"/><text fill="#000000" font-family="sans-serif" font-size="11" lengthAdjust="spacingAndGlyphs" textLength="152" x="114.5" y="391.6348">setThreshold1(double): void</text><ellipse cx="105.5" cy="401.9326" fill="#84BE84" rx="3" ry="3" style="stroke: #038048; stroke-width: 1.0;"/><text fill="#000000" font-family="sans-serif" font-size="11" lengthAdjust="spacingAndGlyphs" textLength="152" x="114.5" y="404.5898">setThreshold2(double): void</text><ellipse cx="105.5" cy="414.8877" fill="#84BE84" rx="3" ry="3" style="stroke: #038048; stroke-width: 1.0;"/><text fill="#000000" font-family="sans-serif" font-size="11" lengthAdjust="spacingAndGlyphs" textLength="130" x="114.5" y="417.5449">getThreshold1(): double</text><ellipse cx="105.5" cy="427.8428" fill="#84BE84" rx="3" ry="3" style="stroke: #038048; stroke-width: 1.0;"/><text fill="#000000" font-family="sans-serif" font-size="11" lengthAdjust="spacingAndGlyphs" textLength="130" x="114.5" y="430.5">getThreshold2(): double</text><ellipse cx="105.5" cy="440.7979" fill="#84BE84" rx="3" ry="3" style="stroke: #038048; stroke-width: 1.0;"/><text fill="#000000" font-family="sans-serif" font-size="11" lengthAdjust="spacingAndGlyphs" textLength="114" x="114.5" y="443.4551">getApertureSize(): int</text><ellipse cx="105.5" cy="453.7529" fill="#84BE84" rx="3" ry="3" style="stroke: #038048; stroke-width: 1.0;"/><text fill="#000000" font-family="sans-serif" font-size="11" lengthAdjust="spacingAndGlyphs" textLength="132" x="114.5" y="456.4102">getL2gradient(): boolean</text></a><!--class nl.vaneijndhoven.opencv.edgedectection.SobelEdgeDetector--><a href="SobelEdgeDetector.html" target="_top" xlink:actuate="onRequest" xlink:show="new" xlink:title="SobelEdgeDetector.html" xlink:type="simple"><rect fill="#FEFECE" filter="url(#fbktg2stfjebb)" height="86.8652" id="nl.vaneijndhoven.opencv.edgedectection.SobelEdgeDetector" style="stroke: #A80036; stroke-width: 1.5;" width="189" x="387.5" y="177"/><ellipse cx="424.1" cy="193" fill="#ADD1B2" rx="11" ry="11" style="stroke: #A80036; stroke-width: 1.0;"/><path d="M427.0731,198.6431 Q426.4921,198.9419 425.8529,199.0913 Q425.2138,199.2407 424.5082,199.2407 Q422.0014,199.2407 420.6815,197.5889 Q419.3617,195.937 419.3617,192.8159 Q419.3617,189.6865 420.6815,188.0347 Q422.0014,186.3828 424.5082,186.3828 Q425.2138,186.3828 425.8612,186.5322 Q426.5087,186.6816 427.0731,186.9805 L427.0731,189.7031 Q426.4423,189.1221 425.8488,188.8523 Q425.2553,188.5825 424.6244,188.5825 Q423.2797,188.5825 422.5949,189.6492 Q421.9101,190.7158 421.9101,192.8159 Q421.9101,194.9077 422.5949,195.9744 Q423.2797,197.041 424.6244,197.041 Q425.2553,197.041 425.8488,196.7712 Q426.4423,196.5015 427.0731,195.9204 Z "/><text fill="#000000" font-family="sans-serif" font-size="12" lengthAdjust="spacingAndGlyphs" textLength="109" x="442.9" y="197.5352">SobelEdgeDetector</text><line style="stroke: #A80036; stroke-width: 1.5;" x1="388.5" x2="575.5" y1="209" y2="209"/><line style="stroke: #A80036; stroke-width: 1.5;" x1="388.5" x2="575.5" y1="217" y2="217"/><ellipse cx="398.5" cy="228.9775" fill="#84BE84" rx="3" ry="3" style="stroke: #038048; stroke-width: 1.0;"/><text fill="#000000" font-family="sans-serif" font-size="11" lengthAdjust="spacingAndGlyphs" textLength="109" x="407.5" y="231.6348">SobelEdgeDetector()</text><ellipse cx="398.5" cy="241.9326" fill="#84BE84" rx="3" ry="3" style="stroke: #038048; stroke-width: 1.0;"/><text fill="#000000" font-family="sans-serif" font-size="11" lengthAdjust="spacingAndGlyphs" textLength="163" x="407.5" y="244.5898">SobelEdgeDetector(int, int, int)</text><ellipse cx="398.5" cy="254.8877" fill="#84BE84" rx="3" ry="3" style="stroke: #038048; stroke-width: 1.0;"/><text fill="#000000" font-family="sans-serif" font-size="11" lengthAdjust="spacingAndGlyphs" textLength="85" x="407.5" y="257.5449">detect(Mat): Mat</text></a><!--class nl.vaneijndhoven.opencv.edgedectection.WatershedEdgeDetector--><a href="WatershedEdgeDetector.html" target="_top" xlink:actuate="onRequest" xlink:show="new" xlink:title="WatershedEdgeDetector.html" xlink:type="simple"><rect fill="#FEFECE" filter="url(#fbktg2stfjebb)" height="86.8652" id="nl.vaneijndhoven.opencv.edgedectection.WatershedEdgeDetector" style="stroke: #A80036; stroke-width: 1.5;" width="348" x="612" y="177"/><ellipse cx="712.25" cy="193" fill="#ADD1B2" rx="11" ry="11" style="stroke: #A80036; stroke-width: 1.0;"/><path d="M715.2231,198.6431 Q714.6421,198.9419 714.0029,199.0913 Q713.3638,199.2407 712.6582,199.2407 Q710.1514,199.2407 708.8315,197.5889 Q707.5117,195.937 707.5117,192.8159 Q707.5117,189.6865 708.8315,188.0347 Q710.1514,186.3828 712.6582,186.3828 Q713.3638,186.3828 714.0112,186.5322 Q714.6587,186.6816 715.2231,186.9805 L715.2231,189.7031 Q714.5923,189.1221 713.9988,188.8523 Q713.4053,188.5825 712.7744,188.5825 Q711.4297,188.5825 710.7449,189.6492 Q710.0601,190.7158 710.0601,192.8159 Q710.0601,194.9077 710.7449,195.9744 Q711.4297,197.041 712.7744,197.041 Q713.4053,197.041 713.9988,196.7712 Q714.5923,196.5015 715.2231,195.9204 Z "/><text fill="#000000" font-family="sans-serif" font-size="12" lengthAdjust="spacingAndGlyphs" textLength="139" x="732.75" y="197.5352">WatershedEdgeDetector</text><line style="stroke: #A80036; stroke-width: 1.5;" x1="613" x2="959" y1="209" y2="209"/><line style="stroke: #A80036; stroke-width: 1.5;" x1="613" x2="959" y1="217" y2="217"/><ellipse cx="623" cy="228.9775" fill="#84BE84" rx="3" ry="3" style="stroke: #038048; stroke-width: 1.0;"/><text fill="#000000" font-family="sans-serif" font-size="11" lengthAdjust="spacingAndGlyphs" textLength="136" x="632" y="231.6348">WatershedEdgeDetector()</text><ellipse cx="623" cy="241.9326" fill="#84BE84" rx="3" ry="3" style="stroke: #038048; stroke-width: 1.0;"/><text fill="#000000" font-family="sans-serif" font-size="11" lengthAdjust="spacingAndGlyphs" textLength="322" x="632" y="244.5898">WatershedEdgeDetector(double, double, int, double, double)</text><ellipse cx="623" cy="254.8877" fill="#84BE84" rx="3" ry="3" style="stroke: #038048; stroke-width: 1.0;"/><text fill="#000000" font-family="sans-serif" font-size="11" lengthAdjust="spacingAndGlyphs" textLength="85" x="632" y="257.5449">detect(Mat): Mat</text></a><!--class nl.vaneijndhoven.opencv.edgedectection.EdgeDetector--><a href="EdgeDetector.html" target="_top" xlink:actuate="onRequest" xlink:show="new" xlink:title="EdgeDetector.html" xlink:type="simple"><rect fill="#FEFECE" filter="url(#fbktg2stfjebb)" height="60.9551" id="nl.vaneijndhoven.opencv.edgedectection.EdgeDetector" style="stroke: #A80036; stroke-width: 1.5;" width="111" x="426.5" y="43"/><ellipse cx="441.95" cy="59" fill="#B4A7E5" rx="11" ry="11" style="stroke: #A80036; stroke-width: 1.0;"/><path d="M437.8777,54.7651 L437.8777,52.6069 L445.2571,52.6069 L445.2571,54.7651 L442.7918,54.7651 L442.7918,62.8418 L445.2571,62.8418 L445.2571,65 L437.8777,65 L437.8777,62.8418 L440.3431,62.8418 L440.3431,54.7651 Z "/><text fill="#000000" font-family="sans-serif" font-size="12" font-style="italic" lengthAdjust="spacingAndGlyphs" textLength="78" x="456.05" y="63.5352">EdgeDetector</text><line style="stroke: #A80036; stroke-width: 1.5;" x1="427.5" x2="536.5" y1="75" y2="75"/><line style="stroke: #A80036; stroke-width: 1.5;" x1="427.5" x2="536.5" y1="83" y2="83"/><ellipse cx="437.5" cy="94.9775" fill="#84BE84" rx="3" ry="3" style="stroke: #038048; stroke-width: 1.0;"/><text fill="#000000" font-family="sans-serif" font-size="11" font-style="italic" lengthAdjust="spacingAndGlyphs" textLength="85" x="446.5" y="97.6348">detect(Mat): Mat</text></a><!--link nl.vaneijndhoven.opencv.edgedectection.EdgeDetector to nl.vaneijndhoven.opencv.edgedectection.CannyEdgeDetector--><path d="M407.863,110.4428 C375.4115,126.6136 336.6038,145.9517 300.636,163.8746 " fill="none" id="nl.vaneijndhoven.opencv.edgedectection.EdgeDetector-nl.vaneijndhoven.opencv.edgedectection.CannyEdgeDetector" style="stroke: #A80036; stroke-width: 1.0; stroke-dasharray: 7.0,7.0;"/><polygon fill="none" points="405.1433,103.9772,426.1659,101.3224,411.3873,116.5077,405.1433,103.9772" style="stroke: #A80036; stroke-width: 1.0;"/><!--link nl.vaneijndhoven.opencv.edgedectection.CannyEdgeDetector to nl.vaneijndhoven.opencv.edgedectection.CannyEdgeDetector.Config--><path d="M187,292.7578 C187,307.3091 187,322.4985 187,336.715 " fill="none" id="nl.vaneijndhoven.opencv.edgedectection.CannyEdgeDetector-nl.vaneijndhoven.opencv.edgedectection.CannyEdgeDetector.Config" style="stroke: #A80036; stroke-width: 1.0;"/><ellipse cx="187.0001" cy="285.2949" fill="#FFFFFF" rx="8" ry="8" style="stroke: #A80036; stroke-width: 1.0;"/><line style="stroke: #A80036; stroke-width: 1.0;" x1="187.0002" x2="187" y1="293.2949" y2="277.2949"/><line style="stroke: #A80036; stroke-width: 1.0;" x1="179.0001" x2="195.0001" y1="285.295" y2="285.2948"/><!--link nl.vaneijndhoven.opencv.edgedectection.EdgeDetector to nl.vaneijndhoven.opencv.edgedectection.SobelEdgeDetector--><path d="M482,124.3532 C482,141.4669 482,160.396 482,176.9003 " fill="none" id="nl.vaneijndhoven.opencv.edgedectection.EdgeDetector-nl.vaneijndhoven.opencv.edgedectection.SobelEdgeDetector" style="stroke: #A80036; stroke-width: 1.0; stroke-dasharray: 7.0,7.0;"/><polygon fill="none" points="475.0001,124.3161,482,104.316,489.0001,124.316,475.0001,124.3161" style="stroke: #A80036; stroke-width: 1.0;"/><!--link nl.vaneijndhoven.opencv.edgedectection.EdgeDetector to nl.vaneijndhoven.opencv.edgedectection.WatershedEdgeDetector--><path d="M556.0013,109.2835 C598.1942,129.686 651.3856,155.4069 695.9854,176.9732 " fill="none" id="nl.vaneijndhoven.opencv.edgedectection.EdgeDetector-nl.vaneijndhoven.opencv.edgedectection.WatershedEdgeDetector" style="stroke: #A80036; stroke-width: 1.0; stroke-dasharray: 7.0,7.0;"/><polygon fill="none" points="552.7164,115.4706,537.7583,100.4621,558.811,102.8668,552.7164,115.4706" style="stroke: #A80036; stroke-width: 1.0;"/><text fill="#888888" font-family="sans-serif" font-size="10" lengthAdjust="spacingAndGlyphs" textLength="182" x="406" y="498.668">UMLDoclet 1.1.4, PlantUML 1.2019.05</text><!--
@startuml

    namespace nl.vaneijndhoven.opencv.edgedectection {

        class CannyEdgeDetector [[CannyEdgeDetector.html]] {
            +CannyEdgeDetector()
            +CannyEdgeDetector(double, double, int, boolean)
            +CannyEdgeDetector(CannyEdgeDetector.Config)
            +withImageCollector(ImageCollector): CannyEdgeDetector
            +detect(Mat): Mat
        }

        class nl.vaneijndhoven.opencv.edgedectection.CannyEdgeDetector.Config [[CannyEdgeDetector.Config.html]] {
            +setThreshold1(double): void
            +setThreshold2(double): void
            +getThreshold1(): double
            +getThreshold2(): double
            +getApertureSize(): int
            +getL2gradient(): boolean
        }

        class SobelEdgeDetector [[SobelEdgeDetector.html]] {
            +SobelEdgeDetector()
            +SobelEdgeDetector(int, int, int)
            +detect(Mat): Mat
        }

        class WatershedEdgeDetector [[WatershedEdgeDetector.html]] {
            +WatershedEdgeDetector()
            +WatershedEdgeDetector(double, double, int, double, double)
            +detect(Mat): Mat
        }

        interface EdgeDetector [[EdgeDetector.html]] {
            {abstract} +detect(Mat): Mat
        }

        EdgeDetector <|.. CannyEdgeDetector

        CannyEdgeDetector +- - nl.vaneijndhoven.opencv.edgedectection.CannyEdgeDetector.Config

        EdgeDetector <|.. SobelEdgeDetector

        EdgeDetector <|.. WatershedEdgeDetector

    }


    center footer UMLDoclet 1.1.4, PlantUML 1.2019.05
@enduml

PlantUML version 1.2019.05(Sat Apr 20 18:45:36 CEST 2019)
(APACHE source distribution)
Java Runtime: Java(TM) SE Runtime Environment
JVM: Java HotSpot(TM) 64-Bit Server VM
Java Version: 1.8.0_152-b16
Operating System: Mac OS X
OS Version: 10.13.6
Default Encoding: UTF-8
Language: de
Country: DE
--></g></svg>