<?xml version="1.0" encoding="UTF-8" standalone="no"?><svg xmlns="http://www.w3.org/2000/svg" xmlns:xlink="http://www.w3.org/1999/xlink" contentScriptType="application/ecmascript" contentStyleType="text/css" height="283px" preserveAspectRatio="none" style="width:286px;height:283px;" version="1.1" viewBox="0 0 286 283" width="286px" zoomAndPan="magnify"><defs><filter height="300%" id="f18n6xki1rmois" width="300%" x="-1" y="-1"><feGaussianBlur result="blurOut" stdDeviation="2.0"/><feColorMatrix in="blurOut" result="blurOut2" type="matrix" values="0 0 0 0 0 0 0 0 0 0 0 0 0 0 0 0 0 0 .4 0"/><feOffset dx="4.0" dy="4.0" in="blurOut2" result="blurOut3"/><feBlend in="SourceGraphic" in2="blurOut3" mode="normal"/></filter></defs><g><!--class LaneOrientation--><a href="LaneOrientation.html" target="_top" xlink:actuate="onRequest" xlink:show="new" xlink:title="LaneOrientation.html" xlink:type="simple"><rect fill="#FEFECE" filter="url(#f18n6xki1rmois)" height="242.3262" id="LaneOrientation" style="stroke: #A80036; stroke-width: 1.5;" width="269" x="6" y="8"/><ellipse cx="91.25" cy="24" fill="#ADD1B2" rx="11" ry="11" style="stroke: #A80036; stroke-width: 1.0;"/><path d="M94.2231,29.6431 Q93.6421,29.9419 93.0029,30.0913 Q92.3638,30.2407 91.6582,30.2407 Q89.1514,30.2407 87.8315,28.5889 Q86.5117,26.937 86.5117,23.8159 Q86.5117,20.6865 87.8315,19.0347 Q89.1514,17.3828 91.6582,17.3828 Q92.3638,17.3828 93.0112,17.5322 Q93.6587,17.6816 94.2231,17.9805 L94.2231,20.7031 Q93.5923,20.1221 92.9988,19.8523 Q92.4053,19.5825 91.7744,19.5825 Q90.4297,19.5825 89.7449,20.6492 Q89.0601,21.7158 89.0601,23.8159 Q89.0601,25.9077 89.7449,26.9744 Q90.4297,28.041 91.7744,28.041 Q92.4053,28.041 92.9988,27.7712 Q93.5923,27.5015 94.2231,26.9204 Z "/><text fill="#000000" font-family="sans-serif" font-size="12" lengthAdjust="spacingAndGlyphs" textLength="90" x="111.75" y="28.5352">LaneOrientation</text><line style="stroke: #A80036; stroke-width: 1.5;" x1="7" x2="274" y1="40" y2="40"/><line style="stroke: #A80036; stroke-width: 1.5;" x1="7" x2="274" y1="48" y2="48"/><ellipse cx="17" cy="59.9775" fill="#84BE84" rx="3" ry="3" style="stroke: #038048; stroke-width: 1.0;"/><text fill="#000000" font-family="sans-serif" font-size="11" lengthAdjust="spacingAndGlyphs" textLength="171" x="26" y="62.6348">LaneOrientation(Lane, ViewPort)</text><ellipse cx="17" cy="72.9326" fill="#84BE84" rx="3" ry="3" style="stroke: #038048; stroke-width: 1.0;"/><text fill="#000000" font-family="sans-serif" font-size="11" lengthAdjust="spacingAndGlyphs" textLength="119" x="26" y="75.5898">determineLines(): void</text><ellipse cx="17" cy="85.8877" fill="#84BE84" rx="3" ry="3" style="stroke: #038048; stroke-width: 1.0;"/><text fill="#000000" font-family="sans-serif" font-size="11" lengthAdjust="spacingAndGlyphs" textLength="89" x="26" y="88.5449">getLines(): Line[]</text><ellipse cx="17" cy="98.8428" fill="#84BE84" rx="3" ry="3" style="stroke: #038048; stroke-width: 1.0;"/><text fill="#000000" font-family="sans-serif" font-size="11" lengthAdjust="spacingAndGlyphs" textLength="195" x="26" y="101.5">distanceFromLeftBoundary(): double</text><ellipse cx="17" cy="111.7979" fill="#84BE84" rx="3" ry="3" style="stroke: #038048; stroke-width: 1.0;"/><text fill="#000000" font-family="sans-serif" font-size="11" lengthAdjust="spacingAndGlyphs" textLength="203" x="26" y="114.4551">distanceFromRightBoundary(): double</text><ellipse cx="17" cy="124.7529" fill="#84BE84" rx="3" ry="3" style="stroke: #038048; stroke-width: 1.0;"/><text fill="#000000" font-family="sans-serif" font-size="11" lengthAdjust="spacingAndGlyphs" textLength="200" x="26" y="127.4102">determineDistanceToMiddle(): double</text><ellipse cx="17" cy="137.708" fill="#84BE84" rx="3" ry="3" style="stroke: #038048; stroke-width: 1.0;"/><text fill="#000000" font-family="sans-serif" font-size="11" lengthAdjust="spacingAndGlyphs" textLength="243" x="26" y="140.3652">determineCourseRelativeToHorizon(): Double</text><ellipse cx="17" cy="150.6631" fill="#84BE84" rx="3" ry="3" style="stroke: #038048; stroke-width: 1.0;"/><text fill="#000000" font-family="sans-serif" font-size="11" lengthAdjust="spacingAndGlyphs" textLength="214" x="26" y="153.3203">determineLaneMiddle(): Optional&lt;Line&gt;</text><ellipse cx="17" cy="163.6182" fill="#84BE84" rx="3" ry="3" style="stroke: #038048; stroke-width: 1.0;"/><text fill="#000000" font-family="sans-serif" font-size="11" lengthAdjust="spacingAndGlyphs" textLength="178" x="26" y="166.2754">determineBase(): Optional&lt;Line&gt;</text><ellipse cx="17" cy="176.5732" fill="#84BE84" rx="3" ry="3" style="stroke: #038048; stroke-width: 1.0;"/><text fill="#000000" font-family="sans-serif" font-size="11" lengthAdjust="spacingAndGlyphs" textLength="88" x="26" y="179.2305">getMiddle(): Line</text><ellipse cx="17" cy="189.5283" fill="#84BE84" rx="3" ry="3" style="stroke: #038048; stroke-width: 1.0;"/><text fill="#000000" font-family="sans-serif" font-size="11" lengthAdjust="spacingAndGlyphs" textLength="110" x="26" y="192.1855">setMiddle(Line): void</text><ellipse cx="17" cy="202.4834" fill="#84BE84" rx="3" ry="3" style="stroke: #038048; stroke-width: 1.0;"/><text fill="#000000" font-family="sans-serif" font-size="11" lengthAdjust="spacingAndGlyphs" textLength="73" x="26" y="205.1406">getLeft(): Line</text><ellipse cx="17" cy="215.4385" fill="#84BE84" rx="3" ry="3" style="stroke: #038048; stroke-width: 1.0;"/><text fill="#000000" font-family="sans-serif" font-size="11" lengthAdjust="spacingAndGlyphs" textLength="95" x="26" y="218.0957">setLeft(Line): void</text><ellipse cx="17" cy="228.3936" fill="#84BE84" rx="3" ry="3" style="stroke: #038048; stroke-width: 1.0;"/><text fill="#000000" font-family="sans-serif" font-size="11" lengthAdjust="spacingAndGlyphs" textLength="81" x="26" y="231.0508">getRight(): Line</text><ellipse cx="17" cy="241.3486" fill="#84BE84" rx="3" ry="3" style="stroke: #038048; stroke-width: 1.0;"/><text fill="#000000" font-family="sans-serif" font-size="11" lengthAdjust="spacingAndGlyphs" textLength="103" x="26" y="244.0059">setRight(Line): void</text></a><text fill="#888888" font-family="sans-serif" font-size="10" lengthAdjust="spacingAndGlyphs" textLength="182" x="55.5" y="269.668">UMLDoclet 1.1.4, PlantUML 1.2019.05</text><!--
@startuml

    class LaneOrientation [[LaneOrientation.html]] {
        +LaneOrientation(Lane, ViewPort)
        +determineLines(): void
        +getLines(): Line[]
        +distanceFromLeftBoundary(): double
        +distanceFromRightBoundary(): double
        +determineDistanceToMiddle(): double
        +determineCourseRelativeToHorizon(): Double
        +determineLaneMiddle(): Optional<Line>
        +determineBase(): Optional<Line>
        +getMiddle(): Line
        +setMiddle(Line): void
        +getLeft(): Line
        +setLeft(Line): void
        +getRight(): Line
        +setRight(Line): void
    }


    center footer UMLDoclet 1.1.4, PlantUML 1.2019.05
@enduml

PlantUML version 1.2019.05(Sat Apr 20 18:45:36 CEST 2019)
(APACHE source distribution)
Java Runtime: Java(TM) SE Runtime Environment
JVM: Java HotSpot(TM) 64-Bit Server VM
Java Version: 1.8.0_152-b16
Operating System: Mac OS X
OS Version: 10.13.6
Default Encoding: UTF-8
Language: de
Country: DE
--></g></svg>