<?xml version="1.0" encoding="UTF-8" standalone="no"?><svg xmlns="http://www.w3.org/2000/svg" xmlns:xlink="http://www.w3.org/1999/xlink" contentScriptType="application/ecmascript" contentStyleType="text/css" height="257px" preserveAspectRatio="none" style="width:404px;height:257px;" version="1.1" viewBox="0 0 404 257" width="404px" zoomAndPan="magnify"><defs><filter height="300%" id="f1lf7wktsnreon" width="300%" x="-1" y="-1"><feGaussianBlur result="blurOut" stdDeviation="2.0"/><feColorMatrix in="blurOut" result="blurOut2" type="matrix" values="0 0 0 0 0 0 0 0 0 0 0 0 0 0 0 0 0 0 .4 0"/><feOffset dx="4.0" dy="4.0" in="blurOut2" result="blurOut3"/><feBlend in="SourceGraphic" in2="blurOut3" mode="normal"/></filter></defs><g><!--class ImageCollector--><a href="ImageCollector.html" target="_top" xlink:actuate="onRequest" xlink:show="new" xlink:title="ImageCollector.html" xlink:type="simple"><rect fill="#FEFECE" filter="url(#f1lf7wktsnreon)" height="216.416" id="ImageCollector" style="stroke: #A80036; stroke-width: 1.5;" width="387" x="6" y="8"/><ellipse cx="152.75" cy="24" fill="#ADD1B2" rx="11" ry="11" style="stroke: #A80036; stroke-width: 1.0;"/><path d="M155.7231,29.6431 Q155.1421,29.9419 154.5029,30.0913 Q153.8638,30.2407 153.1582,30.2407 Q150.6514,30.2407 149.3315,28.5889 Q148.0117,26.937 148.0117,23.8159 Q148.0117,20.6865 149.3315,19.0347 Q150.6514,17.3828 153.1582,17.3828 Q153.8638,17.3828 154.5112,17.5322 Q155.1587,17.6816 155.7231,17.9805 L155.7231,20.7031 Q155.0923,20.1221 154.4988,19.8523 Q153.9053,19.5825 153.2744,19.5825 Q151.9297,19.5825 151.2449,20.6492 Q150.5601,21.7158 150.5601,23.8159 Q150.5601,25.9077 151.2449,26.9744 Q151.9297,28.041 153.2744,28.041 Q153.9053,28.041 154.4988,27.7712 Q155.0923,27.5015 155.7231,26.9204 Z "/><text fill="#000000" font-family="sans-serif" font-size="12" lengthAdjust="spacingAndGlyphs" textLength="85" x="173.25" y="28.5352">ImageCollector</text><line style="stroke: #A80036; stroke-width: 1.5;" x1="7" x2="392" y1="40" y2="40"/><polygon fill="none" points="17,46.9775,21,50.9775,17,54.9775,13,50.9775" style="stroke: #B38D22; stroke-width: 1.0;"/><text fill="#000000" font-family="sans-serif" font-size="11" lengthAdjust="spacingAndGlyphs" text-decoration="underline" textLength="67" x="26" y="54.6348">LOG: Logger</text><ellipse cx="17" cy="64.9326" fill="none" rx="3" ry="3" style="stroke: #038048; stroke-width: 1.0;"/><text fill="#000000" font-family="sans-serif" font-size="11" lengthAdjust="spacingAndGlyphs" text-decoration="underline" textLength="127" x="26" y="67.5898">testImagePaths: String[]</text><line style="stroke: #A80036; stroke-width: 1.5;" x1="7" x2="392" y1="73.9102" y2="73.9102"/><ellipse cx="17" cy="85.8877" fill="#84BE84" rx="3" ry="3" style="stroke: #038048; stroke-width: 1.0;"/><text fill="#000000" font-family="sans-serif" font-size="11" lengthAdjust="spacingAndGlyphs" textLength="89" x="26" y="88.5449">ImageCollector()</text><ellipse cx="17" cy="98.8428" fill="#84BE84" rx="3" ry="3" style="stroke: #038048; stroke-width: 1.0;"/><text fill="#000000" font-family="sans-serif" font-size="11" lengthAdjust="spacingAndGlyphs" textLength="170" x="26" y="101.5">ImageCollector(String, boolean)</text><ellipse cx="17" cy="111.7979" fill="#84BE84" rx="3" ry="3" style="stroke: #038048; stroke-width: 1.0;"/><text fill="#000000" font-family="sans-serif" font-size="11" lengthAdjust="spacingAndGlyphs" textLength="260" x="26" y="114.4551">getTestImage(ImageCollector.ImageType): Image</text><ellipse cx="17" cy="124.7529" fill="#84BE84" rx="3" ry="3" style="stroke: #038048; stroke-width: 1.0;"/><text fill="#000000" font-family="sans-serif" font-size="11" lengthAdjust="spacingAndGlyphs" textLength="278" x="26" y="127.4102">createImage(Mat, ImageCollector.ImageType): Image</text><ellipse cx="17" cy="137.708" fill="#84BE84" rx="3" ry="3" style="stroke: #038048; stroke-width: 1.0;"/><text fill="#000000" font-family="sans-serif" font-size="11" lengthAdjust="spacingAndGlyphs" textLength="265" x="26" y="140.3652">addImage(Mat, ImageCollector.ImageType): Image</text><ellipse cx="17" cy="150.6631" fill="#84BE84" rx="3" ry="3" style="stroke: #038048; stroke-width: 1.0;"/><text fill="#000000" font-family="sans-serif" font-size="11" lengthAdjust="spacingAndGlyphs" textLength="278" x="26" y="153.3203">addImage(Image, ImageCollector.ImageType): Image</text><polygon fill="#FFFF44" points="17,158.6182,21,162.6182,17,166.6182,13,162.6182" style="stroke: #B38D22; stroke-width: 1.0;"/><text fill="#000000" font-family="sans-serif" font-size="11" lengthAdjust="spacingAndGlyphs" textLength="289" x="26" y="166.2754">getImages(): Map&lt;ImageCollector.ImageType, Image&gt;</text><ellipse cx="17" cy="176.5732" fill="#84BE84" rx="3" ry="3" style="stroke: #038048; stroke-width: 1.0;"/><text fill="#000000" font-family="sans-serif" font-size="11" lengthAdjust="spacingAndGlyphs" textLength="286" x="26" y="179.2305">getImage(ImageCollector.ImageType, boolean): Image</text><ellipse cx="17" cy="189.5283" fill="#84BE84" rx="3" ry="3" style="stroke: #038048; stroke-width: 1.0;"/><text fill="#000000" font-family="sans-serif" font-size="11" lengthAdjust="spacingAndGlyphs" textLength="361" x="26" y="192.1855">createObservable(ImageCollector.ImageType): Observable&lt;Image&gt;</text><ellipse cx="17" cy="202.4834" fill="#84BE84" rx="3" ry="3" style="stroke: #038048; stroke-width: 1.0;"/><text fill="#000000" font-family="sans-serif" font-size="11" lengthAdjust="spacingAndGlyphs" textLength="101" x="26" y="205.1406">writeImages(): void</text><ellipse cx="17" cy="215.4385" fill="#84BE84" rx="3" ry="3" style="stroke: #038048; stroke-width: 1.0;"/><text fill="#000000" font-family="sans-serif" font-size="11" lengthAdjust="spacingAndGlyphs" textLength="142" x="26" y="218.0957">addImageInfo(String): void</text></a><text fill="#888888" font-family="sans-serif" font-size="10" lengthAdjust="spacingAndGlyphs" textLength="182" x="114.5" y="243.668">UMLDoclet 1.1.4, PlantUML 1.2019.05</text><!--
@startuml

    class ImageCollector [[ImageCollector.html]] {
        {static} #LOG: Logger
        {static} +testImagePaths: String[]
        +ImageCollector()
        +ImageCollector(String, boolean)
        +getTestImage(ImageCollector.ImageType): Image
        +createImage(Mat, ImageCollector.ImageType): Image
        +addImage(Mat, ImageCollector.ImageType): Image
        +addImage(Image, ImageCollector.ImageType): Image
        #getImages(): Map<ImageCollector.ImageType, Image>
        +getImage(ImageCollector.ImageType, boolean): Image
        +createObservable(ImageCollector.ImageType): Observable<Image>
        +writeImages(): void
        +addImageInfo(String): void
    }


    center footer UMLDoclet 1.1.4, PlantUML 1.2019.05
@enduml

PlantUML version 1.2019.05(Sat Apr 20 18:45:36 CEST 2019)
(APACHE source distribution)
Java Runtime: Java(TM) SE Runtime Environment
JVM: Java HotSpot(TM) 64-Bit Server VM
Java Version: 1.8.0_152-b16
Operating System: Mac OS X
OS Version: 10.13.6
Default Encoding: UTF-8
Language: de
Country: DE
--></g></svg>