<?xml version="1.0" encoding="UTF-8" standalone="no"?><svg xmlns="http://www.w3.org/2000/svg" xmlns:xlink="http://www.w3.org/1999/xlink" contentScriptType="application/ecmascript" contentStyleType="text/css" height="231px" preserveAspectRatio="none" style="width:194px;height:231px;" version="1.1" viewBox="0 0 194 231" width="194px" zoomAndPan="magnify"><defs><filter height="300%" id="ftsvftgrb7twc" width="300%" x="-1" y="-1"><feGaussianBlur result="blurOut" stdDeviation="2.0"/><feColorMatrix in="blurOut" result="blurOut2" type="matrix" values="0 0 0 0 0 0 0 0 0 0 0 0 0 0 0 0 0 0 .4 0"/><feOffset dx="4.0" dy="4.0" in="blurOut2" result="blurOut3"/><feBlend in="SourceGraphic" in2="blurOut3" mode="normal"/></filter></defs><g><!--cluster ImageUtils--><polygon fill="#FFFFFF" filter="url(#ftsvftgrb7twc)" points="14,16,98,16,105,38.4883,156,38.4883,156,190,14,190,14,16" style="stroke: #000000; stroke-width: 1.5;"/><line style="stroke: #000000; stroke-width: 1.5;" x1="14" x2="105" y1="38.4883" y2="38.4883"/><text fill="#000000" font-family="sans-serif" font-size="14" font-weight="bold" lengthAdjust="spacingAndGlyphs" textLength="78" x="18" y="31.5352">ImageUtils</text><!--class ImageUtils.CVColor--><a href="ImageUtils.CVColor.html" target="_top" xlink:actuate="onRequest" xlink:show="new" xlink:title="ImageUtils.CVColor.html" xlink:type="simple"><rect fill="#FEFECE" filter="url(#ftsvftgrb7twc)" height="138.6855" id="ImageUtils.CVColor" style="stroke: #A80036; stroke-width: 1.5;" width="126" x="22" y="43"/><ellipse cx="58.6" cy="59" fill="#ADD1B2" rx="11" ry="11" style="stroke: #A80036; stroke-width: 1.0;"/><path d="M61.5731,64.6431 Q60.9921,64.9419 60.3529,65.0913 Q59.7138,65.2407 59.0082,65.2407 Q56.5014,65.2407 55.1815,63.5889 Q53.8617,61.937 53.8617,58.8159 Q53.8617,55.6865 55.1815,54.0347 Q56.5014,52.3828 59.0082,52.3828 Q59.7138,52.3828 60.3612,52.5322 Q61.0087,52.6816 61.5731,52.9805 L61.5731,55.7031 Q60.9423,55.1221 60.3488,54.8523 Q59.7553,54.5825 59.1244,54.5825 Q57.7797,54.5825 57.0949,55.6492 Q56.4101,56.7158 56.4101,58.8159 Q56.4101,60.9077 57.0949,61.9744 Q57.7797,63.041 59.1244,63.041 Q59.7553,63.041 60.3488,62.7712 Q60.9423,62.5015 61.5731,61.9204 Z "/><text fill="#000000" font-family="sans-serif" font-size="12" lengthAdjust="spacingAndGlyphs" textLength="46" x="77.4" y="63.5352">CVColor</text><line style="stroke: #A80036; stroke-width: 1.5;" x1="23" x2="147" y1="75" y2="75"/><ellipse cx="33" cy="86.9775" fill="none" rx="3" ry="3" style="stroke: #038048; stroke-width: 1.0;"/><text fill="#000000" font-family="sans-serif" font-size="11" lengthAdjust="spacingAndGlyphs" text-decoration="underline" textLength="56" x="42" y="89.6348">red: Scalar</text><ellipse cx="33" cy="99.9326" fill="none" rx="3" ry="3" style="stroke: #038048; stroke-width: 1.0;"/><text fill="#000000" font-family="sans-serif" font-size="11" lengthAdjust="spacingAndGlyphs" text-decoration="underline" textLength="93" x="42" y="102.5898">lightgreen: Scalar</text><ellipse cx="33" cy="112.8877" fill="none" rx="3" ry="3" style="stroke: #038048; stroke-width: 1.0;"/><text fill="#000000" font-family="sans-serif" font-size="11" lengthAdjust="spacingAndGlyphs" text-decoration="underline" textLength="69" x="42" y="115.5449">green: Scalar</text><ellipse cx="33" cy="125.8428" fill="none" rx="3" ry="3" style="stroke: #038048; stroke-width: 1.0;"/><text fill="#000000" font-family="sans-serif" font-size="11" lengthAdjust="spacingAndGlyphs" text-decoration="underline" textLength="100" x="42" y="128.5">dodgerblue: Scalar</text><ellipse cx="33" cy="138.7979" fill="none" rx="3" ry="3" style="stroke: #038048; stroke-width: 1.0;"/><text fill="#000000" font-family="sans-serif" font-size="11" lengthAdjust="spacingAndGlyphs" text-decoration="underline" textLength="63" x="42" y="141.4551">cyan: Scalar</text><ellipse cx="33" cy="151.7529" fill="none" rx="3" ry="3" style="stroke: #038048; stroke-width: 1.0;"/><text fill="#000000" font-family="sans-serif" font-size="11" lengthAdjust="spacingAndGlyphs" text-decoration="underline" textLength="71" x="42" y="154.4102">yellow: Scalar</text><ellipse cx="33" cy="164.708" fill="none" rx="3" ry="3" style="stroke: #038048; stroke-width: 1.0;"/><text fill="#000000" font-family="sans-serif" font-size="11" lengthAdjust="spacingAndGlyphs" text-decoration="underline" textLength="72" x="42" y="167.3652">indigo: Scalar</text><line style="stroke: #A80036; stroke-width: 1.5;" x1="23" x2="147" y1="173.6855" y2="173.6855"/></a><text fill="#888888" font-family="sans-serif" font-size="10" lengthAdjust="spacingAndGlyphs" textLength="182" x="0" y="217.668">UMLDoclet 1.1.4, PlantUML 1.2019.05</text><!--
@startuml

    class ImageUtils.CVColor [[ImageUtils.CVColor.html]] {
        {static} +red: Scalar
        {static} +lightgreen: Scalar
        {static} +green: Scalar
        {static} +dodgerblue: Scalar
        {static} +cyan: Scalar
        {static} +yellow: Scalar
        {static} +indigo: Scalar
    }


    center footer UMLDoclet 1.1.4, PlantUML 1.2019.05
@enduml

PlantUML version 1.2019.05(Sat Apr 20 18:45:36 CEST 2019)
(APACHE source distribution)
Java Runtime: Java(TM) SE Runtime Environment
JVM: Java HotSpot(TM) 64-Bit Server VM
Java Version: 1.8.0_152-b16
Operating System: Mac OS X
OS Version: 10.13.6
Default Encoding: UTF-8
Language: de
Country: DE
--></g></svg>