<?xml version="1.0" encoding="UTF-8" standalone="no"?><svg xmlns="http://www.w3.org/2000/svg" xmlns:xlink="http://www.w3.org/1999/xlink" contentScriptType="application/ecmascript" contentStyleType="text/css" height="180px" preserveAspectRatio="none" style="width:316px;height:180px;" version="1.1" viewBox="0 0 316 180" width="316px" zoomAndPan="magnify"><defs><filter height="300%" id="fmfahv7vu8kfq" width="300%" x="-1" y="-1"><feGaussianBlur result="blurOut" stdDeviation="2.0"/><feColorMatrix in="blurOut" result="blurOut2" type="matrix" values="0 0 0 0 0 0 0 0 0 0 0 0 0 0 0 0 0 0 .4 0"/><feOffset dx="4.0" dy="4.0" in="blurOut2" result="blurOut3"/><feBlend in="SourceGraphic" in2="blurOut3" mode="normal"/></filter></defs><g><!--class VideoRecorders--><a href="VideoRecorders.html" target="_top" xlink:actuate="onRequest" xlink:show="new" xlink:title="VideoRecorders.html" xlink:type="simple"><rect fill="#FEFECE" filter="url(#fmfahv7vu8kfq)" height="138.6855" id="VideoRecorders" style="stroke: #A80036; stroke-width: 1.5;" width="299" x="6" y="8"/><ellipse cx="105.25" cy="24" fill="#ADD1B2" rx="11" ry="11" style="stroke: #A80036; stroke-width: 1.0;"/><path d="M108.2231,29.6431 Q107.6421,29.9419 107.0029,30.0913 Q106.3638,30.2407 105.6582,30.2407 Q103.1514,30.2407 101.8315,28.5889 Q100.5117,26.937 100.5117,23.8159 Q100.5117,20.6865 101.8315,19.0347 Q103.1514,17.3828 105.6582,17.3828 Q106.3638,17.3828 107.0112,17.5322 Q107.6587,17.6816 108.2231,17.9805 L108.2231,20.7031 Q107.5923,20.1221 106.9988,19.8523 Q106.4053,19.5825 105.7744,19.5825 Q104.4297,19.5825 103.7449,20.6492 Q103.0601,21.7158 103.0601,23.8159 Q103.0601,25.9077 103.7449,26.9744 Q104.4297,28.041 105.7744,28.041 Q106.4053,28.041 106.9988,27.7712 Q107.5923,27.5015 108.2231,26.9204 Z "/><text fill="#000000" font-family="sans-serif" font-size="12" lengthAdjust="spacingAndGlyphs" textLength="92" x="125.75" y="28.5352">VideoRecorders</text><line style="stroke: #A80036; stroke-width: 1.5;" x1="7" x2="304" y1="40" y2="40"/><line style="stroke: #A80036; stroke-width: 1.5;" x1="7" x2="304" y1="48" y2="48"/><ellipse cx="17" cy="59.9775" fill="#84BE84" rx="3" ry="3" style="stroke: #038048; stroke-width: 1.0;"/><text fill="#000000" font-family="sans-serif" font-size="11" lengthAdjust="spacingAndGlyphs" textLength="130" x="26" y="62.6348">VideoRecorders(double)</text><ellipse cx="17" cy="72.9326" fill="#84BE84" rx="3" ry="3" style="stroke: #038048; stroke-width: 1.0;"/><text fill="#000000" font-family="sans-serif" font-size="11" lengthAdjust="spacingAndGlyphs" textLength="104" x="26" y="75.5898">isStarted(): boolean</text><ellipse cx="17" cy="85.8877" fill="#84BE84" rx="3" ry="3" style="stroke: #038048; stroke-width: 1.0;"/><text fill="#000000" font-family="sans-serif" font-size="11" lengthAdjust="spacingAndGlyphs" textLength="187" x="26" y="88.5449">toggle(): VideoRecorders.VideoInfo</text><ellipse cx="17" cy="98.8428" fill="#84BE84" rx="3" ry="3" style="stroke: #038048; stroke-width: 1.0;"/><text fill="#000000" font-family="sans-serif" font-size="11" lengthAdjust="spacingAndGlyphs" textLength="178" x="26" y="101.5">start(): VideoRecorders.VideoInfo</text><ellipse cx="17" cy="111.7979" fill="#84BE84" rx="3" ry="3" style="stroke: #038048; stroke-width: 1.0;"/><text fill="#000000" font-family="sans-serif" font-size="11" lengthAdjust="spacingAndGlyphs" textLength="273" x="26" y="114.4551">recordFrame(Mat, ImageCollector.ImageType): void</text><ellipse cx="17" cy="124.7529" fill="#84BE84" rx="3" ry="3" style="stroke: #038048; stroke-width: 1.0;"/><text fill="#000000" font-family="sans-serif" font-size="11" lengthAdjust="spacingAndGlyphs" textLength="236" x="26" y="127.4102">recordFrame(ImageCollector, boolean): void</text><ellipse cx="17" cy="137.708" fill="#84BE84" rx="3" ry="3" style="stroke: #038048; stroke-width: 1.0;"/><text fill="#000000" font-family="sans-serif" font-size="11" lengthAdjust="spacingAndGlyphs" textLength="177" x="26" y="140.3652">stop(): VideoRecorders.VideoInfo</text></a><text fill="#888888" font-family="sans-serif" font-size="10" lengthAdjust="spacingAndGlyphs" textLength="182" x="70.5" y="166.668">UMLDoclet 1.1.4, PlantUML 1.2019.05</text><!--
@startuml

    class VideoRecorders [[VideoRecorders.html]] {
        +VideoRecorders(double)
        +isStarted(): boolean
        +toggle(): VideoRecorders.VideoInfo
        +start(): VideoRecorders.VideoInfo
        +recordFrame(Mat, ImageCollector.ImageType): void
        +recordFrame(ImageCollector, boolean): void
        +stop(): VideoRecorders.VideoInfo
    }


    center footer UMLDoclet 1.1.4, PlantUML 1.2019.05
@enduml

PlantUML version 1.2019.05(Sat Apr 20 18:45:36 CEST 2019)
(APACHE source distribution)
Java Runtime: Java(TM) SE Runtime Environment
JVM: Java HotSpot(TM) 64-Bit Server VM
Java Version: 1.8.0_152-b16
Operating System: Mac OS X
OS Version: 10.13.6
Default Encoding: UTF-8
Language: de
Country: DE
--></g></svg>