<?xml version="1.0" encoding="UTF-8" standalone="no"?><svg xmlns="http://www.w3.org/2000/svg" xmlns:xlink="http://www.w3.org/1999/xlink" contentScriptType="application/ecmascript" contentStyleType="text/css" height="512px" preserveAspectRatio="none" style="width:990px;height:512px;" version="1.1" viewBox="0 0 990 512" width="990px" zoomAndPan="magnify"><defs><filter height="300%" id="fsk7aiupqgssr" width="300%" x="-1" y="-1"><feGaussianBlur result="blurOut" stdDeviation="2.0"/><feColorMatrix in="blurOut" result="blurOut2" type="matrix" values="0 0 0 0 0 0 0 0 0 0 0 0 0 0 0 0 0 0 .4 0"/><feOffset dx="4.0" dy="4.0" in="blurOut2" result="blurOut3"/><feBlend in="SourceGraphic" in2="blurOut3" mode="normal"/></filter></defs><g><!--cluster nl.vaneijndhoven.opencv.edgedectection--><polygon fill="#FFFFFF" filter="url(#fsk7aiupqgssr)" points="14,16,305,16,312,38.4883,968,38.4883,968,471,14,471,14,16" style="stroke: #000000; stroke-width: 1.5;"/><line style="stroke: #000000; stroke-width: 1.5;" x1="14" x2="312" y1="38.4883" y2="38.4883"/><text fill="#000000" font-family="sans-serif" font-size="14" font-weight="bold" lengthAdjust="spacingAndGlyphs" textLength="285" x="18" y="31.5352">nl.vaneijndhoven.opencv.edgedectection</text><!--class nl.vaneijndhoven.opencv.edgedectection.WatershedEdgeDetector--><a href="WatershedEdgeDetector.html" target="_top" xlink:actuate="onRequest" xlink:show="new" xlink:title="WatershedEdgeDetector.html" xlink:type="simple"><rect fill="#FEFECE" filter="url(#fsk7aiupqgssr)" height="86.8652" id="nl.vaneijndhoven.opencv.edgedectection.WatershedEdgeDetector" style="stroke: #A80036; stroke-width: 1.5;" width="348" x="22" y="177"/><ellipse cx="122.25" cy="193" fill="#ADD1B2" rx="11" ry="11" style="stroke: #A80036; stroke-width: 1.0;"/><path d="M125.2231,198.6431 Q124.6421,198.9419 124.0029,199.0913 Q123.3638,199.2407 122.6582,199.2407 Q120.1514,199.2407 118.8315,197.5889 Q117.5117,195.937 117.5117,192.8159 Q117.5117,189.6865 118.8315,188.0347 Q120.1514,186.3828 122.6582,186.3828 Q123.3638,186.3828 124.0112,186.5322 Q124.6587,186.6816 125.2231,186.9805 L125.2231,189.7031 Q124.5923,189.1221 123.9988,188.8523 Q123.4053,188.5825 122.7744,188.5825 Q121.4297,188.5825 120.7449,189.6492 Q120.0601,190.7158 120.0601,192.8159 Q120.0601,194.9077 120.7449,195.9744 Q121.4297,197.041 122.7744,197.041 Q123.4053,197.041 123.9988,196.7712 Q124.5923,196.5015 125.2231,195.9204 Z "/><text fill="#000000" font-family="sans-serif" font-size="12" lengthAdjust="spacingAndGlyphs" textLength="139" x="142.75" y="197.5352">WatershedEdgeDetector</text><line style="stroke: #A80036; stroke-width: 1.5;" x1="23" x2="369" y1="209" y2="209"/><line style="stroke: #A80036; stroke-width: 1.5;" x1="23" x2="369" y1="217" y2="217"/><ellipse cx="33" cy="228.9775" fill="#84BE84" rx="3" ry="3" style="stroke: #038048; stroke-width: 1.0;"/><text fill="#000000" font-family="sans-serif" font-size="11" lengthAdjust="spacingAndGlyphs" textLength="136" x="42" y="231.6348">WatershedEdgeDetector()</text><ellipse cx="33" cy="241.9326" fill="#84BE84" rx="3" ry="3" style="stroke: #038048; stroke-width: 1.0;"/><text fill="#000000" font-family="sans-serif" font-size="11" lengthAdjust="spacingAndGlyphs" textLength="322" x="42" y="244.5898">WatershedEdgeDetector(double, double, int, double, double)</text><ellipse cx="33" cy="254.8877" fill="#84BE84" rx="3" ry="3" style="stroke: #038048; stroke-width: 1.0;"/><text fill="#000000" font-family="sans-serif" font-size="11" lengthAdjust="spacingAndGlyphs" textLength="85" x="42" y="257.5449">detect(Mat): Mat</text></a><!--class nl.vaneijndhoven.opencv.edgedectection.EdgeDetector--><a href="EdgeDetector.html" target="_top" xlink:actuate="onRequest" xlink:show="new" xlink:title="EdgeDetector.html" xlink:type="simple"><rect fill="#FEFECE" filter="url(#fsk7aiupqgssr)" height="60.9551" id="nl.vaneijndhoven.opencv.edgedectection.EdgeDetector" style="stroke: #A80036; stroke-width: 1.5;" width="111" x="444.5" y="43"/><ellipse cx="459.95" cy="59" fill="#B4A7E5" rx="11" ry="11" style="stroke: #A80036; stroke-width: 1.0;"/><path d="M455.8777,54.7651 L455.8777,52.6069 L463.2571,52.6069 L463.2571,54.7651 L460.7918,54.7651 L460.7918,62.8418 L463.2571,62.8418 L463.2571,65 L455.8777,65 L455.8777,62.8418 L458.3431,62.8418 L458.3431,54.7651 Z "/><text fill="#000000" font-family="sans-serif" font-size="12" font-style="italic" lengthAdjust="spacingAndGlyphs" textLength="78" x="474.05" y="63.5352">EdgeDetector</text><line style="stroke: #A80036; stroke-width: 1.5;" x1="445.5" x2="554.5" y1="75" y2="75"/><line style="stroke: #A80036; stroke-width: 1.5;" x1="445.5" x2="554.5" y1="83" y2="83"/><ellipse cx="455.5" cy="94.9775" fill="#84BE84" rx="3" ry="3" style="stroke: #038048; stroke-width: 1.0;"/><text fill="#000000" font-family="sans-serif" font-size="11" font-style="italic" lengthAdjust="spacingAndGlyphs" textLength="85" x="464.5" y="97.6348">detect(Mat): Mat</text></a><!--class nl.vaneijndhoven.opencv.edgedectection.SobelEdgeDetector--><a href="SobelEdgeDetector.html" target="_top" xlink:actuate="onRequest" xlink:show="new" xlink:title="SobelEdgeDetector.html" xlink:type="simple"><rect fill="#FEFECE" filter="url(#fsk7aiupqgssr)" height="86.8652" id="nl.vaneijndhoven.opencv.edgedectection.SobelEdgeDetector" style="stroke: #A80036; stroke-width: 1.5;" width="189" x="405.5" y="177"/><ellipse cx="442.1" cy="193" fill="#ADD1B2" rx="11" ry="11" style="stroke: #A80036; stroke-width: 1.0;"/><path d="M445.0731,198.6431 Q444.4921,198.9419 443.8529,199.0913 Q443.2138,199.2407 442.5082,199.2407 Q440.0014,199.2407 438.6815,197.5889 Q437.3617,195.937 437.3617,192.8159 Q437.3617,189.6865 438.6815,188.0347 Q440.0014,186.3828 442.5082,186.3828 Q443.2138,186.3828 443.8612,186.5322 Q444.5087,186.6816 445.0731,186.9805 L445.0731,189.7031 Q444.4423,189.1221 443.8488,188.8523 Q443.2553,188.5825 442.6244,188.5825 Q441.2797,188.5825 440.5949,189.6492 Q439.9101,190.7158 439.9101,192.8159 Q439.9101,194.9077 440.5949,195.9744 Q441.2797,197.041 442.6244,197.041 Q443.2553,197.041 443.8488,196.7712 Q444.4423,196.5015 445.0731,195.9204 Z "/><text fill="#000000" font-family="sans-serif" font-size="12" lengthAdjust="spacingAndGlyphs" textLength="109" x="460.9" y="197.5352">SobelEdgeDetector</text><line style="stroke: #A80036; stroke-width: 1.5;" x1="406.5" x2="593.5" y1="209" y2="209"/><line style="stroke: #A80036; stroke-width: 1.5;" x1="406.5" x2="593.5" y1="217" y2="217"/><ellipse cx="416.5" cy="228.9775" fill="#84BE84" rx="3" ry="3" style="stroke: #038048; stroke-width: 1.0;"/><text fill="#000000" font-family="sans-serif" font-size="11" lengthAdjust="spacingAndGlyphs" textLength="109" x="425.5" y="231.6348">SobelEdgeDetector()</text><ellipse cx="416.5" cy="241.9326" fill="#84BE84" rx="3" ry="3" style="stroke: #038048; stroke-width: 1.0;"/><text fill="#000000" font-family="sans-serif" font-size="11" lengthAdjust="spacingAndGlyphs" textLength="163" x="425.5" y="244.5898">SobelEdgeDetector(int, int, int)</text><ellipse cx="416.5" cy="254.8877" fill="#84BE84" rx="3" ry="3" style="stroke: #038048; stroke-width: 1.0;"/><text fill="#000000" font-family="sans-serif" font-size="11" lengthAdjust="spacingAndGlyphs" textLength="85" x="425.5" y="257.5449">detect(Mat): Mat</text></a><!--class nl.vaneijndhoven.opencv.edgedectection.CannyEdgeDetector--><a href="CannyEdgeDetector.html" target="_top" xlink:actuate="onRequest" xlink:show="new" xlink:title="CannyEdgeDetector.html" xlink:type="simple"><rect fill="#FEFECE" filter="url(#fsk7aiupqgssr)" height="112.7754" id="nl.vaneijndhoven.opencv.edgedectection.CannyEdgeDetector" style="stroke: #A80036; stroke-width: 1.5;" width="330" x="630" y="164"/><ellipse cx="734.25" cy="180" fill="#ADD1B2" rx="11" ry="11" style="stroke: #A80036; stroke-width: 1.0;"/><path d="M737.2231,185.6431 Q736.6421,185.9419 736.0029,186.0913 Q735.3638,186.2407 734.6582,186.2407 Q732.1514,186.2407 730.8315,184.5889 Q729.5117,182.937 729.5117,179.8159 Q729.5117,176.6865 730.8315,175.0347 Q732.1514,173.3828 734.6582,173.3828 Q735.3638,173.3828 736.0112,173.5322 Q736.6587,173.6816 737.2231,173.9805 L737.2231,176.7031 Q736.5923,176.1221 735.9988,175.8523 Q735.4053,175.5825 734.7744,175.5825 Q733.4297,175.5825 732.7449,176.6492 Q732.0601,177.7158 732.0601,179.8159 Q732.0601,181.9077 732.7449,182.9744 Q733.4297,184.041 734.7744,184.041 Q735.4053,184.041 735.9988,183.7712 Q736.5923,183.5015 737.2231,182.9204 Z "/><text fill="#000000" font-family="sans-serif" font-size="12" lengthAdjust="spacingAndGlyphs" textLength="113" x="754.75" y="184.5352">CannyEdgeDetector</text><line style="stroke: #A80036; stroke-width: 1.5;" x1="631" x2="959" y1="196" y2="196"/><line style="stroke: #A80036; stroke-width: 1.5;" x1="631" x2="959" y1="204" y2="204"/><ellipse cx="641" cy="215.9775" fill="#84BE84" rx="3" ry="3" style="stroke: #038048; stroke-width: 1.0;"/><text fill="#000000" font-family="sans-serif" font-size="11" lengthAdjust="spacingAndGlyphs" textLength="114" x="650" y="218.6348">CannyEdgeDetector()</text><ellipse cx="641" cy="228.9326" fill="#84BE84" rx="3" ry="3" style="stroke: #038048; stroke-width: 1.0;"/><text fill="#000000" font-family="sans-serif" font-size="11" lengthAdjust="spacingAndGlyphs" textLength="263" x="650" y="231.5898">CannyEdgeDetector(double, double, int, boolean)</text><ellipse cx="641" cy="241.8877" fill="#84BE84" rx="3" ry="3" style="stroke: #038048; stroke-width: 1.0;"/><text fill="#000000" font-family="sans-serif" font-size="11" lengthAdjust="spacingAndGlyphs" textLength="259" x="650" y="244.5449">CannyEdgeDetector(CannyEdgeDetector.Config)</text><ellipse cx="641" cy="254.8428" fill="#84BE84" rx="3" ry="3" style="stroke: #038048; stroke-width: 1.0;"/><text fill="#000000" font-family="sans-serif" font-size="11" lengthAdjust="spacingAndGlyphs" textLength="304" x="650" y="257.5">withImageCollector(ImageCollector): CannyEdgeDetector</text><ellipse cx="641" cy="267.7979" fill="#84BE84" rx="3" ry="3" style="stroke: #038048; stroke-width: 1.0;"/><text fill="#000000" font-family="sans-serif" font-size="11" lengthAdjust="spacingAndGlyphs" textLength="85" x="650" y="270.4551">detect(Mat): Mat</text></a><!--class nl.vaneijndhoven.opencv.edgedectection.CannyEdgeDetector.Config--><a href="CannyEdgeDetector.Config.html" target="_top" xlink:actuate="onRequest" xlink:show="new" xlink:title="CannyEdgeDetector.Config.html" xlink:type="simple"><rect fill="#FEFECE" filter="url(#fsk7aiupqgssr)" height="125.7305" id="nl.vaneijndhoven.opencv.edgedectection.CannyEdgeDetector.Config" style="stroke: #A80036; stroke-width: 1.5;" width="185" x="702.5" y="337"/><ellipse cx="717.5" cy="353" fill="#ADD1B2" rx="11" ry="11" style="stroke: #A80036; stroke-width: 1.0;"/><path d="M720.4731,358.6431 Q719.8921,358.9419 719.2529,359.0913 Q718.6138,359.2407 717.9082,359.2407 Q715.4014,359.2407 714.0815,357.5889 Q712.7617,355.937 712.7617,352.8159 Q712.7617,349.6865 714.0815,348.0347 Q715.4014,346.3828 717.9082,346.3828 Q718.6138,346.3828 719.2612,346.5322 Q719.9087,346.6816 720.4731,346.9805 L720.4731,349.7031 Q719.8423,349.1221 719.2488,348.8523 Q718.6553,348.5825 718.0244,348.5825 Q716.6797,348.5825 715.9949,349.6492 Q715.3101,350.7158 715.3101,352.8159 Q715.3101,354.9077 715.9949,355.9744 Q716.6797,357.041 718.0244,357.041 Q718.6553,357.041 719.2488,356.7712 Q719.8423,356.5015 720.4731,355.9204 Z "/><text fill="#000000" font-family="sans-serif" font-size="12" lengthAdjust="spacingAndGlyphs" textLength="153" x="731.5" y="357.5352">CannyEdgeDetector.Config</text><line style="stroke: #A80036; stroke-width: 1.5;" x1="703.5" x2="886.5" y1="369" y2="369"/><line style="stroke: #A80036; stroke-width: 1.5;" x1="703.5" x2="886.5" y1="377" y2="377"/><ellipse cx="713.5" cy="388.9775" fill="#84BE84" rx="3" ry="3" style="stroke: #038048; stroke-width: 1.0;"/><text fill="#000000" font-family="sans-serif" font-size="11" lengthAdjust="spacingAndGlyphs" textLength="152" x="722.5" y="391.6348">setThreshold1(double): void</text><ellipse cx="713.5" cy="401.9326" fill="#84BE84" rx="3" ry="3" style="stroke: #038048; stroke-width: 1.0;"/><text fill="#000000" font-family="sans-serif" font-size="11" lengthAdjust="spacingAndGlyphs" textLength="152" x="722.5" y="404.5898">setThreshold2(double): void</text><ellipse cx="713.5" cy="414.8877" fill="#84BE84" rx="3" ry="3" style="stroke: #038048; stroke-width: 1.0;"/><text fill="#000000" font-family="sans-serif" font-size="11" lengthAdjust="spacingAndGlyphs" textLength="130" x="722.5" y="417.5449">getThreshold1(): double</text><ellipse cx="713.5" cy="427.8428" fill="#84BE84" rx="3" ry="3" style="stroke: #038048; stroke-width: 1.0;"/><text fill="#000000" font-family="sans-serif" font-size="11" lengthAdjust="spacingAndGlyphs" textLength="130" x="722.5" y="430.5">getThreshold2(): double</text><ellipse cx="713.5" cy="440.7979" fill="#84BE84" rx="3" ry="3" style="stroke: #038048; stroke-width: 1.0;"/><text fill="#000000" font-family="sans-serif" font-size="11" lengthAdjust="spacingAndGlyphs" textLength="114" x="722.5" y="443.4551">getApertureSize(): int</text><ellipse cx="713.5" cy="453.7529" fill="#84BE84" rx="3" ry="3" style="stroke: #038048; stroke-width: 1.0;"/><text fill="#000000" font-family="sans-serif" font-size="11" lengthAdjust="spacingAndGlyphs" textLength="132" x="722.5" y="456.4102">getL2gradient(): boolean</text></a><!--link nl.vaneijndhoven.opencv.edgedectection.EdgeDetector to nl.vaneijndhoven.opencv.edgedectection.WatershedEdgeDetector--><path d="M425.9987,109.2835 C383.8058,129.686 330.6144,155.4069 286.0146,176.9732 " fill="none" id="nl.vaneijndhoven.opencv.edgedectection.EdgeDetector-nl.vaneijndhoven.opencv.edgedectection.WatershedEdgeDetector" style="stroke: #A80036; stroke-width: 1.0; stroke-dasharray: 7.0,7.0;"/><polygon fill="none" points="423.189,102.8668,444.2417,100.4621,429.2836,115.4706,423.189,102.8668" style="stroke: #A80036; stroke-width: 1.0;"/><!--link nl.vaneijndhoven.opencv.edgedectection.EdgeDetector to nl.vaneijndhoven.opencv.edgedectection.SobelEdgeDetector--><path d="M500,124.3532 C500,141.4669 500,160.396 500,176.9003 " fill="none" id="nl.vaneijndhoven.opencv.edgedectection.EdgeDetector-nl.vaneijndhoven.opencv.edgedectection.SobelEdgeDetector" style="stroke: #A80036; stroke-width: 1.0; stroke-dasharray: 7.0,7.0;"/><polygon fill="none" points="493.0001,124.3161,500,104.316,507.0001,124.316,493.0001,124.3161" style="stroke: #A80036; stroke-width: 1.0;"/><!--link nl.vaneijndhoven.opencv.edgedectection.EdgeDetector to nl.vaneijndhoven.opencv.edgedectection.CannyEdgeDetector--><path d="M574.137,110.4428 C606.5885,126.6136 645.3962,145.9517 681.364,163.8746 " fill="none" id="nl.vaneijndhoven.opencv.edgedectection.EdgeDetector-nl.vaneijndhoven.opencv.edgedectection.CannyEdgeDetector" style="stroke: #A80036; stroke-width: 1.0; stroke-dasharray: 7.0,7.0;"/><polygon fill="none" points="570.6127,116.5077,555.8341,101.3224,576.8567,103.9772,570.6127,116.5077" style="stroke: #A80036; stroke-width: 1.0;"/><!--link nl.vaneijndhoven.opencv.edgedectection.CannyEdgeDetector to nl.vaneijndhoven.opencv.edgedectection.CannyEdgeDetector.Config--><path d="M795,292.7578 C795,307.3091 795,322.4985 795,336.715 " fill="none" id="nl.vaneijndhoven.opencv.edgedectection.CannyEdgeDetector-nl.vaneijndhoven.opencv.edgedectection.CannyEdgeDetector.Config" style="stroke: #A80036; stroke-width: 1.0;"/><ellipse cx="795.0001" cy="285.2949" fill="#FFFFFF" rx="8" ry="8" style="stroke: #A80036; stroke-width: 1.0;"/><line style="stroke: #A80036; stroke-width: 1.0;" x1="795.0002" x2="795" y1="293.2949" y2="277.2949"/><line style="stroke: #A80036; stroke-width: 1.0;" x1="787.0001" x2="803.0001" y1="285.295" y2="285.2948"/><text fill="#888888" font-family="sans-serif" font-size="10" lengthAdjust="spacingAndGlyphs" textLength="182" x="406" y="498.668">UMLDoclet 1.1.4, PlantUML 1.2019.05</text><!--
@startuml

    namespace nl.vaneijndhoven.opencv.edgedectection {

        class WatershedEdgeDetector [[WatershedEdgeDetector.html]] {
            +WatershedEdgeDetector()
            +WatershedEdgeDetector(double, double, int, double, double)
            +detect(Mat): Mat
        }

        interface EdgeDetector [[EdgeDetector.html]] {
            {abstract} +detect(Mat): Mat
        }

        class SobelEdgeDetector [[SobelEdgeDetector.html]] {
            +SobelEdgeDetector()
            +SobelEdgeDetector(int, int, int)
            +detect(Mat): Mat
        }

        class CannyEdgeDetector [[CannyEdgeDetector.html]] {
            +CannyEdgeDetector()
            +CannyEdgeDetector(double, double, int, boolean)
            +CannyEdgeDetector(CannyEdgeDetector.Config)
            +withImageCollector(ImageCollector): CannyEdgeDetector
            +detect(Mat): Mat
        }

        class nl.vaneijndhoven.opencv.edgedectection.CannyEdgeDetector.Config [[CannyEdgeDetector.Config.html]] {
            +setThreshold1(double): void
            +setThreshold2(double): void
            +getThreshold1(): double
            +getThreshold2(): double
            +getApertureSize(): int
            +getL2gradient(): boolean
        }

        EdgeDetector <|.. WatershedEdgeDetector

        EdgeDetector <|.. SobelEdgeDetector

        EdgeDetector <|.. CannyEdgeDetector

        CannyEdgeDetector +- - nl.vaneijndhoven.opencv.edgedectection.CannyEdgeDetector.Config

    }


    center footer UMLDoclet 1.1.4, PlantUML 1.2019.05
@enduml

PlantUML version 1.2019.05(Sat Apr 20 18:45:36 CEST 2019)
(APACHE source distribution)
Java Runtime: Java(TM) SE Runtime Environment
JVM: Java HotSpot(TM) 64-Bit Server VM
Java Version: 1.8.0_152-b16
Operating System: Mac OS X
OS Version: 10.13.6
Default Encoding: UTF-8
Language: de
Country: DE
--></g></svg>