<?xml version="1.0" encoding="UTF-8" standalone="no"?><svg xmlns="http://www.w3.org/2000/svg" xmlns:xlink="http://www.w3.org/1999/xlink" contentScriptType="application/ecmascript" contentStyleType="text/css" height="218px" preserveAspectRatio="none" style="width:266px;height:218px;" version="1.1" viewBox="0 0 266 218" width="266px" zoomAndPan="magnify"><defs><filter height="300%" id="f1vxl5ldonp4tm" width="300%" x="-1" y="-1"><feGaussianBlur result="blurOut" stdDeviation="2.0"/><feColorMatrix in="blurOut" result="blurOut2" type="matrix" values="0 0 0 0 0 0 0 0 0 0 0 0 0 0 0 0 0 0 .4 0"/><feOffset dx="4.0" dy="4.0" in="blurOut2" result="blurOut3"/><feBlend in="SourceGraphic" in2="blurOut3" mode="normal"/></filter></defs><g><!--cluster com.bitplan.rccar.server--><polygon fill="#FFFFFF" filter="url(#f1vxl5ldonp4tm)" points="14,16,188,16,195,38.4883,244,38.4883,244,177,14,177,14,16" style="stroke: #000000; stroke-width: 1.5;"/><line style="stroke: #000000; stroke-width: 1.5;" x1="14" x2="195" y1="38.4883" y2="38.4883"/><text fill="#000000" font-family="sans-serif" font-size="14" font-weight="bold" lengthAdjust="spacingAndGlyphs" textLength="168" x="18" y="31.5352">com.bitplan.rccar.server</text><!--class com.bitplan.rccar.server.TestEventBus--><a href="TestEventBus.html" target="_top" xlink:actuate="onRequest" xlink:show="new" xlink:title="TestEventBus.html" xlink:type="simple"><rect fill="#FEFECE" filter="url(#f1vxl5ldonp4tm)" height="125.7305" id="com.bitplan.rccar.server.TestEventBus" style="stroke: #A80036; stroke-width: 1.5;" width="213" x="22.5" y="43"/><ellipse cx="86.75" cy="59" fill="#ADD1B2" rx="11" ry="11" style="stroke: #A80036; stroke-width: 1.0;"/><path d="M89.7231,64.6431 Q89.1421,64.9419 88.5029,65.0913 Q87.8638,65.2407 87.1582,65.2407 Q84.6514,65.2407 83.3315,63.5889 Q82.0117,61.937 82.0117,58.8159 Q82.0117,55.6865 83.3315,54.0347 Q84.6514,52.3828 87.1582,52.3828 Q87.8638,52.3828 88.5112,52.5322 Q89.1587,52.6816 89.7231,52.9805 L89.7231,55.7031 Q89.0923,55.1221 88.4988,54.8523 Q87.9053,54.5825 87.2744,54.5825 Q85.9297,54.5825 85.2449,55.6492 Q84.5601,56.7158 84.5601,58.8159 Q84.5601,60.9077 85.2449,61.9744 Q85.9297,63.041 87.2744,63.041 Q87.9053,63.041 88.4988,62.7712 Q89.0923,62.5015 89.7231,61.9204 Z "/><text fill="#000000" font-family="sans-serif" font-size="12" lengthAdjust="spacingAndGlyphs" textLength="76" x="107.25" y="63.5352">TestEventBus</text><line style="stroke: #A80036; stroke-width: 1.5;" x1="23.5" x2="234.5" y1="75" y2="75"/><line style="stroke: #A80036; stroke-width: 1.5;" x1="23.5" x2="234.5" y1="83" y2="83"/><ellipse cx="33.5" cy="94.9775" fill="#84BE84" rx="3" ry="3" style="stroke: #038048; stroke-width: 1.0;"/><text fill="#000000" font-family="sans-serif" font-size="11" lengthAdjust="spacingAndGlyphs" text-decoration="underline" textLength="133" x="42.5" y="97.6348">configureLogging(): void</text><ellipse cx="33.5" cy="107.9326" fill="#84BE84" rx="3" ry="3" style="stroke: #038048; stroke-width: 1.0;"/><text fill="#000000" font-family="sans-serif" font-size="11" lengthAdjust="spacingAndGlyphs" textLength="131" x="42.5" y="110.5898">example0_5(Vertx): void</text><ellipse cx="33.5" cy="120.8877" fill="#84BE84" rx="3" ry="3" style="stroke: #038048; stroke-width: 1.0;"/><text fill="#000000" font-family="sans-serif" font-size="11" lengthAdjust="spacingAndGlyphs" textLength="185" x="42.5" y="123.5449">checkStart(VertxOptions, int): void</text><ellipse cx="33.5" cy="133.8428" fill="#84BE84" rx="3" ry="3" style="stroke: #038048; stroke-width: 1.0;"/><text fill="#000000" font-family="sans-serif" font-size="11" lengthAdjust="spacingAndGlyphs" textLength="187" x="42.5" y="136.5">createKeyStore(String, String): void</text><ellipse cx="33.5" cy="146.7979" fill="#84BE84" rx="3" ry="3" style="stroke: #038048; stroke-width: 1.0;"/><text fill="#000000" font-family="sans-serif" font-size="11" lengthAdjust="spacingAndGlyphs" textLength="116" x="42.5" y="149.4551">testExample13(): void</text><ellipse cx="33.5" cy="159.7529" fill="#84BE84" rx="3" ry="3" style="stroke: #038048; stroke-width: 1.0;"/><text fill="#000000" font-family="sans-serif" font-size="11" lengthAdjust="spacingAndGlyphs" textLength="116" x="42.5" y="162.4102">testExample14(): void</text></a><text fill="#888888" font-family="sans-serif" font-size="10" lengthAdjust="spacingAndGlyphs" textLength="182" x="44" y="204.668">UMLDoclet 1.1.4, PlantUML 1.2019.05</text><!--
@startuml

    namespace com.bitplan.rccar.server {

        class TestEventBus [[TestEventBus.html]] {
            {static} +configureLogging(): void
            +example0_5(Vertx): void
            +checkStart(VertxOptions, int): void
            +createKeyStore(String, String): void
            +testExample13(): void
            +testExample14(): void
        }

    }


    center footer UMLDoclet 1.1.4, PlantUML 1.2019.05
@enduml

PlantUML version 1.2019.05(Sat Apr 20 18:45:36 CEST 2019)
(APACHE source distribution)
Java Runtime: Java(TM) SE Runtime Environment
JVM: Java HotSpot(TM) 64-Bit Server VM
Java Version: 1.8.0_191-b12
Operating System: Mac OS X
OS Version: 10.13.6
Default Encoding: UTF-8
Language: de
Country: DE
--></g></svg>