<?xml version="1.0" encoding="UTF-8" standalone="no"?><svg xmlns="http://www.w3.org/2000/svg" xmlns:xlink="http://www.w3.org/1999/xlink" contentScriptType="application/ecmascript" contentStyleType="text/css" height="89px" preserveAspectRatio="none" style="width:194px;height:89px;" version="1.1" viewBox="0 0 194 89" width="194px" zoomAndPan="magnify"><defs><filter height="300%" id="fnsf7yo0uawhh" width="300%" x="-1" y="-1"><feGaussianBlur result="blurOut" stdDeviation="2.0"/><feColorMatrix in="blurOut" result="blurOut2" type="matrix" values="0 0 0 0 0 0 0 0 0 0 0 0 0 0 0 0 0 0 .4 0"/><feOffset dx="4.0" dy="4.0" in="blurOut2" result="blurOut3"/><feBlend in="SourceGraphic" in2="blurOut3" mode="normal"/></filter></defs><g><!--class TestSuite--><a href="TestSuite.html" target="_top" xlink:actuate="onRequest" xlink:show="new" xlink:title="TestSuite.html" xlink:type="simple"><rect fill="#FEFECE" filter="url(#fnsf7yo0uawhh)" height="48" id="TestSuite" style="stroke: #A80036; stroke-width: 1.5;" width="84" x="43" y="8"/><ellipse cx="58" cy="24" fill="#ADD1B2" rx="11" ry="11" style="stroke: #A80036; stroke-width: 1.0;"/><path d="M60.9731,29.6431 Q60.3921,29.9419 59.7529,30.0913 Q59.1138,30.2407 58.4082,30.2407 Q55.9014,30.2407 54.5815,28.5889 Q53.2617,26.937 53.2617,23.8159 Q53.2617,20.6865 54.5815,19.0347 Q55.9014,17.3828 58.4082,17.3828 Q59.1138,17.3828 59.7612,17.5322 Q60.4087,17.6816 60.9731,17.9805 L60.9731,20.7031 Q60.3423,20.1221 59.7488,19.8523 Q59.1553,19.5825 58.5244,19.5825 Q57.1797,19.5825 56.4949,20.6492 Q55.8101,21.7158 55.8101,23.8159 Q55.8101,25.9077 56.4949,26.9744 Q57.1797,28.041 58.5244,28.041 Q59.1553,28.041 59.7488,27.7712 Q60.3423,27.5015 60.9731,26.9204 Z "/><text fill="#000000" font-family="sans-serif" font-size="12" lengthAdjust="spacingAndGlyphs" textLength="52" x="72" y="28.5352">TestSuite</text><line style="stroke: #A80036; stroke-width: 1.5;" x1="44" x2="126" y1="40" y2="40"/><line style="stroke: #A80036; stroke-width: 1.5;" x1="44" x2="126" y1="48" y2="48"/></a><text fill="#888888" font-family="sans-serif" font-size="10" lengthAdjust="spacingAndGlyphs" textLength="182" x="0" y="75.668">UMLDoclet 1.1.4, PlantUML 1.2019.05</text><!--
@startuml

    class TestSuite [[TestSuite.html]] {
    }


    center footer UMLDoclet 1.1.4, PlantUML 1.2019.05
@enduml

PlantUML version 1.2019.05(Sat Apr 20 18:45:36 CEST 2019)
(APACHE source distribution)
Java Runtime: Java(TM) SE Runtime Environment
JVM: Java HotSpot(TM) 64-Bit Server VM
Java Version: 1.8.0_152-b16
Operating System: Mac OS X
OS Version: 10.13.6
Default Encoding: UTF-8
Language: de
Country: DE
--></g></svg>