<?xml version="1.0" encoding="UTF-8" standalone="no"?><svg xmlns="http://www.w3.org/2000/svg" xmlns:xlink="http://www.w3.org/1999/xlink" contentScriptType="application/ecmascript" contentStyleType="text/css" height="287px" preserveAspectRatio="none" style="width:595px;height:287px;" version="1.1" viewBox="0 0 595 287" width="595px" zoomAndPan="magnify"><defs><filter height="300%" id="flpv5sr0bxzbm" width="300%" x="-1" y="-1"><feGaussianBlur result="blurOut" stdDeviation="2.0"/><feColorMatrix in="blurOut" result="blurOut2" type="matrix" values="0 0 0 0 0 0 0 0 0 0 0 0 0 0 0 0 0 0 .4 0"/><feOffset dx="4.0" dy="4.0" in="blurOut2" result="blurOut3"/><feBlend in="SourceGraphic" in2="blurOut3" mode="normal"/></filter></defs><g><!--cluster org.rcdukes.detectors--><polygon fill="#FFFFFF" filter="url(#flpv5sr0bxzbm)" points="14,16,173,16,180,38.4883,573,38.4883,573,246,14,246,14,16" style="stroke: #000000; stroke-width: 1.5;"/><line style="stroke: #000000; stroke-width: 1.5;" x1="14" x2="180" y1="38.4883" y2="38.4883"/><text fill="#000000" font-family="sans-serif" font-size="14" font-weight="bold" lengthAdjust="spacingAndGlyphs" textLength="153" x="18" y="31.5352">org.rcdukes.detectors</text><!--class org.rcdukes.detectors.StartLightDetector--><a href="StartLightDetector.html" target="_top" xlink:actuate="onRequest" xlink:show="new" xlink:title="StartLightDetector.html" xlink:type="simple"><rect fill="#FEFECE" filter="url(#flpv5sr0bxzbm)" height="73.9102" id="org.rcdukes.detectors.StartLightDetector" style="stroke: #A80036; stroke-width: 1.5;" width="322" x="22" y="43"/><ellipse cx="127.75" cy="59" fill="#B4A7E5" rx="11" ry="11" style="stroke: #A80036; stroke-width: 1.0;"/><path d="M123.6777,54.7651 L123.6777,52.6069 L131.0571,52.6069 L131.0571,54.7651 L128.5918,54.7651 L128.5918,62.8418 L131.0571,62.8418 L131.0571,65 L123.6777,65 L123.6777,62.8418 L126.1431,62.8418 L126.1431,54.7651 Z "/><text fill="#000000" font-family="sans-serif" font-size="12" font-style="italic" lengthAdjust="spacingAndGlyphs" textLength="102" x="148.25" y="63.5352">StartLightDetector</text><line style="stroke: #A80036; stroke-width: 1.5;" x1="23" x2="343" y1="75" y2="75"/><line style="stroke: #A80036; stroke-width: 1.5;" x1="23" x2="343" y1="83" y2="83"/><ellipse cx="33" cy="94.9775" fill="#84BE84" rx="3" ry="3" style="stroke: #038048; stroke-width: 1.0;"/><text fill="#000000" font-family="sans-serif" font-size="11" font-style="italic" lengthAdjust="spacingAndGlyphs" textLength="131" x="42" y="97.6348">detect(Image): StartLight</text><ellipse cx="33" cy="107.9326" fill="#84BE84" rx="3" ry="3" style="stroke: #038048; stroke-width: 1.0;"/><text fill="#000000" font-family="sans-serif" font-size="11" font-style="italic" lengthAdjust="spacingAndGlyphs" textLength="296" x="42" y="110.5898">withImageCollector(ImageCollector): StartLightDetector</text></a><!--class org.rcdukes.detectors.LineDetector--><a href="LineDetector.html" target="_top" xlink:actuate="onRequest" xlink:show="new" xlink:title="LineDetector.html" xlink:type="simple"><rect fill="#FEFECE" filter="url(#flpv5sr0bxzbm)" height="60.9551" id="org.rcdukes.detectors.LineDetector" style="stroke: #A80036; stroke-width: 1.5;" width="186" x="379" y="49.5"/><ellipse cx="431.75" cy="65.5" fill="#B4A7E5" rx="11" ry="11" style="stroke: #A80036; stroke-width: 1.0;"/><path d="M427.6777,61.2651 L427.6777,59.1069 L435.0571,59.1069 L435.0571,61.2651 L432.5918,61.2651 L432.5918,69.3418 L435.0571,69.3418 L435.0571,71.5 L427.6777,71.5 L427.6777,69.3418 L430.1431,69.3418 L430.1431,61.2651 Z "/><text fill="#000000" font-family="sans-serif" font-size="12" font-style="italic" lengthAdjust="spacingAndGlyphs" textLength="72" x="452.25" y="70.0352">LineDetector</text><line style="stroke: #A80036; stroke-width: 1.5;" x1="380" x2="564" y1="81.5" y2="81.5"/><line style="stroke: #A80036; stroke-width: 1.5;" x1="380" x2="564" y1="89.5" y2="89.5"/><ellipse cx="390" cy="101.4775" fill="#84BE84" rx="3" ry="3" style="stroke: #038048; stroke-width: 1.0;"/><text fill="#000000" font-family="sans-serif" font-size="11" font-style="italic" lengthAdjust="spacingAndGlyphs" textLength="160" x="399" y="104.1348">detect(Mat): Collection&lt;Line&gt;</text></a><!--class org.rcdukes.detectors.LaneDetector--><a href="LaneDetector.html" target="_top" xlink:actuate="onRequest" xlink:show="new" xlink:title="LaneDetector.html" xlink:type="simple"><rect fill="#FEFECE" filter="url(#flpv5sr0bxzbm)" height="60.9551" id="org.rcdukes.detectors.LaneDetector" style="stroke: #A80036; stroke-width: 1.5;" width="244" x="61" y="177"/><ellipse cx="140.75" cy="193" fill="#B4A7E5" rx="11" ry="11" style="stroke: #A80036; stroke-width: 1.0;"/><path d="M136.6777,188.7651 L136.6777,186.6069 L144.0571,186.6069 L144.0571,188.7651 L141.5918,188.7651 L141.5918,196.8418 L144.0571,196.8418 L144.0571,199 L136.6777,199 L136.6777,196.8418 L139.1431,196.8418 L139.1431,188.7651 Z "/><text fill="#000000" font-family="sans-serif" font-size="12" font-style="italic" lengthAdjust="spacingAndGlyphs" textLength="76" x="161.25" y="197.5352">LaneDetector</text><line style="stroke: #A80036; stroke-width: 1.5;" x1="62" x2="304" y1="209" y2="209"/><line style="stroke: #A80036; stroke-width: 1.5;" x1="62" x2="304" y1="217" y2="217"/><ellipse cx="72" cy="228.9775" fill="#84BE84" rx="3" ry="3" style="stroke: #038048; stroke-width: 1.0;"/><text fill="#000000" font-family="sans-serif" font-size="11" font-style="italic" lengthAdjust="spacingAndGlyphs" textLength="218" x="81" y="231.6348">detect(Collection&lt;Line&gt;, ViewPort): Lane</text></a><!--class org.rcdukes.detectors.EdgeDetector--><a href="EdgeDetector.html" target="_top" xlink:actuate="onRequest" xlink:show="new" xlink:title="EdgeDetector.html" xlink:type="simple"><rect fill="#FEFECE" filter="url(#flpv5sr0bxzbm)" height="60.9551" id="org.rcdukes.detectors.EdgeDetector" style="stroke: #A80036; stroke-width: 1.5;" width="111" x="340.5" y="177"/><ellipse cx="355.95" cy="193" fill="#B4A7E5" rx="11" ry="11" style="stroke: #A80036; stroke-width: 1.0;"/><path d="M351.8777,188.7651 L351.8777,186.6069 L359.2571,186.6069 L359.2571,188.7651 L356.7918,188.7651 L356.7918,196.8418 L359.2571,196.8418 L359.2571,199 L351.8777,199 L351.8777,196.8418 L354.3431,196.8418 L354.3431,188.7651 Z "/><text fill="#000000" font-family="sans-serif" font-size="12" font-style="italic" lengthAdjust="spacingAndGlyphs" textLength="78" x="370.05" y="197.5352">EdgeDetector</text><line style="stroke: #A80036; stroke-width: 1.5;" x1="341.5" x2="450.5" y1="209" y2="209"/><line style="stroke: #A80036; stroke-width: 1.5;" x1="341.5" x2="450.5" y1="217" y2="217"/><ellipse cx="351.5" cy="228.9775" fill="#84BE84" rx="3" ry="3" style="stroke: #038048; stroke-width: 1.0;"/><text fill="#000000" font-family="sans-serif" font-size="11" font-style="italic" lengthAdjust="spacingAndGlyphs" textLength="85" x="360.5" y="231.6348">detect(Mat): Mat</text></a><!--link org.rcdukes.detectors.StartLightDetector to org.rcdukes.detectors.LineDetector--><!--link org.rcdukes.detectors.StartLightDetector to org.rcdukes.detectors.LaneDetector--><!--link org.rcdukes.detectors.LaneDetector to org.rcdukes.detectors.EdgeDetector--><text fill="#888888" font-family="sans-serif" font-size="10" lengthAdjust="spacingAndGlyphs" textLength="182" x="208.5" y="273.668">UMLDoclet 1.1.4, PlantUML 1.2019.05</text><!--
@startuml

    namespace org.rcdukes.detectors {

        interface StartLightDetector [[StartLightDetector.html]] {
            {abstract} +detect(Image): StartLight
            {abstract} +withImageCollector(ImageCollector): StartLightDetector
        }

        interface LineDetector [[LineDetector.html]] {
            {abstract} +detect(Mat): Collection<Line>
        }

        interface LaneDetector [[LaneDetector.html]] {
            {abstract} +detect(Collection<Line>, ViewPort): Lane
        }

        interface EdgeDetector [[EdgeDetector.html]] {
            {abstract} +detect(Mat): Mat
        }

    }


    center footer UMLDoclet 1.1.4, PlantUML 1.2019.05
@enduml

PlantUML version 1.2019.05(Sat Apr 20 18:45:36 CEST 2019)
(APACHE source distribution)
Java Runtime: Java(TM) SE Runtime Environment
JVM: Java HotSpot(TM) 64-Bit Server VM
Java Version: 1.8.0_152-b16
Operating System: Mac OS X
OS Version: 10.13.6
Default Encoding: UTF-8
Language: de
Country: DE
--></g></svg>