<?xml version="1.0" encoding="UTF-8" standalone="no"?><svg xmlns="http://www.w3.org/2000/svg" xmlns:xlink="http://www.w3.org/1999/xlink" contentScriptType="application/ecmascript" contentStyleType="text/css" height="283px" preserveAspectRatio="none" style="width:276px;height:283px;" version="1.1" viewBox="0 0 276 283" width="276px" zoomAndPan="magnify"><defs><filter height="300%" id="frimp61tqda2b" width="300%" x="-1" y="-1"><feGaussianBlur result="blurOut" stdDeviation="2.0"/><feColorMatrix in="blurOut" result="blurOut2" type="matrix" values="0 0 0 0 0 0 0 0 0 0 0 0 0 0 0 0 0 0 .4 0"/><feOffset dx="4.0" dy="4.0" in="blurOut2" result="blurOut3"/><feBlend in="SourceGraphic" in2="blurOut3" mode="normal"/></filter></defs><g><!--cluster VideoRecorders--><polygon fill="#FFFFFF" filter="url(#frimp61tqda2b)" points="14,16,132,16,139,38.4883,254,38.4883,254,242,14,242,14,16" style="stroke: #000000; stroke-width: 1.5;"/><line style="stroke: #000000; stroke-width: 1.5;" x1="14" x2="139" y1="38.4883" y2="38.4883"/><text fill="#000000" font-family="sans-serif" font-size="14" font-weight="bold" lengthAdjust="spacingAndGlyphs" textLength="112" x="18" y="31.5352">VideoRecorders</text><!--class VideoRecorders.VideoInfo--><a href="VideoRecorders.VideoInfo.html" target="_top" xlink:actuate="onRequest" xlink:show="new" xlink:title="VideoRecorders.VideoInfo.html" xlink:type="simple"><rect fill="#FEFECE" filter="url(#frimp61tqda2b)" height="190.5059" id="VideoRecorders.VideoInfo" style="stroke: #A80036; stroke-width: 1.5;" width="224" x="22" y="43"/><ellipse cx="102.75" cy="59" fill="#ADD1B2" rx="11" ry="11" style="stroke: #A80036; stroke-width: 1.0;"/><path d="M105.7231,64.6431 Q105.1421,64.9419 104.5029,65.0913 Q103.8638,65.2407 103.1582,65.2407 Q100.6514,65.2407 99.3315,63.5889 Q98.0117,61.937 98.0117,58.8159 Q98.0117,55.6865 99.3315,54.0347 Q100.6514,52.3828 103.1582,52.3828 Q103.8638,52.3828 104.5112,52.5322 Q105.1587,52.6816 105.7231,52.9805 L105.7231,55.7031 Q105.0923,55.1221 104.4988,54.8523 Q103.9053,54.5825 103.2744,54.5825 Q101.9297,54.5825 101.2449,55.6492 Q100.5601,56.7158 100.5601,58.8159 Q100.5601,60.9077 101.2449,61.9744 Q101.9297,63.041 103.2744,63.041 Q103.9053,63.041 104.4988,62.7712 Q105.0923,62.5015 105.7231,61.9204 Z "/><text fill="#000000" font-family="sans-serif" font-size="12" lengthAdjust="spacingAndGlyphs" textLength="54" x="123.25" y="63.5352">VideoInfo</text><line style="stroke: #A80036; stroke-width: 1.5;" x1="23" x2="245" y1="75" y2="75"/><ellipse cx="33" cy="86.9775" fill="none" rx="3" ry="3" style="stroke: #038048; stroke-width: 1.0;"/><text fill="#000000" font-family="sans-serif" font-size="11" lengthAdjust="spacingAndGlyphs" textLength="60" x="42" y="89.6348">fps: double</text><ellipse cx="33" cy="99.9326" fill="none" rx="3" ry="3" style="stroke: #038048; stroke-width: 1.0;"/><text fill="#000000" font-family="sans-serif" font-size="11" lengthAdjust="spacingAndGlyphs" textLength="81" x="42" y="102.5898">frameIndex: int</text><ellipse cx="33" cy="112.8877" fill="none" rx="3" ry="3" style="stroke: #038048; stroke-width: 1.0;"/><text fill="#000000" font-family="sans-serif" font-size="11" lengthAdjust="spacingAndGlyphs" textLength="127" x="42" y="115.5449">minFrameIndex: Integer</text><ellipse cx="33" cy="125.8428" fill="none" rx="3" ry="3" style="stroke: #038048; stroke-width: 1.0;"/><text fill="#000000" font-family="sans-serif" font-size="11" lengthAdjust="spacingAndGlyphs" textLength="130" x="42" y="128.5">maxFrameIndex: Integer</text><ellipse cx="33" cy="138.7979" fill="none" rx="3" ry="3" style="stroke: #038048; stroke-width: 1.0;"/><text fill="#000000" font-family="sans-serif" font-size="11" lengthAdjust="spacingAndGlyphs" textLength="62" x="42" y="141.4551">path: String</text><line style="stroke: #A80036; stroke-width: 1.5;" x1="23" x2="245" y1="147.7754" y2="147.7754"/><ellipse cx="33" cy="159.7529" fill="#84BE84" rx="3" ry="3" style="stroke: #038048; stroke-width: 1.0;"/><text fill="#000000" font-family="sans-serif" font-size="11" lengthAdjust="spacingAndGlyphs" textLength="59" x="42" y="162.4102">VideoInfo()</text><ellipse cx="33" cy="172.708" fill="#84BE84" rx="3" ry="3" style="stroke: #038048; stroke-width: 1.0;"/><text fill="#000000" font-family="sans-serif" font-size="11" lengthAdjust="spacingAndGlyphs" textLength="96" x="42" y="175.3652">VideoInfo(double)</text><ellipse cx="33" cy="185.6631" fill="#84BE84" rx="3" ry="3" style="stroke: #038048; stroke-width: 1.0;"/><text fill="#000000" font-family="sans-serif" font-size="11" lengthAdjust="spacingAndGlyphs" textLength="198" x="42" y="188.3203">VideoInfo(VideoRecorders.VideoInfo)</text><ellipse cx="33" cy="198.6182" fill="#84BE84" rx="3" ry="3" style="stroke: #038048; stroke-width: 1.0;"/><text fill="#000000" font-family="sans-serif" font-size="11" lengthAdjust="spacingAndGlyphs" textLength="154" x="42" y="201.2754">setFrameIndex(Integer): void</text><ellipse cx="33" cy="211.5732" fill="#84BE84" rx="3" ry="3" style="stroke: #038048; stroke-width: 1.0;"/><text fill="#000000" font-family="sans-serif" font-size="11" lengthAdjust="spacingAndGlyphs" textLength="108" x="42" y="214.2305">setPath(String): void</text><ellipse cx="33" cy="224.5283" fill="#84BE84" rx="3" ry="3" style="stroke: #038048; stroke-width: 1.0;"/><text fill="#000000" font-family="sans-serif" font-size="11" lengthAdjust="spacingAndGlyphs" text-decoration="underline" textLength="142" x="42" y="227.1855">getNavigationFile(File): File</text></a><text fill="#888888" font-family="sans-serif" font-size="10" lengthAdjust="spacingAndGlyphs" textLength="182" x="49" y="269.668">UMLDoclet 1.1.4, PlantUML 1.2019.05</text><!--
@startuml

    class VideoRecorders.VideoInfo [[VideoRecorders.VideoInfo.html]] {
        +fps: double
        +frameIndex: int
        +minFrameIndex: Integer
        +maxFrameIndex: Integer
        +path: String
        +VideoInfo()
        +VideoInfo(double)
        +VideoInfo(VideoRecorders.VideoInfo)
        +setFrameIndex(Integer): void
        +setPath(String): void
        {static} +getNavigationFile(File): File
    }


    center footer UMLDoclet 1.1.4, PlantUML 1.2019.05
@enduml

PlantUML version 1.2019.05(Sat Apr 20 18:45:36 CEST 2019)
(APACHE source distribution)
Java Runtime: Java(TM) SE Runtime Environment
JVM: Java HotSpot(TM) 64-Bit Server VM
Java Version: 1.8.0_152-b16
Operating System: Mac OS X
OS Version: 10.13.6
Default Encoding: UTF-8
Language: de
Country: DE
--></g></svg>