<?xml version="1.0" encoding="UTF-8" standalone="no"?><svg xmlns="http://www.w3.org/2000/svg" xmlns:xlink="http://www.w3.org/1999/xlink" contentScriptType="application/ecmascript" contentStyleType="text/css" height="232px" preserveAspectRatio="none" style="width:209px;height:232px;" version="1.1" viewBox="0 0 209 232" width="209px" zoomAndPan="magnify"><defs><filter height="300%" id="f157ii28t8wvj0" width="300%" x="-1" y="-1"><feGaussianBlur result="blurOut" stdDeviation="2.0"/><feColorMatrix in="blurOut" result="blurOut2" type="matrix" values="0 0 0 0 0 0 0 0 0 0 0 0 0 0 0 0 0 0 .4 0"/><feOffset dx="4.0" dy="4.0" in="blurOut2" result="blurOut3"/><feBlend in="SourceGraphic" in2="blurOut3" mode="normal"/></filter></defs><g><!--class VideoRecorder--><a href="VideoRecorder.html" target="_top" xlink:actuate="onRequest" xlink:show="new" xlink:title="VideoRecorder.html" xlink:type="simple"><rect fill="#FEFECE" filter="url(#f157ii28t8wvj0)" height="190.5059" id="VideoRecorder" style="stroke: #A80036; stroke-width: 1.5;" width="188" x="6" y="8"/><ellipse cx="52.75" cy="24" fill="#ADD1B2" rx="11" ry="11" style="stroke: #A80036; stroke-width: 1.0;"/><path d="M55.7231,29.6431 Q55.1421,29.9419 54.5029,30.0913 Q53.8638,30.2407 53.1582,30.2407 Q50.6514,30.2407 49.3315,28.5889 Q48.0117,26.937 48.0117,23.8159 Q48.0117,20.6865 49.3315,19.0347 Q50.6514,17.3828 53.1582,17.3828 Q53.8638,17.3828 54.5112,17.5322 Q55.1587,17.6816 55.7231,17.9805 L55.7231,20.7031 Q55.0923,20.1221 54.4988,19.8523 Q53.9053,19.5825 53.2744,19.5825 Q51.9297,19.5825 51.2449,20.6492 Q50.5601,21.7158 50.5601,23.8159 Q50.5601,25.9077 51.2449,26.9744 Q51.9297,28.041 53.2744,28.041 Q53.9053,28.041 54.4988,27.7712 Q55.0923,27.5015 55.7231,26.9204 Z "/><text fill="#000000" font-family="sans-serif" font-size="12" lengthAdjust="spacingAndGlyphs" textLength="86" x="73.25" y="28.5352">VideoRecorder</text><line style="stroke: #A80036; stroke-width: 1.5;" x1="7" x2="193" y1="40" y2="40"/><ellipse cx="17" cy="51.9775" fill="none" rx="3" ry="3" style="stroke: #038048; stroke-width: 1.0;"/><text fill="#000000" font-family="sans-serif" font-size="11" lengthAdjust="spacingAndGlyphs" text-decoration="underline" textLength="69" x="26" y="54.6348">exts: String[]</text><ellipse cx="17" cy="64.9326" fill="none" rx="3" ry="3" style="stroke: #038048; stroke-width: 1.0;"/><text fill="#000000" font-family="sans-serif" font-size="11" lengthAdjust="spacingAndGlyphs" text-decoration="underline" textLength="98" x="26" y="67.5898">FOURCCs: String[]</text><ellipse cx="17" cy="77.8877" fill="none" rx="3" ry="3" style="stroke: #038048; stroke-width: 1.0;"/><text fill="#000000" font-family="sans-serif" font-size="11" lengthAdjust="spacingAndGlyphs" text-decoration="underline" textLength="84" x="26" y="80.5449">FOURCC: String</text><line style="stroke: #A80036; stroke-width: 1.5;" x1="7" x2="193" y1="86.8652" y2="86.8652"/><ellipse cx="17" cy="98.8428" fill="#84BE84" rx="3" ry="3" style="stroke: #038048; stroke-width: 1.0;"/><text fill="#000000" font-family="sans-serif" font-size="11" lengthAdjust="spacingAndGlyphs" textLength="162" x="26" y="101.5">VideoRecorder(String, double)</text><ellipse cx="17" cy="111.7979" fill="#84BE84" rx="3" ry="3" style="stroke: #038048; stroke-width: 1.0;"/><text fill="#000000" font-family="sans-serif" font-size="11" lengthAdjust="spacingAndGlyphs" textLength="132" x="26" y="114.4551">start(Size, boolean): void</text><ellipse cx="17" cy="124.7529" fill="#84BE84" rx="3" ry="3" style="stroke: #038048; stroke-width: 1.0;"/><text fill="#000000" font-family="sans-serif" font-size="11" lengthAdjust="spacingAndGlyphs" textLength="61" x="26" y="127.4102">stop(): void</text><ellipse cx="17" cy="137.708" fill="#84BE84" rx="3" ry="3" style="stroke: #038048; stroke-width: 1.0;"/><text fill="#000000" font-family="sans-serif" font-size="11" lengthAdjust="spacingAndGlyphs" textLength="111" x="26" y="140.3652">recordMat(Mat): void</text><ellipse cx="17" cy="150.6631" fill="#84BE84" rx="3" ry="3" style="stroke: #038048; stroke-width: 1.0;"/><text fill="#000000" font-family="sans-serif" font-size="11" lengthAdjust="spacingAndGlyphs" textLength="86" x="26" y="153.3203">getPath(): String</text><ellipse cx="17" cy="163.6182" fill="#84BE84" rx="3" ry="3" style="stroke: #038048; stroke-width: 1.0;"/><text fill="#000000" font-family="sans-serif" font-size="11" lengthAdjust="spacingAndGlyphs" textLength="108" x="26" y="166.2754">setPath(String): void</text><ellipse cx="17" cy="176.5732" fill="#84BE84" rx="3" ry="3" style="stroke: #038048; stroke-width: 1.0;"/><text fill="#000000" font-family="sans-serif" font-size="11" lengthAdjust="spacingAndGlyphs" textLength="80" x="26" y="179.2305">getExt(): String</text><ellipse cx="17" cy="189.5283" fill="#84BE84" rx="3" ry="3" style="stroke: #038048; stroke-width: 1.0;"/><text fill="#000000" font-family="sans-serif" font-size="11" lengthAdjust="spacingAndGlyphs" textLength="102" x="26" y="192.1855">setExt(String): void</text></a><text fill="#888888" font-family="sans-serif" font-size="10" lengthAdjust="spacingAndGlyphs" textLength="182" x="15" y="218.668">UMLDoclet 1.1.4, PlantUML 1.2019.05</text><!--
@startuml

    class VideoRecorder [[VideoRecorder.html]] {
        {static} +exts: String[]
        {static} +FOURCCs: String[]
        {static} +FOURCC: String
        +VideoRecorder(String, double)
        +start(Size, boolean): void
        +stop(): void
        +recordMat(Mat): void
        +getPath(): String
        +setPath(String): void
        +getExt(): String
        +setExt(String): void
    }


    center footer UMLDoclet 1.1.4, PlantUML 1.2019.05
@enduml

PlantUML version 1.2019.05(Sat Apr 20 18:45:36 CEST 2019)
(APACHE source distribution)
Java Runtime: Java(TM) SE Runtime Environment
JVM: Java HotSpot(TM) 64-Bit Server VM
Java Version: 1.8.0_152-b16
Operating System: Mac OS X
OS Version: 10.13.6
Default Encoding: UTF-8
Language: de
Country: DE
--></g></svg>