<?xml version="1.0" encoding="UTF-8" standalone="no"?><svg xmlns="http://www.w3.org/2000/svg" xmlns:xlink="http://www.w3.org/1999/xlink" contentScriptType="application/ecmascript" contentStyleType="text/css" height="166px" preserveAspectRatio="none" style="width:311px;height:166px;" version="1.1" viewBox="0 0 311 166" width="311px" zoomAndPan="magnify"><defs><filter height="300%" id="fz3xnd029zb7y" width="300%" x="-1" y="-1"><feGaussianBlur result="blurOut" stdDeviation="2.0"/><feColorMatrix in="blurOut" result="blurOut2" type="matrix" values="0 0 0 0 0 0 0 0 0 0 0 0 0 0 0 0 0 0 .4 0"/><feOffset dx="4.0" dy="4.0" in="blurOut2" result="blurOut3"/><feBlend in="SourceGraphic" in2="blurOut3" mode="normal"/></filter></defs><g><!--cluster nl.vaneijndhoven.opencv.perspective--><polygon fill="#FFFFFF" filter="url(#fz3xnd029zb7y)" points="14,16,279,16,286,38.4883,289,38.4883,289,125,14,125,14,16" style="stroke: #000000; stroke-width: 1.5;"/><line style="stroke: #000000; stroke-width: 1.5;" x1="14" x2="286" y1="38.4883" y2="38.4883"/><text fill="#000000" font-family="sans-serif" font-size="14" font-weight="bold" lengthAdjust="spacingAndGlyphs" textLength="259" x="18" y="31.5352">nl.vaneijndhoven.opencv.perspective</text><!--class nl.vaneijndhoven.opencv.perspective.TransformToBirdsEye--><a href="TransformToBirdsEye.html" target="_top" xlink:actuate="onRequest" xlink:show="new" xlink:title="TransformToBirdsEye.html" xlink:type="simple"><rect fill="#FEFECE" filter="url(#fz3xnd029zb7y)" height="73.9102" id="nl.vaneijndhoven.opencv.perspective.TransformToBirdsEye" style="stroke: #A80036; stroke-width: 1.5;" width="242" x="30" y="43"/><ellipse cx="84.75" cy="59" fill="#ADD1B2" rx="11" ry="11" style="stroke: #A80036; stroke-width: 1.0;"/><path d="M87.7231,64.6431 Q87.1421,64.9419 86.5029,65.0913 Q85.8638,65.2407 85.1582,65.2407 Q82.6514,65.2407 81.3315,63.5889 Q80.0117,61.937 80.0117,58.8159 Q80.0117,55.6865 81.3315,54.0347 Q82.6514,52.3828 85.1582,52.3828 Q85.8638,52.3828 86.5112,52.5322 Q87.1587,52.6816 87.7231,52.9805 L87.7231,55.7031 Q87.0923,55.1221 86.4988,54.8523 Q85.9053,54.5825 85.2744,54.5825 Q83.9297,54.5825 83.2449,55.6492 Q82.5601,56.7158 82.5601,58.8159 Q82.5601,60.9077 83.2449,61.9744 Q83.9297,63.041 85.2744,63.041 Q85.9053,63.041 86.4988,62.7712 Q87.0923,62.5015 87.7231,61.9204 Z "/><text fill="#000000" font-family="sans-serif" font-size="12" lengthAdjust="spacingAndGlyphs" textLength="124" x="105.25" y="63.5352">TransformToBirdsEye</text><line style="stroke: #A80036; stroke-width: 1.5;" x1="31" x2="271" y1="75" y2="75"/><line style="stroke: #A80036; stroke-width: 1.5;" x1="31" x2="271" y1="83" y2="83"/><ellipse cx="41" cy="94.9775" fill="#84BE84" rx="3" ry="3" style="stroke: #038048; stroke-width: 1.0;"/><text fill="#000000" font-family="sans-serif" font-size="11" lengthAdjust="spacingAndGlyphs" textLength="216" x="50" y="97.6348">TransformToBirdsEye(Polygon, Polygon)</text><ellipse cx="41" cy="107.9326" fill="#84BE84" rx="3" ry="3" style="stroke: #038048; stroke-width: 1.0;"/><text fill="#000000" font-family="sans-serif" font-size="11" lengthAdjust="spacingAndGlyphs" textLength="106" x="50" y="110.5898">transform(Mat): Mat</text></a><text fill="#888888" font-family="sans-serif" font-size="10" lengthAdjust="spacingAndGlyphs" textLength="182" x="66.5" y="152.668">UMLDoclet 1.1.4, PlantUML 1.2019.05</text><!--
@startuml

    namespace nl.vaneijndhoven.opencv.perspective {

        class TransformToBirdsEye [[TransformToBirdsEye.html]] {
            +TransformToBirdsEye(Polygon, Polygon)
            +transform(Mat): Mat
        }

    }


    center footer UMLDoclet 1.1.4, PlantUML 1.2019.05
@enduml

PlantUML version 1.2019.05(Sat Apr 20 18:45:36 CEST 2019)
(APACHE source distribution)
Java Runtime: Java(TM) SE Runtime Environment
JVM: Java HotSpot(TM) 64-Bit Server VM
Java Version: 1.8.0_191-b12
Operating System: Mac OS X
OS Version: 10.13.6
Default Encoding: UTF-8
Language: de
Country: DE
--></g></svg>