<?xml version="1.0" encoding="UTF-8" standalone="no"?><svg xmlns="http://www.w3.org/2000/svg" xmlns:xlink="http://www.w3.org/1999/xlink" contentScriptType="application/ecmascript" contentStyleType="text/css" height="244px" preserveAspectRatio="none" style="width:199px;height:244px;" version="1.1" viewBox="0 0 199 244" width="199px" zoomAndPan="magnify"><defs><filter height="300%" id="fnlj5oajsya13" width="300%" x="-1" y="-1"><feGaussianBlur result="blurOut" stdDeviation="2.0"/><feColorMatrix in="blurOut" result="blurOut2" type="matrix" values="0 0 0 0 0 0 0 0 0 0 0 0 0 0 0 0 0 0 .4 0"/><feOffset dx="4.0" dy="4.0" in="blurOut2" result="blurOut3"/><feBlend in="SourceGraphic" in2="blurOut3" mode="normal"/></filter></defs><g><!--class EngineMap--><a href="EngineMap.html" target="_top" xlink:actuate="onRequest" xlink:show="new" xlink:title="EngineMap.html" xlink:type="simple"><rect fill="#FEFECE" filter="url(#fnlj5oajsya13)" height="203.4609" id="EngineMap" style="stroke: #A80036; stroke-width: 1.5;" width="168" x="6" y="8"/><ellipse cx="54.25" cy="24" fill="#ADD1B2" rx="11" ry="11" style="stroke: #A80036; stroke-width: 1.0;"/><path d="M57.2231,29.6431 Q56.6421,29.9419 56.0029,30.0913 Q55.3638,30.2407 54.6582,30.2407 Q52.1514,30.2407 50.8315,28.5889 Q49.5117,26.937 49.5117,23.8159 Q49.5117,20.6865 50.8315,19.0347 Q52.1514,17.3828 54.6582,17.3828 Q55.3638,17.3828 56.0112,17.5322 Q56.6587,17.6816 57.2231,17.9805 L57.2231,20.7031 Q56.5923,20.1221 55.9988,19.8523 Q55.4053,19.5825 54.7744,19.5825 Q53.4297,19.5825 52.7449,20.6492 Q52.0601,21.7158 52.0601,23.8159 Q52.0601,25.9077 52.7449,26.9744 Q53.4297,28.041 54.7744,28.041 Q55.4053,28.041 55.9988,27.7712 Q56.5923,27.5015 57.2231,26.9204 Z "/><text fill="#000000" font-family="sans-serif" font-size="12" lengthAdjust="spacingAndGlyphs" textLength="63" x="74.75" y="28.5352">EngineMap</text><line style="stroke: #A80036; stroke-width: 1.5;" x1="7" x2="173" y1="40" y2="40"/><ellipse cx="17" cy="51.9775" fill="none" rx="3" ry="3" style="stroke: #038048; stroke-width: 1.0;"/><text fill="#000000" font-family="sans-serif" font-size="11" lengthAdjust="spacingAndGlyphs" text-decoration="underline" textLength="87" x="26" y="54.6348">SPEED_ZERO: int</text><ellipse cx="17" cy="64.9326" fill="none" rx="3" ry="3" style="stroke: #038048; stroke-width: 1.0;"/><text fill="#000000" font-family="sans-serif" font-size="11" lengthAdjust="spacingAndGlyphs" text-decoration="underline" textLength="111" x="26" y="67.5898">SPEED_STEP_SIZE: int</text><ellipse cx="17" cy="77.8877" fill="none" rx="3" ry="3" style="stroke: #038048; stroke-width: 1.0;"/><text fill="#000000" font-family="sans-serif" font-size="11" lengthAdjust="spacingAndGlyphs" text-decoration="underline" textLength="129" x="26" y="80.5449">MIN_SPEED_REVERSE: int</text><ellipse cx="17" cy="90.8428" fill="none" rx="3" ry="3" style="stroke: #038048; stroke-width: 1.0;"/><text fill="#000000" font-family="sans-serif" font-size="11" lengthAdjust="spacingAndGlyphs" text-decoration="underline" textLength="138" x="26" y="93.5">MIN_SPEED_FORWARD: int</text><ellipse cx="17" cy="103.7979" fill="none" rx="3" ry="3" style="stroke: #038048; stroke-width: 1.0;"/><text fill="#000000" font-family="sans-serif" font-size="11" lengthAdjust="spacingAndGlyphs" text-decoration="underline" textLength="133" x="26" y="106.4551">MAX_SPEED_REVERSE: int</text><ellipse cx="17" cy="116.7529" fill="none" rx="3" ry="3" style="stroke: #038048; stroke-width: 1.0;"/><text fill="#000000" font-family="sans-serif" font-size="11" lengthAdjust="spacingAndGlyphs" text-decoration="underline" textLength="142" x="26" y="119.4102">MAX_SPEED_FORWARD: int</text><line style="stroke: #A80036; stroke-width: 1.5;" x1="7" x2="173" y1="125.7305" y2="125.7305"/><ellipse cx="17" cy="137.708" fill="#84BE84" rx="3" ry="3" style="stroke: #038048; stroke-width: 1.0;"/><text fill="#000000" font-family="sans-serif" font-size="11" lengthAdjust="spacingAndGlyphs" textLength="66" x="26" y="140.3652">neutral(): int</text><ellipse cx="17" cy="150.6631" fill="#84BE84" rx="3" ry="3" style="stroke: #038048; stroke-width: 1.0;"/><text fill="#000000" font-family="sans-serif" font-size="11" lengthAdjust="spacingAndGlyphs" textLength="72" x="26" y="153.3203">stepSize(): int</text><ellipse cx="17" cy="163.6182" fill="#84BE84" rx="3" ry="3" style="stroke: #038048; stroke-width: 1.0;"/><text fill="#000000" font-family="sans-serif" font-size="11" lengthAdjust="spacingAndGlyphs" textLength="90" x="26" y="166.2754">minReverse(): int</text><ellipse cx="17" cy="176.5732" fill="#84BE84" rx="3" ry="3" style="stroke: #038048; stroke-width: 1.0;"/><text fill="#000000" font-family="sans-serif" font-size="11" lengthAdjust="spacingAndGlyphs" textLength="93" x="26" y="179.2305">maxReverse(): int</text><ellipse cx="17" cy="189.5283" fill="#84BE84" rx="3" ry="3" style="stroke: #038048; stroke-width: 1.0;"/><text fill="#000000" font-family="sans-serif" font-size="11" lengthAdjust="spacingAndGlyphs" textLength="92" x="26" y="192.1855">minForward(): int</text><ellipse cx="17" cy="202.4834" fill="#84BE84" rx="3" ry="3" style="stroke: #038048; stroke-width: 1.0;"/><text fill="#000000" font-family="sans-serif" font-size="11" lengthAdjust="spacingAndGlyphs" textLength="95" x="26" y="205.1406">maxForward(): int</text></a><text fill="#888888" font-family="sans-serif" font-size="10" lengthAdjust="spacingAndGlyphs" textLength="182" x="5" y="230.668">UMLDoclet 1.1.4, PlantUML 1.2019.05</text><!--
@startuml

    class EngineMap [[EngineMap.html]] {
        {static} +SPEED_ZERO: int
        {static} +SPEED_STEP_SIZE: int
        {static} +MIN_SPEED_REVERSE: int
        {static} +MIN_SPEED_FORWARD: int
        {static} +MAX_SPEED_REVERSE: int
        {static} +MAX_SPEED_FORWARD: int
        +neutral(): int
        +stepSize(): int
        +minReverse(): int
        +maxReverse(): int
        +minForward(): int
        +maxForward(): int
    }


    center footer UMLDoclet 1.1.4, PlantUML 1.2019.05
@enduml

PlantUML version 1.2019.05(Sat Apr 20 18:45:36 CEST 2019)
(APACHE source distribution)
Java Runtime: Java(TM) SE Runtime Environment
JVM: Java HotSpot(TM) 64-Bit Server VM
Java Version: 1.8.0_152-b16
Operating System: Mac OS X
OS Version: 10.13.6
Default Encoding: UTF-8
Language: de
Country: DE
--></g></svg>