<?xml version="1.0" encoding="UTF-8" standalone="no"?><svg xmlns="http://www.w3.org/2000/svg" xmlns:xlink="http://www.w3.org/1999/xlink" contentScriptType="application/ecmascript" contentStyleType="text/css" height="481px" preserveAspectRatio="none" style="width:538px;height:481px;" version="1.1" viewBox="0 0 538 481" width="538px" zoomAndPan="magnify"><defs><filter height="300%" id="f16ce3l6upd6li" width="300%" x="-1" y="-1"><feGaussianBlur result="blurOut" stdDeviation="2.0"/><feColorMatrix in="blurOut" result="blurOut2" type="matrix" values="0 0 0 0 0 0 0 0 0 0 0 0 0 0 0 0 0 0 .4 0"/><feOffset dx="4.0" dy="4.0" in="blurOut2" result="blurOut3"/><feBlend in="SourceGraphic" in2="blurOut3" mode="normal"/></filter></defs><g><!--cluster nl.vaneijndhoven.dukes.generallee--><polygon fill="#FFFFFF" filter="url(#f16ce3l6upd6li)" points="14,202,264,202,271,224.4883,516,224.4883,516,440,14,440,14,202" style="stroke: #000000; stroke-width: 1.5;"/><line style="stroke: #000000; stroke-width: 1.5;" x1="14" x2="271" y1="224.4883" y2="224.4883"/><text fill="#000000" font-family="sans-serif" font-size="14" font-weight="bold" lengthAdjust="spacingAndGlyphs" textLength="244" x="18" y="217.5352">nl.vaneijndhoven.dukes.generallee</text><!--cluster nl.vaneijndhoven.dukes.car--><polygon fill="#FFFFFF" filter="url(#f16ce3l6upd6li)" points="193,16,390,16,397,38.4883,471,38.4883,471,177,193,177,193,16" style="stroke: #000000; stroke-width: 1.5;"/><line style="stroke: #000000; stroke-width: 1.5;" x1="193" x2="397" y1="38.4883" y2="38.4883"/><text fill="#000000" font-family="sans-serif" font-size="14" font-weight="bold" lengthAdjust="spacingAndGlyphs" textLength="191" x="197" y="31.5352">nl.vaneijndhoven.dukes.car</text><!--class nl.vaneijndhoven.dukes.generallee.SteeringMap--><a href="SteeringMap.html" target="_top" xlink:actuate="onRequest" xlink:show="new" xlink:title="SteeringMap.html" xlink:type="simple"><rect fill="#FEFECE" filter="url(#f16ce3l6upd6li)" height="151.6406" id="nl.vaneijndhoven.dukes.generallee.SteeringMap" style="stroke: #A80036; stroke-width: 1.5;" width="150" x="358" y="254.5"/><ellipse cx="394.15" cy="270.5" fill="#ADD1B2" rx="11" ry="11" style="stroke: #A80036; stroke-width: 1.0;"/><path d="M397.1231,276.1431 Q396.5421,276.4419 395.9029,276.5913 Q395.2638,276.7407 394.5582,276.7407 Q392.0514,276.7407 390.7315,275.0889 Q389.4117,273.437 389.4117,270.3159 Q389.4117,267.1865 390.7315,265.5347 Q392.0514,263.8828 394.5582,263.8828 Q395.2638,263.8828 395.9112,264.0322 Q396.5587,264.1816 397.1231,264.4805 L397.1231,267.2031 Q396.4923,266.6221 395.8988,266.3523 Q395.3053,266.0825 394.6744,266.0825 Q393.3297,266.0825 392.6449,267.1492 Q391.9601,268.2158 391.9601,270.3159 Q391.9601,272.4077 392.6449,273.4744 Q393.3297,274.541 394.6744,274.541 Q395.3053,274.541 395.8988,274.2712 Q396.4923,274.0015 397.1231,273.4204 Z "/><text fill="#000000" font-family="sans-serif" font-size="12" lengthAdjust="spacingAndGlyphs" textLength="71" x="412.85" y="275.0352">SteeringMap</text><line style="stroke: #A80036; stroke-width: 1.5;" x1="359" x2="507" y1="286.5" y2="286.5"/><ellipse cx="369" cy="298.4775" fill="none" rx="3" ry="3" style="stroke: #038048; stroke-width: 1.0;"/><text fill="#000000" font-family="sans-serif" font-size="11" lengthAdjust="spacingAndGlyphs" text-decoration="underline" textLength="103" x="378" y="301.1348">WHEEL_CENTER: int</text><ellipse cx="369" cy="311.4326" fill="none" rx="3" ry="3" style="stroke: #038048; stroke-width: 1.0;"/><text fill="#000000" font-family="sans-serif" font-size="11" lengthAdjust="spacingAndGlyphs" text-decoration="underline" textLength="114" x="378" y="314.0898">WHEEL_STEP_SIZE: int</text><ellipse cx="369" cy="324.3877" fill="none" rx="3" ry="3" style="stroke: #038048; stroke-width: 1.0;"/><text fill="#000000" font-family="sans-serif" font-size="11" lengthAdjust="spacingAndGlyphs" text-decoration="underline" textLength="116" x="378" y="327.0449">WHEEL_MAX_LEFT: int</text><ellipse cx="369" cy="337.3428" fill="none" rx="3" ry="3" style="stroke: #038048; stroke-width: 1.0;"/><text fill="#000000" font-family="sans-serif" font-size="11" lengthAdjust="spacingAndGlyphs" text-decoration="underline" textLength="124" x="378" y="340">WHEEL_MAX_RIGHT: int</text><line style="stroke: #A80036; stroke-width: 1.5;" x1="359" x2="507" y1="346.3203" y2="346.3203"/><ellipse cx="369" cy="358.2979" fill="#84BE84" rx="3" ry="3" style="stroke: #038048; stroke-width: 1.0;"/><text fill="#000000" font-family="sans-serif" font-size="11" lengthAdjust="spacingAndGlyphs" textLength="62" x="378" y="360.9551">center(): int</text><ellipse cx="369" cy="371.2529" fill="#84BE84" rx="3" ry="3" style="stroke: #038048; stroke-width: 1.0;"/><text fill="#000000" font-family="sans-serif" font-size="11" lengthAdjust="spacingAndGlyphs" textLength="72" x="378" y="373.9102">stepSize(): int</text><ellipse cx="369" cy="384.208" fill="#84BE84" rx="3" ry="3" style="stroke: #038048; stroke-width: 1.0;"/><text fill="#000000" font-family="sans-serif" font-size="11" lengthAdjust="spacingAndGlyphs" textLength="71" x="378" y="386.8652">maxLeft(): int</text><ellipse cx="369" cy="397.1631" fill="#84BE84" rx="3" ry="3" style="stroke: #038048; stroke-width: 1.0;"/><text fill="#000000" font-family="sans-serif" font-size="11" lengthAdjust="spacingAndGlyphs" textLength="79" x="378" y="399.8203">maxRight(): int</text></a><!--class nl.vaneijndhoven.dukes.generallee.EngineMap--><a href="EngineMap.html" target="_top" xlink:actuate="onRequest" xlink:show="new" xlink:title="EngineMap.html" xlink:type="simple"><rect fill="#FEFECE" filter="url(#f16ce3l6upd6li)" height="203.4609" id="nl.vaneijndhoven.dukes.generallee.EngineMap" style="stroke: #A80036; stroke-width: 1.5;" width="168" x="155" y="229"/><ellipse cx="203.25" cy="245" fill="#ADD1B2" rx="11" ry="11" style="stroke: #A80036; stroke-width: 1.0;"/><path d="M206.2231,250.6431 Q205.6421,250.9419 205.0029,251.0913 Q204.3638,251.2407 203.6582,251.2407 Q201.1514,251.2407 199.8315,249.5889 Q198.5117,247.937 198.5117,244.8159 Q198.5117,241.6865 199.8315,240.0347 Q201.1514,238.3828 203.6582,238.3828 Q204.3638,238.3828 205.0112,238.5322 Q205.6587,238.6816 206.2231,238.9805 L206.2231,241.7031 Q205.5923,241.1221 204.9988,240.8523 Q204.4053,240.5825 203.7744,240.5825 Q202.4297,240.5825 201.7449,241.6492 Q201.0601,242.7158 201.0601,244.8159 Q201.0601,246.9077 201.7449,247.9744 Q202.4297,249.041 203.7744,249.041 Q204.4053,249.041 204.9988,248.7712 Q205.5923,248.5015 206.2231,247.9204 Z "/><text fill="#000000" font-family="sans-serif" font-size="12" lengthAdjust="spacingAndGlyphs" textLength="63" x="223.75" y="249.5352">EngineMap</text><line style="stroke: #A80036; stroke-width: 1.5;" x1="156" x2="322" y1="261" y2="261"/><ellipse cx="166" cy="272.9775" fill="none" rx="3" ry="3" style="stroke: #038048; stroke-width: 1.0;"/><text fill="#000000" font-family="sans-serif" font-size="11" lengthAdjust="spacingAndGlyphs" text-decoration="underline" textLength="87" x="175" y="275.6348">SPEED_ZERO: int</text><ellipse cx="166" cy="285.9326" fill="none" rx="3" ry="3" style="stroke: #038048; stroke-width: 1.0;"/><text fill="#000000" font-family="sans-serif" font-size="11" lengthAdjust="spacingAndGlyphs" text-decoration="underline" textLength="111" x="175" y="288.5898">SPEED_STEP_SIZE: int</text><ellipse cx="166" cy="298.8877" fill="none" rx="3" ry="3" style="stroke: #038048; stroke-width: 1.0;"/><text fill="#000000" font-family="sans-serif" font-size="11" lengthAdjust="spacingAndGlyphs" text-decoration="underline" textLength="129" x="175" y="301.5449">MIN_SPEED_REVERSE: int</text><ellipse cx="166" cy="311.8428" fill="none" rx="3" ry="3" style="stroke: #038048; stroke-width: 1.0;"/><text fill="#000000" font-family="sans-serif" font-size="11" lengthAdjust="spacingAndGlyphs" text-decoration="underline" textLength="138" x="175" y="314.5">MIN_SPEED_FORWARD: int</text><ellipse cx="166" cy="324.7979" fill="none" rx="3" ry="3" style="stroke: #038048; stroke-width: 1.0;"/><text fill="#000000" font-family="sans-serif" font-size="11" lengthAdjust="spacingAndGlyphs" text-decoration="underline" textLength="133" x="175" y="327.4551">MAX_SPEED_REVERSE: int</text><ellipse cx="166" cy="337.7529" fill="none" rx="3" ry="3" style="stroke: #038048; stroke-width: 1.0;"/><text fill="#000000" font-family="sans-serif" font-size="11" lengthAdjust="spacingAndGlyphs" text-decoration="underline" textLength="142" x="175" y="340.4102">MAX_SPEED_FORWARD: int</text><line style="stroke: #A80036; stroke-width: 1.5;" x1="156" x2="322" y1="346.7305" y2="346.7305"/><ellipse cx="166" cy="358.708" fill="#84BE84" rx="3" ry="3" style="stroke: #038048; stroke-width: 1.0;"/><text fill="#000000" font-family="sans-serif" font-size="11" lengthAdjust="spacingAndGlyphs" textLength="66" x="175" y="361.3652">neutral(): int</text><ellipse cx="166" cy="371.6631" fill="#84BE84" rx="3" ry="3" style="stroke: #038048; stroke-width: 1.0;"/><text fill="#000000" font-family="sans-serif" font-size="11" lengthAdjust="spacingAndGlyphs" textLength="72" x="175" y="374.3203">stepSize(): int</text><ellipse cx="166" cy="384.6182" fill="#84BE84" rx="3" ry="3" style="stroke: #038048; stroke-width: 1.0;"/><text fill="#000000" font-family="sans-serif" font-size="11" lengthAdjust="spacingAndGlyphs" textLength="90" x="175" y="387.2754">minReverse(): int</text><ellipse cx="166" cy="397.5732" fill="#84BE84" rx="3" ry="3" style="stroke: #038048; stroke-width: 1.0;"/><text fill="#000000" font-family="sans-serif" font-size="11" lengthAdjust="spacingAndGlyphs" textLength="93" x="175" y="400.2305">maxReverse(): int</text><ellipse cx="166" cy="410.5283" fill="#84BE84" rx="3" ry="3" style="stroke: #038048; stroke-width: 1.0;"/><text fill="#000000" font-family="sans-serif" font-size="11" lengthAdjust="spacingAndGlyphs" textLength="92" x="175" y="413.1855">minForward(): int</text><ellipse cx="166" cy="423.4834" fill="#84BE84" rx="3" ry="3" style="stroke: #038048; stroke-width: 1.0;"/><text fill="#000000" font-family="sans-serif" font-size="11" lengthAdjust="spacingAndGlyphs" textLength="95" x="175" y="426.1406">maxForward(): int</text></a><!--class nl.vaneijndhoven.dukes.generallee.GeneralLee--><a href="GeneralLee.html" target="_top" xlink:actuate="onRequest" xlink:show="new" xlink:title="GeneralLee.html" xlink:type="simple"><rect fill="#FEFECE" filter="url(#f16ce3l6upd6li)" height="48" id="nl.vaneijndhoven.dukes.generallee.GeneralLee" style="stroke: #A80036; stroke-width: 1.5;" width="97" x="22.5" y="306.5"/><ellipse cx="37.5" cy="322.5" fill="#ADD1B2" rx="11" ry="11" style="stroke: #A80036; stroke-width: 1.0;"/><path d="M40.4731,328.1431 Q39.8921,328.4419 39.2529,328.5913 Q38.6138,328.7407 37.9082,328.7407 Q35.4014,328.7407 34.0815,327.0889 Q32.7617,325.437 32.7617,322.3159 Q32.7617,319.1865 34.0815,317.5347 Q35.4014,315.8828 37.9082,315.8828 Q38.6138,315.8828 39.2612,316.0322 Q39.9087,316.1816 40.4731,316.4805 L40.4731,319.2031 Q39.8423,318.6221 39.2488,318.3523 Q38.6553,318.0825 38.0244,318.0825 Q36.6797,318.0825 35.9949,319.1492 Q35.3101,320.2158 35.3101,322.3159 Q35.3101,324.4077 35.9949,325.4744 Q36.6797,326.541 38.0244,326.541 Q38.6553,326.541 39.2488,326.2712 Q39.8423,326.0015 40.4731,325.4204 Z "/><text fill="#000000" font-family="sans-serif" font-size="12" lengthAdjust="spacingAndGlyphs" textLength="65" x="51.5" y="327.0352">GeneralLee</text><line style="stroke: #A80036; stroke-width: 1.5;" x1="23.5" x2="118.5" y1="338.5" y2="338.5"/><line style="stroke: #A80036; stroke-width: 1.5;" x1="23.5" x2="118.5" y1="346.5" y2="346.5"/></a><!--class nl.vaneijndhoven.dukes.car.SteeringMap--><rect fill="#FEFECE" filter="url(#f16ce3l6upd6li)" height="99.8203" id="nl.vaneijndhoven.dukes.car.SteeringMap" style="stroke: #A80036; stroke-width: 1.5;" width="105" x="357.5" y="56"/><ellipse cx="373.4" cy="72" fill="#B4A7E5" rx="11" ry="11" style="stroke: #A80036; stroke-width: 1.0;"/><path d="M369.3277,67.7651 L369.3277,65.6069 L376.7071,65.6069 L376.7071,67.7651 L374.2418,67.7651 L374.2418,75.8418 L376.7071,75.8418 L376.7071,78 L369.3277,78 L369.3277,75.8418 L371.7931,75.8418 L371.7931,67.7651 Z "/><text fill="#000000" font-family="sans-serif" font-size="12" font-style="italic" lengthAdjust="spacingAndGlyphs" textLength="71" x="387.6" y="76.5352">SteeringMap</text><line style="stroke: #A80036; stroke-width: 1.5;" x1="358.5" x2="461.5" y1="88" y2="88"/><line style="stroke: #A80036; stroke-width: 1.5;" x1="358.5" x2="461.5" y1="96" y2="96"/><ellipse cx="368.5" cy="107.9775" fill="#84BE84" rx="3" ry="3" style="stroke: #038048; stroke-width: 1.0;"/><text fill="#000000" font-family="sans-serif" font-size="11" font-style="italic" lengthAdjust="spacingAndGlyphs" textLength="62" x="377.5" y="110.6348">center(): int</text><ellipse cx="368.5" cy="120.9326" fill="#84BE84" rx="3" ry="3" style="stroke: #038048; stroke-width: 1.0;"/><text fill="#000000" font-family="sans-serif" font-size="11" font-style="italic" lengthAdjust="spacingAndGlyphs" textLength="72" x="377.5" y="123.5898">stepSize(): int</text><ellipse cx="368.5" cy="133.8877" fill="#84BE84" rx="3" ry="3" style="stroke: #038048; stroke-width: 1.0;"/><text fill="#000000" font-family="sans-serif" font-size="11" font-style="italic" lengthAdjust="spacingAndGlyphs" textLength="71" x="377.5" y="136.5449">maxLeft(): int</text><ellipse cx="368.5" cy="146.8428" fill="#84BE84" rx="3" ry="3" style="stroke: #038048; stroke-width: 1.0;"/><text fill="#000000" font-family="sans-serif" font-size="11" font-style="italic" lengthAdjust="spacingAndGlyphs" textLength="79" x="377.5" y="149.5">maxRight(): int</text><!--class nl.vaneijndhoven.dukes.car.EngineMap--><rect fill="#FEFECE" filter="url(#f16ce3l6upd6li)" height="125.7305" id="nl.vaneijndhoven.dukes.car.EngineMap" style="stroke: #A80036; stroke-width: 1.5;" width="121" x="201.5" y="43"/><ellipse cx="228.2" cy="59" fill="#B4A7E5" rx="11" ry="11" style="stroke: #A80036; stroke-width: 1.0;"/><path d="M224.1277,54.7651 L224.1277,52.6069 L231.5071,52.6069 L231.5071,54.7651 L229.0418,54.7651 L229.0418,62.8418 L231.5071,62.8418 L231.5071,65 L224.1277,65 L224.1277,62.8418 L226.5931,62.8418 L226.5931,54.7651 Z "/><text fill="#000000" font-family="sans-serif" font-size="12" font-style="italic" lengthAdjust="spacingAndGlyphs" textLength="63" x="244.8" y="63.5352">EngineMap</text><line style="stroke: #A80036; stroke-width: 1.5;" x1="202.5" x2="321.5" y1="75" y2="75"/><line style="stroke: #A80036; stroke-width: 1.5;" x1="202.5" x2="321.5" y1="83" y2="83"/><ellipse cx="212.5" cy="94.9775" fill="#84BE84" rx="3" ry="3" style="stroke: #038048; stroke-width: 1.0;"/><text fill="#000000" font-family="sans-serif" font-size="11" font-style="italic" lengthAdjust="spacingAndGlyphs" textLength="66" x="221.5" y="97.6348">neutral(): int</text><ellipse cx="212.5" cy="107.9326" fill="#84BE84" rx="3" ry="3" style="stroke: #038048; stroke-width: 1.0;"/><text fill="#000000" font-family="sans-serif" font-size="11" font-style="italic" lengthAdjust="spacingAndGlyphs" textLength="72" x="221.5" y="110.5898">stepSize(): int</text><ellipse cx="212.5" cy="120.8877" fill="#84BE84" rx="3" ry="3" style="stroke: #038048; stroke-width: 1.0;"/><text fill="#000000" font-family="sans-serif" font-size="11" font-style="italic" lengthAdjust="spacingAndGlyphs" textLength="90" x="221.5" y="123.5449">minReverse(): int</text><ellipse cx="212.5" cy="133.8428" fill="#84BE84" rx="3" ry="3" style="stroke: #038048; stroke-width: 1.0;"/><text fill="#000000" font-family="sans-serif" font-size="11" font-style="italic" lengthAdjust="spacingAndGlyphs" textLength="93" x="221.5" y="136.5">maxReverse(): int</text><ellipse cx="212.5" cy="146.7979" fill="#84BE84" rx="3" ry="3" style="stroke: #038048; stroke-width: 1.0;"/><text fill="#000000" font-family="sans-serif" font-size="11" font-style="italic" lengthAdjust="spacingAndGlyphs" textLength="92" x="221.5" y="149.4551">minForward(): int</text><ellipse cx="212.5" cy="159.7529" fill="#84BE84" rx="3" ry="3" style="stroke: #038048; stroke-width: 1.0;"/><text fill="#000000" font-family="sans-serif" font-size="11" font-style="italic" lengthAdjust="spacingAndGlyphs" textLength="95" x="221.5" y="162.4102">maxForward(): int</text><!--link nl.vaneijndhoven.dukes.car.SteeringMap to nl.vaneijndhoven.dukes.generallee.SteeringMap--><path d="M417.1746,176.0302 C419.713,200.8077 422.5806,228.7978 425.1707,254.079 " fill="none" id="nl.vaneijndhoven.dukes.car.SteeringMap-nl.vaneijndhoven.dukes.generallee.SteeringMap" style="stroke: #A80036; stroke-width: 1.0; stroke-dasharray: 7.0,7.0;"/><polygon fill="none" points="410.2079,176.7121,415.133,156.1028,424.135,175.2852,410.2079,176.7121" style="stroke: #A80036; stroke-width: 1.0;"/><!--link nl.vaneijndhoven.dukes.car.EngineMap to nl.vaneijndhoven.dukes.generallee.EngineMap--><path d="M253.4554,189.4024 C252.1414,202.2283 250.7722,215.5933 249.4229,228.7636 " fill="none" id="nl.vaneijndhoven.dukes.car.EngineMap-nl.vaneijndhoven.dukes.generallee.EngineMap" style="stroke: #A80036; stroke-width: 1.0; stroke-dasharray: 7.0,7.0;"/><polygon fill="none" points="246.53,188.3156,255.532,169.1332,260.4571,189.7425,246.53,188.3156" style="stroke: #A80036; stroke-width: 1.0;"/><text fill="#888888" font-family="sans-serif" font-size="10" lengthAdjust="spacingAndGlyphs" textLength="182" x="180" y="467.668">UMLDoclet 1.1.4, PlantUML 1.2019.05</text><!--
@startuml

    namespace nl.vaneijndhoven.dukes.generallee {

        class SteeringMap [[SteeringMap.html]] {
            {static} +WHEEL_CENTER: int
            {static} +WHEEL_STEP_SIZE: int
            {static} +WHEEL_MAX_LEFT: int
            {static} +WHEEL_MAX_RIGHT: int
            +center(): int
            +stepSize(): int
            +maxLeft(): int
            +maxRight(): int
        }

        class EngineMap [[EngineMap.html]] {
            {static} +SPEED_ZERO: int
            {static} +SPEED_STEP_SIZE: int
            {static} +MIN_SPEED_REVERSE: int
            {static} +MIN_SPEED_FORWARD: int
            {static} +MAX_SPEED_REVERSE: int
            {static} +MAX_SPEED_FORWARD: int
            +neutral(): int
            +stepSize(): int
            +minReverse(): int
            +maxReverse(): int
            +minForward(): int
            +maxForward(): int
        }

        class GeneralLee [[GeneralLee.html]] {
        }

        interface nl.vaneijndhoven.dukes.car.SteeringMap {
            {abstract} +center(): int
            {abstract} +stepSize(): int
            {abstract} +maxLeft(): int
            {abstract} +maxRight(): int
        }
        nl.vaneijndhoven.dukes.car.SteeringMap <|.. SteeringMap

        interface nl.vaneijndhoven.dukes.car.EngineMap {
            {abstract} +neutral(): int
            {abstract} +stepSize(): int
            {abstract} +minReverse(): int
            {abstract} +maxReverse(): int
            {abstract} +minForward(): int
            {abstract} +maxForward(): int
        }
        nl.vaneijndhoven.dukes.car.EngineMap <|.. EngineMap

    }


    center footer UMLDoclet 1.1.4, PlantUML 1.2019.05
@enduml

PlantUML version 1.2019.05(Sat Apr 20 18:45:36 CEST 2019)
(APACHE source distribution)
Java Runtime: Java(TM) SE Runtime Environment
JVM: Java HotSpot(TM) 64-Bit Server VM
Java Version: 1.8.0_152-b16
Operating System: Mac OS X
OS Version: 10.13.6
Default Encoding: UTF-8
Language: de
Country: DE
--></g></svg>