<?xml version="1.0" encoding="UTF-8" standalone="no"?><svg xmlns="http://www.w3.org/2000/svg" xmlns:xlink="http://www.w3.org/1999/xlink" contentScriptType="application/ecmascript" contentStyleType="text/css" height="128px" preserveAspectRatio="none" style="width:254px;height:128px;" version="1.1" viewBox="0 0 254 128" width="254px" zoomAndPan="magnify"><defs><filter height="300%" id="f8fh6fhkl0wr5" width="300%" x="-1" y="-1"><feGaussianBlur result="blurOut" stdDeviation="2.0"/><feColorMatrix in="blurOut" result="blurOut2" type="matrix" values="0 0 0 0 0 0 0 0 0 0 0 0 0 0 0 0 0 0 .4 0"/><feOffset dx="4.0" dy="4.0" in="blurOut2" result="blurOut3"/><feBlend in="SourceGraphic" in2="blurOut3" mode="normal"/></filter></defs><g><!--class Lane--><a href="Lane.html" target="_top" xlink:actuate="onRequest" xlink:show="new" xlink:title="Lane.html" xlink:type="simple"><rect fill="#FEFECE" filter="url(#f8fh6fhkl0wr5)" height="86.8652" id="Lane" style="stroke: #A80036; stroke-width: 1.5;" width="237" x="6" y="8"/><ellipse cx="106.75" cy="24" fill="#ADD1B2" rx="11" ry="11" style="stroke: #A80036; stroke-width: 1.0;"/><path d="M109.7231,29.6431 Q109.1421,29.9419 108.5029,30.0913 Q107.8638,30.2407 107.1582,30.2407 Q104.6514,30.2407 103.3315,28.5889 Q102.0117,26.937 102.0117,23.8159 Q102.0117,20.6865 103.3315,19.0347 Q104.6514,17.3828 107.1582,17.3828 Q107.8638,17.3828 108.5112,17.5322 Q109.1587,17.6816 109.7231,17.9805 L109.7231,20.7031 Q109.0923,20.1221 108.4988,19.8523 Q107.9053,19.5825 107.2744,19.5825 Q105.9297,19.5825 105.2449,20.6492 Q104.5601,21.7158 104.5601,23.8159 Q104.5601,25.9077 105.2449,26.9744 Q105.9297,28.041 107.2744,28.041 Q107.9053,28.041 108.4988,27.7712 Q109.0923,27.5015 109.7231,26.9204 Z "/><text fill="#000000" font-family="sans-serif" font-size="12" lengthAdjust="spacingAndGlyphs" textLength="27" x="127.25" y="28.5352">Lane</text><line style="stroke: #A80036; stroke-width: 1.5;" x1="7" x2="242" y1="40" y2="40"/><line style="stroke: #A80036; stroke-width: 1.5;" x1="7" x2="242" y1="48" y2="48"/><ellipse cx="17" cy="59.9775" fill="#84BE84" rx="3" ry="3" style="stroke: #038048; stroke-width: 1.0;"/><text fill="#000000" font-family="sans-serif" font-size="11" lengthAdjust="spacingAndGlyphs" textLength="211" x="26" y="62.6348">Lane(Optional&lt;Line&gt;, Optional&lt;Line&gt;)</text><ellipse cx="17" cy="72.9326" fill="#84BE84" rx="3" ry="3" style="stroke: #038048; stroke-width: 1.0;"/><text fill="#000000" font-family="sans-serif" font-size="11" lengthAdjust="spacingAndGlyphs" textLength="188" x="26" y="75.5898">getLeftBoundary(): Optional&lt;Line&gt;</text><ellipse cx="17" cy="85.8877" fill="#84BE84" rx="3" ry="3" style="stroke: #038048; stroke-width: 1.0;"/><text fill="#000000" font-family="sans-serif" font-size="11" lengthAdjust="spacingAndGlyphs" textLength="196" x="26" y="88.5449">getRightBoundary(): Optional&lt;Line&gt;</text></a><text fill="#888888" font-family="sans-serif" font-size="10" lengthAdjust="spacingAndGlyphs" textLength="182" x="39.5" y="114.668">UMLDoclet 1.1.4, PlantUML 1.2019.05</text><!--
@startuml

    class Lane [[Lane.html]] {
        +Lane(Optional<Line>, Optional<Line>)
        +getLeftBoundary(): Optional<Line>
        +getRightBoundary(): Optional<Line>
    }


    center footer UMLDoclet 1.1.4, PlantUML 1.2019.05
@enduml

PlantUML version 1.2019.05(Sat Apr 20 18:45:36 CEST 2019)
(APACHE source distribution)
Java Runtime: Java(TM) SE Runtime Environment
JVM: Java HotSpot(TM) 64-Bit Server VM
Java Version: 1.8.0_191-b12
Operating System: Mac OS X
OS Version: 10.13.6
Default Encoding: UTF-8
Language: de
Country: DE
--></g></svg>