<?xml version="1.0" encoding="UTF-8" standalone="no"?><svg xmlns="http://www.w3.org/2000/svg" xmlns:xlink="http://www.w3.org/1999/xlink" contentScriptType="application/ecmascript" contentStyleType="text/css" height="128px" preserveAspectRatio="none" style="width:304px;height:128px;" version="1.1" viewBox="0 0 304 128" width="304px" zoomAndPan="magnify"><defs><filter height="300%" id="fjuifa07syy8u" width="300%" x="-1" y="-1"><feGaussianBlur result="blurOut" stdDeviation="2.0"/><feColorMatrix in="blurOut" result="blurOut2" type="matrix" values="0 0 0 0 0 0 0 0 0 0 0 0 0 0 0 0 0 0 .4 0"/><feOffset dx="4.0" dy="4.0" in="blurOut2" result="blurOut3"/><feBlend in="SourceGraphic" in2="blurOut3" mode="normal"/></filter></defs><g><!--class StoppingZone--><a href="StoppingZone.html" target="_top" xlink:actuate="onRequest" xlink:show="new" xlink:title="StoppingZone.html" xlink:type="simple"><rect fill="#FEFECE" filter="url(#fjuifa07syy8u)" height="86.8652" id="StoppingZone" style="stroke: #A80036; stroke-width: 1.5;" width="287" x="6" y="8"/><ellipse cx="106.25" cy="24" fill="#ADD1B2" rx="11" ry="11" style="stroke: #A80036; stroke-width: 1.0;"/><path d="M109.2231,29.6431 Q108.6421,29.9419 108.0029,30.0913 Q107.3638,30.2407 106.6582,30.2407 Q104.1514,30.2407 102.8315,28.5889 Q101.5117,26.937 101.5117,23.8159 Q101.5117,20.6865 102.8315,19.0347 Q104.1514,17.3828 106.6582,17.3828 Q107.3638,17.3828 108.0112,17.5322 Q108.6587,17.6816 109.2231,17.9805 L109.2231,20.7031 Q108.5923,20.1221 107.9988,19.8523 Q107.4053,19.5825 106.7744,19.5825 Q105.4297,19.5825 104.7449,20.6492 Q104.0601,21.7158 104.0601,23.8159 Q104.0601,25.9077 104.7449,26.9744 Q105.4297,28.041 106.7744,28.041 Q107.4053,28.041 107.9988,27.7712 Q108.5923,27.5015 109.2231,26.9204 Z "/><text fill="#000000" font-family="sans-serif" font-size="12" lengthAdjust="spacingAndGlyphs" textLength="78" x="126.75" y="28.5352">StoppingZone</text><line style="stroke: #A80036; stroke-width: 1.5;" x1="7" x2="292" y1="40" y2="40"/><line style="stroke: #A80036; stroke-width: 1.5;" x1="7" x2="292" y1="48" y2="48"/><ellipse cx="17" cy="59.9775" fill="#84BE84" rx="3" ry="3" style="stroke: #038048; stroke-width: 1.0;"/><text fill="#000000" font-family="sans-serif" font-size="11" lengthAdjust="spacingAndGlyphs" textLength="261" x="26" y="62.6348">StoppingZone(Optional&lt;Line&gt;, Optional&lt;Line&gt;)</text><ellipse cx="17" cy="72.9326" fill="#84BE84" rx="3" ry="3" style="stroke: #038048; stroke-width: 1.0;"/><text fill="#000000" font-family="sans-serif" font-size="11" lengthAdjust="spacingAndGlyphs" textLength="164" x="26" y="75.5898">getEntrance(): Optional&lt;Line&gt;</text><ellipse cx="17" cy="85.8877" fill="#84BE84" rx="3" ry="3" style="stroke: #038048; stroke-width: 1.0;"/><text fill="#000000" font-family="sans-serif" font-size="11" lengthAdjust="spacingAndGlyphs" textLength="137" x="26" y="88.5449">getExit(): Optional&lt;Line&gt;</text></a><text fill="#888888" font-family="sans-serif" font-size="10" lengthAdjust="spacingAndGlyphs" textLength="182" x="64.5" y="114.668">UMLDoclet 1.1.4, PlantUML 1.2019.05</text><!--
@startuml

    class StoppingZone [[StoppingZone.html]] {
        +StoppingZone(Optional<Line>, Optional<Line>)
        +getEntrance(): Optional<Line>
        +getExit(): Optional<Line>
    }


    center footer UMLDoclet 1.1.4, PlantUML 1.2019.05
@enduml

PlantUML version 1.2019.05(Sat Apr 20 18:45:36 CEST 2019)
(APACHE source distribution)
Java Runtime: Java(TM) SE Runtime Environment
JVM: Java HotSpot(TM) 64-Bit Server VM
Java Version: 1.8.0_191-b12
Operating System: Mac OS X
OS Version: 10.13.6
Default Encoding: UTF-8
Language: de
Country: DE
--></g></svg>