<?xml version="1.0" encoding="UTF-8" standalone="no"?><svg xmlns="http://www.w3.org/2000/svg" xmlns:xlink="http://www.w3.org/1999/xlink" contentScriptType="application/ecmascript" contentStyleType="text/css" height="538px" preserveAspectRatio="none" style="width:1369px;height:538px;" version="1.1" viewBox="0 0 1369 538" width="1369px" zoomAndPan="magnify"><defs><filter height="300%" id="fn55h1qehe4rc" width="300%" x="-1" y="-1"><feGaussianBlur result="blurOut" stdDeviation="2.0"/><feColorMatrix in="blurOut" result="blurOut2" type="matrix" values="0 0 0 0 0 0 0 0 0 0 0 0 0 0 0 0 0 0 .4 0"/><feOffset dx="4.0" dy="4.0" in="blurOut2" result="blurOut3"/><feBlend in="SourceGraphic" in2="blurOut3" mode="normal"/></filter></defs><g><!--cluster org.rcdukes.camera--><polygon fill="#FFFFFF" filter="url(#fn55h1qehe4rc)" points="14,124,157,124,164,146.4883,1347,146.4883,1347,497,14,497,14,124" style="stroke: #000000; stroke-width: 1.5;"/><line style="stroke: #000000; stroke-width: 1.5;" x1="14" x2="164" y1="146.4883" y2="146.4883"/><text fill="#000000" font-family="sans-serif" font-size="14" font-weight="bold" lengthAdjust="spacingAndGlyphs" textLength="137" x="18" y="139.5352">org.rcdukes.camera</text><!--cluster org.rcdukes.geometry--><polygon fill="#FFFFFF" filter="url(#fn55h1qehe4rc)" points="174,16,334,16,341,38.4883,344,38.4883,344,99,174,99,174,16" style="stroke: #000000; stroke-width: 1.5;"/><line style="stroke: #000000; stroke-width: 1.5;" x1="174" x2="341" y1="38.4883" y2="38.4883"/><text fill="#000000" font-family="sans-serif" font-size="14" font-weight="bold" lengthAdjust="spacingAndGlyphs" textLength="154" x="178" y="31.5352">org.rcdukes.geometry</text><!--cluster java.util.function--><polygon fill="#FFFFFF" filter="url(#fn55h1qehe4rc)" points="739,16,865,16,872,38.4883,885,38.4883,885,99,739,99,739,16" style="stroke: #000000; stroke-width: 1.5;"/><line style="stroke: #000000; stroke-width: 1.5;" x1="739" x2="872" y1="38.4883" y2="38.4883"/><text fill="#000000" font-family="sans-serif" font-size="14" font-weight="bold" lengthAdjust="spacingAndGlyphs" textLength="120" x="743" y="31.5352">java.util.function</text><!--class org.rcdukes.camera.TestCameraMatrix--><a href="TestCameraMatrix.html" target="_top" xlink:actuate="onRequest" xlink:show="new" xlink:title="TestCameraMatrix.html" xlink:type="simple"><rect fill="#FEFECE" filter="url(#fn55h1qehe4rc)" height="60.9551" id="org.rcdukes.camera.TestCameraMatrix" style="stroke: #A80036; stroke-width: 1.5;" width="143" x="982.5" y="415"/><ellipse cx="999.75" cy="431" fill="#ADD1B2" rx="11" ry="11" style="stroke: #A80036; stroke-width: 1.0;"/><path d="M1002.7231,436.6431 Q1002.1421,436.9419 1001.5029,437.0913 Q1000.8638,437.2407 1000.1582,437.2407 Q997.6514,437.2407 996.3315,435.5889 Q995.0117,433.937 995.0117,430.8159 Q995.0117,427.6865 996.3315,426.0347 Q997.6514,424.3828 1000.1582,424.3828 Q1000.8638,424.3828 1001.5112,424.5322 Q1002.1587,424.6816 1002.7231,424.9805 L1002.7231,427.7031 Q1002.0923,427.1221 1001.4988,426.8523 Q1000.9053,426.5825 1000.2744,426.5825 Q998.9297,426.5825 998.2449,427.6492 Q997.5601,428.7158 997.5601,430.8159 Q997.5601,432.9077 998.2449,433.9744 Q998.9297,435.041 1000.2744,435.041 Q1000.9053,435.041 1001.4988,434.7712 Q1002.0923,434.5015 1002.7231,433.9204 Z "/><text fill="#000000" font-family="sans-serif" font-size="12" lengthAdjust="spacingAndGlyphs" textLength="106" x="1014.25" y="435.5352">TestCameraMatrix</text><line style="stroke: #A80036; stroke-width: 1.5;" x1="983.5" x2="1124.5" y1="447" y2="447"/><line style="stroke: #A80036; stroke-width: 1.5;" x1="983.5" x2="1124.5" y1="455" y2="455"/><ellipse cx="993.5" cy="466.9775" fill="#84BE84" rx="3" ry="3" style="stroke: #038048; stroke-width: 1.0;"/><text fill="#000000" font-family="sans-serif" font-size="11" lengthAdjust="spacingAndGlyphs" textLength="117" x="1002.5" y="469.6348">testCalculation(): void</text></a><!--class org.rcdukes.camera.MatrixTestbase--><a href="MatrixTestbase.html" target="_top" xlink:actuate="onRequest" xlink:show="new" xlink:title="MatrixTestbase.html" xlink:type="simple"><rect fill="#FEFECE" filter="url(#fn55h1qehe4rc)" height="86.8652" id="org.rcdukes.camera.MatrixTestbase" style="stroke: #A80036; stroke-width: 1.5;" width="125" x="1213.5" y="203"/><ellipse cx="1230.3" cy="219" fill="#ADD1B2" rx="11" ry="11" style="stroke: #A80036; stroke-width: 1.0;"/><path d="M1233.2731,224.6431 Q1232.6921,224.9419 1232.0529,225.0913 Q1231.4138,225.2407 1230.7082,225.2407 Q1228.2014,225.2407 1226.8815,223.5889 Q1225.5617,221.937 1225.5617,218.8159 Q1225.5617,215.6865 1226.8815,214.0347 Q1228.2014,212.3828 1230.7082,212.3828 Q1231.4138,212.3828 1232.0612,212.5322 Q1232.7087,212.6816 1233.2731,212.9805 L1233.2731,215.7031 Q1232.6423,215.1221 1232.0488,214.8523 Q1231.4553,214.5825 1230.8244,214.5825 Q1229.4797,214.5825 1228.7949,215.6492 Q1228.1101,216.7158 1228.1101,218.8159 Q1228.1101,220.9077 1228.7949,221.9744 Q1229.4797,223.041 1230.8244,223.041 Q1231.4553,223.041 1232.0488,222.7712 Q1232.6423,222.5015 1233.2731,221.9204 Z "/><text fill="#000000" font-family="sans-serif" font-size="12" lengthAdjust="spacingAndGlyphs" textLength="89" x="1244.7" y="223.5352">MatrixTestbase</text><line style="stroke: #A80036; stroke-width: 1.5;" x1="1214.5" x2="1337.5" y1="235" y2="235"/><ellipse cx="1224.5" cy="246.9775" fill="none" rx="3" ry="3" style="stroke: #038048; stroke-width: 1.0;"/><text fill="#000000" font-family="sans-serif" font-size="11" lengthAdjust="spacingAndGlyphs" text-decoration="underline" textLength="83" x="1233.5" y="249.6348">debug: boolean</text><line style="stroke: #A80036; stroke-width: 1.5;" x1="1214.5" x2="1337.5" y1="255.9551" y2="255.9551"/><ellipse cx="1224.5" cy="267.9326" fill="#84BE84" rx="3" ry="3" style="stroke: #038048; stroke-width: 1.0;"/><text fill="#000000" font-family="sans-serif" font-size="11" lengthAdjust="spacingAndGlyphs" text-decoration="underline" textLength="67" x="1233.5" y="270.5898">setup(): void</text><ellipse cx="1224.5" cy="280.8877" fill="#84BE84" rx="3" ry="3" style="stroke: #038048; stroke-width: 1.0;"/><text fill="#000000" font-family="sans-serif" font-size="11" lengthAdjust="spacingAndGlyphs" textLength="99" x="1233.5" y="283.5449">isTravis(): boolean</text></a><!--class org.rcdukes.camera.TestSuite--><a href="TestSuite.html" target="_top" xlink:actuate="onRequest" xlink:show="new" xlink:title="TestSuite.html" xlink:type="simple"><rect fill="#FEFECE" filter="url(#fn55h1qehe4rc)" height="48" id="org.rcdukes.camera.TestSuite" style="stroke: #A80036; stroke-width: 1.5;" width="84" x="1094" y="222.5"/><ellipse cx="1109" cy="238.5" fill="#ADD1B2" rx="11" ry="11" style="stroke: #A80036; stroke-width: 1.0;"/><path d="M1111.9731,244.1431 Q1111.3921,244.4419 1110.7529,244.5913 Q1110.1138,244.7407 1109.4082,244.7407 Q1106.9014,244.7407 1105.5815,243.0889 Q1104.2617,241.437 1104.2617,238.3159 Q1104.2617,235.1865 1105.5815,233.5347 Q1106.9014,231.8828 1109.4082,231.8828 Q1110.1138,231.8828 1110.7612,232.0322 Q1111.4087,232.1816 1111.9731,232.4805 L1111.9731,235.2031 Q1111.3423,234.6221 1110.7488,234.3523 Q1110.1553,234.0825 1109.5244,234.0825 Q1108.1797,234.0825 1107.4949,235.1492 Q1106.8101,236.2158 1106.8101,238.3159 Q1106.8101,240.4077 1107.4949,241.4744 Q1108.1797,242.541 1109.5244,242.541 Q1110.1553,242.541 1110.7488,242.2712 Q1111.3423,242.0015 1111.9731,241.4204 Z "/><text fill="#000000" font-family="sans-serif" font-size="12" lengthAdjust="spacingAndGlyphs" textLength="52" x="1123" y="243.0352">TestSuite</text><line style="stroke: #A80036; stroke-width: 1.5;" x1="1095" x2="1177" y1="254.5" y2="254.5"/><line style="stroke: #A80036; stroke-width: 1.5;" x1="1095" x2="1177" y1="262.5" y2="262.5"/></a><!--class org.rcdukes.camera.TestPerspectiveShift--><a href="TestPerspectiveShift.html" target="_top" xlink:actuate="onRequest" xlink:show="new" xlink:title="TestPerspectiveShift.html" xlink:type="simple"><rect fill="#FEFECE" filter="url(#fn55h1qehe4rc)" height="86.8652" id="org.rcdukes.camera.TestPerspectiveShift" style="stroke: #A80036; stroke-width: 1.5;" width="178" x="1161" y="402"/><ellipse cx="1189.95" cy="418" fill="#ADD1B2" rx="11" ry="11" style="stroke: #A80036; stroke-width: 1.0;"/><path d="M1192.9231,423.6431 Q1192.3421,423.9419 1191.7029,424.0913 Q1191.0638,424.2407 1190.3582,424.2407 Q1187.8514,424.2407 1186.5315,422.5889 Q1185.2117,420.937 1185.2117,417.8159 Q1185.2117,414.6865 1186.5315,413.0347 Q1187.8514,411.3828 1190.3582,411.3828 Q1191.0638,411.3828 1191.7112,411.5322 Q1192.3587,411.6816 1192.9231,411.9805 L1192.9231,414.7031 Q1192.2923,414.1221 1191.6988,413.8523 Q1191.1053,413.5825 1190.4744,413.5825 Q1189.1297,413.5825 1188.4449,414.6492 Q1187.7601,415.7158 1187.7601,417.8159 Q1187.7601,419.9077 1188.4449,420.9744 Q1189.1297,422.041 1190.4744,422.041 Q1191.1053,422.041 1191.6988,421.7712 Q1192.2923,421.5015 1192.9231,420.9204 Z "/><text fill="#000000" font-family="sans-serif" font-size="12" lengthAdjust="spacingAndGlyphs" textLength="115" x="1207.05" y="422.5352">TestPerspectiveShift</text><line style="stroke: #A80036; stroke-width: 1.5;" x1="1162" x2="1338" y1="434" y2="434"/><line style="stroke: #A80036; stroke-width: 1.5;" x1="1162" x2="1338" y1="442" y2="442"/><ellipse cx="1172" cy="453.9775" fill="#84BE84" rx="3" ry="3" style="stroke: #038048; stroke-width: 1.0;"/><text fill="#000000" font-family="sans-serif" font-size="11" lengthAdjust="spacingAndGlyphs" textLength="122" x="1181" y="456.6348">testChessboard(): void</text><ellipse cx="1172" cy="466.9326" fill="#84BE84" rx="3" ry="3" style="stroke: #038048; stroke-width: 1.0;"/><text fill="#000000" font-family="sans-serif" font-size="11" lengthAdjust="spacingAndGlyphs" textLength="114" x="1181" y="469.5898">testTransform(): void</text><ellipse cx="1172" cy="479.8877" fill="#84BE84" rx="3" ry="3" style="stroke: #038048; stroke-width: 1.0;"/><text fill="#000000" font-family="sans-serif" font-size="11" lengthAdjust="spacingAndGlyphs" textLength="152" x="1181" y="482.5449">writeImage(String, Mat): void</text></a><!--class org.rcdukes.camera.ImagePolygon--><a href="ImagePolygon.html" target="_top" xlink:actuate="onRequest" xlink:show="new" xlink:title="ImagePolygon.html" xlink:type="simple"><rect fill="#FEFECE" filter="url(#fn55h1qehe4rc)" height="86.8652" id="org.rcdukes.camera.ImagePolygon" style="stroke: #A80036; stroke-width: 1.5;" width="474" x="22" y="203"/><ellipse cx="215.25" cy="219" fill="#ADD1B2" rx="11" ry="11" style="stroke: #A80036; stroke-width: 1.0;"/><path d="M218.2231,224.6431 Q217.6421,224.9419 217.0029,225.0913 Q216.3638,225.2407 215.6582,225.2407 Q213.1514,225.2407 211.8315,223.5889 Q210.5117,221.937 210.5117,218.8159 Q210.5117,215.6865 211.8315,214.0347 Q213.1514,212.3828 215.6582,212.3828 Q216.3638,212.3828 217.0112,212.5322 Q217.6587,212.6816 218.2231,212.9805 L218.2231,215.7031 Q217.5923,215.1221 216.9988,214.8523 Q216.4053,214.5825 215.7744,214.5825 Q214.4297,214.5825 213.7449,215.6492 Q213.0601,216.7158 213.0601,218.8159 Q213.0601,220.9077 213.7449,221.9744 Q214.4297,223.041 215.7744,223.041 Q216.4053,223.041 216.9988,222.7712 Q217.5923,222.5015 218.2231,221.9204 Z "/><text fill="#000000" font-family="sans-serif" font-size="12" lengthAdjust="spacingAndGlyphs" textLength="79" x="235.75" y="223.5352">ImagePolygon</text><line style="stroke: #A80036; stroke-width: 1.5;" x1="23" x2="495" y1="235" y2="235"/><line style="stroke: #A80036; stroke-width: 1.5;" x1="23" x2="495" y1="243" y2="243"/><ellipse cx="33" cy="254.9775" fill="#84BE84" rx="3" ry="3" style="stroke: #038048; stroke-width: 1.0;"/><text fill="#000000" font-family="sans-serif" font-size="11" lengthAdjust="spacingAndGlyphs" textLength="448" x="42" y="257.6348">ImagePolygon(Size, double, double, double, double, double, double, double, double)</text><ellipse cx="33" cy="267.9326" fill="#84BE84" rx="3" ry="3" style="stroke: #038048; stroke-width: 1.0;"/><text fill="#000000" font-family="sans-serif" font-size="11" lengthAdjust="spacingAndGlyphs" textLength="118" x="42" y="270.5898">ImagePolygon(Point[])</text><ellipse cx="33" cy="280.8877" fill="#84BE84" rx="3" ry="3" style="stroke: #038048; stroke-width: 1.0;"/><text fill="#000000" font-family="sans-serif" font-size="11" lengthAdjust="spacingAndGlyphs" textLength="129" x="42" y="283.5449">ImagePolygon(Size, ROI)</text></a><!--class org.rcdukes.camera.CameraMatrix--><a href="CameraMatrix.html" target="_top" xlink:actuate="onRequest" xlink:show="new" xlink:title="CameraMatrix.html" xlink:type="simple"><rect fill="#FEFECE" filter="url(#fn55h1qehe4rc)" height="190.5059" id="org.rcdukes.camera.CameraMatrix" style="stroke: #A80036; stroke-width: 1.5;" width="281" x="531.5" y="151"/><ellipse cx="627.25" cy="167" fill="#ADD1B2" rx="11" ry="11" style="stroke: #A80036; stroke-width: 1.0;"/><path d="M630.2231,172.6431 Q629.6421,172.9419 629.0029,173.0913 Q628.3638,173.2407 627.6582,173.2407 Q625.1514,173.2407 623.8315,171.5889 Q622.5117,169.937 622.5117,166.8159 Q622.5117,163.6865 623.8315,162.0347 Q625.1514,160.3828 627.6582,160.3828 Q628.3638,160.3828 629.0112,160.5322 Q629.6587,160.6816 630.2231,160.9805 L630.2231,163.7031 Q629.5923,163.1221 628.9988,162.8523 Q628.4053,162.5825 627.7744,162.5825 Q626.4297,162.5825 625.7449,163.6492 Q625.0601,164.7158 625.0601,166.8159 Q625.0601,168.9077 625.7449,169.9744 Q626.4297,171.041 627.7744,171.041 Q628.4053,171.041 628.9988,170.7712 Q629.5923,170.5015 630.2231,169.9204 Z "/><text fill="#000000" font-family="sans-serif" font-size="12" lengthAdjust="spacingAndGlyphs" textLength="81" x="647.75" y="171.5352">CameraMatrix</text><line style="stroke: #A80036; stroke-width: 1.5;" x1="532.5" x2="811.5" y1="183" y2="183"/><ellipse cx="542.5" cy="194.9775" fill="none" rx="3" ry="3" style="stroke: #038048; stroke-width: 1.0;"/><text fill="#000000" font-family="sans-serif" font-size="11" lengthAdjust="spacingAndGlyphs" text-decoration="underline" textLength="130" x="551.5" y="197.6348">DEFAULT: CameraMatrix</text><line style="stroke: #A80036; stroke-width: 1.5;" x1="532.5" x2="811.5" y1="203.9551" y2="203.9551"/><ellipse cx="542.5" cy="215.9326" fill="#84BE84" rx="3" ry="3" style="stroke: #038048; stroke-width: 1.0;"/><text fill="#000000" font-family="sans-serif" font-size="11" lengthAdjust="spacingAndGlyphs" textLength="117" x="551.5" y="218.5898">CameraMatrix(int, int)</text><ellipse cx="542.5" cy="228.8877" fill="#84BE84" rx="3" ry="3" style="stroke: #038048; stroke-width: 1.0;"/><text fill="#000000" font-family="sans-serif" font-size="11" lengthAdjust="spacingAndGlyphs" textLength="118" x="551.5" y="231.5449">getRvecs(): List&lt;Mat&gt;</text><ellipse cx="542.5" cy="241.8428" fill="#84BE84" rx="3" ry="3" style="stroke: #038048; stroke-width: 1.0;"/><text fill="#000000" font-family="sans-serif" font-size="11" lengthAdjust="spacingAndGlyphs" textLength="118" x="551.5" y="244.5">getTvecs(): List&lt;Mat&gt;</text><ellipse cx="542.5" cy="254.7979" fill="#84BE84" rx="3" ry="3" style="stroke: #038048; stroke-width: 1.0;"/><text fill="#000000" font-family="sans-serif" font-size="11" lengthAdjust="spacingAndGlyphs" textLength="110" x="551.5" y="257.4551">calibrate(Mat[]): void</text><ellipse cx="542.5" cy="267.7529" fill="#84BE84" rx="3" ry="3" style="stroke: #038048; stroke-width: 1.0;"/><text fill="#000000" font-family="sans-serif" font-size="11" lengthAdjust="spacingAndGlyphs" textLength="255" x="551.5" y="270.4102">findOuterChessBoardCornerPoints(Mat): Point[]</text><ellipse cx="542.5" cy="280.708" fill="#84BE84" rx="3" ry="3" style="stroke: #038048; stroke-width: 1.0;"/><text fill="#000000" font-family="sans-serif" font-size="11" lengthAdjust="spacingAndGlyphs" textLength="167" x="551.5" y="283.3652">addCalibrationImage(Mat): void</text><ellipse cx="542.5" cy="293.6631" fill="#84BE84" rx="3" ry="3" style="stroke: #038048; stroke-width: 1.0;"/><text fill="#000000" font-family="sans-serif" font-size="11" lengthAdjust="spacingAndGlyphs" textLength="81" x="551.5" y="296.3203">apply(Mat): Mat</text><ellipse cx="542.5" cy="306.6182" fill="#84BE84" rx="3" ry="3" style="stroke: #038048; stroke-width: 1.0;"/><text fill="#000000" font-family="sans-serif" font-size="11" lengthAdjust="spacingAndGlyphs" textLength="90" x="551.5" y="309.2754">serialize(): String</text><ellipse cx="542.5" cy="319.5732" fill="#84BE84" rx="3" ry="3" style="stroke: #038048; stroke-width: 1.0;"/><text fill="#000000" font-family="sans-serif" font-size="11" lengthAdjust="spacingAndGlyphs" text-decoration="underline" textLength="184" x="551.5" y="322.2305">deserizalize(String): CameraMatrix</text><ellipse cx="542.5" cy="332.5283" fill="#84BE84" rx="3" ry="3" style="stroke: #038048; stroke-width: 1.0;"/><text fill="#000000" font-family="sans-serif" font-size="11" lengthAdjust="spacingAndGlyphs" textLength="113" x="551.5" y="335.1855">apply(Object): Object</text></a><!--class org.rcdukes.camera.PerspectiveShift--><a href="PerspectiveShift.html" target="_top" xlink:actuate="onRequest" xlink:show="new" xlink:title="PerspectiveShift.html" xlink:type="simple"><rect fill="#FEFECE" filter="url(#fn55h1qehe4rc)" height="86.8652" id="org.rcdukes.camera.PerspectiveShift" style="stroke: #A80036; stroke-width: 1.5;" width="211" x="847.5" y="203"/><ellipse cx="903.75" cy="219" fill="#ADD1B2" rx="11" ry="11" style="stroke: #A80036; stroke-width: 1.0;"/><path d="M906.7231,224.6431 Q906.1421,224.9419 905.5029,225.0913 Q904.8638,225.2407 904.1582,225.2407 Q901.6514,225.2407 900.3315,223.5889 Q899.0117,221.937 899.0117,218.8159 Q899.0117,215.6865 900.3315,214.0347 Q901.6514,212.3828 904.1582,212.3828 Q904.8638,212.3828 905.5112,212.5322 Q906.1587,212.6816 906.7231,212.9805 L906.7231,215.7031 Q906.0923,215.1221 905.4988,214.8523 Q904.9053,214.5825 904.2744,214.5825 Q902.9297,214.5825 902.2449,215.6492 Q901.5601,216.7158 901.5601,218.8159 Q901.5601,220.9077 902.2449,221.9744 Q902.9297,223.041 904.2744,223.041 Q904.9053,223.041 905.4988,222.7712 Q906.0923,222.5015 906.7231,221.9204 Z "/><text fill="#000000" font-family="sans-serif" font-size="12" lengthAdjust="spacingAndGlyphs" textLength="90" x="924.25" y="223.5352">PerspectiveShift</text><line style="stroke: #A80036; stroke-width: 1.5;" x1="848.5" x2="1057.5" y1="235" y2="235"/><line style="stroke: #A80036; stroke-width: 1.5;" x1="848.5" x2="1057.5" y1="243" y2="243"/><ellipse cx="858.5" cy="254.9775" fill="#84BE84" rx="3" ry="3" style="stroke: #038048; stroke-width: 1.0;"/><text fill="#000000" font-family="sans-serif" font-size="11" lengthAdjust="spacingAndGlyphs" textLength="185" x="867.5" y="257.6348">PerspectiveShift(Polygon, Polygon)</text><ellipse cx="858.5" cy="267.9326" fill="#84BE84" rx="3" ry="3" style="stroke: #038048; stroke-width: 1.0;"/><text fill="#000000" font-family="sans-serif" font-size="11" lengthAdjust="spacingAndGlyphs" textLength="81" x="867.5" y="270.5898">apply(Mat): Mat</text><ellipse cx="858.5" cy="280.8877" fill="#84BE84" rx="3" ry="3" style="stroke: #038048; stroke-width: 1.0;"/><text fill="#000000" font-family="sans-serif" font-size="11" lengthAdjust="spacingAndGlyphs" textLength="113" x="867.5" y="283.5449">apply(Object): Object</text></a><!--class org.rcdukes.geometry.Polygon--><rect fill="#FEFECE" filter="url(#fn55h1qehe4rc)" height="48" id="org.rcdukes.geometry.Polygon" style="stroke: #A80036; stroke-width: 1.5;" width="76" x="221" y="43"/><ellipse cx="236" cy="59" fill="#ADD1B2" rx="11" ry="11" style="stroke: #A80036; stroke-width: 1.0;"/><path d="M238.9731,64.6431 Q238.3921,64.9419 237.7529,65.0913 Q237.1138,65.2407 236.4082,65.2407 Q233.9014,65.2407 232.5815,63.5889 Q231.2617,61.937 231.2617,58.8159 Q231.2617,55.6865 232.5815,54.0347 Q233.9014,52.3828 236.4082,52.3828 Q237.1138,52.3828 237.7612,52.5322 Q238.4087,52.6816 238.9731,52.9805 L238.9731,55.7031 Q238.3423,55.1221 237.7488,54.8523 Q237.1553,54.5825 236.5244,54.5825 Q235.1797,54.5825 234.4949,55.6492 Q233.8101,56.7158 233.8101,58.8159 Q233.8101,60.9077 234.4949,61.9744 Q235.1797,63.041 236.5244,63.041 Q237.1553,63.041 237.7488,62.7712 Q238.3423,62.5015 238.9731,61.9204 Z "/><text fill="#000000" font-family="sans-serif" font-size="12" lengthAdjust="spacingAndGlyphs" textLength="44" x="250" y="63.5352">Polygon</text><line style="stroke: #A80036; stroke-width: 1.5;" x1="222" x2="296" y1="75" y2="75"/><line style="stroke: #A80036; stroke-width: 1.5;" x1="222" x2="296" y1="83" y2="83"/><!--class java.util.function.UnaryOperator--><rect fill="#FEFECE" filter="url(#fn55h1qehe4rc)" height="48" id="java.util.function.UnaryOperator" style="stroke: #A80036; stroke-width: 1.5;" width="129" x="747.5" y="43"/><ellipse cx="762.5" cy="59" fill="#B4A7E5" rx="11" ry="11" style="stroke: #A80036; stroke-width: 1.0;"/><path d="M758.4277,54.7651 L758.4277,52.6069 L765.8071,52.6069 L765.8071,54.7651 L763.3418,54.7651 L763.3418,62.8418 L765.8071,62.8418 L765.8071,65 L758.4277,65 L758.4277,62.8418 L760.8931,62.8418 L760.8931,54.7651 Z "/><text fill="#000000" font-family="sans-serif" font-size="12" font-style="italic" lengthAdjust="spacingAndGlyphs" textLength="85" x="776.5" y="63.5352">UnaryOperator</text><rect fill="#FFFFFF" height="16.1328" style="stroke: #000000; stroke-width: 1.0; stroke-dasharray: 2.0,2.0;" width="10" x="869.5" y="40"/><text fill="#000000" font-family="sans-serif" font-size="12" font-style="italic" lengthAdjust="spacingAndGlyphs" textLength="8" x="870.5" y="52.6016">T</text><line style="stroke: #A80036; stroke-width: 1.5;" x1="748.5" x2="875.5" y1="75" y2="75"/><line style="stroke: #A80036; stroke-width: 1.5;" x1="748.5" x2="875.5" y1="83" y2="83"/><!--link org.rcdukes.camera.MatrixTestbase to org.rcdukes.camera.TestCameraMatrix--><path d="M1230.1469,305.8357 C1219.4767,318.2995 1207.7765,330.9923 1196,342 C1166.9162,369.185 1130.5839,395.5497 1101.951,414.866 " fill="none" id="org.rcdukes.camera.MatrixTestbase-org.rcdukes.camera.TestCameraMatrix" style="stroke: #A80036; stroke-width: 1.0;"/><polygon fill="none" points="1224.8756,301.2265,1243.0398,290.3148,1235.6448,310.1722,1224.8756,301.2265" style="stroke: #A80036; stroke-width: 1.0;"/><!--link org.rcdukes.camera.MatrixTestbase to org.rcdukes.camera.TestPerspectiveShift--><path d="M1267.6516,310.3977 C1263.7459,340.2907 1259.1951,375.1221 1255.6925,401.9305 " fill="none" id="org.rcdukes.camera.MatrixTestbase-org.rcdukes.camera.TestPerspectiveShift" style="stroke: #A80036; stroke-width: 1.0;"/><polygon fill="none" points="1260.7621,309.096,1270.2942,290.1714,1274.6441,310.9097,1260.7621,309.096" style="stroke: #A80036; stroke-width: 1.0;"/><!--link org.rcdukes.geometry.Polygon to org.rcdukes.camera.ImagePolygon--><path d="M259,111.5425 C259,139.3734 259,175.0537 259,202.7364 " fill="none" id="org.rcdukes.geometry.Polygon-org.rcdukes.camera.ImagePolygon" style="stroke: #A80036; stroke-width: 1.0;"/><polygon fill="none" points="252.0001,111.2082,259,91.2082,266.0001,111.2081,252.0001,111.2082" style="stroke: #A80036; stroke-width: 1.0;"/><!--link java.util.function.UnaryOperator to org.rcdukes.camera.CameraMatrix--><path d="M780.6904,107.1434 C770.4366,120.2902 758.568,135.5074 746.5201,150.9545 " fill="none" id="java.util.function.UnaryOperator-org.rcdukes.camera.CameraMatrix" style="stroke: #A80036; stroke-width: 1.0; stroke-dasharray: 7.0,7.0;"/><polygon fill="none" points="775.2992,102.6736,793.119,91.2082,786.3385,111.2837,775.2992,102.6736" style="stroke: #A80036; stroke-width: 1.0;"/><!--link java.util.function.UnaryOperator to org.rcdukes.camera.PerspectiveShift--><path d="M843.4742,107.0682 C865.7793,135.4637 895.6937,173.5463 918.6231,202.7364 " fill="none" id="java.util.function.UnaryOperator-org.rcdukes.camera.PerspectiveShift" style="stroke: #A80036; stroke-width: 1.0; stroke-dasharray: 7.0,7.0;"/><polygon fill="none" points="837.8657,111.2602,831.0159,91.2082,848.8752,102.612,837.8657,111.2602" style="stroke: #A80036; stroke-width: 1.0;"/><text fill="#888888" font-family="sans-serif" font-size="10" lengthAdjust="spacingAndGlyphs" textLength="182" x="595.5" y="524.668">UMLDoclet 1.1.4, PlantUML 1.2019.05</text><!--
@startuml

    namespace org.rcdukes.camera {

        class TestCameraMatrix [[TestCameraMatrix.html]] {
            +testCalculation(): void
        }

        class MatrixTestbase [[MatrixTestbase.html]] {
            {static} +debug: boolean
            {static} +setup(): void
            +isTravis(): boolean
        }

        class TestSuite [[TestSuite.html]] {
        }

        class TestPerspectiveShift [[TestPerspectiveShift.html]] {
            +testChessboard(): void
            +testTransform(): void
            +writeImage(String, Mat): void
        }

        class ImagePolygon [[ImagePolygon.html]] {
            +ImagePolygon(Size, double, double, double, double, double, double, double, double)
            +ImagePolygon(Point[])
            +ImagePolygon(Size, ROI)
        }

        class CameraMatrix [[CameraMatrix.html]] {
            {static} +DEFAULT: CameraMatrix
            +CameraMatrix(int, int)
            +getRvecs(): List<Mat>
            +getTvecs(): List<Mat>
            +calibrate(Mat[]): void
            +findOuterChessBoardCornerPoints(Mat): Point[]
            +addCalibrationImage(Mat): void
            +apply(Mat): Mat
            +serialize(): String
            {static} +deserizalize(String): CameraMatrix
            +apply(Object): Object
        }

        class PerspectiveShift [[PerspectiveShift.html]] {
            +PerspectiveShift(Polygon, Polygon)
            +apply(Mat): Mat
            +apply(Object): Object
        }

        MatrixTestbase <|- - TestCameraMatrix

        MatrixTestbase <|- - TestPerspectiveShift

        class org.rcdukes.geometry.Polygon
        org.rcdukes.geometry.Polygon <|- - ImagePolygon

        interface java.util.function.UnaryOperator<T>
        java.util.function.UnaryOperator <|.. CameraMatrix

        java.util.function.UnaryOperator <|.. PerspectiveShift

    }


    center footer UMLDoclet 1.1.4, PlantUML 1.2019.05
@enduml

PlantUML version 1.2019.05(Sat Apr 20 18:45:36 CEST 2019)
(APACHE source distribution)
Java Runtime: Java(TM) SE Runtime Environment
JVM: Java HotSpot(TM) 64-Bit Server VM
Java Version: 1.8.0_152-b16
Operating System: Mac OS X
OS Version: 10.13.6
Default Encoding: UTF-8
Language: de
Country: DE
--></g></svg>