<?xml version="1.0" encoding="UTF-8" standalone="no"?><svg xmlns="http://www.w3.org/2000/svg" xmlns:xlink="http://www.w3.org/1999/xlink" contentScriptType="application/ecmascript" contentStyleType="text/css" height="257px" preserveAspectRatio="none" style="width:242px;height:257px;" version="1.1" viewBox="0 0 242 257" width="242px" zoomAndPan="magnify"><defs><filter height="300%" id="fshs38qw6gcjd" width="300%" x="-1" y="-1"><feGaussianBlur result="blurOut" stdDeviation="2.0"/><feColorMatrix in="blurOut" result="blurOut2" type="matrix" values="0 0 0 0 0 0 0 0 0 0 0 0 0 0 0 0 0 0 .4 0"/><feOffset dx="4.0" dy="4.0" in="blurOut2" result="blurOut3"/><feBlend in="SourceGraphic" in2="blurOut3" mode="normal"/></filter></defs><g><!--class CameraConfig--><a href="CameraConfig.html" target="_top" xlink:actuate="onRequest" xlink:show="new" xlink:title="CameraConfig.html" xlink:type="simple"><rect fill="#FEFECE" filter="url(#fshs38qw6gcjd)" height="216.416" id="CameraConfig" style="stroke: #A80036; stroke-width: 1.5;" width="225" x="6" y="8"/><ellipse cx="73.75" cy="24" fill="#ADD1B2" rx="11" ry="11" style="stroke: #A80036; stroke-width: 1.0;"/><path d="M76.7231,29.6431 Q76.1421,29.9419 75.5029,30.0913 Q74.8638,30.2407 74.1582,30.2407 Q71.6514,30.2407 70.3315,28.5889 Q69.0117,26.937 69.0117,23.8159 Q69.0117,20.6865 70.3315,19.0347 Q71.6514,17.3828 74.1582,17.3828 Q74.8638,17.3828 75.5112,17.5322 Q76.1587,17.6816 76.7231,17.9805 L76.7231,20.7031 Q76.0923,20.1221 75.4988,19.8523 Q74.9053,19.5825 74.2744,19.5825 Q72.9297,19.5825 72.2449,20.6492 Q71.5601,21.7158 71.5601,23.8159 Q71.5601,25.9077 72.2449,26.9744 Q72.9297,28.041 74.2744,28.041 Q74.9053,28.041 75.4988,27.7712 Q76.0923,27.5015 76.7231,26.9204 Z "/><text fill="#000000" font-family="sans-serif" font-size="12" lengthAdjust="spacingAndGlyphs" textLength="81" x="94.25" y="28.5352">CameraConfig</text><line style="stroke: #A80036; stroke-width: 1.5;" x1="7" x2="230" y1="40" y2="40"/><line style="stroke: #A80036; stroke-width: 1.5;" x1="7" x2="230" y1="48" y2="48"/><ellipse cx="17" cy="59.9775" fill="#84BE84" rx="3" ry="3" style="stroke: #038048; stroke-width: 1.0;"/><text fill="#000000" font-family="sans-serif" font-size="11" lengthAdjust="spacingAndGlyphs" textLength="132" x="26" y="62.6348">getAngleOffset(): double</text><ellipse cx="17" cy="72.9326" fill="#84BE84" rx="3" ry="3" style="stroke: #038048; stroke-width: 1.0;"/><text fill="#000000" font-family="sans-serif" font-size="11" lengthAdjust="spacingAndGlyphs" textLength="154" x="26" y="75.5898">setAngleOffset(double): void</text><ellipse cx="17" cy="85.8877" fill="#84BE84" rx="3" ry="3" style="stroke: #038048; stroke-width: 1.0;"/><text fill="#000000" font-family="sans-serif" font-size="11" lengthAdjust="spacingAndGlyphs" textLength="95" x="26" y="88.5449">getInterval(): long</text><ellipse cx="17" cy="98.8428" fill="#84BE84" rx="3" ry="3" style="stroke: #038048; stroke-width: 1.0;"/><text fill="#000000" font-family="sans-serif" font-size="11" lengthAdjust="spacingAndGlyphs" textLength="91" x="26" y="101.5">getRoiy(): double</text><ellipse cx="17" cy="111.7979" fill="#84BE84" rx="3" ry="3" style="stroke: #038048; stroke-width: 1.0;"/><text fill="#000000" font-family="sans-serif" font-size="11" lengthAdjust="spacingAndGlyphs" textLength="113" x="26" y="114.4551">setRoiy(double): void</text><ellipse cx="17" cy="124.7529" fill="#84BE84" rx="3" ry="3" style="stroke: #038048; stroke-width: 1.0;"/><text fill="#000000" font-family="sans-serif" font-size="11" lengthAdjust="spacingAndGlyphs" textLength="92" x="26" y="127.4102">getRoih(): double</text><ellipse cx="17" cy="137.708" fill="#84BE84" rx="3" ry="3" style="stroke: #038048; stroke-width: 1.0;"/><text fill="#000000" font-family="sans-serif" font-size="11" lengthAdjust="spacingAndGlyphs" textLength="114" x="26" y="140.3652">setRoih(double): void</text><ellipse cx="17" cy="150.6631" fill="#84BE84" rx="3" ry="3" style="stroke: #038048; stroke-width: 1.0;"/><text fill="#000000" font-family="sans-serif" font-size="11" lengthAdjust="spacingAndGlyphs" textLength="100" x="26" y="153.3203">getSource(): String</text><ellipse cx="17" cy="163.6182" fill="#84BE84" rx="3" ry="3" style="stroke: #038048; stroke-width: 1.0;"/><text fill="#000000" font-family="sans-serif" font-size="11" lengthAdjust="spacingAndGlyphs" textLength="122" x="26" y="166.2754">setSource(String): void</text><ellipse cx="17" cy="176.5732" fill="#84BE84" rx="3" ry="3" style="stroke: #038048; stroke-width: 1.0;"/><text fill="#000000" font-family="sans-serif" font-size="11" lengthAdjust="spacingAndGlyphs" textLength="87" x="26" y="179.2305">getFps(): double</text><ellipse cx="17" cy="189.5283" fill="#84BE84" rx="3" ry="3" style="stroke: #038048; stroke-width: 1.0;"/><text fill="#000000" font-family="sans-serif" font-size="11" lengthAdjust="spacingAndGlyphs" textLength="109" x="26" y="192.1855">setFps(double): void</text><ellipse cx="17" cy="202.4834" fill="#84BE84" rx="3" ry="3" style="stroke: #038048; stroke-width: 1.0;"/><text fill="#000000" font-family="sans-serif" font-size="11" lengthAdjust="spacingAndGlyphs" textLength="169" x="26" y="205.1406">isShowStoppingZone(): boolean</text><ellipse cx="17" cy="215.4385" fill="#84BE84" rx="3" ry="3" style="stroke: #038048; stroke-width: 1.0;"/><text fill="#000000" font-family="sans-serif" font-size="11" lengthAdjust="spacingAndGlyphs" textLength="199" x="26" y="218.0957">setShowStoppingZone(boolean): void</text></a><text fill="#888888" font-family="sans-serif" font-size="10" lengthAdjust="spacingAndGlyphs" textLength="182" x="33.5" y="243.668">UMLDoclet 1.1.4, PlantUML 1.2019.05</text><!--
@startuml

    class CameraConfig [[CameraConfig.html]] {
        +getAngleOffset(): double
        +setAngleOffset(double): void
        +getInterval(): long
        +getRoiy(): double
        +setRoiy(double): void
        +getRoih(): double
        +setRoih(double): void
        +getSource(): String
        +setSource(String): void
        +getFps(): double
        +setFps(double): void
        +isShowStoppingZone(): boolean
        +setShowStoppingZone(boolean): void
    }


    center footer UMLDoclet 1.1.4, PlantUML 1.2019.05
@enduml

PlantUML version 1.2019.05(Sat Apr 20 18:45:36 CEST 2019)
(APACHE source distribution)
Java Runtime: Java(TM) SE Runtime Environment
JVM: Java HotSpot(TM) 64-Bit Server VM
Java Version: 1.8.0_152-b16
Operating System: Mac OS X
OS Version: 10.13.6
Default Encoding: UTF-8
Language: de
Country: DE
--></g></svg>