<?xml version="1.0" encoding="UTF-8" standalone="no"?><svg xmlns="http://www.w3.org/2000/svg" xmlns:xlink="http://www.w3.org/1999/xlink" contentScriptType="application/ecmascript" contentStyleType="text/css" height="361px" preserveAspectRatio="none" style="width:240px;height:361px;" version="1.1" viewBox="0 0 240 361" width="240px" zoomAndPan="magnify"><defs><filter height="300%" id="ff53gne3ph2d4" width="300%" x="-1" y="-1"><feGaussianBlur result="blurOut" stdDeviation="2.0"/><feColorMatrix in="blurOut" result="blurOut2" type="matrix" values="0 0 0 0 0 0 0 0 0 0 0 0 0 0 0 0 0 0 .4 0"/><feOffset dx="4.0" dy="4.0" in="blurOut2" result="blurOut3"/><feBlend in="SourceGraphic" in2="blurOut3" mode="normal"/></filter></defs><g><!--class ImageFetcher--><a href="ImageFetcher.html" target="_top" xlink:actuate="onRequest" xlink:show="new" xlink:title="ImageFetcher.html" xlink:type="simple"><rect fill="#FEFECE" filter="url(#ff53gne3ph2d4)" height="320.0566" id="ImageFetcher" style="stroke: #A80036; stroke-width: 1.5;" width="223" x="6" y="8"/><ellipse cx="74.75" cy="24" fill="#ADD1B2" rx="11" ry="11" style="stroke: #A80036; stroke-width: 1.0;"/><path d="M77.7231,29.6431 Q77.1421,29.9419 76.5029,30.0913 Q75.8638,30.2407 75.1582,30.2407 Q72.6514,30.2407 71.3315,28.5889 Q70.0117,26.937 70.0117,23.8159 Q70.0117,20.6865 71.3315,19.0347 Q72.6514,17.3828 75.1582,17.3828 Q75.8638,17.3828 76.5112,17.5322 Q77.1587,17.6816 77.7231,17.9805 L77.7231,20.7031 Q77.0923,20.1221 76.4988,19.8523 Q75.9053,19.5825 75.2744,19.5825 Q73.9297,19.5825 73.2449,20.6492 Q72.5601,21.7158 72.5601,23.8159 Q72.5601,25.9077 73.2449,26.9744 Q73.9297,28.041 75.2744,28.041 Q75.9053,28.041 76.4988,27.7712 Q77.0923,27.5015 77.7231,26.9204 Z "/><text fill="#000000" font-family="sans-serif" font-size="12" lengthAdjust="spacingAndGlyphs" textLength="77" x="95.25" y="28.5352">ImageFetcher</text><line style="stroke: #A80036; stroke-width: 1.5;" x1="7" x2="228" y1="40" y2="40"/><polygon fill="none" points="17,46.9775,21,50.9775,17,54.9775,13,50.9775" style="stroke: #B38D22; stroke-width: 1.0;"/><text fill="#000000" font-family="sans-serif" font-size="11" lengthAdjust="spacingAndGlyphs" text-decoration="underline" textLength="67" x="26" y="54.6348">LOG: Logger</text><ellipse cx="17" cy="64.9326" fill="none" rx="3" ry="3" style="stroke: #038048; stroke-width: 1.0;"/><text fill="#000000" font-family="sans-serif" font-size="11" lengthAdjust="spacingAndGlyphs" text-decoration="underline" textLength="116" x="26" y="67.5898">DEFAULT_FPS: double</text><ellipse cx="17" cy="77.8877" fill="none" rx="3" ry="3" style="stroke: #038048; stroke-width: 1.0;"/><text fill="#000000" font-family="sans-serif" font-size="11" lengthAdjust="spacingAndGlyphs" textLength="83" x="26" y="80.5449">debug: boolean</text><polygon fill="none" points="17,85.8428,21,89.8428,17,93.8428,13,89.8428" style="stroke: #B38D22; stroke-width: 1.0;"/><text fill="#000000" font-family="sans-serif" font-size="11" lengthAdjust="spacingAndGlyphs" textLength="81" x="26" y="93.5">frameIndex: int</text><polygon fill="none" points="17,98.7979,21,102.7979,17,106.7979,13,102.7979" style="stroke: #B38D22; stroke-width: 1.0;"/><text fill="#000000" font-family="sans-serif" font-size="11" lengthAdjust="spacingAndGlyphs" textLength="87" x="26" y="106.4551">failureCount: int</text><polygon fill="none" points="17,111.7529,21,115.7529,17,119.7529,13,115.7529" style="stroke: #B38D22; stroke-width: 1.0;"/><text fill="#000000" font-family="sans-serif" font-size="11" lengthAdjust="spacingAndGlyphs" textLength="112" x="26" y="119.4102">maxFailureCount: int</text><polygon fill="none" points="17,124.708,21,128.708,17,132.708,13,128.708" style="stroke: #B38D22; stroke-width: 1.0;"/><text fill="#000000" font-family="sans-serif" font-size="11" lengthAdjust="spacingAndGlyphs" textLength="60" x="26" y="132.3652">fps: double</text><line style="stroke: #A80036; stroke-width: 1.5;" x1="7" x2="228" y1="138.6855" y2="138.6855"/><ellipse cx="17" cy="150.6631" fill="#84BE84" rx="3" ry="3" style="stroke: #038048; stroke-width: 1.0;"/><text fill="#000000" font-family="sans-serif" font-size="11" lengthAdjust="spacingAndGlyphs" textLength="112" x="26" y="153.3203">ImageFetcher(String)</text><ellipse cx="17" cy="163.6182" fill="#84BE84" rx="3" ry="3" style="stroke: #038048; stroke-width: 1.0;"/><text fill="#000000" font-family="sans-serif" font-size="11" lengthAdjust="spacingAndGlyphs" textLength="87" x="26" y="166.2754">getFps(): double</text><ellipse cx="17" cy="176.5732" fill="#84BE84" rx="3" ry="3" style="stroke: #038048; stroke-width: 1.0;"/><text fill="#000000" font-family="sans-serif" font-size="11" lengthAdjust="spacingAndGlyphs" textLength="109" x="26" y="179.2305">setFps(double): void</text><ellipse cx="17" cy="189.5283" fill="#84BE84" rx="3" ry="3" style="stroke: #038048; stroke-width: 1.0;"/><text fill="#000000" font-family="sans-serif" font-size="11" lengthAdjust="spacingAndGlyphs" textLength="108" x="26" y="192.1855">getFrameIndex(): int</text><ellipse cx="17" cy="202.4834" fill="#84BE84" rx="3" ry="3" style="stroke: #038048; stroke-width: 1.0;"/><text fill="#000000" font-family="sans-serif" font-size="11" lengthAdjust="spacingAndGlyphs" textLength="127" x="26" y="205.1406">isStaticImage(): boolean</text><ellipse cx="17" cy="215.4385" fill="#84BE84" rx="3" ry="3" style="stroke: #038048; stroke-width: 1.0;"/><text fill="#000000" font-family="sans-serif" font-size="11" lengthAdjust="spacingAndGlyphs" textLength="157" x="26" y="218.0957">setStaticImage(boolean): void</text><ellipse cx="17" cy="228.3936" fill="#84BE84" rx="3" ry="3" style="stroke: #038048; stroke-width: 1.0;"/><text fill="#000000" font-family="sans-serif" font-size="11" lengthAdjust="spacingAndGlyphs" textLength="84" x="26" y="231.0508">open(): boolean</text><ellipse cx="17" cy="241.3486" fill="#84BE84" rx="3" ry="3" style="stroke: #038048; stroke-width: 1.0;"/><text fill="#000000" font-family="sans-serif" font-size="11" lengthAdjust="spacingAndGlyphs" textLength="65" x="26" y="244.0059">close(): void</text><ellipse cx="17" cy="254.3037" fill="#84BE84" rx="3" ry="3" style="stroke: #038048; stroke-width: 1.0;"/><text fill="#000000" font-family="sans-serif" font-size="11" lengthAdjust="spacingAndGlyphs" textLength="135" x="26" y="256.9609">waitForNextFrame(): long</text><ellipse cx="17" cy="267.2588" fill="#84BE84" rx="3" ry="3" style="stroke: #038048; stroke-width: 1.0;"/><text fill="#000000" font-family="sans-serif" font-size="11" lengthAdjust="spacingAndGlyphs" textLength="73" x="26" y="269.916">fetch(): Image</text><ellipse cx="17" cy="280.2139" fill="#84BE84" rx="3" ry="3" style="stroke: #038048; stroke-width: 1.0;"/><text fill="#000000" font-family="sans-serif" font-size="11" lengthAdjust="spacingAndGlyphs" textLength="185" x="26" y="282.8711">createNextImage(Mat, long): Image</text><ellipse cx="17" cy="293.1689" fill="#84BE84" rx="3" ry="3" style="stroke: #038048; stroke-width: 1.0;"/><text fill="#000000" font-family="sans-serif" font-size="11" lengthAdjust="spacingAndGlyphs" textLength="197" x="26" y="295.8262">toObservable(): Observable&lt;Image&gt;</text><ellipse cx="17" cy="306.124" fill="#84BE84" rx="3" ry="3" style="stroke: #038048; stroke-width: 1.0;"/><text fill="#000000" font-family="sans-serif" font-size="11" lengthAdjust="spacingAndGlyphs" textLength="101" x="26" y="308.7813">hasNext(): boolean</text><ellipse cx="17" cy="319.0791" fill="#84BE84" rx="3" ry="3" style="stroke: #038048; stroke-width: 1.0;"/><text fill="#000000" font-family="sans-serif" font-size="11" lengthAdjust="spacingAndGlyphs" textLength="103" x="26" y="321.7363">isClosed(): boolean</text></a><text fill="#888888" font-family="sans-serif" font-size="10" lengthAdjust="spacingAndGlyphs" textLength="182" x="32.5" y="347.668">UMLDoclet 1.1.4, PlantUML 1.2019.05</text><!--
@startuml

    class ImageFetcher [[ImageFetcher.html]] {
        {static} #LOG: Logger
        {static} +DEFAULT_FPS: double
        +debug: boolean
        #frameIndex: int
        #failureCount: int
        #maxFailureCount: int
        #fps: double
        +ImageFetcher(String)
        +getFps(): double
        +setFps(double): void
        +getFrameIndex(): int
        +isStaticImage(): boolean
        +setStaticImage(boolean): void
        +open(): boolean
        +close(): void
        +waitForNextFrame(): long
        +fetch(): Image
        +createNextImage(Mat, long): Image
        +toObservable(): Observable<Image>
        +hasNext(): boolean
        +isClosed(): boolean
    }


    center footer UMLDoclet 1.1.4, PlantUML 1.2019.05
@enduml

PlantUML version 1.2019.05(Sat Apr 20 18:45:36 CEST 2019)
(APACHE source distribution)
Java Runtime: Java(TM) SE Runtime Environment
JVM: Java HotSpot(TM) 64-Bit Server VM
Java Version: 1.8.0_152-b16
Operating System: Mac OS X
OS Version: 10.13.6
Default Encoding: UTF-8
Language: de
Country: DE
--></g></svg>