<?xml version="1.0" encoding="UTF-8" standalone="no"?><svg xmlns="http://www.w3.org/2000/svg" xmlns:xlink="http://www.w3.org/1999/xlink" contentScriptType="application/ecmascript" contentStyleType="text/css" height="933px" preserveAspectRatio="none" style="width:1672px;height:933px;" version="1.1" viewBox="0 0 1672 933" width="1672px" zoomAndPan="magnify"><defs><filter height="300%" id="fpndixzsqo2vy" width="300%" x="-1" y="-1"><feGaussianBlur result="blurOut" stdDeviation="2.0"/><feColorMatrix in="blurOut" result="blurOut2" type="matrix" values="0 0 0 0 0 0 0 0 0 0 0 0 0 0 0 0 0 0 .4 0"/><feOffset dx="4.0" dy="4.0" in="blurOut2" result="blurOut3"/><feBlend in="SourceGraphic" in2="blurOut3" mode="normal"/></filter></defs><g><!--cluster org.rcdukes.detect--><polygon fill="#FFFFFF" filter="url(#fpndixzsqo2vy)" points="14,182,150,182,157,204.4883,1650,204.4883,1650,892,14,892,14,182" style="stroke: #000000; stroke-width: 1.5;"/><line style="stroke: #000000; stroke-width: 1.5;" x1="14" x2="157" y1="204.4883" y2="204.4883"/><text fill="#000000" font-family="sans-serif" font-size="14" font-weight="bold" lengthAdjust="spacingAndGlyphs" textLength="130" x="18" y="197.5352">org.rcdukes.detect</text><!--cluster io.reactivex--><polygon fill="#FFFFFF" filter="url(#fpndixzsqo2vy)" points="14,16,101,16,108,38.4883,220,38.4883,220,151,14,151,14,16" style="stroke: #000000; stroke-width: 1.5;"/><line style="stroke: #000000; stroke-width: 1.5;" x1="14" x2="108" y1="38.4883" y2="38.4883"/><text fill="#000000" font-family="sans-serif" font-size="14" font-weight="bold" lengthAdjust="spacingAndGlyphs" textLength="81" x="18" y="31.5352">io.reactivex</text><!--cluster org.rcdukes.detectors--><polygon fill="#FFFFFF" filter="url(#fpndixzsqo2vy)" points="1046,29,1205,29,1212,51.4883,1384,51.4883,1384,138,1046,138,1046,29" style="stroke: #000000; stroke-width: 1.5;"/><line style="stroke: #000000; stroke-width: 1.5;" x1="1046" x2="1212" y1="51.4883" y2="51.4883"/><text fill="#000000" font-family="sans-serif" font-size="14" font-weight="bold" lengthAdjust="spacingAndGlyphs" textLength="153" x="1050" y="44.5352">org.rcdukes.detectors</text><!--cluster org.rcdukes.common--><polygon fill="#FFFFFF" filter="url(#fpndixzsqo2vy)" points="1450,42,1604,42,1611,64.4883,1614,64.4883,1614,125,1450,125,1450,42" style="stroke: #000000; stroke-width: 1.5;"/><line style="stroke: #000000; stroke-width: 1.5;" x1="1450" x2="1611" y1="64.4883" y2="64.4883"/><text fill="#000000" font-family="sans-serif" font-size="14" font-weight="bold" lengthAdjust="spacingAndGlyphs" textLength="148" x="1454" y="57.5352">org.rcdukes.common</text><!--class org.rcdukes.detect.CameraConfig--><a href="CameraConfig.html" target="_top" xlink:actuate="onRequest" xlink:show="new" xlink:title="CameraConfig.html" xlink:type="simple"><rect fill="#FEFECE" filter="url(#fpndixzsqo2vy)" height="216.416" id="org.rcdukes.detect.CameraConfig" style="stroke: #A80036; stroke-width: 1.5;" width="225" x="643.5" y="668"/><ellipse cx="711.25" cy="684" fill="#ADD1B2" rx="11" ry="11" style="stroke: #A80036; stroke-width: 1.0;"/><path d="M714.2231,689.6431 Q713.6421,689.9419 713.0029,690.0913 Q712.3638,690.2407 711.6582,690.2407 Q709.1514,690.2407 707.8315,688.5889 Q706.5117,686.937 706.5117,683.8159 Q706.5117,680.6865 707.8315,679.0347 Q709.1514,677.3828 711.6582,677.3828 Q712.3638,677.3828 713.0112,677.5322 Q713.6587,677.6816 714.2231,677.9805 L714.2231,680.7031 Q713.5923,680.1221 712.9988,679.8523 Q712.4053,679.5825 711.7744,679.5825 Q710.4297,679.5825 709.7449,680.6492 Q709.0601,681.7158 709.0601,683.8159 Q709.0601,685.9077 709.7449,686.9744 Q710.4297,688.041 711.7744,688.041 Q712.4053,688.041 712.9988,687.7712 Q713.5923,687.5015 714.2231,686.9204 Z "/><text fill="#000000" font-family="sans-serif" font-size="12" lengthAdjust="spacingAndGlyphs" textLength="81" x="731.75" y="688.5352">CameraConfig</text><line style="stroke: #A80036; stroke-width: 1.5;" x1="644.5" x2="867.5" y1="700" y2="700"/><line style="stroke: #A80036; stroke-width: 1.5;" x1="644.5" x2="867.5" y1="708" y2="708"/><ellipse cx="654.5" cy="719.9775" fill="#84BE84" rx="3" ry="3" style="stroke: #038048; stroke-width: 1.0;"/><text fill="#000000" font-family="sans-serif" font-size="11" lengthAdjust="spacingAndGlyphs" textLength="132" x="663.5" y="722.6348">getAngleOffset(): double</text><ellipse cx="654.5" cy="732.9326" fill="#84BE84" rx="3" ry="3" style="stroke: #038048; stroke-width: 1.0;"/><text fill="#000000" font-family="sans-serif" font-size="11" lengthAdjust="spacingAndGlyphs" textLength="154" x="663.5" y="735.5898">setAngleOffset(double): void</text><ellipse cx="654.5" cy="745.8877" fill="#84BE84" rx="3" ry="3" style="stroke: #038048; stroke-width: 1.0;"/><text fill="#000000" font-family="sans-serif" font-size="11" lengthAdjust="spacingAndGlyphs" textLength="95" x="663.5" y="748.5449">getInterval(): long</text><ellipse cx="654.5" cy="758.8428" fill="#84BE84" rx="3" ry="3" style="stroke: #038048; stroke-width: 1.0;"/><text fill="#000000" font-family="sans-serif" font-size="11" lengthAdjust="spacingAndGlyphs" textLength="91" x="663.5" y="761.5">getRoiy(): double</text><ellipse cx="654.5" cy="771.7979" fill="#84BE84" rx="3" ry="3" style="stroke: #038048; stroke-width: 1.0;"/><text fill="#000000" font-family="sans-serif" font-size="11" lengthAdjust="spacingAndGlyphs" textLength="113" x="663.5" y="774.4551">setRoiy(double): void</text><ellipse cx="654.5" cy="784.7529" fill="#84BE84" rx="3" ry="3" style="stroke: #038048; stroke-width: 1.0;"/><text fill="#000000" font-family="sans-serif" font-size="11" lengthAdjust="spacingAndGlyphs" textLength="92" x="663.5" y="787.4102">getRoih(): double</text><ellipse cx="654.5" cy="797.708" fill="#84BE84" rx="3" ry="3" style="stroke: #038048; stroke-width: 1.0;"/><text fill="#000000" font-family="sans-serif" font-size="11" lengthAdjust="spacingAndGlyphs" textLength="114" x="663.5" y="800.3652">setRoih(double): void</text><ellipse cx="654.5" cy="810.6631" fill="#84BE84" rx="3" ry="3" style="stroke: #038048; stroke-width: 1.0;"/><text fill="#000000" font-family="sans-serif" font-size="11" lengthAdjust="spacingAndGlyphs" textLength="100" x="663.5" y="813.3203">getSource(): String</text><ellipse cx="654.5" cy="823.6182" fill="#84BE84" rx="3" ry="3" style="stroke: #038048; stroke-width: 1.0;"/><text fill="#000000" font-family="sans-serif" font-size="11" lengthAdjust="spacingAndGlyphs" textLength="122" x="663.5" y="826.2754">setSource(String): void</text><ellipse cx="654.5" cy="836.5732" fill="#84BE84" rx="3" ry="3" style="stroke: #038048; stroke-width: 1.0;"/><text fill="#000000" font-family="sans-serif" font-size="11" lengthAdjust="spacingAndGlyphs" textLength="87" x="663.5" y="839.2305">getFps(): double</text><ellipse cx="654.5" cy="849.5283" fill="#84BE84" rx="3" ry="3" style="stroke: #038048; stroke-width: 1.0;"/><text fill="#000000" font-family="sans-serif" font-size="11" lengthAdjust="spacingAndGlyphs" textLength="109" x="663.5" y="852.1855">setFps(double): void</text><ellipse cx="654.5" cy="862.4834" fill="#84BE84" rx="3" ry="3" style="stroke: #038048; stroke-width: 1.0;"/><text fill="#000000" font-family="sans-serif" font-size="11" lengthAdjust="spacingAndGlyphs" textLength="169" x="663.5" y="865.1406">isShowStoppingZone(): boolean</text><ellipse cx="654.5" cy="875.4385" fill="#84BE84" rx="3" ry="3" style="stroke: #038048; stroke-width: 1.0;"/><text fill="#000000" font-family="sans-serif" font-size="11" lengthAdjust="spacingAndGlyphs" textLength="199" x="663.5" y="878.0957">setShowStoppingZone(boolean): void</text></a><!--class org.rcdukes.detect.ImageObserver--><a href="ImageObserver.html" target="_top" xlink:actuate="onRequest" xlink:show="new" xlink:title="ImageObserver.html" xlink:type="simple"><rect fill="#FEFECE" filter="url(#fpndixzsqo2vy)" height="190.5059" id="org.rcdukes.detect.ImageObserver" style="stroke: #A80036; stroke-width: 1.5;" width="189" x="22.5" y="273.5"/><ellipse cx="68.75" cy="289.5" fill="#ADD1B2" rx="11" ry="11" style="stroke: #A80036; stroke-width: 1.0;"/><path d="M71.7231,295.1431 Q71.1421,295.4419 70.5029,295.5913 Q69.8638,295.7407 69.1582,295.7407 Q66.6514,295.7407 65.3315,294.0889 Q64.0117,292.437 64.0117,289.3159 Q64.0117,286.1865 65.3315,284.5347 Q66.6514,282.8828 69.1582,282.8828 Q69.8638,282.8828 70.5112,283.0322 Q71.1587,283.1816 71.7231,283.4805 L71.7231,286.2031 Q71.0923,285.6221 70.4988,285.3523 Q69.9053,285.0825 69.2744,285.0825 Q67.9297,285.0825 67.2449,286.1492 Q66.5601,287.2158 66.5601,289.3159 Q66.5601,291.4077 67.2449,292.4744 Q67.9297,293.541 69.2744,293.541 Q69.9053,293.541 70.4988,293.2712 Q71.0923,293.0015 71.7231,292.4204 Z "/><text fill="#000000" font-family="sans-serif" font-size="12" lengthAdjust="spacingAndGlyphs" textLength="88" x="89.25" y="294.0352">ImageObserver</text><line style="stroke: #A80036; stroke-width: 1.5;" x1="23.5" x2="210.5" y1="305.5" y2="305.5"/><ellipse cx="33.5" cy="317.4775" fill="none" rx="3" ry="3" style="stroke: #038048; stroke-width: 1.0;"/><text fill="#000000" font-family="sans-serif" font-size="11" lengthAdjust="spacingAndGlyphs" textLength="90" x="42.5" y="320.1348">error: Throwable</text><ellipse cx="33.5" cy="330.4326" fill="none" rx="3" ry="3" style="stroke: #038048; stroke-width: 1.0;"/><text fill="#000000" font-family="sans-serif" font-size="11" lengthAdjust="spacingAndGlyphs" textLength="42" x="42.5" y="333.0898">cols: int</text><ellipse cx="33.5" cy="343.3877" fill="none" rx="3" ry="3" style="stroke: #038048; stroke-width: 1.0;"/><text fill="#000000" font-family="sans-serif" font-size="11" lengthAdjust="spacingAndGlyphs" textLength="46" x="42.5" y="346.0449">rows: int</text><ellipse cx="33.5" cy="356.3428" fill="none" rx="3" ry="3" style="stroke: #038048; stroke-width: 1.0;"/><text fill="#000000" font-family="sans-serif" font-size="11" lengthAdjust="spacingAndGlyphs" textLength="105" x="42.5" y="359">completed: boolean</text><ellipse cx="33.5" cy="369.2979" fill="none" rx="3" ry="3" style="stroke: #038048; stroke-width: 1.0;"/><text fill="#000000" font-family="sans-serif" font-size="11" lengthAdjust="spacingAndGlyphs" textLength="83" x="42.5" y="371.9551">debug: boolean</text><ellipse cx="33.5" cy="382.2529" fill="none" rx="3" ry="3" style="stroke: #038048; stroke-width: 1.0;"/><text fill="#000000" font-family="sans-serif" font-size="11" lengthAdjust="spacingAndGlyphs" textLength="120" x="42.5" y="384.9102">stackTraceText: String</text><line style="stroke: #A80036; stroke-width: 1.5;" x1="23.5" x2="210.5" y1="391.2305" y2="391.2305"/><ellipse cx="33.5" cy="403.208" fill="#84BE84" rx="3" ry="3" style="stroke: #038048; stroke-width: 1.0;"/><text fill="#000000" font-family="sans-serif" font-size="11" lengthAdjust="spacingAndGlyphs" textLength="102" x="42.5" y="405.8652">onComplete(): void</text><ellipse cx="33.5" cy="416.1631" fill="#84BE84" rx="3" ry="3" style="stroke: #038048; stroke-width: 1.0;"/><text fill="#000000" font-family="sans-serif" font-size="11" lengthAdjust="spacingAndGlyphs" textLength="135" x="42.5" y="418.8203">onError(Throwable): void</text><ellipse cx="33.5" cy="429.1182" fill="#84BE84" rx="3" ry="3" style="stroke: #038048; stroke-width: 1.0;"/><text fill="#000000" font-family="sans-serif" font-size="11" lengthAdjust="spacingAndGlyphs" textLength="108" x="42.5" y="431.7754">onNext(Image): void</text><ellipse cx="33.5" cy="442.0732" fill="#84BE84" rx="3" ry="3" style="stroke: #038048; stroke-width: 1.0;"/><text fill="#000000" font-family="sans-serif" font-size="11" lengthAdjust="spacingAndGlyphs" textLength="163" x="42.5" y="444.7305">onSubscribe(Disposable): void</text><ellipse cx="33.5" cy="455.0283" fill="#84BE84" rx="3" ry="3" style="stroke: #038048; stroke-width: 1.0;"/><text fill="#000000" font-family="sans-serif" font-size="11" lengthAdjust="spacingAndGlyphs" textLength="61" x="42.5" y="457.6855">stop(): void</text></a><!--class org.rcdukes.detect.StartLightDetectorImpl--><a href="StartLightDetectorImpl.html" target="_top" xlink:actuate="onRequest" xlink:show="new" xlink:title="StartLightDetectorImpl.html" xlink:type="simple"><rect fill="#FEFECE" filter="url(#fpndixzsqo2vy)" height="125.7305" id="org.rcdukes.detect.StartLightDetectorImpl" style="stroke: #A80036; stroke-width: 1.5;" width="345" x="1042.5" y="306"/><ellipse cx="1147.25" cy="322" fill="#ADD1B2" rx="11" ry="11" style="stroke: #A80036; stroke-width: 1.0;"/><path d="M1150.2231,327.6431 Q1149.6421,327.9419 1149.0029,328.0913 Q1148.3638,328.2407 1147.6582,328.2407 Q1145.1514,328.2407 1143.8315,326.5889 Q1142.5117,324.937 1142.5117,321.8159 Q1142.5117,318.6865 1143.8315,317.0347 Q1145.1514,315.3828 1147.6582,315.3828 Q1148.3638,315.3828 1149.0112,315.5322 Q1149.6587,315.6816 1150.2231,315.9805 L1150.2231,318.7031 Q1149.5923,318.1221 1148.9988,317.8523 Q1148.4053,317.5825 1147.7744,317.5825 Q1146.4297,317.5825 1145.7449,318.6492 Q1145.0601,319.7158 1145.0601,321.8159 Q1145.0601,323.9077 1145.7449,324.9744 Q1146.4297,326.041 1147.7744,326.041 Q1148.4053,326.041 1148.9988,325.7712 Q1149.5923,325.5015 1150.2231,324.9204 Z "/><text fill="#000000" font-family="sans-serif" font-size="12" lengthAdjust="spacingAndGlyphs" textLength="127" x="1167.75" y="326.5352">StartLightDetectorImpl</text><line style="stroke: #A80036; stroke-width: 1.5;" x1="1043.5" x2="1386.5" y1="338" y2="338"/><line style="stroke: #A80036; stroke-width: 1.5;" x1="1043.5" x2="1386.5" y1="346" y2="346"/><ellipse cx="1053.5" cy="357.9775" fill="#84BE84" rx="3" ry="3" style="stroke: #038048; stroke-width: 1.0;"/><text fill="#000000" font-family="sans-serif" font-size="11" lengthAdjust="spacingAndGlyphs" textLength="129" x="1062.5" y="360.6348">StartLightDetectorImpl()</text><ellipse cx="1053.5" cy="370.9326" fill="#84BE84" rx="3" ry="3" style="stroke: #038048; stroke-width: 1.0;"/><text fill="#000000" font-family="sans-serif" font-size="11" lengthAdjust="spacingAndGlyphs" textLength="243" x="1062.5" y="373.5898">StartLightDetectorImpl(int, int, int, int, int, int)</text><ellipse cx="1053.5" cy="383.8877" fill="#84BE84" rx="3" ry="3" style="stroke: #038048; stroke-width: 1.0;"/><text fill="#000000" font-family="sans-serif" font-size="11" lengthAdjust="spacingAndGlyphs" textLength="289" x="1062.5" y="386.5449">StartLightDetectorImpl(StartLightDetectorImpl.Config)</text><ellipse cx="1053.5" cy="396.8428" fill="#84BE84" rx="3" ry="3" style="stroke: #038048; stroke-width: 1.0;"/><text fill="#000000" font-family="sans-serif" font-size="11" lengthAdjust="spacingAndGlyphs" textLength="131" x="1062.5" y="399.5">detect(Image): StartLight</text><ellipse cx="1053.5" cy="409.7979" fill="#84BE84" rx="3" ry="3" style="stroke: #038048; stroke-width: 1.0;"/><text fill="#000000" font-family="sans-serif" font-size="11" lengthAdjust="spacingAndGlyphs" textLength="83" x="1062.5" y="412.4551">getFrame(): Mat</text><ellipse cx="1053.5" cy="422.7529" fill="#84BE84" rx="3" ry="3" style="stroke: #038048; stroke-width: 1.0;"/><text fill="#000000" font-family="sans-serif" font-size="11" lengthAdjust="spacingAndGlyphs" textLength="319" x="1062.5" y="425.4102">withImageCollector(ImageCollector): StartLightDetectorImpl</text></a><!--class org.rcdukes.detect.StartLightDetectorImpl.Config--><a href="StartLightDetectorImpl.Config.html" target="_top" xlink:actuate="onRequest" xlink:show="new" xlink:title="StartLightDetectorImpl.Config.html" xlink:type="simple"><rect fill="#FEFECE" filter="url(#fpndixzsqo2vy)" height="203.4609" id="org.rcdukes.detect.StartLightDetectorImpl.Config" style="stroke: #A80036; stroke-width: 1.5;" width="199" x="1115.5" y="674.5"/><ellipse cx="1130.5" cy="690.5" fill="#ADD1B2" rx="11" ry="11" style="stroke: #A80036; stroke-width: 1.0;"/><path d="M1133.4731,696.1431 Q1132.8921,696.4419 1132.2529,696.5913 Q1131.6138,696.7407 1130.9082,696.7407 Q1128.4014,696.7407 1127.0815,695.0889 Q1125.7617,693.437 1125.7617,690.3159 Q1125.7617,687.1865 1127.0815,685.5347 Q1128.4014,683.8828 1130.9082,683.8828 Q1131.6138,683.8828 1132.2612,684.0322 Q1132.9087,684.1816 1133.4731,684.4805 L1133.4731,687.2031 Q1132.8423,686.6221 1132.2488,686.3523 Q1131.6553,686.0825 1131.0244,686.0825 Q1129.6797,686.0825 1128.9949,687.1492 Q1128.3101,688.2158 1128.3101,690.3159 Q1128.3101,692.4077 1128.9949,693.4744 Q1129.6797,694.541 1131.0244,694.541 Q1131.6553,694.541 1132.2488,694.2712 Q1132.8423,694.0015 1133.4731,693.4204 Z "/><text fill="#000000" font-family="sans-serif" font-size="12" lengthAdjust="spacingAndGlyphs" textLength="167" x="1144.5" y="695.0352">StartLightDetectorImpl.Config</text><line style="stroke: #A80036; stroke-width: 1.5;" x1="1116.5" x2="1313.5" y1="706.5" y2="706.5"/><line style="stroke: #A80036; stroke-width: 1.5;" x1="1116.5" x2="1313.5" y1="714.5" y2="714.5"/><ellipse cx="1126.5" cy="726.4775" fill="#84BE84" rx="3" ry="3" style="stroke: #038048; stroke-width: 1.0;"/><text fill="#000000" font-family="sans-serif" font-size="11" lengthAdjust="spacingAndGlyphs" textLength="114" x="1135.5" y="729.1348">getHueStart(): double</text><ellipse cx="1126.5" cy="739.4326" fill="#84BE84" rx="3" ry="3" style="stroke: #038048; stroke-width: 1.0;"/><text fill="#000000" font-family="sans-serif" font-size="11" lengthAdjust="spacingAndGlyphs" textLength="136" x="1135.5" y="742.0898">setHueStart(double): void</text><ellipse cx="1126.5" cy="752.3877" fill="#84BE84" rx="3" ry="3" style="stroke: #038048; stroke-width: 1.0;"/><text fill="#000000" font-family="sans-serif" font-size="11" lengthAdjust="spacingAndGlyphs" textLength="113" x="1135.5" y="755.0449">getHueStop(): double</text><ellipse cx="1126.5" cy="765.3428" fill="#84BE84" rx="3" ry="3" style="stroke: #038048; stroke-width: 1.0;"/><text fill="#000000" font-family="sans-serif" font-size="11" lengthAdjust="spacingAndGlyphs" textLength="135" x="1135.5" y="768">setHueStop(double): void</text><ellipse cx="1126.5" cy="778.2979" fill="#84BE84" rx="3" ry="3" style="stroke: #038048; stroke-width: 1.0;"/><text fill="#000000" font-family="sans-serif" font-size="11" lengthAdjust="spacingAndGlyphs" textLength="148" x="1135.5" y="780.9551">getSaturationStart(): double</text><ellipse cx="1126.5" cy="791.2529" fill="#84BE84" rx="3" ry="3" style="stroke: #038048; stroke-width: 1.0;"/><text fill="#000000" font-family="sans-serif" font-size="11" lengthAdjust="spacingAndGlyphs" textLength="170" x="1135.5" y="793.9102">setSaturationStart(double): void</text><ellipse cx="1126.5" cy="804.208" fill="#84BE84" rx="3" ry="3" style="stroke: #038048; stroke-width: 1.0;"/><text fill="#000000" font-family="sans-serif" font-size="11" lengthAdjust="spacingAndGlyphs" textLength="147" x="1135.5" y="806.8652">getSaturationStop(): double</text><ellipse cx="1126.5" cy="817.1631" fill="#84BE84" rx="3" ry="3" style="stroke: #038048; stroke-width: 1.0;"/><text fill="#000000" font-family="sans-serif" font-size="11" lengthAdjust="spacingAndGlyphs" textLength="169" x="1135.5" y="819.8203">setSaturationStop(double): void</text><ellipse cx="1126.5" cy="830.1182" fill="#84BE84" rx="3" ry="3" style="stroke: #038048; stroke-width: 1.0;"/><text fill="#000000" font-family="sans-serif" font-size="11" lengthAdjust="spacingAndGlyphs" textLength="122" x="1135.5" y="832.7754">getValueStart(): double</text><ellipse cx="1126.5" cy="843.0732" fill="#84BE84" rx="3" ry="3" style="stroke: #038048; stroke-width: 1.0;"/><text fill="#000000" font-family="sans-serif" font-size="11" lengthAdjust="spacingAndGlyphs" textLength="144" x="1135.5" y="845.7305">setValueStart(double): void</text><ellipse cx="1126.5" cy="856.0283" fill="#84BE84" rx="3" ry="3" style="stroke: #038048; stroke-width: 1.0;"/><text fill="#000000" font-family="sans-serif" font-size="11" lengthAdjust="spacingAndGlyphs" textLength="121" x="1135.5" y="858.6855">getValueStop(): double</text><ellipse cx="1126.5" cy="868.9834" fill="#84BE84" rx="3" ry="3" style="stroke: #038048; stroke-width: 1.0;"/><text fill="#000000" font-family="sans-serif" font-size="11" lengthAdjust="spacingAndGlyphs" textLength="143" x="1135.5" y="871.6406">setValueStop(double): void</text></a><!--class org.rcdukes.detect.LaneDetector--><a href="LaneDetector.html" target="_top" xlink:actuate="onRequest" xlink:show="new" xlink:title="LaneDetector.html" xlink:type="simple"><rect fill="#FEFECE" filter="url(#fpndixzsqo2vy)" height="190.5059" id="org.rcdukes.detect.LaneDetector" style="stroke: #A80036; stroke-width: 1.5;" width="502" x="505" y="273.5"/><ellipse cx="713.75" cy="289.5" fill="#ADD1B2" rx="11" ry="11" style="stroke: #A80036; stroke-width: 1.0;"/><path d="M716.7231,295.1431 Q716.1421,295.4419 715.5029,295.5913 Q714.8638,295.7407 714.1582,295.7407 Q711.6514,295.7407 710.3315,294.0889 Q709.0117,292.437 709.0117,289.3159 Q709.0117,286.1865 710.3315,284.5347 Q711.6514,282.8828 714.1582,282.8828 Q714.8638,282.8828 715.5112,283.0322 Q716.1587,283.1816 716.7231,283.4805 L716.7231,286.2031 Q716.0923,285.6221 715.4988,285.3523 Q714.9053,285.0825 714.2744,285.0825 Q712.9297,285.0825 712.2449,286.1492 Q711.5601,287.2158 711.5601,289.3159 Q711.5601,291.4077 712.2449,292.4744 Q712.9297,293.541 714.2744,293.541 Q714.9053,293.541 715.4988,293.2712 Q716.0923,293.0015 716.7231,292.4204 Z "/><text fill="#000000" font-family="sans-serif" font-size="12" lengthAdjust="spacingAndGlyphs" textLength="76" x="734.25" y="294.0352">LaneDetector</text><line style="stroke: #A80036; stroke-width: 1.5;" x1="506" x2="1006" y1="305.5" y2="305.5"/><line style="stroke: #A80036; stroke-width: 1.5;" x1="506" x2="1006" y1="313.5" y2="313.5"/><ellipse cx="516" cy="325.4775" fill="#84BE84" rx="3" ry="3" style="stroke: #038048; stroke-width: 1.0;"/><text fill="#000000" font-family="sans-serif" font-size="11" lengthAdjust="spacingAndGlyphs" textLength="476" x="525" y="328.1348">LaneDetector(EdgeDetector, LineDetector, CameraConfig, CameraMatrix, ImageCollector)</text><ellipse cx="516" cy="338.4326" fill="#84BE84" rx="3" ry="3" style="stroke: #038048; stroke-width: 1.0;"/><text fill="#000000" font-family="sans-serif" font-size="11" lengthAdjust="spacingAndGlyphs" text-decoration="underline" textLength="140" x="525" y="341.0898">getDefault(): LaneDetector</text><ellipse cx="516" cy="351.3877" fill="#84BE84" rx="3" ry="3" style="stroke: #038048; stroke-width: 1.0;"/><text fill="#000000" font-family="sans-serif" font-size="11" lengthAdjust="spacingAndGlyphs" textLength="188" x="525" y="354.0449">detect(Image): LaneDetectionResult</text><ellipse cx="516" cy="364.3428" fill="#84BE84" rx="3" ry="3" style="stroke: #038048; stroke-width: 1.0;"/><text fill="#000000" font-family="sans-serif" font-size="11" lengthAdjust="spacingAndGlyphs" textLength="140" x="525" y="367">getMatrix(): CameraMatrix</text><ellipse cx="516" cy="377.2979" fill="#84BE84" rx="3" ry="3" style="stroke: #038048; stroke-width: 1.0;"/><text fill="#000000" font-family="sans-serif" font-size="11" lengthAdjust="spacingAndGlyphs" textLength="162" x="525" y="379.9551">setMatrix(CameraMatrix): void</text><ellipse cx="516" cy="390.2529" fill="#84BE84" rx="3" ry="3" style="stroke: #038048; stroke-width: 1.0;"/><text fill="#000000" font-family="sans-serif" font-size="11" lengthAdjust="spacingAndGlyphs" textLength="175" x="525" y="392.9102">getEdgeDetector(): EdgeDetector</text><ellipse cx="516" cy="403.208" fill="#84BE84" rx="3" ry="3" style="stroke: #038048; stroke-width: 1.0;"/><text fill="#000000" font-family="sans-serif" font-size="11" lengthAdjust="spacingAndGlyphs" textLength="197" x="525" y="405.8652">setEdgeDetector(EdgeDetector): void</text><ellipse cx="516" cy="416.1631" fill="#84BE84" rx="3" ry="3" style="stroke: #038048; stroke-width: 1.0;"/><text fill="#000000" font-family="sans-serif" font-size="11" lengthAdjust="spacingAndGlyphs" textLength="167" x="525" y="418.8203">getLineDetector(): LineDetector</text><ellipse cx="516" cy="429.1182" fill="#84BE84" rx="3" ry="3" style="stroke: #038048; stroke-width: 1.0;"/><text fill="#000000" font-family="sans-serif" font-size="11" lengthAdjust="spacingAndGlyphs" textLength="189" x="525" y="431.7754">setLineDetector(LineDetector): void</text><ellipse cx="516" cy="442.0732" fill="#84BE84" rx="3" ry="3" style="stroke: #038048; stroke-width: 1.0;"/><text fill="#000000" font-family="sans-serif" font-size="11" lengthAdjust="spacingAndGlyphs" textLength="161" x="525" y="444.7305">getCollector(): ImageCollector</text><ellipse cx="516" cy="455.0283" fill="#84BE84" rx="3" ry="3" style="stroke: #038048; stroke-width: 1.0;"/><text fill="#000000" font-family="sans-serif" font-size="11" lengthAdjust="spacingAndGlyphs" textLength="183" x="525" y="457.6855">setCollector(ImageCollector): void</text></a><!--class org.rcdukes.detect.ImageFetcher--><a href="ImageFetcher.html" target="_top" xlink:actuate="onRequest" xlink:show="new" xlink:title="ImageFetcher.html" xlink:type="simple"><rect fill="#FEFECE" filter="url(#fpndixzsqo2vy)" height="320.0566" id="org.rcdukes.detect.ImageFetcher" style="stroke: #A80036; stroke-width: 1.5;" width="223" x="246.5" y="209"/><ellipse cx="315.25" cy="225" fill="#ADD1B2" rx="11" ry="11" style="stroke: #A80036; stroke-width: 1.0;"/><path d="M318.2231,230.6431 Q317.6421,230.9419 317.0029,231.0913 Q316.3638,231.2407 315.6582,231.2407 Q313.1514,231.2407 311.8315,229.5889 Q310.5117,227.937 310.5117,224.8159 Q310.5117,221.6865 311.8315,220.0347 Q313.1514,218.3828 315.6582,218.3828 Q316.3638,218.3828 317.0112,218.5322 Q317.6587,218.6816 318.2231,218.9805 L318.2231,221.7031 Q317.5923,221.1221 316.9988,220.8523 Q316.4053,220.5825 315.7744,220.5825 Q314.4297,220.5825 313.7449,221.6492 Q313.0601,222.7158 313.0601,224.8159 Q313.0601,226.9077 313.7449,227.9744 Q314.4297,229.041 315.7744,229.041 Q316.4053,229.041 316.9988,228.7712 Q317.5923,228.5015 318.2231,227.9204 Z "/><text fill="#000000" font-family="sans-serif" font-size="12" lengthAdjust="spacingAndGlyphs" textLength="77" x="335.75" y="229.5352">ImageFetcher</text><line style="stroke: #A80036; stroke-width: 1.5;" x1="247.5" x2="468.5" y1="241" y2="241"/><polygon fill="none" points="257.5,247.9775,261.5,251.9775,257.5,255.9775,253.5,251.9775" style="stroke: #B38D22; stroke-width: 1.0;"/><text fill="#000000" font-family="sans-serif" font-size="11" lengthAdjust="spacingAndGlyphs" text-decoration="underline" textLength="67" x="266.5" y="255.6348">LOG: Logger</text><ellipse cx="257.5" cy="265.9326" fill="none" rx="3" ry="3" style="stroke: #038048; stroke-width: 1.0;"/><text fill="#000000" font-family="sans-serif" font-size="11" lengthAdjust="spacingAndGlyphs" text-decoration="underline" textLength="116" x="266.5" y="268.5898">DEFAULT_FPS: double</text><ellipse cx="257.5" cy="278.8877" fill="none" rx="3" ry="3" style="stroke: #038048; stroke-width: 1.0;"/><text fill="#000000" font-family="sans-serif" font-size="11" lengthAdjust="spacingAndGlyphs" textLength="83" x="266.5" y="281.5449">debug: boolean</text><polygon fill="none" points="257.5,286.8428,261.5,290.8428,257.5,294.8428,253.5,290.8428" style="stroke: #B38D22; stroke-width: 1.0;"/><text fill="#000000" font-family="sans-serif" font-size="11" lengthAdjust="spacingAndGlyphs" textLength="81" x="266.5" y="294.5">frameIndex: int</text><polygon fill="none" points="257.5,299.7979,261.5,303.7979,257.5,307.7979,253.5,303.7979" style="stroke: #B38D22; stroke-width: 1.0;"/><text fill="#000000" font-family="sans-serif" font-size="11" lengthAdjust="spacingAndGlyphs" textLength="87" x="266.5" y="307.4551">failureCount: int</text><polygon fill="none" points="257.5,312.7529,261.5,316.7529,257.5,320.7529,253.5,316.7529" style="stroke: #B38D22; stroke-width: 1.0;"/><text fill="#000000" font-family="sans-serif" font-size="11" lengthAdjust="spacingAndGlyphs" textLength="112" x="266.5" y="320.4102">maxFailureCount: int</text><polygon fill="none" points="257.5,325.708,261.5,329.708,257.5,333.708,253.5,329.708" style="stroke: #B38D22; stroke-width: 1.0;"/><text fill="#000000" font-family="sans-serif" font-size="11" lengthAdjust="spacingAndGlyphs" textLength="60" x="266.5" y="333.3652">fps: double</text><line style="stroke: #A80036; stroke-width: 1.5;" x1="247.5" x2="468.5" y1="339.6855" y2="339.6855"/><ellipse cx="257.5" cy="351.6631" fill="#84BE84" rx="3" ry="3" style="stroke: #038048; stroke-width: 1.0;"/><text fill="#000000" font-family="sans-serif" font-size="11" lengthAdjust="spacingAndGlyphs" textLength="112" x="266.5" y="354.3203">ImageFetcher(String)</text><ellipse cx="257.5" cy="364.6182" fill="#84BE84" rx="3" ry="3" style="stroke: #038048; stroke-width: 1.0;"/><text fill="#000000" font-family="sans-serif" font-size="11" lengthAdjust="spacingAndGlyphs" textLength="87" x="266.5" y="367.2754">getFps(): double</text><ellipse cx="257.5" cy="377.5732" fill="#84BE84" rx="3" ry="3" style="stroke: #038048; stroke-width: 1.0;"/><text fill="#000000" font-family="sans-serif" font-size="11" lengthAdjust="spacingAndGlyphs" textLength="109" x="266.5" y="380.2305">setFps(double): void</text><ellipse cx="257.5" cy="390.5283" fill="#84BE84" rx="3" ry="3" style="stroke: #038048; stroke-width: 1.0;"/><text fill="#000000" font-family="sans-serif" font-size="11" lengthAdjust="spacingAndGlyphs" textLength="108" x="266.5" y="393.1855">getFrameIndex(): int</text><ellipse cx="257.5" cy="403.4834" fill="#84BE84" rx="3" ry="3" style="stroke: #038048; stroke-width: 1.0;"/><text fill="#000000" font-family="sans-serif" font-size="11" lengthAdjust="spacingAndGlyphs" textLength="127" x="266.5" y="406.1406">isStaticImage(): boolean</text><ellipse cx="257.5" cy="416.4385" fill="#84BE84" rx="3" ry="3" style="stroke: #038048; stroke-width: 1.0;"/><text fill="#000000" font-family="sans-serif" font-size="11" lengthAdjust="spacingAndGlyphs" textLength="157" x="266.5" y="419.0957">setStaticImage(boolean): void</text><ellipse cx="257.5" cy="429.3936" fill="#84BE84" rx="3" ry="3" style="stroke: #038048; stroke-width: 1.0;"/><text fill="#000000" font-family="sans-serif" font-size="11" lengthAdjust="spacingAndGlyphs" textLength="84" x="266.5" y="432.0508">open(): boolean</text><ellipse cx="257.5" cy="442.3486" fill="#84BE84" rx="3" ry="3" style="stroke: #038048; stroke-width: 1.0;"/><text fill="#000000" font-family="sans-serif" font-size="11" lengthAdjust="spacingAndGlyphs" textLength="65" x="266.5" y="445.0059">close(): void</text><ellipse cx="257.5" cy="455.3037" fill="#84BE84" rx="3" ry="3" style="stroke: #038048; stroke-width: 1.0;"/><text fill="#000000" font-family="sans-serif" font-size="11" lengthAdjust="spacingAndGlyphs" textLength="135" x="266.5" y="457.9609">waitForNextFrame(): long</text><ellipse cx="257.5" cy="468.2588" fill="#84BE84" rx="3" ry="3" style="stroke: #038048; stroke-width: 1.0;"/><text fill="#000000" font-family="sans-serif" font-size="11" lengthAdjust="spacingAndGlyphs" textLength="73" x="266.5" y="470.916">fetch(): Image</text><ellipse cx="257.5" cy="481.2139" fill="#84BE84" rx="3" ry="3" style="stroke: #038048; stroke-width: 1.0;"/><text fill="#000000" font-family="sans-serif" font-size="11" lengthAdjust="spacingAndGlyphs" textLength="185" x="266.5" y="483.8711">createNextImage(Mat, long): Image</text><ellipse cx="257.5" cy="494.1689" fill="#84BE84" rx="3" ry="3" style="stroke: #038048; stroke-width: 1.0;"/><text fill="#000000" font-family="sans-serif" font-size="11" lengthAdjust="spacingAndGlyphs" textLength="197" x="266.5" y="496.8262">toObservable(): Observable&lt;Image&gt;</text><ellipse cx="257.5" cy="507.124" fill="#84BE84" rx="3" ry="3" style="stroke: #038048; stroke-width: 1.0;"/><text fill="#000000" font-family="sans-serif" font-size="11" lengthAdjust="spacingAndGlyphs" textLength="101" x="266.5" y="509.7813">hasNext(): boolean</text><ellipse cx="257.5" cy="520.0791" fill="#84BE84" rx="3" ry="3" style="stroke: #038048; stroke-width: 1.0;"/><text fill="#000000" font-family="sans-serif" font-size="11" lengthAdjust="spacingAndGlyphs" textLength="103" x="266.5" y="522.7363">isClosed(): boolean</text></a><!--class org.rcdukes.detect.Detector--><a href="Detector.html" target="_top" xlink:actuate="onRequest" xlink:show="new" xlink:title="Detector.html" xlink:type="simple"><rect fill="#FEFECE" filter="url(#fpndixzsqo2vy)" height="73.9102" id="org.rcdukes.detect.Detector" style="stroke: #A80036; stroke-width: 1.5;" width="219" x="1422.5" y="332"/><ellipse cx="1503.25" cy="348" fill="#ADD1B2" rx="11" ry="11" style="stroke: #A80036; stroke-width: 1.0;"/><path d="M1506.2231,353.6431 Q1505.6421,353.9419 1505.0029,354.0913 Q1504.3638,354.2407 1503.6582,354.2407 Q1501.1514,354.2407 1499.8315,352.5889 Q1498.5117,350.937 1498.5117,347.8159 Q1498.5117,344.6865 1499.8315,343.0347 Q1501.1514,341.3828 1503.6582,341.3828 Q1504.3638,341.3828 1505.0112,341.5322 Q1505.6587,341.6816 1506.2231,341.9805 L1506.2231,344.7031 Q1505.5923,344.1221 1504.9988,343.8523 Q1504.4053,343.5825 1503.7744,343.5825 Q1502.4297,343.5825 1501.7449,344.6492 Q1501.0601,345.7158 1501.0601,347.8159 Q1501.0601,349.9077 1501.7449,350.9744 Q1502.4297,352.041 1503.7744,352.041 Q1504.4053,352.041 1504.9988,351.7712 Q1505.5923,351.5015 1506.2231,350.9204 Z "/><text fill="#000000" font-family="sans-serif" font-size="12" lengthAdjust="spacingAndGlyphs" textLength="49" x="1523.75" y="352.5352">Detector</text><line style="stroke: #A80036; stroke-width: 1.5;" x1="1423.5" x2="1640.5" y1="364" y2="364"/><line style="stroke: #A80036; stroke-width: 1.5;" x1="1423.5" x2="1640.5" y1="372" y2="372"/><ellipse cx="1433.5" cy="383.9775" fill="#84BE84" rx="3" ry="3" style="stroke: #038048; stroke-width: 1.0;"/><text fill="#000000" font-family="sans-serif" font-size="11" lengthAdjust="spacingAndGlyphs" text-decoration="underline" textLength="193" x="1442.5" y="386.6348">getImageCollector(): ImageCollector</text><ellipse cx="1433.5" cy="396.9326" fill="#84BE84" rx="3" ry="3" style="stroke: #038048; stroke-width: 1.0;"/><text fill="#000000" font-family="sans-serif" font-size="11" lengthAdjust="spacingAndGlyphs" textLength="62" x="1442.5" y="399.5898">start(): void</text></a><!--class io.reactivex.Observer--><rect fill="#FEFECE" filter="url(#fpndixzsqo2vy)" height="99.8203" id="io.reactivex.Observer" style="stroke: #A80036; stroke-width: 1.5;" width="189" x="22.5" y="43"/><ellipse cx="80.25" cy="59" fill="#B4A7E5" rx="11" ry="11" style="stroke: #A80036; stroke-width: 1.0;"/><path d="M76.1777,54.7651 L76.1777,52.6069 L83.5571,52.6069 L83.5571,54.7651 L81.0918,54.7651 L81.0918,62.8418 L83.5571,62.8418 L83.5571,65 L76.1777,65 L76.1777,62.8418 L78.6431,62.8418 L78.6431,54.7651 Z "/><text fill="#000000" font-family="sans-serif" font-size="12" font-style="italic" lengthAdjust="spacingAndGlyphs" textLength="53" x="100.75" y="63.5352">Observer</text><rect fill="#FFFFFF" height="16.1328" style="stroke: #000000; stroke-width: 1.0; stroke-dasharray: 2.0,2.0;" width="10" x="204.5" y="40"/><text fill="#000000" font-family="sans-serif" font-size="12" font-style="italic" lengthAdjust="spacingAndGlyphs" textLength="8" x="205.5" y="52.6016">T</text><line style="stroke: #A80036; stroke-width: 1.5;" x1="23.5" x2="210.5" y1="75" y2="75"/><line style="stroke: #A80036; stroke-width: 1.5;" x1="23.5" x2="210.5" y1="83" y2="83"/><ellipse cx="33.5" cy="94.9775" fill="#84BE84" rx="3" ry="3" style="stroke: #038048; stroke-width: 1.0;"/><text fill="#000000" font-family="sans-serif" font-size="11" font-style="italic" lengthAdjust="spacingAndGlyphs" textLength="163" x="42.5" y="97.6348">onSubscribe(Disposable): void</text><ellipse cx="33.5" cy="107.9326" fill="#84BE84" rx="3" ry="3" style="stroke: #038048; stroke-width: 1.0;"/><text fill="#000000" font-family="sans-serif" font-size="11" font-style="italic" lengthAdjust="spacingAndGlyphs" textLength="83" x="42.5" y="110.5898">onNext(T): void</text><ellipse cx="33.5" cy="120.8877" fill="#84BE84" rx="3" ry="3" style="stroke: #038048; stroke-width: 1.0;"/><text fill="#000000" font-family="sans-serif" font-size="11" font-style="italic" lengthAdjust="spacingAndGlyphs" textLength="135" x="42.5" y="123.5449">onError(Throwable): void</text><ellipse cx="33.5" cy="133.8428" fill="#84BE84" rx="3" ry="3" style="stroke: #038048; stroke-width: 1.0;"/><text fill="#000000" font-family="sans-serif" font-size="11" font-style="italic" lengthAdjust="spacingAndGlyphs" textLength="102" x="42.5" y="136.5">onComplete(): void</text><!--class org.rcdukes.detectors.StartLightDetector--><rect fill="#FEFECE" filter="url(#fpndixzsqo2vy)" height="73.9102" id="org.rcdukes.detectors.StartLightDetector" style="stroke: #A80036; stroke-width: 1.5;" width="322" x="1054" y="56"/><ellipse cx="1159.75" cy="72" fill="#B4A7E5" rx="11" ry="11" style="stroke: #A80036; stroke-width: 1.0;"/><path d="M1155.6777,67.7651 L1155.6777,65.6069 L1163.0571,65.6069 L1163.0571,67.7651 L1160.5918,67.7651 L1160.5918,75.8418 L1163.0571,75.8418 L1163.0571,78 L1155.6777,78 L1155.6777,75.8418 L1158.1431,75.8418 L1158.1431,67.7651 Z "/><text fill="#000000" font-family="sans-serif" font-size="12" font-style="italic" lengthAdjust="spacingAndGlyphs" textLength="102" x="1180.25" y="76.5352">StartLightDetector</text><line style="stroke: #A80036; stroke-width: 1.5;" x1="1055" x2="1375" y1="88" y2="88"/><line style="stroke: #A80036; stroke-width: 1.5;" x1="1055" x2="1375" y1="96" y2="96"/><ellipse cx="1065" cy="107.9775" fill="#84BE84" rx="3" ry="3" style="stroke: #038048; stroke-width: 1.0;"/><text fill="#000000" font-family="sans-serif" font-size="11" font-style="italic" lengthAdjust="spacingAndGlyphs" textLength="131" x="1074" y="110.6348">detect(Image): StartLight</text><ellipse cx="1065" cy="120.9326" fill="#84BE84" rx="3" ry="3" style="stroke: #038048; stroke-width: 1.0;"/><text fill="#000000" font-family="sans-serif" font-size="11" font-style="italic" lengthAdjust="spacingAndGlyphs" textLength="296" x="1074" y="123.5898">withImageCollector(ImageCollector): StartLightDetector</text><!--class org.rcdukes.common.DukesVerticle--><rect fill="#FEFECE" filter="url(#fpndixzsqo2vy)" height="48" id="org.rcdukes.common.DukesVerticle" style="stroke: #A80036; stroke-width: 1.5;" width="111" x="1476.5" y="69"/><ellipse cx="1491.5" cy="85" fill="#A9DCDF" rx="11" ry="11" style="stroke: #A80036; stroke-width: 1.0;"/><path d="M1491.6133,80.3481 L1490.4595,85.4199 L1492.7754,85.4199 Z M1490.1191,78.1069 L1493.1157,78.1069 L1496.4609,90.5 L1494.0122,90.5 L1493.2485,87.437 L1489.9697,87.437 L1489.2227,90.5 L1486.7739,90.5 Z "/><text fill="#000000" font-family="sans-serif" font-size="12" font-style="italic" lengthAdjust="spacingAndGlyphs" textLength="79" x="1505.5" y="89.5352">DukesVerticle</text><line style="stroke: #A80036; stroke-width: 1.5;" x1="1477.5" x2="1586.5" y1="101" y2="101"/><line style="stroke: #A80036; stroke-width: 1.5;" x1="1477.5" x2="1586.5" y1="109" y2="109"/><!--link io.reactivex.Observer to org.rcdukes.detect.ImageObserver--><path d="M117,163.5737 C117,196.9127 117,237.2126 117,273.256 " fill="none" id="io.reactivex.Observer-org.rcdukes.detect.ImageObserver" style="stroke: #A80036; stroke-width: 1.0; stroke-dasharray: 7.0,7.0;"/><polygon fill="none" points="110.0001,163.3018,117,143.3017,124.0001,163.3017,110.0001,163.3018" style="stroke: #A80036; stroke-width: 1.0;"/><!--link org.rcdukes.detectors.StartLightDetector to org.rcdukes.detect.StartLightDetectorImpl--><path d="M1215,150.2822 C1215,195.6302 1215,258.9105 1215,305.7436 " fill="none" id="org.rcdukes.detectors.StartLightDetector-org.rcdukes.detect.StartLightDetectorImpl" style="stroke: #A80036; stroke-width: 1.0; stroke-dasharray: 7.0,7.0;"/><polygon fill="none" points="1208.0001,150.2226,1215,130.2226,1222.0001,150.2226,1208.0001,150.2226" style="stroke: #A80036; stroke-width: 1.0;"/><!--link org.rcdukes.detect.StartLightDetectorImpl to org.rcdukes.detect.StartLightDetectorImpl.Config--><path d="M1215,447.5319 C1215,512.0976 1215,604.0494 1215,674.2498 " fill="none" id="org.rcdukes.detect.StartLightDetectorImpl-org.rcdukes.detect.StartLightDetectorImpl.Config" style="stroke: #A80036; stroke-width: 1.0;"/><ellipse cx="1215" cy="440.1472" fill="#FFFFFF" rx="8" ry="8" style="stroke: #A80036; stroke-width: 1.0;"/><line style="stroke: #A80036; stroke-width: 1.0;" x1="1215" x2="1215" y1="448.1472" y2="432.1472"/><line style="stroke: #A80036; stroke-width: 1.0;" x1="1207" x2="1223" y1="440.1472" y2="440.1472"/><!--link org.rcdukes.common.DukesVerticle to org.rcdukes.detect.Detector--><path d="M1532,137.0187 C1532,190.9318 1532,281.3033 1532,331.867 " fill="none" id="org.rcdukes.common.DukesVerticle-org.rcdukes.detect.Detector" style="stroke: #A80036; stroke-width: 1.0;"/><polygon fill="none" points="1525.0001,137.0104,1532,117.0104,1539.0001,137.0103,1525.0001,137.0104" style="stroke: #A80036; stroke-width: 1.0;"/><!--link org.rcdukes.detect.LaneDetector to org.rcdukes.detect.CameraConfig--><path d="M756,464.6806 C756,523.8774 756,600.189 756,662.4423 " fill="none" id="org.rcdukes.detect.LaneDetector-org.rcdukes.detect.CameraConfig" style="stroke: #A80036; stroke-width: 1.0;"/><polygon fill="#A80036" points="756,667.6586,760,658.6586,756,662.6586,752,658.6586,756,667.6586" style="stroke: #A80036; stroke-width: 1.0;"/><text fill="#000000" font-family="sans-serif" font-size="13" lengthAdjust="spacingAndGlyphs" textLength="87" x="757" y="603.5684">cameraConfig</text><text fill="#888888" font-family="sans-serif" font-size="10" lengthAdjust="spacingAndGlyphs" textLength="182" x="747" y="919.668">UMLDoclet 1.1.4, PlantUML 1.2019.05</text><!--
@startuml

    namespace org.rcdukes.detect {

        class CameraConfig [[CameraConfig.html]] {
            +getAngleOffset(): double
            +setAngleOffset(double): void
            +getInterval(): long
            +getRoiy(): double
            +setRoiy(double): void
            +getRoih(): double
            +setRoih(double): void
            +getSource(): String
            +setSource(String): void
            +getFps(): double
            +setFps(double): void
            +isShowStoppingZone(): boolean
            +setShowStoppingZone(boolean): void
        }

        class ImageObserver [[ImageObserver.html]] {
            +error: Throwable
            +cols: int
            +rows: int
            +completed: boolean
            +debug: boolean
            +stackTraceText: String
            +onComplete(): void
            +onError(Throwable): void
            +onNext(Image): void
            +onSubscribe(Disposable): void
            +stop(): void
        }

        class StartLightDetectorImpl [[StartLightDetectorImpl.html]] {
            +StartLightDetectorImpl()
            +StartLightDetectorImpl(int, int, int, int, int, int)
            +StartLightDetectorImpl(StartLightDetectorImpl.Config)
            +detect(Image): StartLight
            +getFrame(): Mat
            +withImageCollector(ImageCollector): StartLightDetectorImpl
        }

        class org.rcdukes.detect.StartLightDetectorImpl.Config [[StartLightDetectorImpl.Config.html]] {
            +getHueStart(): double
            +setHueStart(double): void
            +getHueStop(): double
            +setHueStop(double): void
            +getSaturationStart(): double
            +setSaturationStart(double): void
            +getSaturationStop(): double
            +setSaturationStop(double): void
            +getValueStart(): double
            +setValueStart(double): void
            +getValueStop(): double
            +setValueStop(double): void
        }

        class LaneDetector [[LaneDetector.html]] {
            +LaneDetector(EdgeDetector, LineDetector, CameraConfig, CameraMatrix, ImageCollector)
            {static} +getDefault(): LaneDetector
            +detect(Image): LaneDetectionResult
            +getMatrix(): CameraMatrix
            +setMatrix(CameraMatrix): void
            +getEdgeDetector(): EdgeDetector
            +setEdgeDetector(EdgeDetector): void
            +getLineDetector(): LineDetector
            +setLineDetector(LineDetector): void
            +getCollector(): ImageCollector
            +setCollector(ImageCollector): void
        }

        class ImageFetcher [[ImageFetcher.html]] {
            {static} #LOG: Logger
            {static} +DEFAULT_FPS: double
            +debug: boolean
            #frameIndex: int
            #failureCount: int
            #maxFailureCount: int
            #fps: double
            +ImageFetcher(String)
            +getFps(): double
            +setFps(double): void
            +getFrameIndex(): int
            +isStaticImage(): boolean
            +setStaticImage(boolean): void
            +open(): boolean
            +close(): void
            +waitForNextFrame(): long
            +fetch(): Image
            +createNextImage(Mat, long): Image
            +toObservable(): Observable<Image>
            +hasNext(): boolean
            +isClosed(): boolean
        }

        class Detector [[Detector.html]] {
            {static} +getImageCollector(): ImageCollector
            +start(): void
        }

        interface io.reactivex.Observer<T> {
            {abstract} +onSubscribe(Disposable): void
            {abstract} +onNext(T): void
            {abstract} +onError(Throwable): void
            {abstract} +onComplete(): void
        }
        io.reactivex.Observer <|.. ImageObserver

        interface org.rcdukes.detectors.StartLightDetector {
            {abstract} +detect(Image): StartLight
            {abstract} +withImageCollector(ImageCollector): StartLightDetector
        }
        org.rcdukes.detectors.StartLightDetector <|.. StartLightDetectorImpl

        StartLightDetectorImpl +- - org.rcdukes.detect.StartLightDetectorImpl.Config

        abstract class org.rcdukes.common.DukesVerticle
        org.rcdukes.common.DukesVerticle <|- - Detector

        LaneDetector - -> CameraConfig: cameraConfig

    }


    center footer UMLDoclet 1.1.4, PlantUML 1.2019.05
@enduml

PlantUML version 1.2019.05(Sat Apr 20 18:45:36 CEST 2019)
(APACHE source distribution)
Java Runtime: Java(TM) SE Runtime Environment
JVM: Java HotSpot(TM) 64-Bit Server VM
Java Version: 1.8.0_152-b16
Operating System: Mac OS X
OS Version: 10.13.6
Default Encoding: UTF-8
Language: de
Country: DE
--></g></svg>