<?xml version="1.0" encoding="UTF-8" standalone="no"?><svg xmlns="http://www.w3.org/2000/svg" xmlns:xlink="http://www.w3.org/1999/xlink" contentScriptType="application/ecmascript" contentStyleType="text/css" height="300px" preserveAspectRatio="none" style="width:632px;height:300px;" version="1.1" viewBox="0 0 632 300" width="632px" zoomAndPan="magnify"><defs><filter height="300%" id="fdzs1hri86q60" width="300%" x="-1" y="-1"><feGaussianBlur result="blurOut" stdDeviation="2.0"/><feColorMatrix in="blurOut" result="blurOut2" type="matrix" values="0 0 0 0 0 0 0 0 0 0 0 0 0 0 0 0 0 0 .4 0"/><feOffset dx="4.0" dy="4.0" in="blurOut2" result="blurOut3"/><feBlend in="SourceGraphic" in2="blurOut3" mode="normal"/></filter></defs><g><!--cluster nl.vaneijndhoven.dukes.cletus.roi--><polygon fill="#FFFFFF" filter="url(#fdzs1hri86q60)" points="14,16,256,16,263,38.4883,610,38.4883,610,259,14,259,14,16" style="stroke: #000000; stroke-width: 1.5;"/><line style="stroke: #000000; stroke-width: 1.5;" x1="14" x2="263" y1="38.4883" y2="38.4883"/><text fill="#000000" font-family="sans-serif" font-size="14" font-weight="bold" lengthAdjust="spacingAndGlyphs" textLength="236" x="18" y="31.5352">nl.vaneijndhoven.dukes.cletus.roi</text><!--class nl.vaneijndhoven.dukes.cletus.roi.FarField--><a href="FarField.html" target="_top" xlink:actuate="onRequest" xlink:show="new" xlink:title="FarField.html" xlink:type="simple"><rect fill="#FEFECE" filter="url(#fdzs1hri86q60)" height="60.9551" id="nl.vaneijndhoven.dukes.cletus.roi.FarField" style="stroke: #A80036; stroke-width: 1.5;" width="113" x="22.5" y="190"/><ellipse cx="53.7" cy="206" fill="#ADD1B2" rx="11" ry="11" style="stroke: #A80036; stroke-width: 1.0;"/><path d="M56.6731,211.6431 Q56.0921,211.9419 55.4529,212.0913 Q54.8138,212.2407 54.1082,212.2407 Q51.6014,212.2407 50.2815,210.5889 Q48.9617,208.937 48.9617,205.8159 Q48.9617,202.6865 50.2815,201.0347 Q51.6014,199.3828 54.1082,199.3828 Q54.8138,199.3828 55.4612,199.5322 Q56.1087,199.6816 56.6731,199.9805 L56.6731,202.7031 Q56.0423,202.1221 55.4488,201.8523 Q54.8553,201.5825 54.2244,201.5825 Q52.8797,201.5825 52.1949,202.6492 Q51.5101,203.7158 51.5101,205.8159 Q51.5101,207.9077 52.1949,208.9744 Q52.8797,210.041 54.2244,210.041 Q54.8553,210.041 55.4488,209.7712 Q56.0423,209.5015 56.6731,208.9204 Z "/><text fill="#000000" font-family="sans-serif" font-size="12" lengthAdjust="spacingAndGlyphs" textLength="45" x="71.3" y="210.5352">FarField</text><line style="stroke: #A80036; stroke-width: 1.5;" x1="23.5" x2="134.5" y1="222" y2="222"/><line style="stroke: #A80036; stroke-width: 1.5;" x1="23.5" x2="134.5" y1="230" y2="230"/><ellipse cx="33.5" cy="241.9775" fill="#84BE84" rx="3" ry="3" style="stroke: #038048; stroke-width: 1.0;"/><text fill="#000000" font-family="sans-serif" font-size="11" lengthAdjust="spacingAndGlyphs" textLength="87" x="42.5" y="244.6348">FarField(double)</text></a><!--class nl.vaneijndhoven.dukes.cletus.roi.NearField--><a href="NearField.html" target="_top" xlink:actuate="onRequest" xlink:show="new" xlink:title="NearField.html" xlink:type="simple"><rect fill="#FEFECE" filter="url(#fdzs1hri86q60)" height="60.9551" id="nl.vaneijndhoven.dukes.cletus.roi.NearField" style="stroke: #A80036; stroke-width: 1.5;" width="121" x="170.5" y="190"/><ellipse cx="200.8" cy="206" fill="#ADD1B2" rx="11" ry="11" style="stroke: #A80036; stroke-width: 1.0;"/><path d="M203.7731,211.6431 Q203.1921,211.9419 202.5529,212.0913 Q201.9138,212.2407 201.2082,212.2407 Q198.7014,212.2407 197.3815,210.5889 Q196.0617,208.937 196.0617,205.8159 Q196.0617,202.6865 197.3815,201.0347 Q198.7014,199.3828 201.2082,199.3828 Q201.9138,199.3828 202.5612,199.5322 Q203.2087,199.6816 203.7731,199.9805 L203.7731,202.7031 Q203.1423,202.1221 202.5488,201.8523 Q201.9553,201.5825 201.3244,201.5825 Q199.9797,201.5825 199.2949,202.6492 Q198.6101,203.7158 198.6101,205.8159 Q198.6101,207.9077 199.2949,208.9744 Q199.9797,210.041 201.3244,210.041 Q201.9553,210.041 202.5488,209.7712 Q203.1423,209.5015 203.7731,208.9204 Z "/><text fill="#000000" font-family="sans-serif" font-size="12" lengthAdjust="spacingAndGlyphs" textLength="55" x="218.2" y="210.5352">NearField</text><line style="stroke: #A80036; stroke-width: 1.5;" x1="171.5" x2="290.5" y1="222" y2="222"/><line style="stroke: #A80036; stroke-width: 1.5;" x1="171.5" x2="290.5" y1="230" y2="230"/><ellipse cx="181.5" cy="241.9775" fill="#84BE84" rx="3" ry="3" style="stroke: #038048; stroke-width: 1.0;"/><text fill="#000000" font-family="sans-serif" font-size="11" lengthAdjust="spacingAndGlyphs" textLength="95" x="190.5" y="244.6348">NearField(double)</text></a><!--class nl.vaneijndhoven.dukes.cletus.roi.LeftField--><a href="LeftField.html" target="_top" xlink:actuate="onRequest" xlink:show="new" xlink:title="LeftField.html" xlink:type="simple"><rect fill="#FEFECE" filter="url(#fdzs1hri86q60)" height="60.9551" id="nl.vaneijndhoven.dukes.cletus.roi.LeftField" style="stroke: #A80036; stroke-width: 1.5;" width="116" x="327" y="190"/><ellipse cx="358.2" cy="206" fill="#ADD1B2" rx="11" ry="11" style="stroke: #A80036; stroke-width: 1.0;"/><path d="M361.1731,211.6431 Q360.5921,211.9419 359.9529,212.0913 Q359.3138,212.2407 358.6082,212.2407 Q356.1014,212.2407 354.7815,210.5889 Q353.4617,208.937 353.4617,205.8159 Q353.4617,202.6865 354.7815,201.0347 Q356.1014,199.3828 358.6082,199.3828 Q359.3138,199.3828 359.9612,199.5322 Q360.6087,199.6816 361.1731,199.9805 L361.1731,202.7031 Q360.5423,202.1221 359.9488,201.8523 Q359.3553,201.5825 358.7244,201.5825 Q357.3797,201.5825 356.6949,202.6492 Q356.0101,203.7158 356.0101,205.8159 Q356.0101,207.9077 356.6949,208.9744 Q357.3797,210.041 358.7244,210.041 Q359.3553,210.041 359.9488,209.7712 Q360.5423,209.5015 361.1731,208.9204 Z "/><text fill="#000000" font-family="sans-serif" font-size="12" lengthAdjust="spacingAndGlyphs" textLength="48" x="375.8" y="210.5352">LeftField</text><line style="stroke: #A80036; stroke-width: 1.5;" x1="328" x2="442" y1="222" y2="222"/><line style="stroke: #A80036; stroke-width: 1.5;" x1="328" x2="442" y1="230" y2="230"/><ellipse cx="338" cy="241.9775" fill="#84BE84" rx="3" ry="3" style="stroke: #038048; stroke-width: 1.0;"/><text fill="#000000" font-family="sans-serif" font-size="11" lengthAdjust="spacingAndGlyphs" textLength="90" x="347" y="244.6348">LeftField(double)</text></a><!--class nl.vaneijndhoven.dukes.cletus.roi.RegionOfInterest--><a href="RegionOfInterest.html" target="_top" xlink:actuate="onRequest" xlink:show="new" xlink:title="RegionOfInterest.html" xlink:type="simple"><rect fill="#FEFECE" filter="url(#fdzs1hri86q60)" height="86.8652" id="nl.vaneijndhoven.dukes.cletus.roi.RegionOfInterest" style="stroke: #A80036; stroke-width: 1.5;" width="291" x="162.5" y="43"/><ellipse cx="256.25" cy="59" fill="#ADD1B2" rx="11" ry="11" style="stroke: #A80036; stroke-width: 1.0;"/><path d="M259.2231,64.6431 Q258.6421,64.9419 258.0029,65.0913 Q257.3638,65.2407 256.6582,65.2407 Q254.1514,65.2407 252.8315,63.5889 Q251.5117,61.937 251.5117,58.8159 Q251.5117,55.6865 252.8315,54.0347 Q254.1514,52.3828 256.6582,52.3828 Q257.3638,52.3828 258.0112,52.5322 Q258.6587,52.6816 259.2231,52.9805 L259.2231,55.7031 Q258.5923,55.1221 257.9988,54.8523 Q257.4053,54.5825 256.7744,54.5825 Q255.4297,54.5825 254.7449,55.6492 Q254.0601,56.7158 254.0601,58.8159 Q254.0601,60.9077 254.7449,61.9744 Q255.4297,63.041 256.7744,63.041 Q257.4053,63.041 257.9988,62.7712 Q258.5923,62.5015 259.2231,61.9204 Z "/><text fill="#000000" font-family="sans-serif" font-size="12" lengthAdjust="spacingAndGlyphs" textLength="95" x="276.75" y="63.5352">RegionOfInterest</text><line style="stroke: #A80036; stroke-width: 1.5;" x1="163.5" x2="452.5" y1="75" y2="75"/><line style="stroke: #A80036; stroke-width: 1.5;" x1="163.5" x2="452.5" y1="83" y2="83"/><ellipse cx="173.5" cy="94.9775" fill="#84BE84" rx="3" ry="3" style="stroke: #038048; stroke-width: 1.0;"/><text fill="#000000" font-family="sans-serif" font-size="11" lengthAdjust="spacingAndGlyphs" textLength="265" x="182.5" y="97.6348">RegionOfInterest(double, double, double, double)</text><ellipse cx="173.5" cy="107.9326" fill="#84BE84" rx="3" ry="3" style="stroke: #038048; stroke-width: 1.0;"/><text fill="#000000" font-family="sans-serif" font-size="11" lengthAdjust="spacingAndGlyphs" textLength="73" x="182.5" y="110.5898">roi(Size): Rect</text><ellipse cx="173.5" cy="120.8877" fill="#84BE84" rx="3" ry="3" style="stroke: #038048; stroke-width: 1.0;"/><text fill="#000000" font-family="sans-serif" font-size="11" lengthAdjust="spacingAndGlyphs" textLength="87" x="182.5" y="123.5449">region(Mat): Mat</text></a><!--class nl.vaneijndhoven.dukes.cletus.roi.RightField--><a href="RightField.html" target="_top" xlink:actuate="onRequest" xlink:show="new" xlink:title="RightField.html" xlink:type="simple"><rect fill="#FEFECE" filter="url(#fdzs1hri86q60)" height="60.9551" id="nl.vaneijndhoven.dukes.cletus.roi.RightField" style="stroke: #A80036; stroke-width: 1.5;" width="124" x="478" y="190"/><ellipse cx="509.2" cy="206" fill="#ADD1B2" rx="11" ry="11" style="stroke: #A80036; stroke-width: 1.0;"/><path d="M512.1731,211.6431 Q511.5921,211.9419 510.9529,212.0913 Q510.3138,212.2407 509.6082,212.2407 Q507.1014,212.2407 505.7815,210.5889 Q504.4617,208.937 504.4617,205.8159 Q504.4617,202.6865 505.7815,201.0347 Q507.1014,199.3828 509.6082,199.3828 Q510.3138,199.3828 510.9612,199.5322 Q511.6087,199.6816 512.1731,199.9805 L512.1731,202.7031 Q511.5423,202.1221 510.9488,201.8523 Q510.3553,201.5825 509.7244,201.5825 Q508.3797,201.5825 507.6949,202.6492 Q507.0101,203.7158 507.0101,205.8159 Q507.0101,207.9077 507.6949,208.9744 Q508.3797,210.041 509.7244,210.041 Q510.3553,210.041 510.9488,209.7712 Q511.5423,209.5015 512.1731,208.9204 Z "/><text fill="#000000" font-family="sans-serif" font-size="12" lengthAdjust="spacingAndGlyphs" textLength="56" x="526.8" y="210.5352">RightField</text><line style="stroke: #A80036; stroke-width: 1.5;" x1="479" x2="601" y1="222" y2="222"/><line style="stroke: #A80036; stroke-width: 1.5;" x1="479" x2="601" y1="230" y2="230"/><ellipse cx="489" cy="241.9775" fill="#84BE84" rx="3" ry="3" style="stroke: #038048; stroke-width: 1.0;"/><text fill="#000000" font-family="sans-serif" font-size="11" lengthAdjust="spacingAndGlyphs" textLength="98" x="498" y="244.6348">RightField(double)</text></a><!--link nl.vaneijndhoven.dukes.cletus.roi.RegionOfInterest to nl.vaneijndhoven.dukes.cletus.roi.FarField--><path d="M216.0168,140.3242 C187.1737,157.2019 156.3459,175.2408 131.2502,189.9257 " fill="none" id="nl.vaneijndhoven.dukes.cletus.roi.RegionOfInterest-nl.vaneijndhoven.dukes.cletus.roi.FarField" style="stroke: #A80036; stroke-width: 1.0;"/><polygon fill="none" points="212.853,134.0652,233.6503,130.006,219.9237,146.1485,212.853,134.0652" style="stroke: #A80036; stroke-width: 1.0;"/><!--link nl.vaneijndhoven.dukes.cletus.roi.RegionOfInterest to nl.vaneijndhoven.dukes.cletus.roi.NearField--><path d="M272.9212,147.5462 C264.4777,162.2401 255.813,177.3189 248.5688,189.9257 " fill="none" id="nl.vaneijndhoven.dukes.cletus.roi.RegionOfInterest-nl.vaneijndhoven.dukes.cletus.roi.NearField" style="stroke: #A80036; stroke-width: 1.0;"/><polygon fill="none" points="266.9664,143.8593,283.0003,130.006,279.105,150.8345,266.9664,143.8593" style="stroke: #A80036; stroke-width: 1.0;"/><!--link nl.vaneijndhoven.dukes.cletus.roi.RegionOfInterest to nl.vaneijndhoven.dukes.cletus.roi.LeftField--><path d="M343.0788,147.5462 C351.5223,162.2401 360.187,177.3189 367.4312,189.9257 " fill="none" id="nl.vaneijndhoven.dukes.cletus.roi.RegionOfInterest-nl.vaneijndhoven.dukes.cletus.roi.LeftField" style="stroke: #A80036; stroke-width: 1.0;"/><polygon fill="none" points="336.895,150.8345,332.9997,130.006,349.0336,143.8593,336.895,150.8345" style="stroke: #A80036; stroke-width: 1.0;"/><!--link nl.vaneijndhoven.dukes.cletus.roi.RegionOfInterest to nl.vaneijndhoven.dukes.cletus.roi.RightField--><path d="M400.7749,140.0855 C430.1145,157.0316 461.5209,175.1716 487.0653,189.9257 " fill="none" id="nl.vaneijndhoven.dukes.cletus.roi.RegionOfInterest-nl.vaneijndhoven.dukes.cletus.roi.RightField" style="stroke: #A80036; stroke-width: 1.0;"/><polygon fill="none" points="397.1414,146.0706,383.3238,130.006,404.1436,133.9475,397.1414,146.0706" style="stroke: #A80036; stroke-width: 1.0;"/><text fill="#888888" font-family="sans-serif" font-size="10" lengthAdjust="spacingAndGlyphs" textLength="182" x="227" y="286.668">UMLDoclet 1.1.4, PlantUML 1.2019.05</text><!--
@startuml

    namespace nl.vaneijndhoven.dukes.cletus.roi {

        class FarField [[FarField.html]] {
            +FarField(double)
        }

        class NearField [[NearField.html]] {
            +NearField(double)
        }

        class LeftField [[LeftField.html]] {
            +LeftField(double)
        }

        class RegionOfInterest [[RegionOfInterest.html]] {
            +RegionOfInterest(double, double, double, double)
            +roi(Size): Rect
            +region(Mat): Mat
        }

        class RightField [[RightField.html]] {
            +RightField(double)
        }

        RegionOfInterest <|- - FarField

        RegionOfInterest <|- - NearField

        RegionOfInterest <|- - LeftField

        RegionOfInterest <|- - RightField

    }


    center footer UMLDoclet 1.1.4, PlantUML 1.2019.05
@enduml

PlantUML version 1.2019.05(Sat Apr 20 18:45:36 CEST 2019)
(APACHE source distribution)
Java Runtime: Java(TM) SE Runtime Environment
JVM: Java HotSpot(TM) 64-Bit Server VM
Java Version: 1.8.0_152-b16
Operating System: Mac OS X
OS Version: 10.13.6
Default Encoding: UTF-8
Language: de
Country: DE
--></g></svg>