<?xml version="1.0" encoding="UTF-8" standalone="no"?><svg xmlns="http://www.w3.org/2000/svg" xmlns:xlink="http://www.w3.org/1999/xlink" contentScriptType="application/ecmascript" contentStyleType="text/css" height="115px" preserveAspectRatio="none" style="width:269px;height:115px;" version="1.1" viewBox="0 0 269 115" width="269px" zoomAndPan="magnify"><defs><filter height="300%" id="f1tit8gfhrbez3" width="300%" x="-1" y="-1"><feGaussianBlur result="blurOut" stdDeviation="2.0"/><feColorMatrix in="blurOut" result="blurOut2" type="matrix" values="0 0 0 0 0 0 0 0 0 0 0 0 0 0 0 0 0 0 .4 0"/><feOffset dx="4.0" dy="4.0" in="blurOut2" result="blurOut3"/><feBlend in="SourceGraphic" in2="blurOut3" mode="normal"/></filter></defs><g><!--class LineExtractor--><a href="LineExtractor.html" target="_top" xlink:actuate="onRequest" xlink:show="new" xlink:title="LineExtractor.html" xlink:type="simple"><rect fill="#FEFECE" filter="url(#f1tit8gfhrbez3)" height="73.9102" id="LineExtractor" style="stroke: #A80036; stroke-width: 1.5;" width="252" x="6" y="8"/><ellipse cx="90.25" cy="24" fill="#ADD1B2" rx="11" ry="11" style="stroke: #A80036; stroke-width: 1.0;"/><path d="M93.2231,29.6431 Q92.6421,29.9419 92.0029,30.0913 Q91.3638,30.2407 90.6582,30.2407 Q88.1514,30.2407 86.8315,28.5889 Q85.5117,26.937 85.5117,23.8159 Q85.5117,20.6865 86.8315,19.0347 Q88.1514,17.3828 90.6582,17.3828 Q91.3638,17.3828 92.0112,17.5322 Q92.6587,17.6816 93.2231,17.9805 L93.2231,20.7031 Q92.5923,20.1221 91.9988,19.8523 Q91.4053,19.5825 90.7744,19.5825 Q89.4297,19.5825 88.7449,20.6492 Q88.0601,21.7158 88.0601,23.8159 Q88.0601,25.9077 88.7449,26.9744 Q89.4297,28.041 90.7744,28.041 Q91.4053,28.041 91.9988,27.7712 Q92.5923,27.5015 93.2231,26.9204 Z "/><text fill="#000000" font-family="sans-serif" font-size="12" lengthAdjust="spacingAndGlyphs" textLength="75" x="110.75" y="28.5352">LineExtractor</text><line style="stroke: #A80036; stroke-width: 1.5;" x1="7" x2="257" y1="40" y2="40"/><line style="stroke: #A80036; stroke-width: 1.5;" x1="7" x2="257" y1="48" y2="48"/><ellipse cx="17" cy="59.9775" fill="#84BE84" rx="3" ry="3" style="stroke: #038048; stroke-width: 1.0;"/><text fill="#000000" font-family="sans-serif" font-size="11" lengthAdjust="spacingAndGlyphs" textLength="226" x="26" y="62.6348">LineExtractor(EdgeDetector, LineDetector)</text><ellipse cx="17" cy="72.9326" fill="#84BE84" rx="3" ry="3" style="stroke: #038048; stroke-width: 1.0;"/><text fill="#000000" font-family="sans-serif" font-size="11" lengthAdjust="spacingAndGlyphs" textLength="165" x="26" y="75.5898">extract(Mat): Collection&lt;Line&gt;</text></a><text fill="#888888" font-family="sans-serif" font-size="10" lengthAdjust="spacingAndGlyphs" textLength="182" x="47" y="101.668">UMLDoclet 1.1.4, PlantUML 1.2019.05</text><!--
@startuml

    class LineExtractor [[LineExtractor.html]] {
        +LineExtractor(EdgeDetector, LineDetector)
        +extract(Mat): Collection<Line>
    }


    center footer UMLDoclet 1.1.4, PlantUML 1.2019.05
@enduml

PlantUML version 1.2019.05(Sat Apr 20 18:45:36 CEST 2019)
(APACHE source distribution)
Java Runtime: Java(TM) SE Runtime Environment
JVM: Java HotSpot(TM) 64-Bit Server VM
Java Version: 1.8.0_152-b16
Operating System: Mac OS X
OS Version: 10.13.6
Default Encoding: UTF-8
Language: de
Country: DE
--></g></svg>