<?xml version="1.0" encoding="UTF-8" standalone="no"?><svg xmlns="http://www.w3.org/2000/svg" xmlns:xlink="http://www.w3.org/1999/xlink" contentScriptType="application/ecmascript" contentStyleType="text/css" height="750px" preserveAspectRatio="none" style="width:399px;height:750px;" version="1.1" viewBox="0 0 399 750" width="399px" zoomAndPan="magnify"><defs><filter height="300%" id="f5so951mhj9q9" width="300%" x="-1" y="-1"><feGaussianBlur result="blurOut" stdDeviation="2.0"/><feColorMatrix in="blurOut" result="blurOut2" type="matrix" values="0 0 0 0 0 0 0 0 0 0 0 0 0 0 0 0 0 0 .4 0"/><feOffset dx="4.0" dy="4.0" in="blurOut2" result="blurOut3"/><feBlend in="SourceGraphic" in2="blurOut3" mode="normal"/></filter></defs><g><!--cluster nl.vaneijndhoven.dukes.car--><polygon fill="#FFFFFF" filter="url(#f5so951mhj9q9)" points="14,16,211,16,218,38.4883,377,38.4883,377,709,14,709,14,16" style="stroke: #000000; stroke-width: 1.5;"/><line style="stroke: #000000; stroke-width: 1.5;" x1="14" x2="218" y1="38.4883" y2="38.4883"/><text fill="#000000" font-family="sans-serif" font-size="14" font-weight="bold" lengthAdjust="spacingAndGlyphs" textLength="191" x="18" y="31.5352">nl.vaneijndhoven.dukes.car</text><!--class nl.vaneijndhoven.dukes.car.SteeringMap--><a href="SteeringMap.html" target="_top" xlink:actuate="onRequest" xlink:show="new" xlink:title="SteeringMap.html" xlink:type="simple"><rect fill="#FEFECE" filter="url(#f5so951mhj9q9)" height="99.8203" id="nl.vaneijndhoven.dukes.car.SteeringMap" style="stroke: #A80036; stroke-width: 1.5;" width="105" x="53.5" y="588"/><ellipse cx="69.4" cy="604" fill="#B4A7E5" rx="11" ry="11" style="stroke: #A80036; stroke-width: 1.0;"/><path d="M65.3277,599.7651 L65.3277,597.6069 L72.7071,597.6069 L72.7071,599.7651 L70.2418,599.7651 L70.2418,607.8418 L72.7071,607.8418 L72.7071,610 L65.3277,610 L65.3277,607.8418 L67.7931,607.8418 L67.7931,599.7651 Z "/><text fill="#000000" font-family="sans-serif" font-size="12" font-style="italic" lengthAdjust="spacingAndGlyphs" textLength="71" x="83.6" y="608.5352">SteeringMap</text><line style="stroke: #A80036; stroke-width: 1.5;" x1="54.5" x2="157.5" y1="620" y2="620"/><line style="stroke: #A80036; stroke-width: 1.5;" x1="54.5" x2="157.5" y1="628" y2="628"/><ellipse cx="64.5" cy="639.9775" fill="#84BE84" rx="3" ry="3" style="stroke: #038048; stroke-width: 1.0;"/><text fill="#000000" font-family="sans-serif" font-size="11" font-style="italic" lengthAdjust="spacingAndGlyphs" textLength="62" x="73.5" y="642.6348">center(): int</text><ellipse cx="64.5" cy="652.9326" fill="#84BE84" rx="3" ry="3" style="stroke: #038048; stroke-width: 1.0;"/><text fill="#000000" font-family="sans-serif" font-size="11" font-style="italic" lengthAdjust="spacingAndGlyphs" textLength="72" x="73.5" y="655.5898">stepSize(): int</text><ellipse cx="64.5" cy="665.8877" fill="#84BE84" rx="3" ry="3" style="stroke: #038048; stroke-width: 1.0;"/><text fill="#000000" font-family="sans-serif" font-size="11" font-style="italic" lengthAdjust="spacingAndGlyphs" textLength="71" x="73.5" y="668.5449">maxLeft(): int</text><ellipse cx="64.5" cy="678.8428" fill="#84BE84" rx="3" ry="3" style="stroke: #038048; stroke-width: 1.0;"/><text fill="#000000" font-family="sans-serif" font-size="11" font-style="italic" lengthAdjust="spacingAndGlyphs" textLength="79" x="73.5" y="681.5">maxRight(): int</text></a><!--class nl.vaneijndhoven.dukes.car.EngineMap--><a href="EngineMap.html" target="_top" xlink:actuate="onRequest" xlink:show="new" xlink:title="EngineMap.html" xlink:type="simple"><rect fill="#FEFECE" filter="url(#f5so951mhj9q9)" height="125.7305" id="nl.vaneijndhoven.dukes.car.EngineMap" style="stroke: #A80036; stroke-width: 1.5;" width="121" x="236.5" y="575"/><ellipse cx="263.2" cy="591" fill="#B4A7E5" rx="11" ry="11" style="stroke: #A80036; stroke-width: 1.0;"/><path d="M259.1277,586.7651 L259.1277,584.6069 L266.5071,584.6069 L266.5071,586.7651 L264.0418,586.7651 L264.0418,594.8418 L266.5071,594.8418 L266.5071,597 L259.1277,597 L259.1277,594.8418 L261.5931,594.8418 L261.5931,586.7651 Z "/><text fill="#000000" font-family="sans-serif" font-size="12" font-style="italic" lengthAdjust="spacingAndGlyphs" textLength="63" x="279.8" y="595.5352">EngineMap</text><line style="stroke: #A80036; stroke-width: 1.5;" x1="237.5" x2="356.5" y1="607" y2="607"/><line style="stroke: #A80036; stroke-width: 1.5;" x1="237.5" x2="356.5" y1="615" y2="615"/><ellipse cx="247.5" cy="626.9775" fill="#84BE84" rx="3" ry="3" style="stroke: #038048; stroke-width: 1.0;"/><text fill="#000000" font-family="sans-serif" font-size="11" font-style="italic" lengthAdjust="spacingAndGlyphs" textLength="66" x="256.5" y="629.6348">neutral(): int</text><ellipse cx="247.5" cy="639.9326" fill="#84BE84" rx="3" ry="3" style="stroke: #038048; stroke-width: 1.0;"/><text fill="#000000" font-family="sans-serif" font-size="11" font-style="italic" lengthAdjust="spacingAndGlyphs" textLength="72" x="256.5" y="642.5898">stepSize(): int</text><ellipse cx="247.5" cy="652.8877" fill="#84BE84" rx="3" ry="3" style="stroke: #038048; stroke-width: 1.0;"/><text fill="#000000" font-family="sans-serif" font-size="11" font-style="italic" lengthAdjust="spacingAndGlyphs" textLength="90" x="256.5" y="655.5449">minReverse(): int</text><ellipse cx="247.5" cy="665.8428" fill="#84BE84" rx="3" ry="3" style="stroke: #038048; stroke-width: 1.0;"/><text fill="#000000" font-family="sans-serif" font-size="11" font-style="italic" lengthAdjust="spacingAndGlyphs" textLength="93" x="256.5" y="668.5">maxReverse(): int</text><ellipse cx="247.5" cy="678.7979" fill="#84BE84" rx="3" ry="3" style="stroke: #038048; stroke-width: 1.0;"/><text fill="#000000" font-family="sans-serif" font-size="11" font-style="italic" lengthAdjust="spacingAndGlyphs" textLength="92" x="256.5" y="681.4551">minForward(): int</text><ellipse cx="247.5" cy="691.7529" fill="#84BE84" rx="3" ry="3" style="stroke: #038048; stroke-width: 1.0;"/><text fill="#000000" font-family="sans-serif" font-size="11" font-style="italic" lengthAdjust="spacingAndGlyphs" textLength="95" x="256.5" y="694.4102">maxForward(): int</text></a><!--class nl.vaneijndhoven.dukes.car.Steering--><a href="Steering.html" target="_top" xlink:actuate="onRequest" xlink:show="new" xlink:title="Steering.html" xlink:type="simple"><rect fill="#FEFECE" filter="url(#f5so951mhj9q9)" height="99.8203" id="nl.vaneijndhoven.dukes.car.Steering" style="stroke: #A80036; stroke-width: 1.5;" width="167" x="22.5" y="314.5"/><ellipse cx="78.75" cy="330.5" fill="#ADD1B2" rx="11" ry="11" style="stroke: #A80036; stroke-width: 1.0;"/><path d="M81.7231,336.1431 Q81.1421,336.4419 80.5029,336.5913 Q79.8638,336.7407 79.1582,336.7407 Q76.6514,336.7407 75.3315,335.0889 Q74.0117,333.437 74.0117,330.3159 Q74.0117,327.1865 75.3315,325.5347 Q76.6514,323.8828 79.1582,323.8828 Q79.8638,323.8828 80.5112,324.0322 Q81.1587,324.1816 81.7231,324.4805 L81.7231,327.2031 Q81.0923,326.6221 80.4988,326.3523 Q79.9053,326.0825 79.2744,326.0825 Q77.9297,326.0825 77.2449,327.1492 Q76.5601,328.2158 76.5601,330.3159 Q76.5601,332.4077 77.2449,333.4744 Q77.9297,334.541 79.2744,334.541 Q79.9053,334.541 80.4988,334.2712 Q81.0923,334.0015 81.7231,333.4204 Z "/><text fill="#000000" font-family="sans-serif" font-size="12" lengthAdjust="spacingAndGlyphs" textLength="46" x="99.25" y="335.0352">Steering</text><line style="stroke: #A80036; stroke-width: 1.5;" x1="23.5" x2="188.5" y1="346.5" y2="346.5"/><line style="stroke: #A80036; stroke-width: 1.5;" x1="23.5" x2="188.5" y1="354.5" y2="354.5"/><ellipse cx="33.5" cy="366.4775" fill="#84BE84" rx="3" ry="3" style="stroke: #038048; stroke-width: 1.0;"/><text fill="#000000" font-family="sans-serif" font-size="11" lengthAdjust="spacingAndGlyphs" textLength="118" x="42.5" y="369.1348">Steering(SteeringMap)</text><ellipse cx="33.5" cy="379.4326" fill="#84BE84" rx="3" ry="3" style="stroke: #038048; stroke-width: 1.0;"/><text fill="#000000" font-family="sans-serif" font-size="11" lengthAdjust="spacingAndGlyphs" textLength="71" x="42.5" y="382.0898">center(): void</text><ellipse cx="33.5" cy="392.3877" fill="#84BE84" rx="3" ry="3" style="stroke: #038048; stroke-width: 1.0;"/><text fill="#000000" font-family="sans-serif" font-size="11" lengthAdjust="spacingAndGlyphs" textLength="101" x="42.5" y="395.0449">forceCenter(): void</text><ellipse cx="33.5" cy="405.3428" fill="#84BE84" rx="3" ry="3" style="stroke: #038048; stroke-width: 1.0;"/><text fill="#000000" font-family="sans-serif" font-size="11" lengthAdjust="spacingAndGlyphs" text-decoration="underline" textLength="141" x="42.5" y="408">setWheelPosition(int): void</text></a><!--class nl.vaneijndhoven.dukes.car.Command--><a href="Command.html" target="_top" xlink:actuate="onRequest" xlink:show="new" xlink:title="Command.html" xlink:type="simple"><rect fill="#FEFECE" filter="url(#f5so951mhj9q9)" height="125.7305" id="nl.vaneijndhoven.dukes.car.Command" style="stroke: #A80036; stroke-width: 1.5;" width="163" x="205.5" y="43"/><ellipse cx="253.25" cy="59" fill="#ADD1B2" rx="11" ry="11" style="stroke: #A80036; stroke-width: 1.0;"/><path d="M256.2231,64.6431 Q255.6421,64.9419 255.0029,65.0913 Q254.3638,65.2407 253.6582,65.2407 Q251.1514,65.2407 249.8315,63.5889 Q248.5117,61.937 248.5117,58.8159 Q248.5117,55.6865 249.8315,54.0347 Q251.1514,52.3828 253.6582,52.3828 Q254.3638,52.3828 255.0112,52.5322 Q255.6587,52.6816 256.2231,52.9805 L256.2231,55.7031 Q255.5923,55.1221 254.9988,54.8523 Q254.4053,54.5825 253.7744,54.5825 Q252.4297,54.5825 251.7449,55.6492 Q251.0601,56.7158 251.0601,58.8159 Q251.0601,60.9077 251.7449,61.9744 Q252.4297,63.041 253.7744,63.041 Q254.4053,63.041 254.9988,62.7712 Q255.5923,62.5015 256.2231,61.9204 Z "/><text fill="#000000" font-family="sans-serif" font-size="12" lengthAdjust="spacingAndGlyphs" textLength="59" x="273.75" y="63.5352">Command</text><line style="stroke: #A80036; stroke-width: 1.5;" x1="206.5" x2="367.5" y1="75" y2="75"/><line style="stroke: #A80036; stroke-width: 1.5;" x1="206.5" x2="367.5" y1="83" y2="83"/><ellipse cx="216.5" cy="94.9775" fill="#84BE84" rx="3" ry="3" style="stroke: #038048; stroke-width: 1.0;"/><text fill="#000000" font-family="sans-serif" font-size="11" lengthAdjust="spacingAndGlyphs" text-decoration="underline" textLength="105" x="225.5" y="97.6348">statusLedOn(): void</text><ellipse cx="216.5" cy="107.9326" fill="#84BE84" rx="3" ry="3" style="stroke: #038048; stroke-width: 1.0;"/><text fill="#000000" font-family="sans-serif" font-size="11" lengthAdjust="spacingAndGlyphs" text-decoration="underline" textLength="106" x="225.5" y="110.5898">statusLedOff(): void</text><ellipse cx="216.5" cy="120.8877" fill="#84BE84" rx="3" ry="3" style="stroke: #038048; stroke-width: 1.0;"/><text fill="#000000" font-family="sans-serif" font-size="11" lengthAdjust="spacingAndGlyphs" text-decoration="underline" textLength="101" x="225.5" y="123.5449">setPowerOn(): void</text><ellipse cx="216.5" cy="133.8428" fill="#84BE84" rx="3" ry="3" style="stroke: #038048; stroke-width: 1.0;"/><text fill="#000000" font-family="sans-serif" font-size="11" lengthAdjust="spacingAndGlyphs" text-decoration="underline" textLength="102" x="225.5" y="136.5">setPowerOff(): void</text><ellipse cx="216.5" cy="146.7979" fill="#84BE84" rx="3" ry="3" style="stroke: #038048; stroke-width: 1.0;"/><text fill="#000000" font-family="sans-serif" font-size="11" lengthAdjust="spacingAndGlyphs" text-decoration="underline" textLength="115" x="225.5" y="149.4551">powerIsOn(): boolean</text><ellipse cx="216.5" cy="159.7529" fill="#84BE84" rx="3" ry="3" style="stroke: #038048; stroke-width: 1.0;"/><text fill="#000000" font-family="sans-serif" font-size="11" lengthAdjust="spacingAndGlyphs" text-decoration="underline" textLength="137" x="225.5" y="162.4102">servoBlaster(int, int): void</text></a><!--class nl.vaneijndhoven.dukes.car.Car--><a href="Car.html" target="_top" xlink:actuate="onRequest" xlink:show="new" xlink:title="Car.html" xlink:type="simple"><rect fill="#FEFECE" filter="url(#f5so951mhj9q9)" height="99.8203" id="nl.vaneijndhoven.dukes.car.Car" style="stroke: #A80036; stroke-width: 1.5;" width="139" x="31.5" y="56"/><ellipse cx="86.75" cy="72" fill="#ADD1B2" rx="11" ry="11" style="stroke: #A80036; stroke-width: 1.0;"/><path d="M89.7231,77.6431 Q89.1421,77.9419 88.5029,78.0913 Q87.8638,78.2407 87.1582,78.2407 Q84.6514,78.2407 83.3315,76.5889 Q82.0117,74.937 82.0117,71.8159 Q82.0117,68.6865 83.3315,67.0347 Q84.6514,65.3828 87.1582,65.3828 Q87.8638,65.3828 88.5112,65.5322 Q89.1587,65.6816 89.7231,65.9805 L89.7231,68.7031 Q89.0923,68.1221 88.4988,67.8523 Q87.9053,67.5825 87.2744,67.5825 Q85.9297,67.5825 85.2449,68.6492 Q84.5601,69.7158 84.5601,71.8159 Q84.5601,73.9077 85.2449,74.9744 Q85.9297,76.041 87.2744,76.041 Q87.9053,76.041 88.4988,75.7712 Q89.0923,75.5015 89.7231,74.9204 Z "/><text fill="#000000" font-family="sans-serif" font-size="12" lengthAdjust="spacingAndGlyphs" textLength="20" x="107.25" y="76.5352">Car</text><line style="stroke: #A80036; stroke-width: 1.5;" x1="32.5" x2="169.5" y1="88" y2="88"/><line style="stroke: #A80036; stroke-width: 1.5;" x1="32.5" x2="169.5" y1="96" y2="96"/><ellipse cx="42.5" cy="107.9775" fill="#84BE84" rx="3" ry="3" style="stroke: #038048; stroke-width: 1.0;"/><text fill="#000000" font-family="sans-serif" font-size="11" lengthAdjust="spacingAndGlyphs" textLength="113" x="51.5" y="110.6348">Car(Engine, Steering)</text><ellipse cx="42.5" cy="120.9326" fill="#84BE84" rx="3" ry="3" style="stroke: #038048; stroke-width: 1.0;"/><text fill="#000000" font-family="sans-serif" font-size="11" lengthAdjust="spacingAndGlyphs" textLength="61" x="51.5" y="123.5898">stop(): void</text><ellipse cx="42.5" cy="133.8877" fill="#84BE84" rx="3" ry="3" style="stroke: #038048; stroke-width: 1.0;"/><text fill="#000000" font-family="sans-serif" font-size="11" lengthAdjust="spacingAndGlyphs" textLength="97" x="51.5" y="136.5449">turn(double): void</text><ellipse cx="42.5" cy="146.8428" fill="#84BE84" rx="3" ry="3" style="stroke: #038048; stroke-width: 1.0;"/><text fill="#000000" font-family="sans-serif" font-size="11" lengthAdjust="spacingAndGlyphs" textLength="101" x="51.5" y="149.5">drive(double): void</text></a><!--class nl.vaneijndhoven.dukes.car.Engine--><a href="Engine.html" target="_top" xlink:actuate="onRequest" xlink:show="new" xlink:title="Engine.html" xlink:type="simple"><rect fill="#FEFECE" filter="url(#f5so951mhj9q9)" height="112.7754" id="nl.vaneijndhoven.dukes.car.Engine" style="stroke: #A80036; stroke-width: 1.5;" width="144" x="225" y="308"/><ellipse cx="273.75" cy="324" fill="#ADD1B2" rx="11" ry="11" style="stroke: #A80036; stroke-width: 1.0;"/><path d="M276.7231,329.6431 Q276.1421,329.9419 275.5029,330.0913 Q274.8638,330.2407 274.1582,330.2407 Q271.6514,330.2407 270.3315,328.5889 Q269.0117,326.937 269.0117,323.8159 Q269.0117,320.6865 270.3315,319.0347 Q271.6514,317.3828 274.1582,317.3828 Q274.8638,317.3828 275.5112,317.5322 Q276.1587,317.6816 276.7231,317.9805 L276.7231,320.7031 Q276.0923,320.1221 275.4988,319.8523 Q274.9053,319.5825 274.2744,319.5825 Q272.9297,319.5825 272.2449,320.6492 Q271.5601,321.7158 271.5601,323.8159 Q271.5601,325.9077 272.2449,326.9744 Q272.9297,328.041 274.2744,328.041 Q274.9053,328.041 275.4988,327.7712 Q276.0923,327.5015 276.7231,326.9204 Z "/><text fill="#000000" font-family="sans-serif" font-size="12" lengthAdjust="spacingAndGlyphs" textLength="38" x="294.25" y="328.5352">Engine</text><line style="stroke: #A80036; stroke-width: 1.5;" x1="226" x2="368" y1="340" y2="340"/><line style="stroke: #A80036; stroke-width: 1.5;" x1="226" x2="368" y1="348" y2="348"/><ellipse cx="236" cy="359.9775" fill="#84BE84" rx="3" ry="3" style="stroke: #038048; stroke-width: 1.0;"/><text fill="#000000" font-family="sans-serif" font-size="11" lengthAdjust="spacingAndGlyphs" textLength="102" x="245" y="362.6348">Engine(EngineMap)</text><ellipse cx="236" cy="372.9326" fill="#84BE84" rx="3" ry="3" style="stroke: #038048; stroke-width: 1.0;"/><text fill="#000000" font-family="sans-serif" font-size="11" lengthAdjust="spacingAndGlyphs" textLength="75" x="245" y="375.5898">neutral(): void</text><ellipse cx="236" cy="385.8877" fill="#84BE84" rx="3" ry="3" style="stroke: #038048; stroke-width: 1.0;"/><text fill="#000000" font-family="sans-serif" font-size="11" lengthAdjust="spacingAndGlyphs" textLength="114" x="245" y="388.5449">forceInNeutral(): void</text><ellipse cx="236" cy="398.8428" fill="#84BE84" rx="3" ry="3" style="stroke: #038048; stroke-width: 1.0;"/><text fill="#000000" font-family="sans-serif" font-size="11" lengthAdjust="spacingAndGlyphs" textLength="118" x="245" y="401.5">neutral(boolean): void</text><ellipse cx="236" cy="411.7979" fill="#84BE84" rx="3" ry="3" style="stroke: #038048; stroke-width: 1.0;"/><text fill="#000000" font-family="sans-serif" font-size="11" lengthAdjust="spacingAndGlyphs" text-decoration="underline" textLength="99" x="245" y="414.4551">setSpeed(int): void</text></a><!--link nl.vaneijndhoven.dukes.car.Steering to nl.vaneijndhoven.dukes.car.SteeringMap--><path d="M106,414.6641 C106,462.1286 106,533.2347 106,582.4061 " fill="none" id="nl.vaneijndhoven.dukes.car.Steering-nl.vaneijndhoven.dukes.car.SteeringMap" style="stroke: #A80036; stroke-width: 1.0;"/><polygon fill="#A80036" points="106,587.6915,110,578.6915,106,582.6915,102,578.6915,106,587.6915" style="stroke: #A80036; stroke-width: 1.0;"/><text fill="#000000" font-family="sans-serif" font-size="13" lengthAdjust="spacingAndGlyphs" textLength="77" x="107" y="503.0684">steeringMap</text><!--link nl.vaneijndhoven.dukes.car.Car to nl.vaneijndhoven.dukes.car.Engine--><path d="M139.0232,156.1479 C171.0097,198.3342 216.8472,258.7883 250.9162,303.7211 " fill="none" id="nl.vaneijndhoven.dukes.car.Car-nl.vaneijndhoven.dukes.car.Engine" style="stroke: #A80036; stroke-width: 1.0;"/><polygon fill="#A80036" points="253.968,307.7461,251.7177,298.1578,250.9471,303.7619,245.3429,302.9913,253.968,307.7461" style="stroke: #A80036; stroke-width: 1.0;"/><text fill="#000000" font-family="sans-serif" font-size="13" lengthAdjust="spacingAndGlyphs" textLength="42" x="208" y="243.5684">engine</text><!--link nl.vaneijndhoven.dukes.car.Car to nl.vaneijndhoven.dukes.car.Steering--><path d="M101.97,156.1479 C102.8204,200.1153 104.0547,263.9256 104.9328,309.3267 " fill="none" id="nl.vaneijndhoven.dukes.car.Car-nl.vaneijndhoven.dukes.car.Steering" style="stroke: #A80036; stroke-width: 1.0;"/><polygon fill="#A80036" points="105.0327,314.4917,108.8576,305.4159,104.9358,309.4926,100.8591,305.5709,105.0327,314.4917" style="stroke: #A80036; stroke-width: 1.0;"/><text fill="#000000" font-family="sans-serif" font-size="13" lengthAdjust="spacingAndGlyphs" textLength="51" x="104" y="243.5684">steering</text><!--link nl.vaneijndhoven.dukes.car.Engine to nl.vaneijndhoven.dukes.car.EngineMap--><path d="M297,421.1694 C297,464.2576 297,523.7233 297,569.4834 " fill="none" id="nl.vaneijndhoven.dukes.car.Engine-nl.vaneijndhoven.dukes.car.EngineMap" style="stroke: #A80036; stroke-width: 1.0;"/><polygon fill="#A80036" points="297,574.7114,301,565.7114,297,569.7114,293,565.7114,297,574.7114" style="stroke: #A80036; stroke-width: 1.0;"/><text fill="#000000" font-family="sans-serif" font-size="13" lengthAdjust="spacingAndGlyphs" textLength="55" x="304.5" y="495.5684">mapping</text><text fill="#000000" font-family="sans-serif" font-size="13" lengthAdjust="spacingAndGlyphs" textLength="68" x="298" y="510.8789">engineMap</text><text fill="#888888" font-family="sans-serif" font-size="10" lengthAdjust="spacingAndGlyphs" textLength="182" x="110.5" y="736.668">UMLDoclet 1.1.4, PlantUML 1.2019.05</text><!--
@startuml

    namespace nl.vaneijndhoven.dukes.car {

        interface SteeringMap [[SteeringMap.html]] {
            {abstract} +center(): int
            {abstract} +stepSize(): int
            {abstract} +maxLeft(): int
            {abstract} +maxRight(): int
        }

        interface EngineMap [[EngineMap.html]] {
            {abstract} +neutral(): int
            {abstract} +stepSize(): int
            {abstract} +minReverse(): int
            {abstract} +maxReverse(): int
            {abstract} +minForward(): int
            {abstract} +maxForward(): int
        }

        class Steering [[Steering.html]] {
            +Steering(SteeringMap)
            +center(): void
            +forceCenter(): void
            {static} +setWheelPosition(int): void
        }

        class Command [[Command.html]] {
            {static} +statusLedOn(): void
            {static} +statusLedOff(): void
            {static} +setPowerOn(): void
            {static} +setPowerOff(): void
            {static} +powerIsOn(): boolean
            {static} +servoBlaster(int, int): void
        }

        class Car [[Car.html]] {
            +Car(Engine, Steering)
            +stop(): void
            +turn(double): void
            +drive(double): void
        }

        class Engine [[Engine.html]] {
            +Engine(EngineMap)
            +neutral(): void
            +forceInNeutral(): void
            +neutral(boolean): void
            {static} +setSpeed(int): void
        }

        Steering - -> SteeringMap: steeringMap

        Car - -> Engine: engine

        Car - -> Steering: steering

        Engine - -> EngineMap: mapping\nengineMap

    }


    center footer UMLDoclet 1.1.4, PlantUML 1.2019.05
@enduml

PlantUML version 1.2019.05(Sat Apr 20 18:45:36 CEST 2019)
(APACHE source distribution)
Java Runtime: Java(TM) SE Runtime Environment
JVM: Java HotSpot(TM) 64-Bit Server VM
Java Version: 1.8.0_152-b16
Operating System: Mac OS X
OS Version: 10.13.6
Default Encoding: UTF-8
Language: de
Country: DE
--></g></svg>