<?xml version="1.0" encoding="UTF-8" standalone="no"?><svg xmlns="http://www.w3.org/2000/svg" xmlns:xlink="http://www.w3.org/1999/xlink" contentScriptType="application/ecmascript" contentStyleType="text/css" height="179px" preserveAspectRatio="none" style="width:310px;height:179px;" version="1.1" viewBox="0 0 310 179" width="310px" zoomAndPan="magnify"><defs><filter height="300%" id="fu8m09lv87490" width="300%" x="-1" y="-1"><feGaussianBlur result="blurOut" stdDeviation="2.0"/><feColorMatrix in="blurOut" result="blurOut2" type="matrix" values="0 0 0 0 0 0 0 0 0 0 0 0 0 0 0 0 0 0 .4 0"/><feOffset dx="4.0" dy="4.0" in="blurOut2" result="blurOut3"/><feBlend in="SourceGraphic" in2="blurOut3" mode="normal"/></filter></defs><g><!--cluster org.rcdukes.roi--><polygon fill="#FFFFFF" filter="url(#fu8m09lv87490)" points="14,16,126,16,133,38.4883,288,38.4883,288,138,14,138,14,16" style="stroke: #000000; stroke-width: 1.5;"/><line style="stroke: #000000; stroke-width: 1.5;" x1="14" x2="133" y1="38.4883" y2="38.4883"/><text fill="#000000" font-family="sans-serif" font-size="14" font-weight="bold" lengthAdjust="spacingAndGlyphs" textLength="106" x="18" y="31.5352">org.rcdukes.roi</text><!--class org.rcdukes.roi.ROI--><a href="ROI.html" target="_top" xlink:actuate="onRequest" xlink:show="new" xlink:title="ROI.html" xlink:type="simple"><rect fill="#FEFECE" filter="url(#fu8m09lv87490)" height="86.8652" id="org.rcdukes.roi.ROI" style="stroke: #A80036; stroke-width: 1.5;" width="257" x="22.5" y="43"/><ellipse cx="136.75" cy="59" fill="#ADD1B2" rx="11" ry="11" style="stroke: #A80036; stroke-width: 1.0;"/><path d="M139.7231,64.6431 Q139.1421,64.9419 138.5029,65.0913 Q137.8638,65.2407 137.1582,65.2407 Q134.6514,65.2407 133.3315,63.5889 Q132.0117,61.937 132.0117,58.8159 Q132.0117,55.6865 133.3315,54.0347 Q134.6514,52.3828 137.1582,52.3828 Q137.8638,52.3828 138.5112,52.5322 Q139.1587,52.6816 139.7231,52.9805 L139.7231,55.7031 Q139.0923,55.1221 138.4988,54.8523 Q137.9053,54.5825 137.2744,54.5825 Q135.9297,54.5825 135.2449,55.6492 Q134.5601,56.7158 134.5601,58.8159 Q134.5601,60.9077 135.2449,61.9744 Q135.9297,63.041 137.2744,63.041 Q137.9053,63.041 138.4988,62.7712 Q139.0923,62.5015 139.7231,61.9204 Z "/><text fill="#000000" font-family="sans-serif" font-size="12" lengthAdjust="spacingAndGlyphs" textLength="20" x="157.25" y="63.5352">ROI</text><line style="stroke: #A80036; stroke-width: 1.5;" x1="23.5" x2="278.5" y1="75" y2="75"/><line style="stroke: #A80036; stroke-width: 1.5;" x1="23.5" x2="278.5" y1="83" y2="83"/><ellipse cx="33.5" cy="94.9775" fill="#84BE84" rx="3" ry="3" style="stroke: #038048; stroke-width: 1.0;"/><text fill="#000000" font-family="sans-serif" font-size="11" lengthAdjust="spacingAndGlyphs" textLength="231" x="42.5" y="97.6348">ROI(String, double, double, double, double)</text><ellipse cx="33.5" cy="107.9326" fill="#84BE84" rx="3" ry="3" style="stroke: #038048; stroke-width: 1.0;"/><text fill="#000000" font-family="sans-serif" font-size="11" lengthAdjust="spacingAndGlyphs" textLength="96" x="42.5" y="110.5898">roiRect(Size): Rect</text><ellipse cx="33.5" cy="120.8877" fill="#84BE84" rx="3" ry="3" style="stroke: #038048; stroke-width: 1.0;"/><text fill="#000000" font-family="sans-serif" font-size="11" lengthAdjust="spacingAndGlyphs" textLength="87" x="42.5" y="123.5449">region(Mat): Mat</text></a><text fill="#888888" font-family="sans-serif" font-size="10" lengthAdjust="spacingAndGlyphs" textLength="182" x="66" y="165.668">UMLDoclet 1.1.4, PlantUML 1.2019.05</text><!--
@startuml

    namespace org.rcdukes.roi {

        class ROI [[ROI.html]] {
            +ROI(String, double, double, double, double)
            +roiRect(Size): Rect
            +region(Mat): Mat
        }

    }


    center footer UMLDoclet 1.1.4, PlantUML 1.2019.05
@enduml

PlantUML version 1.2019.05(Sat Apr 20 18:45:36 CEST 2019)
(APACHE source distribution)
Java Runtime: Java(TM) SE Runtime Environment
JVM: Java HotSpot(TM) 64-Bit Server VM
Java Version: 1.8.0_152-b16
Operating System: Mac OS X
OS Version: 10.13.6
Default Encoding: UTF-8
Language: de
Country: DE
--></g></svg>