<?xml version="1.0" encoding="UTF-8" standalone="no"?><svg xmlns="http://www.w3.org/2000/svg" xmlns:xlink="http://www.w3.org/1999/xlink" contentScriptType="application/ecmascript" contentStyleType="text/css" height="115px" preserveAspectRatio="none" style="width:307px;height:115px;" version="1.1" viewBox="0 0 307 115" width="307px" zoomAndPan="magnify"><defs><filter height="300%" id="fwo3pw3ysbotr" width="300%" x="-1" y="-1"><feGaussianBlur result="blurOut" stdDeviation="2.0"/><feColorMatrix in="blurOut" result="blurOut2" type="matrix" values="0 0 0 0 0 0 0 0 0 0 0 0 0 0 0 0 0 0 .4 0"/><feOffset dx="4.0" dy="4.0" in="blurOut2" result="blurOut3"/><feBlend in="SourceGraphic" in2="blurOut3" mode="normal"/></filter></defs><g><!--class BoundaryDefaults--><a href="BoundaryDefaults.html" target="_top" xlink:actuate="onRequest" xlink:show="new" xlink:title="BoundaryDefaults.html" xlink:type="simple"><rect fill="#FEFECE" filter="url(#fwo3pw3ysbotr)" height="73.9102" id="BoundaryDefaults" style="stroke: #A80036; stroke-width: 1.5;" width="290" x="6" y="8"/><ellipse cx="96.25" cy="24" fill="#ADD1B2" rx="11" ry="11" style="stroke: #A80036; stroke-width: 1.0;"/><path d="M99.2231,29.6431 Q98.6421,29.9419 98.0029,30.0913 Q97.3638,30.2407 96.6582,30.2407 Q94.1514,30.2407 92.8315,28.5889 Q91.5117,26.937 91.5117,23.8159 Q91.5117,20.6865 92.8315,19.0347 Q94.1514,17.3828 96.6582,17.3828 Q97.3638,17.3828 98.0112,17.5322 Q98.6587,17.6816 99.2231,17.9805 L99.2231,20.7031 Q98.5923,20.1221 97.9988,19.8523 Q97.4053,19.5825 96.7744,19.5825 Q95.4297,19.5825 94.7449,20.6492 Q94.0601,21.7158 94.0601,23.8159 Q94.0601,25.9077 94.7449,26.9744 Q95.4297,28.041 96.7744,28.041 Q97.4053,28.041 97.9988,27.7712 Q98.5923,27.5015 99.2231,26.9204 Z "/><text fill="#000000" font-family="sans-serif" font-size="12" lengthAdjust="spacingAndGlyphs" textLength="101" x="116.75" y="28.5352">BoundaryDefaults</text><line style="stroke: #A80036; stroke-width: 1.5;" x1="7" x2="295" y1="40" y2="40"/><ellipse cx="17" cy="51.9775" fill="none" rx="3" ry="3" style="stroke: #038048; stroke-width: 1.0;"/><text fill="#000000" font-family="sans-serif" font-size="11" lengthAdjust="spacingAndGlyphs" text-decoration="underline" textLength="235" x="26" y="54.6348">DEFAULT_LANE_BOUNDARY_ANGLE: double</text><ellipse cx="17" cy="64.9326" fill="none" rx="3" ry="3" style="stroke: #038048; stroke-width: 1.0;"/><text fill="#000000" font-family="sans-serif" font-size="11" lengthAdjust="spacingAndGlyphs" text-decoration="underline" textLength="264" x="26" y="67.5898">DEFAULT_LANE_BOUNDARY_TOLERANCE: double</text><line style="stroke: #A80036; stroke-width: 1.5;" x1="7" x2="295" y1="73.9102" y2="73.9102"/></a><text fill="#888888" font-family="sans-serif" font-size="10" lengthAdjust="spacingAndGlyphs" textLength="182" x="66" y="101.668">UMLDoclet 1.1.4, PlantUML 1.2019.05</text><!--
@startuml

    class BoundaryDefaults [[BoundaryDefaults.html]] {
        {static} +DEFAULT_LANE_BOUNDARY_ANGLE: double
        {static} +DEFAULT_LANE_BOUNDARY_TOLERANCE: double
    }


    center footer UMLDoclet 1.1.4, PlantUML 1.2019.05
@enduml

PlantUML version 1.2019.05(Sat Apr 20 18:45:36 CEST 2019)
(APACHE source distribution)
Java Runtime: Java(TM) SE Runtime Environment
JVM: Java HotSpot(TM) 64-Bit Server VM
Java Version: 1.8.0_152-b16
Operating System: Mac OS X
OS Version: 10.13.6
Default Encoding: UTF-8
Language: de
Country: DE
--></g></svg>