<?xml version="1.0" encoding="UTF-8" standalone="no"?><svg xmlns="http://www.w3.org/2000/svg" xmlns:xlink="http://www.w3.org/1999/xlink" contentScriptType="application/ecmascript" contentStyleType="text/css" height="313px" preserveAspectRatio="none" style="width:956px;height:313px;" version="1.1" viewBox="0 0 956 313" width="956px" zoomAndPan="magnify"><defs><filter height="300%" id="f1e4hpg0vebjvo" width="300%" x="-1" y="-1"><feGaussianBlur result="blurOut" stdDeviation="2.0"/><feColorMatrix in="blurOut" result="blurOut2" type="matrix" values="0 0 0 0 0 0 0 0 0 0 0 0 0 0 0 0 0 0 .4 0"/><feOffset dx="4.0" dy="4.0" in="blurOut2" result="blurOut3"/><feBlend in="SourceGraphic" in2="blurOut3" mode="normal"/></filter></defs><g><!--cluster org.rcdukes.objects.lane--><polygon fill="#FFFFFF" filter="url(#f1e4hpg0vebjvo)" points="14,124,191,124,198,146.4883,934,146.4883,934,272,14,272,14,124" style="stroke: #000000; stroke-width: 1.5;"/><line style="stroke: #000000; stroke-width: 1.5;" x1="14" x2="198" y1="146.4883" y2="146.4883"/><text fill="#000000" font-family="sans-serif" font-size="14" font-weight="bold" lengthAdjust="spacingAndGlyphs" textLength="171" x="18" y="139.5352">org.rcdukes.objects.lane</text><!--cluster org.rcdukes.objects--><polygon fill="#FFFFFF" filter="url(#f1e4hpg0vebjvo)" points="397,16,541,16,548,38.4883,551,38.4883,551,99,397,99,397,16" style="stroke: #000000; stroke-width: 1.5;"/><line style="stroke: #000000; stroke-width: 1.5;" x1="397" x2="548" y1="38.4883" y2="38.4883"/><text fill="#000000" font-family="sans-serif" font-size="14" font-weight="bold" lengthAdjust="spacingAndGlyphs" textLength="138" x="401" y="31.5352">org.rcdukes.objects</text><!--class org.rcdukes.objects.lane.LaneRightBoundary--><a href="LaneRightBoundary.html" target="_top" xlink:actuate="onRequest" xlink:show="new" xlink:title="LaneRightBoundary.html" xlink:type="simple"><rect fill="#FEFECE" filter="url(#f1e4hpg0vebjvo)" height="112.7754" id="org.rcdukes.objects.lane.LaneRightBoundary" style="stroke: #A80036; stroke-width: 1.5;" width="272" x="654" y="151"/><ellipse cx="730.75" cy="167" fill="#ADD1B2" rx="11" ry="11" style="stroke: #A80036; stroke-width: 1.0;"/><path d="M733.7231,172.6431 Q733.1421,172.9419 732.5029,173.0913 Q731.8638,173.2407 731.1582,173.2407 Q728.6514,173.2407 727.3315,171.5889 Q726.0117,169.937 726.0117,166.8159 Q726.0117,163.6865 727.3315,162.0347 Q728.6514,160.3828 731.1582,160.3828 Q731.8638,160.3828 732.5112,160.5322 Q733.1587,160.6816 733.7231,160.9805 L733.7231,163.7031 Q733.0923,163.1221 732.4988,162.8523 Q731.9053,162.5825 731.2744,162.5825 Q729.9297,162.5825 729.2449,163.6492 Q728.5601,164.7158 728.5601,166.8159 Q728.5601,168.9077 729.2449,169.9744 Q729.9297,171.041 731.2744,171.041 Q731.9053,171.041 732.4988,170.7712 Q733.0923,170.5015 733.7231,169.9204 Z "/><text fill="#000000" font-family="sans-serif" font-size="12" lengthAdjust="spacingAndGlyphs" textLength="110" x="751.25" y="171.5352">LaneRightBoundary</text><line style="stroke: #A80036; stroke-width: 1.5;" x1="655" x2="925" y1="183" y2="183"/><ellipse cx="665" cy="194.9775" fill="none" rx="3" ry="3" style="stroke: #038048; stroke-width: 1.0;"/><text fill="#000000" font-family="sans-serif" font-size="11" lengthAdjust="spacingAndGlyphs" text-decoration="underline" textLength="134" x="674" y="197.6348">DEFAULT_ANGLE: double</text><ellipse cx="665" cy="207.9326" fill="none" rx="3" ry="3" style="stroke: #038048; stroke-width: 1.0;"/><text fill="#000000" font-family="sans-serif" font-size="11" lengthAdjust="spacingAndGlyphs" text-decoration="underline" textLength="163" x="674" y="210.5898">DEFAULT_TOLERANCE: double</text><line style="stroke: #A80036; stroke-width: 1.5;" x1="655" x2="925" y1="216.9102" y2="216.9102"/><ellipse cx="665" cy="228.8877" fill="#84BE84" rx="3" ry="3" style="stroke: #038048; stroke-width: 1.0;"/><text fill="#000000" font-family="sans-serif" font-size="11" lengthAdjust="spacingAndGlyphs" textLength="112" x="674" y="231.5449">LaneRightBoundary()</text><ellipse cx="665" cy="241.8428" fill="#84BE84" rx="3" ry="3" style="stroke: #038048; stroke-width: 1.0;"/><text fill="#000000" font-family="sans-serif" font-size="11" lengthAdjust="spacingAndGlyphs" textLength="241" x="674" y="244.5">LaneRightBoundary(double, double, boolean)</text><ellipse cx="665" cy="254.7979" fill="#84BE84" rx="3" ry="3" style="stroke: #038048; stroke-width: 1.0;"/><text fill="#000000" font-family="sans-serif" font-size="11" lengthAdjust="spacingAndGlyphs" textLength="246" x="674" y="257.4551">boundary(Collection&lt;Line&gt;): Optional&lt;Line&gt;</text></a><!--class org.rcdukes.objects.lane.BoundaryDefaults--><a href="BoundaryDefaults.html" target="_top" xlink:actuate="onRequest" xlink:show="new" xlink:title="BoundaryDefaults.html" xlink:type="simple"><rect fill="#FEFECE" filter="url(#f1e4hpg0vebjvo)" height="73.9102" id="org.rcdukes.objects.lane.BoundaryDefaults" style="stroke: #A80036; stroke-width: 1.5;" width="290" x="329" y="170.5"/><ellipse cx="419.25" cy="186.5" fill="#ADD1B2" rx="11" ry="11" style="stroke: #A80036; stroke-width: 1.0;"/><path d="M422.2231,192.1431 Q421.6421,192.4419 421.0029,192.5913 Q420.3638,192.7407 419.6582,192.7407 Q417.1514,192.7407 415.8315,191.0889 Q414.5117,189.437 414.5117,186.3159 Q414.5117,183.1865 415.8315,181.5347 Q417.1514,179.8828 419.6582,179.8828 Q420.3638,179.8828 421.0112,180.0322 Q421.6587,180.1816 422.2231,180.4805 L422.2231,183.2031 Q421.5923,182.6221 420.9988,182.3523 Q420.4053,182.0825 419.7744,182.0825 Q418.4297,182.0825 417.7449,183.1492 Q417.0601,184.2158 417.0601,186.3159 Q417.0601,188.4077 417.7449,189.4744 Q418.4297,190.541 419.7744,190.541 Q420.4053,190.541 420.9988,190.2712 Q421.5923,190.0015 422.2231,189.4204 Z "/><text fill="#000000" font-family="sans-serif" font-size="12" lengthAdjust="spacingAndGlyphs" textLength="101" x="439.75" y="191.0352">BoundaryDefaults</text><line style="stroke: #A80036; stroke-width: 1.5;" x1="330" x2="618" y1="202.5" y2="202.5"/><ellipse cx="340" cy="214.4775" fill="none" rx="3" ry="3" style="stroke: #038048; stroke-width: 1.0;"/><text fill="#000000" font-family="sans-serif" font-size="11" lengthAdjust="spacingAndGlyphs" text-decoration="underline" textLength="235" x="349" y="217.1348">DEFAULT_LANE_BOUNDARY_ANGLE: double</text><ellipse cx="340" cy="227.4326" fill="none" rx="3" ry="3" style="stroke: #038048; stroke-width: 1.0;"/><text fill="#000000" font-family="sans-serif" font-size="11" lengthAdjust="spacingAndGlyphs" text-decoration="underline" textLength="264" x="349" y="230.0898">DEFAULT_LANE_BOUNDARY_TOLERANCE: double</text><line style="stroke: #A80036; stroke-width: 1.5;" x1="330" x2="618" y1="236.4102" y2="236.4102"/></a><!--class org.rcdukes.objects.lane.LaneLeftBoundary--><a href="LaneLeftBoundary.html" target="_top" xlink:actuate="onRequest" xlink:show="new" xlink:title="LaneLeftBoundary.html" xlink:type="simple"><rect fill="#FEFECE" filter="url(#f1e4hpg0vebjvo)" height="112.7754" id="org.rcdukes.objects.lane.LaneLeftBoundary" style="stroke: #A80036; stroke-width: 1.5;" width="272" x="22" y="151"/><ellipse cx="102.75" cy="167" fill="#ADD1B2" rx="11" ry="11" style="stroke: #A80036; stroke-width: 1.0;"/><path d="M105.7231,172.6431 Q105.1421,172.9419 104.5029,173.0913 Q103.8638,173.2407 103.1582,173.2407 Q100.6514,173.2407 99.3315,171.5889 Q98.0117,169.937 98.0117,166.8159 Q98.0117,163.6865 99.3315,162.0347 Q100.6514,160.3828 103.1582,160.3828 Q103.8638,160.3828 104.5112,160.5322 Q105.1587,160.6816 105.7231,160.9805 L105.7231,163.7031 Q105.0923,163.1221 104.4988,162.8523 Q103.9053,162.5825 103.2744,162.5825 Q101.9297,162.5825 101.2449,163.6492 Q100.5601,164.7158 100.5601,166.8159 Q100.5601,168.9077 101.2449,169.9744 Q101.9297,171.041 103.2744,171.041 Q103.9053,171.041 104.4988,170.7712 Q105.0923,170.5015 105.7231,169.9204 Z "/><text fill="#000000" font-family="sans-serif" font-size="12" lengthAdjust="spacingAndGlyphs" textLength="102" x="123.25" y="171.5352">LaneLeftBoundary</text><line style="stroke: #A80036; stroke-width: 1.5;" x1="23" x2="293" y1="183" y2="183"/><ellipse cx="33" cy="194.9775" fill="none" rx="3" ry="3" style="stroke: #038048; stroke-width: 1.0;"/><text fill="#000000" font-family="sans-serif" font-size="11" lengthAdjust="spacingAndGlyphs" text-decoration="underline" textLength="134" x="42" y="197.6348">DEFAULT_ANGLE: double</text><ellipse cx="33" cy="207.9326" fill="none" rx="3" ry="3" style="stroke: #038048; stroke-width: 1.0;"/><text fill="#000000" font-family="sans-serif" font-size="11" lengthAdjust="spacingAndGlyphs" text-decoration="underline" textLength="163" x="42" y="210.5898">DEFAULT_TOLERANCE: double</text><line style="stroke: #A80036; stroke-width: 1.5;" x1="23" x2="293" y1="216.9102" y2="216.9102"/><ellipse cx="33" cy="228.8877" fill="#84BE84" rx="3" ry="3" style="stroke: #038048; stroke-width: 1.0;"/><text fill="#000000" font-family="sans-serif" font-size="11" lengthAdjust="spacingAndGlyphs" textLength="104" x="42" y="231.5449">LaneLeftBoundary()</text><ellipse cx="33" cy="241.8428" fill="#84BE84" rx="3" ry="3" style="stroke: #038048; stroke-width: 1.0;"/><text fill="#000000" font-family="sans-serif" font-size="11" lengthAdjust="spacingAndGlyphs" textLength="233" x="42" y="244.5">LaneLeftBoundary(double, double, boolean)</text><ellipse cx="33" cy="254.7979" fill="#84BE84" rx="3" ry="3" style="stroke: #038048; stroke-width: 1.0;"/><text fill="#000000" font-family="sans-serif" font-size="11" lengthAdjust="spacingAndGlyphs" textLength="246" x="42" y="257.4551">boundary(Collection&lt;Line&gt;): Optional&lt;Line&gt;</text></a><!--class org.rcdukes.objects.Boundary--><rect fill="#FEFECE" filter="url(#f1e4hpg0vebjvo)" height="48" id="org.rcdukes.objects.Boundary" style="stroke: #A80036; stroke-width: 1.5;" width="86" x="431" y="43"/><ellipse cx="446" cy="59" fill="#ADD1B2" rx="11" ry="11" style="stroke: #A80036; stroke-width: 1.0;"/><path d="M448.9731,64.6431 Q448.3921,64.9419 447.7529,65.0913 Q447.1138,65.2407 446.4082,65.2407 Q443.9014,65.2407 442.5815,63.5889 Q441.2617,61.937 441.2617,58.8159 Q441.2617,55.6865 442.5815,54.0347 Q443.9014,52.3828 446.4082,52.3828 Q447.1138,52.3828 447.7612,52.5322 Q448.4087,52.6816 448.9731,52.9805 L448.9731,55.7031 Q448.3423,55.1221 447.7488,54.8523 Q447.1553,54.5825 446.5244,54.5825 Q445.1797,54.5825 444.4949,55.6492 Q443.8101,56.7158 443.8101,58.8159 Q443.8101,60.9077 444.4949,61.9744 Q445.1797,63.041 446.5244,63.041 Q447.1553,63.041 447.7488,62.7712 Q448.3423,62.5015 448.9731,61.9204 Z "/><text fill="#000000" font-family="sans-serif" font-size="12" lengthAdjust="spacingAndGlyphs" textLength="54" x="460" y="63.5352">Boundary</text><line style="stroke: #A80036; stroke-width: 1.5;" x1="432" x2="516" y1="75" y2="75"/><line style="stroke: #A80036; stroke-width: 1.5;" x1="432" x2="516" y1="83" y2="83"/><!--link org.rcdukes.objects.Boundary to org.rcdukes.objects.lane.LaneRightBoundary--><path d="M536.4307,86.1777 C567.1759,96.2881 604.5237,109.5753 637,124 C655.1144,132.0457 673.9753,141.4406 692.0149,150.9674 " fill="none" id="org.rcdukes.objects.Boundary-org.rcdukes.objects.lane.LaneRightBoundary" style="stroke: #A80036; stroke-width: 1.0;"/><polygon fill="none" points="534.1868,92.8092,517.2976,80.0124,538.4807,79.4839,534.1868,92.8092" style="stroke: #A80036; stroke-width: 1.0;"/><!--link org.rcdukes.objects.Boundary to org.rcdukes.objects.lane.LaneLeftBoundary--><path d="M411.5393,86.4022 C381.0719,96.5134 344.1508,109.7355 312,124 C293.93,132.0172 275.1081,141.3463 257.081,150.8042 " fill="none" id="org.rcdukes.objects.Boundary-org.rcdukes.objects.lane.LaneLeftBoundary" style="stroke: #A80036; stroke-width: 1.0;"/><polygon fill="none" points="409.8027,79.6061,430.9871,80.0762,414.1333,92.9195,409.8027,79.6061" style="stroke: #A80036; stroke-width: 1.0;"/><text fill="#888888" font-family="sans-serif" font-size="10" lengthAdjust="spacingAndGlyphs" textLength="182" x="389" y="299.668">UMLDoclet 1.1.4, PlantUML 1.2019.05</text><!--
@startuml

    namespace org.rcdukes.objects.lane {

        class LaneRightBoundary [[LaneRightBoundary.html]] {
            {static} +DEFAULT_ANGLE: double
            {static} +DEFAULT_TOLERANCE: double
            +LaneRightBoundary()
            +LaneRightBoundary(double, double, boolean)
            +boundary(Collection<Line>): Optional<Line>
        }

        class BoundaryDefaults [[BoundaryDefaults.html]] {
            {static} +DEFAULT_LANE_BOUNDARY_ANGLE: double
            {static} +DEFAULT_LANE_BOUNDARY_TOLERANCE: double
        }

        class LaneLeftBoundary [[LaneLeftBoundary.html]] {
            {static} +DEFAULT_ANGLE: double
            {static} +DEFAULT_TOLERANCE: double
            +LaneLeftBoundary()
            +LaneLeftBoundary(double, double, boolean)
            +boundary(Collection<Line>): Optional<Line>
        }

        class org.rcdukes.objects.Boundary
        org.rcdukes.objects.Boundary <|- - LaneRightBoundary

        org.rcdukes.objects.Boundary <|- - LaneLeftBoundary

    }


    center footer UMLDoclet 1.1.4, PlantUML 1.2019.05
@enduml

PlantUML version 1.2019.05(Sat Apr 20 18:45:36 CEST 2019)
(APACHE source distribution)
Java Runtime: Java(TM) SE Runtime Environment
JVM: Java HotSpot(TM) 64-Bit Server VM
Java Version: 1.8.0_152-b16
Operating System: Mac OS X
OS Version: 10.13.6
Default Encoding: UTF-8
Language: de
Country: DE
--></g></svg>