<?xml version="1.0" encoding="UTF-8" standalone="no"?><svg xmlns="http://www.w3.org/2000/svg" xmlns:xlink="http://www.w3.org/1999/xlink" contentScriptType="application/ecmascript" contentStyleType="text/css" height="102px" preserveAspectRatio="none" style="width:194px;height:102px;" version="1.1" viewBox="0 0 194 102" width="194px" zoomAndPan="magnify"><defs><filter height="300%" id="fprs9rl4kygel" width="300%" x="-1" y="-1"><feGaussianBlur result="blurOut" stdDeviation="2.0"/><feColorMatrix in="blurOut" result="blurOut2" type="matrix" values="0 0 0 0 0 0 0 0 0 0 0 0 0 0 0 0 0 0 .4 0"/><feOffset dx="4.0" dy="4.0" in="blurOut2" result="blurOut3"/><feBlend in="SourceGraphic" in2="blurOut3" mode="normal"/></filter></defs><g><!--class RightField--><a href="RightField.html" target="_top" xlink:actuate="onRequest" xlink:show="new" xlink:title="RightField.html" xlink:type="simple"><rect fill="#FEFECE" filter="url(#fprs9rl4kygel)" height="60.9551" id="RightField" style="stroke: #A80036; stroke-width: 1.5;" width="124" x="23" y="8"/><ellipse cx="54.2" cy="24" fill="#ADD1B2" rx="11" ry="11" style="stroke: #A80036; stroke-width: 1.0;"/><path d="M57.1731,29.6431 Q56.5921,29.9419 55.9529,30.0913 Q55.3138,30.2407 54.6082,30.2407 Q52.1014,30.2407 50.7815,28.5889 Q49.4617,26.937 49.4617,23.8159 Q49.4617,20.6865 50.7815,19.0347 Q52.1014,17.3828 54.6082,17.3828 Q55.3138,17.3828 55.9612,17.5322 Q56.6087,17.6816 57.1731,17.9805 L57.1731,20.7031 Q56.5423,20.1221 55.9488,19.8523 Q55.3553,19.5825 54.7244,19.5825 Q53.3797,19.5825 52.6949,20.6492 Q52.0101,21.7158 52.0101,23.8159 Q52.0101,25.9077 52.6949,26.9744 Q53.3797,28.041 54.7244,28.041 Q55.3553,28.041 55.9488,27.7712 Q56.5423,27.5015 57.1731,26.9204 Z "/><text fill="#000000" font-family="sans-serif" font-size="12" lengthAdjust="spacingAndGlyphs" textLength="56" x="71.8" y="28.5352">RightField</text><line style="stroke: #A80036; stroke-width: 1.5;" x1="24" x2="146" y1="40" y2="40"/><line style="stroke: #A80036; stroke-width: 1.5;" x1="24" x2="146" y1="48" y2="48"/><ellipse cx="34" cy="59.9775" fill="#84BE84" rx="3" ry="3" style="stroke: #038048; stroke-width: 1.0;"/><text fill="#000000" font-family="sans-serif" font-size="11" lengthAdjust="spacingAndGlyphs" textLength="98" x="43" y="62.6348">RightField(double)</text></a><text fill="#888888" font-family="sans-serif" font-size="10" lengthAdjust="spacingAndGlyphs" textLength="182" x="0" y="88.668">UMLDoclet 1.1.4, PlantUML 1.2019.05</text><!--
@startuml

    class RightField [[RightField.html]] {
        +RightField(double)
    }


    center footer UMLDoclet 1.1.4, PlantUML 1.2019.05
@enduml

PlantUML version 1.2019.05(Sat Apr 20 18:45:36 CEST 2019)
(APACHE source distribution)
Java Runtime: Java(TM) SE Runtime Environment
JVM: Java HotSpot(TM) 64-Bit Server VM
Java Version: 1.8.0_191-b12
Operating System: Mac OS X
OS Version: 10.13.6
Default Encoding: UTF-8
Language: de
Country: DE
--></g></svg>