<?xml version="1.0" encoding="UTF-8" standalone="no"?><svg xmlns="http://www.w3.org/2000/svg" xmlns:xlink="http://www.w3.org/1999/xlink" contentScriptType="application/ecmascript" contentStyleType="text/css" height="274px" preserveAspectRatio="none" style="width:633px;height:274px;" version="1.1" viewBox="0 0 633 274" width="633px" zoomAndPan="magnify"><defs><filter height="300%" id="ft6k20wsfi04i" width="300%" x="-1" y="-1"><feGaussianBlur result="blurOut" stdDeviation="2.0"/><feColorMatrix in="blurOut" result="blurOut2" type="matrix" values="0 0 0 0 0 0 0 0 0 0 0 0 0 0 0 0 0 0 .4 0"/><feOffset dx="4.0" dy="4.0" in="blurOut2" result="blurOut3"/><feBlend in="SourceGraphic" in2="blurOut3" mode="normal"/></filter></defs><g><!--cluster nl.vaneijndhoven.dukes.luke.drag--><polygon fill="#FFFFFF" filter="url(#ft6k20wsfi04i)" points="14,16,256,16,263,38.4883,611,38.4883,611,233,14,233,14,16" style="stroke: #000000; stroke-width: 1.5;"/><line style="stroke: #000000; stroke-width: 1.5;" x1="14" x2="263" y1="38.4883" y2="38.4883"/><text fill="#000000" font-family="sans-serif" font-size="14" font-weight="bold" lengthAdjust="spacingAndGlyphs" textLength="236" x="18" y="31.5352">nl.vaneijndhoven.dukes.luke.drag</text><!--class nl.vaneijndhoven.dukes.luke.drag.StoppingZoneDetector--><a href="StoppingZoneDetector.html" target="_top" xlink:actuate="onRequest" xlink:show="new" xlink:title="StoppingZoneDetector.html" xlink:type="simple"><rect fill="#FEFECE" filter="url(#ft6k20wsfi04i)" height="60.9551" id="nl.vaneijndhoven.dukes.luke.drag.StoppingZoneDetector" style="stroke: #A80036; stroke-width: 1.5;" width="268" x="22" y="43"/><ellipse cx="88.25" cy="59" fill="#ADD1B2" rx="11" ry="11" style="stroke: #A80036; stroke-width: 1.0;"/><path d="M91.2231,64.6431 Q90.6421,64.9419 90.0029,65.0913 Q89.3638,65.2407 88.6582,65.2407 Q86.1514,65.2407 84.8315,63.5889 Q83.5117,61.937 83.5117,58.8159 Q83.5117,55.6865 84.8315,54.0347 Q86.1514,52.3828 88.6582,52.3828 Q89.3638,52.3828 90.0112,52.5322 Q90.6587,52.6816 91.2231,52.9805 L91.2231,55.7031 Q90.5923,55.1221 89.9988,54.8523 Q89.4053,54.5825 88.7744,54.5825 Q87.4297,54.5825 86.7449,55.6492 Q86.0601,56.7158 86.0601,58.8159 Q86.0601,60.9077 86.7449,61.9744 Q87.4297,63.041 88.7744,63.041 Q89.4053,63.041 89.9988,62.7712 Q90.5923,62.5015 91.2231,61.9204 Z "/><text fill="#000000" font-family="sans-serif" font-size="12" lengthAdjust="spacingAndGlyphs" textLength="127" x="108.75" y="63.5352">StoppingZoneDetector</text><line style="stroke: #A80036; stroke-width: 1.5;" x1="23" x2="289" y1="75" y2="75"/><line style="stroke: #A80036; stroke-width: 1.5;" x1="23" x2="289" y1="83" y2="83"/><ellipse cx="33" cy="94.9775" fill="#84BE84" rx="3" ry="3" style="stroke: #038048; stroke-width: 1.0;"/><text fill="#000000" font-family="sans-serif" font-size="11" lengthAdjust="spacingAndGlyphs" textLength="242" x="42" y="97.6348">detect(JsonObject): Observable&lt;JsonObject&gt;</text></a><!--class nl.vaneijndhoven.dukes.luke.drag.StartLightObserver--><a href="StartLightObserver.html" target="_top" xlink:actuate="onRequest" xlink:show="new" xlink:title="StartLightObserver.html" xlink:type="simple"><rect fill="#FEFECE" filter="url(#ft6k20wsfi04i)" height="60.9551" id="nl.vaneijndhoven.dukes.luke.drag.StartLightObserver" style="stroke: #A80036; stroke-width: 1.5;" width="278" x="325" y="43"/><ellipse cx="406.75" cy="59" fill="#ADD1B2" rx="11" ry="11" style="stroke: #A80036; stroke-width: 1.0;"/><path d="M409.7231,64.6431 Q409.1421,64.9419 408.5029,65.0913 Q407.8638,65.2407 407.1582,65.2407 Q404.6514,65.2407 403.3315,63.5889 Q402.0117,61.937 402.0117,58.8159 Q402.0117,55.6865 403.3315,54.0347 Q404.6514,52.3828 407.1582,52.3828 Q407.8638,52.3828 408.5112,52.5322 Q409.1587,52.6816 409.7231,52.9805 L409.7231,55.7031 Q409.0923,55.1221 408.4988,54.8523 Q407.9053,54.5825 407.2744,54.5825 Q405.9297,54.5825 405.2449,55.6492 Q404.5601,56.7158 404.5601,58.8159 Q404.5601,60.9077 405.2449,61.9744 Q405.9297,63.041 407.2744,63.041 Q407.9053,63.041 408.4988,62.7712 Q409.0923,62.5015 409.7231,61.9204 Z "/><text fill="#000000" font-family="sans-serif" font-size="12" lengthAdjust="spacingAndGlyphs" textLength="106" x="427.25" y="63.5352">StartLightObserver</text><line style="stroke: #A80036; stroke-width: 1.5;" x1="326" x2="602" y1="75" y2="75"/><line style="stroke: #A80036; stroke-width: 1.5;" x1="326" x2="602" y1="83" y2="83"/><ellipse cx="336" cy="94.9775" fill="#84BE84" rx="3" ry="3" style="stroke: #038048; stroke-width: 1.0;"/><text fill="#000000" font-family="sans-serif" font-size="11" lengthAdjust="spacingAndGlyphs" textLength="252" x="345" y="97.6348">observe(JsonObject): Observable&lt;JsonObject&gt;</text></a><!--class nl.vaneijndhoven.dukes.luke.drag.StraightLaneNavigator--><a href="StraightLaneNavigator.html" target="_top" xlink:actuate="onRequest" xlink:show="new" xlink:title="StraightLaneNavigator.html" xlink:type="simple"><rect fill="#FEFECE" filter="url(#ft6k20wsfi04i)" height="60.9551" id="nl.vaneijndhoven.dukes.luke.drag.StraightLaneNavigator" style="stroke: #A80036; stroke-width: 1.5;" width="280" x="22" y="164"/><ellipse cx="95.25" cy="180" fill="#ADD1B2" rx="11" ry="11" style="stroke: #A80036; stroke-width: 1.0;"/><path d="M98.2231,185.6431 Q97.6421,185.9419 97.0029,186.0913 Q96.3638,186.2407 95.6582,186.2407 Q93.1514,186.2407 91.8315,184.5889 Q90.5117,182.937 90.5117,179.8159 Q90.5117,176.6865 91.8315,175.0347 Q93.1514,173.3828 95.6582,173.3828 Q96.3638,173.3828 97.0112,173.5322 Q97.6587,173.6816 98.2231,173.9805 L98.2231,176.7031 Q97.5923,176.1221 96.9988,175.8523 Q96.4053,175.5825 95.7744,175.5825 Q94.4297,175.5825 93.7449,176.6492 Q93.0601,177.7158 93.0601,179.8159 Q93.0601,181.9077 93.7449,182.9744 Q94.4297,184.041 95.7744,184.041 Q96.4053,184.041 96.9988,183.7712 Q97.5923,183.5015 98.2231,182.9204 Z "/><text fill="#000000" font-family="sans-serif" font-size="12" lengthAdjust="spacingAndGlyphs" textLength="125" x="115.75" y="184.5352">StraightLaneNavigator</text><line style="stroke: #A80036; stroke-width: 1.5;" x1="23" x2="301" y1="196" y2="196"/><line style="stroke: #A80036; stroke-width: 1.5;" x1="23" x2="301" y1="204" y2="204"/><ellipse cx="33" cy="215.9775" fill="#84BE84" rx="3" ry="3" style="stroke: #038048; stroke-width: 1.0;"/><text fill="#000000" font-family="sans-serif" font-size="11" lengthAdjust="spacingAndGlyphs" textLength="254" x="42" y="218.6348">navigate(JsonObject): Observable&lt;JsonObject&gt;</text></a><!--link nl.vaneijndhoven.dukes.luke.drag.StoppingZoneDetector to nl.vaneijndhoven.dukes.luke.drag.StartLightObserver--><!--link nl.vaneijndhoven.dukes.luke.drag.StoppingZoneDetector to nl.vaneijndhoven.dukes.luke.drag.StraightLaneNavigator--><text fill="#888888" font-family="sans-serif" font-size="10" lengthAdjust="spacingAndGlyphs" textLength="182" x="227.5" y="260.668">UMLDoclet 1.1.4, PlantUML 1.2019.05</text><!--
@startuml

    namespace nl.vaneijndhoven.dukes.luke.drag {

        class StoppingZoneDetector [[StoppingZoneDetector.html]] {
            +detect(JsonObject): Observable<JsonObject>
        }

        class StartLightObserver [[StartLightObserver.html]] {
            +observe(JsonObject): Observable<JsonObject>
        }

        class StraightLaneNavigator [[StraightLaneNavigator.html]] {
            +navigate(JsonObject): Observable<JsonObject>
        }

    }


    center footer UMLDoclet 1.1.4, PlantUML 1.2019.05
@enduml

PlantUML version 1.2019.05(Sat Apr 20 18:45:36 CEST 2019)
(APACHE source distribution)
Java Runtime: Java(TM) SE Runtime Environment
JVM: Java HotSpot(TM) 64-Bit Server VM
Java Version: 1.8.0_152-b16
Operating System: Mac OS X
OS Version: 10.13.6
Default Encoding: UTF-8
Language: de
Country: DE
--></g></svg>