<?xml version="1.0" encoding="UTF-8" standalone="no"?><svg xmlns="http://www.w3.org/2000/svg" xmlns:xlink="http://www.w3.org/1999/xlink" contentScriptType="application/ecmascript" contentStyleType="text/css" height="399px" preserveAspectRatio="none" style="width:479px;height:399px;" version="1.1" viewBox="0 0 479 399" width="479px" zoomAndPan="magnify"><defs><filter height="300%" id="f1fxgdjf8rqxff" width="300%" x="-1" y="-1"><feGaussianBlur result="blurOut" stdDeviation="2.0"/><feColorMatrix in="blurOut" result="blurOut2" type="matrix" values="0 0 0 0 0 0 0 0 0 0 0 0 0 0 0 0 0 0 .4 0"/><feOffset dx="4.0" dy="4.0" in="blurOut2" result="blurOut3"/><feBlend in="SourceGraphic" in2="blurOut3" mode="normal"/></filter></defs><g><!--cluster stormbots--><polygon fill="#FFFFFF" filter="url(#f1fxgdjf8rqxff)" points="14,16,95,16,102,38.4883,457,38.4883,457,358,14,358,14,16" style="stroke: #000000; stroke-width: 1.5;"/><line style="stroke: #000000; stroke-width: 1.5;" x1="14" x2="102" y1="38.4883" y2="38.4883"/><text fill="#000000" font-family="sans-serif" font-size="14" font-weight="bold" lengthAdjust="spacingAndGlyphs" textLength="75" x="18" y="31.5352">stormbots</text><!--class stormbots.MiniPID--><a href="MiniPID.html" target="_top" xlink:actuate="onRequest" xlink:show="new" xlink:title="MiniPID.html" xlink:type="simple"><rect fill="#FEFECE" filter="url(#f1fxgdjf8rqxff)" height="307.1016" id="stormbots.MiniPID" style="stroke: #A80036; stroke-width: 1.5;" width="262" x="187" y="43"/><ellipse cx="292.75" cy="59" fill="#ADD1B2" rx="11" ry="11" style="stroke: #A80036; stroke-width: 1.0;"/><path d="M295.7231,64.6431 Q295.1421,64.9419 294.5029,65.0913 Q293.8638,65.2407 293.1582,65.2407 Q290.6514,65.2407 289.3315,63.5889 Q288.0117,61.937 288.0117,58.8159 Q288.0117,55.6865 289.3315,54.0347 Q290.6514,52.3828 293.1582,52.3828 Q293.8638,52.3828 294.5112,52.5322 Q295.1587,52.6816 295.7231,52.9805 L295.7231,55.7031 Q295.0923,55.1221 294.4988,54.8523 Q293.9053,54.5825 293.2744,54.5825 Q291.9297,54.5825 291.2449,55.6492 Q290.5601,56.7158 290.5601,58.8159 Q290.5601,60.9077 291.2449,61.9744 Q291.9297,63.041 293.2744,63.041 Q293.9053,63.041 294.4988,62.7712 Q295.0923,62.5015 295.7231,61.9204 Z "/><text fill="#000000" font-family="sans-serif" font-size="12" lengthAdjust="spacingAndGlyphs" textLength="42" x="313.25" y="63.5352">MiniPID</text><line style="stroke: #A80036; stroke-width: 1.5;" x1="188" x2="448" y1="75" y2="75"/><line style="stroke: #A80036; stroke-width: 1.5;" x1="188" x2="448" y1="83" y2="83"/><ellipse cx="198" cy="94.9775" fill="#84BE84" rx="3" ry="3" style="stroke: #038048; stroke-width: 1.0;"/><text fill="#000000" font-family="sans-serif" font-size="11" lengthAdjust="spacingAndGlyphs" textLength="170" x="207" y="97.6348">MiniPID(double, double, double)</text><ellipse cx="198" cy="107.9326" fill="#84BE84" rx="3" ry="3" style="stroke: #038048; stroke-width: 1.0;"/><text fill="#000000" font-family="sans-serif" font-size="11" lengthAdjust="spacingAndGlyphs" textLength="213" x="207" y="110.5898">MiniPID(double, double, double, double)</text><ellipse cx="198" cy="120.8877" fill="#84BE84" rx="3" ry="3" style="stroke: #038048; stroke-width: 1.0;"/><text fill="#000000" font-family="sans-serif" font-size="11" lengthAdjust="spacingAndGlyphs" textLength="96" x="207" y="123.5449">setP(double): void</text><ellipse cx="198" cy="133.8428" fill="#84BE84" rx="3" ry="3" style="stroke: #038048; stroke-width: 1.0;"/><text fill="#000000" font-family="sans-serif" font-size="11" lengthAdjust="spacingAndGlyphs" textLength="93" x="207" y="136.5">setI(double): void</text><ellipse cx="198" cy="146.7979" fill="#84BE84" rx="3" ry="3" style="stroke: #038048; stroke-width: 1.0;"/><text fill="#000000" font-family="sans-serif" font-size="11" lengthAdjust="spacingAndGlyphs" textLength="98" x="207" y="149.4551">setD(double): void</text><ellipse cx="198" cy="159.7529" fill="#84BE84" rx="3" ry="3" style="stroke: #038048; stroke-width: 1.0;"/><text fill="#000000" font-family="sans-serif" font-size="11" lengthAdjust="spacingAndGlyphs" textLength="96" x="207" y="162.4102">setF(double): void</text><ellipse cx="198" cy="172.708" fill="#84BE84" rx="3" ry="3" style="stroke: #038048; stroke-width: 1.0;"/><text fill="#000000" font-family="sans-serif" font-size="11" lengthAdjust="spacingAndGlyphs" textLength="193" x="207" y="175.3652">setPID(double, double, double): void</text><ellipse cx="198" cy="185.6631" fill="#84BE84" rx="3" ry="3" style="stroke: #038048; stroke-width: 1.0;"/><text fill="#000000" font-family="sans-serif" font-size="11" lengthAdjust="spacingAndGlyphs" textLength="236" x="207" y="188.3203">setPID(double, double, double, double): void</text><ellipse cx="198" cy="198.6182" fill="#84BE84" rx="3" ry="3" style="stroke: #038048; stroke-width: 1.0;"/><text fill="#000000" font-family="sans-serif" font-size="11" lengthAdjust="spacingAndGlyphs" textLength="153" x="207" y="201.2754">setMaxIOutput(double): void</text><ellipse cx="198" cy="211.5732" fill="#84BE84" rx="3" ry="3" style="stroke: #038048; stroke-width: 1.0;"/><text fill="#000000" font-family="sans-serif" font-size="11" lengthAdjust="spacingAndGlyphs" textLength="160" x="207" y="214.2305">setOutputLimits(double): void</text><ellipse cx="198" cy="224.5283" fill="#84BE84" rx="3" ry="3" style="stroke: #038048; stroke-width: 1.0;"/><text fill="#000000" font-family="sans-serif" font-size="11" lengthAdjust="spacingAndGlyphs" textLength="203" x="207" y="227.1855">setOutputLimits(double, double): void</text><ellipse cx="198" cy="237.4834" fill="#84BE84" rx="3" ry="3" style="stroke: #038048; stroke-width: 1.0;"/><text fill="#000000" font-family="sans-serif" font-size="11" lengthAdjust="spacingAndGlyphs" textLength="145" x="207" y="240.1406">setDirection(boolean): void</text><ellipse cx="198" cy="250.4385" fill="#84BE84" rx="3" ry="3" style="stroke: #038048; stroke-width: 1.0;"/><text fill="#000000" font-family="sans-serif" font-size="11" lengthAdjust="spacingAndGlyphs" textLength="134" x="207" y="253.0957">setSetpoint(double): void</text><ellipse cx="198" cy="263.3936" fill="#84BE84" rx="3" ry="3" style="stroke: #038048; stroke-width: 1.0;"/><text fill="#000000" font-family="sans-serif" font-size="11" lengthAdjust="spacingAndGlyphs" textLength="186" x="207" y="266.0508">getOutput(double, double): double</text><ellipse cx="198" cy="276.3486" fill="#84BE84" rx="3" ry="3" style="stroke: #038048; stroke-width: 1.0;"/><text fill="#000000" font-family="sans-serif" font-size="11" lengthAdjust="spacingAndGlyphs" textLength="106" x="207" y="279.0059">getOutput(): double</text><ellipse cx="198" cy="289.3037" fill="#84BE84" rx="3" ry="3" style="stroke: #038048; stroke-width: 1.0;"/><text fill="#000000" font-family="sans-serif" font-size="11" lengthAdjust="spacingAndGlyphs" textLength="143" x="207" y="291.9609">getOutput(double): double</text><ellipse cx="198" cy="302.2588" fill="#84BE84" rx="3" ry="3" style="stroke: #038048; stroke-width: 1.0;"/><text fill="#000000" font-family="sans-serif" font-size="11" lengthAdjust="spacingAndGlyphs" textLength="64" x="207" y="304.916">reset(): void</text><ellipse cx="198" cy="315.2139" fill="#84BE84" rx="3" ry="3" style="stroke: #038048; stroke-width: 1.0;"/><text fill="#000000" font-family="sans-serif" font-size="11" lengthAdjust="spacingAndGlyphs" textLength="181" x="207" y="317.8711">setOutputRampRate(double): void</text><ellipse cx="198" cy="328.1689" fill="#84BE84" rx="3" ry="3" style="stroke: #038048; stroke-width: 1.0;"/><text fill="#000000" font-family="sans-serif" font-size="11" lengthAdjust="spacingAndGlyphs" textLength="167" x="207" y="330.8262">setSetpointRange(double): void</text><ellipse cx="198" cy="341.124" fill="#84BE84" rx="3" ry="3" style="stroke: #038048; stroke-width: 1.0;"/><text fill="#000000" font-family="sans-serif" font-size="11" lengthAdjust="spacingAndGlyphs" textLength="155" x="207" y="343.7813">setOutputFilter(double): void</text></a><!--class stormbots.Main--><a href="Main.html" target="_top" xlink:actuate="onRequest" xlink:show="new" xlink:title="Main.html" xlink:type="simple"><rect fill="#FEFECE" filter="url(#f1fxgdjf8rqxff)" height="60.9551" id="stormbots.Main" style="stroke: #A80036; stroke-width: 1.5;" width="129" x="22.5" y="166"/><ellipse cx="69.25" cy="182" fill="#ADD1B2" rx="11" ry="11" style="stroke: #A80036; stroke-width: 1.0;"/><path d="M72.2231,187.6431 Q71.6421,187.9419 71.0029,188.0913 Q70.3638,188.2407 69.6582,188.2407 Q67.1514,188.2407 65.8315,186.5889 Q64.5117,184.937 64.5117,181.8159 Q64.5117,178.6865 65.8315,177.0347 Q67.1514,175.3828 69.6582,175.3828 Q70.3638,175.3828 71.0112,175.5322 Q71.6587,175.6816 72.2231,175.9805 L72.2231,178.7031 Q71.5923,178.1221 70.9988,177.8523 Q70.4053,177.5825 69.7744,177.5825 Q68.4297,177.5825 67.7449,178.6492 Q67.0601,179.7158 67.0601,181.8159 Q67.0601,183.9077 67.7449,184.9744 Q68.4297,186.041 69.7744,186.041 Q70.4053,186.041 70.9988,185.7712 Q71.5923,185.5015 72.2231,184.9204 Z "/><text fill="#000000" font-family="sans-serif" font-size="12" lengthAdjust="spacingAndGlyphs" textLength="27" x="89.75" y="186.5352">Main</text><line style="stroke: #A80036; stroke-width: 1.5;" x1="23.5" x2="150.5" y1="198" y2="198"/><line style="stroke: #A80036; stroke-width: 1.5;" x1="23.5" x2="150.5" y1="206" y2="206"/><ellipse cx="33.5" cy="217.9775" fill="#84BE84" rx="3" ry="3" style="stroke: #038048; stroke-width: 1.0;"/><text fill="#000000" font-family="sans-serif" font-size="11" lengthAdjust="spacingAndGlyphs" text-decoration="underline" textLength="103" x="42.5" y="220.6348">main(String[]): void</text></a><text fill="#888888" font-family="sans-serif" font-size="10" lengthAdjust="spacingAndGlyphs" textLength="182" x="150.5" y="385.668">UMLDoclet 1.1.4, PlantUML 1.2019.05</text><!--
@startuml

    namespace stormbots {

        class MiniPID [[MiniPID.html]] {
            +MiniPID(double, double, double)
            +MiniPID(double, double, double, double)
            +setP(double): void
            +setI(double): void
            +setD(double): void
            +setF(double): void
            +setPID(double, double, double): void
            +setPID(double, double, double, double): void
            +setMaxIOutput(double): void
            +setOutputLimits(double): void
            +setOutputLimits(double, double): void
            +setDirection(boolean): void
            +setSetpoint(double): void
            +getOutput(double, double): double
            +getOutput(): double
            +getOutput(double): double
            +reset(): void
            +setOutputRampRate(double): void
            +setSetpointRange(double): void
            +setOutputFilter(double): void
        }

        class Main [[Main.html]] {
            {static} +main(String[]): void
        }

    }


    center footer UMLDoclet 1.1.4, PlantUML 1.2019.05
@enduml

PlantUML version 1.2019.05(Sat Apr 20 18:45:36 CEST 2019)
(APACHE source distribution)
Java Runtime: Java(TM) SE Runtime Environment
JVM: Java HotSpot(TM) 64-Bit Server VM
Java Version: 1.8.0_191-b12
Operating System: Mac OS X
OS Version: 10.13.6
Default Encoding: UTF-8
Language: de
Country: DE
--></g></svg>