<?xml version="1.0" encoding="UTF-8" standalone="no"?><svg xmlns="http://www.w3.org/2000/svg" xmlns:xlink="http://www.w3.org/1999/xlink" contentScriptType="application/ecmascript" contentStyleType="text/css" height="128px" preserveAspectRatio="none" style="width:194px;height:128px;" version="1.1" viewBox="0 0 194 128" width="194px" zoomAndPan="magnify"><defs><filter height="300%" id="f1lhf6lct9eoz0" width="300%" x="-1" y="-1"><feGaussianBlur result="blurOut" stdDeviation="2.0"/><feColorMatrix in="blurOut" result="blurOut2" type="matrix" values="0 0 0 0 0 0 0 0 0 0 0 0 0 0 0 0 0 0 .4 0"/><feOffset dx="4.0" dy="4.0" in="blurOut2" result="blurOut3"/><feBlend in="SourceGraphic" in2="blurOut3" mode="normal"/></filter></defs><g><!--class Led--><a href="Led.html" target="_top" xlink:actuate="onRequest" xlink:show="new" xlink:title="Led.html" xlink:type="simple"><rect fill="#FEFECE" filter="url(#f1lhf6lct9eoz0)" height="86.8652" id="Led" style="stroke: #A80036; stroke-width: 1.5;" width="132" x="19" y="8"/><ellipse cx="70.25" cy="24" fill="#ADD1B2" rx="11" ry="11" style="stroke: #A80036; stroke-width: 1.0;"/><path d="M73.2231,29.6431 Q72.6421,29.9419 72.0029,30.0913 Q71.3638,30.2407 70.6582,30.2407 Q68.1514,30.2407 66.8315,28.5889 Q65.5117,26.937 65.5117,23.8159 Q65.5117,20.6865 66.8315,19.0347 Q68.1514,17.3828 70.6582,17.3828 Q71.3638,17.3828 72.0112,17.5322 Q72.6587,17.6816 73.2231,17.9805 L73.2231,20.7031 Q72.5923,20.1221 71.9988,19.8523 Q71.4053,19.5825 70.7744,19.5825 Q69.4297,19.5825 68.7449,20.6492 Q68.0601,21.7158 68.0601,23.8159 Q68.0601,25.9077 68.7449,26.9744 Q69.4297,28.041 70.7744,28.041 Q71.4053,28.041 71.9988,27.7712 Q72.5923,27.5015 73.2231,26.9204 Z "/><text fill="#000000" font-family="sans-serif" font-size="12" lengthAdjust="spacingAndGlyphs" textLength="21" x="90.75" y="28.5352">Led</text><line style="stroke: #A80036; stroke-width: 1.5;" x1="20" x2="150" y1="40" y2="40"/><line style="stroke: #A80036; stroke-width: 1.5;" x1="20" x2="150" y1="48" y2="48"/><ellipse cx="30" cy="59.9775" fill="#84BE84" rx="3" ry="3" style="stroke: #038048; stroke-width: 1.0;"/><text fill="#000000" font-family="sans-serif" font-size="11" lengthAdjust="spacingAndGlyphs" textLength="68" x="39" y="62.6348">Led(LedMap)</text><ellipse cx="30" cy="72.9326" fill="#84BE84" rx="3" ry="3" style="stroke: #038048; stroke-width: 1.0;"/><text fill="#000000" font-family="sans-serif" font-size="11" lengthAdjust="spacingAndGlyphs" textLength="105" x="39" y="75.5898">statusLedOn(): void</text><ellipse cx="30" cy="85.8877" fill="#84BE84" rx="3" ry="3" style="stroke: #038048; stroke-width: 1.0;"/><text fill="#000000" font-family="sans-serif" font-size="11" lengthAdjust="spacingAndGlyphs" textLength="106" x="39" y="88.5449">statusLedOff(): void</text></a><text fill="#888888" font-family="sans-serif" font-size="10" lengthAdjust="spacingAndGlyphs" textLength="182" x="0" y="114.668">UMLDoclet 1.1.4, PlantUML 1.2019.05</text><!--
@startuml

    class Led [[Led.html]] {
        +Led(LedMap)
        +statusLedOn(): void
        +statusLedOff(): void
    }


    center footer UMLDoclet 1.1.4, PlantUML 1.2019.05
@enduml

PlantUML version 1.2019.05(Sat Apr 20 18:45:36 CEST 2019)
(APACHE source distribution)
Java Runtime: Java(TM) SE Runtime Environment
JVM: Java HotSpot(TM) 64-Bit Server VM
Java Version: 1.8.0_152-b16
Operating System: Mac OS X
OS Version: 10.13.6
Default Encoding: UTF-8
Language: de
Country: DE
--></g></svg>