<?xml version="1.0" encoding="UTF-8" standalone="no"?><svg xmlns="http://www.w3.org/2000/svg" xmlns:xlink="http://www.w3.org/1999/xlink" contentScriptType="application/ecmascript" contentStyleType="text/css" height="1513px" preserveAspectRatio="none" style="width:1569px;height:1513px;" version="1.1" viewBox="0 0 1569 1513" width="1569px" zoomAndPan="magnify"><defs><filter height="300%" id="f1aau4bmdb7juo" width="300%" x="-1" y="-1"><feGaussianBlur result="blurOut" stdDeviation="2.0"/><feColorMatrix in="blurOut" result="blurOut2" type="matrix" values="0 0 0 0 0 0 0 0 0 0 0 0 0 0 0 0 0 0 .4 0"/><feOffset dx="4.0" dy="4.0" in="blurOut2" result="blurOut3"/><feBlend in="SourceGraphic" in2="blurOut3" mode="normal"/></filter></defs><g><!--cluster org.rcdukes.car--><polygon fill="#FFFFFF" filter="url(#f1aau4bmdb7juo)" points="14,16,127,16,134,38.4883,1547,38.4883,1547,1472,14,1472,14,16" style="stroke: #000000; stroke-width: 1.5;"/><line style="stroke: #000000; stroke-width: 1.5;" x1="14" x2="134" y1="38.4883" y2="38.4883"/><text fill="#000000" font-family="sans-serif" font-size="14" font-weight="bold" lengthAdjust="spacingAndGlyphs" textLength="107" x="18" y="31.5352">org.rcdukes.car</text><!--class org.rcdukes.car.LedMap--><a href="LedMap.html" target="_top" xlink:actuate="onRequest" xlink:show="new" xlink:title="LedMap.html" xlink:type="simple"><rect fill="#FEFECE" filter="url(#f1aau4bmdb7juo)" height="73.9102" id="org.rcdukes.car.LedMap" style="stroke: #A80036; stroke-width: 1.5;" width="87" x="719.5" y="625"/><ellipse cx="738.55" cy="641" fill="#B4A7E5" rx="11" ry="11" style="stroke: #A80036; stroke-width: 1.0;"/><path d="M734.4777,636.7651 L734.4777,634.6069 L741.8571,634.6069 L741.8571,636.7651 L739.3918,636.7651 L739.3918,644.8418 L741.8571,644.8418 L741.8571,647 L734.4777,647 L734.4777,644.8418 L736.9431,644.8418 L736.9431,636.7651 Z "/><text fill="#000000" font-family="sans-serif" font-size="12" font-style="italic" lengthAdjust="spacingAndGlyphs" textLength="46" x="753.45" y="645.5352">LedMap</text><line style="stroke: #A80036; stroke-width: 1.5;" x1="720.5" x2="805.5" y1="657" y2="657"/><line style="stroke: #A80036; stroke-width: 1.5;" x1="720.5" x2="805.5" y1="665" y2="665"/><ellipse cx="730.5" cy="676.9775" fill="#84BE84" rx="3" ry="3" style="stroke: #038048; stroke-width: 1.0;"/><text fill="#000000" font-family="sans-serif" font-size="11" font-style="italic" lengthAdjust="spacingAndGlyphs" textLength="61" x="739.5" y="679.6348">ledOff(): int</text><ellipse cx="730.5" cy="689.9326" fill="#84BE84" rx="3" ry="3" style="stroke: #038048; stroke-width: 1.0;"/><text fill="#000000" font-family="sans-serif" font-size="11" font-style="italic" lengthAdjust="spacingAndGlyphs" textLength="60" x="739.5" y="692.5898">ledOn(): int</text></a><!--class org.rcdukes.car.ServoMap--><a href="ServoMap.html" target="_top" xlink:actuate="onRequest" xlink:show="new" xlink:title="ServoMap.html" xlink:type="simple"><rect fill="#FEFECE" filter="url(#f1aau4bmdb7juo)" height="138.6855" id="org.rcdukes.car.ServoMap" style="stroke: #A80036; stroke-width: 1.5;" width="258" x="634" y="308"/><ellipse cx="730.75" cy="324" fill="#B4A7E5" rx="11" ry="11" style="stroke: #A80036; stroke-width: 1.0;"/><path d="M726.6777,319.7651 L726.6777,317.6069 L734.0571,317.6069 L734.0571,319.7651 L731.5918,319.7651 L731.5918,327.8418 L734.0571,327.8418 L734.0571,330 L726.6777,330 L726.6777,327.8418 L729.1431,327.8418 L729.1431,319.7651 Z "/><text fill="#000000" font-family="sans-serif" font-size="12" font-style="italic" lengthAdjust="spacingAndGlyphs" textLength="56" x="751.25" y="328.5352">ServoMap</text><line style="stroke: #A80036; stroke-width: 1.5;" x1="635" x2="891" y1="340" y2="340"/><line style="stroke: #A80036; stroke-width: 1.5;" x1="635" x2="891" y1="348" y2="348"/><ellipse cx="645" cy="359.9775" fill="#84BE84" rx="3" ry="3" style="stroke: #038048; stroke-width: 1.0;"/><text fill="#000000" font-family="sans-serif" font-size="11" font-style="italic" lengthAdjust="spacingAndGlyphs" textLength="68" x="654" y="362.6348">gpioPin(): int</text><ellipse cx="645" cy="372.9326" fill="#84BE84" rx="3" ry="3" style="stroke: #038048; stroke-width: 1.0;"/><text fill="#000000" font-family="sans-serif" font-size="11" font-style="italic" lengthAdjust="spacingAndGlyphs" textLength="184" x="654" y="375.5898">servoCommand(): ServoCommand</text><ellipse cx="645" cy="385.8877" fill="#84BE84" rx="3" ry="3" style="stroke: #038048; stroke-width: 1.0;"/><text fill="#000000" font-family="sans-serif" font-size="11" font-style="italic" lengthAdjust="spacingAndGlyphs" textLength="154" x="654" y="388.5449">turnedOrientation(): boolean</text><ellipse cx="645" cy="398.8428" fill="#84BE84" rx="3" ry="3" style="stroke: #038048; stroke-width: 1.0;"/><text fill="#000000" font-family="sans-serif" font-size="11" font-style="italic" lengthAdjust="spacingAndGlyphs" textLength="189" x="654" y="401.5">getCurrentPosition(): ServoPosition</text><ellipse cx="645" cy="411.7979" fill="#84BE84" rx="3" ry="3" style="stroke: #038048; stroke-width: 1.0;"/><text fill="#000000" font-family="sans-serif" font-size="11" font-style="italic" lengthAdjust="spacingAndGlyphs" textLength="224" x="654" y="414.4551">newPosition(ServoPosition): ServoPosition</text><ellipse cx="645" cy="424.7529" fill="#84BE84" rx="3" ry="3" style="stroke: #038048; stroke-width: 1.0;"/><text fill="#000000" font-family="sans-serif" font-size="11" font-style="italic" lengthAdjust="spacingAndGlyphs" textLength="232" x="654" y="427.4102">configure(int, ServoCommand, String): void</text><ellipse cx="645" cy="437.708" fill="#84BE84" rx="3" ry="3" style="stroke: #038048; stroke-width: 1.0;"/><text fill="#000000" font-family="sans-serif" font-size="11" font-style="italic" lengthAdjust="spacingAndGlyphs" textLength="150" x="654" y="440.3652">configureOrientation(): void</text></a><!--class org.rcdukes.car.Engine--><a href="Engine.html" target="_top" xlink:actuate="onRequest" xlink:show="new" xlink:title="Engine.html" xlink:type="simple"><rect fill="#FEFECE" filter="url(#f1aau4bmdb7juo)" height="112.7754" id="org.rcdukes.car.Engine" style="stroke: #A80036; stroke-width: 1.5;" width="184" x="927" y="321"/><ellipse cx="995.75" cy="337" fill="#ADD1B2" rx="11" ry="11" style="stroke: #A80036; stroke-width: 1.0;"/><path d="M998.7231,342.6431 Q998.1421,342.9419 997.5029,343.0913 Q996.8638,343.2407 996.1582,343.2407 Q993.6514,343.2407 992.3315,341.5889 Q991.0117,339.937 991.0117,336.8159 Q991.0117,333.6865 992.3315,332.0347 Q993.6514,330.3828 996.1582,330.3828 Q996.8638,330.3828 997.5112,330.5322 Q998.1587,330.6816 998.7231,330.9805 L998.7231,333.7031 Q998.0923,333.1221 997.4988,332.8523 Q996.9053,332.5825 996.2744,332.5825 Q994.9297,332.5825 994.2449,333.6492 Q993.5601,334.7158 993.5601,336.8159 Q993.5601,338.9077 994.2449,339.9744 Q994.9297,341.041 996.2744,341.041 Q996.9053,341.041 997.4988,340.7712 Q998.0923,340.5015 998.7231,339.9204 Z "/><text fill="#000000" font-family="sans-serif" font-size="12" lengthAdjust="spacingAndGlyphs" textLength="38" x="1016.25" y="341.5352">Engine</text><line style="stroke: #A80036; stroke-width: 1.5;" x1="928" x2="1110" y1="353" y2="353"/><line style="stroke: #A80036; stroke-width: 1.5;" x1="928" x2="1110" y1="361" y2="361"/><ellipse cx="938" cy="372.9775" fill="#84BE84" rx="3" ry="3" style="stroke: #038048; stroke-width: 1.0;"/><text fill="#000000" font-family="sans-serif" font-size="11" lengthAdjust="spacingAndGlyphs" textLength="154" x="947" y="375.6348">Engine(Car, ServoRangeMap)</text><ellipse cx="938" cy="385.9326" fill="#84BE84" rx="3" ry="3" style="stroke: #038048; stroke-width: 1.0;"/><text fill="#000000" font-family="sans-serif" font-size="11" lengthAdjust="spacingAndGlyphs" textLength="75" x="947" y="388.5898">neutral(): void</text><ellipse cx="938" cy="398.8877" fill="#84BE84" rx="3" ry="3" style="stroke: #038048; stroke-width: 1.0;"/><text fill="#000000" font-family="sans-serif" font-size="11" lengthAdjust="spacingAndGlyphs" textLength="114" x="947" y="401.5449">forceInNeutral(): void</text><ellipse cx="938" cy="411.8428" fill="#84BE84" rx="3" ry="3" style="stroke: #038048; stroke-width: 1.0;"/><text fill="#000000" font-family="sans-serif" font-size="11" lengthAdjust="spacingAndGlyphs" textLength="158" x="947" y="414.5">setSpeed(ServoPosition): void</text><ellipse cx="938" cy="424.7979" fill="#84BE84" rx="3" ry="3" style="stroke: #038048; stroke-width: 1.0;"/><text fill="#000000" font-family="sans-serif" font-size="11" lengthAdjust="spacingAndGlyphs" textLength="118" x="947" y="427.4551">neutral(boolean): void</text></a><!--class org.rcdukes.car.ServoBlaster--><a href="ServoBlaster.html" target="_top" xlink:actuate="onRequest" xlink:show="new" xlink:title="ServoBlaster.html" xlink:type="simple"><rect fill="#FEFECE" filter="url(#f1aau4bmdb7juo)" height="73.9102" id="org.rcdukes.car.ServoBlaster" style="stroke: #A80036; stroke-width: 1.5;" width="152" x="22" y="340.5"/><ellipse cx="59.5" cy="356.5" fill="#ADD1B2" rx="11" ry="11" style="stroke: #A80036; stroke-width: 1.0;"/><path d="M62.4731,362.1431 Q61.8921,362.4419 61.2529,362.5913 Q60.6138,362.7407 59.9082,362.7407 Q57.4014,362.7407 56.0815,361.0889 Q54.7617,359.437 54.7617,356.3159 Q54.7617,353.1865 56.0815,351.5347 Q57.4014,349.8828 59.9082,349.8828 Q60.6138,349.8828 61.2612,350.0322 Q61.9087,350.1816 62.4731,350.4805 L62.4731,353.2031 Q61.8423,352.6221 61.2488,352.3523 Q60.6553,352.0825 60.0244,352.0825 Q58.6797,352.0825 57.9949,353.1492 Q57.3101,354.2158 57.3101,356.3159 Q57.3101,358.4077 57.9949,359.4744 Q58.6797,360.541 60.0244,360.541 Q60.6553,360.541 61.2488,360.2712 Q61.8423,360.0015 62.4731,359.4204 Z "/><text fill="#000000" font-family="sans-serif" font-size="12" lengthAdjust="spacingAndGlyphs" textLength="70" x="78.5" y="361.0352">ServoBlaster</text><line style="stroke: #A80036; stroke-width: 1.5;" x1="23" x2="173" y1="372.5" y2="372.5"/><ellipse cx="33" cy="384.4775" fill="none" rx="3" ry="3" style="stroke: #038048; stroke-width: 1.0;"/><text fill="#000000" font-family="sans-serif" font-size="11" lengthAdjust="spacingAndGlyphs" text-decoration="underline" textLength="126" x="42" y="387.1348">WRITE_DIRECT: boolean</text><line style="stroke: #A80036; stroke-width: 1.5;" x1="23" x2="173" y1="393.4551" y2="393.4551"/><ellipse cx="33" cy="405.4326" fill="#84BE84" rx="3" ry="3" style="stroke: #038048; stroke-width: 1.0;"/><text fill="#000000" font-family="sans-serif" font-size="11" lengthAdjust="spacingAndGlyphs" textLength="117" x="42" y="408.0898">setServo(int, int): void</text></a><!--class org.rcdukes.car.Led--><a href="Led.html" target="_top" xlink:actuate="onRequest" xlink:show="new" xlink:title="Led.html" xlink:type="simple"><rect fill="#FEFECE" filter="url(#f1aau4bmdb7juo)" height="86.8652" id="org.rcdukes.car.Led" style="stroke: #A80036; stroke-width: 1.5;" width="132" x="1146" y="334"/><ellipse cx="1197.25" cy="350" fill="#ADD1B2" rx="11" ry="11" style="stroke: #A80036; stroke-width: 1.0;"/><path d="M1200.2231,355.6431 Q1199.6421,355.9419 1199.0029,356.0913 Q1198.3638,356.2407 1197.6582,356.2407 Q1195.1514,356.2407 1193.8315,354.5889 Q1192.5117,352.937 1192.5117,349.8159 Q1192.5117,346.6865 1193.8315,345.0347 Q1195.1514,343.3828 1197.6582,343.3828 Q1198.3638,343.3828 1199.0112,343.5322 Q1199.6587,343.6816 1200.2231,343.9805 L1200.2231,346.7031 Q1199.5923,346.1221 1198.9988,345.8523 Q1198.4053,345.5825 1197.7744,345.5825 Q1196.4297,345.5825 1195.7449,346.6492 Q1195.0601,347.7158 1195.0601,349.8159 Q1195.0601,351.9077 1195.7449,352.9744 Q1196.4297,354.041 1197.7744,354.041 Q1198.4053,354.041 1198.9988,353.7712 Q1199.5923,353.5015 1200.2231,352.9204 Z "/><text fill="#000000" font-family="sans-serif" font-size="12" lengthAdjust="spacingAndGlyphs" textLength="21" x="1217.75" y="354.5352">Led</text><line style="stroke: #A80036; stroke-width: 1.5;" x1="1147" x2="1277" y1="366" y2="366"/><line style="stroke: #A80036; stroke-width: 1.5;" x1="1147" x2="1277" y1="374" y2="374"/><ellipse cx="1157" cy="385.9775" fill="#84BE84" rx="3" ry="3" style="stroke: #038048; stroke-width: 1.0;"/><text fill="#000000" font-family="sans-serif" font-size="11" lengthAdjust="spacingAndGlyphs" textLength="68" x="1166" y="388.6348">Led(LedMap)</text><ellipse cx="1157" cy="398.9326" fill="#84BE84" rx="3" ry="3" style="stroke: #038048; stroke-width: 1.0;"/><text fill="#000000" font-family="sans-serif" font-size="11" lengthAdjust="spacingAndGlyphs" textLength="105" x="1166" y="401.5898">statusLedOn(): void</text><ellipse cx="1157" cy="411.8877" fill="#84BE84" rx="3" ry="3" style="stroke: #038048; stroke-width: 1.0;"/><text fill="#000000" font-family="sans-serif" font-size="11" lengthAdjust="spacingAndGlyphs" textLength="106" x="1166" y="414.5449">statusLedOff(): void</text></a><!--class org.rcdukes.car.Servo--><a href="Servo.html" target="_top" xlink:actuate="onRequest" xlink:show="new" xlink:title="Servo.html" xlink:type="simple"><rect fill="#FEFECE" filter="url(#f1aau4bmdb7juo)" height="99.8203" id="org.rcdukes.car.Servo" style="stroke: #A80036; stroke-width: 1.5;" width="123" x="1054.5" y="43"/><ellipse cx="1096.5" cy="59" fill="#ADD1B2" rx="11" ry="11" style="stroke: #A80036; stroke-width: 1.0;"/><path d="M1099.4731,64.6431 Q1098.8921,64.9419 1098.2529,65.0913 Q1097.6138,65.2407 1096.9082,65.2407 Q1094.4014,65.2407 1093.0815,63.5889 Q1091.7617,61.937 1091.7617,58.8159 Q1091.7617,55.6865 1093.0815,54.0347 Q1094.4014,52.3828 1096.9082,52.3828 Q1097.6138,52.3828 1098.2612,52.5322 Q1098.9087,52.6816 1099.4731,52.9805 L1099.4731,55.7031 Q1098.8423,55.1221 1098.2488,54.8523 Q1097.6553,54.5825 1097.0244,54.5825 Q1095.6797,54.5825 1094.9949,55.6492 Q1094.3101,56.7158 1094.3101,58.8159 Q1094.3101,60.9077 1094.9949,61.9744 Q1095.6797,63.041 1097.0244,63.041 Q1097.6553,63.041 1098.2488,62.7712 Q1098.8423,62.5015 1099.4731,61.9204 Z "/><text fill="#000000" font-family="sans-serif" font-size="12" lengthAdjust="spacingAndGlyphs" textLength="31" x="1116.5" y="63.5352">Servo</text><line style="stroke: #A80036; stroke-width: 1.5;" x1="1055.5" x2="1176.5" y1="75" y2="75"/><polygon fill="none" points="1065.5,81.9775,1069.5,85.9775,1065.5,89.9775,1061.5,85.9775" style="stroke: #B38D22; stroke-width: 1.0;"/><text fill="#000000" font-family="sans-serif" font-size="11" lengthAdjust="spacingAndGlyphs" text-decoration="underline" textLength="67" x="1074.5" y="89.6348">LOG: Logger</text><line style="stroke: #A80036; stroke-width: 1.5;" x1="1055.5" x2="1176.5" y1="95.9551" y2="95.9551"/><ellipse cx="1065.5" cy="107.9326" fill="#84BE84" rx="3" ry="3" style="stroke: #038048; stroke-width: 1.0;"/><text fill="#000000" font-family="sans-serif" font-size="11" lengthAdjust="spacingAndGlyphs" textLength="90" x="1074.5" y="110.5898">Servo(ServoMap)</text><ellipse cx="1065.5" cy="120.8877" fill="#84BE84" rx="3" ry="3" style="stroke: #038048; stroke-width: 1.0;"/><text fill="#000000" font-family="sans-serif" font-size="11" lengthAdjust="spacingAndGlyphs" textLength="97" x="1074.5" y="123.5449">setServo(int): void</text><ellipse cx="1065.5" cy="133.8428" fill="#84BE84" rx="3" ry="3" style="stroke: #038048; stroke-width: 1.0;"/><text fill="#000000" font-family="sans-serif" font-size="11" lengthAdjust="spacingAndGlyphs" textLength="75" x="1074.5" y="136.5">getServo(): int</text></a><!--class org.rcdukes.car.ServoSide--><a href="ServoSide.html" target="_top" xlink:actuate="onRequest" xlink:show="new" xlink:title="ServoSide.html" xlink:type="simple"><rect fill="#FEFECE" filter="url(#f1aau4bmdb7juo)" height="294.1465" id="org.rcdukes.car.ServoSide" style="stroke: #A80036; stroke-width: 1.5;" width="319" x="859.5" y="1170"/><ellipse cx="987.25" cy="1186" fill="#ADD1B2" rx="11" ry="11" style="stroke: #A80036; stroke-width: 1.0;"/><path d="M990.2231,1191.6431 Q989.6421,1191.9419 989.0029,1192.0913 Q988.3638,1192.2407 987.6582,1192.2407 Q985.1514,1192.2407 983.8315,1190.5889 Q982.5117,1188.937 982.5117,1185.8159 Q982.5117,1182.6865 983.8315,1181.0347 Q985.1514,1179.3828 987.6582,1179.3828 Q988.3638,1179.3828 989.0112,1179.5322 Q989.6587,1179.6816 990.2231,1179.9805 L990.2231,1182.7031 Q989.5923,1182.1221 988.9988,1181.8523 Q988.4053,1181.5825 987.7744,1181.5825 Q986.4297,1181.5825 985.7449,1182.6492 Q985.0601,1183.7158 985.0601,1185.8159 Q985.0601,1187.9077 985.7449,1188.9744 Q986.4297,1190.041 987.7744,1190.041 Q988.4053,1190.041 988.9988,1189.7712 Q989.5923,1189.5015 990.2231,1188.9204 Z "/><text fill="#000000" font-family="sans-serif" font-size="12" lengthAdjust="spacingAndGlyphs" textLength="55" x="1007.75" y="1190.5352">ServoSide</text><line style="stroke: #A80036; stroke-width: 1.5;" x1="860.5" x2="1177.5" y1="1202" y2="1202"/><line style="stroke: #A80036; stroke-width: 1.5;" x1="860.5" x2="1177.5" y1="1210" y2="1210"/><ellipse cx="870.5" cy="1221.9775" fill="#84BE84" rx="3" ry="3" style="stroke: #038048; stroke-width: 1.0;"/><text fill="#000000" font-family="sans-serif" font-size="11" lengthAdjust="spacingAndGlyphs" textLength="293" x="879.5" y="1224.6348">ServoSide(String, double, ServoPosition, ServoPosition)</text><ellipse cx="870.5" cy="1234.9326" fill="#84BE84" rx="3" ry="3" style="stroke: #038048; stroke-width: 1.0;"/><text fill="#000000" font-family="sans-serif" font-size="11" lengthAdjust="spacingAndGlyphs" textLength="123" x="879.5" y="1237.5898">getMin(): ServoPosition</text><ellipse cx="870.5" cy="1247.8877" fill="#84BE84" rx="3" ry="3" style="stroke: #038048; stroke-width: 1.0;"/><text fill="#000000" font-family="sans-serif" font-size="11" lengthAdjust="spacingAndGlyphs" textLength="145" x="879.5" y="1250.5449">setMin(ServoPosition): void</text><ellipse cx="870.5" cy="1260.8428" fill="#84BE84" rx="3" ry="3" style="stroke: #038048; stroke-width: 1.0;"/><text fill="#000000" font-family="sans-serif" font-size="11" lengthAdjust="spacingAndGlyphs" textLength="126" x="879.5" y="1263.5">getMax(): ServoPosition</text><ellipse cx="870.5" cy="1273.7979" fill="#84BE84" rx="3" ry="3" style="stroke: #038048; stroke-width: 1.0;"/><text fill="#000000" font-family="sans-serif" font-size="11" lengthAdjust="spacingAndGlyphs" textLength="148" x="879.5" y="1276.4551">setMax(ServoPosition): void</text><ellipse cx="870.5" cy="1286.7529" fill="#84BE84" rx="3" ry="3" style="stroke: #038048; stroke-width: 1.0;"/><text fill="#000000" font-family="sans-serif" font-size="11" lengthAdjust="spacingAndGlyphs" textLength="108" x="879.5" y="1289.4102">getPolarity(): double</text><ellipse cx="870.5" cy="1299.708" fill="#84BE84" rx="3" ry="3" style="stroke: #038048; stroke-width: 1.0;"/><text fill="#000000" font-family="sans-serif" font-size="11" lengthAdjust="spacingAndGlyphs" textLength="130" x="879.5" y="1302.3652">setPolarity(double): void</text><ellipse cx="870.5" cy="1312.6631" fill="#84BE84" rx="3" ry="3" style="stroke: #038048; stroke-width: 1.0;"/><text fill="#000000" font-family="sans-serif" font-size="11" lengthAdjust="spacingAndGlyphs" textLength="93" x="879.5" y="1315.3203">getName(): String</text><ellipse cx="870.5" cy="1325.6182" fill="#84BE84" rx="3" ry="3" style="stroke: #038048; stroke-width: 1.0;"/><text fill="#000000" font-family="sans-serif" font-size="11" lengthAdjust="spacingAndGlyphs" textLength="115" x="879.5" y="1328.2754">setName(String): void</text><ellipse cx="870.5" cy="1338.5732" fill="#84BE84" rx="3" ry="3" style="stroke: #038048; stroke-width: 1.0;"/><text fill="#000000" font-family="sans-serif" font-size="11" lengthAdjust="spacingAndGlyphs" textLength="149" x="879.5" y="1341.2305">clampValue(double): double</text><ellipse cx="870.5" cy="1351.5283" fill="#84BE84" rx="3" ry="3" style="stroke: #038048; stroke-width: 1.0;"/><text fill="#000000" font-family="sans-serif" font-size="11" lengthAdjust="spacingAndGlyphs" textLength="133" x="879.5" y="1354.1855">clampServoPos(long): int</text><ellipse cx="870.5" cy="1364.4834" fill="#84BE84" rx="3" ry="3" style="stroke: #038048; stroke-width: 1.0;"/><text fill="#000000" font-family="sans-serif" font-size="11" lengthAdjust="spacingAndGlyphs" textLength="182" x="879.5" y="1367.1406">interpolate(double): ServoPosition</text><ellipse cx="870.5" cy="1377.4385" fill="#84BE84" rx="3" ry="3" style="stroke: #038048; stroke-width: 1.0;"/><text fill="#000000" font-family="sans-serif" font-size="11" lengthAdjust="spacingAndGlyphs" textLength="177" x="879.5" y="1380.0957">percentToFactor(double): double</text><ellipse cx="870.5" cy="1390.3936" fill="#84BE84" rx="3" ry="3" style="stroke: #038048; stroke-width: 1.0;"/><text fill="#000000" font-family="sans-serif" font-size="11" lengthAdjust="spacingAndGlyphs" textLength="172" x="879.5" y="1393.0508">interpolateServoPos(double): int</text><ellipse cx="870.5" cy="1403.3486" fill="#84BE84" rx="3" ry="3" style="stroke: #038048; stroke-width: 1.0;"/><text fill="#000000" font-family="sans-serif" font-size="11" lengthAdjust="spacingAndGlyphs" textLength="112" x="879.5" y="1406.0059">valueRange(): double</text><ellipse cx="870.5" cy="1416.3037" fill="#84BE84" rx="3" ry="3" style="stroke: #038048; stroke-width: 1.0;"/><text fill="#000000" font-family="sans-serif" font-size="11" lengthAdjust="spacingAndGlyphs" textLength="175" x="879.5" y="1418.9609">interpolateValue(double): double</text><ellipse cx="870.5" cy="1429.2588" fill="#84BE84" rx="3" ry="3" style="stroke: #038048; stroke-width: 1.0;"/><text fill="#000000" font-family="sans-serif" font-size="11" lengthAdjust="spacingAndGlyphs" textLength="199" x="879.5" y="1431.916">interpolateValueFromPos(int): double</text><ellipse cx="870.5" cy="1442.2139" fill="#84BE84" rx="3" ry="3" style="stroke: #038048; stroke-width: 1.0;"/><text fill="#000000" font-family="sans-serif" font-size="11" lengthAdjust="spacingAndGlyphs" textLength="167" x="879.5" y="1444.8711">isServoPosOnSide(int): boolean</text><ellipse cx="870.5" cy="1455.1689" fill="#84BE84" rx="3" ry="3" style="stroke: #038048; stroke-width: 1.0;"/><text fill="#000000" font-family="sans-serif" font-size="11" lengthAdjust="spacingAndGlyphs" textLength="170" x="879.5" y="1457.8262">isValueOnSide(double): boolean</text></a><!--class org.rcdukes.car.ServoRange--><a href="ServoRange.html" target="_top" xlink:actuate="onRequest" xlink:show="new" xlink:title="ServoRange.html" xlink:type="simple"><rect fill="#FEFECE" filter="url(#f1aau4bmdb7juo)" height="164.5957" id="org.rcdukes.car.ServoRange" style="stroke: #A80036; stroke-width: 1.5;" width="306" x="866" y="851"/><ellipse cx="981.25" cy="867" fill="#ADD1B2" rx="11" ry="11" style="stroke: #A80036; stroke-width: 1.0;"/><path d="M984.2231,872.6431 Q983.6421,872.9419 983.0029,873.0913 Q982.3638,873.2407 981.6582,873.2407 Q979.1514,873.2407 977.8315,871.5889 Q976.5117,869.937 976.5117,866.8159 Q976.5117,863.6865 977.8315,862.0347 Q979.1514,860.3828 981.6582,860.3828 Q982.3638,860.3828 983.0112,860.5322 Q983.6587,860.6816 984.2231,860.9805 L984.2231,863.7031 Q983.5923,863.1221 982.9988,862.8523 Q982.4053,862.5825 981.7744,862.5825 Q980.4297,862.5825 979.7449,863.6492 Q979.0601,864.7158 979.0601,866.8159 Q979.0601,868.9077 979.7449,869.9744 Q980.4297,871.041 981.7744,871.041 Q982.4053,871.041 982.9988,870.7712 Q983.5923,870.5015 984.2231,869.9204 Z "/><text fill="#000000" font-family="sans-serif" font-size="12" lengthAdjust="spacingAndGlyphs" textLength="67" x="1001.75" y="871.5352">ServoRange</text><line style="stroke: #A80036; stroke-width: 1.5;" x1="867" x2="1171" y1="883" y2="883"/><line style="stroke: #A80036; stroke-width: 1.5;" x1="867" x2="1171" y1="891" y2="891"/><ellipse cx="877" cy="902.9775" fill="#84BE84" rx="3" ry="3" style="stroke: #038048; stroke-width: 1.0;"/><text fill="#000000" font-family="sans-serif" font-size="11" lengthAdjust="spacingAndGlyphs" textLength="280" x="886" y="905.6348">ServoRange(int, ServoSide, ServoPosition, ServoSide)</text><ellipse cx="877" cy="915.9326" fill="#84BE84" rx="3" ry="3" style="stroke: #038048; stroke-width: 1.0;"/><text fill="#000000" font-family="sans-serif" font-size="11" lengthAdjust="spacingAndGlyphs" textLength="89" x="886" y="918.5898">getStepSize(): int</text><ellipse cx="877" cy="928.8877" fill="#84BE84" rx="3" ry="3" style="stroke: #038048; stroke-width: 1.0;"/><text fill="#000000" font-family="sans-serif" font-size="11" lengthAdjust="spacingAndGlyphs" textLength="111" x="886" y="931.5449">setStepSize(int): void</text><ellipse cx="877" cy="941.8428" fill="#84BE84" rx="3" ry="3" style="stroke: #038048; stroke-width: 1.0;"/><text fill="#000000" font-family="sans-serif" font-size="11" lengthAdjust="spacingAndGlyphs" textLength="172" x="886" y="944.5">getZeroPosition(): ServoPosition</text><ellipse cx="877" cy="954.7979" fill="#84BE84" rx="3" ry="3" style="stroke: #038048; stroke-width: 1.0;"/><text fill="#000000" font-family="sans-serif" font-size="11" lengthAdjust="spacingAndGlyphs" textLength="194" x="886" y="957.4551">setZeroPosition(ServoPosition): void</text><ellipse cx="877" cy="967.7529" fill="#84BE84" rx="3" ry="3" style="stroke: #038048; stroke-width: 1.0;"/><text fill="#000000" font-family="sans-serif" font-size="11" lengthAdjust="spacingAndGlyphs" textLength="126" x="886" y="970.4102">getMax(): ServoPosition</text><ellipse cx="877" cy="980.708" fill="#84BE84" rx="3" ry="3" style="stroke: #038048; stroke-width: 1.0;"/><text fill="#000000" font-family="sans-serif" font-size="11" lengthAdjust="spacingAndGlyphs" textLength="123" x="886" y="983.3652">getMin(): ServoPosition</text><ellipse cx="877" cy="993.6631" fill="#84BE84" rx="3" ry="3" style="stroke: #038048; stroke-width: 1.0;"/><text fill="#000000" font-family="sans-serif" font-size="11" lengthAdjust="spacingAndGlyphs" textLength="94" x="886" y="996.3203">setMinMax(): void</text><ellipse cx="877" cy="1006.6182" fill="#84BE84" rx="3" ry="3" style="stroke: #038048; stroke-width: 1.0;"/><text fill="#000000" font-family="sans-serif" font-size="11" lengthAdjust="spacingAndGlyphs" textLength="133" x="886" y="1009.2754">clampServoPos(long): int</text></a><!--class org.rcdukes.car.ServoRangeMap--><a href="ServoRangeMap.html" target="_top" xlink:actuate="onRequest" xlink:show="new" xlink:title="ServoRangeMap.html" xlink:type="simple"><rect fill="#FEFECE" filter="url(#f1aau4bmdb7juo)" height="99.8203" id="org.rcdukes.car.ServoRangeMap" style="stroke: #A80036; stroke-width: 1.5;" width="200" x="919" y="612"/><ellipse cx="968.75" cy="628" fill="#B4A7E5" rx="11" ry="11" style="stroke: #A80036; stroke-width: 1.0;"/><path d="M964.6777,623.7651 L964.6777,621.6069 L972.0571,621.6069 L972.0571,623.7651 L969.5918,623.7651 L969.5918,631.8418 L972.0571,631.8418 L972.0571,634 L964.6777,634 L964.6777,631.8418 L967.1431,631.8418 L967.1431,623.7651 Z "/><text fill="#000000" font-family="sans-serif" font-size="12" font-style="italic" lengthAdjust="spacingAndGlyphs" textLength="92" x="989.25" y="632.5352">ServoRangeMap</text><line style="stroke: #A80036; stroke-width: 1.5;" x1="920" x2="1118" y1="644" y2="644"/><line style="stroke: #A80036; stroke-width: 1.5;" x1="920" x2="1118" y1="652" y2="652"/><ellipse cx="930" cy="663.9775" fill="#84BE84" rx="3" ry="3" style="stroke: #038048; stroke-width: 1.0;"/><text fill="#000000" font-family="sans-serif" font-size="11" font-style="italic" lengthAdjust="spacingAndGlyphs" textLength="174" x="939" y="666.6348">atPercent(double): ServoPosition</text><ellipse cx="930" cy="676.9326" fill="#84BE84" rx="3" ry="3" style="stroke: #038048; stroke-width: 1.0;"/><text fill="#000000" font-family="sans-serif" font-size="11" font-style="italic" lengthAdjust="spacingAndGlyphs" textLength="163" x="939" y="679.5898">atValue(double): ServoPosition</text><ellipse cx="930" cy="689.8877" fill="#84BE84" rx="3" ry="3" style="stroke: #038048; stroke-width: 1.0;"/><text fill="#000000" font-family="sans-serif" font-size="11" font-style="italic" lengthAdjust="spacingAndGlyphs" textLength="74" x="939" y="692.5449">step(int): void</text><ellipse cx="930" cy="702.8428" fill="#84BE84" rx="3" ry="3" style="stroke: #038048; stroke-width: 1.0;"/><text fill="#000000" font-family="sans-serif" font-size="11" font-style="italic" lengthAdjust="spacingAndGlyphs" textLength="78" x="939" y="705.5">setZero(): void</text></a><!--class org.rcdukes.car.Steering--><a href="Steering.html" target="_top" xlink:actuate="onRequest" xlink:show="new" xlink:title="Steering.html" xlink:type="simple"><rect fill="#FEFECE" filter="url(#f1aau4bmdb7juo)" height="99.8203" id="org.rcdukes.car.Steering" style="stroke: #A80036; stroke-width: 1.5;" width="226" x="1313" y="327.5"/><ellipse cx="1398.75" cy="343.5" fill="#ADD1B2" rx="11" ry="11" style="stroke: #A80036; stroke-width: 1.0;"/><path d="M1401.7231,349.1431 Q1401.1421,349.4419 1400.5029,349.5913 Q1399.8638,349.7407 1399.1582,349.7407 Q1396.6514,349.7407 1395.3315,348.0889 Q1394.0117,346.437 1394.0117,343.3159 Q1394.0117,340.1865 1395.3315,338.5347 Q1396.6514,336.8828 1399.1582,336.8828 Q1399.8638,336.8828 1400.5112,337.0322 Q1401.1587,337.1816 1401.7231,337.4805 L1401.7231,340.2031 Q1401.0923,339.6221 1400.4988,339.3523 Q1399.9053,339.0825 1399.2744,339.0825 Q1397.9297,339.0825 1397.2449,340.1492 Q1396.5601,341.2158 1396.5601,343.3159 Q1396.5601,345.4077 1397.2449,346.4744 Q1397.9297,347.541 1399.2744,347.541 Q1399.9053,347.541 1400.4988,347.2712 Q1401.0923,347.0015 1401.7231,346.4204 Z "/><text fill="#000000" font-family="sans-serif" font-size="12" lengthAdjust="spacingAndGlyphs" textLength="46" x="1419.25" y="348.0352">Steering</text><line style="stroke: #A80036; stroke-width: 1.5;" x1="1314" x2="1538" y1="359.5" y2="359.5"/><line style="stroke: #A80036; stroke-width: 1.5;" x1="1314" x2="1538" y1="367.5" y2="367.5"/><ellipse cx="1324" cy="379.4775" fill="#84BE84" rx="3" ry="3" style="stroke: #038048; stroke-width: 1.0;"/><text fill="#000000" font-family="sans-serif" font-size="11" lengthAdjust="spacingAndGlyphs" textLength="162" x="1333" y="382.1348">Steering(Car, ServoRangeMap)</text><ellipse cx="1324" cy="392.4326" fill="#84BE84" rx="3" ry="3" style="stroke: #038048; stroke-width: 1.0;"/><text fill="#000000" font-family="sans-serif" font-size="11" lengthAdjust="spacingAndGlyphs" textLength="71" x="1333" y="395.0898">center(): void</text><ellipse cx="1324" cy="405.3877" fill="#84BE84" rx="3" ry="3" style="stroke: #038048; stroke-width: 1.0;"/><text fill="#000000" font-family="sans-serif" font-size="11" lengthAdjust="spacingAndGlyphs" textLength="101" x="1333" y="408.0449">forceCenter(): void</text><ellipse cx="1324" cy="418.3428" fill="#84BE84" rx="3" ry="3" style="stroke: #038048; stroke-width: 1.0;"/><text fill="#000000" font-family="sans-serif" font-size="11" lengthAdjust="spacingAndGlyphs" textLength="200" x="1333" y="421">setWheelPosition(ServoPosition): void</text></a><!--class org.rcdukes.car.ServoCommand--><a href="ServoCommand.html" target="_top" xlink:actuate="onRequest" xlink:show="new" xlink:title="ServoCommand.html" xlink:type="simple"><rect fill="#FEFECE" filter="url(#f1aau4bmdb7juo)" height="60.9551" id="org.rcdukes.car.ServoCommand" style="stroke: #A80036; stroke-width: 1.5;" width="143" x="146.5" y="62.5"/><ellipse cx="170.95" cy="78.5" fill="#B4A7E5" rx="11" ry="11" style="stroke: #A80036; stroke-width: 1.0;"/><path d="M166.8777,74.2651 L166.8777,72.1069 L174.2571,72.1069 L174.2571,74.2651 L171.7918,74.2651 L171.7918,82.3418 L174.2571,82.3418 L174.2571,84.5 L166.8777,84.5 L166.8777,82.3418 L169.3431,82.3418 L169.3431,74.2651 Z "/><text fill="#000000" font-family="sans-serif" font-size="12" font-style="italic" lengthAdjust="spacingAndGlyphs" textLength="90" x="187.05" y="83.0352">ServoCommand</text><line style="stroke: #A80036; stroke-width: 1.5;" x1="147.5" x2="288.5" y1="94.5" y2="94.5"/><line style="stroke: #A80036; stroke-width: 1.5;" x1="147.5" x2="288.5" y1="102.5" y2="102.5"/><ellipse cx="157.5" cy="114.4775" fill="#84BE84" rx="3" ry="3" style="stroke: #038048; stroke-width: 1.0;"/><text fill="#000000" font-family="sans-serif" font-size="11" font-style="italic" lengthAdjust="spacingAndGlyphs" textLength="117" x="166.5" y="117.1348">setServo(int, int): void</text></a><!--class org.rcdukes.car.AdaFruit--><a href="AdaFruit.html" target="_top" xlink:actuate="onRequest" xlink:show="new" xlink:title="AdaFruit.html" xlink:type="simple"><rect fill="#FEFECE" filter="url(#f1aau4bmdb7juo)" height="190.5059" id="org.rcdukes.car.AdaFruit" style="stroke: #A80036; stroke-width: 1.5;" width="390" x="209" y="282"/><ellipse cx="375.75" cy="298" fill="#ADD1B2" rx="11" ry="11" style="stroke: #A80036; stroke-width: 1.0;"/><path d="M378.7231,303.6431 Q378.1421,303.9419 377.5029,304.0913 Q376.8638,304.2407 376.1582,304.2407 Q373.6514,304.2407 372.3315,302.5889 Q371.0117,300.937 371.0117,297.8159 Q371.0117,294.6865 372.3315,293.0347 Q373.6514,291.3828 376.1582,291.3828 Q376.8638,291.3828 377.5112,291.5322 Q378.1587,291.6816 378.7231,291.9805 L378.7231,294.7031 Q378.0923,294.1221 377.4988,293.8523 Q376.9053,293.5825 376.2744,293.5825 Q374.9297,293.5825 374.2449,294.6492 Q373.5601,295.7158 373.5601,297.8159 Q373.5601,299.9077 374.2449,300.9744 Q374.9297,302.041 376.2744,302.041 Q376.9053,302.041 377.4988,301.7712 Q378.0923,301.5015 378.7231,300.9204 Z "/><text fill="#000000" font-family="sans-serif" font-size="12" lengthAdjust="spacingAndGlyphs" textLength="48" x="396.25" y="302.5352">AdaFruit</text><line style="stroke: #A80036; stroke-width: 1.5;" x1="210" x2="598" y1="314" y2="314"/><polygon fill="none" points="220,320.9775,224,324.9775,220,328.9775,216,324.9775" style="stroke: #B38D22; stroke-width: 1.0;"/><text fill="#000000" font-family="sans-serif" font-size="11" lengthAdjust="spacingAndGlyphs" textLength="122" x="229" y="328.6348">parser: CmdLineParser</text><polygon fill="none" points="220,333.9326,224,337.9326,220,341.9326,216,337.9326" style="stroke: #B38D22; stroke-width: 1.0;"/><text fill="#000000" font-family="sans-serif" font-size="11" lengthAdjust="spacingAndGlyphs" textLength="83" x="229" y="341.5898">debug: boolean</text><polygon fill="none" points="220,346.8877,224,350.8877,220,354.8877,216,350.8877" style="stroke: #B38D22; stroke-width: 1.0;"/><text fill="#000000" font-family="sans-serif" font-size="11" lengthAdjust="spacingAndGlyphs" textLength="40" x="229" y="354.5449">ioId: int</text><polygon fill="none" points="220,359.8428,224,363.8428,220,367.8428,216,363.8428" style="stroke: #B38D22; stroke-width: 1.0;"/><text fill="#000000" font-family="sans-serif" font-size="11" lengthAdjust="spacingAndGlyphs" textLength="48" x="229" y="367.5">value: int</text><line style="stroke: #A80036; stroke-width: 1.5;" x1="210" x2="598" y1="373.8203" y2="373.8203"/><ellipse cx="220" cy="385.7979" fill="#84BE84" rx="3" ry="3" style="stroke: #038048; stroke-width: 1.0;"/><text fill="#000000" font-family="sans-serif" font-size="11" lengthAdjust="spacingAndGlyphs" textLength="54" x="229" y="388.4551">AdaFruit()</text><ellipse cx="220" cy="398.7529" fill="#84BE84" rx="3" ry="3" style="stroke: #038048; stroke-width: 1.0;"/><text fill="#000000" font-family="sans-serif" font-size="11" lengthAdjust="spacingAndGlyphs" textLength="134" x="229" y="401.4102">AdaFruit(double, double)</text><polygon fill="#FFFF44" points="220,406.708,224,410.708,220,414.708,216,410.708" style="stroke: #B38D22; stroke-width: 1.0;"/><text fill="#000000" font-family="sans-serif" font-size="11" lengthAdjust="spacingAndGlyphs" textLength="364" x="229" y="414.3652">provisionPwmOutputs(PCA9685GpioProvider): GpioPinPwmOutput[]</text><ellipse cx="220" cy="424.6631" fill="#84BE84" rx="3" ry="3" style="stroke: #038048; stroke-width: 1.0;"/><text fill="#000000" font-family="sans-serif" font-size="11" lengthAdjust="spacingAndGlyphs" textLength="117" x="229" y="427.3203">setServo(int, int): void</text><ellipse cx="220" cy="437.6182" fill="#84BE84" rx="3" ry="3" style="stroke: #038048; stroke-width: 1.0;"/><text fill="#000000" font-family="sans-serif" font-size="11" lengthAdjust="spacingAndGlyphs" textLength="167" x="229" y="440.2754">parseArguments(String[]): void</text><ellipse cx="220" cy="450.5732" fill="#84BE84" rx="3" ry="3" style="stroke: #038048; stroke-width: 1.0;"/><text fill="#000000" font-family="sans-serif" font-size="11" lengthAdjust="spacingAndGlyphs" textLength="63" x="229" y="453.2305">work(): void</text><ellipse cx="220" cy="463.5283" fill="#84BE84" rx="3" ry="3" style="stroke: #038048; stroke-width: 1.0;"/><text fill="#000000" font-family="sans-serif" font-size="11" lengthAdjust="spacingAndGlyphs" text-decoration="underline" textLength="103" x="229" y="466.1855">main(String[]): void</text></a><!--link org.rcdukes.car.ServoMap to org.rcdukes.car.LedMap--><path d="M763,467.2298 C763,520.4481 763,585.0757 763,624.8693 " fill="none" id="org.rcdukes.car.ServoMap-org.rcdukes.car.LedMap" style="stroke: #A80036; stroke-width: 1.0; stroke-dasharray: 7.0,7.0;"/><polygon fill="none" points="756.0001,467.0966,763,447.0965,770.0001,467.0965,756.0001,467.0966" style="stroke: #A80036; stroke-width: 1.0;"/><!--link org.rcdukes.car.Servo to org.rcdukes.car.Engine--><path d="M1092.3526,162.3577 C1075.7487,211.0567 1053.8199,275.3737 1038.2764,320.9624 " fill="none" id="org.rcdukes.car.Servo-org.rcdukes.car.Engine" style="stroke: #A80036; stroke-width: 1.0;"/><polygon fill="none" points="1085.8019,159.879,1098.8816,143.208,1099.0529,164.397,1085.8019,159.879" style="stroke: #A80036; stroke-width: 1.0;"/><!--link org.rcdukes.car.ServoCommand to org.rcdukes.car.ServoBlaster--><path d="M197.1547,142.4208 C173.4033,198.7313 135.1206,289.4931 113.7375,340.189 " fill="none" id="org.rcdukes.car.ServoCommand-org.rcdukes.car.ServoBlaster" style="stroke: #A80036; stroke-width: 1.0; stroke-dasharray: 7.0,7.0;"/><polygon fill="none" points="190.8214,139.4242,205.0439,123.7168,203.7208,144.8651,190.8214,139.4242" style="stroke: #A80036; stroke-width: 1.0;"/><!--link org.rcdukes.car.Servo to org.rcdukes.car.Led--><path d="M1139.3963,162.3358 C1157.4477,215.832 1181.8619,288.1843 1197.2714,333.8512 " fill="none" id="org.rcdukes.car.Servo-org.rcdukes.car.Led" style="stroke: #A80036; stroke-width: 1.0;"/><polygon fill="none" points="1132.7038,164.3963,1132.9419,143.208,1145.969,159.9201,1132.7038,164.3963" style="stroke: #A80036; stroke-width: 1.0;"/><!--link org.rcdukes.car.ServoMap to org.rcdukes.car.ServoRangeMap--><path d="M839.1894,462.1714 C883.0446,510.9089 936.6615,570.4949 973.879,611.8558 " fill="none" id="org.rcdukes.car.ServoMap-org.rcdukes.car.ServoRangeMap" style="stroke: #A80036; stroke-width: 1.0; stroke-dasharray: 7.0,7.0;"/><polygon fill="none" points="833.799,466.646,825.6246,447.0965,844.2061,457.2815,833.799,466.646" style="stroke: #A80036; stroke-width: 1.0;"/><!--link org.rcdukes.car.Servo to org.rcdukes.car.Steering--><path d="M1185.5634,156.8413 C1241.6997,208.3599 1319.5806,279.8345 1371.3182,327.3163 " fill="none" id="org.rcdukes.car.Servo-org.rcdukes.car.Steering" style="stroke: #A80036; stroke-width: 1.0;"/><polygon fill="none" points="1180.7103,161.8885,1170.7082,143.208,1190.1765,151.5738,1180.7103,161.8885" style="stroke: #A80036; stroke-width: 1.0;"/><!--link org.rcdukes.car.ServoCommand to org.rcdukes.car.AdaFruit--><path d="M249.1361,140.6249 C274.2871,179.0951 310.4847,234.4618 341.5604,281.9943 " fill="none" id="org.rcdukes.car.ServoCommand-org.rcdukes.car.AdaFruit" style="stroke: #A80036; stroke-width: 1.0; stroke-dasharray: 7.0,7.0;"/><polygon fill="none" points="243.1672,144.2872,238.082,123.7168,254.8852,136.6262,243.1672,144.2872" style="stroke: #A80036; stroke-width: 1.0;"/><!--link org.rcdukes.car.Engine to org.rcdukes.car.ServoRangeMap--><path d="M1019,434.0482 C1019,484.1819 1019,556.958 1019,606.7087 " fill="none" id="org.rcdukes.car.Engine-org.rcdukes.car.ServoRangeMap" style="stroke: #A80036; stroke-width: 1.0;"/><polygon fill="#A80036" points="1019,611.7512,1023,602.7512,1019,606.7512,1015,602.7512,1019,611.7512" style="stroke: #A80036; stroke-width: 1.0;"/><text fill="#000000" font-family="sans-serif" font-size="13" lengthAdjust="spacingAndGlyphs" textLength="68" x="1020" y="547.5684">engineMap</text><!--link org.rcdukes.car.Servo to org.rcdukes.car.ServoMap--><path d="M1054.1081,142.8817 C998.5782,187.636 916.3833,253.8809 853.4816,304.5765 " fill="none" id="org.rcdukes.car.Servo-org.rcdukes.car.ServoMap" style="stroke: #A80036; stroke-width: 1.0;"/><polygon fill="#A80036" points="849.3667,307.8928,858.8842,305.3595,853.2597,304.7552,853.864,299.1307,849.3667,307.8928" style="stroke: #A80036; stroke-width: 1.0;"/><text fill="#000000" font-family="sans-serif" font-size="13" lengthAdjust="spacingAndGlyphs" textLength="60" x="978" y="217.5684">servoMap</text><!--link org.rcdukes.car.ServoRange to org.rcdukes.car.ServoSide--><path d="M1019,1016.2416 C1019,1059.563 1019,1114.0003 1019,1164.6138 " fill="none" id="org.rcdukes.car.ServoRange-org.rcdukes.car.ServoSide" style="stroke: #A80036; stroke-width: 1.0;"/><polygon fill="#A80036" points="1019,1169.8144,1023,1160.8144,1019,1164.8144,1015,1160.8144,1019,1169.8144" style="stroke: #A80036; stroke-width: 1.0;"/><text fill="#000000" font-family="sans-serif" font-size="13" lengthAdjust="spacingAndGlyphs" textLength="36" x="1020" y="1090.5684">sideN</text><text fill="#000000" font-family="sans-serif" font-size="13" lengthAdjust="spacingAndGlyphs" textLength="33" x="1021.5" y="1105.8789">sideP</text><!--link org.rcdukes.car.ServoRangeMap to org.rcdukes.car.ServoRange--><path d="M1019,712.1137 C1019,749.5134 1019,801.5707 1019,845.8093 " fill="none" id="org.rcdukes.car.ServoRangeMap-org.rcdukes.car.ServoRange" style="stroke: #A80036; stroke-width: 1.0;"/><polygon fill="#A80036" points="1019,850.888,1023,841.888,1019,845.888,1015,841.888,1019,850.888" style="stroke: #A80036; stroke-width: 1.0;"/><text fill="#000000" font-family="sans-serif" font-size="13" lengthAdjust="spacingAndGlyphs" textLength="35" x="1020" y="786.5684">range</text><!--link org.rcdukes.car.Steering to org.rcdukes.car.ServoRangeMap--><path d="M1358.8514,427.5153 C1338.7433,442.3064 1316.5693,458.4341 1296,473 C1229.8992,519.8086 1153.8333,571.5608 1098.1562,609.0585 " fill="none" id="org.rcdukes.car.Steering-org.rcdukes.car.ServoRangeMap" style="stroke: #A80036; stroke-width: 1.0;"/><polygon fill="#A80036" points="1093.8467,611.9598,1103.5463,610.2515,1097.9943,609.1674,1099.0784,603.6154,1093.8467,611.9598" style="stroke: #A80036; stroke-width: 1.0;"/><text fill="#000000" font-family="sans-serif" font-size="13" lengthAdjust="spacingAndGlyphs" textLength="77" x="1208" y="547.5684">steeringMap</text><text fill="#888888" font-family="sans-serif" font-size="10" lengthAdjust="spacingAndGlyphs" textLength="182" x="695.5" y="1499.668">UMLDoclet 1.1.4, PlantUML 1.2019.05</text><!--
@startuml

    namespace org.rcdukes.car {

        interface LedMap [[LedMap.html]] {
            {abstract} +ledOff(): int
            {abstract} +ledOn(): int
        }

        interface ServoMap [[ServoMap.html]] {
            {abstract} +gpioPin(): int
            {abstract} +servoCommand(): ServoCommand
            {abstract} +turnedOrientation(): boolean
            {abstract} +getCurrentPosition(): ServoPosition
            {abstract} +newPosition(ServoPosition): ServoPosition
            {abstract} +configure(int, ServoCommand, String): void
            {abstract} +configureOrientation(): void
        }

        class Engine [[Engine.html]] {
            +Engine(Car, ServoRangeMap)
            +neutral(): void
            +forceInNeutral(): void
            +setSpeed(ServoPosition): void
            +neutral(boolean): void
        }

        class ServoBlaster [[ServoBlaster.html]] {
            {static} +WRITE_DIRECT: boolean
            +setServo(int, int): void
        }

        class Led [[Led.html]] {
            +Led(LedMap)
            +statusLedOn(): void
            +statusLedOff(): void
        }

        class Servo [[Servo.html]] {
            {static} #LOG: Logger
            +Servo(ServoMap)
            +setServo(int): void
            +getServo(): int
        }

        class ServoSide [[ServoSide.html]] {
            +ServoSide(String, double, ServoPosition, ServoPosition)
            +getMin(): ServoPosition
            +setMin(ServoPosition): void
            +getMax(): ServoPosition
            +setMax(ServoPosition): void
            +getPolarity(): double
            +setPolarity(double): void
            +getName(): String
            +setName(String): void
            +clampValue(double): double
            +clampServoPos(long): int
            +interpolate(double): ServoPosition
            +percentToFactor(double): double
            +interpolateServoPos(double): int
            +valueRange(): double
            +interpolateValue(double): double
            +interpolateValueFromPos(int): double
            +isServoPosOnSide(int): boolean
            +isValueOnSide(double): boolean
        }

        class ServoRange [[ServoRange.html]] {
            +ServoRange(int, ServoSide, ServoPosition, ServoSide)
            +getStepSize(): int
            +setStepSize(int): void
            +getZeroPosition(): ServoPosition
            +setZeroPosition(ServoPosition): void
            +getMax(): ServoPosition
            +getMin(): ServoPosition
            +setMinMax(): void
            +clampServoPos(long): int
        }

        interface ServoRangeMap [[ServoRangeMap.html]] {
            {abstract} +atPercent(double): ServoPosition
            {abstract} +atValue(double): ServoPosition
            {abstract} +step(int): void
            {abstract} +setZero(): void
        }

        class Steering [[Steering.html]] {
            +Steering(Car, ServoRangeMap)
            +center(): void
            +forceCenter(): void
            +setWheelPosition(ServoPosition): void
        }

        interface ServoCommand [[ServoCommand.html]] {
            {abstract} +setServo(int, int): void
        }

        class AdaFruit [[AdaFruit.html]] {
            #parser: CmdLineParser
            #debug: boolean
            #ioId: int
            #value: int
            +AdaFruit()
            +AdaFruit(double, double)
            #provisionPwmOutputs(PCA9685GpioProvider): GpioPinPwmOutput[]
            +setServo(int, int): void
            +parseArguments(String[]): void
            +work(): void
            {static} +main(String[]): void
        }

        ServoMap <|.. LedMap

        Servo <|- - Engine

        ServoCommand <|.. ServoBlaster

        Servo <|- - Led

        ServoMap <|.. ServoRangeMap

        Servo <|- - Steering

        ServoCommand <|.. AdaFruit

        Engine - -> ServoRangeMap: engineMap

        Servo - -> ServoMap: servoMap

        ServoRange - -> ServoSide: sideN\nsideP

        ServoRangeMap - -> ServoRange: range

        Steering - -> ServoRangeMap: steeringMap

    }


    center footer UMLDoclet 1.1.4, PlantUML 1.2019.05
@enduml

PlantUML version 1.2019.05(Sat Apr 20 18:45:36 CEST 2019)
(APACHE source distribution)
Java Runtime: Java(TM) SE Runtime Environment
JVM: Java HotSpot(TM) 64-Bit Server VM
Java Version: 1.8.0_152-b16
Operating System: Mac OS X
OS Version: 10.13.6
Default Encoding: UTF-8
Language: de
Country: DE
--></g></svg>