<?xml version="1.0" encoding="UTF-8" standalone="no"?><svg xmlns="http://www.w3.org/2000/svg" xmlns:xlink="http://www.w3.org/1999/xlink" contentScriptType="application/ecmascript" contentStyleType="text/css" height="115px" preserveAspectRatio="none" style="width:194px;height:115px;" version="1.1" viewBox="0 0 194 115" width="194px" zoomAndPan="magnify"><defs><filter height="300%" id="f1wyvjtxmws55a" width="300%" x="-1" y="-1"><feGaussianBlur result="blurOut" stdDeviation="2.0"/><feColorMatrix in="blurOut" result="blurOut2" type="matrix" values="0 0 0 0 0 0 0 0 0 0 0 0 0 0 0 0 0 0 .4 0"/><feOffset dx="4.0" dy="4.0" in="blurOut2" result="blurOut3"/><feBlend in="SourceGraphic" in2="blurOut3" mode="normal"/></filter></defs><g><!--class ServoBlaster--><a href="ServoBlaster.html" target="_top" xlink:actuate="onRequest" xlink:show="new" xlink:title="ServoBlaster.html" xlink:type="simple"><rect fill="#FEFECE" filter="url(#f1wyvjtxmws55a)" height="73.9102" id="ServoBlaster" style="stroke: #A80036; stroke-width: 1.5;" width="152" x="9" y="8"/><ellipse cx="46.5" cy="24" fill="#ADD1B2" rx="11" ry="11" style="stroke: #A80036; stroke-width: 1.0;"/><path d="M49.4731,29.6431 Q48.8921,29.9419 48.2529,30.0913 Q47.6138,30.2407 46.9082,30.2407 Q44.4014,30.2407 43.0815,28.5889 Q41.7617,26.937 41.7617,23.8159 Q41.7617,20.6865 43.0815,19.0347 Q44.4014,17.3828 46.9082,17.3828 Q47.6138,17.3828 48.2612,17.5322 Q48.9087,17.6816 49.4731,17.9805 L49.4731,20.7031 Q48.8423,20.1221 48.2488,19.8523 Q47.6553,19.5825 47.0244,19.5825 Q45.6797,19.5825 44.9949,20.6492 Q44.3101,21.7158 44.3101,23.8159 Q44.3101,25.9077 44.9949,26.9744 Q45.6797,28.041 47.0244,28.041 Q47.6553,28.041 48.2488,27.7712 Q48.8423,27.5015 49.4731,26.9204 Z "/><text fill="#000000" font-family="sans-serif" font-size="12" lengthAdjust="spacingAndGlyphs" textLength="70" x="65.5" y="28.5352">ServoBlaster</text><line style="stroke: #A80036; stroke-width: 1.5;" x1="10" x2="160" y1="40" y2="40"/><ellipse cx="20" cy="51.9775" fill="none" rx="3" ry="3" style="stroke: #038048; stroke-width: 1.0;"/><text fill="#000000" font-family="sans-serif" font-size="11" lengthAdjust="spacingAndGlyphs" text-decoration="underline" textLength="126" x="29" y="54.6348">WRITE_DIRECT: boolean</text><line style="stroke: #A80036; stroke-width: 1.5;" x1="10" x2="160" y1="60.9551" y2="60.9551"/><ellipse cx="20" cy="72.9326" fill="#84BE84" rx="3" ry="3" style="stroke: #038048; stroke-width: 1.0;"/><text fill="#000000" font-family="sans-serif" font-size="11" lengthAdjust="spacingAndGlyphs" textLength="117" x="29" y="75.5898">setServo(int, int): void</text></a><text fill="#888888" font-family="sans-serif" font-size="10" lengthAdjust="spacingAndGlyphs" textLength="182" x="0" y="101.668">UMLDoclet 1.1.4, PlantUML 1.2019.05</text><!--
@startuml

    class ServoBlaster [[ServoBlaster.html]] {
        {static} +WRITE_DIRECT: boolean
        +setServo(int, int): void
    }


    center footer UMLDoclet 1.1.4, PlantUML 1.2019.05
@enduml

PlantUML version 1.2019.05(Sat Apr 20 18:45:36 CEST 2019)
(APACHE source distribution)
Java Runtime: Java(TM) SE Runtime Environment
JVM: Java HotSpot(TM) 64-Bit Server VM
Java Version: 1.8.0_152-b16
Operating System: Mac OS X
OS Version: 10.13.6
Default Encoding: UTF-8
Language: de
Country: DE
--></g></svg>