<?xml version="1.0" encoding="UTF-8" standalone="no"?><svg xmlns="http://www.w3.org/2000/svg" xmlns:xlink="http://www.w3.org/1999/xlink" contentScriptType="application/ecmascript" contentStyleType="text/css" height="391px" preserveAspectRatio="none" style="width:539px;height:391px;" version="1.1" viewBox="0 0 539 391" width="539px" zoomAndPan="magnify"><defs><filter height="300%" id="fmls4pdrlw9df" width="300%" x="-1" y="-1"><feGaussianBlur result="blurOut" stdDeviation="2.0"/><feColorMatrix in="blurOut" result="blurOut2" type="matrix" values="0 0 0 0 0 0 0 0 0 0 0 0 0 0 0 0 0 0 .4 0"/><feOffset dx="4.0" dy="4.0" in="blurOut2" result="blurOut3"/><feBlend in="SourceGraphic" in2="blurOut3" mode="normal"/></filter></defs><g><!--cluster nl.vaneijndhoven.navigation.plot--><polygon fill="#FFFFFF" filter="url(#fmls4pdrlw9df)" points="14,16,252,16,259,38.4883,517,38.4883,517,350,14,350,14,16" style="stroke: #000000; stroke-width: 1.5;"/><line style="stroke: #000000; stroke-width: 1.5;" x1="14" x2="259" y1="38.4883" y2="38.4883"/><text fill="#000000" font-family="sans-serif" font-size="14" font-weight="bold" lengthAdjust="spacingAndGlyphs" textLength="232" x="18" y="31.5352">nl.vaneijndhoven.navigation.plot</text><!--class nl.vaneijndhoven.navigation.plot.StoppingZoneOrientation--><a href="StoppingZoneOrientation.html" target="_top" xlink:actuate="onRequest" xlink:show="new" xlink:title="StoppingZoneOrientation.html" xlink:type="simple"><rect fill="#FEFECE" filter="url(#fmls4pdrlw9df)" height="86.8652" id="nl.vaneijndhoven.navigation.plot.StoppingZoneOrientation" style="stroke: #A80036; stroke-width: 1.5;" width="328" x="22" y="43"/><ellipse cx="111.25" cy="59" fill="#ADD1B2" rx="11" ry="11" style="stroke: #A80036; stroke-width: 1.0;"/><path d="M114.2231,64.6431 Q113.6421,64.9419 113.0029,65.0913 Q112.3638,65.2407 111.6582,65.2407 Q109.1514,65.2407 107.8315,63.5889 Q106.5117,61.937 106.5117,58.8159 Q106.5117,55.6865 107.8315,54.0347 Q109.1514,52.3828 111.6582,52.3828 Q112.3638,52.3828 113.0112,52.5322 Q113.6587,52.6816 114.2231,52.9805 L114.2231,55.7031 Q113.5923,55.1221 112.9988,54.8523 Q112.4053,54.5825 111.7744,54.5825 Q110.4297,54.5825 109.7449,55.6492 Q109.0601,56.7158 109.0601,58.8159 Q109.0601,60.9077 109.7449,61.9744 Q110.4297,63.041 111.7744,63.041 Q112.4053,63.041 112.9988,62.7712 Q113.5923,62.5015 114.2231,61.9204 Z "/><text fill="#000000" font-family="sans-serif" font-size="12" lengthAdjust="spacingAndGlyphs" textLength="141" x="131.75" y="63.5352">StoppingZoneOrientation</text><line style="stroke: #A80036; stroke-width: 1.5;" x1="23" x2="349" y1="75" y2="75"/><line style="stroke: #A80036; stroke-width: 1.5;" x1="23" x2="349" y1="83" y2="83"/><ellipse cx="33" cy="94.9775" fill="#84BE84" rx="3" ry="3" style="stroke: #038048; stroke-width: 1.0;"/><text fill="#000000" font-family="sans-serif" font-size="11" lengthAdjust="spacingAndGlyphs" textLength="302" x="42" y="97.6348">StoppingZoneOrientation(StoppingZone, Lane, ViewPort)</text><ellipse cx="33" cy="107.9326" fill="#84BE84" rx="3" ry="3" style="stroke: #038048; stroke-width: 1.0;"/><text fill="#000000" font-family="sans-serif" font-size="11" lengthAdjust="spacingAndGlyphs" textLength="240" x="42" y="110.5898">determineDistanceToStoppingZone(): double</text><ellipse cx="33" cy="120.8877" fill="#84BE84" rx="3" ry="3" style="stroke: #038048; stroke-width: 1.0;"/><text fill="#000000" font-family="sans-serif" font-size="11" lengthAdjust="spacingAndGlyphs" textLength="260" x="42" y="123.5449">determineDistanceToStoppingZoneEnd(): double</text></a><!--class nl.vaneijndhoven.navigation.plot.ShortestPath--><a href="ShortestPath.html" target="_top" xlink:actuate="onRequest" xlink:show="new" xlink:title="ShortestPath.html" xlink:type="simple"><rect fill="#FEFECE" filter="url(#fmls4pdrlw9df)" height="48" id="nl.vaneijndhoven.navigation.plot.ShortestPath" style="stroke: #A80036; stroke-width: 1.5;" width="103" x="385.5" y="62.5"/><ellipse cx="400.5" cy="78.5" fill="#ADD1B2" rx="11" ry="11" style="stroke: #A80036; stroke-width: 1.0;"/><path d="M403.4731,84.1431 Q402.8921,84.4419 402.2529,84.5913 Q401.6138,84.7407 400.9082,84.7407 Q398.4014,84.7407 397.0815,83.0889 Q395.7617,81.437 395.7617,78.3159 Q395.7617,75.1865 397.0815,73.5347 Q398.4014,71.8828 400.9082,71.8828 Q401.6138,71.8828 402.2612,72.0322 Q402.9087,72.1816 403.4731,72.4805 L403.4731,75.2031 Q402.8423,74.6221 402.2488,74.3523 Q401.6553,74.0825 401.0244,74.0825 Q399.6797,74.0825 398.9949,75.1492 Q398.3101,76.2158 398.3101,78.3159 Q398.3101,80.4077 398.9949,81.4744 Q399.6797,82.541 401.0244,82.541 Q401.6553,82.541 402.2488,82.2712 Q402.8423,82.0015 403.4731,81.4204 Z "/><text fill="#000000" font-family="sans-serif" font-size="12" lengthAdjust="spacingAndGlyphs" textLength="71" x="414.5" y="83.0352">ShortestPath</text><line style="stroke: #A80036; stroke-width: 1.5;" x1="386.5" x2="487.5" y1="94.5" y2="94.5"/><line style="stroke: #A80036; stroke-width: 1.5;" x1="386.5" x2="487.5" y1="102.5" y2="102.5"/></a><!--class nl.vaneijndhoven.navigation.plot.PathPlanner--><a href="PathPlanner.html" target="_top" xlink:actuate="onRequest" xlink:show="new" xlink:title="PathPlanner.html" xlink:type="simple"><rect fill="#FEFECE" filter="url(#fmls4pdrlw9df)" height="73.9102" id="nl.vaneijndhoven.navigation.plot.PathPlanner" style="stroke: #A80036; stroke-width: 1.5;" width="183" x="22.5" y="229"/><ellipse cx="75.75" cy="245" fill="#ADD1B2" rx="11" ry="11" style="stroke: #A80036; stroke-width: 1.0;"/><path d="M78.7231,250.6431 Q78.1421,250.9419 77.5029,251.0913 Q76.8638,251.2407 76.1582,251.2407 Q73.6514,251.2407 72.3315,249.5889 Q71.0117,247.937 71.0117,244.8159 Q71.0117,241.6865 72.3315,240.0347 Q73.6514,238.3828 76.1582,238.3828 Q76.8638,238.3828 77.5112,238.5322 Q78.1587,238.6816 78.7231,238.9805 L78.7231,241.7031 Q78.0923,241.1221 77.4988,240.8523 Q76.9053,240.5825 76.2744,240.5825 Q74.9297,240.5825 74.2449,241.6492 Q73.5601,242.7158 73.5601,244.8159 Q73.5601,246.9077 74.2449,247.9744 Q74.9297,249.041 76.2744,249.041 Q76.9053,249.041 77.4988,248.7712 Q78.0923,248.5015 78.7231,247.9204 Z "/><text fill="#000000" font-family="sans-serif" font-size="12" lengthAdjust="spacingAndGlyphs" textLength="68" x="96.25" y="249.5352">PathPlanner</text><line style="stroke: #A80036; stroke-width: 1.5;" x1="23.5" x2="204.5" y1="261" y2="261"/><line style="stroke: #A80036; stroke-width: 1.5;" x1="23.5" x2="204.5" y1="269" y2="269"/><ellipse cx="33.5" cy="280.9775" fill="#84BE84" rx="3" ry="3" style="stroke: #038048; stroke-width: 1.0;"/><text fill="#000000" font-family="sans-serif" font-size="11" lengthAdjust="spacingAndGlyphs" textLength="157" x="42.5" y="283.6348">PathPlanner(LaneOrientation)</text><ellipse cx="33.5" cy="293.9326" fill="#84BE84" rx="3" ry="3" style="stroke: #038048; stroke-width: 1.0;"/><text fill="#000000" font-family="sans-serif" font-size="11" lengthAdjust="spacingAndGlyphs" textLength="155" x="42.5" y="296.5898">determineDeviation(): double</text></a><!--class nl.vaneijndhoven.navigation.plot.LaneOrientation--><a href="LaneOrientation.html" target="_top" xlink:actuate="onRequest" xlink:show="new" xlink:title="LaneOrientation.html" xlink:type="simple"><rect fill="#FEFECE" filter="url(#fmls4pdrlw9df)" height="151.6406" id="nl.vaneijndhoven.navigation.plot.LaneOrientation" style="stroke: #A80036; stroke-width: 1.5;" width="268" x="241" y="190"/><ellipse cx="325.75" cy="206" fill="#ADD1B2" rx="11" ry="11" style="stroke: #A80036; stroke-width: 1.0;"/><path d="M328.7231,211.6431 Q328.1421,211.9419 327.5029,212.0913 Q326.8638,212.2407 326.1582,212.2407 Q323.6514,212.2407 322.3315,210.5889 Q321.0117,208.937 321.0117,205.8159 Q321.0117,202.6865 322.3315,201.0347 Q323.6514,199.3828 326.1582,199.3828 Q326.8638,199.3828 327.5112,199.5322 Q328.1587,199.6816 328.7231,199.9805 L328.7231,202.7031 Q328.0923,202.1221 327.4988,201.8523 Q326.9053,201.5825 326.2744,201.5825 Q324.9297,201.5825 324.2449,202.6492 Q323.5601,203.7158 323.5601,205.8159 Q323.5601,207.9077 324.2449,208.9744 Q324.9297,210.041 326.2744,210.041 Q326.9053,210.041 327.4988,209.7712 Q328.0923,209.5015 328.7231,208.9204 Z "/><text fill="#000000" font-family="sans-serif" font-size="12" lengthAdjust="spacingAndGlyphs" textLength="90" x="346.25" y="210.5352">LaneOrientation</text><line style="stroke: #A80036; stroke-width: 1.5;" x1="242" x2="508" y1="222" y2="222"/><line style="stroke: #A80036; stroke-width: 1.5;" x1="242" x2="508" y1="230" y2="230"/><ellipse cx="252" cy="241.9775" fill="#84BE84" rx="3" ry="3" style="stroke: #038048; stroke-width: 1.0;"/><text fill="#000000" font-family="sans-serif" font-size="11" lengthAdjust="spacingAndGlyphs" textLength="171" x="261" y="244.6348">LaneOrientation(Lane, ViewPort)</text><ellipse cx="252" cy="254.9326" fill="#84BE84" rx="3" ry="3" style="stroke: #038048; stroke-width: 1.0;"/><text fill="#000000" font-family="sans-serif" font-size="11" lengthAdjust="spacingAndGlyphs" textLength="178" x="261" y="257.5898">determineCurrentAngle(): double</text><ellipse cx="252" cy="267.8877" fill="#84BE84" rx="3" ry="3" style="stroke: #038048; stroke-width: 1.0;"/><text fill="#000000" font-family="sans-serif" font-size="11" lengthAdjust="spacingAndGlyphs" textLength="195" x="261" y="270.5449">distanceFromLeftBoundary(): double</text><ellipse cx="252" cy="280.8428" fill="#84BE84" rx="3" ry="3" style="stroke: #038048; stroke-width: 1.0;"/><text fill="#000000" font-family="sans-serif" font-size="11" lengthAdjust="spacingAndGlyphs" textLength="203" x="261" y="283.5">distanceFromRightBoundary(): double</text><ellipse cx="252" cy="293.7979" fill="#84BE84" rx="3" ry="3" style="stroke: #038048; stroke-width: 1.0;"/><text fill="#000000" font-family="sans-serif" font-size="11" lengthAdjust="spacingAndGlyphs" textLength="200" x="261" y="296.4551">determineDistanceToMiddle(): double</text><ellipse cx="252" cy="306.7529" fill="#84BE84" rx="3" ry="3" style="stroke: #038048; stroke-width: 1.0;"/><text fill="#000000" font-family="sans-serif" font-size="11" lengthAdjust="spacingAndGlyphs" textLength="242" x="261" y="309.4102">determineCourseRelativeToHorizon(): double</text><ellipse cx="252" cy="319.708" fill="#84BE84" rx="3" ry="3" style="stroke: #038048; stroke-width: 1.0;"/><text fill="#000000" font-family="sans-serif" font-size="11" lengthAdjust="spacingAndGlyphs" textLength="214" x="261" y="322.3652">determineLaneMiddle(): Optional&lt;Line&gt;</text><ellipse cx="252" cy="332.6631" fill="#84BE84" rx="3" ry="3" style="stroke: #038048; stroke-width: 1.0;"/><text fill="#000000" font-family="sans-serif" font-size="11" lengthAdjust="spacingAndGlyphs" textLength="178" x="261" y="335.3203">determineBase(): Optional&lt;Line&gt;</text></a><!--link nl.vaneijndhoven.navigation.plot.StoppingZoneOrientation to nl.vaneijndhoven.navigation.plot.ShortestPath--><!--link nl.vaneijndhoven.navigation.plot.StoppingZoneOrientation to nl.vaneijndhoven.navigation.plot.PathPlanner--><!--link nl.vaneijndhoven.navigation.plot.PathPlanner to nl.vaneijndhoven.navigation.plot.LaneOrientation--><text fill="#888888" font-family="sans-serif" font-size="10" lengthAdjust="spacingAndGlyphs" textLength="182" x="180.5" y="377.668">UMLDoclet 1.1.4, PlantUML 1.2019.05</text><!--
@startuml

    namespace nl.vaneijndhoven.navigation.plot {

        class StoppingZoneOrientation [[StoppingZoneOrientation.html]] {
            +StoppingZoneOrientation(StoppingZone, Lane, ViewPort)
            +determineDistanceToStoppingZone(): double
            +determineDistanceToStoppingZoneEnd(): double
        }

        class ShortestPath [[ShortestPath.html]] {
        }

        class PathPlanner [[PathPlanner.html]] {
            +PathPlanner(LaneOrientation)
            +determineDeviation(): double
        }

        class LaneOrientation [[LaneOrientation.html]] {
            +LaneOrientation(Lane, ViewPort)
            +determineCurrentAngle(): double
            +distanceFromLeftBoundary(): double
            +distanceFromRightBoundary(): double
            +determineDistanceToMiddle(): double
            +determineCourseRelativeToHorizon(): double
            +determineLaneMiddle(): Optional<Line>
            +determineBase(): Optional<Line>
        }

    }


    center footer UMLDoclet 1.1.4, PlantUML 1.2019.05
@enduml

PlantUML version 1.2019.05(Sat Apr 20 18:45:36 CEST 2019)
(APACHE source distribution)
Java Runtime: Java(TM) SE Runtime Environment
JVM: Java HotSpot(TM) 64-Bit Server VM
Java Version: 1.8.0_191-b12
Operating System: Mac OS X
OS Version: 10.13.6
Default Encoding: UTF-8
Language: de
Country: DE
--></g></svg>