<?xml version="1.0" encoding="UTF-8" standalone="no"?><svg xmlns="http://www.w3.org/2000/svg" xmlns:xlink="http://www.w3.org/1999/xlink" contentScriptType="application/ecmascript" contentStyleType="text/css" height="154px" preserveAspectRatio="none" style="width:209px;height:154px;" version="1.1" viewBox="0 0 209 154" width="209px" zoomAndPan="magnify"><defs><filter height="300%" id="frfb98o4cyhjh" width="300%" x="-1" y="-1"><feGaussianBlur result="blurOut" stdDeviation="2.0"/><feColorMatrix in="blurOut" result="blurOut2" type="matrix" values="0 0 0 0 0 0 0 0 0 0 0 0 0 0 0 0 0 0 .4 0"/><feOffset dx="4.0" dy="4.0" in="blurOut2" result="blurOut3"/><feBlend in="SourceGraphic" in2="blurOut3" mode="normal"/></filter></defs><g><!--class WatchDog--><a href="WatchDog.html" target="_top" xlink:actuate="onRequest" xlink:show="new" xlink:title="WatchDog.html" xlink:type="simple"><rect fill="#FEFECE" filter="url(#frfb98o4cyhjh)" height="112.7754" id="WatchDog" style="stroke: #A80036; stroke-width: 1.5;" width="188" x="6" y="8"/><ellipse cx="67.25" cy="24" fill="#ADD1B2" rx="11" ry="11" style="stroke: #A80036; stroke-width: 1.0;"/><path d="M70.2231,29.6431 Q69.6421,29.9419 69.0029,30.0913 Q68.3638,30.2407 67.6582,30.2407 Q65.1514,30.2407 63.8315,28.5889 Q62.5117,26.937 62.5117,23.8159 Q62.5117,20.6865 63.8315,19.0347 Q65.1514,17.3828 67.6582,17.3828 Q68.3638,17.3828 69.0112,17.5322 Q69.6587,17.6816 70.2231,17.9805 L70.2231,20.7031 Q69.5923,20.1221 68.9988,19.8523 Q68.4053,19.5825 67.7744,19.5825 Q66.4297,19.5825 65.7449,20.6492 Q65.0601,21.7158 65.0601,23.8159 Q65.0601,25.9077 65.7449,26.9744 Q66.4297,28.041 67.7744,28.041 Q68.4053,28.041 68.9988,27.7712 Q69.5923,27.5015 70.2231,26.9204 Z "/><text fill="#000000" font-family="sans-serif" font-size="12" lengthAdjust="spacingAndGlyphs" textLength="57" x="87.75" y="28.5352">WatchDog</text><line style="stroke: #A80036; stroke-width: 1.5;" x1="7" x2="193" y1="40" y2="40"/><polygon fill="none" points="17,46.9775,21,50.9775,17,54.9775,13,50.9775" style="stroke: #B38D22; stroke-width: 1.0;"/><text fill="#000000" font-family="sans-serif" font-size="11" lengthAdjust="spacingAndGlyphs" text-decoration="underline" textLength="162" x="26" y="54.6348">HEARTBEAT_INTERVAL_MS: int</text><polygon fill="none" points="17,59.9326,21,63.9326,17,67.9326,13,63.9326" style="stroke: #B38D22; stroke-width: 1.0;"/><text fill="#000000" font-family="sans-serif" font-size="11" lengthAdjust="spacingAndGlyphs" text-decoration="underline" textLength="127" x="26" y="67.5898">MAX_MISSED_BEATS: int</text><polygon fill="none" points="17,72.8877,21,76.8877,17,80.8877,13,76.8877" style="stroke: #B38D22; stroke-width: 1.0;"/><text fill="#000000" font-family="sans-serif" font-size="11" lengthAdjust="spacingAndGlyphs" textLength="142" x="26" y="80.5449">subscription: Subscription</text><line style="stroke: #A80036; stroke-width: 1.5;" x1="7" x2="193" y1="86.8652" y2="86.8652"/><ellipse cx="17" cy="98.8428" fill="#84BE84" rx="3" ry="3" style="stroke: #038048; stroke-width: 1.0;"/><text fill="#000000" font-family="sans-serif" font-size="11" lengthAdjust="spacingAndGlyphs" textLength="81" x="26" y="101.5">WatchDog(Car)</text><ellipse cx="17" cy="111.7979" fill="#84BE84" rx="3" ry="3" style="stroke: #038048; stroke-width: 1.0;"/><text fill="#000000" font-family="sans-serif" font-size="11" lengthAdjust="spacingAndGlyphs" textLength="62" x="26" y="114.4551">start(): void</text></a><text fill="#888888" font-family="sans-serif" font-size="10" lengthAdjust="spacingAndGlyphs" textLength="182" x="15" y="140.668">UMLDoclet 1.1.4, PlantUML 1.2019.05</text><!--
@startuml

    class WatchDog [[WatchDog.html]] {
        {static} #HEARTBEAT_INTERVAL_MS: int
        {static} #MAX_MISSED_BEATS: int
        #subscription: Subscription
        +WatchDog(Car)
        +start(): void
    }


    center footer UMLDoclet 1.1.4, PlantUML 1.2019.05
@enduml

PlantUML version 1.2019.05(Sat Apr 20 18:45:36 CEST 2019)
(APACHE source distribution)
Java Runtime: Java(TM) SE Runtime Environment
JVM: Java HotSpot(TM) 64-Bit Server VM
Java Version: 1.8.0_152-b16
Operating System: Mac OS X
OS Version: 10.13.6
Default Encoding: UTF-8
Language: de
Country: DE
--></g></svg>