<?xml version="1.0" encoding="UTF-8" standalone="no"?><svg xmlns="http://www.w3.org/2000/svg" xmlns:xlink="http://www.w3.org/1999/xlink" contentScriptType="application/ecmascript" contentStyleType="text/css" height="270px" preserveAspectRatio="none" style="width:418px;height:270px;" version="1.1" viewBox="0 0 418 270" width="418px" zoomAndPan="magnify"><defs><filter height="300%" id="f93ajivdm9fyn" width="300%" x="-1" y="-1"><feGaussianBlur result="blurOut" stdDeviation="2.0"/><feColorMatrix in="blurOut" result="blurOut2" type="matrix" values="0 0 0 0 0 0 0 0 0 0 0 0 0 0 0 0 0 0 .4 0"/><feOffset dx="4.0" dy="4.0" in="blurOut2" result="blurOut3"/><feBlend in="SourceGraphic" in2="blurOut3" mode="normal"/></filter></defs><g><!--class DebugImageServer--><a href="DebugImageServer.html" target="_top" xlink:actuate="onRequest" xlink:show="new" xlink:title="DebugImageServer.html" xlink:type="simple"><rect fill="#FEFECE" filter="url(#f93ajivdm9fyn)" height="229.3711" id="DebugImageServer" style="stroke: #A80036; stroke-width: 1.5;" width="401" x="6" y="8"/><ellipse cx="147.75" cy="24" fill="#ADD1B2" rx="11" ry="11" style="stroke: #A80036; stroke-width: 1.0;"/><path d="M150.7231,29.6431 Q150.1421,29.9419 149.5029,30.0913 Q148.8638,30.2407 148.1582,30.2407 Q145.6514,30.2407 144.3315,28.5889 Q143.0117,26.937 143.0117,23.8159 Q143.0117,20.6865 144.3315,19.0347 Q145.6514,17.3828 148.1582,17.3828 Q148.8638,17.3828 149.5112,17.5322 Q150.1587,17.6816 150.7231,17.9805 L150.7231,20.7031 Q150.0923,20.1221 149.4988,19.8523 Q148.9053,19.5825 148.2744,19.5825 Q146.9297,19.5825 146.2449,20.6492 Q145.5601,21.7158 145.5601,23.8159 Q145.5601,25.9077 146.2449,26.9744 Q146.9297,28.041 148.2744,28.041 Q148.9053,28.041 149.4988,27.7712 Q150.0923,27.5015 150.7231,26.9204 Z "/><text fill="#000000" font-family="sans-serif" font-size="12" lengthAdjust="spacingAndGlyphs" textLength="109" x="168.25" y="28.5352">DebugImageServer</text><line style="stroke: #A80036; stroke-width: 1.5;" x1="7" x2="406" y1="40" y2="40"/><ellipse cx="17" cy="51.9775" fill="none" rx="3" ry="3" style="stroke: #038048; stroke-width: 1.0;"/><text fill="#000000" font-family="sans-serif" font-size="11" lengthAdjust="spacingAndGlyphs" text-decoration="underline" textLength="159" x="26" y="54.6348">SERVE_TEST_IMAGES: boolean</text><ellipse cx="17" cy="64.9326" fill="none" rx="3" ry="3" style="stroke: #038048; stroke-width: 1.0;"/><text fill="#000000" font-family="sans-serif" font-size="11" lengthAdjust="spacingAndGlyphs" text-decoration="underline" textLength="250" x="26" y="67.5898">imageFormat: DebugImageServer.ImageFormat</text><ellipse cx="17" cy="77.8877" fill="none" rx="3" ry="3" style="stroke: #038048; stroke-width: 1.0;"/><text fill="#000000" font-family="sans-serif" font-size="11" lengthAdjust="spacingAndGlyphs" text-decoration="underline" textLength="69" x="26" y="80.5449">exts: String[]</text><ellipse cx="17" cy="90.8428" fill="none" rx="3" ry="3" style="stroke: #038048; stroke-width: 1.0;"/><text fill="#000000" font-family="sans-serif" font-size="11" lengthAdjust="spacingAndGlyphs" text-decoration="underline" textLength="119" x="26" y="93.5">contentTypes: String[]</text><ellipse cx="17" cy="103.7979" fill="none" rx="3" ry="3" style="stroke: #038048; stroke-width: 1.0;"/><text fill="#000000" font-family="sans-serif" font-size="11" lengthAdjust="spacingAndGlyphs" text-decoration="underline" textLength="60" x="26" y="106.4551">fps: double</text><polygon fill="none" points="17,111.7529,21,115.7529,17,119.7529,13,115.7529" style="stroke: #B38D22; stroke-width: 1.0;"/><text fill="#000000" font-family="sans-serif" font-size="11" lengthAdjust="spacingAndGlyphs" textLength="97" x="26" y="119.4102">server: HttpServer</text><line style="stroke: #A80036; stroke-width: 1.5;" x1="7" x2="406" y1="125.7305" y2="125.7305"/><ellipse cx="17" cy="137.708" fill="#84BE84" rx="3" ry="3" style="stroke: #038048; stroke-width: 1.0;"/><text fill="#000000" font-family="sans-serif" font-size="11" lengthAdjust="spacingAndGlyphs" textLength="139" x="26" y="140.3652">start(Future&lt;Void&gt;): void</text><polygon fill="#FFFF44" points="17,145.6631,21,149.6631,17,153.6631,13,149.6631" style="stroke: #B38D22; stroke-width: 1.0;"/><text fill="#000000" font-family="sans-serif" font-size="11" lengthAdjust="spacingAndGlyphs" textLength="254" x="26" y="153.3203">receiveSimulatorImage(Message&lt;String&gt;): void</text><ellipse cx="17" cy="163.6182" fill="#84BE84" rx="3" ry="3" style="stroke: #038048; stroke-width: 1.0;"/><text fill="#000000" font-family="sans-serif" font-size="11" lengthAdjust="spacingAndGlyphs" textLength="262" x="26" y="166.2754">getNextImage(ImageCollector.ImageType): Image</text><polygon fill="#FFFF44" points="17,171.5732,21,175.5732,17,179.5732,13,175.5732" style="stroke: #B38D22; stroke-width: 1.0;"/><text fill="#000000" font-family="sans-serif" font-size="11" lengthAdjust="spacingAndGlyphs" textLength="99" x="26" y="179.2305">shootPhoto(): void</text><ellipse cx="17" cy="189.5283" fill="#84BE84" rx="3" ry="3" style="stroke: #038048; stroke-width: 1.0;"/><text fill="#000000" font-family="sans-serif" font-size="11" lengthAdjust="spacingAndGlyphs" textLength="195" x="26" y="192.1855">sendImage(HttpServerRequest): void</text><ellipse cx="17" cy="202.4834" fill="#84BE84" rx="3" ry="3" style="stroke: #038048; stroke-width: 1.0;"/><text fill="#000000" font-family="sans-serif" font-size="11" lengthAdjust="spacingAndGlyphs" textLength="375" x="26" y="205.1406">sendSingleImage(HttpServerRequest, ImageCollector.ImageType): void</text><ellipse cx="17" cy="215.4385" fill="#84BE84" rx="3" ry="3" style="stroke: #038048; stroke-width: 1.0;"/><text fill="#000000" font-family="sans-serif" font-size="11" lengthAdjust="spacingAndGlyphs" textLength="260" x="26" y="218.0957">sendImageBytes(HttpServerRequest, byte[]): void</text><ellipse cx="17" cy="228.3936" fill="#84BE84" rx="3" ry="3" style="stroke: #038048; stroke-width: 1.0;"/><text fill="#000000" font-family="sans-serif" font-size="11" lengthAdjust="spacingAndGlyphs" textLength="273" x="26" y="231.0508">recordFrame(Mat, ImageCollector.ImageType): void</text></a><text fill="#888888" font-family="sans-serif" font-size="10" lengthAdjust="spacingAndGlyphs" textLength="182" x="121.5" y="256.668">UMLDoclet 1.1.4, PlantUML 1.2019.05</text><!--
@startuml

    class DebugImageServer [[DebugImageServer.html]] {
        {static} +SERVE_TEST_IMAGES: boolean
        {static} +imageFormat: DebugImageServer.ImageFormat
        {static} +exts: String[]
        {static} +contentTypes: String[]
        {static} +fps: double
        #server: HttpServer
        +start(Future<Void>): void
        #receiveSimulatorImage(Message<String>): void
        +getNextImage(ImageCollector.ImageType): Image
        #shootPhoto(): void
        +sendImage(HttpServerRequest): void
        +sendSingleImage(HttpServerRequest, ImageCollector.ImageType): void
        +sendImageBytes(HttpServerRequest, byte[]): void
        +recordFrame(Mat, ImageCollector.ImageType): void
    }


    center footer UMLDoclet 1.1.4, PlantUML 1.2019.05
@enduml

PlantUML version 1.2019.05(Sat Apr 20 18:45:36 CEST 2019)
(APACHE source distribution)
Java Runtime: Java(TM) SE Runtime Environment
JVM: Java HotSpot(TM) 64-Bit Server VM
Java Version: 1.8.0_152-b16
Operating System: Mac OS X
OS Version: 10.13.6
Default Encoding: UTF-8
Language: de
Country: DE
--></g></svg>