<?xml version="1.0" encoding="UTF-8" standalone="no"?><svg xmlns="http://www.w3.org/2000/svg" xmlns:xlink="http://www.w3.org/1999/xlink" contentScriptType="application/ecmascript" contentStyleType="text/css" height="576px" preserveAspectRatio="none" style="width:1658px;height:576px;" version="1.1" viewBox="0 0 1658 576" width="1658px" zoomAndPan="magnify"><defs><filter height="300%" id="fxf5btt7euukh" width="300%" x="-1" y="-1"><feGaussianBlur result="blurOut" stdDeviation="2.0"/><feColorMatrix in="blurOut" result="blurOut2" type="matrix" values="0 0 0 0 0 0 0 0 0 0 0 0 0 0 0 0 0 0 .4 0"/><feOffset dx="4.0" dy="4.0" in="blurOut2" result="blurOut3"/><feBlend in="SourceGraphic" in2="blurOut3" mode="normal"/></filter></defs><g><!--cluster org.rcdukes.imageview--><polygon fill="#FFFFFF" filter="url(#fxf5btt7euukh)" points="14,137,183,137,190,159.4883,1636,159.4883,1636,535,14,535,14,137" style="stroke: #000000; stroke-width: 1.5;"/><line style="stroke: #000000; stroke-width: 1.5;" x1="14" x2="190" y1="159.4883" y2="159.4883"/><text fill="#000000" font-family="sans-serif" font-size="14" font-weight="bold" lengthAdjust="spacingAndGlyphs" textLength="163" x="18" y="152.5352">org.rcdukes.imageview</text><!--cluster rx--><polygon fill="#FFFFFF" filter="url(#fxf5btt7euukh)" points="54,22.5,74,22.5,81,44.9883,176,44.9883,176,105.5,54,105.5,54,22.5" style="stroke: #000000; stroke-width: 1.5;"/><line style="stroke: #000000; stroke-width: 1.5;" x1="54" x2="81" y1="44.9883" y2="44.9883"/><text fill="#000000" font-family="sans-serif" font-size="14" font-weight="bold" lengthAdjust="spacingAndGlyphs" textLength="14" x="58" y="38.0352">rx</text><!--cluster java.lang--><polygon fill="#FFFFFF" filter="url(#fxf5btt7euukh)" points="439,16,508,16,515,38.4883,541,38.4883,541,112,439,112,439,16" style="stroke: #000000; stroke-width: 1.5;"/><line style="stroke: #000000; stroke-width: 1.5;" x1="439" x2="515" y1="38.4883" y2="38.4883"/><text fill="#000000" font-family="sans-serif" font-size="14" font-weight="bold" lengthAdjust="spacingAndGlyphs" textLength="63" x="443" y="31.5352">java.lang</text><!--cluster org.rcdukes.common--><polygon fill="#FFFFFF" filter="url(#fxf5btt7euukh)" points="891,22.5,1045,22.5,1052,44.9883,1055,44.9883,1055,105.5,891,105.5,891,22.5" style="stroke: #000000; stroke-width: 1.5;"/><line style="stroke: #000000; stroke-width: 1.5;" x1="891" x2="1052" y1="44.9883" y2="44.9883"/><text fill="#000000" font-family="sans-serif" font-size="14" font-weight="bold" lengthAdjust="spacingAndGlyphs" textLength="148" x="895" y="38.0352">org.rcdukes.common</text><!--class org.rcdukes.imageview.MJpegHandler--><a href="MJpegHandler.html" target="_top" xlink:actuate="onRequest" xlink:show="new" xlink:title="MJpegHandler.html" xlink:type="simple"><rect fill="#FEFECE" filter="url(#fxf5btt7euukh)" height="112.7754" id="org.rcdukes.imageview.MJpegHandler" style="stroke: #A80036; stroke-width: 1.5;" width="419" x="1208.5" y="222"/><ellipse cx="1372.75" cy="238" fill="#ADD1B2" rx="11" ry="11" style="stroke: #A80036; stroke-width: 1.0;"/><path d="M1375.7231,243.6431 Q1375.1421,243.9419 1374.5029,244.0913 Q1373.8638,244.2407 1373.1582,244.2407 Q1370.6514,244.2407 1369.3315,242.5889 Q1368.0117,240.937 1368.0117,237.8159 Q1368.0117,234.6865 1369.3315,233.0347 Q1370.6514,231.3828 1373.1582,231.3828 Q1373.8638,231.3828 1374.5112,231.5322 Q1375.1587,231.6816 1375.7231,231.9805 L1375.7231,234.7031 Q1375.0923,234.1221 1374.4988,233.8523 Q1373.9053,233.5825 1373.2744,233.5825 Q1371.9297,233.5825 1371.2449,234.6492 Q1370.5601,235.7158 1370.5601,237.8159 Q1370.5601,239.9077 1371.2449,240.9744 Q1371.9297,242.041 1373.2744,242.041 Q1373.9053,242.041 1374.4988,241.7712 Q1375.0923,241.5015 1375.7231,240.9204 Z "/><text fill="#000000" font-family="sans-serif" font-size="12" lengthAdjust="spacingAndGlyphs" textLength="82" x="1393.25" y="242.5352">MJpegHandler</text><line style="stroke: #A80036; stroke-width: 1.5;" x1="1209.5" x2="1626.5" y1="254" y2="254"/><line style="stroke: #A80036; stroke-width: 1.5;" x1="1209.5" x2="1626.5" y1="262" y2="262"/><ellipse cx="1219.5" cy="273.9775" fill="#84BE84" rx="3" ry="3" style="stroke: #038048; stroke-width: 1.0;"/><text fill="#000000" font-family="sans-serif" font-size="11" lengthAdjust="spacingAndGlyphs" textLength="114" x="1228.5" y="276.6348">MJpegHandler(String)</text><ellipse cx="1219.5" cy="286.9326" fill="#84BE84" rx="3" ry="3" style="stroke: #038048; stroke-width: 1.0;"/><text fill="#000000" font-family="sans-serif" font-size="11" lengthAdjust="spacingAndGlyphs" textLength="82" x="1228.5" y="289.5898">MJpegHandler()</text><ellipse cx="1219.5" cy="299.8877" fill="#84BE84" rx="3" ry="3" style="stroke: #038048; stroke-width: 1.0;"/><text fill="#000000" font-family="sans-serif" font-size="11" lengthAdjust="spacingAndGlyphs" textLength="393" x="1228.5" y="302.5449">getInputStream(): BodyDeferringAsyncHandler.BodyDeferringInputStream</text><ellipse cx="1219.5" cy="312.8428" fill="#84BE84" rx="3" ry="3" style="stroke: #038048; stroke-width: 1.0;"/><text fill="#000000" font-family="sans-serif" font-size="11" lengthAdjust="spacingAndGlyphs" textLength="132" x="1228.5" y="315.5">open(int): MJpegDecoder</text><ellipse cx="1219.5" cy="325.7979" fill="#84BE84" rx="3" ry="3" style="stroke: #038048; stroke-width: 1.0;"/><text fill="#000000" font-family="sans-serif" font-size="11" lengthAdjust="spacingAndGlyphs" textLength="65" x="1228.5" y="328.4551">close(): void</text></a><!--class org.rcdukes.imageview.MJpegDecoder--><a href="MJpegDecoder.html" target="_top" xlink:actuate="onRequest" xlink:show="new" xlink:title="MJpegDecoder.html" xlink:type="simple"><rect fill="#FEFECE" filter="url(#fxf5btt7euukh)" height="151.6406" id="org.rcdukes.imageview.MJpegDecoder" style="stroke: #A80036; stroke-width: 1.5;" width="185" x="22.5" y="202.5"/><ellipse cx="68.25" cy="218.5" fill="#ADD1B2" rx="11" ry="11" style="stroke: #A80036; stroke-width: 1.0;"/><path d="M71.2231,224.1431 Q70.6421,224.4419 70.0029,224.5913 Q69.3638,224.7407 68.6582,224.7407 Q66.1514,224.7407 64.8315,223.0889 Q63.5117,221.437 63.5117,218.3159 Q63.5117,215.1865 64.8315,213.5347 Q66.1514,211.8828 68.6582,211.8828 Q69.3638,211.8828 70.0112,212.0322 Q70.6587,212.1816 71.2231,212.4805 L71.2231,215.2031 Q70.5923,214.6221 69.9988,214.3523 Q69.4053,214.0825 68.7744,214.0825 Q67.4297,214.0825 66.7449,215.1492 Q66.0601,216.2158 66.0601,218.3159 Q66.0601,220.4077 66.7449,221.4744 Q67.4297,222.541 68.7744,222.541 Q69.4053,222.541 69.9988,222.2712 Q70.5923,222.0015 71.2231,221.4204 Z "/><text fill="#000000" font-family="sans-serif" font-size="12" lengthAdjust="spacingAndGlyphs" textLength="85" x="88.75" y="223.0352">MJpegDecoder</text><line style="stroke: #A80036; stroke-width: 1.5;" x1="23.5" x2="206.5" y1="234.5" y2="234.5"/><polygon fill="none" points="33.5,241.4775,37.5,245.4775,33.5,249.4775,29.5,245.4775" style="stroke: #B38D22; stroke-width: 1.0;"/><text fill="#000000" font-family="sans-serif" font-size="11" lengthAdjust="spacingAndGlyphs" text-decoration="underline" textLength="67" x="42.5" y="249.1348">LOG: Logger</text><ellipse cx="33.5" cy="259.4326" fill="none" rx="3" ry="3" style="stroke: #038048; stroke-width: 1.0;"/><text fill="#000000" font-family="sans-serif" font-size="11" lengthAdjust="spacingAndGlyphs" text-decoration="underline" textLength="83" x="42.5" y="262.0898">debug: boolean</text><line style="stroke: #A80036; stroke-width: 1.5;" x1="23.5" x2="206.5" y1="268.4102" y2="268.4102"/><ellipse cx="33.5" cy="280.3877" fill="#84BE84" rx="3" ry="3" style="stroke: #038048; stroke-width: 1.0;"/><text fill="#000000" font-family="sans-serif" font-size="11" lengthAdjust="spacingAndGlyphs" textLength="159" x="42.5" y="283.0449">MJpegDecoder(MJpegHandler)</text><ellipse cx="33.5" cy="293.3428" fill="#84BE84" rx="3" ry="3" style="stroke: #038048; stroke-width: 1.0;"/><text fill="#000000" font-family="sans-serif" font-size="11" lengthAdjust="spacingAndGlyphs" textLength="109" x="42.5" y="296">onCompleted(): void</text><ellipse cx="33.5" cy="306.2979" fill="#84BE84" rx="3" ry="3" style="stroke: #038048; stroke-width: 1.0;"/><text fill="#000000" font-family="sans-serif" font-size="11" lengthAdjust="spacingAndGlyphs" textLength="135" x="42.5" y="308.9551">onError(Throwable): void</text><ellipse cx="33.5" cy="319.2529" fill="#84BE84" rx="3" ry="3" style="stroke: #038048; stroke-width: 1.0;"/><text fill="#000000" font-family="sans-serif" font-size="11" lengthAdjust="spacingAndGlyphs" textLength="107" x="42.5" y="321.9102">onNext(byte[]): void</text><ellipse cx="33.5" cy="332.208" fill="#84BE84" rx="3" ry="3" style="stroke: #038048; stroke-width: 1.0;"/><text fill="#000000" font-family="sans-serif" font-size="11" lengthAdjust="spacingAndGlyphs" textLength="78" x="42.5" y="334.8652">open(int): void</text><ellipse cx="33.5" cy="345.1631" fill="#84BE84" rx="3" ry="3" style="stroke: #038048; stroke-width: 1.0;"/><text fill="#000000" font-family="sans-serif" font-size="11" lengthAdjust="spacingAndGlyphs" textLength="65" x="42.5" y="347.8203">close(): void</text></a><!--class org.rcdukes.imageview.MultipartStreamer--><a href="MultipartStreamer.html" target="_top" xlink:actuate="onRequest" xlink:show="new" xlink:title="MultipartStreamer.html" xlink:type="simple"><rect fill="#FEFECE" filter="url(#fxf5btt7euukh)" height="112.7754" id="org.rcdukes.imageview.MultipartStreamer" style="stroke: #A80036; stroke-width: 1.5;" width="494" x="243" y="222"/><ellipse cx="434.25" cy="238" fill="#ADD1B2" rx="11" ry="11" style="stroke: #A80036; stroke-width: 1.0;"/><path d="M437.2231,243.6431 Q436.6421,243.9419 436.0029,244.0913 Q435.3638,244.2407 434.6582,244.2407 Q432.1514,244.2407 430.8315,242.5889 Q429.5117,240.937 429.5117,237.8159 Q429.5117,234.6865 430.8315,233.0347 Q432.1514,231.3828 434.6582,231.3828 Q435.3638,231.3828 436.0112,231.5322 Q436.6587,231.6816 437.2231,231.9805 L437.2231,234.7031 Q436.5923,234.1221 435.9988,233.8523 Q435.4053,233.5825 434.7744,233.5825 Q433.4297,233.5825 432.7449,234.6492 Q432.0601,235.7158 432.0601,237.8159 Q432.0601,239.9077 432.7449,240.9744 Q433.4297,242.041 434.7744,242.041 Q435.4053,242.041 435.9988,241.7712 Q436.5923,241.5015 437.2231,240.9204 Z "/><text fill="#000000" font-family="sans-serif" font-size="12" lengthAdjust="spacingAndGlyphs" textLength="103" x="454.75" y="242.5352">MultipartStreamer</text><line style="stroke: #A80036; stroke-width: 1.5;" x1="244" x2="736" y1="254" y2="254"/><line style="stroke: #A80036; stroke-width: 1.5;" x1="244" x2="736" y1="262" y2="262"/><ellipse cx="254" cy="273.9775" fill="#84BE84" rx="3" ry="3" style="stroke: #038048; stroke-width: 1.0;"/><text fill="#000000" font-family="sans-serif" font-size="11" lengthAdjust="spacingAndGlyphs" textLength="468" x="263" y="276.6348">MultipartStreamer(DebugImageServer, HttpServerResponse, ImageCollector.ImageType)</text><ellipse cx="254" cy="286.9326" fill="#84BE84" rx="3" ry="3" style="stroke: #038048; stroke-width: 1.0;"/><text fill="#000000" font-family="sans-serif" font-size="11" lengthAdjust="spacingAndGlyphs" textLength="131" x="263" y="289.5898">streamNextImage(): void</text><ellipse cx="254" cy="299.8877" fill="#84BE84" rx="3" ry="3" style="stroke: #038048; stroke-width: 1.0;"/><text fill="#000000" font-family="sans-serif" font-size="11" lengthAdjust="spacingAndGlyphs" textLength="175" x="263" y="302.5449">writeMultiPartFrame(Buffer): void</text><ellipse cx="254" cy="312.8428" fill="#84BE84" rx="3" ry="3" style="stroke: #038048; stroke-width: 1.0;"/><text fill="#000000" font-family="sans-serif" font-size="11" lengthAdjust="spacingAndGlyphs" textLength="87" x="263" y="315.5">preamble(): void</text><ellipse cx="254" cy="325.7979" fill="#84BE84" rx="3" ry="3" style="stroke: #038048; stroke-width: 1.0;"/><text fill="#000000" font-family="sans-serif" font-size="11" lengthAdjust="spacingAndGlyphs" textLength="56" x="263" y="328.4551">run(): void</text></a><!--class org.rcdukes.imageview.DebugImageServer--><a href="DebugImageServer.html" target="_top" xlink:actuate="onRequest" xlink:show="new" xlink:title="DebugImageServer.html" xlink:type="simple"><rect fill="#FEFECE" filter="url(#fxf5btt7euukh)" height="229.3711" id="org.rcdukes.imageview.DebugImageServer" style="stroke: #A80036; stroke-width: 1.5;" width="401" x="772.5" y="164"/><ellipse cx="914.25" cy="180" fill="#ADD1B2" rx="11" ry="11" style="stroke: #A80036; stroke-width: 1.0;"/><path d="M917.2231,185.6431 Q916.6421,185.9419 916.0029,186.0913 Q915.3638,186.2407 914.6582,186.2407 Q912.1514,186.2407 910.8315,184.5889 Q909.5117,182.937 909.5117,179.8159 Q909.5117,176.6865 910.8315,175.0347 Q912.1514,173.3828 914.6582,173.3828 Q915.3638,173.3828 916.0112,173.5322 Q916.6587,173.6816 917.2231,173.9805 L917.2231,176.7031 Q916.5923,176.1221 915.9988,175.8523 Q915.4053,175.5825 914.7744,175.5825 Q913.4297,175.5825 912.7449,176.6492 Q912.0601,177.7158 912.0601,179.8159 Q912.0601,181.9077 912.7449,182.9744 Q913.4297,184.041 914.7744,184.041 Q915.4053,184.041 915.9988,183.7712 Q916.5923,183.5015 917.2231,182.9204 Z "/><text fill="#000000" font-family="sans-serif" font-size="12" lengthAdjust="spacingAndGlyphs" textLength="109" x="934.75" y="184.5352">DebugImageServer</text><line style="stroke: #A80036; stroke-width: 1.5;" x1="773.5" x2="1172.5" y1="196" y2="196"/><ellipse cx="783.5" cy="207.9775" fill="none" rx="3" ry="3" style="stroke: #038048; stroke-width: 1.0;"/><text fill="#000000" font-family="sans-serif" font-size="11" lengthAdjust="spacingAndGlyphs" text-decoration="underline" textLength="159" x="792.5" y="210.6348">SERVE_TEST_IMAGES: boolean</text><ellipse cx="783.5" cy="220.9326" fill="none" rx="3" ry="3" style="stroke: #038048; stroke-width: 1.0;"/><text fill="#000000" font-family="sans-serif" font-size="11" lengthAdjust="spacingAndGlyphs" text-decoration="underline" textLength="250" x="792.5" y="223.5898">imageFormat: DebugImageServer.ImageFormat</text><ellipse cx="783.5" cy="233.8877" fill="none" rx="3" ry="3" style="stroke: #038048; stroke-width: 1.0;"/><text fill="#000000" font-family="sans-serif" font-size="11" lengthAdjust="spacingAndGlyphs" text-decoration="underline" textLength="69" x="792.5" y="236.5449">exts: String[]</text><ellipse cx="783.5" cy="246.8428" fill="none" rx="3" ry="3" style="stroke: #038048; stroke-width: 1.0;"/><text fill="#000000" font-family="sans-serif" font-size="11" lengthAdjust="spacingAndGlyphs" text-decoration="underline" textLength="119" x="792.5" y="249.5">contentTypes: String[]</text><ellipse cx="783.5" cy="259.7979" fill="none" rx="3" ry="3" style="stroke: #038048; stroke-width: 1.0;"/><text fill="#000000" font-family="sans-serif" font-size="11" lengthAdjust="spacingAndGlyphs" text-decoration="underline" textLength="60" x="792.5" y="262.4551">fps: double</text><polygon fill="none" points="783.5,267.7529,787.5,271.7529,783.5,275.7529,779.5,271.7529" style="stroke: #B38D22; stroke-width: 1.0;"/><text fill="#000000" font-family="sans-serif" font-size="11" lengthAdjust="spacingAndGlyphs" textLength="97" x="792.5" y="275.4102">server: HttpServer</text><line style="stroke: #A80036; stroke-width: 1.5;" x1="773.5" x2="1172.5" y1="281.7305" y2="281.7305"/><ellipse cx="783.5" cy="293.708" fill="#84BE84" rx="3" ry="3" style="stroke: #038048; stroke-width: 1.0;"/><text fill="#000000" font-family="sans-serif" font-size="11" lengthAdjust="spacingAndGlyphs" textLength="139" x="792.5" y="296.3652">start(Future&lt;Void&gt;): void</text><polygon fill="#FFFF44" points="783.5,301.6631,787.5,305.6631,783.5,309.6631,779.5,305.6631" style="stroke: #B38D22; stroke-width: 1.0;"/><text fill="#000000" font-family="sans-serif" font-size="11" lengthAdjust="spacingAndGlyphs" textLength="254" x="792.5" y="309.3203">receiveSimulatorImage(Message&lt;String&gt;): void</text><ellipse cx="783.5" cy="319.6182" fill="#84BE84" rx="3" ry="3" style="stroke: #038048; stroke-width: 1.0;"/><text fill="#000000" font-family="sans-serif" font-size="11" lengthAdjust="spacingAndGlyphs" textLength="262" x="792.5" y="322.2754">getNextImage(ImageCollector.ImageType): Image</text><polygon fill="#FFFF44" points="783.5,327.5732,787.5,331.5732,783.5,335.5732,779.5,331.5732" style="stroke: #B38D22; stroke-width: 1.0;"/><text fill="#000000" font-family="sans-serif" font-size="11" lengthAdjust="spacingAndGlyphs" textLength="99" x="792.5" y="335.2305">shootPhoto(): void</text><ellipse cx="783.5" cy="345.5283" fill="#84BE84" rx="3" ry="3" style="stroke: #038048; stroke-width: 1.0;"/><text fill="#000000" font-family="sans-serif" font-size="11" lengthAdjust="spacingAndGlyphs" textLength="195" x="792.5" y="348.1855">sendImage(HttpServerRequest): void</text><ellipse cx="783.5" cy="358.4834" fill="#84BE84" rx="3" ry="3" style="stroke: #038048; stroke-width: 1.0;"/><text fill="#000000" font-family="sans-serif" font-size="11" lengthAdjust="spacingAndGlyphs" textLength="375" x="792.5" y="361.1406">sendSingleImage(HttpServerRequest, ImageCollector.ImageType): void</text><ellipse cx="783.5" cy="371.4385" fill="#84BE84" rx="3" ry="3" style="stroke: #038048; stroke-width: 1.0;"/><text fill="#000000" font-family="sans-serif" font-size="11" lengthAdjust="spacingAndGlyphs" textLength="260" x="792.5" y="374.0957">sendImageBytes(HttpServerRequest, byte[]): void</text><ellipse cx="783.5" cy="384.3936" fill="#84BE84" rx="3" ry="3" style="stroke: #038048; stroke-width: 1.0;"/><text fill="#000000" font-family="sans-serif" font-size="11" lengthAdjust="spacingAndGlyphs" textLength="273" x="792.5" y="387.0508">recordFrame(Mat, ImageCollector.ImageType): void</text></a><!--class org.rcdukes.imageview.DebugImageServer.ImageFormat--><a href="DebugImageServer.ImageFormat.html" target="_top" xlink:actuate="onRequest" xlink:show="new" xlink:title="DebugImageServer.ImageFormat.html" xlink:type="simple"><rect fill="#FEFECE" filter="url(#fxf5btt7euukh)" height="73.9102" id="org.rcdukes.imageview.DebugImageServer.ImageFormat" style="stroke: #A80036; stroke-width: 1.5;" width="220" x="863" y="453"/><ellipse cx="878" cy="469" fill="#EB937F" rx="11" ry="11" style="stroke: #A80036; stroke-width: 1.0;"/><path d="M882.1143,475 L874.3945,475 L874.3945,462.6069 L882.1143,462.6069 L882.1143,464.7651 L876.8433,464.7651 L876.8433,467.438 L881.6162,467.438 L881.6162,469.5962 L876.8433,469.5962 L876.8433,472.8418 L882.1143,472.8418 Z "/><text fill="#000000" font-family="sans-serif" font-size="12" lengthAdjust="spacingAndGlyphs" textLength="188" x="892" y="473.5352">DebugImageServer.ImageFormat</text><line style="stroke: #A80036; stroke-width: 1.5;" x1="864" x2="1082" y1="485" y2="485"/><ellipse cx="874" cy="496.9775" fill="none" rx="3" ry="3" style="stroke: #038048; stroke-width: 1.0;"/><text fill="#000000" font-family="sans-serif" font-size="11" lengthAdjust="spacingAndGlyphs" text-decoration="underline" textLength="21" x="883" y="499.6348">png</text><ellipse cx="874" cy="509.9326" fill="none" rx="3" ry="3" style="stroke: #038048; stroke-width: 1.0;"/><text fill="#000000" font-family="sans-serif" font-size="11" lengthAdjust="spacingAndGlyphs" text-decoration="underline" textLength="17" x="883" y="512.5898">jpg</text><line style="stroke: #A80036; stroke-width: 1.5;" x1="864" x2="1082" y1="518.9102" y2="518.9102"/></a><!--class rx.Subscriber--><rect fill="#FEFECE" filter="url(#fxf5btt7euukh)" height="48" id="rx.Subscriber" style="stroke: #A80036; stroke-width: 1.5;" width="105" x="62.5" y="49.5"/><ellipse cx="77.5" cy="65.5" fill="#A9DCDF" rx="11" ry="11" style="stroke: #A80036; stroke-width: 1.0;"/><path d="M77.6133,60.8481 L76.4595,65.9199 L78.7754,65.9199 Z M76.1191,58.6069 L79.1157,58.6069 L82.4609,71 L80.0122,71 L79.2485,67.937 L75.9697,67.937 L75.2227,71 L72.7739,71 Z "/><text fill="#000000" font-family="sans-serif" font-size="12" font-style="italic" lengthAdjust="spacingAndGlyphs" textLength="61" x="91.5" y="70.0352">Subscriber</text><rect fill="#FFFFFF" height="16.1328" style="stroke: #000000; stroke-width: 1.0; stroke-dasharray: 2.0,2.0;" width="10" x="160.5" y="46.5"/><text fill="#000000" font-family="sans-serif" font-size="12" font-style="italic" lengthAdjust="spacingAndGlyphs" textLength="8" x="161.5" y="59.1016">T</text><line style="stroke: #A80036; stroke-width: 1.5;" x1="63.5" x2="166.5" y1="81.5" y2="81.5"/><line style="stroke: #A80036; stroke-width: 1.5;" x1="63.5" x2="166.5" y1="89.5" y2="89.5"/><!--class java.lang.Runnable--><rect fill="#FEFECE" filter="url(#fxf5btt7euukh)" height="60.9551" id="java.lang.Runnable" style="stroke: #A80036; stroke-width: 1.5;" width="86" x="447" y="43"/><ellipse cx="462" cy="59" fill="#B4A7E5" rx="11" ry="11" style="stroke: #A80036; stroke-width: 1.0;"/><path d="M457.9277,54.7651 L457.9277,52.6069 L465.3071,52.6069 L465.3071,54.7651 L462.8418,54.7651 L462.8418,62.8418 L465.3071,62.8418 L465.3071,65 L457.9277,65 L457.9277,62.8418 L460.3931,62.8418 L460.3931,54.7651 Z "/><text fill="#000000" font-family="sans-serif" font-size="12" font-style="italic" lengthAdjust="spacingAndGlyphs" textLength="54" x="476" y="63.5352">Runnable</text><line style="stroke: #A80036; stroke-width: 1.5;" x1="448" x2="532" y1="75" y2="75"/><line style="stroke: #A80036; stroke-width: 1.5;" x1="448" x2="532" y1="83" y2="83"/><ellipse cx="458" cy="94.9775" fill="#84BE84" rx="3" ry="3" style="stroke: #038048; stroke-width: 1.0;"/><text fill="#000000" font-family="sans-serif" font-size="11" font-style="italic" lengthAdjust="spacingAndGlyphs" textLength="56" x="467" y="97.6348">run(): void</text><!--class org.rcdukes.common.DukesVerticle--><rect fill="#FEFECE" filter="url(#fxf5btt7euukh)" height="48" id="org.rcdukes.common.DukesVerticle" style="stroke: #A80036; stroke-width: 1.5;" width="111" x="917.5" y="49.5"/><ellipse cx="932.5" cy="65.5" fill="#A9DCDF" rx="11" ry="11" style="stroke: #A80036; stroke-width: 1.0;"/><path d="M932.6133,60.8481 L931.4595,65.9199 L933.7754,65.9199 Z M931.1191,58.6069 L934.1157,58.6069 L937.4609,71 L935.0122,71 L934.2485,67.937 L930.9697,67.937 L930.2227,71 L927.7739,71 Z "/><text fill="#000000" font-family="sans-serif" font-size="12" font-style="italic" lengthAdjust="spacingAndGlyphs" textLength="79" x="946.5" y="70.0352">DukesVerticle</text><line style="stroke: #A80036; stroke-width: 1.5;" x1="918.5" x2="1027.5" y1="81.5" y2="81.5"/><line style="stroke: #A80036; stroke-width: 1.5;" x1="918.5" x2="1027.5" y1="89.5" y2="89.5"/><!--link rx.Subscriber to org.rcdukes.imageview.MJpegDecoder--><path d="M115,117.8763 C115,142.4822 115,173.7632 115,202.1701 " fill="none" id="rx.Subscriber-org.rcdukes.imageview.MJpegDecoder" style="stroke: #A80036; stroke-width: 1.0;"/><polygon fill="none" points="108.0001,117.8212,115,97.8212,122.0001,117.8212,108.0001,117.8212" style="stroke: #A80036; stroke-width: 1.0;"/><!--link java.lang.Runnable to org.rcdukes.imageview.MultipartStreamer--><path d="M490,124.5488 C490,154.0308 490,191.18 490,221.5992 " fill="none" id="java.lang.Runnable-org.rcdukes.imageview.MultipartStreamer" style="stroke: #A80036; stroke-width: 1.0; stroke-dasharray: 7.0,7.0;"/><polygon fill="none" points="483.0001,124.1906,490,104.1906,497.0001,124.1905,483.0001,124.1906" style="stroke: #A80036; stroke-width: 1.0;"/><!--link org.rcdukes.common.DukesVerticle to org.rcdukes.imageview.DebugImageServer--><path d="M973,118.0654 C973,131.7927 973,147.5843 973,163.7889 " fill="none" id="org.rcdukes.common.DukesVerticle-org.rcdukes.imageview.DebugImageServer" style="stroke: #A80036; stroke-width: 1.0;"/><polygon fill="none" points="966.0001,117.8212,973,97.8212,980.0001,117.8212,966.0001,117.8212" style="stroke: #A80036; stroke-width: 1.0;"/><!--link org.rcdukes.imageview.DebugImageServer to org.rcdukes.imageview.DebugImageServer.ImageFormat--><path d="M973,408.254 C973,424.4276 973,439.8104 973,452.7783 " fill="none" id="org.rcdukes.imageview.DebugImageServer-org.rcdukes.imageview.DebugImageServer.ImageFormat" style="stroke: #A80036; stroke-width: 1.0;"/><ellipse cx="973" cy="401.225" fill="#FFFFFF" rx="8" ry="8" style="stroke: #A80036; stroke-width: 1.0;"/><line style="stroke: #A80036; stroke-width: 1.0;" x1="973" x2="973" y1="409.225" y2="393.225"/><line style="stroke: #A80036; stroke-width: 1.0;" x1="965" x2="981" y1="401.225" y2="401.225"/><text fill="#888888" font-family="sans-serif" font-size="10" lengthAdjust="spacingAndGlyphs" textLength="182" x="740" y="562.668">UMLDoclet 1.1.4, PlantUML 1.2019.05</text><!--
@startuml

    namespace org.rcdukes.imageview {

        class MJpegHandler [[MJpegHandler.html]] {
            +MJpegHandler(String)
            +MJpegHandler()
            +getInputStream(): BodyDeferringAsyncHandler.BodyDeferringInputStream
            +open(int): MJpegDecoder
            +close(): void
        }

        class MJpegDecoder [[MJpegDecoder.html]] {
            {static} #LOG: Logger
            {static} +debug: boolean
            +MJpegDecoder(MJpegHandler)
            +onCompleted(): void
            +onError(Throwable): void
            +onNext(byte[]): void
            +open(int): void
            +close(): void
        }

        class MultipartStreamer [[MultipartStreamer.html]] {
            +MultipartStreamer(DebugImageServer, HttpServerResponse, ImageCollector.ImageType)
            +streamNextImage(): void
            +writeMultiPartFrame(Buffer): void
            +preamble(): void
            +run(): void
        }

        class DebugImageServer [[DebugImageServer.html]] {
            {static} +SERVE_TEST_IMAGES: boolean
            {static} +imageFormat: DebugImageServer.ImageFormat
            {static} +exts: String[]
            {static} +contentTypes: String[]
            {static} +fps: double
            #server: HttpServer
            +start(Future<Void>): void
            #receiveSimulatorImage(Message<String>): void
            +getNextImage(ImageCollector.ImageType): Image
            #shootPhoto(): void
            +sendImage(HttpServerRequest): void
            +sendSingleImage(HttpServerRequest, ImageCollector.ImageType): void
            +sendImageBytes(HttpServerRequest, byte[]): void
            +recordFrame(Mat, ImageCollector.ImageType): void
        }

        enum org.rcdukes.imageview.DebugImageServer.ImageFormat [[DebugImageServer.ImageFormat.html]] {
            {static} +png
            {static} +jpg
        }

        abstract class rx.Subscriber<T>
        rx.Subscriber <|- - MJpegDecoder

        interface java.lang.Runnable {
            {abstract} +run(): void
        }
        java.lang.Runnable <|.. MultipartStreamer

        abstract class org.rcdukes.common.DukesVerticle
        org.rcdukes.common.DukesVerticle <|- - DebugImageServer

        DebugImageServer +- - org.rcdukes.imageview.DebugImageServer.ImageFormat

    }


    center footer UMLDoclet 1.1.4, PlantUML 1.2019.05
@enduml

PlantUML version 1.2019.05(Sat Apr 20 18:45:36 CEST 2019)
(APACHE source distribution)
Java Runtime: Java(TM) SE Runtime Environment
JVM: Java HotSpot(TM) 64-Bit Server VM
Java Version: 1.8.0_152-b16
Operating System: Mac OS X
OS Version: 10.13.6
Default Encoding: UTF-8
Language: de
Country: DE
--></g></svg>