<?xml version="1.0" encoding="UTF-8" standalone="no"?><svg xmlns="http://www.w3.org/2000/svg" xmlns:xlink="http://www.w3.org/1999/xlink" contentScriptType="application/ecmascript" contentStyleType="text/css" height="193px" preserveAspectRatio="none" style="width:301px;height:193px;" version="1.1" viewBox="0 0 301 193" width="301px" zoomAndPan="magnify"><defs><filter height="300%" id="f15gym553swul6" width="300%" x="-1" y="-1"><feGaussianBlur result="blurOut" stdDeviation="2.0"/><feColorMatrix in="blurOut" result="blurOut2" type="matrix" values="0 0 0 0 0 0 0 0 0 0 0 0 0 0 0 0 0 0 .4 0"/><feOffset dx="4.0" dy="4.0" in="blurOut2" result="blurOut3"/><feBlend in="SourceGraphic" in2="blurOut3" mode="normal"/></filter></defs><g><!--class TestServoMaps--><a href="TestServoMaps.html" target="_top" xlink:actuate="onRequest" xlink:show="new" xlink:title="TestServoMaps.html" xlink:type="simple"><rect fill="#FEFECE" filter="url(#f15gym553swul6)" height="151.6406" id="TestServoMaps" style="stroke: #A80036; stroke-width: 1.5;" width="284" x="6" y="8"/><ellipse cx="100.25" cy="24" fill="#ADD1B2" rx="11" ry="11" style="stroke: #A80036; stroke-width: 1.0;"/><path d="M103.2231,29.6431 Q102.6421,29.9419 102.0029,30.0913 Q101.3638,30.2407 100.6582,30.2407 Q98.1514,30.2407 96.8315,28.5889 Q95.5117,26.937 95.5117,23.8159 Q95.5117,20.6865 96.8315,19.0347 Q98.1514,17.3828 100.6582,17.3828 Q101.3638,17.3828 102.0112,17.5322 Q102.6587,17.6816 103.2231,17.9805 L103.2231,20.7031 Q102.5923,20.1221 101.9988,19.8523 Q101.4053,19.5825 100.7744,19.5825 Q99.4297,19.5825 98.7449,20.6492 Q98.0601,21.7158 98.0601,23.8159 Q98.0601,25.9077 98.7449,26.9744 Q99.4297,28.041 100.7744,28.041 Q101.4053,28.041 101.9988,27.7712 Q102.5923,27.5015 103.2231,26.9204 Z "/><text fill="#000000" font-family="sans-serif" font-size="12" lengthAdjust="spacingAndGlyphs" textLength="87" x="120.75" y="28.5352">TestServoMaps</text><line style="stroke: #A80036; stroke-width: 1.5;" x1="7" x2="289" y1="40" y2="40"/><ellipse cx="17" cy="51.9775" fill="none" rx="3" ry="3" style="stroke: #038048; stroke-width: 1.0;"/><text fill="#000000" font-family="sans-serif" font-size="11" lengthAdjust="spacingAndGlyphs" text-decoration="underline" textLength="83" x="26" y="54.6348">debug: boolean</text><line style="stroke: #A80036; stroke-width: 1.5;" x1="7" x2="289" y1="60.9551" y2="60.9551"/><ellipse cx="17" cy="72.9326" fill="#84BE84" rx="3" ry="3" style="stroke: #038048; stroke-width: 1.0;"/><text fill="#000000" font-family="sans-serif" font-size="11" lengthAdjust="spacingAndGlyphs" text-decoration="underline" textLength="79" x="26" y="75.5898">prepare(): void</text><ellipse cx="17" cy="85.8877" fill="#84BE84" rx="3" ry="3" style="stroke: #038048; stroke-width: 1.0;"/><text fill="#000000" font-family="sans-serif" font-size="11" lengthAdjust="spacingAndGlyphs" textLength="115" x="26" y="88.5449">testEngineMap(): void</text><ellipse cx="17" cy="98.8428" fill="#84BE84" rx="3" ry="3" style="stroke: #038048; stroke-width: 1.0;"/><text fill="#000000" font-family="sans-serif" font-size="11" lengthAdjust="spacingAndGlyphs" textLength="90" x="26" y="101.5">testCheck(): void</text><ellipse cx="17" cy="111.7979" fill="#84BE84" rx="3" ry="3" style="stroke: #038048; stroke-width: 1.0;"/><text fill="#000000" font-family="sans-serif" font-size="11" lengthAdjust="spacingAndGlyphs" textLength="123" x="26" y="114.4551">testSteeringMap(): void</text><ellipse cx="17" cy="124.7529" fill="#84BE84" rx="3" ry="3" style="stroke: #038048; stroke-width: 1.0;"/><text fill="#000000" font-family="sans-serif" font-size="11" lengthAdjust="spacingAndGlyphs" textLength="94" x="26" y="127.4102">testAngles(): void</text><ellipse cx="17" cy="137.708" fill="#84BE84" rx="3" ry="3" style="stroke: #038048; stroke-width: 1.0;"/><text fill="#000000" font-family="sans-serif" font-size="11" lengthAdjust="spacingAndGlyphs" textLength="258" x="26" y="140.3652">check(int, ServoRange, ServoSide, boolean): void</text><ellipse cx="17" cy="150.6631" fill="#84BE84" rx="3" ry="3" style="stroke: #038048; stroke-width: 1.0;"/><text fill="#000000" font-family="sans-serif" font-size="11" lengthAdjust="spacingAndGlyphs" textLength="104" x="26" y="153.3203">testIsOnSide(): void</text></a><text fill="#888888" font-family="sans-serif" font-size="10" lengthAdjust="spacingAndGlyphs" textLength="182" x="63" y="179.668">UMLDoclet 1.1.4, PlantUML 1.2019.05</text><!--
@startuml

    class TestServoMaps [[TestServoMaps.html]] {
        {static} +debug: boolean
        {static} +prepare(): void
        +testEngineMap(): void
        +testCheck(): void
        +testSteeringMap(): void
        +testAngles(): void
        +check(int, ServoRange, ServoSide, boolean): void
        +testIsOnSide(): void
    }


    center footer UMLDoclet 1.1.4, PlantUML 1.2019.05
@enduml

PlantUML version 1.2019.05(Sat Apr 20 18:45:36 CEST 2019)
(APACHE source distribution)
Java Runtime: Java(TM) SE Runtime Environment
JVM: Java HotSpot(TM) 64-Bit Server VM
Java Version: 1.8.0_152-b16
Operating System: Mac OS X
OS Version: 10.13.6
Default Encoding: UTF-8
Language: de
Country: DE
--></g></svg>