<?xml version="1.0" encoding="UTF-8" standalone="no"?><svg xmlns="http://www.w3.org/2000/svg" xmlns:xlink="http://www.w3.org/1999/xlink" contentScriptType="application/ecmascript" contentStyleType="text/css" height="180px" preserveAspectRatio="none" style="width:260px;height:180px;" version="1.1" viewBox="0 0 260 180" width="260px" zoomAndPan="magnify"><defs><filter height="300%" id="fwin3y1rwl1cb" width="300%" x="-1" y="-1"><feGaussianBlur result="blurOut" stdDeviation="2.0"/><feColorMatrix in="blurOut" result="blurOut2" type="matrix" values="0 0 0 0 0 0 0 0 0 0 0 0 0 0 0 0 0 0 .4 0"/><feOffset dx="4.0" dy="4.0" in="blurOut2" result="blurOut3"/><feBlend in="SourceGraphic" in2="blurOut3" mode="normal"/></filter></defs><g><!--class TestCar--><a href="TestCar.html" target="_top" xlink:actuate="onRequest" xlink:show="new" xlink:title="TestCar.html" xlink:type="simple"><rect fill="#FEFECE" filter="url(#fwin3y1rwl1cb)" height="138.6855" id="TestCar" style="stroke: #A80036; stroke-width: 1.5;" width="243" x="6" y="8"/><ellipse cx="100.75" cy="24" fill="#ADD1B2" rx="11" ry="11" style="stroke: #A80036; stroke-width: 1.0;"/><path d="M103.7231,29.6431 Q103.1421,29.9419 102.5029,30.0913 Q101.8638,30.2407 101.1582,30.2407 Q98.6514,30.2407 97.3315,28.5889 Q96.0117,26.937 96.0117,23.8159 Q96.0117,20.6865 97.3315,19.0347 Q98.6514,17.3828 101.1582,17.3828 Q101.8638,17.3828 102.5112,17.5322 Q103.1587,17.6816 103.7231,17.9805 L103.7231,20.7031 Q103.0923,20.1221 102.4988,19.8523 Q101.9053,19.5825 101.2744,19.5825 Q99.9297,19.5825 99.2449,20.6492 Q98.5601,21.7158 98.5601,23.8159 Q98.5601,25.9077 99.2449,26.9744 Q99.9297,28.041 101.2744,28.041 Q101.9053,28.041 102.4988,27.7712 Q103.0923,27.5015 103.7231,26.9204 Z "/><text fill="#000000" font-family="sans-serif" font-size="12" lengthAdjust="spacingAndGlyphs" textLength="45" x="121.25" y="28.5352">TestCar</text><line style="stroke: #A80036; stroke-width: 1.5;" x1="7" x2="248" y1="40" y2="40"/><ellipse cx="17" cy="51.9775" fill="none" rx="3" ry="3" style="stroke: #038048; stroke-width: 1.0;"/><text fill="#000000" font-family="sans-serif" font-size="11" lengthAdjust="spacingAndGlyphs" text-decoration="underline" textLength="83" x="26" y="54.6348">debug: boolean</text><polygon fill="none" points="17,59.9326,21,63.9326,17,67.9326,13,63.9326" style="stroke: #B38D22; stroke-width: 1.0;"/><text fill="#000000" font-family="sans-serif" font-size="11" lengthAdjust="spacingAndGlyphs" text-decoration="underline" textLength="217" x="26" y="67.5898">servoCommand: ServoCommandDummy</text><line style="stroke: #A80036; stroke-width: 1.5;" x1="7" x2="248" y1="73.9102" y2="73.9102"/><ellipse cx="17" cy="85.8877" fill="#84BE84" rx="3" ry="3" style="stroke: #038048; stroke-width: 1.0;"/><text fill="#000000" font-family="sans-serif" font-size="11" lengthAdjust="spacingAndGlyphs" text-decoration="underline" textLength="69" x="26" y="88.5449">getCar(): Car</text><ellipse cx="17" cy="98.8428" fill="#84BE84" rx="3" ry="3" style="stroke: #038048; stroke-width: 1.0;"/><text fill="#000000" font-family="sans-serif" font-size="11" lengthAdjust="spacingAndGlyphs" textLength="76" x="26" y="101.5">testCar(): void</text><ellipse cx="17" cy="111.7979" fill="#84BE84" rx="3" ry="3" style="stroke: #038048; stroke-width: 1.0;"/><text fill="#000000" font-family="sans-serif" font-size="11" lengthAdjust="spacingAndGlyphs" textLength="93" x="26" y="114.4551">testEngine(): void</text><ellipse cx="17" cy="124.7529" fill="#84BE84" rx="3" ry="3" style="stroke: #038048; stroke-width: 1.0;"/><text fill="#000000" font-family="sans-serif" font-size="11" lengthAdjust="spacingAndGlyphs" textLength="101" x="26" y="127.4102">testSteering(): void</text><ellipse cx="17" cy="137.708" fill="#84BE84" rx="3" ry="3" style="stroke: #038048; stroke-width: 1.0;"/><text fill="#000000" font-family="sans-serif" font-size="11" lengthAdjust="spacingAndGlyphs" textLength="76" x="26" y="140.3652">testLed(): void</text></a><text fill="#888888" font-family="sans-serif" font-size="10" lengthAdjust="spacingAndGlyphs" textLength="182" x="42.5" y="166.668">UMLDoclet 1.1.4, PlantUML 1.2019.05</text><!--
@startuml

    class TestCar [[TestCar.html]] {
        {static} +debug: boolean
        {static} #servoCommand: ServoCommandDummy
        {static} +getCar(): Car
        +testCar(): void
        +testEngine(): void
        +testSteering(): void
        +testLed(): void
    }


    center footer UMLDoclet 1.1.4, PlantUML 1.2019.05
@enduml

PlantUML version 1.2019.05(Sat Apr 20 18:45:36 CEST 2019)
(APACHE source distribution)
Java Runtime: Java(TM) SE Runtime Environment
JVM: Java HotSpot(TM) 64-Bit Server VM
Java Version: 1.8.0_152-b16
Operating System: Mac OS X
OS Version: 10.13.6
Default Encoding: UTF-8
Language: de
Country: DE
--></g></svg>