<?xml version="1.0" encoding="UTF-8" standalone="no"?><svg xmlns="http://www.w3.org/2000/svg" xmlns:xlink="http://www.w3.org/1999/xlink" contentScriptType="application/ecmascript" contentStyleType="text/css" height="218px" preserveAspectRatio="none" style="width:230px;height:218px;" version="1.1" viewBox="0 0 230 218" width="230px" zoomAndPan="magnify"><defs><filter height="300%" id="f2lzmlqwkdwbl" width="300%" x="-1" y="-1"><feGaussianBlur result="blurOut" stdDeviation="2.0"/><feColorMatrix in="blurOut" result="blurOut2" type="matrix" values="0 0 0 0 0 0 0 0 0 0 0 0 0 0 0 0 0 0 .4 0"/><feOffset dx="4.0" dy="4.0" in="blurOut2" result="blurOut3"/><feBlend in="SourceGraphic" in2="blurOut3" mode="normal"/></filter></defs><g><!--cluster CannyEdgeDetector--><polygon fill="#FFFFFF" filter="url(#f2lzmlqwkdwbl)" points="14,16,159,16,166,38.4883,208,38.4883,208,177,14,177,14,16" style="stroke: #000000; stroke-width: 1.5;"/><line style="stroke: #000000; stroke-width: 1.5;" x1="14" x2="166" y1="38.4883" y2="38.4883"/><text fill="#000000" font-family="sans-serif" font-size="14" font-weight="bold" lengthAdjust="spacingAndGlyphs" textLength="139" x="18" y="31.5352">CannyEdgeDetector</text><!--class CannyEdgeDetector.Config--><a href="CannyEdgeDetector.Config.html" target="_top" xlink:actuate="onRequest" xlink:show="new" xlink:title="CannyEdgeDetector.Config.html" xlink:type="simple"><rect fill="#FEFECE" filter="url(#f2lzmlqwkdwbl)" height="125.7305" id="CannyEdgeDetector.Config" style="stroke: #A80036; stroke-width: 1.5;" width="178" x="22" y="43"/><ellipse cx="88.75" cy="59" fill="#ADD1B2" rx="11" ry="11" style="stroke: #A80036; stroke-width: 1.0;"/><path d="M91.7231,64.6431 Q91.1421,64.9419 90.5029,65.0913 Q89.8638,65.2407 89.1582,65.2407 Q86.6514,65.2407 85.3315,63.5889 Q84.0117,61.937 84.0117,58.8159 Q84.0117,55.6865 85.3315,54.0347 Q86.6514,52.3828 89.1582,52.3828 Q89.8638,52.3828 90.5112,52.5322 Q91.1587,52.6816 91.7231,52.9805 L91.7231,55.7031 Q91.0923,55.1221 90.4988,54.8523 Q89.9053,54.5825 89.2744,54.5825 Q87.9297,54.5825 87.2449,55.6492 Q86.5601,56.7158 86.5601,58.8159 Q86.5601,60.9077 87.2449,61.9744 Q87.9297,63.041 89.2744,63.041 Q89.9053,63.041 90.4988,62.7712 Q91.0923,62.5015 91.7231,61.9204 Z "/><text fill="#000000" font-family="sans-serif" font-size="12" lengthAdjust="spacingAndGlyphs" textLength="36" x="109.25" y="63.5352">Config</text><line style="stroke: #A80036; stroke-width: 1.5;" x1="23" x2="199" y1="75" y2="75"/><line style="stroke: #A80036; stroke-width: 1.5;" x1="23" x2="199" y1="83" y2="83"/><ellipse cx="33" cy="94.9775" fill="#84BE84" rx="3" ry="3" style="stroke: #038048; stroke-width: 1.0;"/><text fill="#000000" font-family="sans-serif" font-size="11" lengthAdjust="spacingAndGlyphs" textLength="152" x="42" y="97.6348">setThreshold1(double): void</text><ellipse cx="33" cy="107.9326" fill="#84BE84" rx="3" ry="3" style="stroke: #038048; stroke-width: 1.0;"/><text fill="#000000" font-family="sans-serif" font-size="11" lengthAdjust="spacingAndGlyphs" textLength="152" x="42" y="110.5898">setThreshold2(double): void</text><ellipse cx="33" cy="120.8877" fill="#84BE84" rx="3" ry="3" style="stroke: #038048; stroke-width: 1.0;"/><text fill="#000000" font-family="sans-serif" font-size="11" lengthAdjust="spacingAndGlyphs" textLength="130" x="42" y="123.5449">getThreshold1(): double</text><ellipse cx="33" cy="133.8428" fill="#84BE84" rx="3" ry="3" style="stroke: #038048; stroke-width: 1.0;"/><text fill="#000000" font-family="sans-serif" font-size="11" lengthAdjust="spacingAndGlyphs" textLength="130" x="42" y="136.5">getThreshold2(): double</text><ellipse cx="33" cy="146.7979" fill="#84BE84" rx="3" ry="3" style="stroke: #038048; stroke-width: 1.0;"/><text fill="#000000" font-family="sans-serif" font-size="11" lengthAdjust="spacingAndGlyphs" textLength="114" x="42" y="149.4551">getApertureSize(): int</text><ellipse cx="33" cy="159.7529" fill="#84BE84" rx="3" ry="3" style="stroke: #038048; stroke-width: 1.0;"/><text fill="#000000" font-family="sans-serif" font-size="11" lengthAdjust="spacingAndGlyphs" textLength="132" x="42" y="162.4102">getL2gradient(): boolean</text></a><text fill="#888888" font-family="sans-serif" font-size="10" lengthAdjust="spacingAndGlyphs" textLength="182" x="26" y="204.668">UMLDoclet 1.1.4, PlantUML 1.2019.05</text><!--
@startuml

    class CannyEdgeDetector.Config [[CannyEdgeDetector.Config.html]] {
        +setThreshold1(double): void
        +setThreshold2(double): void
        +getThreshold1(): double
        +getThreshold2(): double
        +getApertureSize(): int
        +getL2gradient(): boolean
    }


    center footer UMLDoclet 1.1.4, PlantUML 1.2019.05
@enduml

PlantUML version 1.2019.05(Sat Apr 20 18:45:36 CEST 2019)
(APACHE source distribution)
Java Runtime: Java(TM) SE Runtime Environment
JVM: Java HotSpot(TM) 64-Bit Server VM
Java Version: 1.8.0_191-b12
Operating System: Mac OS X
OS Version: 10.13.6
Default Encoding: UTF-8
Language: de
Country: DE
--></g></svg>