<?xml version="1.0" encoding="UTF-8" standalone="no"?><svg xmlns="http://www.w3.org/2000/svg" xmlns:xlink="http://www.w3.org/1999/xlink" contentScriptType="application/ecmascript" contentStyleType="text/css" height="128px" preserveAspectRatio="none" style="width:209px;height:128px;" version="1.1" viewBox="0 0 209 128" width="209px" zoomAndPan="magnify"><defs><filter height="300%" id="fjiae0e4x0218" width="300%" x="-1" y="-1"><feGaussianBlur result="blurOut" stdDeviation="2.0"/><feColorMatrix in="blurOut" result="blurOut2" type="matrix" values="0 0 0 0 0 0 0 0 0 0 0 0 0 0 0 0 0 0 .4 0"/><feOffset dx="4.0" dy="4.0" in="blurOut2" result="blurOut3"/><feBlend in="SourceGraphic" in2="blurOut3" mode="normal"/></filter></defs><g><!--class SobelEdgeDetector--><a href="SobelEdgeDetector.html" target="_top" xlink:actuate="onRequest" xlink:show="new" xlink:title="SobelEdgeDetector.html" xlink:type="simple"><rect fill="#FEFECE" filter="url(#fjiae0e4x0218)" height="86.8652" id="SobelEdgeDetector" style="stroke: #A80036; stroke-width: 1.5;" width="189" x="6" y="8"/><ellipse cx="42.6" cy="24" fill="#ADD1B2" rx="11" ry="11" style="stroke: #A80036; stroke-width: 1.0;"/><path d="M45.5731,29.6431 Q44.9921,29.9419 44.3529,30.0913 Q43.7138,30.2407 43.0082,30.2407 Q40.5014,30.2407 39.1815,28.5889 Q37.8617,26.937 37.8617,23.8159 Q37.8617,20.6865 39.1815,19.0347 Q40.5014,17.3828 43.0082,17.3828 Q43.7138,17.3828 44.3612,17.5322 Q45.0087,17.6816 45.5731,17.9805 L45.5731,20.7031 Q44.9423,20.1221 44.3488,19.8523 Q43.7553,19.5825 43.1244,19.5825 Q41.7797,19.5825 41.0949,20.6492 Q40.4101,21.7158 40.4101,23.8159 Q40.4101,25.9077 41.0949,26.9744 Q41.7797,28.041 43.1244,28.041 Q43.7553,28.041 44.3488,27.7712 Q44.9423,27.5015 45.5731,26.9204 Z "/><text fill="#000000" font-family="sans-serif" font-size="12" lengthAdjust="spacingAndGlyphs" textLength="109" x="61.4" y="28.5352">SobelEdgeDetector</text><line style="stroke: #A80036; stroke-width: 1.5;" x1="7" x2="194" y1="40" y2="40"/><line style="stroke: #A80036; stroke-width: 1.5;" x1="7" x2="194" y1="48" y2="48"/><ellipse cx="17" cy="59.9775" fill="#84BE84" rx="3" ry="3" style="stroke: #038048; stroke-width: 1.0;"/><text fill="#000000" font-family="sans-serif" font-size="11" lengthAdjust="spacingAndGlyphs" textLength="109" x="26" y="62.6348">SobelEdgeDetector()</text><ellipse cx="17" cy="72.9326" fill="#84BE84" rx="3" ry="3" style="stroke: #038048; stroke-width: 1.0;"/><text fill="#000000" font-family="sans-serif" font-size="11" lengthAdjust="spacingAndGlyphs" textLength="163" x="26" y="75.5898">SobelEdgeDetector(int, int, int)</text><ellipse cx="17" cy="85.8877" fill="#84BE84" rx="3" ry="3" style="stroke: #038048; stroke-width: 1.0;"/><text fill="#000000" font-family="sans-serif" font-size="11" lengthAdjust="spacingAndGlyphs" textLength="85" x="26" y="88.5449">detect(Mat): Mat</text></a><text fill="#888888" font-family="sans-serif" font-size="10" lengthAdjust="spacingAndGlyphs" textLength="182" x="15.5" y="114.668">UMLDoclet 1.1.4, PlantUML 1.2019.05</text><!--
@startuml

    class SobelEdgeDetector [[SobelEdgeDetector.html]] {
        +SobelEdgeDetector()
        +SobelEdgeDetector(int, int, int)
        +detect(Mat): Mat
    }


    center footer UMLDoclet 1.1.4, PlantUML 1.2019.05
@enduml

PlantUML version 1.2019.05(Sat Apr 20 18:45:36 CEST 2019)
(APACHE source distribution)
Java Runtime: Java(TM) SE Runtime Environment
JVM: Java HotSpot(TM) 64-Bit Server VM
Java Version: 1.8.0_191-b12
Operating System: Mac OS X
OS Version: 10.13.6
Default Encoding: UTF-8
Language: de
Country: DE
--></g></svg>