<?xml version="1.0" encoding="UTF-8" standalone="no"?><svg xmlns="http://www.w3.org/2000/svg" xmlns:xlink="http://www.w3.org/1999/xlink" contentScriptType="application/ecmascript" contentStyleType="text/css" height="391px" preserveAspectRatio="none" style="width:661px;height:391px;" version="1.1" viewBox="0 0 661 391" width="661px" zoomAndPan="magnify"><defs><filter height="300%" id="f1en8udthxisbk" width="300%" x="-1" y="-1"><feGaussianBlur result="blurOut" stdDeviation="2.0"/><feColorMatrix in="blurOut" result="blurOut2" type="matrix" values="0 0 0 0 0 0 0 0 0 0 0 0 0 0 0 0 0 0 .4 0"/><feOffset dx="4.0" dy="4.0" in="blurOut2" result="blurOut3"/><feBlend in="SourceGraphic" in2="blurOut3" mode="normal"/></filter></defs><g><!--cluster org.rcdukes.objects--><polygon fill="#FFFFFF" filter="url(#f1en8udthxisbk)" points="14,16,158,16,165,38.4883,639,38.4883,639,350,14,350,14,16" style="stroke: #000000; stroke-width: 1.5;"/><line style="stroke: #000000; stroke-width: 1.5;" x1="14" x2="165" y1="38.4883" y2="38.4883"/><text fill="#000000" font-family="sans-serif" font-size="14" font-weight="bold" lengthAdjust="spacingAndGlyphs" textLength="138" x="18" y="31.5352">org.rcdukes.objects</text><!--class org.rcdukes.objects.StoppingZone--><a href="StoppingZone.html" target="_top" xlink:actuate="onRequest" xlink:show="new" xlink:title="StoppingZone.html" xlink:type="simple"><rect fill="#FEFECE" filter="url(#f1en8udthxisbk)" height="86.8652" id="org.rcdukes.objects.StoppingZone" style="stroke: #A80036; stroke-width: 1.5;" width="287" x="22.5" y="43"/><ellipse cx="122.75" cy="59" fill="#ADD1B2" rx="11" ry="11" style="stroke: #A80036; stroke-width: 1.0;"/><path d="M125.7231,64.6431 Q125.1421,64.9419 124.5029,65.0913 Q123.8638,65.2407 123.1582,65.2407 Q120.6514,65.2407 119.3315,63.5889 Q118.0117,61.937 118.0117,58.8159 Q118.0117,55.6865 119.3315,54.0347 Q120.6514,52.3828 123.1582,52.3828 Q123.8638,52.3828 124.5112,52.5322 Q125.1587,52.6816 125.7231,52.9805 L125.7231,55.7031 Q125.0923,55.1221 124.4988,54.8523 Q123.9053,54.5825 123.2744,54.5825 Q121.9297,54.5825 121.2449,55.6492 Q120.5601,56.7158 120.5601,58.8159 Q120.5601,60.9077 121.2449,61.9744 Q121.9297,63.041 123.2744,63.041 Q123.9053,63.041 124.4988,62.7712 Q125.0923,62.5015 125.7231,61.9204 Z "/><text fill="#000000" font-family="sans-serif" font-size="12" lengthAdjust="spacingAndGlyphs" textLength="78" x="143.25" y="63.5352">StoppingZone</text><line style="stroke: #A80036; stroke-width: 1.5;" x1="23.5" x2="308.5" y1="75" y2="75"/><line style="stroke: #A80036; stroke-width: 1.5;" x1="23.5" x2="308.5" y1="83" y2="83"/><ellipse cx="33.5" cy="94.9775" fill="#84BE84" rx="3" ry="3" style="stroke: #038048; stroke-width: 1.0;"/><text fill="#000000" font-family="sans-serif" font-size="11" lengthAdjust="spacingAndGlyphs" textLength="261" x="42.5" y="97.6348">StoppingZone(Optional&lt;Line&gt;, Optional&lt;Line&gt;)</text><ellipse cx="33.5" cy="107.9326" fill="#84BE84" rx="3" ry="3" style="stroke: #038048; stroke-width: 1.0;"/><text fill="#000000" font-family="sans-serif" font-size="11" lengthAdjust="spacingAndGlyphs" textLength="164" x="42.5" y="110.5898">getEntrance(): Optional&lt;Line&gt;</text><ellipse cx="33.5" cy="120.8877" fill="#84BE84" rx="3" ry="3" style="stroke: #038048; stroke-width: 1.0;"/><text fill="#000000" font-family="sans-serif" font-size="11" lengthAdjust="spacingAndGlyphs" textLength="137" x="42.5" y="123.5449">getExit(): Optional&lt;Line&gt;</text></a><!--class org.rcdukes.objects.Boundary--><a href="Boundary.html" target="_top" xlink:actuate="onRequest" xlink:show="new" xlink:title="Boundary.html" xlink:type="simple"><rect fill="#FEFECE" filter="url(#f1en8udthxisbk)" height="86.8652" id="org.rcdukes.objects.Boundary" style="stroke: #A80036; stroke-width: 1.5;" width="286" x="345" y="43"/><ellipse cx="456.75" cy="59" fill="#ADD1B2" rx="11" ry="11" style="stroke: #A80036; stroke-width: 1.0;"/><path d="M459.7231,64.6431 Q459.1421,64.9419 458.5029,65.0913 Q457.8638,65.2407 457.1582,65.2407 Q454.6514,65.2407 453.3315,63.5889 Q452.0117,61.937 452.0117,58.8159 Q452.0117,55.6865 453.3315,54.0347 Q454.6514,52.3828 457.1582,52.3828 Q457.8638,52.3828 458.5112,52.5322 Q459.1587,52.6816 459.7231,52.9805 L459.7231,55.7031 Q459.0923,55.1221 458.4988,54.8523 Q457.9053,54.5825 457.2744,54.5825 Q455.9297,54.5825 455.2449,55.6492 Q454.5601,56.7158 454.5601,58.8159 Q454.5601,60.9077 455.2449,61.9744 Q455.9297,63.041 457.2744,63.041 Q457.9053,63.041 458.4988,62.7712 Q459.0923,62.5015 459.7231,61.9204 Z "/><text fill="#000000" font-family="sans-serif" font-size="12" lengthAdjust="spacingAndGlyphs" textLength="54" x="477.25" y="63.5352">Boundary</text><line style="stroke: #A80036; stroke-width: 1.5;" x1="346" x2="630" y1="75" y2="75"/><line style="stroke: #A80036; stroke-width: 1.5;" x1="346" x2="630" y1="83" y2="83"/><ellipse cx="356" cy="94.9775" fill="#84BE84" rx="3" ry="3" style="stroke: #038048; stroke-width: 1.0;"/><text fill="#000000" font-family="sans-serif" font-size="11" lengthAdjust="spacingAndGlyphs" textLength="108" x="365" y="97.6348">Boundary(LineFilter)</text><ellipse cx="356" cy="107.9326" fill="#84BE84" rx="3" ry="3" style="stroke: #038048; stroke-width: 1.0;"/><text fill="#000000" font-family="sans-serif" font-size="11" lengthAdjust="spacingAndGlyphs" textLength="246" x="365" y="110.5898">boundary(Collection&lt;Line&gt;): Optional&lt;Line&gt;</text><ellipse cx="356" cy="120.8877" fill="#84BE84" rx="3" ry="3" style="stroke: #038048; stroke-width: 1.0;"/><text fill="#000000" font-family="sans-serif" font-size="11" lengthAdjust="spacingAndGlyphs" textLength="260" x="365" y="123.5449">candidates(Collection&lt;Line&gt;): Collection&lt;Line&gt;</text></a><!--class org.rcdukes.objects.StartLight--><a href="StartLight.html" target="_top" xlink:actuate="onRequest" xlink:show="new" xlink:title="StartLight.html" xlink:type="simple"><rect fill="#FEFECE" filter="url(#f1en8udthxisbk)" height="151.6406" id="org.rcdukes.objects.StartLight" style="stroke: #A80036; stroke-width: 1.5;" width="121" x="105.5" y="190"/><ellipse cx="136.7" cy="206" fill="#EB937F" rx="11" ry="11" style="stroke: #A80036; stroke-width: 1.0;"/><path d="M140.8143,212 L133.0945,212 L133.0945,199.6069 L140.8143,199.6069 L140.8143,201.7651 L135.5433,201.7651 L135.5433,204.438 L140.3162,204.438 L140.3162,206.5962 L135.5433,206.5962 L135.5433,209.8418 L140.8143,209.8418 Z "/><text fill="#000000" font-family="sans-serif" font-size="12" lengthAdjust="spacingAndGlyphs" textLength="53" x="154.3" y="210.5352">StartLight</text><line style="stroke: #A80036; stroke-width: 1.5;" x1="106.5" x2="225.5" y1="222" y2="222"/><ellipse cx="116.5" cy="233.9775" fill="none" rx="3" ry="3" style="stroke: #038048; stroke-width: 1.0;"/><text fill="#000000" font-family="sans-serif" font-size="11" lengthAdjust="spacingAndGlyphs" text-decoration="underline" textLength="21" x="125.5" y="236.6348">OFF</text><ellipse cx="116.5" cy="246.9326" fill="none" rx="3" ry="3" style="stroke: #038048; stroke-width: 1.0;"/><text fill="#000000" font-family="sans-serif" font-size="11" lengthAdjust="spacingAndGlyphs" text-decoration="underline" textLength="16" x="125.5" y="249.5898">LIT</text><ellipse cx="116.5" cy="259.8877" fill="none" rx="3" ry="3" style="stroke: #038048; stroke-width: 1.0;"/><text fill="#000000" font-family="sans-serif" font-size="11" lengthAdjust="spacingAndGlyphs" text-decoration="underline" textLength="43" x="125.5" y="262.5449">DIMMED</text><polygon fill="none" points="116.5,267.8428,120.5,271.8428,116.5,275.8428,112.5,271.8428" style="stroke: #B38D22; stroke-width: 1.0;"/><text fill="#000000" font-family="sans-serif" font-size="11" lengthAdjust="spacingAndGlyphs" textLength="68" x="125.5" y="275.5">nrOfOffs: int</text><line style="stroke: #A80036; stroke-width: 1.5;" x1="106.5" x2="225.5" y1="281.8203" y2="281.8203"/><ellipse cx="116.5" cy="293.7979" fill="#84BE84" rx="3" ry="3" style="stroke: #038048; stroke-width: 1.0;"/><text fill="#000000" font-family="sans-serif" font-size="11" lengthAdjust="spacingAndGlyphs" text-decoration="underline" textLength="83" x="125.5" y="296.4551">init(): StartLight</text><ellipse cx="116.5" cy="306.7529" fill="#84BE84" rx="3" ry="3" style="stroke: #038048; stroke-width: 1.0;"/><text fill="#000000" font-family="sans-serif" font-size="11" lengthAdjust="spacingAndGlyphs" textLength="80" x="125.5" y="309.4102">on(): StartLight</text><ellipse cx="116.5" cy="319.708" fill="#84BE84" rx="3" ry="3" style="stroke: #038048; stroke-width: 1.0;"/><text fill="#000000" font-family="sans-serif" font-size="11" lengthAdjust="spacingAndGlyphs" textLength="81" x="125.5" y="322.3652">off(): StartLight</text><ellipse cx="116.5" cy="332.6631" fill="#84BE84" rx="3" ry="3" style="stroke: #038048; stroke-width: 1.0;"/><text fill="#000000" font-family="sans-serif" font-size="11" lengthAdjust="spacingAndGlyphs" textLength="95" x="125.5" y="335.3203">started(): boolean</text></a><!--class org.rcdukes.objects.ViewPort--><a href="ViewPort.html" target="_top" xlink:actuate="onRequest" xlink:show="new" xlink:title="ViewPort.html" xlink:type="simple"><rect fill="#FEFECE" filter="url(#f1en8udthxisbk)" height="99.8203" id="org.rcdukes.objects.ViewPort" style="stroke: #A80036; stroke-width: 1.5;" width="208" x="262" y="216"/><ellipse cx="336.75" cy="232" fill="#ADD1B2" rx="11" ry="11" style="stroke: #A80036; stroke-width: 1.0;"/><path d="M339.7231,237.6431 Q339.1421,237.9419 338.5029,238.0913 Q337.8638,238.2407 337.1582,238.2407 Q334.6514,238.2407 333.3315,236.5889 Q332.0117,234.937 332.0117,231.8159 Q332.0117,228.6865 333.3315,227.0347 Q334.6514,225.3828 337.1582,225.3828 Q337.8638,225.3828 338.5112,225.5322 Q339.1587,225.6816 339.7231,225.9805 L339.7231,228.7031 Q339.0923,228.1221 338.4988,227.8523 Q337.9053,227.5825 337.2744,227.5825 Q335.9297,227.5825 335.2449,228.6492 Q334.5601,229.7158 334.5601,231.8159 Q334.5601,233.9077 335.2449,234.9744 Q335.9297,236.041 337.2744,236.041 Q337.9053,236.041 338.4988,235.7712 Q339.0923,235.5015 339.7231,234.9204 Z "/><text fill="#000000" font-family="sans-serif" font-size="12" lengthAdjust="spacingAndGlyphs" textLength="50" x="357.25" y="236.5352">ViewPort</text><line style="stroke: #A80036; stroke-width: 1.5;" x1="263" x2="469" y1="248" y2="248"/><line style="stroke: #A80036; stroke-width: 1.5;" x1="263" x2="469" y1="256" y2="256"/><ellipse cx="273" cy="267.9775" fill="#84BE84" rx="3" ry="3" style="stroke: #038048; stroke-width: 1.0;"/><text fill="#000000" font-family="sans-serif" font-size="11" lengthAdjust="spacingAndGlyphs" textLength="182" x="282" y="270.6348">ViewPort(Point2D, double, double)</text><ellipse cx="273" cy="280.9326" fill="#84BE84" rx="3" ry="3" style="stroke: #038048; stroke-width: 1.0;"/><text fill="#000000" font-family="sans-serif" font-size="11" lengthAdjust="spacingAndGlyphs" textLength="107" x="282" y="283.5898">getOrigin(): Point2D</text><ellipse cx="273" cy="293.8877" fill="#84BE84" rx="3" ry="3" style="stroke: #038048; stroke-width: 1.0;"/><text fill="#000000" font-family="sans-serif" font-size="11" lengthAdjust="spacingAndGlyphs" textLength="98" x="282" y="296.5449">getWidth(): double</text><ellipse cx="273" cy="306.8428" fill="#84BE84" rx="3" ry="3" style="stroke: #038048; stroke-width: 1.0;"/><text fill="#000000" font-family="sans-serif" font-size="11" lengthAdjust="spacingAndGlyphs" textLength="103" x="282" y="309.5">getHeight(): double</text></a><!--link org.rcdukes.objects.StoppingZone to org.rcdukes.objects.Boundary--><!--link org.rcdukes.objects.StoppingZone to org.rcdukes.objects.StartLight--><!--link org.rcdukes.objects.StartLight to org.rcdukes.objects.ViewPort--><text fill="#888888" font-family="sans-serif" font-size="10" lengthAdjust="spacingAndGlyphs" textLength="182" x="241.5" y="377.668">UMLDoclet 1.1.4, PlantUML 1.2019.05</text><!--
@startuml

    namespace org.rcdukes.objects {

        class StoppingZone [[StoppingZone.html]] {
            +StoppingZone(Optional<Line>, Optional<Line>)
            +getEntrance(): Optional<Line>
            +getExit(): Optional<Line>
        }

        class Boundary [[Boundary.html]] {
            +Boundary(LineFilter)
            +boundary(Collection<Line>): Optional<Line>
            +candidates(Collection<Line>): Collection<Line>
        }

        enum StartLight [[StartLight.html]] {
            {static} +OFF
            {static} +LIT
            {static} +DIMMED
            #nrOfOffs: int
            {static} +init(): StartLight
            +on(): StartLight
            +off(): StartLight
            +started(): boolean
        }

        class ViewPort [[ViewPort.html]] {
            +ViewPort(Point2D, double, double)
            +getOrigin(): Point2D
            +getWidth(): double
            +getHeight(): double
        }

    }


    center footer UMLDoclet 1.1.4, PlantUML 1.2019.05
@enduml

PlantUML version 1.2019.05(Sat Apr 20 18:45:36 CEST 2019)
(APACHE source distribution)
Java Runtime: Java(TM) SE Runtime Environment
JVM: Java HotSpot(TM) 64-Bit Server VM
Java Version: 1.8.0_152-b16
Operating System: Mac OS X
OS Version: 10.13.6
Default Encoding: UTF-8
Language: de
Country: DE
--></g></svg>