<?xml version="1.0" encoding="UTF-8" standalone="no"?><svg xmlns="http://www.w3.org/2000/svg" xmlns:xlink="http://www.w3.org/1999/xlink" contentScriptType="application/ecmascript" contentStyleType="text/css" height="763px" preserveAspectRatio="none" style="width:286px;height:763px;" version="1.1" viewBox="0 0 286 763" width="286px" zoomAndPan="magnify"><defs><filter height="300%" id="f1cvp4pq9o0qls" width="300%" x="-1" y="-1"><feGaussianBlur result="blurOut" stdDeviation="2.0"/><feColorMatrix in="blurOut" result="blurOut2" type="matrix" values="0 0 0 0 0 0 0 0 0 0 0 0 0 0 0 0 0 0 .4 0"/><feOffset dx="4.0" dy="4.0" in="blurOut2" result="blurOut3"/><feBlend in="SourceGraphic" in2="blurOut3" mode="normal"/></filter></defs><g><!--class DukesFxGUI--><a href="DukesFxGUI.html" target="_top" xlink:actuate="onRequest" xlink:show="new" xlink:title="DukesFxGUI.html" xlink:type="simple"><rect fill="#FEFECE" filter="url(#f1cvp4pq9o0qls)" height="721.6641" id="DukesFxGUI" style="stroke: #A80036; stroke-width: 1.5;" width="269" x="6" y="8"/><ellipse cx="101.75" cy="24" fill="#ADD1B2" rx="11" ry="11" style="stroke: #A80036; stroke-width: 1.0;"/><path d="M104.7231,29.6431 Q104.1421,29.9419 103.5029,30.0913 Q102.8638,30.2407 102.1582,30.2407 Q99.6514,30.2407 98.3315,28.5889 Q97.0117,26.937 97.0117,23.8159 Q97.0117,20.6865 98.3315,19.0347 Q99.6514,17.3828 102.1582,17.3828 Q102.8638,17.3828 103.5112,17.5322 Q104.1587,17.6816 104.7231,17.9805 L104.7231,20.7031 Q104.0923,20.1221 103.4988,19.8523 Q102.9053,19.5825 102.2744,19.5825 Q100.9297,19.5825 100.2449,20.6492 Q99.5601,21.7158 99.5601,23.8159 Q99.5601,25.9077 100.2449,26.9744 Q100.9297,28.041 102.2744,28.041 Q102.9053,28.041 103.4988,27.7712 Q104.0923,27.5015 104.7231,26.9204 Z "/><text fill="#000000" font-family="sans-serif" font-size="12" lengthAdjust="spacingAndGlyphs" textLength="69" x="122.25" y="28.5352">DukesFxGUI</text><line style="stroke: #A80036; stroke-width: 1.5;" x1="7" x2="274" y1="40" y2="40"/><ellipse cx="17" cy="51.9775" fill="none" rx="3" ry="3" style="stroke: #038048; stroke-width: 1.0;"/><text fill="#000000" font-family="sans-serif" font-size="11" lengthAdjust="spacingAndGlyphs" text-decoration="underline" textLength="146" x="26" y="54.6348">isoDateFormat: DateFormat</text><polygon fill="none" points="17,59.9326,21,63.9326,17,67.9326,13,63.9326" style="stroke: #B38D22; stroke-width: 1.0;"/><text fill="#000000" font-family="sans-serif" font-size="11" lengthAdjust="spacingAndGlyphs" textLength="106" x="26" y="67.5898">homeButton: Button</text><polygon fill="none" points="17,72.8877,21,76.8877,17,80.8877,13,76.8877" style="stroke: #B38D22; stroke-width: 1.0;"/><text fill="#000000" font-family="sans-serif" font-size="11" lengthAdjust="spacingAndGlyphs" textLength="109" x="26" y="80.5449">detectButton: Button</text><polygon fill="none" points="17,85.8428,21,89.8428,17,93.8428,13,89.8428" style="stroke: #B38D22; stroke-width: 1.0;"/><text fill="#000000" font-family="sans-serif" font-size="11" lengthAdjust="spacingAndGlyphs" textLength="111" x="26" y="93.5">githubButton: Button</text><polygon fill="none" points="17,98.7979,21,102.7979,17,106.7979,13,102.7979" style="stroke: #B38D22; stroke-width: 1.0;"/><text fill="#000000" font-family="sans-serif" font-size="11" lengthAdjust="spacingAndGlyphs" textLength="99" x="26" y="106.4551">chatButton: Button</text><polygon fill="none" points="17,111.7529,21,115.7529,17,119.7529,13,115.7529" style="stroke: #B38D22; stroke-width: 1.0;"/><text fill="#000000" font-family="sans-serif" font-size="11" lengthAdjust="spacingAndGlyphs" textLength="99" x="26" y="119.4102">helpButton: Button</text><polygon fill="none" points="17,124.708,21,128.708,17,132.708,13,128.708" style="stroke: #B38D22; stroke-width: 1.0;"/><text fill="#000000" font-family="sans-serif" font-size="11" lengthAdjust="spacingAndGlyphs" textLength="129" x="26" y="132.3652">fullScreenButton: Button</text><polygon fill="none" points="17,137.6631,21,141.6631,17,145.6631,13,141.6631" style="stroke: #B38D22; stroke-width: 1.0;"/><text fill="#000000" font-family="sans-serif" font-size="11" lengthAdjust="spacingAndGlyphs" textLength="128" x="26" y="145.3203">hideMenuButton: Button</text><polygon fill="none" points="17,150.6182,21,154.6182,17,158.6182,13,154.6182" style="stroke: #B38D22; stroke-width: 1.0;"/><text fill="#000000" font-family="sans-serif" font-size="11" lengthAdjust="spacingAndGlyphs" textLength="115" x="26" y="158.2754">cameraButton: Button</text><polygon fill="none" points="17,163.5732,21,167.5732,17,171.5732,13,167.5732" style="stroke: #B38D22; stroke-width: 1.0;"/><text fill="#000000" font-family="sans-serif" font-size="11" lengthAdjust="spacingAndGlyphs" textLength="135" x="26" y="171.2305">firstPictureButton: Button</text><polygon fill="none" points="17,176.5283,21,180.5283,17,184.5283,13,180.5283" style="stroke: #B38D22; stroke-width: 1.0;"/><text fill="#000000" font-family="sans-serif" font-size="11" lengthAdjust="spacingAndGlyphs" textLength="137" x="26" y="184.1855">nextPictureButton: Button</text><polygon fill="none" points="17,189.4834,21,193.4834,17,197.4834,13,193.4834" style="stroke: #B38D22; stroke-width: 1.0;"/><text fill="#000000" font-family="sans-serif" font-size="11" lengthAdjust="spacingAndGlyphs" textLength="137" x="26" y="197.1406">prevPictureButton: Button</text><polygon fill="none" points="17,202.4385,21,206.4385,17,210.4385,13,206.4385" style="stroke: #B38D22; stroke-width: 1.0;"/><text fill="#000000" font-family="sans-serif" font-size="11" lengthAdjust="spacingAndGlyphs" textLength="155" x="26" y="210.0957">forwardPictureButton: Button</text><polygon fill="none" points="17,215.3936,21,219.3936,17,223.3936,13,219.3936" style="stroke: #B38D22; stroke-width: 1.0;"/><text fill="#000000" font-family="sans-serif" font-size="11" lengthAdjust="spacingAndGlyphs" textLength="166" x="26" y="223.0508">lanevideo: ComboBox&lt;String&gt;</text><polygon fill="none" points="17,228.3486,21,232.3486,17,236.3486,13,232.3486" style="stroke: #B38D22; stroke-width: 1.0;"/><text fill="#000000" font-family="sans-serif" font-size="11" lengthAdjust="spacingAndGlyphs" textLength="169" x="26" y="236.0059">startvideo: ComboBox&lt;String&gt;</text><polygon fill="none" points="17,241.3037,21,245.3037,17,249.3037,13,245.3037" style="stroke: #B38D22; stroke-width: 1.0;"/><text fill="#000000" font-family="sans-serif" font-size="11" lengthAdjust="spacingAndGlyphs" textLength="107" x="26" y="248.9609">motorGauge: Gauge</text><polygon fill="none" points="17,254.2588,21,258.2588,17,262.2588,13,258.2588" style="stroke: #B38D22; stroke-width: 1.0;"/><text fill="#000000" font-family="sans-serif" font-size="11" lengthAdjust="spacingAndGlyphs" textLength="118" x="26" y="261.916">steeringGauge: Gauge</text><polygon fill="none" points="17,267.2139,21,271.2139,17,275.2139,13,271.2139" style="stroke: #B38D22; stroke-width: 1.0;"/><text fill="#000000" font-family="sans-serif" font-size="11" lengthAdjust="spacingAndGlyphs" textLength="127" x="26" y="274.8711">messageArea: TextArea</text><polygon fill="none" points="17,280.1689,21,284.1689,17,288.1689,13,284.1689" style="stroke: #B38D22; stroke-width: 1.0;"/><text fill="#000000" font-family="sans-serif" font-size="11" lengthAdjust="spacingAndGlyphs" textLength="131" x="26" y="287.8262">heartbeatArea: TextArea</text><polygon fill="none" points="17,293.124,21,297.124,17,301.124,13,297.124" style="stroke: #B38D22; stroke-width: 1.0;"/><text fill="#000000" font-family="sans-serif" font-size="11" lengthAdjust="spacingAndGlyphs" textLength="168" x="26" y="300.7813">angleOffset: LabeledValueSlider</text><polygon fill="none" points="17,306.0791,21,310.0791,17,314.0791,13,310.0791" style="stroke: #B38D22; stroke-width: 1.0;"/><text fill="#000000" font-family="sans-serif" font-size="11" lengthAdjust="spacingAndGlyphs" textLength="127" x="26" y="313.7363">roiy: LabeledValueSlider</text><polygon fill="none" points="17,319.0342,21,323.0342,17,327.0342,13,323.0342" style="stroke: #B38D22; stroke-width: 1.0;"/><text fill="#000000" font-family="sans-serif" font-size="11" lengthAdjust="spacingAndGlyphs" textLength="128" x="26" y="326.6914">roih: LabeledValueSlider</text><line style="stroke: #A80036; stroke-width: 1.5;" x1="7" x2="274" y1="333.0117" y2="333.0117"/><ellipse cx="17" cy="344.9893" fill="#84BE84" rx="3" ry="3" style="stroke: #038048; stroke-width: 1.0;"/><text fill="#000000" font-family="sans-serif" font-size="11" lengthAdjust="spacingAndGlyphs" textLength="83" x="26" y="347.6465">init(Stage): void</text><ellipse cx="17" cy="357.9443" fill="#84BE84" rx="3" ry="3" style="stroke: #038048; stroke-width: 1.0;"/><text fill="#000000" font-family="sans-serif" font-size="11" lengthAdjust="spacingAndGlyphs" textLength="81" x="26" y="360.6016">initialize(): void</text><polygon fill="#FFFF44" points="17,365.8994,21,369.8994,17,373.8994,13,369.8994" style="stroke: #B38D22; stroke-width: 1.0;"/><text fill="#000000" font-family="sans-serif" font-size="11" lengthAdjust="spacingAndGlyphs" textLength="122" x="26" y="373.5566">setSpeed(double): void</text><polygon fill="#FFFF44" points="17,378.8545,21,382.8545,17,386.8545,13,382.8545" style="stroke: #B38D22; stroke-width: 1.0;"/><text fill="#000000" font-family="sans-serif" font-size="11" lengthAdjust="spacingAndGlyphs" textLength="100" x="26" y="386.5117">getSpeed(): double</text><ellipse cx="17" cy="396.8096" fill="#84BE84" rx="3" ry="3" style="stroke: #038048; stroke-width: 1.0;"/><text fill="#000000" font-family="sans-serif" font-size="11" lengthAdjust="spacingAndGlyphs" textLength="103" x="26" y="399.4668">startCamera(): void</text><ellipse cx="17" cy="409.7646" fill="#84BE84" rx="3" ry="3" style="stroke: #038048; stroke-width: 1.0;"/><text fill="#000000" font-family="sans-serif" font-size="11" lengthAdjust="spacingAndGlyphs" textLength="150" x="26" y="412.4219">displayOriginal(Image): void</text><ellipse cx="17" cy="422.7197" fill="#84BE84" rx="3" ry="3" style="stroke: #038048; stroke-width: 1.0;"/><text fill="#000000" font-family="sans-serif" font-size="11" lengthAdjust="spacingAndGlyphs" textLength="137" x="26" y="425.377">displayOriginal(Mat): void</text><ellipse cx="17" cy="435.6748" fill="#84BE84" rx="3" ry="3" style="stroke: #038048; stroke-width: 1.0;"/><text fill="#000000" font-family="sans-serif" font-size="11" lengthAdjust="spacingAndGlyphs" textLength="114" x="26" y="438.332">display1(Image): void</text><ellipse cx="17" cy="448.6299" fill="#84BE84" rx="3" ry="3" style="stroke: #038048; stroke-width: 1.0;"/><text fill="#000000" font-family="sans-serif" font-size="11" lengthAdjust="spacingAndGlyphs" textLength="114" x="26" y="451.2871">display2(Image): void</text><ellipse cx="17" cy="461.585" fill="#84BE84" rx="3" ry="3" style="stroke: #038048; stroke-width: 1.0;"/><text fill="#000000" font-family="sans-serif" font-size="11" lengthAdjust="spacingAndGlyphs" textLength="114" x="26" y="464.2422">display3(Image): void</text><ellipse cx="17" cy="474.54" fill="#84BE84" rx="3" ry="3" style="stroke: #038048; stroke-width: 1.0;"/><text fill="#000000" font-family="sans-serif" font-size="11" lengthAdjust="spacingAndGlyphs" textLength="185" x="26" y="477.1973">setCameraButtonText(String): void</text><ellipse cx="17" cy="487.4951" fill="#84BE84" rx="3" ry="3" style="stroke: #038048; stroke-width: 1.0;"/><text fill="#000000" font-family="sans-serif" font-size="11" lengthAdjust="spacingAndGlyphs" textLength="167" x="26" y="490.1523">addJustFullScreenButton(): void</text><ellipse cx="17" cy="500.4502" fill="#84BE84" rx="3" ry="3" style="stroke: #038048; stroke-width: 1.0;"/><text fill="#000000" font-family="sans-serif" font-size="11" lengthAdjust="spacingAndGlyphs" textLength="243" x="26" y="503.1074">showMenuBar(Scene, MenuBar, boolean): void</text><ellipse cx="17" cy="513.4053" fill="#84BE84" rx="3" ry="3" style="stroke: #038048; stroke-width: 1.0;"/><text fill="#000000" font-family="sans-serif" font-size="11" lengthAdjust="spacingAndGlyphs" textLength="186" x="26" y="516.0625">isKey(KeyEvent, KeyCode): boolean</text><ellipse cx="17" cy="526.3604" fill="#84BE84" rx="3" ry="3" style="stroke: #038048; stroke-width: 1.0;"/><text fill="#000000" font-family="sans-serif" font-size="11" lengthAdjust="spacingAndGlyphs" textLength="228" x="26" y="529.0176">getStartVideoProperty(): Property&lt;String&gt;</text><ellipse cx="17" cy="539.3154" fill="#84BE84" rx="3" ry="3" style="stroke: #038048; stroke-width: 1.0;"/><text fill="#000000" font-family="sans-serif" font-size="11" lengthAdjust="spacingAndGlyphs" textLength="155" x="26" y="541.9727">setMessageText(String): void</text><ellipse cx="17" cy="552.2705" fill="#84BE84" rx="3" ry="3" style="stroke: #038048; stroke-width: 1.0;"/><text fill="#000000" font-family="sans-serif" font-size="11" lengthAdjust="spacingAndGlyphs" text-decoration="underline" textLength="138" x="26" y="554.9277">getIsoTimeStamp(): String</text><ellipse cx="17" cy="565.2256" fill="#84BE84" rx="3" ry="3" style="stroke: #038048; stroke-width: 1.0;"/><text fill="#000000" font-family="sans-serif" font-size="11" lengthAdjust="spacingAndGlyphs" textLength="179" x="26" y="567.8828">logEvent(String, JsonObject): void</text><ellipse cx="17" cy="578.1807" fill="#84BE84" rx="3" ry="3" style="stroke: #038048; stroke-width: 1.0;"/><text fill="#000000" font-family="sans-serif" font-size="11" lengthAdjust="spacingAndGlyphs" textLength="86" x="26" y="580.8379">log(String): void</text><ellipse cx="17" cy="591.1357" fill="#84BE84" rx="3" ry="3" style="stroke: #038048; stroke-width: 1.0;"/><text fill="#000000" font-family="sans-serif" font-size="11" lengthAdjust="spacingAndGlyphs" textLength="180" x="26" y="593.793">logToArea(TextArea, String): void</text><ellipse cx="17" cy="604.0908" fill="#84BE84" rx="3" ry="3" style="stroke: #038048; stroke-width: 1.0;"/><text fill="#000000" font-family="sans-serif" font-size="11" lengthAdjust="spacingAndGlyphs" textLength="235" x="26" y="606.748">getImageObservable(): Observable&lt;Image&gt;</text><ellipse cx="17" cy="617.0459" fill="#84BE84" rx="3" ry="3" style="stroke: #038048; stroke-width: 1.0;"/><text fill="#000000" font-family="sans-serif" font-size="11" lengthAdjust="spacingAndGlyphs" textLength="175" x="26" y="619.7031">getImageFetcher(): ImageFetcher</text><ellipse cx="17" cy="630.001" fill="#84BE84" rx="3" ry="3" style="stroke: #038048; stroke-width: 1.0;"/><text fill="#000000" font-family="sans-serif" font-size="11" lengthAdjust="spacingAndGlyphs" textLength="129" x="26" y="632.6582">autoStart(boolean): void</text><ellipse cx="17" cy="642.9561" fill="#84BE84" rx="3" ry="3" style="stroke: #038048; stroke-width: 1.0;"/><text fill="#000000" font-family="sans-serif" font-size="11" lengthAdjust="spacingAndGlyphs" textLength="131" x="26" y="645.6133">setDebug(boolean): void</text><ellipse cx="17" cy="655.9111" fill="#84BE84" rx="3" ry="3" style="stroke: #038048; stroke-width: 1.0;"/><text fill="#000000" font-family="sans-serif" font-size="11" lengthAdjust="spacingAndGlyphs" textLength="181" x="26" y="658.5684">showPosition(ServoPosition): void</text><ellipse cx="17" cy="668.8662" fill="#84BE84" rx="3" ry="3" style="stroke: #038048; stroke-width: 1.0;"/><text fill="#000000" font-family="sans-serif" font-size="11" lengthAdjust="spacingAndGlyphs" textLength="215" x="26" y="671.5234">setImageCollector(ImageCollector): void</text><ellipse cx="17" cy="681.8213" fill="#84BE84" rx="3" ry="3" style="stroke: #038048; stroke-width: 1.0;"/><text fill="#000000" font-family="sans-serif" font-size="11" lengthAdjust="spacingAndGlyphs" textLength="170" x="26" y="684.4785">setCameraImageWidth(int): void</text><ellipse cx="17" cy="694.7764" fill="#84BE84" rx="3" ry="3" style="stroke: #038048; stroke-width: 1.0;"/><text fill="#000000" font-family="sans-serif" font-size="11" lengthAdjust="spacingAndGlyphs" textLength="223" x="26" y="697.4336">setVideoRecorders(VideoRecorders): void</text><ellipse cx="17" cy="707.7314" fill="#84BE84" rx="3" ry="3" style="stroke: #038048; stroke-width: 1.0;"/><text fill="#000000" font-family="sans-serif" font-size="11" lengthAdjust="spacingAndGlyphs" textLength="152" x="26" y="710.3887">showFrameIndex(long): void</text><ellipse cx="17" cy="720.6865" fill="#84BE84" rx="3" ry="3" style="stroke: #038048; stroke-width: 1.0;"/><text fill="#000000" font-family="sans-serif" font-size="11" lengthAdjust="spacingAndGlyphs" textLength="237" x="26" y="723.3438">displayImageCollector(ImageCollector): void</text></a><text fill="#888888" font-family="sans-serif" font-size="10" lengthAdjust="spacingAndGlyphs" textLength="182" x="55.5" y="749.668">UMLDoclet 1.1.4, PlantUML 1.2019.05</text><!--
@startuml

    class DukesFxGUI [[DukesFxGUI.html]] {
        {static} +isoDateFormat: DateFormat
        #homeButton: Button
        #detectButton: Button
        #githubButton: Button
        #chatButton: Button
        #helpButton: Button
        #fullScreenButton: Button
        #hideMenuButton: Button
        #cameraButton: Button
        #firstPictureButton: Button
        #nextPictureButton: Button
        #prevPictureButton: Button
        #forwardPictureButton: Button
        #lanevideo: ComboBox<String>
        #startvideo: ComboBox<String>
        #motorGauge: Gauge
        #steeringGauge: Gauge
        #messageArea: TextArea
        #heartbeatArea: TextArea
        #angleOffset: LabeledValueSlider
        #roiy: LabeledValueSlider
        #roih: LabeledValueSlider
        +init(Stage): void
        +initialize(): void
        #setSpeed(double): void
        #getSpeed(): double
        +startCamera(): void
        +displayOriginal(Image): void
        +displayOriginal(Mat): void
        +display1(Image): void
        +display2(Image): void
        +display3(Image): void
        +setCameraButtonText(String): void
        +addJustFullScreenButton(): void
        +showMenuBar(Scene, MenuBar, boolean): void
        +isKey(KeyEvent, KeyCode): boolean
        +getStartVideoProperty(): Property<String>
        +setMessageText(String): void
        {static} +getIsoTimeStamp(): String
        +logEvent(String, JsonObject): void
        +log(String): void
        +logToArea(TextArea, String): void
        +getImageObservable(): Observable<Image>
        +getImageFetcher(): ImageFetcher
        +autoStart(boolean): void
        +setDebug(boolean): void
        +showPosition(ServoPosition): void
        +setImageCollector(ImageCollector): void
        +setCameraImageWidth(int): void
        +setVideoRecorders(VideoRecorders): void
        +showFrameIndex(long): void
        +displayImageCollector(ImageCollector): void
    }


    center footer UMLDoclet 1.1.4, PlantUML 1.2019.05
@enduml

PlantUML version 1.2019.05(Sat Apr 20 18:45:36 CEST 2019)
(APACHE source distribution)
Java Runtime: Java(TM) SE Runtime Environment
JVM: Java HotSpot(TM) 64-Bit Server VM
Java Version: 1.8.0_152-b16
Operating System: Mac OS X
OS Version: 10.13.6
Default Encoding: UTF-8
Language: de
Country: DE
--></g></svg>