<?xml version="1.0" encoding="UTF-8" standalone="no"?><svg xmlns="http://www.w3.org/2000/svg" xmlns:xlink="http://www.w3.org/1999/xlink" contentScriptType="application/ecmascript" contentStyleType="text/css" height="758px" preserveAspectRatio="none" style="width:1844px;height:758px;" version="1.1" viewBox="0 0 1844 758" width="1844px" zoomAndPan="magnify"><defs><filter height="300%" id="f1qg2kesrzui2a" width="300%" x="-1" y="-1"><feGaussianBlur result="blurOut" stdDeviation="2.0"/><feColorMatrix in="blurOut" result="blurOut2" type="matrix" values="0 0 0 0 0 0 0 0 0 0 0 0 0 0 0 0 0 0 .4 0"/><feOffset dx="4.0" dy="4.0" in="blurOut2" result="blurOut3"/><feBlend in="SourceGraphic" in2="blurOut3" mode="normal"/></filter></defs><g><!--cluster org.rcdukes.action--><polygon fill="#FFFFFF" filter="url(#f1qg2kesrzui2a)" points="14,16,150,16,157,38.4883,1267,38.4883,1267,717,14,717,14,16" style="stroke: #000000; stroke-width: 1.5;"/><line style="stroke: #000000; stroke-width: 1.5;" x1="14" x2="157" y1="38.4883" y2="38.4883"/><text fill="#000000" font-family="sans-serif" font-size="14" font-weight="bold" lengthAdjust="spacingAndGlyphs" textLength="130" x="18" y="31.5352">org.rcdukes.action</text><!--cluster org.rcdukes.common--><polygon fill="#FFFFFF" filter="url(#f1qg2kesrzui2a)" points="1275,224,1429,224,1436,246.4883,1822,246.4883,1822,372,1275,372,1275,224" style="stroke: #000000; stroke-width: 1.5;"/><line style="stroke: #000000; stroke-width: 1.5;" x1="1275" x2="1436" y1="246.4883" y2="246.4883"/><text fill="#000000" font-family="sans-serif" font-size="14" font-weight="bold" lengthAdjust="spacingAndGlyphs" textLength="148" x="1279" y="239.5352">org.rcdukes.common</text><!--class org.rcdukes.action.Navigator--><a href="Navigator.html" target="_top" xlink:actuate="onRequest" xlink:show="new" xlink:title="Navigator.html" xlink:type="simple"><rect fill="#FEFECE" filter="url(#f1qg2kesrzui2a)" height="125.7305" id="org.rcdukes.action.Navigator" style="stroke: #A80036; stroke-width: 1.5;" width="349" x="325.5" y="43"/><ellipse cx="468.25" cy="59" fill="#B4A7E5" rx="11" ry="11" style="stroke: #A80036; stroke-width: 1.0;"/><path d="M464.1777,54.7651 L464.1777,52.6069 L471.5571,52.6069 L471.5571,54.7651 L469.0918,54.7651 L469.0918,62.8418 L471.5571,62.8418 L471.5571,65 L464.1777,65 L464.1777,62.8418 L466.6431,62.8418 L466.6431,54.7651 Z "/><text fill="#000000" font-family="sans-serif" font-size="12" font-style="italic" lengthAdjust="spacingAndGlyphs" textLength="55" x="488.75" y="63.5352">Navigator</text><line style="stroke: #A80036; stroke-width: 1.5;" x1="326.5" x2="673.5" y1="75" y2="75"/><line style="stroke: #A80036; stroke-width: 1.5;" x1="326.5" x2="673.5" y1="83" y2="83"/><ellipse cx="336.5" cy="94.9775" fill="#84BE84" rx="3" ry="3" style="stroke: #038048; stroke-width: 1.0;"/><text fill="#000000" font-family="sans-serif" font-size="11" font-style="italic" lengthAdjust="spacingAndGlyphs" textLength="265" x="345.5" y="97.6348">fromJsonObject(JsonObject): LaneDetectionResult</text><ellipse cx="336.5" cy="107.9326" fill="#84BE84" rx="3" ry="3" style="stroke: #038048; stroke-width: 1.0;"/><text fill="#000000" font-family="sans-serif" font-size="11" font-style="italic" lengthAdjust="spacingAndGlyphs" textLength="314" x="345.5" y="110.5898">getNavigationInstruction(LaneDetectionResult): JsonObject</text><ellipse cx="336.5" cy="120.8877" fill="#84BE84" rx="3" ry="3" style="stroke: #038048; stroke-width: 1.0;"/><text fill="#000000" font-family="sans-serif" font-size="11" font-style="italic" lengthAdjust="spacingAndGlyphs" textLength="222" x="345.5" y="123.5449">navigateWithInstruction(JsonObject): void</text><ellipse cx="336.5" cy="133.8428" fill="#84BE84" rx="3" ry="3" style="stroke: #038048; stroke-width: 1.0;"/><text fill="#000000" font-family="sans-serif" font-size="11" font-style="italic" lengthAdjust="spacingAndGlyphs" textLength="273" x="345.5" y="136.5">navigateWithMessage(Message&lt;JsonObject&gt;): void</text><ellipse cx="336.5" cy="146.7979" fill="#84BE84" rx="3" ry="3" style="stroke: #038048; stroke-width: 1.0;"/><text fill="#000000" font-family="sans-serif" font-size="11" font-style="italic" lengthAdjust="spacingAndGlyphs" textLength="323" x="345.5" y="149.4551">navigateWithLaneDetectionResult(LaneDetectionResult): void</text><ellipse cx="336.5" cy="159.7529" fill="#84BE84" rx="3" ry="3" style="stroke: #038048; stroke-width: 1.0;"/><text fill="#000000" font-family="sans-serif" font-size="11" font-style="italic" lengthAdjust="spacingAndGlyphs" textLength="249" x="345.5" y="162.4102">videoStopped(VideoRecorders.VideoInfo): void</text></a><!--class org.rcdukes.action.StartLightObserver--><a href="StartLightObserver.html" target="_top" xlink:actuate="onRequest" xlink:show="new" xlink:title="StartLightObserver.html" xlink:type="simple"><rect fill="#FEFECE" filter="url(#f1qg2kesrzui2a)" height="60.9551" id="org.rcdukes.action.StartLightObserver" style="stroke: #A80036; stroke-width: 1.5;" width="278" x="710" y="75.5"/><ellipse cx="791.75" cy="91.5" fill="#ADD1B2" rx="11" ry="11" style="stroke: #A80036; stroke-width: 1.0;"/><path d="M794.7231,97.1431 Q794.1421,97.4419 793.5029,97.5913 Q792.8638,97.7407 792.1582,97.7407 Q789.6514,97.7407 788.3315,96.0889 Q787.0117,94.437 787.0117,91.3159 Q787.0117,88.1865 788.3315,86.5347 Q789.6514,84.8828 792.1582,84.8828 Q792.8638,84.8828 793.5112,85.0322 Q794.1587,85.1816 794.7231,85.4805 L794.7231,88.2031 Q794.0923,87.6221 793.4988,87.3523 Q792.9053,87.0825 792.2744,87.0825 Q790.9297,87.0825 790.2449,88.1492 Q789.5601,89.2158 789.5601,91.3159 Q789.5601,93.4077 790.2449,94.4744 Q790.9297,95.541 792.2744,95.541 Q792.9053,95.541 793.4988,95.2712 Q794.0923,95.0015 794.7231,94.4204 Z "/><text fill="#000000" font-family="sans-serif" font-size="12" lengthAdjust="spacingAndGlyphs" textLength="106" x="812.25" y="96.0352">StartLightObserver</text><line style="stroke: #A80036; stroke-width: 1.5;" x1="711" x2="987" y1="107.5" y2="107.5"/><line style="stroke: #A80036; stroke-width: 1.5;" x1="711" x2="987" y1="115.5" y2="115.5"/><ellipse cx="721" cy="127.4775" fill="#84BE84" rx="3" ry="3" style="stroke: #038048; stroke-width: 1.0;"/><text fill="#000000" font-family="sans-serif" font-size="11" lengthAdjust="spacingAndGlyphs" textLength="252" x="730" y="130.1348">observe(JsonObject): Observable&lt;JsonObject&gt;</text></a><!--class org.rcdukes.action.ActionVerticle--><a href="ActionVerticle.html" target="_top" xlink:actuate="onRequest" xlink:show="new" xlink:title="ActionVerticle.html" xlink:type="simple"><rect fill="#FEFECE" filter="url(#f1qg2kesrzui2a)" height="73.9102" id="org.rcdukes.action.ActionVerticle" style="stroke: #A80036; stroke-width: 1.5;" width="236" x="1023" y="69"/><ellipse cx="1097.75" cy="85" fill="#ADD1B2" rx="11" ry="11" style="stroke: #A80036; stroke-width: 1.0;"/><path d="M1100.7231,90.6431 Q1100.1421,90.9419 1099.5029,91.0913 Q1098.8638,91.2407 1098.1582,91.2407 Q1095.6514,91.2407 1094.3315,89.5889 Q1093.0117,87.937 1093.0117,84.8159 Q1093.0117,81.6865 1094.3315,80.0347 Q1095.6514,78.3828 1098.1582,78.3828 Q1098.8638,78.3828 1099.5112,78.5322 Q1100.1587,78.6816 1100.7231,78.9805 L1100.7231,81.7031 Q1100.0923,81.1221 1099.4988,80.8523 Q1098.9053,80.5825 1098.2744,80.5825 Q1096.9297,80.5825 1096.2449,81.6492 Q1095.5601,82.7158 1095.5601,84.8159 Q1095.5601,86.9077 1096.2449,87.9744 Q1096.9297,89.041 1098.2744,89.041 Q1098.9053,89.041 1099.4988,88.7712 Q1100.0923,88.5015 1100.7231,87.9204 Z "/><text fill="#000000" font-family="sans-serif" font-size="12" lengthAdjust="spacingAndGlyphs" textLength="78" x="1118.25" y="89.5352">ActionVerticle</text><line style="stroke: #A80036; stroke-width: 1.5;" x1="1024" x2="1258" y1="101" y2="101"/><line style="stroke: #A80036; stroke-width: 1.5;" x1="1024" x2="1258" y1="109" y2="109"/><ellipse cx="1034" cy="120.9775" fill="#84BE84" rx="3" ry="3" style="stroke: #038048; stroke-width: 1.0;"/><text fill="#000000" font-family="sans-serif" font-size="11" lengthAdjust="spacingAndGlyphs" textLength="62" x="1043" y="123.6348">start(): void</text><ellipse cx="1034" cy="133.9326" fill="#84BE84" rx="3" ry="3" style="stroke: #038048; stroke-width: 1.0;"/><text fill="#000000" font-family="sans-serif" font-size="11" lengthAdjust="spacingAndGlyphs" text-decoration="underline" textLength="210" x="1043" y="136.5898">emergencyStopCommand(): JsonObject</text></a><!--class org.rcdukes.action.StoppingZoneDetector--><a href="StoppingZoneDetector.html" target="_top" xlink:actuate="onRequest" xlink:show="new" xlink:title="StoppingZoneDetector.html" xlink:type="simple"><rect fill="#FEFECE" filter="url(#f1qg2kesrzui2a)" height="60.9551" id="org.rcdukes.action.StoppingZoneDetector" style="stroke: #A80036; stroke-width: 1.5;" width="268" x="22" y="75.5"/><ellipse cx="88.25" cy="91.5" fill="#ADD1B2" rx="11" ry="11" style="stroke: #A80036; stroke-width: 1.0;"/><path d="M91.2231,97.1431 Q90.6421,97.4419 90.0029,97.5913 Q89.3638,97.7407 88.6582,97.7407 Q86.1514,97.7407 84.8315,96.0889 Q83.5117,94.437 83.5117,91.3159 Q83.5117,88.1865 84.8315,86.5347 Q86.1514,84.8828 88.6582,84.8828 Q89.3638,84.8828 90.0112,85.0322 Q90.6587,85.1816 91.2231,85.4805 L91.2231,88.2031 Q90.5923,87.6221 89.9988,87.3523 Q89.4053,87.0825 88.7744,87.0825 Q87.4297,87.0825 86.7449,88.1492 Q86.0601,89.2158 86.0601,91.3159 Q86.0601,93.4077 86.7449,94.4744 Q87.4297,95.541 88.7744,95.541 Q89.4053,95.541 89.9988,95.2712 Q90.5923,95.0015 91.2231,94.4204 Z "/><text fill="#000000" font-family="sans-serif" font-size="12" lengthAdjust="spacingAndGlyphs" textLength="127" x="108.75" y="96.0352">StoppingZoneDetector</text><line style="stroke: #A80036; stroke-width: 1.5;" x1="23" x2="289" y1="107.5" y2="107.5"/><line style="stroke: #A80036; stroke-width: 1.5;" x1="23" x2="289" y1="115.5" y2="115.5"/><ellipse cx="33" cy="127.4775" fill="#84BE84" rx="3" ry="3" style="stroke: #038048; stroke-width: 1.0;"/><text fill="#000000" font-family="sans-serif" font-size="11" lengthAdjust="spacingAndGlyphs" textLength="242" x="42" y="130.1348">detect(JsonObject): Observable&lt;JsonObject&gt;</text></a><!--class org.rcdukes.action.StraightLaneNavigator--><a href="StraightLaneNavigator.html" target="_top" xlink:actuate="onRequest" xlink:show="new" xlink:title="StraightLaneNavigator.html" xlink:type="simple"><rect fill="#FEFECE" filter="url(#f1qg2kesrzui2a)" height="268.2363" id="org.rcdukes.action.StraightLaneNavigator" style="stroke: #A80036; stroke-width: 1.5;" width="349" x="909.5" y="441"/><ellipse cx="1017.25" cy="457" fill="#ADD1B2" rx="11" ry="11" style="stroke: #A80036; stroke-width: 1.0;"/><path d="M1020.2231,462.6431 Q1019.6421,462.9419 1019.0029,463.0913 Q1018.3638,463.2407 1017.6582,463.2407 Q1015.1514,463.2407 1013.8315,461.5889 Q1012.5117,459.937 1012.5117,456.8159 Q1012.5117,453.6865 1013.8315,452.0347 Q1015.1514,450.3828 1017.6582,450.3828 Q1018.3638,450.3828 1019.0112,450.5322 Q1019.6587,450.6816 1020.2231,450.9805 L1020.2231,453.7031 Q1019.5923,453.1221 1018.9988,452.8523 Q1018.4053,452.5825 1017.7744,452.5825 Q1016.4297,452.5825 1015.7449,453.6492 Q1015.0601,454.7158 1015.0601,456.8159 Q1015.0601,458.9077 1015.7449,459.9744 Q1016.4297,461.041 1017.7744,461.041 Q1018.4053,461.041 1018.9988,460.7712 Q1019.5923,460.5015 1020.2231,459.9204 Z "/><text fill="#000000" font-family="sans-serif" font-size="12" lengthAdjust="spacingAndGlyphs" textLength="125" x="1037.75" y="461.5352">StraightLaneNavigator</text><line style="stroke: #A80036; stroke-width: 1.5;" x1="910.5" x2="1257.5" y1="473" y2="473"/><ellipse cx="920.5" cy="484.9775" fill="none" rx="3" ry="3" style="stroke: #038048; stroke-width: 1.0;"/><text fill="#000000" font-family="sans-serif" font-size="11" lengthAdjust="spacingAndGlyphs" text-decoration="underline" textLength="173" x="929.5" y="487.6348">COMMAND_LOOP_INTERVAL: int</text><ellipse cx="920.5" cy="497.9326" fill="none" rx="3" ry="3" style="stroke: #038048; stroke-width: 1.0;"/><text fill="#000000" font-family="sans-serif" font-size="11" lengthAdjust="spacingAndGlyphs" text-decoration="underline" textLength="228" x="929.5" y="500.5898">MAX_DURATION_NO_LINES_DETECTED: int</text><ellipse cx="920.5" cy="510.8877" fill="none" rx="3" ry="3" style="stroke: #038048; stroke-width: 1.0;"/><text fill="#000000" font-family="sans-serif" font-size="11" lengthAdjust="spacingAndGlyphs" text-decoration="underline" textLength="152" x="929.5" y="513.5449">DEFAULT_TIME_WINDOW: int</text><polygon fill="none" points="920.5,518.8428,924.5,522.8428,920.5,526.8428,916.5,522.8428" style="stroke: #B38D22; stroke-width: 1.0;"/><text fill="#000000" font-family="sans-serif" font-size="11" lengthAdjust="spacingAndGlyphs" text-decoration="underline" textLength="67" x="929.5" y="526.5">LOG: Logger</text><line style="stroke: #A80036; stroke-width: 1.5;" x1="910.5" x2="1257.5" y1="532.8203" y2="532.8203"/><ellipse cx="920.5" cy="544.7979" fill="#84BE84" rx="3" ry="3" style="stroke: #038048; stroke-width: 1.0;"/><text fill="#000000" font-family="sans-serif" font-size="11" lengthAdjust="spacingAndGlyphs" textLength="127" x="929.5" y="547.4551">StraightLaneNavigator()</text><ellipse cx="920.5" cy="557.7529" fill="#84BE84" rx="3" ry="3" style="stroke: #038048; stroke-width: 1.0;"/><text fill="#000000" font-family="sans-serif" font-size="11" lengthAdjust="spacingAndGlyphs" textLength="141" x="929.5" y="560.4102">StraightLaneNavigator(int)</text><ellipse cx="920.5" cy="570.708" fill="#84BE84" rx="3" ry="3" style="stroke: #038048; stroke-width: 1.0;"/><text fill="#000000" font-family="sans-serif" font-size="11" lengthAdjust="spacingAndGlyphs" textLength="225" x="929.5" y="573.3652">addToGraph(LaneDetectionResult): Vertex</text><ellipse cx="920.5" cy="583.6631" fill="#84BE84" rx="3" ry="3" style="stroke: #038048; stroke-width: 1.0;"/><text fill="#000000" font-family="sans-serif" font-size="11" lengthAdjust="spacingAndGlyphs" textLength="265" x="929.5" y="586.3203">fromJsonObject(JsonObject): LaneDetectionResult</text><ellipse cx="920.5" cy="596.6182" fill="#84BE84" rx="3" ry="3" style="stroke: #038048; stroke-width: 1.0;"/><text fill="#000000" font-family="sans-serif" font-size="11" lengthAdjust="spacingAndGlyphs" textLength="301" x="929.5" y="599.2754">cmdOk(StraightLaneNavigator.AngleRange, int): boolean</text><ellipse cx="920.5" cy="609.5732" fill="#84BE84" rx="3" ry="3" style="stroke: #038048; stroke-width: 1.0;"/><text fill="#000000" font-family="sans-serif" font-size="11" lengthAdjust="spacingAndGlyphs" textLength="188" x="929.5" y="612.2305">setTime(LaneDetectionResult): void</text><ellipse cx="920.5" cy="622.5283" fill="#84BE84" rx="3" ry="3" style="stroke: #038048; stroke-width: 1.0;"/><text fill="#000000" font-family="sans-serif" font-size="11" lengthAdjust="spacingAndGlyphs" textLength="210" x="929.5" y="625.1855">analyzeAngleRanges(int, boolean): void</text><ellipse cx="920.5" cy="635.4834" fill="#84BE84" rx="3" ry="3" style="stroke: #038048; stroke-width: 1.0;"/><text fill="#000000" font-family="sans-serif" font-size="11" lengthAdjust="spacingAndGlyphs" textLength="314" x="929.5" y="638.1406">getNavigationInstruction(LaneDetectionResult): JsonObject</text><ellipse cx="920.5" cy="648.4385" fill="#84BE84" rx="3" ry="3" style="stroke: #038048; stroke-width: 1.0;"/><text fill="#000000" font-family="sans-serif" font-size="11" lengthAdjust="spacingAndGlyphs" textLength="192" x="929.5" y="651.0957">steerCommand(Double): JsonObject</text><ellipse cx="920.5" cy="661.3936" fill="#84BE84" rx="3" ry="3" style="stroke: #038048; stroke-width: 1.0;"/><text fill="#000000" font-family="sans-serif" font-size="11" lengthAdjust="spacingAndGlyphs" textLength="222" x="929.5" y="664.0508">navigateWithInstruction(JsonObject): void</text><ellipse cx="920.5" cy="674.3486" fill="#84BE84" rx="3" ry="3" style="stroke: #038048; stroke-width: 1.0;"/><text fill="#000000" font-family="sans-serif" font-size="11" lengthAdjust="spacingAndGlyphs" textLength="273" x="929.5" y="677.0059">navigateWithMessage(Message&lt;JsonObject&gt;): void</text><ellipse cx="920.5" cy="687.3037" fill="#84BE84" rx="3" ry="3" style="stroke: #038048; stroke-width: 1.0;"/><text fill="#000000" font-family="sans-serif" font-size="11" lengthAdjust="spacingAndGlyphs" textLength="323" x="929.5" y="689.9609">navigateWithLaneDetectionResult(LaneDetectionResult): void</text><ellipse cx="920.5" cy="700.2588" fill="#84BE84" rx="3" ry="3" style="stroke: #038048; stroke-width: 1.0;"/><text fill="#000000" font-family="sans-serif" font-size="11" lengthAdjust="spacingAndGlyphs" textLength="249" x="929.5" y="702.916">videoStopped(VideoRecorders.VideoInfo): void</text></a><!--class org.rcdukes.common.GraphDatabase--><rect fill="#FEFECE" filter="url(#f1qg2kesrzui2a)" height="112.7754" id="org.rcdukes.common.GraphDatabase" style="stroke: #A80036; stroke-width: 1.5;" width="203" x="1283.5" y="251"/><ellipse cx="1335.25" cy="267" fill="#B4A7E5" rx="11" ry="11" style="stroke: #A80036; stroke-width: 1.0;"/><path d="M1331.1777,262.7651 L1331.1777,260.6069 L1338.5571,260.6069 L1338.5571,262.7651 L1336.0918,262.7651 L1336.0918,270.8418 L1338.5571,270.8418 L1338.5571,273 L1331.1777,273 L1331.1777,270.8418 L1333.6431,270.8418 L1333.6431,262.7651 Z "/><text fill="#000000" font-family="sans-serif" font-size="12" font-style="italic" lengthAdjust="spacingAndGlyphs" textLength="91" x="1355.75" y="271.5352">GraphDatabase</text><line style="stroke: #A80036; stroke-width: 1.5;" x1="1284.5" x2="1485.5" y1="283" y2="283"/><line style="stroke: #A80036; stroke-width: 1.5;" x1="1284.5" x2="1485.5" y1="291" y2="291"/><ellipse cx="1294.5" cy="302.9775" fill="#84BE84" rx="3" ry="3" style="stroke: #038048; stroke-width: 1.0;"/><text fill="#000000" font-family="sans-serif" font-size="11" font-style="italic" lengthAdjust="spacingAndGlyphs" textLength="141" x="1303.5" y="305.6348">g(): GraphTraversalSource</text><ellipse cx="1294.5" cy="315.9326" fill="#84BE84" rx="3" ry="3" style="stroke: #038048; stroke-width: 1.0;"/><text fill="#000000" font-family="sans-serif" font-size="11" font-style="italic" lengthAdjust="spacingAndGlyphs" textLength="128" x="1303.5" y="318.5898">writeGraph(String): void</text><ellipse cx="1294.5" cy="328.8877" fill="#84BE84" rx="3" ry="3" style="stroke: #038048; stroke-width: 1.0;"/><text fill="#000000" font-family="sans-serif" font-size="11" font-style="italic" lengthAdjust="spacingAndGlyphs" textLength="111" x="1303.5" y="331.5449">loadGraph(File): void</text><ellipse cx="1294.5" cy="341.8428" fill="#84BE84" rx="3" ry="3" style="stroke: #038048; stroke-width: 1.0;"/><text fill="#000000" font-family="sans-serif" font-size="11" font-style="italic" lengthAdjust="spacingAndGlyphs" textLength="177" x="1303.5" y="344.5">fromVertex(Vertex, Class&lt;T&gt;): T</text><ellipse cx="1294.5" cy="354.7979" fill="#84BE84" rx="3" ry="3" style="stroke: #038048; stroke-width: 1.0;"/><text fill="#000000" font-family="sans-serif" font-size="11" font-style="italic" lengthAdjust="spacingAndGlyphs" textLength="127" x="1303.5" y="357.4551">addVertex(Object): void</text><!--class org.rcdukes.common.DukesVerticle--><rect fill="#FEFECE" filter="url(#f1qg2kesrzui2a)" height="48" id="org.rcdukes.common.DukesVerticle" style="stroke: #A80036; stroke-width: 1.5;" width="111" x="1521.5" y="283.5"/><ellipse cx="1536.5" cy="299.5" fill="#A9DCDF" rx="11" ry="11" style="stroke: #A80036; stroke-width: 1.0;"/><path d="M1536.6133,294.8481 L1535.4595,299.9199 L1537.7754,299.9199 Z M1535.1191,292.6069 L1538.1157,292.6069 L1541.4609,305 L1539.0122,305 L1538.2485,301.937 L1534.9697,301.937 L1534.2227,305 L1531.7739,305 Z "/><text fill="#000000" font-family="sans-serif" font-size="12" font-style="italic" lengthAdjust="spacingAndGlyphs" textLength="79" x="1550.5" y="304.0352">DukesVerticle</text><line style="stroke: #A80036; stroke-width: 1.5;" x1="1522.5" x2="1631.5" y1="315.5" y2="315.5"/><line style="stroke: #A80036; stroke-width: 1.5;" x1="1522.5" x2="1631.5" y1="323.5" y2="323.5"/><!--class org.rcdukes.common.TinkerPopDatabase--><rect fill="#FEFECE" filter="url(#f1qg2kesrzui2a)" height="48" id="org.rcdukes.common.TinkerPopDatabase" style="stroke: #A80036; stroke-width: 1.5;" width="146" x="1668" y="283.5"/><ellipse cx="1683" cy="299.5" fill="#ADD1B2" rx="11" ry="11" style="stroke: #A80036; stroke-width: 1.0;"/><path d="M1685.9731,305.1431 Q1685.3921,305.4419 1684.7529,305.5913 Q1684.1138,305.7407 1683.4082,305.7407 Q1680.9014,305.7407 1679.5815,304.0889 Q1678.2617,302.437 1678.2617,299.3159 Q1678.2617,296.1865 1679.5815,294.5347 Q1680.9014,292.8828 1683.4082,292.8828 Q1684.1138,292.8828 1684.7612,293.0322 Q1685.4087,293.1816 1685.9731,293.4805 L1685.9731,296.2031 Q1685.3423,295.6221 1684.7488,295.3523 Q1684.1553,295.0825 1683.5244,295.0825 Q1682.1797,295.0825 1681.4949,296.1492 Q1680.8101,297.2158 1680.8101,299.3159 Q1680.8101,301.4077 1681.4949,302.4744 Q1682.1797,303.541 1683.5244,303.541 Q1684.1553,303.541 1684.7488,303.2712 Q1685.3423,303.0015 1685.9731,302.4204 Z "/><text fill="#000000" font-family="sans-serif" font-size="12" lengthAdjust="spacingAndGlyphs" textLength="114" x="1697" y="304.0352">TinkerPopDatabase</text><line style="stroke: #A80036; stroke-width: 1.5;" x1="1669" x2="1813" y1="315.5" y2="315.5"/><line style="stroke: #A80036; stroke-width: 1.5;" x1="1669" x2="1813" y1="323.5" y2="323.5"/><!--link org.rcdukes.common.GraphDatabase to org.rcdukes.action.Navigator--><path d="M1305.8568,239.6248 C1295.9227,233.5098 1285.5365,228.0927 1275,224 C1238.8049,209.9406 1226.6613,219.613 1188,216 C967.9692,195.4378 909.358,214.0063 693,169 C686.9611,167.7438 680.8459,166.3649 674.6931,164.8861 " fill="none" id="org.rcdukes.common.GraphDatabase-org.rcdukes.action.Navigator" style="stroke: #A80036; stroke-width: 1.0; stroke-dasharray: 7.0,7.0;"/><polygon fill="none" points="1309.9052,233.9111,1322.6337,250.8518,1302.119,245.5462,1309.9052,233.9111" style="stroke: #A80036; stroke-width: 1.0;"/><!--link org.rcdukes.common.DukesVerticle to org.rcdukes.action.ActionVerticle--><path d="M1549.0068,267.0173 C1536.7133,251.7377 1521.1646,235.3279 1504,224 C1429.8871,175.0888 1333.9039,145.051 1259.2519,127.5296 " fill="none" id="org.rcdukes.common.DukesVerticle-org.rcdukes.action.ActionVerticle" style="stroke: #A80036; stroke-width: 1.0;"/><polygon fill="none" points="1554.9537,263.2769,1561.4159,283.4571,1543.7796,271.7114,1554.9537,263.2769" style="stroke: #A80036; stroke-width: 1.0;"/><!--link org.rcdukes.common.TinkerPopDatabase to org.rcdukes.action.StraightLaneNavigator--><path d="M1694.6691,343.9996 C1680.7954,353.9044 1665.2133,364.0704 1650,372 C1524.5642,437.3805 1373.3461,490.4211 1258.7802,525.868 " fill="none" id="org.rcdukes.common.TinkerPopDatabase-org.rcdukes.action.StraightLaneNavigator" style="stroke: #A80036; stroke-width: 1.0;"/><polygon fill="none" points="1690.933,338.056,1711.1723,331.7812,1699.2635,349.3078,1690.933,338.056" style="stroke: #A80036; stroke-width: 1.0;"/><!--link org.rcdukes.action.Navigator to org.rcdukes.action.StraightLaneNavigator--><path d="M594.1658,181.6229 C681.1339,251.4654 812.3008,356.8032 917.021,440.9022 " fill="none" id="org.rcdukes.action.Navigator-org.rcdukes.action.StraightLaneNavigator" style="stroke: #A80036; stroke-width: 1.0; stroke-dasharray: 7.0,7.0;"/><polygon fill="none" points="589.6684,186.989,578.4576,169.0079,598.4347,176.0733,589.6684,186.989" style="stroke: #A80036; stroke-width: 1.0;"/><!--link org.rcdukes.action.Navigator to org.rcdukes.common.DukesVerticle--><path d="M674.6504,165.0983 C680.8154,166.5168 686.9447,167.8253 693,169 C704.0831,171.1501 1493.884,218.9874 1504,224 C1528.2208,236.0017 1547.8295,259.95 1560.6009,279.1334 " fill="none" id="org.rcdukes.action.Navigator-org.rcdukes.common.DukesVerticle" style="stroke: #A80036; stroke-width: 1.0;"/><polygon fill="#A80036" points="1563.3804,283.397,1561.8162,273.6731,1560.6498,279.2084,1555.1145,278.042,1563.3804,283.397" style="stroke: #A80036; stroke-width: 1.0;"/><text fill="#000000" font-family="sans-serif" font-size="13" lengthAdjust="spacingAndGlyphs" textLength="42" x="1401" y="212.5684">sender</text><!--link org.rcdukes.action.StraightLaneNavigator to org.rcdukes.common.DukesVerticle--><path d="M1258.6441,503.5313 C1336.436,468.4765 1427.5479,422.851 1504,372 C1519.9517,361.3899 1536.0802,347.5401 1549.1055,335.3953 " fill="none" id="org.rcdukes.action.StraightLaneNavigator-org.rcdukes.common.DukesVerticle" style="stroke: #A80036; stroke-width: 1.0;"/><polygon fill="#A80036" points="1553.0445,331.6864,1543.75,334.944,1549.4043,335.1141,1549.2342,340.7683,1553.0445,331.6864" style="stroke: #A80036; stroke-width: 1.0;"/><text fill="#000000" font-family="sans-serif" font-size="13" lengthAdjust="spacingAndGlyphs" textLength="42" x="1462" y="407.5684">sender</text><text fill="#888888" font-family="sans-serif" font-size="10" lengthAdjust="spacingAndGlyphs" textLength="182" x="833" y="744.668">UMLDoclet 1.1.4, PlantUML 1.2019.05</text><!--
@startuml

    namespace org.rcdukes.action {

        interface Navigator [[Navigator.html]] {
            {abstract} +fromJsonObject(JsonObject): LaneDetectionResult
            {abstract} +getNavigationInstruction(LaneDetectionResult): JsonObject
            {abstract} +navigateWithInstruction(JsonObject): void
            {abstract} +navigateWithMessage(Message<JsonObject>): void
            {abstract} +navigateWithLaneDetectionResult(LaneDetectionResult): void
            {abstract} +videoStopped(VideoRecorders.VideoInfo): void
        }

        class StartLightObserver [[StartLightObserver.html]] {
            +observe(JsonObject): Observable<JsonObject>
        }

        class ActionVerticle [[ActionVerticle.html]] {
            +start(): void
            {static} +emergencyStopCommand(): JsonObject
        }

        class StoppingZoneDetector [[StoppingZoneDetector.html]] {
            +detect(JsonObject): Observable<JsonObject>
        }

        class StraightLaneNavigator [[StraightLaneNavigator.html]] {
            {static} +COMMAND_LOOP_INTERVAL: int
            {static} +MAX_DURATION_NO_LINES_DETECTED: int
            {static} +DEFAULT_TIME_WINDOW: int
            {static} #LOG: Logger
            +StraightLaneNavigator()
            +StraightLaneNavigator(int)
            +addToGraph(LaneDetectionResult): Vertex
            +fromJsonObject(JsonObject): LaneDetectionResult
            +cmdOk(StraightLaneNavigator.AngleRange, int): boolean
            +setTime(LaneDetectionResult): void
            +analyzeAngleRanges(int, boolean): void
            +getNavigationInstruction(LaneDetectionResult): JsonObject
            +steerCommand(Double): JsonObject
            +navigateWithInstruction(JsonObject): void
            +navigateWithMessage(Message<JsonObject>): void
            +navigateWithLaneDetectionResult(LaneDetectionResult): void
            +videoStopped(VideoRecorders.VideoInfo): void
        }

        interface org.rcdukes.common.GraphDatabase {
            {abstract} +g(): GraphTraversalSource
            {abstract} +writeGraph(String): void
            {abstract} +loadGraph(File): void
            {abstract} +fromVertex(Vertex, Class<T>): T
            {abstract} +addVertex(Object): void
        }
        org.rcdukes.common.GraphDatabase <|.. Navigator

        abstract class org.rcdukes.common.DukesVerticle
        org.rcdukes.common.DukesVerticle <|- - ActionVerticle

        class org.rcdukes.common.TinkerPopDatabase
        org.rcdukes.common.TinkerPopDatabase <|- - StraightLaneNavigator

        Navigator <|.. StraightLaneNavigator

        Navigator - -> org.rcdukes.common.DukesVerticle: sender

        StraightLaneNavigator - -> org.rcdukes.common.DukesVerticle: sender

    }


    center footer UMLDoclet 1.1.4, PlantUML 1.2019.05
@enduml

PlantUML version 1.2019.05(Sat Apr 20 18:45:36 CEST 2019)
(APACHE source distribution)
Java Runtime: Java(TM) SE Runtime Environment
JVM: Java HotSpot(TM) 64-Bit Server VM
Java Version: 1.8.0_152-b16
Operating System: Mac OS X
OS Version: 10.13.6
Default Encoding: UTF-8
Language: de
Country: DE
--></g></svg>