<?xml version="1.0" encoding="UTF-8" standalone="no"?><svg xmlns="http://www.w3.org/2000/svg" xmlns:xlink="http://www.w3.org/1999/xlink" contentScriptType="application/ecmascript" contentStyleType="text/css" height="313px" preserveAspectRatio="none" style="width:621px;height:313px;" version="1.1" viewBox="0 0 621 313" width="621px" zoomAndPan="magnify"><defs><filter height="300%" id="fi2uzgyi5zmg5" width="300%" x="-1" y="-1"><feGaussianBlur result="blurOut" stdDeviation="2.0"/><feColorMatrix in="blurOut" result="blurOut2" type="matrix" values="0 0 0 0 0 0 0 0 0 0 0 0 0 0 0 0 0 0 .4 0"/><feOffset dx="4.0" dy="4.0" in="blurOut2" result="blurOut3"/><feBlend in="SourceGraphic" in2="blurOut3" mode="normal"/></filter></defs><g><!--cluster nl.vaneijndhoven.objects.stoppingzone--><polygon fill="#FFFFFF" filter="url(#fi2uzgyi5zmg5)" points="14,124,297,124,304,146.4883,599,146.4883,599,272,14,272,14,124" style="stroke: #000000; stroke-width: 1.5;"/><line style="stroke: #000000; stroke-width: 1.5;" x1="14" x2="304" y1="146.4883" y2="146.4883"/><text fill="#000000" font-family="sans-serif" font-size="14" font-weight="bold" lengthAdjust="spacingAndGlyphs" textLength="277" x="18" y="139.5352">nl.vaneijndhoven.objects.stoppingzone</text><!--cluster nl.vaneijndhoven.objects--><polygon fill="#FFFFFF" filter="url(#fi2uzgyi5zmg5)" points="209,16,391,16,398,38.4883,401,38.4883,401,99,209,99,209,16" style="stroke: #000000; stroke-width: 1.5;"/><line style="stroke: #000000; stroke-width: 1.5;" x1="209" x2="398" y1="38.4883" y2="38.4883"/><text fill="#000000" font-family="sans-serif" font-size="14" font-weight="bold" lengthAdjust="spacingAndGlyphs" textLength="176" x="213" y="31.5352">nl.vaneijndhoven.objects</text><!--class nl.vaneijndhoven.objects.stoppingzone.ZoneStartBoundary--><a href="ZoneStartBoundary.html" target="_top" xlink:actuate="onRequest" xlink:show="new" xlink:title="ZoneStartBoundary.html" xlink:type="simple"><rect fill="#FEFECE" filter="url(#fi2uzgyi5zmg5)" height="112.7754" id="nl.vaneijndhoven.objects.stoppingzone.ZoneStartBoundary" style="stroke: #A80036; stroke-width: 1.5;" width="272" x="319" y="151"/><ellipse cx="396.75" cy="167" fill="#ADD1B2" rx="11" ry="11" style="stroke: #A80036; stroke-width: 1.0;"/><path d="M399.7231,172.6431 Q399.1421,172.9419 398.5029,173.0913 Q397.8638,173.2407 397.1582,173.2407 Q394.6514,173.2407 393.3315,171.5889 Q392.0117,169.937 392.0117,166.8159 Q392.0117,163.6865 393.3315,162.0347 Q394.6514,160.3828 397.1582,160.3828 Q397.8638,160.3828 398.5112,160.5322 Q399.1587,160.6816 399.7231,160.9805 L399.7231,163.7031 Q399.0923,163.1221 398.4988,162.8523 Q397.9053,162.5825 397.2744,162.5825 Q395.9297,162.5825 395.2449,163.6492 Q394.5601,164.7158 394.5601,166.8159 Q394.5601,168.9077 395.2449,169.9744 Q395.9297,171.041 397.2744,171.041 Q397.9053,171.041 398.4988,170.7712 Q399.0923,170.5015 399.7231,169.9204 Z "/><text fill="#000000" font-family="sans-serif" font-size="12" lengthAdjust="spacingAndGlyphs" textLength="108" x="417.25" y="171.5352">ZoneStartBoundary</text><line style="stroke: #A80036; stroke-width: 1.5;" x1="320" x2="590" y1="183" y2="183"/><ellipse cx="330" cy="194.9775" fill="none" rx="3" ry="3" style="stroke: #038048; stroke-width: 1.0;"/><text fill="#000000" font-family="sans-serif" font-size="11" lengthAdjust="spacingAndGlyphs" text-decoration="underline" textLength="134" x="339" y="197.6348">DEFAULT_ANGLE: double</text><ellipse cx="330" cy="207.9326" fill="none" rx="3" ry="3" style="stroke: #038048; stroke-width: 1.0;"/><text fill="#000000" font-family="sans-serif" font-size="11" lengthAdjust="spacingAndGlyphs" text-decoration="underline" textLength="163" x="339" y="210.5898">DEFAULT_TOLERANCE: double</text><line style="stroke: #A80036; stroke-width: 1.5;" x1="320" x2="590" y1="216.9102" y2="216.9102"/><ellipse cx="330" cy="228.8877" fill="#84BE84" rx="3" ry="3" style="stroke: #038048; stroke-width: 1.0;"/><text fill="#000000" font-family="sans-serif" font-size="11" lengthAdjust="spacingAndGlyphs" textLength="111" x="339" y="231.5449">ZoneStartBoundary()</text><ellipse cx="330" cy="241.8428" fill="#84BE84" rx="3" ry="3" style="stroke: #038048; stroke-width: 1.0;"/><text fill="#000000" font-family="sans-serif" font-size="11" lengthAdjust="spacingAndGlyphs" textLength="240" x="339" y="244.5">ZoneStartBoundary(double, double, boolean)</text><ellipse cx="330" cy="254.7979" fill="#84BE84" rx="3" ry="3" style="stroke: #038048; stroke-width: 1.0;"/><text fill="#000000" font-family="sans-serif" font-size="11" lengthAdjust="spacingAndGlyphs" textLength="246" x="339" y="257.4551">boundary(Collection&lt;Line&gt;): Optional&lt;Line&gt;</text></a><!--class nl.vaneijndhoven.objects.stoppingzone.ZoneEndBoundary--><a href="ZoneEndBoundary.html" target="_top" xlink:actuate="onRequest" xlink:show="new" xlink:title="ZoneEndBoundary.html" xlink:type="simple"><rect fill="#FEFECE" filter="url(#fi2uzgyi5zmg5)" height="99.8203" id="nl.vaneijndhoven.objects.stoppingzone.ZoneEndBoundary" style="stroke: #A80036; stroke-width: 1.5;" width="261" x="22.5" y="157.5"/><ellipse cx="96.75" cy="173.5" fill="#ADD1B2" rx="11" ry="11" style="stroke: #A80036; stroke-width: 1.0;"/><path d="M99.7231,179.1431 Q99.1421,179.4419 98.5029,179.5913 Q97.8638,179.7407 97.1582,179.7407 Q94.6514,179.7407 93.3315,178.0889 Q92.0117,176.437 92.0117,173.3159 Q92.0117,170.1865 93.3315,168.5347 Q94.6514,166.8828 97.1582,166.8828 Q97.8638,166.8828 98.5112,167.0322 Q99.1587,167.1816 99.7231,167.4805 L99.7231,170.2031 Q99.0923,169.6221 98.4988,169.3523 Q97.9053,169.0825 97.2744,169.0825 Q95.9297,169.0825 95.2449,170.1492 Q94.5601,171.2158 94.5601,173.3159 Q94.5601,175.4077 95.2449,176.4744 Q95.9297,177.541 97.2744,177.541 Q97.9053,177.541 98.4988,177.2712 Q99.0923,177.0015 99.7231,176.4204 Z "/><text fill="#000000" font-family="sans-serif" font-size="12" lengthAdjust="spacingAndGlyphs" textLength="104" x="117.25" y="178.0352">ZoneEndBoundary</text><line style="stroke: #A80036; stroke-width: 1.5;" x1="23.5" x2="282.5" y1="189.5" y2="189.5"/><ellipse cx="33.5" cy="201.4775" fill="none" rx="3" ry="3" style="stroke: #038048; stroke-width: 1.0;"/><text fill="#000000" font-family="sans-serif" font-size="11" lengthAdjust="spacingAndGlyphs" text-decoration="underline" textLength="134" x="42.5" y="204.1348">DEFAULT_ANGLE: double</text><ellipse cx="33.5" cy="214.4326" fill="none" rx="3" ry="3" style="stroke: #038048; stroke-width: 1.0;"/><text fill="#000000" font-family="sans-serif" font-size="11" lengthAdjust="spacingAndGlyphs" text-decoration="underline" textLength="163" x="42.5" y="217.0898">DEFAULT_TOLERANCE: double</text><line style="stroke: #A80036; stroke-width: 1.5;" x1="23.5" x2="282.5" y1="223.4102" y2="223.4102"/><ellipse cx="33.5" cy="235.3877" fill="#84BE84" rx="3" ry="3" style="stroke: #038048; stroke-width: 1.0;"/><text fill="#000000" font-family="sans-serif" font-size="11" lengthAdjust="spacingAndGlyphs" textLength="106" x="42.5" y="238.0449">ZoneEndBoundary()</text><ellipse cx="33.5" cy="248.3428" fill="#84BE84" rx="3" ry="3" style="stroke: #038048; stroke-width: 1.0;"/><text fill="#000000" font-family="sans-serif" font-size="11" lengthAdjust="spacingAndGlyphs" textLength="235" x="42.5" y="251">ZoneEndBoundary(double, double, boolean)</text></a><!--class nl.vaneijndhoven.objects.Boundary--><rect fill="#FEFECE" filter="url(#fi2uzgyi5zmg5)" height="48" id="nl.vaneijndhoven.objects.Boundary" style="stroke: #A80036; stroke-width: 1.5;" width="86" x="261" y="43"/><ellipse cx="276" cy="59" fill="#ADD1B2" rx="11" ry="11" style="stroke: #A80036; stroke-width: 1.0;"/><path d="M278.9731,64.6431 Q278.3921,64.9419 277.7529,65.0913 Q277.1138,65.2407 276.4082,65.2407 Q273.9014,65.2407 272.5815,63.5889 Q271.2617,61.937 271.2617,58.8159 Q271.2617,55.6865 272.5815,54.0347 Q273.9014,52.3828 276.4082,52.3828 Q277.1138,52.3828 277.7612,52.5322 Q278.4087,52.6816 278.9731,52.9805 L278.9731,55.7031 Q278.3423,55.1221 277.7488,54.8523 Q277.1553,54.5825 276.5244,54.5825 Q275.1797,54.5825 274.4949,55.6492 Q273.8101,56.7158 273.8101,58.8159 Q273.8101,60.9077 274.4949,61.9744 Q275.1797,63.041 276.5244,63.041 Q277.1553,63.041 277.7488,62.7712 Q278.3423,62.5015 278.9731,61.9204 Z "/><text fill="#000000" font-family="sans-serif" font-size="12" lengthAdjust="spacingAndGlyphs" textLength="54" x="290" y="63.5352">Boundary</text><line style="stroke: #A80036; stroke-width: 1.5;" x1="262" x2="346" y1="75" y2="75"/><line style="stroke: #A80036; stroke-width: 1.5;" x1="262" x2="346" y1="83" y2="83"/><!--link nl.vaneijndhoven.objects.Boundary to nl.vaneijndhoven.objects.stoppingzone.ZoneStartBoundary--><path d="M344.7336,104.9012 C359.8765,118.991 377.4065,135.3021 393.971,150.7148 " fill="none" id="nl.vaneijndhoven.objects.Boundary-nl.vaneijndhoven.objects.stoppingzone.ZoneStartBoundary" style="stroke: #A80036; stroke-width: 1.0;"/><polygon fill="none" points="339.8315,109.9015,329.9578,91.1528,349.3683,99.652,339.8315,109.9015" style="stroke: #A80036; stroke-width: 1.0;"/><!--link nl.vaneijndhoven.objects.Boundary to nl.vaneijndhoven.objects.stoppingzone.ZoneEndBoundary--><path d="M263.1909,104.9714 C245.9164,121.0446 225.546,139.9986 207.0488,157.2095 " fill="none" id="nl.vaneijndhoven.objects.Boundary-nl.vaneijndhoven.objects.stoppingzone.ZoneEndBoundary" style="stroke: #A80036; stroke-width: 1.0;"/><polygon fill="none" points="258.6317,99.652,278.0422,91.1528,268.1685,109.9015,258.6317,99.652" style="stroke: #A80036; stroke-width: 1.0;"/><text fill="#888888" font-family="sans-serif" font-size="10" lengthAdjust="spacingAndGlyphs" textLength="182" x="221.5" y="299.668">UMLDoclet 1.1.4, PlantUML 1.2019.05</text><!--
@startuml

    namespace nl.vaneijndhoven.objects.stoppingzone {

        class ZoneStartBoundary [[ZoneStartBoundary.html]] {
            {static} +DEFAULT_ANGLE: double
            {static} +DEFAULT_TOLERANCE: double
            +ZoneStartBoundary()
            +ZoneStartBoundary(double, double, boolean)
            +boundary(Collection<Line>): Optional<Line>
        }

        class ZoneEndBoundary [[ZoneEndBoundary.html]] {
            {static} +DEFAULT_ANGLE: double
            {static} +DEFAULT_TOLERANCE: double
            +ZoneEndBoundary()
            +ZoneEndBoundary(double, double, boolean)
        }

        class nl.vaneijndhoven.objects.Boundary
        nl.vaneijndhoven.objects.Boundary <|- - ZoneStartBoundary

        nl.vaneijndhoven.objects.Boundary <|- - ZoneEndBoundary

    }


    center footer UMLDoclet 1.1.4, PlantUML 1.2019.05
@enduml

PlantUML version 1.2019.05(Sat Apr 20 18:45:36 CEST 2019)
(APACHE source distribution)
Java Runtime: Java(TM) SE Runtime Environment
JVM: Java HotSpot(TM) 64-Bit Server VM
Java Version: 1.8.0_191-b12
Operating System: Mac OS X
OS Version: 10.13.6
Default Encoding: UTF-8
Language: de
Country: DE
--></g></svg>