<?xml version="1.0" encoding="UTF-8" standalone="no"?><svg xmlns="http://www.w3.org/2000/svg" xmlns:xlink="http://www.w3.org/1999/xlink" contentScriptType="application/ecmascript" contentStyleType="text/css" height="603px" preserveAspectRatio="none" style="width:527px;height:603px;" version="1.1" viewBox="0 0 527 603" width="527px" zoomAndPan="magnify"><defs><filter height="300%" id="f1fveq59fmwpj3" width="300%" x="-1" y="-1"><feGaussianBlur result="blurOut" stdDeviation="2.0"/><feColorMatrix in="blurOut" result="blurOut2" type="matrix" values="0 0 0 0 0 0 0 0 0 0 0 0 0 0 0 0 0 0 .4 0"/><feOffset dx="4.0" dy="4.0" in="blurOut2" result="blurOut3"/><feBlend in="SourceGraphic" in2="blurOut3" mode="normal"/></filter></defs><g><!--cluster nl.vaneijndhoven.opencv.linedetection--><polygon fill="#FFFFFF" filter="url(#f1fveq59fmwpj3)" points="14,16,291,16,298,38.4883,505,38.4883,505,562,14,562,14,16" style="stroke: #000000; stroke-width: 1.5;"/><line style="stroke: #000000; stroke-width: 1.5;" x1="14" x2="298" y1="38.4883" y2="38.4883"/><text fill="#000000" font-family="sans-serif" font-size="14" font-weight="bold" lengthAdjust="spacingAndGlyphs" textLength="271" x="18" y="31.5352">nl.vaneijndhoven.opencv.linedetection</text><!--class nl.vaneijndhoven.opencv.linedetection.LineFilter--><a href="LineFilter.html" target="_top" xlink:actuate="onRequest" xlink:show="new" xlink:title="LineFilter.html" xlink:type="simple"><rect fill="#FEFECE" filter="url(#f1fveq59fmwpj3)" height="99.8203" id="nl.vaneijndhoven.opencv.linedetection.LineFilter" style="stroke: #A80036; stroke-width: 1.5;" width="253" x="243.5" y="43"/><ellipse cx="340.25" cy="59" fill="#ADD1B2" rx="11" ry="11" style="stroke: #A80036; stroke-width: 1.0;"/><path d="M343.2231,64.6431 Q342.6421,64.9419 342.0029,65.0913 Q341.3638,65.2407 340.6582,65.2407 Q338.1514,65.2407 336.8315,63.5889 Q335.5117,61.937 335.5117,58.8159 Q335.5117,55.6865 336.8315,54.0347 Q338.1514,52.3828 340.6582,52.3828 Q341.3638,52.3828 342.0112,52.5322 Q342.6587,52.6816 343.2231,52.9805 L343.2231,55.7031 Q342.5923,55.1221 341.9988,54.8523 Q341.4053,54.5825 340.7744,54.5825 Q339.4297,54.5825 338.7449,55.6492 Q338.0601,56.7158 338.0601,58.8159 Q338.0601,60.9077 338.7449,61.9744 Q339.4297,63.041 340.7744,63.041 Q341.4053,63.041 341.9988,62.7712 Q342.5923,62.5015 343.2231,61.9204 Z "/><text fill="#000000" font-family="sans-serif" font-size="12" lengthAdjust="spacingAndGlyphs" textLength="51" x="360.75" y="63.5352">LineFilter</text><line style="stroke: #A80036; stroke-width: 1.5;" x1="244.5" x2="495.5" y1="75" y2="75"/><line style="stroke: #A80036; stroke-width: 1.5;" x1="244.5" x2="495.5" y1="83" y2="83"/><ellipse cx="254.5" cy="94.9775" fill="#84BE84" rx="3" ry="3" style="stroke: #038048; stroke-width: 1.0;"/><text fill="#000000" font-family="sans-serif" font-size="11" lengthAdjust="spacingAndGlyphs" textLength="186" x="263.5" y="97.6348">LineFilter(double, double, boolean)</text><ellipse cx="254.5" cy="107.9326" fill="#84BE84" rx="3" ry="3" style="stroke: #038048; stroke-width: 1.0;"/><text fill="#000000" font-family="sans-serif" font-size="11" lengthAdjust="spacingAndGlyphs" textLength="152" x="263.5" y="110.5898">filter(Mat): Collection&lt;Line&gt;</text><ellipse cx="254.5" cy="120.8877" fill="#84BE84" rx="3" ry="3" style="stroke: #038048; stroke-width: 1.0;"/><text fill="#000000" font-family="sans-serif" font-size="11" lengthAdjust="spacingAndGlyphs" textLength="227" x="263.5" y="123.5449">filter(Collection&lt;Line&gt;): Collection&lt;Line&gt;</text><ellipse cx="254.5" cy="133.8428" fill="#84BE84" rx="3" ry="3" style="stroke: #038048; stroke-width: 1.0;"/><text fill="#000000" font-family="sans-serif" font-size="11" lengthAdjust="spacingAndGlyphs" textLength="90" x="263.5" y="136.5">debug(Mat): void</text></a><!--class nl.vaneijndhoven.opencv.linedetection.ProbabilisticHoughLinesLineDetector--><a href="ProbabilisticHoughLinesLineDetector.html" target="_top" xlink:actuate="onRequest" xlink:show="new" xlink:title="ProbabilisticHoughLinesLineDetector.html" xlink:type="simple"><rect fill="#FEFECE" filter="url(#f1fveq59fmwpj3)" height="112.7754" id="nl.vaneijndhoven.opencv.linedetection.ProbabilisticHoughLinesLineDetector" style="stroke: #A80036; stroke-width: 1.5;" width="469" x="22.5" y="203"/><ellipse cx="148.75" cy="219" fill="#ADD1B2" rx="11" ry="11" style="stroke: #A80036; stroke-width: 1.0;"/><path d="M151.7231,224.6431 Q151.1421,224.9419 150.5029,225.0913 Q149.8638,225.2407 149.1582,225.2407 Q146.6514,225.2407 145.3315,223.5889 Q144.0117,221.937 144.0117,218.8159 Q144.0117,215.6865 145.3315,214.0347 Q146.6514,212.3828 149.1582,212.3828 Q149.8638,212.3828 150.5112,212.5322 Q151.1587,212.6816 151.7231,212.9805 L151.7231,215.7031 Q151.0923,215.1221 150.4988,214.8523 Q149.9053,214.5825 149.2744,214.5825 Q147.9297,214.5825 147.2449,215.6492 Q146.5601,216.7158 146.5601,218.8159 Q146.5601,220.9077 147.2449,221.9744 Q147.9297,223.041 149.2744,223.041 Q149.9053,223.041 150.4988,222.7712 Q151.0923,222.5015 151.7231,221.9204 Z "/><text fill="#000000" font-family="sans-serif" font-size="12" lengthAdjust="spacingAndGlyphs" textLength="208" x="169.25" y="223.5352">ProbabilisticHoughLinesLineDetector</text><line style="stroke: #A80036; stroke-width: 1.5;" x1="23.5" x2="490.5" y1="235" y2="235"/><line style="stroke: #A80036; stroke-width: 1.5;" x1="23.5" x2="490.5" y1="243" y2="243"/><ellipse cx="33.5" cy="254.9775" fill="#84BE84" rx="3" ry="3" style="stroke: #038048; stroke-width: 1.0;"/><text fill="#000000" font-family="sans-serif" font-size="11" lengthAdjust="spacingAndGlyphs" textLength="206" x="42.5" y="257.6348">ProbabilisticHoughLinesLineDetector()</text><ellipse cx="33.5" cy="267.9326" fill="#84BE84" rx="3" ry="3" style="stroke: #038048; stroke-width: 1.0;"/><text fill="#000000" font-family="sans-serif" font-size="11" lengthAdjust="spacingAndGlyphs" textLength="392" x="42.5" y="270.5898">ProbabilisticHoughLinesLineDetector(double, double, int, double, double)</text><ellipse cx="33.5" cy="280.8877" fill="#84BE84" rx="3" ry="3" style="stroke: #038048; stroke-width: 1.0;"/><text fill="#000000" font-family="sans-serif" font-size="11" lengthAdjust="spacingAndGlyphs" textLength="443" x="42.5" y="283.5449">ProbabilisticHoughLinesLineDetector(ProbabilisticHoughLinesLineDetector.Config)</text><ellipse cx="33.5" cy="293.8428" fill="#84BE84" rx="3" ry="3" style="stroke: #038048; stroke-width: 1.0;"/><text fill="#000000" font-family="sans-serif" font-size="11" lengthAdjust="spacingAndGlyphs" textLength="160" x="42.5" y="296.5">detect(Mat): Collection&lt;Line&gt;</text><ellipse cx="33.5" cy="306.7979" fill="#84BE84" rx="3" ry="3" style="stroke: #038048; stroke-width: 1.0;"/><text fill="#000000" font-family="sans-serif" font-size="11" lengthAdjust="spacingAndGlyphs" textLength="396" x="42.5" y="309.4551">withImageCollector(ImageCollector): ProbabilisticHoughLinesLineDetector</text></a><!--class nl.vaneijndhoven.opencv.linedetection.ProbabilisticHoughLinesLineDetector.Config--><a href="ProbabilisticHoughLinesLineDetector.Config.html" target="_top" xlink:actuate="onRequest" xlink:show="new" xlink:title="ProbabilisticHoughLinesLineDetector.Config.html" xlink:type="simple"><rect fill="#FEFECE" filter="url(#f1fveq59fmwpj3)" height="177.5508" id="nl.vaneijndhoven.opencv.linedetection.ProbabilisticHoughLinesLineDetector.Config" style="stroke: #A80036; stroke-width: 1.5;" width="280" x="117" y="376"/><ellipse cx="132" cy="392" fill="#ADD1B2" rx="11" ry="11" style="stroke: #A80036; stroke-width: 1.0;"/><path d="M134.9731,397.6431 Q134.3921,397.9419 133.7529,398.0913 Q133.1138,398.2407 132.4082,398.2407 Q129.9014,398.2407 128.5815,396.5889 Q127.2617,394.937 127.2617,391.8159 Q127.2617,388.6865 128.5815,387.0347 Q129.9014,385.3828 132.4082,385.3828 Q133.1138,385.3828 133.7612,385.5322 Q134.4087,385.6816 134.9731,385.9805 L134.9731,388.7031 Q134.3423,388.1221 133.7488,387.8523 Q133.1553,387.5825 132.5244,387.5825 Q131.1797,387.5825 130.4949,388.6492 Q129.8101,389.7158 129.8101,391.8159 Q129.8101,393.9077 130.4949,394.9744 Q131.1797,396.041 132.5244,396.041 Q133.1553,396.041 133.7488,395.7712 Q134.3423,395.5015 134.9731,394.9204 Z "/><text fill="#000000" font-family="sans-serif" font-size="12" lengthAdjust="spacingAndGlyphs" textLength="248" x="146" y="396.5352">ProbabilisticHoughLinesLineDetector.Config</text><line style="stroke: #A80036; stroke-width: 1.5;" x1="118" x2="396" y1="408" y2="408"/><line style="stroke: #A80036; stroke-width: 1.5;" x1="118" x2="396" y1="416" y2="416"/><ellipse cx="128" cy="427.9775" fill="#84BE84" rx="3" ry="3" style="stroke: #038048; stroke-width: 1.0;"/><text fill="#000000" font-family="sans-serif" font-size="11" lengthAdjust="spacingAndGlyphs" textLength="89" x="137" y="430.6348">getRho(): double</text><ellipse cx="128" cy="440.9326" fill="#84BE84" rx="3" ry="3" style="stroke: #038048; stroke-width: 1.0;"/><text fill="#000000" font-family="sans-serif" font-size="11" lengthAdjust="spacingAndGlyphs" textLength="111" x="137" y="443.5898">setRho(double): void</text><ellipse cx="128" cy="453.8877" fill="#84BE84" rx="3" ry="3" style="stroke: #038048; stroke-width: 1.0;"/><text fill="#000000" font-family="sans-serif" font-size="11" lengthAdjust="spacingAndGlyphs" textLength="98" x="137" y="456.5449">getTheta(): double</text><ellipse cx="128" cy="466.8428" fill="#84BE84" rx="3" ry="3" style="stroke: #038048; stroke-width: 1.0;"/><text fill="#000000" font-family="sans-serif" font-size="11" lengthAdjust="spacingAndGlyphs" textLength="120" x="137" y="469.5">setTheta(double): void</text><ellipse cx="128" cy="479.7979" fill="#84BE84" rx="3" ry="3" style="stroke: #038048; stroke-width: 1.0;"/><text fill="#000000" font-family="sans-serif" font-size="11" lengthAdjust="spacingAndGlyphs" textLength="100" x="137" y="482.4551">getThreshold(): int</text><ellipse cx="128" cy="492.7529" fill="#84BE84" rx="3" ry="3" style="stroke: #038048; stroke-width: 1.0;"/><text fill="#000000" font-family="sans-serif" font-size="11" lengthAdjust="spacingAndGlyphs" textLength="122" x="137" y="495.4102">setThreshold(int): void</text><ellipse cx="128" cy="505.708" fill="#84BE84" rx="3" ry="3" style="stroke: #038048; stroke-width: 1.0;"/><text fill="#000000" font-family="sans-serif" font-size="11" lengthAdjust="spacingAndGlyphs" textLength="146" x="137" y="508.3652">getMinLineLength(): double</text><ellipse cx="128" cy="518.6631" fill="#84BE84" rx="3" ry="3" style="stroke: #038048; stroke-width: 1.0;"/><text fill="#000000" font-family="sans-serif" font-size="11" lengthAdjust="spacingAndGlyphs" textLength="168" x="137" y="521.3203">setMinLineLength(double): void</text><ellipse cx="128" cy="531.6182" fill="#84BE84" rx="3" ry="3" style="stroke: #038048; stroke-width: 1.0;"/><text fill="#000000" font-family="sans-serif" font-size="11" lengthAdjust="spacingAndGlyphs" textLength="133" x="137" y="534.2754">getMaxLineGap(): double</text><ellipse cx="128" cy="544.5732" fill="#84BE84" rx="3" ry="3" style="stroke: #038048; stroke-width: 1.0;"/><text fill="#000000" font-family="sans-serif" font-size="11" lengthAdjust="spacingAndGlyphs" textLength="155" x="137" y="547.2305">setMaxLineGap(double): void</text></a><!--class nl.vaneijndhoven.opencv.linedetection.LineDetector--><a href="LineDetector.html" target="_top" xlink:actuate="onRequest" xlink:show="new" xlink:title="LineDetector.html" xlink:type="simple"><rect fill="#FEFECE" filter="url(#f1fveq59fmwpj3)" height="60.9551" id="nl.vaneijndhoven.opencv.linedetection.LineDetector" style="stroke: #A80036; stroke-width: 1.5;" width="186" x="22" y="62.5"/><ellipse cx="74.75" cy="78.5" fill="#B4A7E5" rx="11" ry="11" style="stroke: #A80036; stroke-width: 1.0;"/><path d="M70.6777,74.2651 L70.6777,72.1069 L78.0571,72.1069 L78.0571,74.2651 L75.5918,74.2651 L75.5918,82.3418 L78.0571,82.3418 L78.0571,84.5 L70.6777,84.5 L70.6777,82.3418 L73.1431,82.3418 L73.1431,74.2651 Z "/><text fill="#000000" font-family="sans-serif" font-size="12" font-style="italic" lengthAdjust="spacingAndGlyphs" textLength="72" x="95.25" y="83.0352">LineDetector</text><line style="stroke: #A80036; stroke-width: 1.5;" x1="23" x2="207" y1="94.5" y2="94.5"/><line style="stroke: #A80036; stroke-width: 1.5;" x1="23" x2="207" y1="102.5" y2="102.5"/><ellipse cx="33" cy="114.4775" fill="#84BE84" rx="3" ry="3" style="stroke: #038048; stroke-width: 1.0;"/><text fill="#000000" font-family="sans-serif" font-size="11" font-style="italic" lengthAdjust="spacingAndGlyphs" textLength="160" x="42" y="117.1348">detect(Mat): Collection&lt;Line&gt;</text></a><!--link nl.vaneijndhoven.opencv.linedetection.LineDetector to nl.vaneijndhoven.opencv.linedetection.ProbabilisticHoughLinesLineDetector--><path d="M154.1174,138.8666 C171.0016,158.6639 190.9219,182.0211 208.7147,202.8838 " fill="none" id="nl.vaneijndhoven.opencv.linedetection.LineDetector-nl.vaneijndhoven.opencv.linedetection.ProbabilisticHoughLinesLineDetector" style="stroke: #A80036; stroke-width: 1.0; stroke-dasharray: 7.0,7.0;"/><polygon fill="none" points="148.6971,143.2984,141.045,123.5387,159.3493,134.2137,148.6971,143.2984" style="stroke: #A80036; stroke-width: 1.0;"/><!--link nl.vaneijndhoven.opencv.linedetection.ProbabilisticHoughLinesLineDetector to nl.vaneijndhoven.opencv.linedetection.ProbabilisticHoughLinesLineDetector.Config--><path d="M257,331.3385 C257,345.6668 257,360.8793 257,375.7111 " fill="none" id="nl.vaneijndhoven.opencv.linedetection.ProbabilisticHoughLinesLineDetector-nl.vaneijndhoven.opencv.linedetection.ProbabilisticHoughLinesLineDetector.Config" style="stroke: #A80036; stroke-width: 1.0;"/><ellipse cx="257.0001" cy="324.1978" fill="#FFFFFF" rx="8" ry="8" style="stroke: #A80036; stroke-width: 1.0;"/><line style="stroke: #A80036; stroke-width: 1.0;" x1="257.0002" x2="257" y1="332.1978" y2="316.1978"/><line style="stroke: #A80036; stroke-width: 1.0;" x1="249.0001" x2="265.0001" y1="324.1979" y2="324.1977"/><text fill="#888888" font-family="sans-serif" font-size="10" lengthAdjust="spacingAndGlyphs" textLength="182" x="174.5" y="589.668">UMLDoclet 1.1.4, PlantUML 1.2019.05</text><!--
@startuml

    namespace nl.vaneijndhoven.opencv.linedetection {

        class LineFilter [[LineFilter.html]] {
            +LineFilter(double, double, boolean)
            +filter(Mat): Collection<Line>
            +filter(Collection<Line>): Collection<Line>
            +debug(Mat): void
        }

        class ProbabilisticHoughLinesLineDetector [[ProbabilisticHoughLinesLineDetector.html]] {
            +ProbabilisticHoughLinesLineDetector()
            +ProbabilisticHoughLinesLineDetector(double, double, int, double, double)
            +ProbabilisticHoughLinesLineDetector(ProbabilisticHoughLinesLineDetector.Config)
            +detect(Mat): Collection<Line>
            +withImageCollector(ImageCollector): ProbabilisticHoughLinesLineDetector
        }

        class nl.vaneijndhoven.opencv.linedetection.ProbabilisticHoughLinesLineDetector.Config [[ProbabilisticHoughLinesLineDetector.Config.html]] {
            +getRho(): double
            +setRho(double): void
            +getTheta(): double
            +setTheta(double): void
            +getThreshold(): int
            +setThreshold(int): void
            +getMinLineLength(): double
            +setMinLineLength(double): void
            +getMaxLineGap(): double
            +setMaxLineGap(double): void
        }

        interface LineDetector [[LineDetector.html]] {
            {abstract} +detect(Mat): Collection<Line>
        }

        LineDetector <|.. ProbabilisticHoughLinesLineDetector

        ProbabilisticHoughLinesLineDetector +- - nl.vaneijndhoven.opencv.linedetection.ProbabilisticHoughLinesLineDetector.Config

    }


    center footer UMLDoclet 1.1.4, PlantUML 1.2019.05
@enduml

PlantUML version 1.2019.05(Sat Apr 20 18:45:36 CEST 2019)
(APACHE source distribution)
Java Runtime: Java(TM) SE Runtime Environment
JVM: Java HotSpot(TM) 64-Bit Server VM
Java Version: 1.8.0_152-b16
Operating System: Mac OS X
OS Version: 10.13.6
Default Encoding: UTF-8
Language: de
Country: DE
--></g></svg>