<?xml version="1.0" encoding="UTF-8" standalone="no"?><svg xmlns="http://www.w3.org/2000/svg" xmlns:xlink="http://www.w3.org/1999/xlink" contentScriptType="application/ecmascript" contentStyleType="text/css" height="102px" preserveAspectRatio="none" style="width:194px;height:102px;" version="1.1" viewBox="0 0 194 102" width="194px" zoomAndPan="magnify"><defs><filter height="300%" id="f146wnxcejneyi" width="300%" x="-1" y="-1"><feGaussianBlur result="blurOut" stdDeviation="2.0"/><feColorMatrix in="blurOut" result="blurOut2" type="matrix" values="0 0 0 0 0 0 0 0 0 0 0 0 0 0 0 0 0 0 .4 0"/><feOffset dx="4.0" dy="4.0" in="blurOut2" result="blurOut3"/><feBlend in="SourceGraphic" in2="blurOut3" mode="normal"/></filter></defs><g><!--class Bo--><a href="Bo.html" target="_top" xlink:actuate="onRequest" xlink:show="new" xlink:title="Bo.html" xlink:type="simple"><rect fill="#FEFECE" filter="url(#f146wnxcejneyi)" height="60.9551" id="Bo" style="stroke: #A80036; stroke-width: 1.5;" width="88" x="41" y="8"/><ellipse cx="74.9" cy="24" fill="#ADD1B2" rx="11" ry="11" style="stroke: #A80036; stroke-width: 1.0;"/><path d="M77.8731,29.6431 Q77.2921,29.9419 76.6529,30.0913 Q76.0138,30.2407 75.3082,30.2407 Q72.8014,30.2407 71.4815,28.5889 Q70.1617,26.937 70.1617,23.8159 Q70.1617,20.6865 71.4815,19.0347 Q72.8014,17.3828 75.3082,17.3828 Q76.0138,17.3828 76.6612,17.5322 Q77.3087,17.6816 77.8731,17.9805 L77.8731,20.7031 Q77.2423,20.1221 76.6488,19.8523 Q76.0553,19.5825 75.4244,19.5825 Q74.0797,19.5825 73.3949,20.6492 Q72.7101,21.7158 72.7101,23.8159 Q72.7101,25.9077 73.3949,26.9744 Q74.0797,28.041 75.4244,28.041 Q76.0553,28.041 76.6488,27.7712 Q77.2423,27.5015 77.8731,26.9204 Z "/><text fill="#000000" font-family="sans-serif" font-size="12" lengthAdjust="spacingAndGlyphs" textLength="14" x="93.1" y="28.5352">Bo</text><line style="stroke: #A80036; stroke-width: 1.5;" x1="42" x2="128" y1="40" y2="40"/><line style="stroke: #A80036; stroke-width: 1.5;" x1="42" x2="128" y1="48" y2="48"/><ellipse cx="52" cy="59.9775" fill="#84BE84" rx="3" ry="3" style="stroke: #038048; stroke-width: 1.0;"/><text fill="#000000" font-family="sans-serif" font-size="11" lengthAdjust="spacingAndGlyphs" textLength="62" x="61" y="62.6348">start(): void</text></a><text fill="#888888" font-family="sans-serif" font-size="10" lengthAdjust="spacingAndGlyphs" textLength="182" x="0" y="88.668">UMLDoclet 1.1.4, PlantUML 1.2019.05</text><!--
@startuml

    class Bo [[Bo.html]] {
        +start(): void
    }


    center footer UMLDoclet 1.1.4, PlantUML 1.2019.05
@enduml

PlantUML version 1.2019.05(Sat Apr 20 18:45:36 CEST 2019)
(APACHE source distribution)
Java Runtime: Java(TM) SE Runtime Environment
JVM: Java HotSpot(TM) 64-Bit Server VM
Java Version: 1.8.0_152-b16
Operating System: Mac OS X
OS Version: 10.13.6
Default Encoding: UTF-8
Language: de
Country: DE
--></g></svg>