<?xml version="1.0" encoding="UTF-8" standalone="no"?><svg xmlns="http://www.w3.org/2000/svg" xmlns:xlink="http://www.w3.org/1999/xlink" contentScriptType="application/ecmascript" contentStyleType="text/css" height="313px" preserveAspectRatio="none" style="width:956px;height:313px;" version="1.1" viewBox="0 0 956 313" width="956px" zoomAndPan="magnify"><defs><filter height="300%" id="f12fvslt6q2d0q" width="300%" x="-1" y="-1"><feGaussianBlur result="blurOut" stdDeviation="2.0"/><feColorMatrix in="blurOut" result="blurOut2" type="matrix" values="0 0 0 0 0 0 0 0 0 0 0 0 0 0 0 0 0 0 .4 0"/><feOffset dx="4.0" dy="4.0" in="blurOut2" result="blurOut3"/><feBlend in="SourceGraphic" in2="blurOut3" mode="normal"/></filter></defs><g><!--cluster org.rcdukes.objects.lane--><polygon fill="#FFFFFF" filter="url(#f12fvslt6q2d0q)" points="14,124,191,124,198,146.4883,934,146.4883,934,272,14,272,14,124" style="stroke: #000000; stroke-width: 1.5;"/><line style="stroke: #000000; stroke-width: 1.5;" x1="14" x2="198" y1="146.4883" y2="146.4883"/><text fill="#000000" font-family="sans-serif" font-size="14" font-weight="bold" lengthAdjust="spacingAndGlyphs" textLength="171" x="18" y="139.5352">org.rcdukes.objects.lane</text><!--cluster org.rcdukes.objects--><polygon fill="#FFFFFF" filter="url(#f12fvslt6q2d0q)" points="234,16,378,16,385,38.4883,388,38.4883,388,99,234,99,234,16" style="stroke: #000000; stroke-width: 1.5;"/><line style="stroke: #000000; stroke-width: 1.5;" x1="234" x2="385" y1="38.4883" y2="38.4883"/><text fill="#000000" font-family="sans-serif" font-size="14" font-weight="bold" lengthAdjust="spacingAndGlyphs" textLength="138" x="238" y="31.5352">org.rcdukes.objects</text><!--class org.rcdukes.objects.lane.BoundaryDefaults--><a href="BoundaryDefaults.html" target="_top" xlink:actuate="onRequest" xlink:show="new" xlink:title="BoundaryDefaults.html" xlink:type="simple"><rect fill="#FEFECE" filter="url(#f12fvslt6q2d0q)" height="73.9102" id="org.rcdukes.objects.lane.BoundaryDefaults" style="stroke: #A80036; stroke-width: 1.5;" width="290" x="636" y="170.5"/><ellipse cx="726.25" cy="186.5" fill="#ADD1B2" rx="11" ry="11" style="stroke: #A80036; stroke-width: 1.0;"/><path d="M729.2231,192.1431 Q728.6421,192.4419 728.0029,192.5913 Q727.3638,192.7407 726.6582,192.7407 Q724.1514,192.7407 722.8315,191.0889 Q721.5117,189.437 721.5117,186.3159 Q721.5117,183.1865 722.8315,181.5347 Q724.1514,179.8828 726.6582,179.8828 Q727.3638,179.8828 728.0112,180.0322 Q728.6587,180.1816 729.2231,180.4805 L729.2231,183.2031 Q728.5923,182.6221 727.9988,182.3523 Q727.4053,182.0825 726.7744,182.0825 Q725.4297,182.0825 724.7449,183.1492 Q724.0601,184.2158 724.0601,186.3159 Q724.0601,188.4077 724.7449,189.4744 Q725.4297,190.541 726.7744,190.541 Q727.4053,190.541 727.9988,190.2712 Q728.5923,190.0015 729.2231,189.4204 Z "/><text fill="#000000" font-family="sans-serif" font-size="12" lengthAdjust="spacingAndGlyphs" textLength="101" x="746.75" y="191.0352">BoundaryDefaults</text><line style="stroke: #A80036; stroke-width: 1.5;" x1="637" x2="925" y1="202.5" y2="202.5"/><ellipse cx="647" cy="214.4775" fill="none" rx="3" ry="3" style="stroke: #038048; stroke-width: 1.0;"/><text fill="#000000" font-family="sans-serif" font-size="11" lengthAdjust="spacingAndGlyphs" text-decoration="underline" textLength="235" x="656" y="217.1348">DEFAULT_LANE_BOUNDARY_ANGLE: double</text><ellipse cx="647" cy="227.4326" fill="none" rx="3" ry="3" style="stroke: #038048; stroke-width: 1.0;"/><text fill="#000000" font-family="sans-serif" font-size="11" lengthAdjust="spacingAndGlyphs" text-decoration="underline" textLength="264" x="656" y="230.0898">DEFAULT_LANE_BOUNDARY_TOLERANCE: double</text><line style="stroke: #A80036; stroke-width: 1.5;" x1="637" x2="925" y1="236.4102" y2="236.4102"/></a><!--class org.rcdukes.objects.lane.LaneRightBoundary--><a href="LaneRightBoundary.html" target="_top" xlink:actuate="onRequest" xlink:show="new" xlink:title="LaneRightBoundary.html" xlink:type="simple"><rect fill="#FEFECE" filter="url(#f12fvslt6q2d0q)" height="112.7754" id="org.rcdukes.objects.lane.LaneRightBoundary" style="stroke: #A80036; stroke-width: 1.5;" width="272" x="329" y="151"/><ellipse cx="405.75" cy="167" fill="#ADD1B2" rx="11" ry="11" style="stroke: #A80036; stroke-width: 1.0;"/><path d="M408.7231,172.6431 Q408.1421,172.9419 407.5029,173.0913 Q406.8638,173.2407 406.1582,173.2407 Q403.6514,173.2407 402.3315,171.5889 Q401.0117,169.937 401.0117,166.8159 Q401.0117,163.6865 402.3315,162.0347 Q403.6514,160.3828 406.1582,160.3828 Q406.8638,160.3828 407.5112,160.5322 Q408.1587,160.6816 408.7231,160.9805 L408.7231,163.7031 Q408.0923,163.1221 407.4988,162.8523 Q406.9053,162.5825 406.2744,162.5825 Q404.9297,162.5825 404.2449,163.6492 Q403.5601,164.7158 403.5601,166.8159 Q403.5601,168.9077 404.2449,169.9744 Q404.9297,171.041 406.2744,171.041 Q406.9053,171.041 407.4988,170.7712 Q408.0923,170.5015 408.7231,169.9204 Z "/><text fill="#000000" font-family="sans-serif" font-size="12" lengthAdjust="spacingAndGlyphs" textLength="110" x="426.25" y="171.5352">LaneRightBoundary</text><line style="stroke: #A80036; stroke-width: 1.5;" x1="330" x2="600" y1="183" y2="183"/><ellipse cx="340" cy="194.9775" fill="none" rx="3" ry="3" style="stroke: #038048; stroke-width: 1.0;"/><text fill="#000000" font-family="sans-serif" font-size="11" lengthAdjust="spacingAndGlyphs" text-decoration="underline" textLength="134" x="349" y="197.6348">DEFAULT_ANGLE: double</text><ellipse cx="340" cy="207.9326" fill="none" rx="3" ry="3" style="stroke: #038048; stroke-width: 1.0;"/><text fill="#000000" font-family="sans-serif" font-size="11" lengthAdjust="spacingAndGlyphs" text-decoration="underline" textLength="163" x="349" y="210.5898">DEFAULT_TOLERANCE: double</text><line style="stroke: #A80036; stroke-width: 1.5;" x1="330" x2="600" y1="216.9102" y2="216.9102"/><ellipse cx="340" cy="228.8877" fill="#84BE84" rx="3" ry="3" style="stroke: #038048; stroke-width: 1.0;"/><text fill="#000000" font-family="sans-serif" font-size="11" lengthAdjust="spacingAndGlyphs" textLength="112" x="349" y="231.5449">LaneRightBoundary()</text><ellipse cx="340" cy="241.8428" fill="#84BE84" rx="3" ry="3" style="stroke: #038048; stroke-width: 1.0;"/><text fill="#000000" font-family="sans-serif" font-size="11" lengthAdjust="spacingAndGlyphs" textLength="241" x="349" y="244.5">LaneRightBoundary(double, double, boolean)</text><ellipse cx="340" cy="254.7979" fill="#84BE84" rx="3" ry="3" style="stroke: #038048; stroke-width: 1.0;"/><text fill="#000000" font-family="sans-serif" font-size="11" lengthAdjust="spacingAndGlyphs" textLength="246" x="349" y="257.4551">boundary(Collection&lt;Line&gt;): Optional&lt;Line&gt;</text></a><!--class org.rcdukes.objects.lane.LaneLeftBoundary--><a href="LaneLeftBoundary.html" target="_top" xlink:actuate="onRequest" xlink:show="new" xlink:title="LaneLeftBoundary.html" xlink:type="simple"><rect fill="#FEFECE" filter="url(#f12fvslt6q2d0q)" height="112.7754" id="org.rcdukes.objects.lane.LaneLeftBoundary" style="stroke: #A80036; stroke-width: 1.5;" width="272" x="22" y="151"/><ellipse cx="102.75" cy="167" fill="#ADD1B2" rx="11" ry="11" style="stroke: #A80036; stroke-width: 1.0;"/><path d="M105.7231,172.6431 Q105.1421,172.9419 104.5029,173.0913 Q103.8638,173.2407 103.1582,173.2407 Q100.6514,173.2407 99.3315,171.5889 Q98.0117,169.937 98.0117,166.8159 Q98.0117,163.6865 99.3315,162.0347 Q100.6514,160.3828 103.1582,160.3828 Q103.8638,160.3828 104.5112,160.5322 Q105.1587,160.6816 105.7231,160.9805 L105.7231,163.7031 Q105.0923,163.1221 104.4988,162.8523 Q103.9053,162.5825 103.2744,162.5825 Q101.9297,162.5825 101.2449,163.6492 Q100.5601,164.7158 100.5601,166.8159 Q100.5601,168.9077 101.2449,169.9744 Q101.9297,171.041 103.2744,171.041 Q103.9053,171.041 104.4988,170.7712 Q105.0923,170.5015 105.7231,169.9204 Z "/><text fill="#000000" font-family="sans-serif" font-size="12" lengthAdjust="spacingAndGlyphs" textLength="102" x="123.25" y="171.5352">LaneLeftBoundary</text><line style="stroke: #A80036; stroke-width: 1.5;" x1="23" x2="293" y1="183" y2="183"/><ellipse cx="33" cy="194.9775" fill="none" rx="3" ry="3" style="stroke: #038048; stroke-width: 1.0;"/><text fill="#000000" font-family="sans-serif" font-size="11" lengthAdjust="spacingAndGlyphs" text-decoration="underline" textLength="134" x="42" y="197.6348">DEFAULT_ANGLE: double</text><ellipse cx="33" cy="207.9326" fill="none" rx="3" ry="3" style="stroke: #038048; stroke-width: 1.0;"/><text fill="#000000" font-family="sans-serif" font-size="11" lengthAdjust="spacingAndGlyphs" text-decoration="underline" textLength="163" x="42" y="210.5898">DEFAULT_TOLERANCE: double</text><line style="stroke: #A80036; stroke-width: 1.5;" x1="23" x2="293" y1="216.9102" y2="216.9102"/><ellipse cx="33" cy="228.8877" fill="#84BE84" rx="3" ry="3" style="stroke: #038048; stroke-width: 1.0;"/><text fill="#000000" font-family="sans-serif" font-size="11" lengthAdjust="spacingAndGlyphs" textLength="104" x="42" y="231.5449">LaneLeftBoundary()</text><ellipse cx="33" cy="241.8428" fill="#84BE84" rx="3" ry="3" style="stroke: #038048; stroke-width: 1.0;"/><text fill="#000000" font-family="sans-serif" font-size="11" lengthAdjust="spacingAndGlyphs" textLength="233" x="42" y="244.5">LaneLeftBoundary(double, double, boolean)</text><ellipse cx="33" cy="254.7979" fill="#84BE84" rx="3" ry="3" style="stroke: #038048; stroke-width: 1.0;"/><text fill="#000000" font-family="sans-serif" font-size="11" lengthAdjust="spacingAndGlyphs" textLength="246" x="42" y="257.4551">boundary(Collection&lt;Line&gt;): Optional&lt;Line&gt;</text></a><!--class org.rcdukes.objects.Boundary--><rect fill="#FEFECE" filter="url(#f12fvslt6q2d0q)" height="48" id="org.rcdukes.objects.Boundary" style="stroke: #A80036; stroke-width: 1.5;" width="86" x="268" y="43"/><ellipse cx="283" cy="59" fill="#ADD1B2" rx="11" ry="11" style="stroke: #A80036; stroke-width: 1.0;"/><path d="M285.9731,64.6431 Q285.3921,64.9419 284.7529,65.0913 Q284.1138,65.2407 283.4082,65.2407 Q280.9014,65.2407 279.5815,63.5889 Q278.2617,61.937 278.2617,58.8159 Q278.2617,55.6865 279.5815,54.0347 Q280.9014,52.3828 283.4082,52.3828 Q284.1138,52.3828 284.7612,52.5322 Q285.4087,52.6816 285.9731,52.9805 L285.9731,55.7031 Q285.3423,55.1221 284.7488,54.8523 Q284.1553,54.5825 283.5244,54.5825 Q282.1797,54.5825 281.4949,55.6492 Q280.8101,56.7158 280.8101,58.8159 Q280.8101,60.9077 281.4949,61.9744 Q282.1797,63.041 283.5244,63.041 Q284.1553,63.041 284.7488,62.7712 Q285.3423,62.5015 285.9731,61.9204 Z "/><text fill="#000000" font-family="sans-serif" font-size="12" lengthAdjust="spacingAndGlyphs" textLength="54" x="297" y="63.5352">Boundary</text><line style="stroke: #A80036; stroke-width: 1.5;" x1="269" x2="353" y1="75" y2="75"/><line style="stroke: #A80036; stroke-width: 1.5;" x1="269" x2="353" y1="83" y2="83"/><!--link org.rcdukes.objects.Boundary to org.rcdukes.objects.lane.LaneRightBoundary--><path d="M352.5429,104.9012 C367.9866,118.991 385.8649,135.3021 402.7585,150.7148 " fill="none" id="org.rcdukes.objects.Boundary-org.rcdukes.objects.lane.LaneRightBoundary" style="stroke: #A80036; stroke-width: 1.0;"/><polygon fill="none" points="347.5306,109.8038,337.4735,91.1528,356.9664,99.4613,347.5306,109.8038" style="stroke: #A80036; stroke-width: 1.0;"/><!--link org.rcdukes.objects.Boundary to org.rcdukes.objects.lane.LaneLeftBoundary--><path d="M269.7269,104.9012 C254.3834,118.991 236.6212,135.3021 219.8373,150.7148 " fill="none" id="org.rcdukes.objects.Boundary-org.rcdukes.objects.lane.LaneLeftBoundary" style="stroke: #A80036; stroke-width: 1.0;"/><polygon fill="none" points="265.2326,99.5245,284.6984,91.1528,274.7019,109.8363,265.2326,99.5245" style="stroke: #A80036; stroke-width: 1.0;"/><text fill="#888888" font-family="sans-serif" font-size="10" lengthAdjust="spacingAndGlyphs" textLength="182" x="389" y="299.668">UMLDoclet 1.1.4, PlantUML 1.2019.05</text><!--
@startuml

    namespace org.rcdukes.objects.lane {

        class BoundaryDefaults [[BoundaryDefaults.html]] {
            {static} +DEFAULT_LANE_BOUNDARY_ANGLE: double
            {static} +DEFAULT_LANE_BOUNDARY_TOLERANCE: double
        }

        class LaneRightBoundary [[LaneRightBoundary.html]] {
            {static} +DEFAULT_ANGLE: double
            {static} +DEFAULT_TOLERANCE: double
            +LaneRightBoundary()
            +LaneRightBoundary(double, double, boolean)
            +boundary(Collection<Line>): Optional<Line>
        }

        class LaneLeftBoundary [[LaneLeftBoundary.html]] {
            {static} +DEFAULT_ANGLE: double
            {static} +DEFAULT_TOLERANCE: double
            +LaneLeftBoundary()
            +LaneLeftBoundary(double, double, boolean)
            +boundary(Collection<Line>): Optional<Line>
        }

        class org.rcdukes.objects.Boundary
        org.rcdukes.objects.Boundary <|- - LaneRightBoundary

        org.rcdukes.objects.Boundary <|- - LaneLeftBoundary

    }


    center footer UMLDoclet 1.1.4, PlantUML 1.2019.05
@enduml

PlantUML version 1.2019.05(Sat Apr 20 18:45:36 CEST 2019)
(APACHE source distribution)
Java Runtime: Java(TM) SE Runtime Environment
JVM: Java HotSpot(TM) 64-Bit Server VM
Java Version: 1.8.0_152-b16
Operating System: Mac OS X
OS Version: 10.13.6
Default Encoding: UTF-8
Language: de
Country: DE
--></g></svg>