<?xml version="1.0" encoding="UTF-8" standalone="no"?><svg xmlns="http://www.w3.org/2000/svg" xmlns:xlink="http://www.w3.org/1999/xlink" contentScriptType="application/ecmascript" contentStyleType="text/css" height="261px" preserveAspectRatio="none" style="width:333px;height:261px;" version="1.1" viewBox="0 0 333 261" width="333px" zoomAndPan="magnify"><defs><filter height="300%" id="fo5fo1dw7x61z" width="300%" x="-1" y="-1"><feGaussianBlur result="blurOut" stdDeviation="2.0"/><feColorMatrix in="blurOut" result="blurOut2" type="matrix" values="0 0 0 0 0 0 0 0 0 0 0 0 0 0 0 0 0 0 .4 0"/><feOffset dx="4.0" dy="4.0" in="blurOut2" result="blurOut3"/><feBlend in="SourceGraphic" in2="blurOut3" mode="normal"/></filter></defs><g><!--cluster nl.vaneijndhoven.dukes.unclejesse--><polygon fill="#FFFFFF" filter="url(#fo5fo1dw7x61z)" points="14,124,265,124,272,146.4883,292,146.4883,292,220,14,220,14,124" style="stroke: #000000; stroke-width: 1.5;"/><line style="stroke: #000000; stroke-width: 1.5;" x1="14" x2="272" y1="146.4883" y2="146.4883"/><text fill="#000000" font-family="sans-serif" font-size="14" font-weight="bold" lengthAdjust="spacingAndGlyphs" textLength="245" x="18" y="139.5352">nl.vaneijndhoven.dukes.unclejesse</text><!--cluster io.vertx.rxjava.core--><polygon fill="#FFFFFF" filter="url(#fo5fo1dw7x61z)" points="163,16,301,16,308,38.4883,311,38.4883,311,99,163,99,163,16" style="stroke: #000000; stroke-width: 1.5;"/><line style="stroke: #000000; stroke-width: 1.5;" x1="163" x2="308" y1="38.4883" y2="38.4883"/><text fill="#000000" font-family="sans-serif" font-size="14" font-weight="bold" lengthAdjust="spacingAndGlyphs" textLength="132" x="167" y="31.5352">io.vertx.rxjava.core</text><!--class nl.vaneijndhoven.dukes.unclejesse.UncleJesse--><a href="UncleJesse.html" target="_top" xlink:actuate="onRequest" xlink:show="new" xlink:title="UncleJesse.html" xlink:type="simple"><rect fill="#FEFECE" filter="url(#fo5fo1dw7x61z)" height="60.9551" id="nl.vaneijndhoven.dukes.unclejesse.UncleJesse" style="stroke: #A80036; stroke-width: 1.5;" width="93" x="190.5" y="151"/><ellipse cx="205.5" cy="167" fill="#ADD1B2" rx="11" ry="11" style="stroke: #A80036; stroke-width: 1.0;"/><path d="M208.4731,172.6431 Q207.8921,172.9419 207.2529,173.0913 Q206.6138,173.2407 205.9082,173.2407 Q203.4014,173.2407 202.0815,171.5889 Q200.7617,169.937 200.7617,166.8159 Q200.7617,163.6865 202.0815,162.0347 Q203.4014,160.3828 205.9082,160.3828 Q206.6138,160.3828 207.2612,160.5322 Q207.9087,160.6816 208.4731,160.9805 L208.4731,163.7031 Q207.8423,163.1221 207.2488,162.8523 Q206.6553,162.5825 206.0244,162.5825 Q204.6797,162.5825 203.9949,163.6492 Q203.3101,164.7158 203.3101,166.8159 Q203.3101,168.9077 203.9949,169.9744 Q204.6797,171.041 206.0244,171.041 Q206.6553,171.041 207.2488,170.7712 Q207.8423,170.5015 208.4731,169.9204 Z "/><text fill="#000000" font-family="sans-serif" font-size="12" lengthAdjust="spacingAndGlyphs" textLength="61" x="219.5" y="171.5352">UncleJesse</text><line style="stroke: #A80036; stroke-width: 1.5;" x1="191.5" x2="282.5" y1="183" y2="183"/><line style="stroke: #A80036; stroke-width: 1.5;" x1="191.5" x2="282.5" y1="191" y2="191"/><ellipse cx="201.5" cy="202.9775" fill="#84BE84" rx="3" ry="3" style="stroke: #038048; stroke-width: 1.0;"/><text fill="#000000" font-family="sans-serif" font-size="11" lengthAdjust="spacingAndGlyphs" textLength="62" x="210.5" y="205.6348">start(): void</text></a><!--class nl.vaneijndhoven.dukes.unclejesse.LaneDetectionGUI--><a href="LaneDetectionGUI.html" target="_top" xlink:actuate="onRequest" xlink:show="new" xlink:title="LaneDetectionGUI.html" xlink:type="simple"><rect fill="#FEFECE" filter="url(#fo5fo1dw7x61z)" height="48" id="nl.vaneijndhoven.dukes.unclejesse.LaneDetectionGUI" style="stroke: #A80036; stroke-width: 1.5;" width="133" x="22.5" y="157.5"/><ellipse cx="37.5" cy="173.5" fill="#ADD1B2" rx="11" ry="11" style="stroke: #A80036; stroke-width: 1.0;"/><path d="M40.4731,179.1431 Q39.8921,179.4419 39.2529,179.5913 Q38.6138,179.7407 37.9082,179.7407 Q35.4014,179.7407 34.0815,178.0889 Q32.7617,176.437 32.7617,173.3159 Q32.7617,170.1865 34.0815,168.5347 Q35.4014,166.8828 37.9082,166.8828 Q38.6138,166.8828 39.2612,167.0322 Q39.9087,167.1816 40.4731,167.4805 L40.4731,170.2031 Q39.8423,169.6221 39.2488,169.3523 Q38.6553,169.0825 38.0244,169.0825 Q36.6797,169.0825 35.9949,170.1492 Q35.3101,171.2158 35.3101,173.3159 Q35.3101,175.4077 35.9949,176.4744 Q36.6797,177.541 38.0244,177.541 Q38.6553,177.541 39.2488,177.2712 Q39.8423,177.0015 40.4731,176.4204 Z "/><text fill="#000000" font-family="sans-serif" font-size="12" lengthAdjust="spacingAndGlyphs" textLength="101" x="51.5" y="178.0352">LaneDetectionGUI</text><line style="stroke: #A80036; stroke-width: 1.5;" x1="23.5" x2="154.5" y1="189.5" y2="189.5"/><line style="stroke: #A80036; stroke-width: 1.5;" x1="23.5" x2="154.5" y1="197.5" y2="197.5"/></a><!--class io.vertx.rxjava.core.AbstractVerticle--><rect fill="#FEFECE" filter="url(#fo5fo1dw7x61z)" height="48" id="io.vertx.rxjava.core.AbstractVerticle" style="stroke: #A80036; stroke-width: 1.5;" width="123" x="175.5" y="43"/><ellipse cx="190.5" cy="59" fill="#ADD1B2" rx="11" ry="11" style="stroke: #A80036; stroke-width: 1.0;"/><path d="M193.4731,64.6431 Q192.8921,64.9419 192.2529,65.0913 Q191.6138,65.2407 190.9082,65.2407 Q188.4014,65.2407 187.0815,63.5889 Q185.7617,61.937 185.7617,58.8159 Q185.7617,55.6865 187.0815,54.0347 Q188.4014,52.3828 190.9082,52.3828 Q191.6138,52.3828 192.2612,52.5322 Q192.9087,52.6816 193.4731,52.9805 L193.4731,55.7031 Q192.8423,55.1221 192.2488,54.8523 Q191.6553,54.5825 191.0244,54.5825 Q189.6797,54.5825 188.9949,55.6492 Q188.3101,56.7158 188.3101,58.8159 Q188.3101,60.9077 188.9949,61.9744 Q189.6797,63.041 191.0244,63.041 Q191.6553,63.041 192.2488,62.7712 Q192.8423,62.5015 193.4731,61.9204 Z "/><text fill="#000000" font-family="sans-serif" font-size="12" lengthAdjust="spacingAndGlyphs" textLength="91" x="204.5" y="63.5352">AbstractVerticle</text><line style="stroke: #A80036; stroke-width: 1.5;" x1="176.5" x2="297.5" y1="75" y2="75"/><line style="stroke: #A80036; stroke-width: 1.5;" x1="176.5" x2="297.5" y1="83" y2="83"/><!--link io.vertx.rxjava.core.AbstractVerticle to nl.vaneijndhoven.dukes.unclejesse.UncleJesse--><path d="M237,111.2477 C237,124.5296 237,138.7972 237,150.9818 " fill="none" id="io.vertx.rxjava.core.AbstractVerticle-nl.vaneijndhoven.dukes.unclejesse.UncleJesse" style="stroke: #A80036; stroke-width: 1.0;"/><polygon fill="none" points="230.0001,111.003,237,91.003,244.0001,111.0029,230.0001,111.003" style="stroke: #A80036; stroke-width: 1.0;"/><text fill="#888888" font-family="sans-serif" font-size="10" lengthAdjust="spacingAndGlyphs" textLength="182" x="77.5" y="247.668">UMLDoclet 1.1.4, PlantUML 1.2019.05</text><!--
@startuml

    namespace nl.vaneijndhoven.dukes.unclejesse {

        class UncleJesse [[UncleJesse.html]] {
            +start(): void
        }

        class LaneDetectionGUI [[LaneDetectionGUI.html]] {
        }

        class io.vertx.rxjava.core.AbstractVerticle
        io.vertx.rxjava.core.AbstractVerticle <|- - UncleJesse

    }


    center footer UMLDoclet 1.1.4, PlantUML 1.2019.05
@enduml

PlantUML version 1.2019.05(Sat Apr 20 18:45:36 CEST 2019)
(APACHE source distribution)
Java Runtime: Java(TM) SE Runtime Environment
JVM: Java HotSpot(TM) 64-Bit Server VM
Java Version: 1.8.0_191-b12
Operating System: Mac OS X
OS Version: 10.13.6
Default Encoding: UTF-8
Language: de
Country: DE
--></g></svg>