<?xml version="1.0" encoding="UTF-8" standalone="no"?><svg xmlns="http://www.w3.org/2000/svg" xmlns:xlink="http://www.w3.org/1999/xlink" contentScriptType="application/ecmascript" contentStyleType="text/css" height="95px" preserveAspectRatio="none" style="width:212px;height:95px;" version="1.1" viewBox="0 0 212 95" width="212px" zoomAndPan="magnify"><defs><filter height="300%" id="fclm36qb5cuxy" width="300%" x="-1" y="-1"><feGaussianBlur result="blurOut" stdDeviation="2.0"/><feColorMatrix in="blurOut" result="blurOut2" type="matrix" values="0 0 0 0 0 0 0 0 0 0 0 0 0 0 0 0 0 0 .4 0"/><feOffset dx="4.0" dy="4.0" in="blurOut2" result="blurOut3"/><feBlend in="SourceGraphic" in2="blurOut3" mode="normal"/></filter></defs><g><!--class StartLightDetectionController--><a href="StartLightDetectionController.html" target="_top" xlink:actuate="onRequest" xlink:show="new" xlink:title="StartLightDetectionController.html" xlink:type="simple"><rect fill="#FEFECE" filter="url(#fclm36qb5cuxy)" height="54.2656" id="StartLightDetectionController" style="stroke: #A80036; stroke-width: 1.5;" width="195" x="6" y="8"/><ellipse cx="21" cy="27.1328" fill="#ADD1B2" rx="11" ry="11" style="stroke: #A80036; stroke-width: 1.0;"/><path d="M23.9731,32.7759 Q23.3921,33.0747 22.7529,33.2241 Q22.1138,33.3735 21.4082,33.3735 Q18.9014,33.3735 17.5815,31.7217 Q16.2617,30.0698 16.2617,26.9487 Q16.2617,23.8193 17.5815,22.1675 Q18.9014,20.5156 21.4082,20.5156 Q22.1138,20.5156 22.7612,20.665 Q23.4087,20.8145 23.9731,21.1133 L23.9731,23.8359 Q23.3423,23.2549 22.7488,22.9851 Q22.1553,22.7153 21.5244,22.7153 Q20.1797,22.7153 19.4949,23.782 Q18.8101,24.8486 18.8101,26.9487 Q18.8101,29.0405 19.4949,30.1072 Q20.1797,31.1738 21.5244,31.1738 Q22.1553,31.1738 22.7488,30.9041 Q23.3423,30.6343 23.9731,30.0532 Z "/><text fill="#000000" font-family="sans-serif" font-size="12" font-style="italic" lengthAdjust="spacingAndGlyphs" textLength="79" x="77" y="24.6016">«deprecated»</text><text fill="#000000" font-family="sans-serif" font-size="12" lengthAdjust="spacingAndGlyphs" textLength="163" x="35" y="38.7344">StartLightDetectionController</text><line style="stroke: #A80036; stroke-width: 1.5;" x1="7" x2="200" y1="46.2656" y2="46.2656"/><line style="stroke: #A80036; stroke-width: 1.5;" x1="7" x2="200" y1="54.2656" y2="54.2656"/></a><text fill="#888888" font-family="sans-serif" font-size="10" lengthAdjust="spacingAndGlyphs" textLength="182" x="18.5" y="81.668">UMLDoclet 1.1.4, PlantUML 1.2019.05</text><!--
@startuml

    class StartLightDetectionController <<deprecated>> [[StartLightDetectionController.html]] {
    }


    center footer UMLDoclet 1.1.4, PlantUML 1.2019.05
@enduml

PlantUML version 1.2019.05(Sat Apr 20 18:45:36 CEST 2019)
(APACHE source distribution)
Java Runtime: Java(TM) SE Runtime Environment
JVM: Java HotSpot(TM) 64-Bit Server VM
Java Version: 1.8.0_191-b12
Operating System: Mac OS X
OS Version: 10.13.6
Default Encoding: UTF-8
Language: de
Country: DE
--></g></svg>