<?xml version="1.0" encoding="UTF-8" standalone="no"?><svg xmlns="http://www.w3.org/2000/svg" xmlns:xlink="http://www.w3.org/1999/xlink" contentScriptType="application/ecmascript" contentStyleType="text/css" height="102px" preserveAspectRatio="none" style="width:194px;height:102px;" version="1.1" viewBox="0 0 194 102" width="194px" zoomAndPan="magnify"><defs><filter height="300%" id="f1b5663ajuego7" width="300%" x="-1" y="-1"><feGaussianBlur result="blurOut" stdDeviation="2.0"/><feColorMatrix in="blurOut" result="blurOut2" type="matrix" values="0 0 0 0 0 0 0 0 0 0 0 0 0 0 0 0 0 0 .4 0"/><feOffset dx="4.0" dy="4.0" in="blurOut2" result="blurOut3"/><feBlend in="SourceGraphic" in2="blurOut3" mode="normal"/></filter></defs><g><!--class TestWatchDog--><a href="TestWatchDog.html" target="_top" xlink:actuate="onRequest" xlink:show="new" xlink:title="TestWatchDog.html" xlink:type="simple"><rect fill="#FEFECE" filter="url(#f1b5663ajuego7)" height="60.9551" id="TestWatchDog" style="stroke: #A80036; stroke-width: 1.5;" width="137" x="16.5" y="8"/><ellipse cx="41.85" cy="24" fill="#ADD1B2" rx="11" ry="11" style="stroke: #A80036; stroke-width: 1.0;"/><path d="M44.8231,29.6431 Q44.2421,29.9419 43.6029,30.0913 Q42.9638,30.2407 42.2582,30.2407 Q39.7514,30.2407 38.4315,28.5889 Q37.1117,26.937 37.1117,23.8159 Q37.1117,20.6865 38.4315,19.0347 Q39.7514,17.3828 42.2582,17.3828 Q42.9638,17.3828 43.6112,17.5322 Q44.2587,17.6816 44.8231,17.9805 L44.8231,20.7031 Q44.1923,20.1221 43.5988,19.8523 Q43.0053,19.5825 42.3744,19.5825 Q41.0297,19.5825 40.3449,20.6492 Q39.6601,21.7158 39.6601,23.8159 Q39.6601,25.9077 40.3449,26.9744 Q41.0297,28.041 42.3744,28.041 Q43.0053,28.041 43.5988,27.7712 Q44.1923,27.5015 44.8231,26.9204 Z "/><text fill="#000000" font-family="sans-serif" font-size="12" lengthAdjust="spacingAndGlyphs" textLength="82" x="58.15" y="28.5352">TestWatchDog</text><line style="stroke: #A80036; stroke-width: 1.5;" x1="17.5" x2="152.5" y1="40" y2="40"/><line style="stroke: #A80036; stroke-width: 1.5;" x1="17.5" x2="152.5" y1="48" y2="48"/><ellipse cx="27.5" cy="59.9775" fill="#84BE84" rx="3" ry="3" style="stroke: #038048; stroke-width: 1.0;"/><text fill="#000000" font-family="sans-serif" font-size="11" lengthAdjust="spacingAndGlyphs" textLength="111" x="36.5" y="62.6348">testWatchDog(): void</text></a><text fill="#888888" font-family="sans-serif" font-size="10" lengthAdjust="spacingAndGlyphs" textLength="182" x="0" y="88.668">UMLDoclet 1.1.4, PlantUML 1.2019.05</text><!--
@startuml

    class TestWatchDog [[TestWatchDog.html]] {
        +testWatchDog(): void
    }


    center footer UMLDoclet 1.1.4, PlantUML 1.2019.05
@enduml

PlantUML version 1.2019.05(Sat Apr 20 18:45:36 CEST 2019)
(APACHE source distribution)
Java Runtime: Java(TM) SE Runtime Environment
JVM: Java HotSpot(TM) 64-Bit Server VM
Java Version: 1.8.0_152-b16
Operating System: Mac OS X
OS Version: 10.13.6
Default Encoding: UTF-8
Language: de
Country: DE
--></g></svg>