<?xml version="1.0" encoding="UTF-8" standalone="no"?><svg xmlns="http://www.w3.org/2000/svg" xmlns:xlink="http://www.w3.org/1999/xlink" contentScriptType="application/ecmascript" contentStyleType="text/css" height="102px" preserveAspectRatio="none" style="width:194px;height:102px;" version="1.1" viewBox="0 0 194 102" width="194px" zoomAndPan="magnify"><defs><filter height="300%" id="fjfj0a1en92u1" width="300%" x="-1" y="-1"><feGaussianBlur result="blurOut" stdDeviation="2.0"/><feColorMatrix in="blurOut" result="blurOut2" type="matrix" values="0 0 0 0 0 0 0 0 0 0 0 0 0 0 0 0 0 0 .4 0"/><feOffset dx="4.0" dy="4.0" in="blurOut2" result="blurOut3"/><feBlend in="SourceGraphic" in2="blurOut3" mode="normal"/></filter></defs><g><!--class PointMapper--><a href="PointMapper.html" target="_top" xlink:actuate="onRequest" xlink:show="new" xlink:title="PointMapper.html" xlink:type="simple"><rect fill="#FEFECE" filter="url(#fjfj0a1en92u1)" height="60.9551" id="PointMapper" style="stroke: #A80036; stroke-width: 1.5;" width="147" x="11.5" y="8"/><ellipse cx="45.4" cy="24" fill="#ADD1B2" rx="11" ry="11" style="stroke: #A80036; stroke-width: 1.0;"/><path d="M48.3731,29.6431 Q47.7921,29.9419 47.1529,30.0913 Q46.5138,30.2407 45.8082,30.2407 Q43.3014,30.2407 41.9815,28.5889 Q40.6617,26.937 40.6617,23.8159 Q40.6617,20.6865 41.9815,19.0347 Q43.3014,17.3828 45.8082,17.3828 Q46.5138,17.3828 47.1612,17.5322 Q47.8087,17.6816 48.3731,17.9805 L48.3731,20.7031 Q47.7423,20.1221 47.1488,19.8523 Q46.5553,19.5825 45.9244,19.5825 Q44.5797,19.5825 43.8949,20.6492 Q43.2101,21.7158 43.2101,23.8159 Q43.2101,25.9077 43.8949,26.9744 Q44.5797,28.041 45.9244,28.041 Q46.5553,28.041 47.1488,27.7712 Q47.7423,27.5015 48.3731,26.9204 Z "/><text fill="#000000" font-family="sans-serif" font-size="12" lengthAdjust="spacingAndGlyphs" textLength="73" x="63.6" y="28.5352">PointMapper</text><line style="stroke: #A80036; stroke-width: 1.5;" x1="12.5" x2="157.5" y1="40" y2="40"/><line style="stroke: #A80036; stroke-width: 1.5;" x1="12.5" x2="157.5" y1="48" y2="48"/><ellipse cx="22.5" cy="59.9775" fill="#84BE84" rx="3" ry="3" style="stroke: #038048; stroke-width: 1.0;"/><text fill="#000000" font-family="sans-serif" font-size="11" lengthAdjust="spacingAndGlyphs" text-decoration="underline" textLength="121" x="31.5" y="62.6348">toPoint(Point2D): Point</text></a><text fill="#888888" font-family="sans-serif" font-size="10" lengthAdjust="spacingAndGlyphs" textLength="182" x="0" y="88.668">UMLDoclet 1.1.4, PlantUML 1.2019.05</text><!--
@startuml

    class PointMapper [[PointMapper.html]] {
        {static} +toPoint(Point2D): Point
    }


    center footer UMLDoclet 1.1.4, PlantUML 1.2019.05
@enduml

PlantUML version 1.2019.05(Sat Apr 20 18:45:36 CEST 2019)
(APACHE source distribution)
Java Runtime: Java(TM) SE Runtime Environment
JVM: Java HotSpot(TM) 64-Bit Server VM
Java Version: 1.8.0_152-b16
Operating System: Mac OS X
OS Version: 10.13.6
Default Encoding: UTF-8
Language: de
Country: DE
--></g></svg>