<?xml version="1.0" encoding="UTF-8" standalone="no"?><svg xmlns="http://www.w3.org/2000/svg" xmlns:xlink="http://www.w3.org/1999/xlink" contentScriptType="application/ecmascript" contentStyleType="text/css" height="391px" preserveAspectRatio="none" style="width:599px;height:391px;" version="1.1" viewBox="0 0 599 391" width="599px" zoomAndPan="magnify"><defs><filter height="300%" id="fostfaskfu46f" width="300%" x="-1" y="-1"><feGaussianBlur result="blurOut" stdDeviation="2.0"/><feColorMatrix in="blurOut" result="blurOut2" type="matrix" values="0 0 0 0 0 0 0 0 0 0 0 0 0 0 0 0 0 0 .4 0"/><feOffset dx="4.0" dy="4.0" in="blurOut2" result="blurOut3"/><feBlend in="SourceGraphic" in2="blurOut3" mode="normal"/></filter></defs><g><!--cluster nl.vaneijndhoven.navigation.plot--><polygon fill="#FFFFFF" filter="url(#fostfaskfu46f)" points="14,16,252,16,259,38.4883,577,38.4883,577,350,14,350,14,16" style="stroke: #000000; stroke-width: 1.5;"/><line style="stroke: #000000; stroke-width: 1.5;" x1="14" x2="259" y1="38.4883" y2="38.4883"/><text fill="#000000" font-family="sans-serif" font-size="14" font-weight="bold" lengthAdjust="spacingAndGlyphs" textLength="232" x="18" y="31.5352">nl.vaneijndhoven.navigation.plot</text><!--class nl.vaneijndhoven.navigation.plot.ShortestPath--><a href="ShortestPath.html" target="_top" xlink:actuate="onRequest" xlink:show="new" xlink:title="ShortestPath.html" xlink:type="simple"><rect fill="#FEFECE" filter="url(#fostfaskfu46f)" height="48" id="nl.vaneijndhoven.navigation.plot.ShortestPath" style="stroke: #A80036; stroke-width: 1.5;" width="103" x="134.5" y="95"/><ellipse cx="149.5" cy="111" fill="#ADD1B2" rx="11" ry="11" style="stroke: #A80036; stroke-width: 1.0;"/><path d="M152.4731,116.6431 Q151.8921,116.9419 151.2529,117.0913 Q150.6138,117.2407 149.9082,117.2407 Q147.4014,117.2407 146.0815,115.5889 Q144.7617,113.937 144.7617,110.8159 Q144.7617,107.6865 146.0815,106.0347 Q147.4014,104.3828 149.9082,104.3828 Q150.6138,104.3828 151.2612,104.5322 Q151.9087,104.6816 152.4731,104.9805 L152.4731,107.7031 Q151.8423,107.1221 151.2488,106.8523 Q150.6553,106.5825 150.0244,106.5825 Q148.6797,106.5825 147.9949,107.6492 Q147.3101,108.7158 147.3101,110.8159 Q147.3101,112.9077 147.9949,113.9744 Q148.6797,115.041 150.0244,115.041 Q150.6553,115.041 151.2488,114.7712 Q151.8423,114.5015 152.4731,113.9204 Z "/><text fill="#000000" font-family="sans-serif" font-size="12" lengthAdjust="spacingAndGlyphs" textLength="71" x="163.5" y="115.5352">ShortestPath</text><line style="stroke: #A80036; stroke-width: 1.5;" x1="135.5" x2="236.5" y1="127" y2="127"/><line style="stroke: #A80036; stroke-width: 1.5;" x1="135.5" x2="236.5" y1="135" y2="135"/></a><!--class nl.vaneijndhoven.navigation.plot.LaneOrientation--><a href="LaneOrientation.html" target="_top" xlink:actuate="onRequest" xlink:show="new" xlink:title="LaneOrientation.html" xlink:type="simple"><rect fill="#FEFECE" filter="url(#fostfaskfu46f)" height="151.6406" id="nl.vaneijndhoven.navigation.plot.LaneOrientation" style="stroke: #A80036; stroke-width: 1.5;" width="268" x="273" y="43"/><ellipse cx="357.75" cy="59" fill="#ADD1B2" rx="11" ry="11" style="stroke: #A80036; stroke-width: 1.0;"/><path d="M360.7231,64.6431 Q360.1421,64.9419 359.5029,65.0913 Q358.8638,65.2407 358.1582,65.2407 Q355.6514,65.2407 354.3315,63.5889 Q353.0117,61.937 353.0117,58.8159 Q353.0117,55.6865 354.3315,54.0347 Q355.6514,52.3828 358.1582,52.3828 Q358.8638,52.3828 359.5112,52.5322 Q360.1587,52.6816 360.7231,52.9805 L360.7231,55.7031 Q360.0923,55.1221 359.4988,54.8523 Q358.9053,54.5825 358.2744,54.5825 Q356.9297,54.5825 356.2449,55.6492 Q355.5601,56.7158 355.5601,58.8159 Q355.5601,60.9077 356.2449,61.9744 Q356.9297,63.041 358.2744,63.041 Q358.9053,63.041 359.4988,62.7712 Q360.0923,62.5015 360.7231,61.9204 Z "/><text fill="#000000" font-family="sans-serif" font-size="12" lengthAdjust="spacingAndGlyphs" textLength="90" x="378.25" y="63.5352">LaneOrientation</text><line style="stroke: #A80036; stroke-width: 1.5;" x1="274" x2="540" y1="75" y2="75"/><line style="stroke: #A80036; stroke-width: 1.5;" x1="274" x2="540" y1="83" y2="83"/><ellipse cx="284" cy="94.9775" fill="#84BE84" rx="3" ry="3" style="stroke: #038048; stroke-width: 1.0;"/><text fill="#000000" font-family="sans-serif" font-size="11" lengthAdjust="spacingAndGlyphs" textLength="171" x="293" y="97.6348">LaneOrientation(Lane, ViewPort)</text><ellipse cx="284" cy="107.9326" fill="#84BE84" rx="3" ry="3" style="stroke: #038048; stroke-width: 1.0;"/><text fill="#000000" font-family="sans-serif" font-size="11" lengthAdjust="spacingAndGlyphs" textLength="178" x="293" y="110.5898">determineCurrentAngle(): double</text><ellipse cx="284" cy="120.8877" fill="#84BE84" rx="3" ry="3" style="stroke: #038048; stroke-width: 1.0;"/><text fill="#000000" font-family="sans-serif" font-size="11" lengthAdjust="spacingAndGlyphs" textLength="195" x="293" y="123.5449">distanceFromLeftBoundary(): double</text><ellipse cx="284" cy="133.8428" fill="#84BE84" rx="3" ry="3" style="stroke: #038048; stroke-width: 1.0;"/><text fill="#000000" font-family="sans-serif" font-size="11" lengthAdjust="spacingAndGlyphs" textLength="203" x="293" y="136.5">distanceFromRightBoundary(): double</text><ellipse cx="284" cy="146.7979" fill="#84BE84" rx="3" ry="3" style="stroke: #038048; stroke-width: 1.0;"/><text fill="#000000" font-family="sans-serif" font-size="11" lengthAdjust="spacingAndGlyphs" textLength="200" x="293" y="149.4551">determineDistanceToMiddle(): double</text><ellipse cx="284" cy="159.7529" fill="#84BE84" rx="3" ry="3" style="stroke: #038048; stroke-width: 1.0;"/><text fill="#000000" font-family="sans-serif" font-size="11" lengthAdjust="spacingAndGlyphs" textLength="242" x="293" y="162.4102">determineCourseRelativeToHorizon(): double</text><ellipse cx="284" cy="172.708" fill="#84BE84" rx="3" ry="3" style="stroke: #038048; stroke-width: 1.0;"/><text fill="#000000" font-family="sans-serif" font-size="11" lengthAdjust="spacingAndGlyphs" textLength="214" x="293" y="175.3652">determineLaneMiddle(): Optional&lt;Line&gt;</text><ellipse cx="284" cy="185.6631" fill="#84BE84" rx="3" ry="3" style="stroke: #038048; stroke-width: 1.0;"/><text fill="#000000" font-family="sans-serif" font-size="11" lengthAdjust="spacingAndGlyphs" textLength="178" x="293" y="188.3203">determineBase(): Optional&lt;Line&gt;</text></a><!--class nl.vaneijndhoven.navigation.plot.StoppingZoneOrientation--><a href="StoppingZoneOrientation.html" target="_top" xlink:actuate="onRequest" xlink:show="new" xlink:title="StoppingZoneOrientation.html" xlink:type="simple"><rect fill="#FEFECE" filter="url(#fostfaskfu46f)" height="86.8652" id="nl.vaneijndhoven.navigation.plot.StoppingZoneOrientation" style="stroke: #A80036; stroke-width: 1.5;" width="328" x="22" y="255"/><ellipse cx="111.25" cy="271" fill="#ADD1B2" rx="11" ry="11" style="stroke: #A80036; stroke-width: 1.0;"/><path d="M114.2231,276.6431 Q113.6421,276.9419 113.0029,277.0913 Q112.3638,277.2407 111.6582,277.2407 Q109.1514,277.2407 107.8315,275.5889 Q106.5117,273.937 106.5117,270.8159 Q106.5117,267.6865 107.8315,266.0347 Q109.1514,264.3828 111.6582,264.3828 Q112.3638,264.3828 113.0112,264.5322 Q113.6587,264.6816 114.2231,264.9805 L114.2231,267.7031 Q113.5923,267.1221 112.9988,266.8523 Q112.4053,266.5825 111.7744,266.5825 Q110.4297,266.5825 109.7449,267.6492 Q109.0601,268.7158 109.0601,270.8159 Q109.0601,272.9077 109.7449,273.9744 Q110.4297,275.041 111.7744,275.041 Q112.4053,275.041 112.9988,274.7712 Q113.5923,274.5015 114.2231,273.9204 Z "/><text fill="#000000" font-family="sans-serif" font-size="12" lengthAdjust="spacingAndGlyphs" textLength="141" x="131.75" y="275.5352">StoppingZoneOrientation</text><line style="stroke: #A80036; stroke-width: 1.5;" x1="23" x2="349" y1="287" y2="287"/><line style="stroke: #A80036; stroke-width: 1.5;" x1="23" x2="349" y1="295" y2="295"/><ellipse cx="33" cy="306.9775" fill="#84BE84" rx="3" ry="3" style="stroke: #038048; stroke-width: 1.0;"/><text fill="#000000" font-family="sans-serif" font-size="11" lengthAdjust="spacingAndGlyphs" textLength="302" x="42" y="309.6348">StoppingZoneOrientation(StoppingZone, Lane, ViewPort)</text><ellipse cx="33" cy="319.9326" fill="#84BE84" rx="3" ry="3" style="stroke: #038048; stroke-width: 1.0;"/><text fill="#000000" font-family="sans-serif" font-size="11" lengthAdjust="spacingAndGlyphs" textLength="240" x="42" y="322.5898">determineDistanceToStoppingZone(): double</text><ellipse cx="33" cy="332.8877" fill="#84BE84" rx="3" ry="3" style="stroke: #038048; stroke-width: 1.0;"/><text fill="#000000" font-family="sans-serif" font-size="11" lengthAdjust="spacingAndGlyphs" textLength="260" x="42" y="335.5449">determineDistanceToStoppingZoneEnd(): double</text></a><!--class nl.vaneijndhoven.navigation.plot.PathPlanner--><a href="PathPlanner.html" target="_top" xlink:actuate="onRequest" xlink:show="new" xlink:title="PathPlanner.html" xlink:type="simple"><rect fill="#FEFECE" filter="url(#fostfaskfu46f)" height="73.9102" id="nl.vaneijndhoven.navigation.plot.PathPlanner" style="stroke: #A80036; stroke-width: 1.5;" width="183" x="385.5" y="261.5"/><ellipse cx="438.75" cy="277.5" fill="#ADD1B2" rx="11" ry="11" style="stroke: #A80036; stroke-width: 1.0;"/><path d="M441.7231,283.1431 Q441.1421,283.4419 440.5029,283.5913 Q439.8638,283.7407 439.1582,283.7407 Q436.6514,283.7407 435.3315,282.0889 Q434.0117,280.437 434.0117,277.3159 Q434.0117,274.1865 435.3315,272.5347 Q436.6514,270.8828 439.1582,270.8828 Q439.8638,270.8828 440.5112,271.0322 Q441.1587,271.1816 441.7231,271.4805 L441.7231,274.2031 Q441.0923,273.6221 440.4988,273.3523 Q439.9053,273.0825 439.2744,273.0825 Q437.9297,273.0825 437.2449,274.1492 Q436.5601,275.2158 436.5601,277.3159 Q436.5601,279.4077 437.2449,280.4744 Q437.9297,281.541 439.2744,281.541 Q439.9053,281.541 440.4988,281.2712 Q441.0923,281.0015 441.7231,280.4204 Z "/><text fill="#000000" font-family="sans-serif" font-size="12" lengthAdjust="spacingAndGlyphs" textLength="68" x="459.25" y="282.0352">PathPlanner</text><line style="stroke: #A80036; stroke-width: 1.5;" x1="386.5" x2="567.5" y1="293.5" y2="293.5"/><line style="stroke: #A80036; stroke-width: 1.5;" x1="386.5" x2="567.5" y1="301.5" y2="301.5"/><ellipse cx="396.5" cy="313.4775" fill="#84BE84" rx="3" ry="3" style="stroke: #038048; stroke-width: 1.0;"/><text fill="#000000" font-family="sans-serif" font-size="11" lengthAdjust="spacingAndGlyphs" textLength="157" x="405.5" y="316.1348">PathPlanner(LaneOrientation)</text><ellipse cx="396.5" cy="326.4326" fill="#84BE84" rx="3" ry="3" style="stroke: #038048; stroke-width: 1.0;"/><text fill="#000000" font-family="sans-serif" font-size="11" lengthAdjust="spacingAndGlyphs" textLength="155" x="405.5" y="329.0898">determineDeviation(): double</text></a><!--link nl.vaneijndhoven.navigation.plot.ShortestPath to nl.vaneijndhoven.navigation.plot.LaneOrientation--><!--link nl.vaneijndhoven.navigation.plot.ShortestPath to nl.vaneijndhoven.navigation.plot.StoppingZoneOrientation--><!--link nl.vaneijndhoven.navigation.plot.StoppingZoneOrientation to nl.vaneijndhoven.navigation.plot.PathPlanner--><text fill="#888888" font-family="sans-serif" font-size="10" lengthAdjust="spacingAndGlyphs" textLength="182" x="210.5" y="377.668">UMLDoclet 1.1.4, PlantUML 1.2019.05</text><!--
@startuml

    namespace nl.vaneijndhoven.navigation.plot {

        class ShortestPath [[ShortestPath.html]] {
        }

        class LaneOrientation [[LaneOrientation.html]] {
            +LaneOrientation(Lane, ViewPort)
            +determineCurrentAngle(): double
            +distanceFromLeftBoundary(): double
            +distanceFromRightBoundary(): double
            +determineDistanceToMiddle(): double
            +determineCourseRelativeToHorizon(): double
            +determineLaneMiddle(): Optional<Line>
            +determineBase(): Optional<Line>
        }

        class StoppingZoneOrientation [[StoppingZoneOrientation.html]] {
            +StoppingZoneOrientation(StoppingZone, Lane, ViewPort)
            +determineDistanceToStoppingZone(): double
            +determineDistanceToStoppingZoneEnd(): double
        }

        class PathPlanner [[PathPlanner.html]] {
            +PathPlanner(LaneOrientation)
            +determineDeviation(): double
        }

    }


    center footer UMLDoclet 1.1.4, PlantUML 1.2019.05
@enduml

PlantUML version 1.2019.05(Sat Apr 20 18:45:36 CEST 2019)
(APACHE source distribution)
Java Runtime: Java(TM) SE Runtime Environment
JVM: Java HotSpot(TM) 64-Bit Server VM
Java Version: 1.8.0_152-b16
Operating System: Mac OS X
OS Version: 10.13.6
Default Encoding: UTF-8
Language: de
Country: DE
--></g></svg>