<?xml version="1.0" encoding="UTF-8" standalone="no"?><svg xmlns="http://www.w3.org/2000/svg" xmlns:xlink="http://www.w3.org/1999/xlink" contentScriptType="application/ecmascript" contentStyleType="text/css" height="89px" preserveAspectRatio="none" style="width:194px;height:89px;" version="1.1" viewBox="0 0 194 89" width="194px" zoomAndPan="magnify"><defs><filter height="300%" id="fi6dl2p80rgqf" width="300%" x="-1" y="-1"><feGaussianBlur result="blurOut" stdDeviation="2.0"/><feColorMatrix in="blurOut" result="blurOut2" type="matrix" values="0 0 0 0 0 0 0 0 0 0 0 0 0 0 0 0 0 0 .4 0"/><feOffset dx="4.0" dy="4.0" in="blurOut2" result="blurOut3"/><feBlend in="SourceGraphic" in2="blurOut3" mode="normal"/></filter></defs><g><!--class ShortestPath--><a href="ShortestPath.html" target="_top" xlink:actuate="onRequest" xlink:show="new" xlink:title="ShortestPath.html" xlink:type="simple"><rect fill="#FEFECE" filter="url(#fi6dl2p80rgqf)" height="48" id="ShortestPath" style="stroke: #A80036; stroke-width: 1.5;" width="103" x="33.5" y="8"/><ellipse cx="48.5" cy="24" fill="#ADD1B2" rx="11" ry="11" style="stroke: #A80036; stroke-width: 1.0;"/><path d="M51.4731,29.6431 Q50.8921,29.9419 50.2529,30.0913 Q49.6138,30.2407 48.9082,30.2407 Q46.4014,30.2407 45.0815,28.5889 Q43.7617,26.937 43.7617,23.8159 Q43.7617,20.6865 45.0815,19.0347 Q46.4014,17.3828 48.9082,17.3828 Q49.6138,17.3828 50.2612,17.5322 Q50.9087,17.6816 51.4731,17.9805 L51.4731,20.7031 Q50.8423,20.1221 50.2488,19.8523 Q49.6553,19.5825 49.0244,19.5825 Q47.6797,19.5825 46.9949,20.6492 Q46.3101,21.7158 46.3101,23.8159 Q46.3101,25.9077 46.9949,26.9744 Q47.6797,28.041 49.0244,28.041 Q49.6553,28.041 50.2488,27.7712 Q50.8423,27.5015 51.4731,26.9204 Z "/><text fill="#000000" font-family="sans-serif" font-size="12" lengthAdjust="spacingAndGlyphs" textLength="71" x="62.5" y="28.5352">ShortestPath</text><line style="stroke: #A80036; stroke-width: 1.5;" x1="34.5" x2="135.5" y1="40" y2="40"/><line style="stroke: #A80036; stroke-width: 1.5;" x1="34.5" x2="135.5" y1="48" y2="48"/></a><text fill="#888888" font-family="sans-serif" font-size="10" lengthAdjust="spacingAndGlyphs" textLength="182" x="0" y="75.668">UMLDoclet 1.1.4, PlantUML 1.2019.05</text><!--
@startuml

    class ShortestPath [[ShortestPath.html]] {
    }


    center footer UMLDoclet 1.1.4, PlantUML 1.2019.05
@enduml

PlantUML version 1.2019.05(Sat Apr 20 18:45:36 CEST 2019)
(APACHE source distribution)
Java Runtime: Java(TM) SE Runtime Environment
JVM: Java HotSpot(TM) 64-Bit Server VM
Java Version: 1.8.0_152-b16
Operating System: Mac OS X
OS Version: 10.13.6
Default Encoding: UTF-8
Language: de
Country: DE
--></g></svg>