<?xml version="1.0" encoding="UTF-8" standalone="no"?><svg xmlns="http://www.w3.org/2000/svg" xmlns:xlink="http://www.w3.org/1999/xlink" contentScriptType="application/ecmascript" contentStyleType="text/css" height="270px" preserveAspectRatio="none" style="width:319px;height:270px;" version="1.1" viewBox="0 0 319 270" width="319px" zoomAndPan="magnify"><defs><filter height="300%" id="f3v5vf2sprx5f" width="300%" x="-1" y="-1"><feGaussianBlur result="blurOut" stdDeviation="2.0"/><feColorMatrix in="blurOut" result="blurOut2" type="matrix" values="0 0 0 0 0 0 0 0 0 0 0 0 0 0 0 0 0 0 .4 0"/><feOffset dx="4.0" dy="4.0" in="blurOut2" result="blurOut3"/><feBlend in="SourceGraphic" in2="blurOut3" mode="normal"/></filter></defs><g><!--cluster ProbabilisticHoughLinesLineDetector--><polygon fill="#FFFFFF" filter="url(#f3v5vf2sprx5f)" points="14,16,287,16,294,38.4883,297,38.4883,297,229,14,229,14,16" style="stroke: #000000; stroke-width: 1.5;"/><line style="stroke: #000000; stroke-width: 1.5;" x1="14" x2="294" y1="38.4883" y2="38.4883"/><text fill="#000000" font-family="sans-serif" font-size="14" font-weight="bold" lengthAdjust="spacingAndGlyphs" textLength="267" x="18" y="31.5352">ProbabilisticHoughLinesLineDetector</text><!--class ProbabilisticHoughLinesLineDetector.Config--><a href="ProbabilisticHoughLinesLineDetector.Config.html" target="_top" xlink:actuate="onRequest" xlink:show="new" xlink:title="ProbabilisticHoughLinesLineDetector.Config.html" xlink:type="simple"><rect fill="#FEFECE" filter="url(#f3v5vf2sprx5f)" height="177.5508" id="ProbabilisticHoughLinesLineDetector.Config" style="stroke: #A80036; stroke-width: 1.5;" width="194" x="58" y="43"/><ellipse cx="132.75" cy="59" fill="#ADD1B2" rx="11" ry="11" style="stroke: #A80036; stroke-width: 1.0;"/><path d="M135.7231,64.6431 Q135.1421,64.9419 134.5029,65.0913 Q133.8638,65.2407 133.1582,65.2407 Q130.6514,65.2407 129.3315,63.5889 Q128.0117,61.937 128.0117,58.8159 Q128.0117,55.6865 129.3315,54.0347 Q130.6514,52.3828 133.1582,52.3828 Q133.8638,52.3828 134.5112,52.5322 Q135.1587,52.6816 135.7231,52.9805 L135.7231,55.7031 Q135.0923,55.1221 134.4988,54.8523 Q133.9053,54.5825 133.2744,54.5825 Q131.9297,54.5825 131.2449,55.6492 Q130.5601,56.7158 130.5601,58.8159 Q130.5601,60.9077 131.2449,61.9744 Q131.9297,63.041 133.2744,63.041 Q133.9053,63.041 134.4988,62.7712 Q135.0923,62.5015 135.7231,61.9204 Z "/><text fill="#000000" font-family="sans-serif" font-size="12" lengthAdjust="spacingAndGlyphs" textLength="36" x="153.25" y="63.5352">Config</text><line style="stroke: #A80036; stroke-width: 1.5;" x1="59" x2="251" y1="75" y2="75"/><line style="stroke: #A80036; stroke-width: 1.5;" x1="59" x2="251" y1="83" y2="83"/><ellipse cx="69" cy="94.9775" fill="#84BE84" rx="3" ry="3" style="stroke: #038048; stroke-width: 1.0;"/><text fill="#000000" font-family="sans-serif" font-size="11" lengthAdjust="spacingAndGlyphs" textLength="89" x="78" y="97.6348">getRho(): double</text><ellipse cx="69" cy="107.9326" fill="#84BE84" rx="3" ry="3" style="stroke: #038048; stroke-width: 1.0;"/><text fill="#000000" font-family="sans-serif" font-size="11" lengthAdjust="spacingAndGlyphs" textLength="111" x="78" y="110.5898">setRho(double): void</text><ellipse cx="69" cy="120.8877" fill="#84BE84" rx="3" ry="3" style="stroke: #038048; stroke-width: 1.0;"/><text fill="#000000" font-family="sans-serif" font-size="11" lengthAdjust="spacingAndGlyphs" textLength="98" x="78" y="123.5449">getTheta(): double</text><ellipse cx="69" cy="133.8428" fill="#84BE84" rx="3" ry="3" style="stroke: #038048; stroke-width: 1.0;"/><text fill="#000000" font-family="sans-serif" font-size="11" lengthAdjust="spacingAndGlyphs" textLength="120" x="78" y="136.5">setTheta(double): void</text><ellipse cx="69" cy="146.7979" fill="#84BE84" rx="3" ry="3" style="stroke: #038048; stroke-width: 1.0;"/><text fill="#000000" font-family="sans-serif" font-size="11" lengthAdjust="spacingAndGlyphs" textLength="100" x="78" y="149.4551">getThreshold(): int</text><ellipse cx="69" cy="159.7529" fill="#84BE84" rx="3" ry="3" style="stroke: #038048; stroke-width: 1.0;"/><text fill="#000000" font-family="sans-serif" font-size="11" lengthAdjust="spacingAndGlyphs" textLength="122" x="78" y="162.4102">setThreshold(int): void</text><ellipse cx="69" cy="172.708" fill="#84BE84" rx="3" ry="3" style="stroke: #038048; stroke-width: 1.0;"/><text fill="#000000" font-family="sans-serif" font-size="11" lengthAdjust="spacingAndGlyphs" textLength="146" x="78" y="175.3652">getMinLineLength(): double</text><ellipse cx="69" cy="185.6631" fill="#84BE84" rx="3" ry="3" style="stroke: #038048; stroke-width: 1.0;"/><text fill="#000000" font-family="sans-serif" font-size="11" lengthAdjust="spacingAndGlyphs" textLength="168" x="78" y="188.3203">setMinLineLength(double): void</text><ellipse cx="69" cy="198.6182" fill="#84BE84" rx="3" ry="3" style="stroke: #038048; stroke-width: 1.0;"/><text fill="#000000" font-family="sans-serif" font-size="11" lengthAdjust="spacingAndGlyphs" textLength="133" x="78" y="201.2754">getMaxLineGap(): double</text><ellipse cx="69" cy="211.5732" fill="#84BE84" rx="3" ry="3" style="stroke: #038048; stroke-width: 1.0;"/><text fill="#000000" font-family="sans-serif" font-size="11" lengthAdjust="spacingAndGlyphs" textLength="155" x="78" y="214.2305">setMaxLineGap(double): void</text></a><text fill="#888888" font-family="sans-serif" font-size="10" lengthAdjust="spacingAndGlyphs" textLength="182" x="70.5" y="256.668">UMLDoclet 1.1.4, PlantUML 1.2019.05</text><!--
@startuml

    class ProbabilisticHoughLinesLineDetector.Config [[ProbabilisticHoughLinesLineDetector.Config.html]] {
        +getRho(): double
        +setRho(double): void
        +getTheta(): double
        +setTheta(double): void
        +getThreshold(): int
        +setThreshold(int): void
        +getMinLineLength(): double
        +setMinLineLength(double): void
        +getMaxLineGap(): double
        +setMaxLineGap(double): void
    }


    center footer UMLDoclet 1.1.4, PlantUML 1.2019.05
@enduml

PlantUML version 1.2019.05(Sat Apr 20 18:45:36 CEST 2019)
(APACHE source distribution)
Java Runtime: Java(TM) SE Runtime Environment
JVM: Java HotSpot(TM) 64-Bit Server VM
Java Version: 1.8.0_191-b12
Operating System: Mac OS X
OS Version: 10.13.6
Default Encoding: UTF-8
Language: de
Country: DE
--></g></svg>