<?xml version="1.0" encoding="UTF-8" standalone="no"?><svg xmlns="http://www.w3.org/2000/svg" xmlns:xlink="http://www.w3.org/1999/xlink" contentScriptType="application/ecmascript" contentStyleType="text/css" height="1598px" preserveAspectRatio="none" style="width:701px;height:1598px;" version="1.1" viewBox="0 0 701 1598" width="701px" zoomAndPan="magnify"><defs><filter height="300%" id="f4xdovg9gdfi7" width="300%" x="-1" y="-1"><feGaussianBlur result="blurOut" stdDeviation="2.0"/><feColorMatrix in="blurOut" result="blurOut2" type="matrix" values="0 0 0 0 0 0 0 0 0 0 0 0 0 0 0 0 0 0 .4 0"/><feOffset dx="4.0" dy="4.0" in="blurOut2" result="blurOut3"/><feBlend in="SourceGraphic" in2="blurOut3" mode="normal"/></filter></defs><g><!--cluster org.rcdukes.geometry--><polygon fill="#FFFFFF" filter="url(#f4xdovg9gdfi7)" points="160,16,320,16,327,38.4883,679,38.4883,679,1557,160,1557,160,16" style="stroke: #000000; stroke-width: 1.5;"/><line style="stroke: #000000; stroke-width: 1.5;" x1="160" x2="327" y1="38.4883" y2="38.4883"/><text fill="#000000" font-family="sans-serif" font-size="14" font-weight="bold" lengthAdjust="spacingAndGlyphs" textLength="154" x="164" y="31.5352">org.rcdukes.geometry</text><!--cluster java.lang--><polygon fill="#FFFFFF" filter="url(#f4xdovg9gdfi7)" points="14,1145,83,1145,90,1167.4883,152,1167.4883,152,1241,14,1241,14,1145" style="stroke: #000000; stroke-width: 1.5;"/><line style="stroke: #000000; stroke-width: 1.5;" x1="14" x2="90" y1="1167.4883" y2="1167.4883"/><text fill="#000000" font-family="sans-serif" font-size="14" font-weight="bold" lengthAdjust="spacingAndGlyphs" textLength="63" x="18" y="1160.5352">java.lang</text><!--class org.rcdukes.geometry.Polygon--><a href="Polygon.html" target="_top" xlink:actuate="onRequest" xlink:show="new" xlink:title="Polygon.html" xlink:type="simple"><rect fill="#FEFECE" filter="url(#f4xdovg9gdfi7)" height="138.6855" id="org.rcdukes.geometry.Polygon" style="stroke: #A80036; stroke-width: 1.5;" width="210" x="461" y="549"/><ellipse cx="539.75" cy="565" fill="#ADD1B2" rx="11" ry="11" style="stroke: #A80036; stroke-width: 1.0;"/><path d="M542.7231,570.6431 Q542.1421,570.9419 541.5029,571.0913 Q540.8638,571.2407 540.1582,571.2407 Q537.6514,571.2407 536.3315,569.5889 Q535.0117,567.937 535.0117,564.8159 Q535.0117,561.6865 536.3315,560.0347 Q537.6514,558.3828 540.1582,558.3828 Q540.8638,558.3828 541.5112,558.5322 Q542.1587,558.6816 542.7231,558.9805 L542.7231,561.7031 Q542.0923,561.1221 541.4988,560.8523 Q540.9053,560.5825 540.2744,560.5825 Q538.9297,560.5825 538.2449,561.6492 Q537.5601,562.7158 537.5601,564.8159 Q537.5601,566.9077 538.2449,567.9744 Q538.9297,569.041 540.2744,569.041 Q540.9053,569.041 541.4988,568.7712 Q542.0923,568.5015 542.7231,567.9204 Z "/><text fill="#000000" font-family="sans-serif" font-size="12" lengthAdjust="spacingAndGlyphs" textLength="44" x="560.25" y="569.5352">Polygon</text><line style="stroke: #A80036; stroke-width: 1.5;" x1="462" x2="670" y1="581" y2="581"/><ellipse cx="472" cy="592.9775" fill="none" rx="3" ry="3" style="stroke: #038048; stroke-width: 1.0;"/><text fill="#000000" font-family="sans-serif" font-size="11" lengthAdjust="spacingAndGlyphs" text-decoration="underline" textLength="83" x="481" y="595.6348">debug: boolean</text><line style="stroke: #A80036; stroke-width: 1.5;" x1="462" x2="670" y1="601.9551" y2="601.9551"/><ellipse cx="472" cy="613.9326" fill="#84BE84" rx="3" ry="3" style="stroke: #038048; stroke-width: 1.0;"/><text fill="#000000" font-family="sans-serif" font-size="11" lengthAdjust="spacingAndGlyphs" textLength="101" x="481" y="616.5898">Polygon(Point2D[])</text><ellipse cx="472" cy="626.8877" fill="#84BE84" rx="3" ry="3" style="stroke: #038048; stroke-width: 1.0;"/><text fill="#000000" font-family="sans-serif" font-size="11" lengthAdjust="spacingAndGlyphs" textLength="104" x="481" y="629.5449">init(Point2D[]): void</text><ellipse cx="472" cy="639.8428" fill="#84BE84" rx="3" ry="3" style="stroke: #038048; stroke-width: 1.0;"/><text fill="#000000" font-family="sans-serif" font-size="11" lengthAdjust="spacingAndGlyphs" text-decoration="underline" textLength="184" x="481" y="642.5">square(Point2D, Point2D): Polygon</text><ellipse cx="472" cy="652.7979" fill="#84BE84" rx="3" ry="3" style="stroke: #038048; stroke-width: 1.0;"/><text fill="#000000" font-family="sans-serif" font-size="11" lengthAdjust="spacingAndGlyphs" textLength="159" x="481" y="655.4551">intersect(Line): Set&lt;Point2D&gt;</text><ellipse cx="472" cy="665.7529" fill="#84BE84" rx="3" ry="3" style="stroke: #038048; stroke-width: 1.0;"/><text fill="#000000" font-family="sans-serif" font-size="11" lengthAdjust="spacingAndGlyphs" textLength="105" x="481" y="668.4102">edges(): List&lt;Line&gt;</text><ellipse cx="472" cy="678.708" fill="#84BE84" rx="3" ry="3" style="stroke: #038048; stroke-width: 1.0;"/><text fill="#000000" font-family="sans-serif" font-size="11" lengthAdjust="spacingAndGlyphs" textLength="98" x="481" y="681.3652">shoelace(): double</text></a><!--class org.rcdukes.geometry.Line--><a href="Line.html" target="_top" xlink:actuate="onRequest" xlink:show="new" xlink:title="Line.html" xlink:type="simple"><rect fill="#FEFECE" filter="url(#f4xdovg9gdfi7)" height="384.832" id="org.rcdukes.geometry.Line" style="stroke: #A80036; stroke-width: 1.5;" width="258" x="168" y="426"/><ellipse cx="281.25" cy="442" fill="#ADD1B2" rx="11" ry="11" style="stroke: #A80036; stroke-width: 1.0;"/><path d="M284.2231,447.6431 Q283.6421,447.9419 283.0029,448.0913 Q282.3638,448.2407 281.6582,448.2407 Q279.1514,448.2407 277.8315,446.5889 Q276.5117,444.937 276.5117,441.8159 Q276.5117,438.6865 277.8315,437.0347 Q279.1514,435.3828 281.6582,435.3828 Q282.3638,435.3828 283.0112,435.5322 Q283.6587,435.6816 284.2231,435.9805 L284.2231,438.7031 Q283.5923,438.1221 282.9988,437.8523 Q282.4053,437.5825 281.7744,437.5825 Q280.4297,437.5825 279.7449,438.6492 Q279.0601,439.7158 279.0601,441.8159 Q279.0601,443.9077 279.7449,444.9744 Q280.4297,446.041 281.7744,446.041 Q282.4053,446.041 282.9988,445.7712 Q283.5923,445.5015 284.2231,444.9204 Z "/><text fill="#000000" font-family="sans-serif" font-size="12" lengthAdjust="spacingAndGlyphs" textLength="23" x="301.75" y="446.5352">Line</text><line style="stroke: #A80036; stroke-width: 1.5;" x1="169" x2="425" y1="458" y2="458"/><line style="stroke: #A80036; stroke-width: 1.5;" x1="169" x2="425" y1="466" y2="466"/><ellipse cx="179" cy="477.9775" fill="#84BE84" rx="3" ry="3" style="stroke: #038048; stroke-width: 1.0;"/><text fill="#000000" font-family="sans-serif" font-size="11" lengthAdjust="spacingAndGlyphs" textLength="30" x="188" y="480.6348">Line()</text><ellipse cx="179" cy="490.9326" fill="#84BE84" rx="3" ry="3" style="stroke: #038048; stroke-width: 1.0;"/><text fill="#000000" font-family="sans-serif" font-size="11" lengthAdjust="spacingAndGlyphs" textLength="75" x="188" y="493.5898">Line(double[])</text><ellipse cx="179" cy="503.8877" fill="#84BE84" rx="3" ry="3" style="stroke: #038048; stroke-width: 1.0;"/><text fill="#000000" font-family="sans-serif" font-size="11" lengthAdjust="spacingAndGlyphs" textLength="90" x="188" y="506.5449">Line(Point, Point)</text><ellipse cx="179" cy="516.8428" fill="#84BE84" rx="3" ry="3" style="stroke: #038048; stroke-width: 1.0;"/><text fill="#000000" font-family="sans-serif" font-size="11" lengthAdjust="spacingAndGlyphs" textLength="120" x="188" y="519.5">Line(Point2D, Point2D)</text><ellipse cx="179" cy="529.7979" fill="#84BE84" rx="3" ry="3" style="stroke: #038048; stroke-width: 1.0;"/><text fill="#000000" font-family="sans-serif" font-size="11" lengthAdjust="spacingAndGlyphs" text-decoration="underline" textLength="232" x="188" y="532.4551">fromHough(boolean, int, int, double[]): Line</text><ellipse cx="179" cy="542.7529" fill="#84BE84" rx="3" ry="3" style="stroke: #038048; stroke-width: 1.0;"/><text fill="#000000" font-family="sans-serif" font-size="11" lengthAdjust="spacingAndGlyphs" textLength="114" x="188" y="545.4102">init(Point, Point): void</text><ellipse cx="179" cy="555.708" fill="#84BE84" rx="3" ry="3" style="stroke: #038048; stroke-width: 1.0;"/><text fill="#000000" font-family="sans-serif" font-size="11" lengthAdjust="spacingAndGlyphs" textLength="85" x="188" y="558.3652">length(): double</text><ellipse cx="179" cy="568.6631" fill="#84BE84" rx="3" ry="3" style="stroke: #038048; stroke-width: 1.0;"/><text fill="#000000" font-family="sans-serif" font-size="11" lengthAdjust="spacingAndGlyphs" textLength="100" x="188" y="571.3203">angleRad(): double</text><ellipse cx="179" cy="581.6182" fill="#84BE84" rx="3" ry="3" style="stroke: #038048; stroke-width: 1.0;"/><text fill="#000000" font-family="sans-serif" font-size="11" lengthAdjust="spacingAndGlyphs" textLength="101" x="188" y="584.2754">angleDeg(): double</text><ellipse cx="179" cy="594.5732" fill="#84BE84" rx="3" ry="3" style="stroke: #038048; stroke-width: 1.0;"/><text fill="#000000" font-family="sans-serif" font-size="11" lengthAdjust="spacingAndGlyphs" textLength="115" x="188" y="597.2305">angleDeg90(): double</text><ellipse cx="179" cy="607.5283" fill="#84BE84" rx="3" ry="3" style="stroke: #038048; stroke-width: 1.0;"/><text fill="#000000" font-family="sans-serif" font-size="11" lengthAdjust="spacingAndGlyphs" text-decoration="underline" textLength="108" x="188" y="610.1855">average(Line[]): Line</text><ellipse cx="179" cy="620.4834" fill="#84BE84" rx="3" ry="3" style="stroke: #038048; stroke-width: 1.0;"/><text fill="#000000" font-family="sans-serif" font-size="11" lengthAdjust="spacingAndGlyphs" text-decoration="underline" textLength="172" x="188" y="623.1406">average(Collection&lt;Line&gt;): Line</text><ellipse cx="179" cy="633.4385" fill="#84BE84" rx="3" ry="3" style="stroke: #038048; stroke-width: 1.0;"/><text fill="#000000" font-family="sans-serif" font-size="11" lengthAdjust="spacingAndGlyphs" textLength="163" x="188" y="636.0957">isLeftOfLine(Point2D): boolean</text><ellipse cx="179" cy="646.3936" fill="#84BE84" rx="3" ry="3" style="stroke: #038048; stroke-width: 1.0;"/><text fill="#000000" font-family="sans-serif" font-size="11" lengthAdjust="spacingAndGlyphs" textLength="171" x="188" y="649.0508">isRightOfLine(Point2D): boolean</text><ellipse cx="179" cy="659.3486" fill="#84BE84" rx="3" ry="3" style="stroke: #038048; stroke-width: 1.0;"/><text fill="#000000" font-family="sans-serif" font-size="11" lengthAdjust="spacingAndGlyphs" textLength="169" x="188" y="662.0059">existsOnLine(Point2D): boolean</text><ellipse cx="179" cy="672.3037" fill="#84BE84" rx="3" ry="3" style="stroke: #038048; stroke-width: 1.0;"/><text fill="#000000" font-family="sans-serif" font-size="11" lengthAdjust="spacingAndGlyphs" textLength="121" x="188" y="674.9609">bottomMost(): Point2D</text><ellipse cx="179" cy="685.2588" fill="#84BE84" rx="3" ry="3" style="stroke: #038048; stroke-width: 1.0;"/><text fill="#000000" font-family="sans-serif" font-size="11" lengthAdjust="spacingAndGlyphs" textLength="99" x="188" y="687.916">leftMost(): Point2D</text><ellipse cx="179" cy="698.2139" fill="#84BE84" rx="3" ry="3" style="stroke: #038048; stroke-width: 1.0;"/><text fill="#000000" font-family="sans-serif" font-size="11" lengthAdjust="spacingAndGlyphs" textLength="108" x="188" y="700.8711">rightMost(): Point2D</text><ellipse cx="179" cy="711.1689" fill="#84BE84" rx="3" ry="3" style="stroke: #038048; stroke-width: 1.0;"/><text fill="#000000" font-family="sans-serif" font-size="11" lengthAdjust="spacingAndGlyphs" textLength="100" x="188" y="713.8262">topMost(): Point2D</text><ellipse cx="179" cy="724.124" fill="#84BE84" rx="3" ry="3" style="stroke: #038048; stroke-width: 1.0;"/><text fill="#000000" font-family="sans-serif" font-size="11" lengthAdjust="spacingAndGlyphs" textLength="133" x="188" y="726.7813">pointAt(double): Point2D</text><ellipse cx="179" cy="737.0791" fill="#84BE84" rx="3" ry="3" style="stroke: #038048; stroke-width: 1.0;"/><text fill="#000000" font-family="sans-serif" font-size="11" lengthAdjust="spacingAndGlyphs" textLength="80" x="188" y="739.7363">width(): double</text><ellipse cx="179" cy="750.0342" fill="#84BE84" rx="3" ry="3" style="stroke: #038048; stroke-width: 1.0;"/><text fill="#000000" font-family="sans-serif" font-size="11" lengthAdjust="spacingAndGlyphs" textLength="85" x="188" y="752.6914">height(): double</text><ellipse cx="179" cy="762.9893" fill="#84BE84" rx="3" ry="3" style="stroke: #038048; stroke-width: 1.0;"/><text fill="#000000" font-family="sans-serif" font-size="11" lengthAdjust="spacingAndGlyphs" text-decoration="underline" textLength="145" x="188" y="765.6465">angleString(Double): String</text><ellipse cx="179" cy="775.9443" fill="#84BE84" rx="3" ry="3" style="stroke: #038048; stroke-width: 1.0;"/><text fill="#000000" font-family="sans-serif" font-size="11" lengthAdjust="spacingAndGlyphs" text-decoration="underline" textLength="150" x="188" y="778.6016">lineAngleString(Line): String</text><ellipse cx="179" cy="788.8994" fill="#84BE84" rx="3" ry="3" style="stroke: #038048; stroke-width: 1.0;"/><text fill="#000000" font-family="sans-serif" font-size="11" lengthAdjust="spacingAndGlyphs" textLength="189" x="188" y="791.5566">intersect(Line): Optional&lt;Point2D&gt;</text><ellipse cx="179" cy="801.8545" fill="#84BE84" rx="3" ry="3" style="stroke: #038048; stroke-width: 1.0;"/><text fill="#000000" font-family="sans-serif" font-size="11" lengthAdjust="spacingAndGlyphs" textLength="138" x="188" y="804.5117">distance(Point2D): double</text></a><!--class org.rcdukes.geometry.Line.Vector--><a href="Line.Vector.html" target="_top" xlink:actuate="onRequest" xlink:show="new" xlink:title="Line.Vector.html" xlink:type="simple"><rect fill="#FEFECE" filter="url(#f4xdovg9gdfi7)" height="125.7305" id="org.rcdukes.geometry.Line.Vector" style="stroke: #A80036; stroke-width: 1.5;" width="214" x="176" y="980"/><ellipse cx="246.75" cy="996" fill="#ADD1B2" rx="11" ry="11" style="stroke: #A80036; stroke-width: 1.0;"/><path d="M249.7231,1001.6431 Q249.1421,1001.9419 248.5029,1002.0913 Q247.8638,1002.2407 247.1582,1002.2407 Q244.6514,1002.2407 243.3315,1000.5889 Q242.0117,998.937 242.0117,995.8159 Q242.0117,992.6865 243.3315,991.0347 Q244.6514,989.3828 247.1582,989.3828 Q247.8638,989.3828 248.5112,989.5322 Q249.1587,989.6816 249.7231,989.9805 L249.7231,992.7031 Q249.0923,992.1221 248.4988,991.8523 Q247.9053,991.5825 247.2744,991.5825 Q245.9297,991.5825 245.2449,992.6492 Q244.5601,993.7158 244.5601,995.8159 Q244.5601,997.9077 245.2449,998.9744 Q245.9297,1000.041 247.2744,1000.041 Q247.9053,1000.041 248.4988,999.7712 Q249.0923,999.5015 249.7231,998.9204 Z "/><text fill="#000000" font-family="sans-serif" font-size="12" lengthAdjust="spacingAndGlyphs" textLength="64" x="267.25" y="1000.5352">Line.Vector</text><line style="stroke: #A80036; stroke-width: 1.5;" x1="177" x2="389" y1="1012" y2="1012"/><line style="stroke: #A80036; stroke-width: 1.5;" x1="177" x2="389" y1="1020" y2="1020"/><ellipse cx="187" cy="1031.9775" fill="#84BE84" rx="3" ry="3" style="stroke: #038048; stroke-width: 1.0;"/><text fill="#000000" font-family="sans-serif" font-size="11" lengthAdjust="spacingAndGlyphs" textLength="123" x="196" y="1034.6348">Vector(double, double)</text><ellipse cx="187" cy="1044.9326" fill="#84BE84" rx="3" ry="3" style="stroke: #038048; stroke-width: 1.0;"/><text fill="#000000" font-family="sans-serif" font-size="11" lengthAdjust="spacingAndGlyphs" textLength="188" x="196" y="1047.5898">calculate(Point2D, double): Point2D</text><ellipse cx="187" cy="1057.8877" fill="#84BE84" rx="3" ry="3" style="stroke: #038048; stroke-width: 1.0;"/><text fill="#000000" font-family="sans-serif" font-size="11" lengthAdjust="spacingAndGlyphs" textLength="142" x="196" y="1060.5449">calculateX(double): double</text><ellipse cx="187" cy="1070.8428" fill="#84BE84" rx="3" ry="3" style="stroke: #038048; stroke-width: 1.0;"/><text fill="#000000" font-family="sans-serif" font-size="11" lengthAdjust="spacingAndGlyphs" textLength="142" x="196" y="1073.5">calculateY(double): double</text><ellipse cx="187" cy="1083.7979" fill="#84BE84" rx="3" ry="3" style="stroke: #038048; stroke-width: 1.0;"/><text fill="#000000" font-family="sans-serif" font-size="11" lengthAdjust="spacingAndGlyphs" text-decoration="underline" textLength="134" x="196" y="1086.4551">forY(double): Line.Vector</text><ellipse cx="187" cy="1096.7529" fill="#84BE84" rx="3" ry="3" style="stroke: #038048; stroke-width: 1.0;"/><text fill="#000000" font-family="sans-serif" font-size="11" lengthAdjust="spacingAndGlyphs" text-decoration="underline" textLength="134" x="196" y="1099.4102">forX(double): Line.Vector</text></a><!--class org.rcdukes.geometry.Point--><a href="Point.html" target="_top" xlink:actuate="onRequest" xlink:show="new" xlink:title="Point.html" xlink:type="simple"><rect fill="#FEFECE" filter="url(#f4xdovg9gdfi7)" height="255.2813" id="org.rcdukes.geometry.Point" style="stroke: #A80036; stroke-width: 1.5;" width="168" x="295" y="1294"/><ellipse cx="360.75" cy="1310" fill="#ADD1B2" rx="11" ry="11" style="stroke: #A80036; stroke-width: 1.0;"/><path d="M363.7231,1315.6431 Q363.1421,1315.9419 362.5029,1316.0913 Q361.8638,1316.2407 361.1582,1316.2407 Q358.6514,1316.2407 357.3315,1314.5889 Q356.0117,1312.937 356.0117,1309.8159 Q356.0117,1306.6865 357.3315,1305.0347 Q358.6514,1303.3828 361.1582,1303.3828 Q361.8638,1303.3828 362.5112,1303.5322 Q363.1587,1303.6816 363.7231,1303.9805 L363.7231,1306.7031 Q363.0923,1306.1221 362.4988,1305.8523 Q361.9053,1305.5825 361.2744,1305.5825 Q359.9297,1305.5825 359.2449,1306.6492 Q358.5601,1307.7158 358.5601,1309.8159 Q358.5601,1311.9077 359.2449,1312.9744 Q359.9297,1314.041 361.2744,1314.041 Q361.9053,1314.041 362.4988,1313.7712 Q363.0923,1313.5015 363.7231,1312.9204 Z "/><text fill="#000000" font-family="sans-serif" font-size="12" lengthAdjust="spacingAndGlyphs" textLength="28" x="381.25" y="1314.5352">Point</text><line style="stroke: #A80036; stroke-width: 1.5;" x1="296" x2="462" y1="1326" y2="1326"/><ellipse cx="306" cy="1337.9775" fill="none" rx="3" ry="3" style="stroke: #038048; stroke-width: 1.0;"/><text fill="#000000" font-family="sans-serif" font-size="11" lengthAdjust="spacingAndGlyphs" text-decoration="underline" textLength="27" x="315" y="1340.6348">X: int</text><ellipse cx="306" cy="1350.9326" fill="none" rx="3" ry="3" style="stroke: #038048; stroke-width: 1.0;"/><text fill="#000000" font-family="sans-serif" font-size="11" lengthAdjust="spacingAndGlyphs" text-decoration="underline" textLength="27" x="315" y="1353.5898">Y: int</text><ellipse cx="306" cy="1363.8877" fill="none" rx="3" ry="3" style="stroke: #038048; stroke-width: 1.0;"/><text fill="#000000" font-family="sans-serif" font-size="11" lengthAdjust="spacingAndGlyphs" text-decoration="underline" textLength="27" x="315" y="1366.5449">Z: int</text><line style="stroke: #A80036; stroke-width: 1.5;" x1="296" x2="462" y1="1372.8652" y2="1372.8652"/><ellipse cx="306" cy="1384.8428" fill="#84BE84" rx="3" ry="3" style="stroke: #038048; stroke-width: 1.0;"/><text fill="#000000" font-family="sans-serif" font-size="11" lengthAdjust="spacingAndGlyphs" textLength="35" x="315" y="1387.5">Point()</text><ellipse cx="306" cy="1397.7979" fill="#84BE84" rx="3" ry="3" style="stroke: #038048; stroke-width: 1.0;"/><text fill="#000000" font-family="sans-serif" font-size="11" lengthAdjust="spacingAndGlyphs" textLength="69" x="315" y="1400.4551">Point(int, int)</text><ellipse cx="306" cy="1410.7529" fill="#84BE84" rx="3" ry="3" style="stroke: #038048; stroke-width: 1.0;"/><text fill="#000000" font-family="sans-serif" font-size="11" lengthAdjust="spacingAndGlyphs" textLength="89" x="315" y="1413.4102">Point(long, long)</text><ellipse cx="306" cy="1423.708" fill="#84BE84" rx="3" ry="3" style="stroke: #038048; stroke-width: 1.0;"/><text fill="#000000" font-family="sans-serif" font-size="11" lengthAdjust="spacingAndGlyphs" textLength="81" x="315" y="1426.3652">Point(Double[])</text><ellipse cx="306" cy="1436.6631" fill="#84BE84" rx="3" ry="3" style="stroke: #038048; stroke-width: 1.0;"/><text fill="#000000" font-family="sans-serif" font-size="11" lengthAdjust="spacingAndGlyphs" textLength="142" x="315" y="1439.3203">distance(Double[]): double</text><ellipse cx="306" cy="1449.6182" fill="#84BE84" rx="3" ry="3" style="stroke: #038048; stroke-width: 1.0;"/><text fill="#000000" font-family="sans-serif" font-size="11" lengthAdjust="spacingAndGlyphs" textLength="138" x="315" y="1452.2754">distance(Point2D): double</text><ellipse cx="306" cy="1462.5732" fill="#84BE84" rx="3" ry="3" style="stroke: #038048; stroke-width: 1.0;"/><text fill="#000000" font-family="sans-serif" font-size="11" lengthAdjust="spacingAndGlyphs" textLength="127" x="315" y="1465.2305">valueStr(Double): String</text><ellipse cx="306" cy="1475.5283" fill="#84BE84" rx="3" ry="3" style="stroke: #038048; stroke-width: 1.0;"/><text fill="#000000" font-family="sans-serif" font-size="11" lengthAdjust="spacingAndGlyphs" textLength="75" x="315" y="1478.1855">getX(): double</text><ellipse cx="306" cy="1488.4834" fill="#84BE84" rx="3" ry="3" style="stroke: #038048; stroke-width: 1.0;"/><text fill="#000000" font-family="sans-serif" font-size="11" lengthAdjust="spacingAndGlyphs" textLength="97" x="315" y="1491.1406">setX(double): void</text><ellipse cx="306" cy="1501.4385" fill="#84BE84" rx="3" ry="3" style="stroke: #038048; stroke-width: 1.0;"/><text fill="#000000" font-family="sans-serif" font-size="11" lengthAdjust="spacingAndGlyphs" textLength="75" x="315" y="1504.0957">getY(): double</text><ellipse cx="306" cy="1514.3936" fill="#84BE84" rx="3" ry="3" style="stroke: #038048; stroke-width: 1.0;"/><text fill="#000000" font-family="sans-serif" font-size="11" lengthAdjust="spacingAndGlyphs" textLength="97" x="315" y="1517.0508">setY(double): void</text><ellipse cx="306" cy="1527.3486" fill="#84BE84" rx="3" ry="3" style="stroke: #038048; stroke-width: 1.0;"/><text fill="#000000" font-family="sans-serif" font-size="11" lengthAdjust="spacingAndGlyphs" textLength="98" x="315" y="1530.0059">setZ(Double): void</text><ellipse cx="306" cy="1540.3037" fill="#84BE84" rx="3" ry="3" style="stroke: #038048; stroke-width: 1.0;"/><text fill="#000000" font-family="sans-serif" font-size="11" lengthAdjust="spacingAndGlyphs" textLength="116" x="315" y="1542.9609">compareTo(Point): int</text></a><!--class org.rcdukes.geometry.Lane--><a href="Lane.html" target="_top" xlink:actuate="onRequest" xlink:show="new" xlink:title="Lane.html" xlink:type="simple"><rect fill="#FEFECE" filter="url(#f4xdovg9gdfi7)" height="60.9551" id="org.rcdukes.geometry.Lane" style="stroke: #A80036; stroke-width: 1.5;" width="237" x="427.5" y="127"/><ellipse cx="528.25" cy="143" fill="#ADD1B2" rx="11" ry="11" style="stroke: #A80036; stroke-width: 1.0;"/><path d="M531.2231,148.6431 Q530.6421,148.9419 530.0029,149.0913 Q529.3638,149.2407 528.6582,149.2407 Q526.1514,149.2407 524.8315,147.5889 Q523.5117,145.937 523.5117,142.8159 Q523.5117,139.6865 524.8315,138.0347 Q526.1514,136.3828 528.6582,136.3828 Q529.3638,136.3828 530.0112,136.5322 Q530.6587,136.6816 531.2231,136.9805 L531.2231,139.7031 Q530.5923,139.1221 529.9988,138.8523 Q529.4053,138.5825 528.7744,138.5825 Q527.4297,138.5825 526.7449,139.6492 Q526.0601,140.7158 526.0601,142.8159 Q526.0601,144.9077 526.7449,145.9744 Q527.4297,147.041 528.7744,147.041 Q529.4053,147.041 529.9988,146.7712 Q530.5923,146.5015 531.2231,145.9204 Z "/><text fill="#000000" font-family="sans-serif" font-size="12" lengthAdjust="spacingAndGlyphs" textLength="27" x="548.75" y="147.5352">Lane</text><line style="stroke: #A80036; stroke-width: 1.5;" x1="428.5" x2="663.5" y1="159" y2="159"/><line style="stroke: #A80036; stroke-width: 1.5;" x1="428.5" x2="663.5" y1="167" y2="167"/><ellipse cx="438.5" cy="178.9775" fill="#84BE84" rx="3" ry="3" style="stroke: #038048; stroke-width: 1.0;"/><text fill="#000000" font-family="sans-serif" font-size="11" lengthAdjust="spacingAndGlyphs" textLength="211" x="447.5" y="181.6348">Lane(Optional&lt;Line&gt;, Optional&lt;Line&gt;)</text></a><!--class org.rcdukes.geometry.LaneDetectionResult--><a href="LaneDetectionResult.html" target="_top" xlink:actuate="onRequest" xlink:show="new" xlink:title="LaneDetectionResult.html" xlink:type="simple"><rect fill="#FEFECE" filter="url(#f4xdovg9gdfi7)" height="229.3711" id="org.rcdukes.geometry.LaneDetectionResult" style="stroke: #A80036; stroke-width: 1.5;" width="224" x="168" y="43"/><ellipse cx="217.75" cy="59" fill="#ADD1B2" rx="11" ry="11" style="stroke: #A80036; stroke-width: 1.0;"/><path d="M220.7231,64.6431 Q220.1421,64.9419 219.5029,65.0913 Q218.8638,65.2407 218.1582,65.2407 Q215.6514,65.2407 214.3315,63.5889 Q213.0117,61.937 213.0117,58.8159 Q213.0117,55.6865 214.3315,54.0347 Q215.6514,52.3828 218.1582,52.3828 Q218.8638,52.3828 219.5112,52.5322 Q220.1587,52.6816 220.7231,52.9805 L220.7231,55.7031 Q220.0923,55.1221 219.4988,54.8523 Q218.9053,54.5825 218.2744,54.5825 Q216.9297,54.5825 216.2449,55.6492 Q215.5601,56.7158 215.5601,58.8159 Q215.5601,60.9077 216.2449,61.9744 Q216.9297,63.041 218.2744,63.041 Q218.9053,63.041 219.4988,62.7712 Q220.0923,62.5015 220.7231,61.9204 Z "/><text fill="#000000" font-family="sans-serif" font-size="12" lengthAdjust="spacingAndGlyphs" textLength="116" x="238.25" y="63.5352">LaneDetectionResult</text><line style="stroke: #A80036; stroke-width: 1.5;" x1="169" x2="391" y1="75" y2="75"/><ellipse cx="179" cy="86.9775" fill="none" rx="3" ry="3" style="stroke: #038048; stroke-width: 1.0;"/><text fill="#000000" font-family="sans-serif" font-size="11" lengthAdjust="spacingAndGlyphs" text-decoration="underline" textLength="105" x="188" y="89.6348">forceError: boolean</text><ellipse cx="179" cy="99.9326" fill="none" rx="3" ry="3" style="stroke: #038048; stroke-width: 1.0;"/><text fill="#000000" font-family="sans-serif" font-size="11" lengthAdjust="spacingAndGlyphs" textLength="61" x="188" y="102.5898">left: Double</text><ellipse cx="179" cy="112.8877" fill="none" rx="3" ry="3" style="stroke: #038048; stroke-width: 1.0;"/><text fill="#000000" font-family="sans-serif" font-size="11" lengthAdjust="spacingAndGlyphs" textLength="80" x="188" y="115.5449">middle: Double</text><ellipse cx="179" cy="125.8428" fill="none" rx="3" ry="3" style="stroke: #038048; stroke-width: 1.0;"/><text fill="#000000" font-family="sans-serif" font-size="11" lengthAdjust="spacingAndGlyphs" textLength="70" x="188" y="128.5">right: Double</text><ellipse cx="179" cy="138.7979" fill="none" rx="3" ry="3" style="stroke: #038048; stroke-width: 1.0;"/><text fill="#000000" font-family="sans-serif" font-size="11" lengthAdjust="spacingAndGlyphs" textLength="124" x="188" y="141.4551">distanceMiddle: Double</text><ellipse cx="179" cy="151.7529" fill="none" rx="3" ry="3" style="stroke: #038048; stroke-width: 1.0;"/><text fill="#000000" font-family="sans-serif" font-size="11" lengthAdjust="spacingAndGlyphs" textLength="109" x="188" y="154.4102">distanceLeft: Double</text><ellipse cx="179" cy="164.708" fill="none" rx="3" ry="3" style="stroke: #038048; stroke-width: 1.0;"/><text fill="#000000" font-family="sans-serif" font-size="11" lengthAdjust="spacingAndGlyphs" textLength="117" x="188" y="167.3652">distanceRight: Double</text><ellipse cx="179" cy="177.6631" fill="none" rx="3" ry="3" style="stroke: #038048; stroke-width: 1.0;"/><text fill="#000000" font-family="sans-serif" font-size="11" lengthAdjust="spacingAndGlyphs" textLength="179" x="188" y="180.3203">courseRelativeToHorizon: Double</text><ellipse cx="179" cy="190.6182" fill="none" rx="3" ry="3" style="stroke: #038048; stroke-width: 1.0;"/><text fill="#000000" font-family="sans-serif" font-size="11" lengthAdjust="spacingAndGlyphs" textLength="178" x="188" y="193.2754">distanceToStoppingZone: Double</text><ellipse cx="179" cy="203.5732" fill="none" rx="3" ry="3" style="stroke: #038048; stroke-width: 1.0;"/><text fill="#000000" font-family="sans-serif" font-size="11" lengthAdjust="spacingAndGlyphs" textLength="198" x="188" y="206.2305">distanceToStoppingZoneEnd: Double</text><ellipse cx="179" cy="216.5283" fill="none" rx="3" ry="3" style="stroke: #038048; stroke-width: 1.0;"/><text fill="#000000" font-family="sans-serif" font-size="11" lengthAdjust="spacingAndGlyphs" textLength="81" x="188" y="219.1855">frameIndex: int</text><ellipse cx="179" cy="229.4834" fill="none" rx="3" ry="3" style="stroke: #038048; stroke-width: 1.0;"/><text fill="#000000" font-family="sans-serif" font-size="11" lengthAdjust="spacingAndGlyphs" textLength="111" x="188" y="232.1406">milliTimeStamp: long</text><line style="stroke: #A80036; stroke-width: 1.5;" x1="169" x2="391" y1="238.4609" y2="238.4609"/><ellipse cx="179" cy="250.4385" fill="#84BE84" rx="3" ry="3" style="stroke: #038048; stroke-width: 1.0;"/><text fill="#000000" font-family="sans-serif" font-size="11" lengthAdjust="spacingAndGlyphs" textLength="96" x="188" y="253.0957">checkError(): void</text><ellipse cx="179" cy="263.3936" fill="#84BE84" rx="3" ry="3" style="stroke: #038048; stroke-width: 1.0;"/><text fill="#000000" font-family="sans-serif" font-size="11" lengthAdjust="spacingAndGlyphs" textLength="101" x="188" y="266.0508">debugInfo(): String</text></a><!--class org.rcdukes.geometry.Point2D--><a href="Point2D.html" target="_top" xlink:actuate="onRequest" xlink:show="new" xlink:title="Point2D.html" xlink:type="simple"><rect fill="#FEFECE" filter="url(#f4xdovg9gdfi7)" height="86.8652" id="org.rcdukes.geometry.Point2D" style="stroke: #A80036; stroke-width: 1.5;" width="164" x="425" y="999.5"/><ellipse cx="480.25" cy="1015.5" fill="#B4A7E5" rx="11" ry="11" style="stroke: #A80036; stroke-width: 1.0;"/><path d="M476.1777,1011.2651 L476.1777,1009.1069 L483.5571,1009.1069 L483.5571,1011.2651 L481.0918,1011.2651 L481.0918,1019.3418 L483.5571,1019.3418 L483.5571,1021.5 L476.1777,1021.5 L476.1777,1019.3418 L478.6431,1019.3418 L478.6431,1011.2651 Z "/><text fill="#000000" font-family="sans-serif" font-size="12" font-style="italic" lengthAdjust="spacingAndGlyphs" textLength="45" x="500.75" y="1020.0352">Point2D</text><line style="stroke: #A80036; stroke-width: 1.5;" x1="426" x2="588" y1="1031.5" y2="1031.5"/><line style="stroke: #A80036; stroke-width: 1.5;" x1="426" x2="588" y1="1039.5" y2="1039.5"/><ellipse cx="436" cy="1051.4775" fill="#84BE84" rx="3" ry="3" style="stroke: #038048; stroke-width: 1.0;"/><text fill="#000000" font-family="sans-serif" font-size="11" font-style="italic" lengthAdjust="spacingAndGlyphs" textLength="75" x="445" y="1054.1348">getX(): double</text><ellipse cx="436" cy="1064.4326" fill="#84BE84" rx="3" ry="3" style="stroke: #038048; stroke-width: 1.0;"/><text fill="#000000" font-family="sans-serif" font-size="11" font-style="italic" lengthAdjust="spacingAndGlyphs" textLength="75" x="445" y="1067.0898">getY(): double</text><ellipse cx="436" cy="1077.3877" fill="#84BE84" rx="3" ry="3" style="stroke: #038048; stroke-width: 1.0;"/><text fill="#000000" font-family="sans-serif" font-size="11" font-style="italic" lengthAdjust="spacingAndGlyphs" textLength="138" x="445" y="1080.0449">distance(Point2D): double</text></a><!--class java.lang.Comparable--><rect fill="#FEFECE" filter="url(#f4xdovg9gdfi7)" height="60.9551" id="java.lang.Comparable" style="stroke: #A80036; stroke-width: 1.5;" width="122" x="22" y="1172"/><ellipse cx="40.15" cy="1188" fill="#B4A7E5" rx="11" ry="11" style="stroke: #A80036; stroke-width: 1.0;"/><path d="M36.0777,1183.7651 L36.0777,1181.6069 L43.4571,1181.6069 L43.4571,1183.7651 L40.9918,1183.7651 L40.9918,1191.8418 L43.4571,1191.8418 L43.4571,1194 L36.0777,1194 L36.0777,1191.8418 L38.5431,1191.8418 L38.5431,1183.7651 Z "/><text fill="#000000" font-family="sans-serif" font-size="12" font-style="italic" lengthAdjust="spacingAndGlyphs" textLength="71" x="54.85" y="1192.5352">Comparable</text><rect fill="#FFFFFF" height="16.1328" style="stroke: #000000; stroke-width: 1.0; stroke-dasharray: 2.0,2.0;" width="10" x="137" y="1169"/><text fill="#000000" font-family="sans-serif" font-size="12" font-style="italic" lengthAdjust="spacingAndGlyphs" textLength="8" x="138" y="1181.6016">T</text><line style="stroke: #A80036; stroke-width: 1.5;" x1="23" x2="143" y1="1204" y2="1204"/><line style="stroke: #A80036; stroke-width: 1.5;" x1="23" x2="143" y1="1212" y2="1212"/><ellipse cx="33" cy="1223.9775" fill="#84BE84" rx="3" ry="3" style="stroke: #038048; stroke-width: 1.0;"/><text fill="#000000" font-family="sans-serif" font-size="11" font-style="italic" lengthAdjust="spacingAndGlyphs" textLength="96" x="42" y="1226.6348">compareTo(T): int</text><!--link org.rcdukes.geometry.Line to org.rcdukes.geometry.Line.Vector--><path d="M290.1395,826.5187 C288.2986,882.3378 286.4448,938.5473 285.0877,979.6967 " fill="none" id="org.rcdukes.geometry.Line-org.rcdukes.geometry.Line.Vector" style="stroke: #A80036; stroke-width: 1.0;"/><ellipse cx="290.3815" cy="819.1829" fill="#FFFFFF" rx="8" ry="8" style="stroke: #A80036; stroke-width: 1.0;"/><line style="stroke: #A80036; stroke-width: 1.0;" x1="290.1178" x2="290.6452" y1="827.1785" y2="811.1872"/><line style="stroke: #A80036; stroke-width: 1.0;" x1="282.3859" x2="298.3772" y1="818.9192" y2="819.4465"/><!--link org.rcdukes.geometry.Point2D to org.rcdukes.geometry.Point--><path d="M485.7561,1105.8188 C468.518,1156.7925 443.653,1230.3191 422.2563,1293.5896 " fill="none" id="org.rcdukes.geometry.Point2D-org.rcdukes.geometry.Point" style="stroke: #A80036; stroke-width: 1.0; stroke-dasharray: 7.0,7.0;"/><polygon fill="none" points="479.1535,1103.492,492.1917,1086.7885,492.4157,1107.977,479.1535,1103.492" style="stroke: #A80036; stroke-width: 1.0;"/><!--link java.lang.Comparable to org.rcdukes.geometry.Point--><path d="M140.6783,1245.1742 C184.56,1277.6407 245.5947,1322.7981 294.911,1359.2855 " fill="none" id="java.lang.Comparable-org.rcdukes.geometry.Point" style="stroke: #A80036; stroke-width: 1.0; stroke-dasharray: 7.0,7.0;"/><polygon fill="none" points="136.3837,1250.7044,124.4692,1233.1816,144.7105,1239.4498,136.3837,1250.7044" style="stroke: #A80036; stroke-width: 1.0;"/><!--link org.rcdukes.geometry.Polygon to org.rcdukes.geometry.Point2D--><path d="M556.3234,688.1222 C544.3514,774.2601 524.2721,918.7289 513.8078,994.0183 " fill="none" id="org.rcdukes.geometry.Polygon-org.rcdukes.geometry.Point2D" style="stroke: #A80036; stroke-width: 1.0;"/><polygon fill="#A80036" points="513.0713,999.3178,518.2724,990.9543,513.7597,994.3654,510.3486,989.8528,513.0713,999.3178" style="stroke: #A80036; stroke-width: 1.0;"/><text fill="#000000" font-family="sans-serif" font-size="13" lengthAdjust="spacingAndGlyphs" textLength="40" x="588" y="885.5684">points</text><text fill="#000000" font-family="sans-serif" font-size="13" lengthAdjust="spacingAndGlyphs" textLength="104" x="556" y="900.8789">pointsClockwise</text><text fill="#000000" font-family="sans-serif" font-size="13" lengthAdjust="spacingAndGlyphs" textLength="154" x="531" y="916.1895">pointsCounterClockwise</text><text fill="#000000" font-family="sans-serif" font-size="13" lengthAdjust="spacingAndGlyphs" textLength="6" x="507.5608" y="988.7645">*</text><!--link org.rcdukes.geometry.Line to org.rcdukes.geometry.Point2D--><path d="M392.3223,811.1872 C425.8696,879.0006 460.7457,949.5003 483.0962,994.6801 " fill="none" id="org.rcdukes.geometry.Line-org.rcdukes.geometry.Point2D" style="stroke: #A80036; stroke-width: 1.0;"/><polygon fill="#A80036" points="485.3541,999.2443,484.9485,989.4038,483.137,994.7627,477.778,992.9512,485.3541,999.2443" style="stroke: #A80036; stroke-width: 1.0;"/><text fill="#000000" font-family="sans-serif" font-size="13" lengthAdjust="spacingAndGlyphs" textLength="41" x="446" y="893.0684">point1</text><text fill="#000000" font-family="sans-serif" font-size="13" lengthAdjust="spacingAndGlyphs" textLength="41" x="446" y="908.3789">point2</text><!--link org.rcdukes.geometry.Lane to org.rcdukes.geometry.Line--><path d="M529.4696,188.1045 C503.6468,235.913 451.6837,332.1177 403.4232,421.4674 " fill="none" id="org.rcdukes.geometry.Lane-org.rcdukes.geometry.Line" style="stroke: #A80036; stroke-width: 1.0;"/><polygon fill="#A80036" points="400.9824,425.9865,408.779,419.9688,403.3586,421.5872,401.7401,416.1668,400.9824,425.9865" style="stroke: #A80036; stroke-width: 1.0;"/><text fill="#000000" font-family="sans-serif" font-size="13" lengthAdjust="spacingAndGlyphs" textLength="79" x="455.5" y="346.5684">leftBoundary</text><text fill="#000000" font-family="sans-serif" font-size="13" lengthAdjust="spacingAndGlyphs" textLength="88" x="451" y="361.8789">rightBoundary</text><text fill="#000000" font-family="sans-serif" font-size="13" lengthAdjust="spacingAndGlyphs" textLength="24" x="380.8629" y="415.1269">0..1</text><text fill="#888888" font-family="sans-serif" font-size="10" lengthAdjust="spacingAndGlyphs" textLength="182" x="261.5" y="1584.668">UMLDoclet 1.1.4, PlantUML 1.2019.05</text><!--
@startuml

    namespace org.rcdukes.geometry {

        class Polygon [[Polygon.html]] {
            {static} +debug: boolean
            +Polygon(Point2D[])
            +init(Point2D[]): void
            {static} +square(Point2D, Point2D): Polygon
            +intersect(Line): Set<Point2D>
            +edges(): List<Line>
            +shoelace(): double
        }

        class Line [[Line.html]] {
            +Line()
            +Line(double[])
            +Line(Point, Point)
            +Line(Point2D, Point2D)
            {static} +fromHough(boolean, int, int, double[]): Line
            +init(Point, Point): void
            +length(): double
            +angleRad(): double
            +angleDeg(): double
            +angleDeg90(): double
            {static} +average(Line[]): Line
            {static} +average(Collection<Line>): Line
            +isLeftOfLine(Point2D): boolean
            +isRightOfLine(Point2D): boolean
            +existsOnLine(Point2D): boolean
            +bottomMost(): Point2D
            +leftMost(): Point2D
            +rightMost(): Point2D
            +topMost(): Point2D
            +pointAt(double): Point2D
            +width(): double
            +height(): double
            {static} +angleString(Double): String
            {static} +lineAngleString(Line): String
            +intersect(Line): Optional<Point2D>
            +distance(Point2D): double
        }

        class org.rcdukes.geometry.Line.Vector [[Line.Vector.html]] {
            +Vector(double, double)
            +calculate(Point2D, double): Point2D
            +calculateX(double): double
            +calculateY(double): double
            {static} +forY(double): Line.Vector
            {static} +forX(double): Line.Vector
        }

        class Point [[Point.html]] {
            {static} +X: int
            {static} +Y: int
            {static} +Z: int
            +Point()
            +Point(int, int)
            +Point(long, long)
            +Point(Double[])
            +distance(Double[]): double
            +distance(Point2D): double
            +valueStr(Double): String
            +getX(): double
            +setX(double): void
            +getY(): double
            +setY(double): void
            +setZ(Double): void
            +compareTo(Point): int
        }

        class Lane [[Lane.html]] {
            +Lane(Optional<Line>, Optional<Line>)
        }

        class LaneDetectionResult [[LaneDetectionResult.html]] {
            {static} +forceError: boolean
            +left: Double
            +middle: Double
            +right: Double
            +distanceMiddle: Double
            +distanceLeft: Double
            +distanceRight: Double
            +courseRelativeToHorizon: Double
            +distanceToStoppingZone: Double
            +distanceToStoppingZoneEnd: Double
            +frameIndex: int
            +milliTimeStamp: long
            +checkError(): void
            +debugInfo(): String
        }

        interface Point2D [[Point2D.html]] {
            {abstract} +getX(): double
            {abstract} +getY(): double
            {abstract} +distance(Point2D): double
        }

        Line +- - org.rcdukes.geometry.Line.Vector

        Point2D <|.. Point

        interface java.lang.Comparable<T> {
            {abstract} +compareTo(T): int
        }
        java.lang.Comparable <|.. Point

        Polygon - -> "*" Point2D: points\npointsClockwise\npointsCounterClockwise

        Line - -> Point2D: point1\npoint2

        Lane - -> "0..1" Line: leftBoundary\nrightBoundary

    }


    center footer UMLDoclet 1.1.4, PlantUML 1.2019.05
@enduml

PlantUML version 1.2019.05(Sat Apr 20 18:45:36 CEST 2019)
(APACHE source distribution)
Java Runtime: Java(TM) SE Runtime Environment
JVM: Java HotSpot(TM) 64-Bit Server VM
Java Version: 1.8.0_152-b16
Operating System: Mac OS X
OS Version: 10.13.6
Default Encoding: UTF-8
Language: de
Country: DE
--></g></svg>