<?xml version="1.0" encoding="UTF-8" standalone="no"?><svg xmlns="http://www.w3.org/2000/svg" xmlns:xlink="http://www.w3.org/1999/xlink" contentScriptType="application/ecmascript" contentStyleType="text/css" height="296px" preserveAspectRatio="none" style="width:199px;height:296px;" version="1.1" viewBox="0 0 199 296" width="199px" zoomAndPan="magnify"><defs><filter height="300%" id="f1n9xbqxqyjrxc" width="300%" x="-1" y="-1"><feGaussianBlur result="blurOut" stdDeviation="2.0"/><feColorMatrix in="blurOut" result="blurOut2" type="matrix" values="0 0 0 0 0 0 0 0 0 0 0 0 0 0 0 0 0 0 .4 0"/><feOffset dx="4.0" dy="4.0" in="blurOut2" result="blurOut3"/><feBlend in="SourceGraphic" in2="blurOut3" mode="normal"/></filter></defs><g><!--class Point--><a href="Point.html" target="_top" xlink:actuate="onRequest" xlink:show="new" xlink:title="Point.html" xlink:type="simple"><rect fill="#FEFECE" filter="url(#f1n9xbqxqyjrxc)" height="255.2813" id="Point" style="stroke: #A80036; stroke-width: 1.5;" width="168" x="6" y="8"/><ellipse cx="71.75" cy="24" fill="#ADD1B2" rx="11" ry="11" style="stroke: #A80036; stroke-width: 1.0;"/><path d="M74.7231,29.6431 Q74.1421,29.9419 73.5029,30.0913 Q72.8638,30.2407 72.1582,30.2407 Q69.6514,30.2407 68.3315,28.5889 Q67.0117,26.937 67.0117,23.8159 Q67.0117,20.6865 68.3315,19.0347 Q69.6514,17.3828 72.1582,17.3828 Q72.8638,17.3828 73.5112,17.5322 Q74.1587,17.6816 74.7231,17.9805 L74.7231,20.7031 Q74.0923,20.1221 73.4988,19.8523 Q72.9053,19.5825 72.2744,19.5825 Q70.9297,19.5825 70.2449,20.6492 Q69.5601,21.7158 69.5601,23.8159 Q69.5601,25.9077 70.2449,26.9744 Q70.9297,28.041 72.2744,28.041 Q72.9053,28.041 73.4988,27.7712 Q74.0923,27.5015 74.7231,26.9204 Z "/><text fill="#000000" font-family="sans-serif" font-size="12" lengthAdjust="spacingAndGlyphs" textLength="28" x="92.25" y="28.5352">Point</text><line style="stroke: #A80036; stroke-width: 1.5;" x1="7" x2="173" y1="40" y2="40"/><ellipse cx="17" cy="51.9775" fill="none" rx="3" ry="3" style="stroke: #038048; stroke-width: 1.0;"/><text fill="#000000" font-family="sans-serif" font-size="11" lengthAdjust="spacingAndGlyphs" text-decoration="underline" textLength="27" x="26" y="54.6348">X: int</text><ellipse cx="17" cy="64.9326" fill="none" rx="3" ry="3" style="stroke: #038048; stroke-width: 1.0;"/><text fill="#000000" font-family="sans-serif" font-size="11" lengthAdjust="spacingAndGlyphs" text-decoration="underline" textLength="27" x="26" y="67.5898">Y: int</text><ellipse cx="17" cy="77.8877" fill="none" rx="3" ry="3" style="stroke: #038048; stroke-width: 1.0;"/><text fill="#000000" font-family="sans-serif" font-size="11" lengthAdjust="spacingAndGlyphs" text-decoration="underline" textLength="27" x="26" y="80.5449">Z: int</text><line style="stroke: #A80036; stroke-width: 1.5;" x1="7" x2="173" y1="86.8652" y2="86.8652"/><ellipse cx="17" cy="98.8428" fill="#84BE84" rx="3" ry="3" style="stroke: #038048; stroke-width: 1.0;"/><text fill="#000000" font-family="sans-serif" font-size="11" lengthAdjust="spacingAndGlyphs" textLength="35" x="26" y="101.5">Point()</text><ellipse cx="17" cy="111.7979" fill="#84BE84" rx="3" ry="3" style="stroke: #038048; stroke-width: 1.0;"/><text fill="#000000" font-family="sans-serif" font-size="11" lengthAdjust="spacingAndGlyphs" textLength="69" x="26" y="114.4551">Point(int, int)</text><ellipse cx="17" cy="124.7529" fill="#84BE84" rx="3" ry="3" style="stroke: #038048; stroke-width: 1.0;"/><text fill="#000000" font-family="sans-serif" font-size="11" lengthAdjust="spacingAndGlyphs" textLength="89" x="26" y="127.4102">Point(long, long)</text><ellipse cx="17" cy="137.708" fill="#84BE84" rx="3" ry="3" style="stroke: #038048; stroke-width: 1.0;"/><text fill="#000000" font-family="sans-serif" font-size="11" lengthAdjust="spacingAndGlyphs" textLength="81" x="26" y="140.3652">Point(Double[])</text><ellipse cx="17" cy="150.6631" fill="#84BE84" rx="3" ry="3" style="stroke: #038048; stroke-width: 1.0;"/><text fill="#000000" font-family="sans-serif" font-size="11" lengthAdjust="spacingAndGlyphs" textLength="142" x="26" y="153.3203">distance(Double[]): double</text><ellipse cx="17" cy="163.6182" fill="#84BE84" rx="3" ry="3" style="stroke: #038048; stroke-width: 1.0;"/><text fill="#000000" font-family="sans-serif" font-size="11" lengthAdjust="spacingAndGlyphs" textLength="138" x="26" y="166.2754">distance(Point2D): double</text><ellipse cx="17" cy="176.5732" fill="#84BE84" rx="3" ry="3" style="stroke: #038048; stroke-width: 1.0;"/><text fill="#000000" font-family="sans-serif" font-size="11" lengthAdjust="spacingAndGlyphs" textLength="127" x="26" y="179.2305">valueStr(Double): String</text><ellipse cx="17" cy="189.5283" fill="#84BE84" rx="3" ry="3" style="stroke: #038048; stroke-width: 1.0;"/><text fill="#000000" font-family="sans-serif" font-size="11" lengthAdjust="spacingAndGlyphs" textLength="75" x="26" y="192.1855">getX(): double</text><ellipse cx="17" cy="202.4834" fill="#84BE84" rx="3" ry="3" style="stroke: #038048; stroke-width: 1.0;"/><text fill="#000000" font-family="sans-serif" font-size="11" lengthAdjust="spacingAndGlyphs" textLength="97" x="26" y="205.1406">setX(double): void</text><ellipse cx="17" cy="215.4385" fill="#84BE84" rx="3" ry="3" style="stroke: #038048; stroke-width: 1.0;"/><text fill="#000000" font-family="sans-serif" font-size="11" lengthAdjust="spacingAndGlyphs" textLength="75" x="26" y="218.0957">getY(): double</text><ellipse cx="17" cy="228.3936" fill="#84BE84" rx="3" ry="3" style="stroke: #038048; stroke-width: 1.0;"/><text fill="#000000" font-family="sans-serif" font-size="11" lengthAdjust="spacingAndGlyphs" textLength="97" x="26" y="231.0508">setY(double): void</text><ellipse cx="17" cy="241.3486" fill="#84BE84" rx="3" ry="3" style="stroke: #038048; stroke-width: 1.0;"/><text fill="#000000" font-family="sans-serif" font-size="11" lengthAdjust="spacingAndGlyphs" textLength="98" x="26" y="244.0059">setZ(Double): void</text><ellipse cx="17" cy="254.3037" fill="#84BE84" rx="3" ry="3" style="stroke: #038048; stroke-width: 1.0;"/><text fill="#000000" font-family="sans-serif" font-size="11" lengthAdjust="spacingAndGlyphs" textLength="116" x="26" y="256.9609">compareTo(Point): int</text></a><text fill="#888888" font-family="sans-serif" font-size="10" lengthAdjust="spacingAndGlyphs" textLength="182" x="5" y="282.668">UMLDoclet 1.1.4, PlantUML 1.2019.05</text><!--
@startuml

    class Point [[Point.html]] {
        {static} +X: int
        {static} +Y: int
        {static} +Z: int
        +Point()
        +Point(int, int)
        +Point(long, long)
        +Point(Double[])
        +distance(Double[]): double
        +distance(Point2D): double
        +valueStr(Double): String
        +getX(): double
        +setX(double): void
        +getY(): double
        +setY(double): void
        +setZ(Double): void
        +compareTo(Point): int
    }


    center footer UMLDoclet 1.1.4, PlantUML 1.2019.05
@enduml

PlantUML version 1.2019.05(Sat Apr 20 18:45:36 CEST 2019)
(APACHE source distribution)
Java Runtime: Java(TM) SE Runtime Environment
JVM: Java HotSpot(TM) 64-Bit Server VM
Java Version: 1.8.0_152-b16
Operating System: Mac OS X
OS Version: 10.13.6
Default Encoding: UTF-8
Language: de
Country: DE
--></g></svg>