<?xml version="1.0" encoding="UTF-8" standalone="no"?><svg xmlns="http://www.w3.org/2000/svg" xmlns:xlink="http://www.w3.org/1999/xlink" contentScriptType="application/ecmascript" contentStyleType="text/css" height="232px" preserveAspectRatio="none" style="width:209px;height:232px;" version="1.1" viewBox="0 0 209 232" width="209px" zoomAndPan="magnify"><defs><filter height="300%" id="f1hqdihzduwwai" width="300%" x="-1" y="-1"><feGaussianBlur result="blurOut" stdDeviation="2.0"/><feColorMatrix in="blurOut" result="blurOut2" type="matrix" values="0 0 0 0 0 0 0 0 0 0 0 0 0 0 0 0 0 0 .4 0"/><feOffset dx="4.0" dy="4.0" in="blurOut2" result="blurOut3"/><feBlend in="SourceGraphic" in2="blurOut3" mode="normal"/></filter></defs><g><!--class ImageObserver--><a href="ImageObserver.html" target="_top" xlink:actuate="onRequest" xlink:show="new" xlink:title="ImageObserver.html" xlink:type="simple"><rect fill="#FEFECE" filter="url(#f1hqdihzduwwai)" height="190.5059" id="ImageObserver" style="stroke: #A80036; stroke-width: 1.5;" width="189" x="6" y="8"/><ellipse cx="52.25" cy="24" fill="#ADD1B2" rx="11" ry="11" style="stroke: #A80036; stroke-width: 1.0;"/><path d="M55.2231,29.6431 Q54.6421,29.9419 54.0029,30.0913 Q53.3638,30.2407 52.6582,30.2407 Q50.1514,30.2407 48.8315,28.5889 Q47.5117,26.937 47.5117,23.8159 Q47.5117,20.6865 48.8315,19.0347 Q50.1514,17.3828 52.6582,17.3828 Q53.3638,17.3828 54.0112,17.5322 Q54.6587,17.6816 55.2231,17.9805 L55.2231,20.7031 Q54.5923,20.1221 53.9988,19.8523 Q53.4053,19.5825 52.7744,19.5825 Q51.4297,19.5825 50.7449,20.6492 Q50.0601,21.7158 50.0601,23.8159 Q50.0601,25.9077 50.7449,26.9744 Q51.4297,28.041 52.7744,28.041 Q53.4053,28.041 53.9988,27.7712 Q54.5923,27.5015 55.2231,26.9204 Z "/><text fill="#000000" font-family="sans-serif" font-size="12" lengthAdjust="spacingAndGlyphs" textLength="88" x="72.75" y="28.5352">ImageObserver</text><line style="stroke: #A80036; stroke-width: 1.5;" x1="7" x2="194" y1="40" y2="40"/><ellipse cx="17" cy="51.9775" fill="none" rx="3" ry="3" style="stroke: #038048; stroke-width: 1.0;"/><text fill="#000000" font-family="sans-serif" font-size="11" lengthAdjust="spacingAndGlyphs" textLength="90" x="26" y="54.6348">error: Throwable</text><ellipse cx="17" cy="64.9326" fill="none" rx="3" ry="3" style="stroke: #038048; stroke-width: 1.0;"/><text fill="#000000" font-family="sans-serif" font-size="11" lengthAdjust="spacingAndGlyphs" textLength="42" x="26" y="67.5898">cols: int</text><ellipse cx="17" cy="77.8877" fill="none" rx="3" ry="3" style="stroke: #038048; stroke-width: 1.0;"/><text fill="#000000" font-family="sans-serif" font-size="11" lengthAdjust="spacingAndGlyphs" textLength="46" x="26" y="80.5449">rows: int</text><ellipse cx="17" cy="90.8428" fill="none" rx="3" ry="3" style="stroke: #038048; stroke-width: 1.0;"/><text fill="#000000" font-family="sans-serif" font-size="11" lengthAdjust="spacingAndGlyphs" textLength="105" x="26" y="93.5">completed: boolean</text><ellipse cx="17" cy="103.7979" fill="none" rx="3" ry="3" style="stroke: #038048; stroke-width: 1.0;"/><text fill="#000000" font-family="sans-serif" font-size="11" lengthAdjust="spacingAndGlyphs" textLength="83" x="26" y="106.4551">debug: boolean</text><ellipse cx="17" cy="116.7529" fill="none" rx="3" ry="3" style="stroke: #038048; stroke-width: 1.0;"/><text fill="#000000" font-family="sans-serif" font-size="11" lengthAdjust="spacingAndGlyphs" textLength="120" x="26" y="119.4102">stackTraceText: String</text><line style="stroke: #A80036; stroke-width: 1.5;" x1="7" x2="194" y1="125.7305" y2="125.7305"/><ellipse cx="17" cy="137.708" fill="#84BE84" rx="3" ry="3" style="stroke: #038048; stroke-width: 1.0;"/><text fill="#000000" font-family="sans-serif" font-size="11" lengthAdjust="spacingAndGlyphs" textLength="102" x="26" y="140.3652">onComplete(): void</text><ellipse cx="17" cy="150.6631" fill="#84BE84" rx="3" ry="3" style="stroke: #038048; stroke-width: 1.0;"/><text fill="#000000" font-family="sans-serif" font-size="11" lengthAdjust="spacingAndGlyphs" textLength="135" x="26" y="153.3203">onError(Throwable): void</text><ellipse cx="17" cy="163.6182" fill="#84BE84" rx="3" ry="3" style="stroke: #038048; stroke-width: 1.0;"/><text fill="#000000" font-family="sans-serif" font-size="11" lengthAdjust="spacingAndGlyphs" textLength="108" x="26" y="166.2754">onNext(Image): void</text><ellipse cx="17" cy="176.5732" fill="#84BE84" rx="3" ry="3" style="stroke: #038048; stroke-width: 1.0;"/><text fill="#000000" font-family="sans-serif" font-size="11" lengthAdjust="spacingAndGlyphs" textLength="163" x="26" y="179.2305">onSubscribe(Disposable): void</text><ellipse cx="17" cy="189.5283" fill="#84BE84" rx="3" ry="3" style="stroke: #038048; stroke-width: 1.0;"/><text fill="#000000" font-family="sans-serif" font-size="11" lengthAdjust="spacingAndGlyphs" textLength="61" x="26" y="192.1855">stop(): void</text></a><text fill="#888888" font-family="sans-serif" font-size="10" lengthAdjust="spacingAndGlyphs" textLength="182" x="15.5" y="218.668">UMLDoclet 1.1.4, PlantUML 1.2019.05</text><!--
@startuml

    class ImageObserver [[ImageObserver.html]] {
        +error: Throwable
        +cols: int
        +rows: int
        +completed: boolean
        +debug: boolean
        +stackTraceText: String
        +onComplete(): void
        +onError(Throwable): void
        +onNext(Image): void
        +onSubscribe(Disposable): void
        +stop(): void
    }


    center footer UMLDoclet 1.1.4, PlantUML 1.2019.05
@enduml

PlantUML version 1.2019.05(Sat Apr 20 18:45:36 CEST 2019)
(APACHE source distribution)
Java Runtime: Java(TM) SE Runtime Environment
JVM: Java HotSpot(TM) 64-Bit Server VM
Java Version: 1.8.0_152-b16
Operating System: Mac OS X
OS Version: 10.13.6
Default Encoding: UTF-8
Language: de
Country: DE
--></g></svg>