<?xml version="1.0" encoding="UTF-8" standalone="no"?><svg xmlns="http://www.w3.org/2000/svg" xmlns:xlink="http://www.w3.org/1999/xlink" contentScriptType="application/ecmascript" contentStyleType="text/css" height="166px" preserveAspectRatio="none" style="width:340px;height:166px;" version="1.1" viewBox="0 0 340 166" width="340px" zoomAndPan="magnify"><defs><filter height="300%" id="f1h3ct4zm07kbw" width="300%" x="-1" y="-1"><feGaussianBlur result="blurOut" stdDeviation="2.0"/><feColorMatrix in="blurOut" result="blurOut2" type="matrix" values="0 0 0 0 0 0 0 0 0 0 0 0 0 0 0 0 0 0 .4 0"/><feOffset dx="4.0" dy="4.0" in="blurOut2" result="blurOut3"/><feBlend in="SourceGraphic" in2="blurOut3" mode="normal"/></filter></defs><g><!--cluster nl.vaneijndhoven.opencv.objectdetection--><polygon fill="#FFFFFF" filter="url(#f1h3ct4zm07kbw)" points="14,16,308,16,315,38.4883,318,38.4883,318,125,14,125,14,16" style="stroke: #000000; stroke-width: 1.5;"/><line style="stroke: #000000; stroke-width: 1.5;" x1="14" x2="315" y1="38.4883" y2="38.4883"/><text fill="#000000" font-family="sans-serif" font-size="14" font-weight="bold" lengthAdjust="spacingAndGlyphs" textLength="288" x="18" y="31.5352">nl.vaneijndhoven.opencv.objectdetection</text><!--class nl.vaneijndhoven.opencv.objectdetection.LineExtractor--><a href="LineExtractor.html" target="_top" xlink:actuate="onRequest" xlink:show="new" xlink:title="LineExtractor.html" xlink:type="simple"><rect fill="#FEFECE" filter="url(#f1h3ct4zm07kbw)" height="73.9102" id="nl.vaneijndhoven.opencv.objectdetection.LineExtractor" style="stroke: #A80036; stroke-width: 1.5;" width="252" x="40" y="43"/><ellipse cx="124.25" cy="59" fill="#ADD1B2" rx="11" ry="11" style="stroke: #A80036; stroke-width: 1.0;"/><path d="M127.2231,64.6431 Q126.6421,64.9419 126.0029,65.0913 Q125.3638,65.2407 124.6582,65.2407 Q122.1514,65.2407 120.8315,63.5889 Q119.5117,61.937 119.5117,58.8159 Q119.5117,55.6865 120.8315,54.0347 Q122.1514,52.3828 124.6582,52.3828 Q125.3638,52.3828 126.0112,52.5322 Q126.6587,52.6816 127.2231,52.9805 L127.2231,55.7031 Q126.5923,55.1221 125.9988,54.8523 Q125.4053,54.5825 124.7744,54.5825 Q123.4297,54.5825 122.7449,55.6492 Q122.0601,56.7158 122.0601,58.8159 Q122.0601,60.9077 122.7449,61.9744 Q123.4297,63.041 124.7744,63.041 Q125.4053,63.041 125.9988,62.7712 Q126.5923,62.5015 127.2231,61.9204 Z "/><text fill="#000000" font-family="sans-serif" font-size="12" lengthAdjust="spacingAndGlyphs" textLength="75" x="144.75" y="63.5352">LineExtractor</text><line style="stroke: #A80036; stroke-width: 1.5;" x1="41" x2="291" y1="75" y2="75"/><line style="stroke: #A80036; stroke-width: 1.5;" x1="41" x2="291" y1="83" y2="83"/><ellipse cx="51" cy="94.9775" fill="#84BE84" rx="3" ry="3" style="stroke: #038048; stroke-width: 1.0;"/><text fill="#000000" font-family="sans-serif" font-size="11" lengthAdjust="spacingAndGlyphs" textLength="226" x="60" y="97.6348">LineExtractor(EdgeDetector, LineDetector)</text><ellipse cx="51" cy="107.9326" fill="#84BE84" rx="3" ry="3" style="stroke: #038048; stroke-width: 1.0;"/><text fill="#000000" font-family="sans-serif" font-size="11" lengthAdjust="spacingAndGlyphs" textLength="165" x="60" y="110.5898">extract(Mat): Collection&lt;Line&gt;</text></a><text fill="#888888" font-family="sans-serif" font-size="10" lengthAdjust="spacingAndGlyphs" textLength="182" x="81" y="152.668">UMLDoclet 1.1.4, PlantUML 1.2019.05</text><!--
@startuml

    namespace nl.vaneijndhoven.opencv.objectdetection {

        class LineExtractor [[LineExtractor.html]] {
            +LineExtractor(EdgeDetector, LineDetector)
            +extract(Mat): Collection<Line>
        }

    }


    center footer UMLDoclet 1.1.4, PlantUML 1.2019.05
@enduml

PlantUML version 1.2019.05(Sat Apr 20 18:45:36 CEST 2019)
(APACHE source distribution)
Java Runtime: Java(TM) SE Runtime Environment
JVM: Java HotSpot(TM) 64-Bit Server VM
Java Version: 1.8.0_191-b12
Operating System: Mac OS X
OS Version: 10.13.6
Default Encoding: UTF-8
Language: de
Country: DE
--></g></svg>