<?xml version="1.0" encoding="UTF-8" standalone="no"?><svg xmlns="http://www.w3.org/2000/svg" xmlns:xlink="http://www.w3.org/1999/xlink" contentScriptType="application/ecmascript" contentStyleType="text/css" height="115px" preserveAspectRatio="none" style="width:194px;height:115px;" version="1.1" viewBox="0 0 194 115" width="194px" zoomAndPan="magnify"><defs><filter height="300%" id="frc6re91ghtkr" width="300%" x="-1" y="-1"><feGaussianBlur result="blurOut" stdDeviation="2.0"/><feColorMatrix in="blurOut" result="blurOut2" type="matrix" values="0 0 0 0 0 0 0 0 0 0 0 0 0 0 0 0 0 0 .4 0"/><feOffset dx="4.0" dy="4.0" in="blurOut2" result="blurOut3"/><feBlend in="SourceGraphic" in2="blurOut3" mode="normal"/></filter></defs><g><!--class BaseDetectTest--><a href="BaseDetectTest.html" target="_top" xlink:actuate="onRequest" xlink:show="new" xlink:title="BaseDetectTest.html" xlink:type="simple"><rect fill="#FEFECE" filter="url(#frc6re91ghtkr)" height="73.9102" id="BaseDetectTest" style="stroke: #A80036; stroke-width: 1.5;" width="131" x="19.5" y="8"/><ellipse cx="39" cy="24" fill="#ADD1B2" rx="11" ry="11" style="stroke: #A80036; stroke-width: 1.0;"/><path d="M41.9731,29.6431 Q41.3921,29.9419 40.7529,30.0913 Q40.1138,30.2407 39.4082,30.2407 Q36.9014,30.2407 35.5815,28.5889 Q34.2617,26.937 34.2617,23.8159 Q34.2617,20.6865 35.5815,19.0347 Q36.9014,17.3828 39.4082,17.3828 Q40.1138,17.3828 40.7612,17.5322 Q41.4087,17.6816 41.9731,17.9805 L41.9731,20.7031 Q41.3423,20.1221 40.7488,19.8523 Q40.1553,19.5825 39.5244,19.5825 Q38.1797,19.5825 37.4949,20.6492 Q36.8101,21.7158 36.8101,23.8159 Q36.8101,25.9077 37.4949,26.9744 Q38.1797,28.041 39.5244,28.041 Q40.1553,28.041 40.7488,27.7712 Q41.3423,27.5015 41.9731,26.9204 Z "/><text fill="#000000" font-family="sans-serif" font-size="12" lengthAdjust="spacingAndGlyphs" textLength="89" x="54" y="28.5352">BaseDetectTest</text><line style="stroke: #A80036; stroke-width: 1.5;" x1="20.5" x2="149.5" y1="40" y2="40"/><line style="stroke: #A80036; stroke-width: 1.5;" x1="20.5" x2="149.5" y1="48" y2="48"/><ellipse cx="30.5" cy="59.9775" fill="#84BE84" rx="3" ry="3" style="stroke: #038048; stroke-width: 1.0;"/><text fill="#000000" font-family="sans-serif" font-size="11" lengthAdjust="spacingAndGlyphs" text-decoration="underline" textLength="67" x="39.5" y="62.6348">setup(): void</text><ellipse cx="30.5" cy="72.9326" fill="#84BE84" rx="3" ry="3" style="stroke: #038048; stroke-width: 1.0;"/><text fill="#000000" font-family="sans-serif" font-size="11" lengthAdjust="spacingAndGlyphs" textLength="105" x="39.5" y="75.5898">getTestImage(): Mat</text></a><text fill="#888888" font-family="sans-serif" font-size="10" lengthAdjust="spacingAndGlyphs" textLength="182" x="0" y="101.668">UMLDoclet 1.1.4, PlantUML 1.2019.05</text><!--
@startuml

    class BaseDetectTest [[BaseDetectTest.html]] {
        {static} +setup(): void
        +getTestImage(): Mat
    }


    center footer UMLDoclet 1.1.4, PlantUML 1.2019.05
@enduml

PlantUML version 1.2019.05(Sat Apr 20 18:45:36 CEST 2019)
(APACHE source distribution)
Java Runtime: Java(TM) SE Runtime Environment
JVM: Java HotSpot(TM) 64-Bit Server VM
Java Version: 1.8.0_152-b16
Operating System: Mac OS X
OS Version: 10.13.6
Default Encoding: UTF-8
Language: de
Country: DE
--></g></svg>