<?xml version="1.0" encoding="UTF-8" standalone="no"?><svg xmlns="http://www.w3.org/2000/svg" xmlns:xlink="http://www.w3.org/1999/xlink" contentScriptType="application/ecmascript" contentStyleType="text/css" height="167px" preserveAspectRatio="none" style="width:271px;height:167px;" version="1.1" viewBox="0 0 271 167" width="271px" zoomAndPan="magnify"><defs><filter height="300%" id="fqycup2xq9xid" width="300%" x="-1" y="-1"><feGaussianBlur result="blurOut" stdDeviation="2.0"/><feColorMatrix in="blurOut" result="blurOut2" type="matrix" values="0 0 0 0 0 0 0 0 0 0 0 0 0 0 0 0 0 0 .4 0"/><feOffset dx="4.0" dy="4.0" in="blurOut2" result="blurOut3"/><feBlend in="SourceGraphic" in2="blurOut3" mode="normal"/></filter></defs><g><!--class TestImageFetcher--><a href="TestImageFetcher.html" target="_top" xlink:actuate="onRequest" xlink:show="new" xlink:title="TestImageFetcher.html" xlink:type="simple"><rect fill="#FEFECE" filter="url(#fqycup2xq9xid)" height="125.7305" id="TestImageFetcher" style="stroke: #A80036; stroke-width: 1.5;" width="254" x="6" y="8"/><ellipse cx="77.75" cy="24" fill="#ADD1B2" rx="11" ry="11" style="stroke: #A80036; stroke-width: 1.0;"/><path d="M80.7231,29.6431 Q80.1421,29.9419 79.5029,30.0913 Q78.8638,30.2407 78.1582,30.2407 Q75.6514,30.2407 74.3315,28.5889 Q73.0117,26.937 73.0117,23.8159 Q73.0117,20.6865 74.3315,19.0347 Q75.6514,17.3828 78.1582,17.3828 Q78.8638,17.3828 79.5112,17.5322 Q80.1587,17.6816 80.7231,17.9805 L80.7231,20.7031 Q80.0923,20.1221 79.4988,19.8523 Q78.9053,19.5825 78.2744,19.5825 Q76.9297,19.5825 76.2449,20.6492 Q75.5601,21.7158 75.5601,23.8159 Q75.5601,25.9077 76.2449,26.9744 Q76.9297,28.041 78.2744,28.041 Q78.9053,28.041 79.4988,27.7712 Q80.0923,27.5015 80.7231,26.9204 Z "/><text fill="#000000" font-family="sans-serif" font-size="12" lengthAdjust="spacingAndGlyphs" textLength="102" x="98.25" y="28.5352">TestImageFetcher</text><line style="stroke: #A80036; stroke-width: 1.5;" x1="7" x2="259" y1="40" y2="40"/><ellipse cx="17" cy="51.9775" fill="none" rx="3" ry="3" style="stroke: #038048; stroke-width: 1.0;"/><text fill="#000000" font-family="sans-serif" font-size="11" lengthAdjust="spacingAndGlyphs" text-decoration="underline" textLength="95" x="26" y="54.6348">testSource: String</text><line style="stroke: #A80036; stroke-width: 1.5;" x1="7" x2="259" y1="60.9551" y2="60.9551"/><ellipse cx="17" cy="72.9326" fill="#84BE84" rx="3" ry="3" style="stroke: #038048; stroke-width: 1.0;"/><text fill="#000000" font-family="sans-serif" font-size="11" lengthAdjust="spacingAndGlyphs" text-decoration="underline" textLength="198" x="26" y="75.5898">getTestImageFetcher(): ImageFetcher</text><ellipse cx="17" cy="85.8877" fill="#84BE84" rx="3" ry="3" style="stroke: #038048; stroke-width: 1.0;"/><text fill="#000000" font-family="sans-serif" font-size="11" lengthAdjust="spacingAndGlyphs" textLength="129" x="26" y="88.5449">testImageFetcher(): void</text><ellipse cx="17" cy="98.8428" fill="#84BE84" rx="3" ry="3" style="stroke: #038048; stroke-width: 1.0;"/><text fill="#000000" font-family="sans-serif" font-size="11" lengthAdjust="spacingAndGlyphs" textLength="190" x="26" y="101.5">testImageFetcherObservable(): void</text><ellipse cx="17" cy="111.7979" fill="#84BE84" rx="3" ry="3" style="stroke: #038048; stroke-width: 1.0;"/><text fill="#000000" font-family="sans-serif" font-size="11" lengthAdjust="spacingAndGlyphs" textLength="228" x="26" y="114.4551">testImageFetcherObservableSample(): void</text><ellipse cx="17" cy="124.7529" fill="#84BE84" rx="3" ry="3" style="stroke: #038048; stroke-width: 1.0;"/><text fill="#000000" font-family="sans-serif" font-size="11" lengthAdjust="spacingAndGlyphs" textLength="118" x="26" y="127.4102">testStaticImage(): void</text></a><text fill="#888888" font-family="sans-serif" font-size="10" lengthAdjust="spacingAndGlyphs" textLength="182" x="48" y="153.668">UMLDoclet 1.1.4, PlantUML 1.2019.05</text><!--
@startuml

    class TestImageFetcher [[TestImageFetcher.html]] {
        {static} +testSource: String
        {static} +getTestImageFetcher(): ImageFetcher
        +testImageFetcher(): void
        +testImageFetcherObservable(): void
        +testImageFetcherObservableSample(): void
        +testStaticImage(): void
    }


    center footer UMLDoclet 1.1.4, PlantUML 1.2019.05
@enduml

PlantUML version 1.2019.05(Sat Apr 20 18:45:36 CEST 2019)
(APACHE source distribution)
Java Runtime: Java(TM) SE Runtime Environment
JVM: Java HotSpot(TM) 64-Bit Server VM
Java Version: 1.8.0_152-b16
Operating System: Mac OS X
OS Version: 10.13.6
Default Encoding: UTF-8
Language: de
Country: DE
--></g></svg>