<?xml version="1.0" encoding="UTF-8" standalone="no"?><svg xmlns="http://www.w3.org/2000/svg" xmlns:xlink="http://www.w3.org/1999/xlink" contentScriptType="application/ecmascript" contentStyleType="text/css" height="206px" preserveAspectRatio="none" style="width:355px;height:206px;" version="1.1" viewBox="0 0 355 206" width="355px" zoomAndPan="magnify"><defs><filter height="300%" id="fuekukttdl0qj" width="300%" x="-1" y="-1"><feGaussianBlur result="blurOut" stdDeviation="2.0"/><feColorMatrix in="blurOut" result="blurOut2" type="matrix" values="0 0 0 0 0 0 0 0 0 0 0 0 0 0 0 0 0 0 .4 0"/><feOffset dx="4.0" dy="4.0" in="blurOut2" result="blurOut3"/><feBlend in="SourceGraphic" in2="blurOut3" mode="normal"/></filter></defs><g><!--class TestLaneDetection--><a href="TestLaneDetection.html" target="_top" xlink:actuate="onRequest" xlink:show="new" xlink:title="TestLaneDetection.html" xlink:type="simple"><rect fill="#FEFECE" filter="url(#fuekukttdl0qj)" height="164.5957" id="TestLaneDetection" style="stroke: #A80036; stroke-width: 1.5;" width="338" x="6" y="8"/><ellipse cx="117.75" cy="24" fill="#ADD1B2" rx="11" ry="11" style="stroke: #A80036; stroke-width: 1.0;"/><path d="M120.7231,29.6431 Q120.1421,29.9419 119.5029,30.0913 Q118.8638,30.2407 118.1582,30.2407 Q115.6514,30.2407 114.3315,28.5889 Q113.0117,26.937 113.0117,23.8159 Q113.0117,20.6865 114.3315,19.0347 Q115.6514,17.3828 118.1582,17.3828 Q118.8638,17.3828 119.5112,17.5322 Q120.1587,17.6816 120.7231,17.9805 L120.7231,20.7031 Q120.0923,20.1221 119.4988,19.8523 Q118.9053,19.5825 118.2744,19.5825 Q116.9297,19.5825 116.2449,20.6492 Q115.5601,21.7158 115.5601,23.8159 Q115.5601,25.9077 116.2449,26.9744 Q116.9297,28.041 118.2744,28.041 Q118.9053,28.041 119.4988,27.7712 Q120.0923,27.5015 120.7231,26.9204 Z "/><text fill="#000000" font-family="sans-serif" font-size="12" lengthAdjust="spacingAndGlyphs" textLength="106" x="138.25" y="28.5352">TestLaneDetection</text><line style="stroke: #A80036; stroke-width: 1.5;" x1="7" x2="343" y1="40" y2="40"/><line style="stroke: #A80036; stroke-width: 1.5;" x1="7" x2="343" y1="48" y2="48"/><ellipse cx="17" cy="59.9775" fill="#84BE84" rx="3" ry="3" style="stroke: #038048; stroke-width: 1.0;"/><text fill="#000000" font-family="sans-serif" font-size="11" lengthAdjust="spacingAndGlyphs" textLength="312" x="26" y="62.6348">detect(Image, String, double, double): LaneDetectionResult</text><ellipse cx="17" cy="72.9326" fill="#84BE84" rx="3" ry="3" style="stroke: #038048; stroke-width: 1.0;"/><text fill="#000000" font-family="sans-serif" font-size="11" lengthAdjust="spacingAndGlyphs" textLength="133" x="26" y="75.5898">testLaneDetection(): void</text><ellipse cx="17" cy="85.8877" fill="#84BE84" rx="3" ry="3" style="stroke: #038048; stroke-width: 1.0;"/><text fill="#000000" font-family="sans-serif" font-size="11" lengthAdjust="spacingAndGlyphs" textLength="228" x="26" y="88.5449">testLaneDetectionWithImageFetcher(): void</text><ellipse cx="17" cy="98.8428" fill="#84BE84" rx="3" ry="3" style="stroke: #038048; stroke-width: 1.0;"/><text fill="#000000" font-family="sans-serif" font-size="11" lengthAdjust="spacingAndGlyphs" textLength="194" x="26" y="101.5">getLaneDetectionTestImage(): Image</text><ellipse cx="17" cy="111.7979" fill="#84BE84" rx="3" ry="3" style="stroke: #038048; stroke-width: 1.0;"/><text fill="#000000" font-family="sans-serif" font-size="11" lengthAdjust="spacingAndGlyphs" textLength="143" x="26" y="114.4551">testLaneOrientation(): void</text><ellipse cx="17" cy="124.7529" fill="#84BE84" rx="3" ry="3" style="stroke: #038048; stroke-width: 1.0;"/><text fill="#000000" font-family="sans-serif" font-size="11" lengthAdjust="spacingAndGlyphs" textLength="103" x="26" y="127.4102">testOptional(): void</text><ellipse cx="17" cy="137.708" fill="#84BE84" rx="3" ry="3" style="stroke: #038048; stroke-width: 1.0;"/><text fill="#000000" font-family="sans-serif" font-size="11" lengthAdjust="spacingAndGlyphs" textLength="98" x="26" y="140.3652">testJackson(): void</text><ellipse cx="17" cy="150.6631" fill="#84BE84" rx="3" ry="3" style="stroke: #038048; stroke-width: 1.0;"/><text fill="#000000" font-family="sans-serif" font-size="11" lengthAdjust="spacingAndGlyphs" textLength="185" x="26" y="153.3203">testDetermineCurrentAngle(): void</text><ellipse cx="17" cy="163.6182" fill="#84BE84" rx="3" ry="3" style="stroke: #038048; stroke-width: 1.0;"/><text fill="#000000" font-family="sans-serif" font-size="11" lengthAdjust="spacingAndGlyphs" textLength="113" x="26" y="166.2754">testDebugInfo(): void</text></a><text fill="#888888" font-family="sans-serif" font-size="10" lengthAdjust="spacingAndGlyphs" textLength="182" x="90" y="192.668">UMLDoclet 1.1.4, PlantUML 1.2019.05</text><!--
@startuml

    class TestLaneDetection [[TestLaneDetection.html]] {
        +detect(Image, String, double, double): LaneDetectionResult
        +testLaneDetection(): void
        +testLaneDetectionWithImageFetcher(): void
        +getLaneDetectionTestImage(): Image
        +testLaneOrientation(): void
        +testOptional(): void
        +testJackson(): void
        +testDetermineCurrentAngle(): void
        +testDebugInfo(): void
    }


    center footer UMLDoclet 1.1.4, PlantUML 1.2019.05
@enduml

PlantUML version 1.2019.05(Sat Apr 20 18:45:36 CEST 2019)
(APACHE source distribution)
Java Runtime: Java(TM) SE Runtime Environment
JVM: Java HotSpot(TM) 64-Bit Server VM
Java Version: 1.8.0_152-b16
Operating System: Mac OS X
OS Version: 10.13.6
Default Encoding: UTF-8
Language: de
Country: DE
--></g></svg>