<?xml version="1.0" encoding="UTF-8" standalone="no"?><svg xmlns="http://www.w3.org/2000/svg" xmlns:xlink="http://www.w3.org/1999/xlink" contentScriptType="application/ecmascript" contentStyleType="text/css" height="326px" preserveAspectRatio="none" style="width:660px;height:326px;" version="1.1" viewBox="0 0 660 326" width="660px" zoomAndPan="magnify"><defs><filter height="300%" id="fezwdy3c3kus5" width="300%" x="-1" y="-1"><feGaussianBlur result="blurOut" stdDeviation="2.0"/><feColorMatrix in="blurOut" result="blurOut2" type="matrix" values="0 0 0 0 0 0 0 0 0 0 0 0 0 0 0 0 0 0 .4 0"/><feOffset dx="4.0" dy="4.0" in="blurOut2" result="blurOut3"/><feBlend in="SourceGraphic" in2="blurOut3" mode="normal"/></filter></defs><g><!--cluster org.rcdukes.remotecar--><polygon fill="#FFFFFF" filter="url(#fezwdy3c3kus5)" points="14,124,178,124,185,146.4883,638,146.4883,638,285,14,285,14,124" style="stroke: #000000; stroke-width: 1.5;"/><line style="stroke: #000000; stroke-width: 1.5;" x1="14" x2="185" y1="146.4883" y2="146.4883"/><text fill="#000000" font-family="sans-serif" font-size="14" font-weight="bold" lengthAdjust="spacingAndGlyphs" textLength="158" x="18" y="139.5352">org.rcdukes.remotecar</text><!--cluster org.rcdukes.common--><polygon fill="#FFFFFF" filter="url(#fezwdy3c3kus5)" points="37,16,191,16,198,38.4883,201,38.4883,201,99,37,99,37,16" style="stroke: #000000; stroke-width: 1.5;"/><line style="stroke: #000000; stroke-width: 1.5;" x1="37" x2="198" y1="38.4883" y2="38.4883"/><text fill="#000000" font-family="sans-serif" font-size="14" font-weight="bold" lengthAdjust="spacingAndGlyphs" textLength="148" x="41" y="31.5352">org.rcdukes.common</text><!--class org.rcdukes.remotecar.TestRemoteCar--><a href="TestRemoteCar.html" target="_top" xlink:actuate="onRequest" xlink:show="new" xlink:title="TestRemoteCar.html" xlink:type="simple"><rect fill="#FEFECE" filter="url(#fezwdy3c3kus5)" height="73.9102" id="org.rcdukes.remotecar.TestRemoteCar" style="stroke: #A80036; stroke-width: 1.5;" width="219" x="410.5" y="177"/><ellipse cx="471.25" cy="193" fill="#ADD1B2" rx="11" ry="11" style="stroke: #A80036; stroke-width: 1.0;"/><path d="M474.2231,198.6431 Q473.6421,198.9419 473.0029,199.0913 Q472.3638,199.2407 471.6582,199.2407 Q469.1514,199.2407 467.8315,197.5889 Q466.5117,195.937 466.5117,192.8159 Q466.5117,189.6865 467.8315,188.0347 Q469.1514,186.3828 471.6582,186.3828 Q472.3638,186.3828 473.0112,186.5322 Q473.6587,186.6816 474.2231,186.9805 L474.2231,189.7031 Q473.5923,189.1221 472.9988,188.8523 Q472.4053,188.5825 471.7744,188.5825 Q470.4297,188.5825 469.7449,189.6492 Q469.0601,190.7158 469.0601,192.8159 Q469.0601,194.9077 469.7449,195.9744 Q470.4297,197.041 471.7744,197.041 Q472.4053,197.041 472.9988,196.7712 Q473.5923,196.5015 474.2231,195.9204 Z "/><text fill="#000000" font-family="sans-serif" font-size="12" lengthAdjust="spacingAndGlyphs" textLength="89" x="491.75" y="197.5352">TestRemoteCar</text><line style="stroke: #A80036; stroke-width: 1.5;" x1="411.5" x2="628.5" y1="209" y2="209"/><line style="stroke: #A80036; stroke-width: 1.5;" x1="411.5" x2="628.5" y1="217" y2="217"/><ellipse cx="421.5" cy="228.9775" fill="#84BE84" rx="3" ry="3" style="stroke: #038048; stroke-width: 1.0;"/><text fill="#000000" font-family="sans-serif" font-size="11" lengthAdjust="spacingAndGlyphs" textLength="116" x="430.5" y="231.6348">testRemoteCar(): void</text><ellipse cx="421.5" cy="241.9326" fill="#84BE84" rx="3" ry="3" style="stroke: #038048; stroke-width: 1.0;"/><text fill="#000000" font-family="sans-serif" font-size="11" lengthAdjust="spacingAndGlyphs" textLength="193" x="430.5" y="244.5898">testRemoteCarCommandLine(): void</text></a><!--class org.rcdukes.remotecar.TestSuite--><a href="TestSuite.html" target="_top" xlink:actuate="onRequest" xlink:show="new" xlink:title="TestSuite.html" xlink:type="simple"><rect fill="#FEFECE" filter="url(#fezwdy3c3kus5)" height="60.9551" id="org.rcdukes.remotecar.TestSuite" style="stroke: #A80036; stroke-width: 1.5;" width="125" x="250.5" y="183.5"/><ellipse cx="283.95" cy="199.5" fill="#ADD1B2" rx="11" ry="11" style="stroke: #A80036; stroke-width: 1.0;"/><path d="M286.9231,205.1431 Q286.3421,205.4419 285.7029,205.5913 Q285.0638,205.7407 284.3582,205.7407 Q281.8514,205.7407 280.5315,204.0889 Q279.2117,202.437 279.2117,199.3159 Q279.2117,196.1865 280.5315,194.5347 Q281.8514,192.8828 284.3582,192.8828 Q285.0638,192.8828 285.7112,193.0322 Q286.3587,193.1816 286.9231,193.4805 L286.9231,196.2031 Q286.2923,195.6221 285.6988,195.3523 Q285.1053,195.0825 284.4744,195.0825 Q283.1297,195.0825 282.4449,196.1492 Q281.7601,197.2158 281.7601,199.3159 Q281.7601,201.4077 282.4449,202.4744 Q283.1297,203.541 284.4744,203.541 Q285.1053,203.541 285.6988,203.2712 Q286.2923,203.0015 286.9231,202.4204 Z "/><text fill="#000000" font-family="sans-serif" font-size="12" lengthAdjust="spacingAndGlyphs" textLength="52" x="302.05" y="204.0352">TestSuite</text><line style="stroke: #A80036; stroke-width: 1.5;" x1="251.5" x2="374.5" y1="215.5" y2="215.5"/><line style="stroke: #A80036; stroke-width: 1.5;" x1="251.5" x2="374.5" y1="223.5" y2="223.5"/><ellipse cx="261.5" cy="235.4775" fill="#84BE84" rx="3" ry="3" style="stroke: #038048; stroke-width: 1.0;"/><text fill="#000000" font-family="sans-serif" font-size="11" lengthAdjust="spacingAndGlyphs" text-decoration="underline" textLength="99" x="270.5" y="238.1348">isTravis(): boolean</text></a><!--class org.rcdukes.remotecar.RemoteCar--><a href="RemoteCar.html" target="_top" xlink:actuate="onRequest" xlink:show="new" xlink:title="RemoteCar.html" xlink:type="simple"><rect fill="#FEFECE" filter="url(#fezwdy3c3kus5)" height="125.7305" id="org.rcdukes.remotecar.RemoteCar" style="stroke: #A80036; stroke-width: 1.5;" width="193" x="22.5" y="151"/><ellipse cx="82.75" cy="167" fill="#ADD1B2" rx="11" ry="11" style="stroke: #A80036; stroke-width: 1.0;"/><path d="M85.7231,172.6431 Q85.1421,172.9419 84.5029,173.0913 Q83.8638,173.2407 83.1582,173.2407 Q80.6514,173.2407 79.3315,171.5889 Q78.0117,169.937 78.0117,166.8159 Q78.0117,163.6865 79.3315,162.0347 Q80.6514,160.3828 83.1582,160.3828 Q83.8638,160.3828 84.5112,160.5322 Q85.1587,160.6816 85.7231,160.9805 L85.7231,163.7031 Q85.0923,163.1221 84.4988,162.8523 Q83.9053,162.5825 83.2744,162.5825 Q81.9297,162.5825 81.2449,163.6492 Q80.5601,164.7158 80.5601,166.8159 Q80.5601,168.9077 81.2449,169.9744 Q81.9297,171.041 83.2744,171.041 Q83.9053,171.041 84.4988,170.7712 Q85.0923,170.5015 85.7231,169.9204 Z "/><text fill="#000000" font-family="sans-serif" font-size="12" lengthAdjust="spacingAndGlyphs" textLength="64" x="103.25" y="171.5352">RemoteCar</text><line style="stroke: #A80036; stroke-width: 1.5;" x1="23.5" x2="214.5" y1="183" y2="183"/><polygon fill="none" points="33.5,189.9775,37.5,193.9775,33.5,197.9775,29.5,193.9775" style="stroke: #B38D22; stroke-width: 1.0;"/><text fill="#000000" font-family="sans-serif" font-size="11" lengthAdjust="spacingAndGlyphs" textLength="122" x="42.5" y="197.6348">parser: CmdLineParser</text><polygon fill="none" points="33.5,202.9326,37.5,206.9326,33.5,210.9326,29.5,206.9326" style="stroke: #B38D22; stroke-width: 1.0;"/><text fill="#000000" font-family="sans-serif" font-size="11" lengthAdjust="spacingAndGlyphs" textLength="83" x="42.5" y="210.5898">debug: boolean</text><line style="stroke: #A80036; stroke-width: 1.5;" x1="23.5" x2="214.5" y1="216.9102" y2="216.9102"/><ellipse cx="33.5" cy="228.8877" fill="#84BE84" rx="3" ry="3" style="stroke: #038048; stroke-width: 1.0;"/><text fill="#000000" font-family="sans-serif" font-size="11" lengthAdjust="spacingAndGlyphs" textLength="62" x="42.5" y="231.5449">start(): void</text><ellipse cx="33.5" cy="241.8428" fill="#84BE84" rx="3" ry="3" style="stroke: #038048; stroke-width: 1.0;"/><text fill="#000000" font-family="sans-serif" font-size="11" lengthAdjust="spacingAndGlyphs" textLength="167" x="42.5" y="244.5">parseArguments(String[]): void</text><ellipse cx="33.5" cy="254.7979" fill="#84BE84" rx="3" ry="3" style="stroke: #038048; stroke-width: 1.0;"/><text fill="#000000" font-family="sans-serif" font-size="11" lengthAdjust="spacingAndGlyphs" textLength="148" x="42.5" y="257.4551">mainInstance(String[]): void</text><ellipse cx="33.5" cy="267.7529" fill="#84BE84" rx="3" ry="3" style="stroke: #038048; stroke-width: 1.0;"/><text fill="#000000" font-family="sans-serif" font-size="11" lengthAdjust="spacingAndGlyphs" text-decoration="underline" textLength="103" x="42.5" y="270.4102">main(String[]): void</text></a><!--class org.rcdukes.common.DukesVerticle--><rect fill="#FEFECE" filter="url(#fezwdy3c3kus5)" height="48" id="org.rcdukes.common.DukesVerticle" style="stroke: #A80036; stroke-width: 1.5;" width="111" x="63.5" y="43"/><ellipse cx="78.5" cy="59" fill="#A9DCDF" rx="11" ry="11" style="stroke: #A80036; stroke-width: 1.0;"/><path d="M78.6133,54.3481 L77.4595,59.4199 L79.7754,59.4199 Z M77.1191,52.1069 L80.1157,52.1069 L83.4609,64.5 L81.0122,64.5 L80.2485,61.437 L76.9697,61.437 L76.2227,64.5 L73.7739,64.5 Z "/><text fill="#000000" font-family="sans-serif" font-size="12" font-style="italic" lengthAdjust="spacingAndGlyphs" textLength="79" x="92.5" y="63.5352">DukesVerticle</text><line style="stroke: #A80036; stroke-width: 1.5;" x1="64.5" x2="173.5" y1="75" y2="75"/><line style="stroke: #A80036; stroke-width: 1.5;" x1="64.5" x2="173.5" y1="83" y2="83"/><!--link org.rcdukes.common.DukesVerticle to org.rcdukes.remotecar.RemoteCar--><path d="M119,111.3059 C119,123.7967 119,137.6307 119,150.9924 " fill="none" id="org.rcdukes.common.DukesVerticle-org.rcdukes.remotecar.RemoteCar" style="stroke: #A80036; stroke-width: 1.0;"/><polygon fill="none" points="112.0001,111.2741,119,91.2741,126.0001,111.274,112.0001,111.2741" style="stroke: #A80036; stroke-width: 1.0;"/><text fill="#888888" font-family="sans-serif" font-size="10" lengthAdjust="spacingAndGlyphs" textLength="182" x="241" y="312.668">UMLDoclet 1.1.4, PlantUML 1.2019.05</text><!--
@startuml

    namespace org.rcdukes.remotecar {

        class TestRemoteCar [[TestRemoteCar.html]] {
            +testRemoteCar(): void
            +testRemoteCarCommandLine(): void
        }

        class TestSuite [[TestSuite.html]] {
            {static} +isTravis(): boolean
        }

        class RemoteCar [[RemoteCar.html]] {
            #parser: CmdLineParser
            #debug: boolean
            +start(): void
            +parseArguments(String[]): void
            +mainInstance(String[]): void
            {static} +main(String[]): void
        }

        abstract class org.rcdukes.common.DukesVerticle
        org.rcdukes.common.DukesVerticle <|- - RemoteCar

    }


    center footer UMLDoclet 1.1.4, PlantUML 1.2019.05
@enduml

PlantUML version 1.2019.05(Sat Apr 20 18:45:36 CEST 2019)
(APACHE source distribution)
Java Runtime: Java(TM) SE Runtime Environment
JVM: Java HotSpot(TM) 64-Bit Server VM
Java Version: 1.8.0_152-b16
Operating System: Mac OS X
OS Version: 10.13.6
Default Encoding: UTF-8
Language: de
Country: DE
--></g></svg>