<?xml version="1.0" encoding="UTF-8" standalone="no"?><svg xmlns="http://www.w3.org/2000/svg" xmlns:xlink="http://www.w3.org/1999/xlink" contentScriptType="application/ecmascript" contentStyleType="text/css" height="943px" preserveAspectRatio="none" style="width:712px;height:943px;" version="1.1" viewBox="0 0 712 943" width="712px" zoomAndPan="magnify"><defs><filter height="300%" id="f162b9aq4s6p7i" width="300%" x="-1" y="-1"><feGaussianBlur result="blurOut" stdDeviation="2.0"/><feColorMatrix in="blurOut" result="blurOut2" type="matrix" values="0 0 0 0 0 0 0 0 0 0 0 0 0 0 0 0 0 0 .4 0"/><feOffset dx="4.0" dy="4.0" in="blurOut2" result="blurOut3"/><feBlend in="SourceGraphic" in2="blurOut3" mode="normal"/></filter></defs><g><!--cluster org.rcdukes.drivecontrol--><polygon fill="#FFFFFF" filter="url(#f162b9aq4s6p7i)" points="111,215,290,215,297,237.4883,646,237.4883,646,902,111,902,111,215" style="stroke: #000000; stroke-width: 1.5;"/><line style="stroke: #000000; stroke-width: 1.5;" x1="111" x2="297" y1="237.4883" y2="237.4883"/><text fill="#000000" font-family="sans-serif" font-size="14" font-weight="bold" lengthAdjust="spacingAndGlyphs" textLength="173" x="115" y="230.5352">org.rcdukes.drivecontrol</text><!--cluster org.rcdukes.car--><polygon fill="#FFFFFF" filter="url(#f162b9aq4s6p7i)" points="14,16,127,16,134,38.4883,646,38.4883,646,190,14,190,14,16" style="stroke: #000000; stroke-width: 1.5;"/><line style="stroke: #000000; stroke-width: 1.5;" x1="14" x2="134" y1="38.4883" y2="38.4883"/><text fill="#000000" font-family="sans-serif" font-size="14" font-weight="bold" lengthAdjust="spacingAndGlyphs" textLength="107" x="18" y="31.5352">org.rcdukes.car</text><!--class org.rcdukes.drivecontrol.Car--><a href="Car.html" target="_top" xlink:actuate="onRequest" xlink:show="new" xlink:title="Car.html" xlink:type="simple"><rect fill="#FEFECE" filter="url(#f162b9aq4s6p7i)" height="216.416" id="org.rcdukes.drivecontrol.Car" style="stroke: #A80036; stroke-width: 1.5;" width="226" x="412" y="242"/><ellipse cx="510.75" cy="258" fill="#ADD1B2" rx="11" ry="11" style="stroke: #A80036; stroke-width: 1.0;"/><path d="M513.7231,263.6431 Q513.1421,263.9419 512.5029,264.0913 Q511.8638,264.2407 511.1582,264.2407 Q508.6514,264.2407 507.3315,262.5889 Q506.0117,260.937 506.0117,257.8159 Q506.0117,254.6865 507.3315,253.0347 Q508.6514,251.3828 511.1582,251.3828 Q511.8638,251.3828 512.5112,251.5322 Q513.1587,251.6816 513.7231,251.9805 L513.7231,254.7031 Q513.0923,254.1221 512.4988,253.8523 Q511.9053,253.5825 511.2744,253.5825 Q509.9297,253.5825 509.2449,254.6492 Q508.5601,255.7158 508.5601,257.8159 Q508.5601,259.9077 509.2449,260.9744 Q509.9297,262.041 511.2744,262.041 Q511.9053,262.041 512.4988,261.7712 Q513.0923,261.5015 513.7231,260.9204 Z "/><text fill="#000000" font-family="sans-serif" font-size="12" lengthAdjust="spacingAndGlyphs" textLength="20" x="531.25" y="262.5352">Car</text><line style="stroke: #A80036; stroke-width: 1.5;" x1="413" x2="637" y1="274" y2="274"/><ellipse cx="423" cy="285.9775" fill="none" rx="3" ry="3" style="stroke: #038048; stroke-width: 1.0;"/><text fill="#000000" font-family="sans-serif" font-size="11" lengthAdjust="spacingAndGlyphs" text-decoration="underline" textLength="176" x="432" y="288.6348">servoCommand: ServoCommand</text><line style="stroke: #A80036; stroke-width: 1.5;" x1="413" x2="637" y1="294.9551" y2="294.9551"/><ellipse cx="423" cy="306.9326" fill="#84BE84" rx="3" ry="3" style="stroke: #038048; stroke-width: 1.0;"/><text fill="#000000" font-family="sans-serif" font-size="11" lengthAdjust="spacingAndGlyphs" textLength="200" x="432" y="309.5898">configure(Engine, Steering, Led): void</text><ellipse cx="423" cy="319.8877" fill="#84BE84" rx="3" ry="3" style="stroke: #038048; stroke-width: 1.0;"/><text fill="#000000" font-family="sans-serif" font-size="11" lengthAdjust="spacingAndGlyphs" textLength="101" x="432" y="322.5449">setPowerOn(): void</text><ellipse cx="423" cy="332.8428" fill="#84BE84" rx="3" ry="3" style="stroke: #038048; stroke-width: 1.0;"/><text fill="#000000" font-family="sans-serif" font-size="11" lengthAdjust="spacingAndGlyphs" textLength="102" x="432" y="335.5">setPowerOff(): void</text><ellipse cx="423" cy="345.7979" fill="#84BE84" rx="3" ry="3" style="stroke: #038048; stroke-width: 1.0;"/><text fill="#000000" font-family="sans-serif" font-size="11" lengthAdjust="spacingAndGlyphs" textLength="115" x="432" y="348.4551">powerIsOn(): boolean</text><ellipse cx="423" cy="358.7529" fill="#84BE84" rx="3" ry="3" style="stroke: #038048; stroke-width: 1.0;"/><text fill="#000000" font-family="sans-serif" font-size="11" lengthAdjust="spacingAndGlyphs" textLength="61" x="432" y="361.4102">stop(): void</text><ellipse cx="423" cy="371.708" fill="#84BE84" rx="3" ry="3" style="stroke: #038048; stroke-width: 1.0;"/><text fill="#000000" font-family="sans-serif" font-size="11" lengthAdjust="spacingAndGlyphs" textLength="133" x="432" y="374.3652">turn(ServoPosition): void</text><ellipse cx="423" cy="384.6631" fill="#84BE84" rx="3" ry="3" style="stroke: #038048; stroke-width: 1.0;"/><text fill="#000000" font-family="sans-serif" font-size="11" lengthAdjust="spacingAndGlyphs" textLength="137" x="432" y="387.3203">drive(ServoPosition): void</text><ellipse cx="423" cy="397.6182" fill="#84BE84" rx="3" ry="3" style="stroke: #038048; stroke-width: 1.0;"/><text fill="#000000" font-family="sans-serif" font-size="11" lengthAdjust="spacingAndGlyphs" textLength="103" x="432" y="400.2754">getEngine(): Engine</text><ellipse cx="423" cy="410.5732" fill="#84BE84" rx="3" ry="3" style="stroke: #038048; stroke-width: 1.0;"/><text fill="#000000" font-family="sans-serif" font-size="11" lengthAdjust="spacingAndGlyphs" textLength="119" x="432" y="413.2305">getSteering(): Steering</text><ellipse cx="423" cy="423.5283" fill="#84BE84" rx="3" ry="3" style="stroke: #038048; stroke-width: 1.0;"/><text fill="#000000" font-family="sans-serif" font-size="11" lengthAdjust="spacingAndGlyphs" textLength="69" x="432" y="426.1855">getLed(): Led</text><ellipse cx="423" cy="436.4834" fill="#84BE84" rx="3" ry="3" style="stroke: #038048; stroke-width: 1.0;"/><text fill="#000000" font-family="sans-serif" font-size="11" lengthAdjust="spacingAndGlyphs" text-decoration="underline" textLength="95" x="432" y="439.1406">getInstance(): Car</text><ellipse cx="423" cy="449.4385" fill="#84BE84" rx="3" ry="3" style="stroke: #038048; stroke-width: 1.0;"/><text fill="#000000" font-family="sans-serif" font-size="11" lengthAdjust="spacingAndGlyphs" text-decoration="underline" textLength="109" x="432" y="452.0957">resetInstance(): void</text></a><!--class org.rcdukes.drivecontrol.EngineMap--><a href="EngineMap.html" target="_top" xlink:actuate="onRequest" xlink:show="new" xlink:title="EngineMap.html" xlink:type="simple"><rect fill="#FEFECE" filter="url(#f162b9aq4s6p7i)" height="60.9551" id="org.rcdukes.drivecontrol.EngineMap" style="stroke: #A80036; stroke-width: 1.5;" width="177" x="211.5" y="833"/><ellipse cx="264.25" cy="849" fill="#ADD1B2" rx="11" ry="11" style="stroke: #A80036; stroke-width: 1.0;"/><path d="M267.2231,854.6431 Q266.6421,854.9419 266.0029,855.0913 Q265.3638,855.2407 264.6582,855.2407 Q262.1514,855.2407 260.8315,853.5889 Q259.5117,851.937 259.5117,848.8159 Q259.5117,845.6865 260.8315,844.0347 Q262.1514,842.3828 264.6582,842.3828 Q265.3638,842.3828 266.0112,842.5322 Q266.6587,842.6816 267.2231,842.9805 L267.2231,845.7031 Q266.5923,845.1221 265.9988,844.8523 Q265.4053,844.5825 264.7744,844.5825 Q263.4297,844.5825 262.7449,845.6492 Q262.0601,846.7158 262.0601,848.8159 Q262.0601,850.9077 262.7449,851.9744 Q263.4297,853.041 264.7744,853.041 Q265.4053,853.041 265.9988,852.7712 Q266.5923,852.5015 267.2231,851.9204 Z "/><text fill="#000000" font-family="sans-serif" font-size="12" lengthAdjust="spacingAndGlyphs" textLength="63" x="284.75" y="853.5352">EngineMap</text><line style="stroke: #A80036; stroke-width: 1.5;" x1="212.5" x2="387.5" y1="865" y2="865"/><line style="stroke: #A80036; stroke-width: 1.5;" x1="212.5" x2="387.5" y1="873" y2="873"/><ellipse cx="222.5" cy="884.9775" fill="#84BE84" rx="3" ry="3" style="stroke: #038048; stroke-width: 1.0;"/><text fill="#000000" font-family="sans-serif" font-size="11" lengthAdjust="spacingAndGlyphs" textLength="151" x="231.5" y="887.6348">EngineMap(ServoCommand)</text></a><!--class org.rcdukes.drivecontrol.LedMap--><a href="LedMap.html" target="_top" xlink:actuate="onRequest" xlink:show="new" xlink:title="LedMap.html" xlink:type="simple"><rect fill="#FEFECE" filter="url(#f162b9aq4s6p7i)" height="99.8203" id="org.rcdukes.drivecontrol.LedMap" style="stroke: #A80036; stroke-width: 1.5;" width="176" x="127" y="595.5"/><ellipse cx="187.75" cy="611.5" fill="#ADD1B2" rx="11" ry="11" style="stroke: #A80036; stroke-width: 1.0;"/><path d="M190.7231,617.1431 Q190.1421,617.4419 189.5029,617.5913 Q188.8638,617.7407 188.1582,617.7407 Q185.6514,617.7407 184.3315,616.0889 Q183.0117,614.437 183.0117,611.3159 Q183.0117,608.1865 184.3315,606.5347 Q185.6514,604.8828 188.1582,604.8828 Q188.8638,604.8828 189.5112,605.0322 Q190.1587,605.1816 190.7231,605.4805 L190.7231,608.2031 Q190.0923,607.6221 189.4988,607.3523 Q188.9053,607.0825 188.2744,607.0825 Q186.9297,607.0825 186.2449,608.1492 Q185.5601,609.2158 185.5601,611.3159 Q185.5601,613.4077 186.2449,614.4744 Q186.9297,615.541 188.2744,615.541 Q188.9053,615.541 189.4988,615.2712 Q190.0923,615.0015 190.7231,614.4204 Z "/><text fill="#000000" font-family="sans-serif" font-size="12" lengthAdjust="spacingAndGlyphs" textLength="46" x="208.25" y="616.0352">LedMap</text><line style="stroke: #A80036; stroke-width: 1.5;" x1="128" x2="302" y1="627.5" y2="627.5"/><line style="stroke: #A80036; stroke-width: 1.5;" x1="128" x2="302" y1="635.5" y2="635.5"/><ellipse cx="138" cy="647.4775" fill="#84BE84" rx="3" ry="3" style="stroke: #038048; stroke-width: 1.0;"/><text fill="#000000" font-family="sans-serif" font-size="11" lengthAdjust="spacingAndGlyphs" textLength="134" x="147" y="650.1348">LedMap(ServoCommand)</text><ellipse cx="138" cy="660.4326" fill="#84BE84" rx="3" ry="3" style="stroke: #038048; stroke-width: 1.0;"/><text fill="#000000" font-family="sans-serif" font-size="11" lengthAdjust="spacingAndGlyphs" textLength="61" x="147" y="663.0898">ledOff(): int</text><ellipse cx="138" cy="673.3877" fill="#84BE84" rx="3" ry="3" style="stroke: #038048; stroke-width: 1.0;"/><text fill="#000000" font-family="sans-serif" font-size="11" lengthAdjust="spacingAndGlyphs" textLength="60" x="147" y="676.0449">ledOn(): int</text><ellipse cx="138" cy="686.3428" fill="#84BE84" rx="3" ry="3" style="stroke: #038048; stroke-width: 1.0;"/><text fill="#000000" font-family="sans-serif" font-size="11" lengthAdjust="spacingAndGlyphs" textLength="150" x="147" y="689">configureOrientation(): void</text></a><!--class org.rcdukes.drivecontrol.ServoMap--><a href="ServoMap.html" target="_top" xlink:actuate="onRequest" xlink:show="new" xlink:title="ServoMap.html" xlink:type="simple"><rect fill="#FEFECE" filter="url(#f162b9aq4s6p7i)" height="190.5059" id="org.rcdukes.drivecontrol.ServoMap" style="stroke: #A80036; stroke-width: 1.5;" width="258" x="119" y="254.5"/><ellipse cx="215.75" cy="270.5" fill="#A9DCDF" rx="11" ry="11" style="stroke: #A80036; stroke-width: 1.0;"/><path d="M215.8633,265.8481 L214.7095,270.9199 L217.0254,270.9199 Z M214.3691,263.6069 L217.3657,263.6069 L220.7109,276 L218.2622,276 L217.4985,272.937 L214.2197,272.937 L213.4727,276 L211.0239,276 Z "/><text fill="#000000" font-family="sans-serif" font-size="12" font-style="italic" lengthAdjust="spacingAndGlyphs" textLength="56" x="236.25" y="275.0352">ServoMap</text><line style="stroke: #A80036; stroke-width: 1.5;" x1="120" x2="376" y1="286.5" y2="286.5"/><polygon fill="none" points="130,293.4775,134,297.4775,130,301.4775,126,297.4775" style="stroke: #B38D22; stroke-width: 1.0;"/><text fill="#000000" font-family="sans-serif" font-size="11" lengthAdjust="spacingAndGlyphs" text-decoration="underline" textLength="67" x="139" y="301.1348">LOG: Logger</text><polygon fill="none" points="130,306.4326,134,310.4326,130,314.4326,126,310.4326" style="stroke: #B38D22; stroke-width: 1.0;"/><text fill="#000000" font-family="sans-serif" font-size="11" lengthAdjust="spacingAndGlyphs" textLength="176" x="139" y="314.0898">servoCommand: ServoCommand</text><polygon fill="none" points="130,319.3877,134,323.3877,130,327.3877,126,323.3877" style="stroke: #B38D22; stroke-width: 1.0;"/><text fill="#000000" font-family="sans-serif" font-size="11" lengthAdjust="spacingAndGlyphs" textLength="60" x="139" y="327.0449">gpioPin: int</text><polygon fill="none" points="130,332.3428,134,336.3428,130,340.3428,126,336.3428" style="stroke: #B38D22; stroke-width: 1.0;"/><text fill="#000000" font-family="sans-serif" font-size="11" lengthAdjust="spacingAndGlyphs" textLength="146" x="139" y="340">turnedOrientation: boolean</text><line style="stroke: #A80036; stroke-width: 1.5;" x1="120" x2="376" y1="346.3203" y2="346.3203"/><ellipse cx="130" cy="358.2979" fill="#84BE84" rx="3" ry="3" style="stroke: #038048; stroke-width: 1.0;"/><text fill="#000000" font-family="sans-serif" font-size="11" lengthAdjust="spacingAndGlyphs" textLength="189" x="139" y="360.9551">getCurrentPosition(): ServoPosition</text><ellipse cx="130" cy="371.2529" fill="#84BE84" rx="3" ry="3" style="stroke: #038048; stroke-width: 1.0;"/><text fill="#000000" font-family="sans-serif" font-size="11" lengthAdjust="spacingAndGlyphs" textLength="211" x="139" y="373.9102">setCurrentPosition(ServoPosition): void</text><ellipse cx="130" cy="384.208" fill="#84BE84" rx="3" ry="3" style="stroke: #038048; stroke-width: 1.0;"/><text fill="#000000" font-family="sans-serif" font-size="11" lengthAdjust="spacingAndGlyphs" textLength="224" x="139" y="386.8652">newPosition(ServoPosition): ServoPosition</text><ellipse cx="130" cy="397.1631" fill="#84BE84" rx="3" ry="3" style="stroke: #038048; stroke-width: 1.0;"/><text fill="#000000" font-family="sans-serif" font-size="11" lengthAdjust="spacingAndGlyphs" textLength="68" x="139" y="399.8203">gpioPin(): int</text><ellipse cx="130" cy="410.1182" fill="#84BE84" rx="3" ry="3" style="stroke: #038048; stroke-width: 1.0;"/><text fill="#000000" font-family="sans-serif" font-size="11" lengthAdjust="spacingAndGlyphs" textLength="184" x="139" y="412.7754">servoCommand(): ServoCommand</text><ellipse cx="130" cy="423.0732" fill="#84BE84" rx="3" ry="3" style="stroke: #038048; stroke-width: 1.0;"/><text fill="#000000" font-family="sans-serif" font-size="11" lengthAdjust="spacingAndGlyphs" textLength="232" x="139" y="425.7305">configure(int, ServoCommand, String): void</text><ellipse cx="130" cy="436.0283" fill="#84BE84" rx="3" ry="3" style="stroke: #038048; stroke-width: 1.0;"/><text fill="#000000" font-family="sans-serif" font-size="11" lengthAdjust="spacingAndGlyphs" textLength="154" x="139" y="438.6855">turnedOrientation(): boolean</text></a><!--class org.rcdukes.drivecontrol.SteeringMap--><a href="SteeringMap.html" target="_top" xlink:actuate="onRequest" xlink:show="new" xlink:title="SteeringMap.html" xlink:type="simple"><rect fill="#FEFECE" filter="url(#f162b9aq4s6p7i)" height="60.9551" id="org.rcdukes.drivecontrol.SteeringMap" style="stroke: #A80036; stroke-width: 1.5;" width="185" x="423.5" y="833"/><ellipse cx="476.25" cy="849" fill="#ADD1B2" rx="11" ry="11" style="stroke: #A80036; stroke-width: 1.0;"/><path d="M479.2231,854.6431 Q478.6421,854.9419 478.0029,855.0913 Q477.3638,855.2407 476.6582,855.2407 Q474.1514,855.2407 472.8315,853.5889 Q471.5117,851.937 471.5117,848.8159 Q471.5117,845.6865 472.8315,844.0347 Q474.1514,842.3828 476.6582,842.3828 Q477.3638,842.3828 478.0112,842.5322 Q478.6587,842.6816 479.2231,842.9805 L479.2231,845.7031 Q478.5923,845.1221 477.9988,844.8523 Q477.4053,844.5825 476.7744,844.5825 Q475.4297,844.5825 474.7449,845.6492 Q474.0601,846.7158 474.0601,848.8159 Q474.0601,850.9077 474.7449,851.9744 Q475.4297,853.041 476.7744,853.041 Q477.4053,853.041 477.9988,852.7712 Q478.5923,852.5015 479.2231,851.9204 Z "/><text fill="#000000" font-family="sans-serif" font-size="12" lengthAdjust="spacingAndGlyphs" textLength="71" x="496.75" y="853.5352">SteeringMap</text><line style="stroke: #A80036; stroke-width: 1.5;" x1="424.5" x2="607.5" y1="865" y2="865"/><line style="stroke: #A80036; stroke-width: 1.5;" x1="424.5" x2="607.5" y1="873" y2="873"/><ellipse cx="434.5" cy="884.9775" fill="#84BE84" rx="3" ry="3" style="stroke: #038048; stroke-width: 1.0;"/><text fill="#000000" font-family="sans-serif" font-size="11" lengthAdjust="spacingAndGlyphs" textLength="159" x="443.5" y="887.6348">SteeringMap(ServoCommand)</text></a><!--class org.rcdukes.drivecontrol.ServoRangeMap--><a href="ServoRangeMap.html" target="_top" xlink:actuate="onRequest" xlink:show="new" xlink:title="ServoRangeMap.html" xlink:type="simple"><rect fill="#FEFECE" filter="url(#f162b9aq4s6p7i)" height="255.2813" id="org.rcdukes.drivecontrol.ServoRangeMap" style="stroke: #A80036; stroke-width: 1.5;" width="292" x="342" y="518"/><ellipse cx="437.75" cy="534" fill="#A9DCDF" rx="11" ry="11" style="stroke: #A80036; stroke-width: 1.0;"/><path d="M437.8633,529.3481 L436.7095,534.4199 L439.0254,534.4199 Z M436.3691,527.1069 L439.3657,527.1069 L442.7109,539.5 L440.2622,539.5 L439.4985,536.437 L436.2197,536.437 L435.4727,539.5 L433.0239,539.5 Z "/><text fill="#000000" font-family="sans-serif" font-size="12" font-style="italic" lengthAdjust="spacingAndGlyphs" textLength="92" x="458.25" y="538.5352">ServoRangeMap</text><line style="stroke: #A80036; stroke-width: 1.5;" x1="343" x2="633" y1="550" y2="550"/><line style="stroke: #A80036; stroke-width: 1.5;" x1="343" x2="633" y1="558" y2="558"/><ellipse cx="353" cy="569.9775" fill="#84BE84" rx="3" ry="3" style="stroke: #038048; stroke-width: 1.0;"/><text fill="#000000" font-family="sans-serif" font-size="11" lengthAdjust="spacingAndGlyphs" textLength="127" x="362" y="572.6348">getRange(): ServoRange</text><ellipse cx="353" cy="582.9326" fill="#84BE84" rx="3" ry="3" style="stroke: #038048; stroke-width: 1.0;"/><text fill="#000000" font-family="sans-serif" font-size="11" lengthAdjust="spacingAndGlyphs" textLength="149" x="362" y="585.5898">setRange(ServoRange): void</text><ellipse cx="353" cy="595.8877" fill="#84BE84" rx="3" ry="3" style="stroke: #038048; stroke-width: 1.0;"/><text fill="#000000" font-family="sans-serif" font-size="11" lengthAdjust="spacingAndGlyphs" textLength="85" x="362" y="598.5449">getUnit(): String</text><ellipse cx="353" cy="608.8428" fill="#84BE84" rx="3" ry="3" style="stroke: #038048; stroke-width: 1.0;"/><text fill="#000000" font-family="sans-serif" font-size="11" lengthAdjust="spacingAndGlyphs" textLength="107" x="362" y="611.5">setUnit(String): void</text><ellipse cx="353" cy="621.7979" fill="#84BE84" rx="3" ry="3" style="stroke: #038048; stroke-width: 1.0;"/><text fill="#000000" font-family="sans-serif" font-size="11" lengthAdjust="spacingAndGlyphs" textLength="93" x="362" y="624.4551">getName(): String</text><ellipse cx="353" cy="634.7529" fill="#84BE84" rx="3" ry="3" style="stroke: #038048; stroke-width: 1.0;"/><text fill="#000000" font-family="sans-serif" font-size="11" lengthAdjust="spacingAndGlyphs" textLength="115" x="362" y="637.4102">setName(String): void</text><ellipse cx="353" cy="647.708" fill="#84BE84" rx="3" ry="3" style="stroke: #038048; stroke-width: 1.0;"/><text fill="#000000" font-family="sans-serif" font-size="11" lengthAdjust="spacingAndGlyphs" textLength="174" x="362" y="650.3652">atPercent(double): ServoPosition</text><ellipse cx="353" cy="660.6631" fill="#84BE84" rx="3" ry="3" style="stroke: #038048; stroke-width: 1.0;"/><text fill="#000000" font-family="sans-serif" font-size="11" lengthAdjust="spacingAndGlyphs" textLength="163" x="362" y="663.3203">atValue(double): ServoPosition</text><ellipse cx="353" cy="673.6182" fill="#84BE84" rx="3" ry="3" style="stroke: #038048; stroke-width: 1.0;"/><text fill="#000000" font-family="sans-serif" font-size="11" lengthAdjust="spacingAndGlyphs" textLength="74" x="362" y="676.2754">step(int): void</text><ellipse cx="353" cy="686.5732" fill="#84BE84" rx="3" ry="3" style="stroke: #038048; stroke-width: 1.0;"/><text fill="#000000" font-family="sans-serif" font-size="11" lengthAdjust="spacingAndGlyphs" textLength="224" x="362" y="689.2305">newPosition(ServoPosition): ServoPosition</text><ellipse cx="353" cy="699.5283" fill="#84BE84" rx="3" ry="3" style="stroke: #038048; stroke-width: 1.0;"/><text fill="#000000" font-family="sans-serif" font-size="11" lengthAdjust="spacingAndGlyphs" textLength="78" x="362" y="702.1855">setZero(): void</text><ellipse cx="353" cy="712.4834" fill="#84BE84" rx="3" ry="3" style="stroke: #038048; stroke-width: 1.0;"/><text fill="#000000" font-family="sans-serif" font-size="11" lengthAdjust="spacingAndGlyphs" textLength="111" x="362" y="715.1406">positionInfo(): String</text><polygon fill="#FFFF44" points="353,720.4385,357,724.4385,353,728.4385,349,724.4385" style="stroke: #B38D22; stroke-width: 1.0;"/><text fill="#000000" font-family="sans-serif" font-size="11" lengthAdjust="spacingAndGlyphs" textLength="266" x="362" y="728.0957">assertGreater(double, double, String, String): void</text><polygon fill="#FFFF44" points="353,733.3936,357,737.3936,353,741.3936,349,737.3936" style="stroke: #B38D22; stroke-width: 1.0;"/><text fill="#000000" font-family="sans-serif" font-size="11" lengthAdjust="spacingAndGlyphs" textLength="142" x="362" y="741.0508">checkSide(ServoSide): void</text><polygon fill="#FFFF44" points="353,746.3486,357,750.3486,353,754.3486,349,750.3486" style="stroke: #B38D22; stroke-width: 1.0;"/><text fill="#000000" font-family="sans-serif" font-size="11" lengthAdjust="spacingAndGlyphs" textLength="68" x="362" y="754.0059">check(): void</text><ellipse cx="353" cy="764.3037" fill="#84BE84" rx="3" ry="3" style="stroke: #038048; stroke-width: 1.0;"/><text fill="#000000" font-family="sans-serif" font-size="11" lengthAdjust="spacingAndGlyphs" textLength="150" x="362" y="766.9609">configureOrientation(): void</text></a><!--class org.rcdukes.car.LedMap--><rect fill="#FEFECE" filter="url(#f162b9aq4s6p7i)" height="73.9102" id="org.rcdukes.car.LedMap" style="stroke: #A80036; stroke-width: 1.5;" width="87" x="22.5" y="75.5"/><ellipse cx="41.55" cy="91.5" fill="#B4A7E5" rx="11" ry="11" style="stroke: #A80036; stroke-width: 1.0;"/><path d="M37.4777,87.2651 L37.4777,85.1069 L44.8571,85.1069 L44.8571,87.2651 L42.3918,87.2651 L42.3918,95.3418 L44.8571,95.3418 L44.8571,97.5 L37.4777,97.5 L37.4777,95.3418 L39.9431,95.3418 L39.9431,87.2651 Z "/><text fill="#000000" font-family="sans-serif" font-size="12" font-style="italic" lengthAdjust="spacingAndGlyphs" textLength="46" x="56.45" y="96.0352">LedMap</text><line style="stroke: #A80036; stroke-width: 1.5;" x1="23.5" x2="108.5" y1="107.5" y2="107.5"/><line style="stroke: #A80036; stroke-width: 1.5;" x1="23.5" x2="108.5" y1="115.5" y2="115.5"/><ellipse cx="33.5" cy="127.4775" fill="#84BE84" rx="3" ry="3" style="stroke: #038048; stroke-width: 1.0;"/><text fill="#000000" font-family="sans-serif" font-size="11" font-style="italic" lengthAdjust="spacingAndGlyphs" textLength="61" x="42.5" y="130.1348">ledOff(): int</text><ellipse cx="33.5" cy="140.4326" fill="#84BE84" rx="3" ry="3" style="stroke: #038048; stroke-width: 1.0;"/><text fill="#000000" font-family="sans-serif" font-size="11" font-style="italic" lengthAdjust="spacingAndGlyphs" textLength="60" x="42.5" y="143.0898">ledOn(): int</text><!--class org.rcdukes.car.ServoMap--><rect fill="#FEFECE" filter="url(#f162b9aq4s6p7i)" height="138.6855" id="org.rcdukes.car.ServoMap" style="stroke: #A80036; stroke-width: 1.5;" width="258" x="145" y="43"/><ellipse cx="241.75" cy="59" fill="#B4A7E5" rx="11" ry="11" style="stroke: #A80036; stroke-width: 1.0;"/><path d="M237.6777,54.7651 L237.6777,52.6069 L245.0571,52.6069 L245.0571,54.7651 L242.5918,54.7651 L242.5918,62.8418 L245.0571,62.8418 L245.0571,65 L237.6777,65 L237.6777,62.8418 L240.1431,62.8418 L240.1431,54.7651 Z "/><text fill="#000000" font-family="sans-serif" font-size="12" font-style="italic" lengthAdjust="spacingAndGlyphs" textLength="56" x="262.25" y="63.5352">ServoMap</text><line style="stroke: #A80036; stroke-width: 1.5;" x1="146" x2="402" y1="75" y2="75"/><line style="stroke: #A80036; stroke-width: 1.5;" x1="146" x2="402" y1="83" y2="83"/><ellipse cx="156" cy="94.9775" fill="#84BE84" rx="3" ry="3" style="stroke: #038048; stroke-width: 1.0;"/><text fill="#000000" font-family="sans-serif" font-size="11" font-style="italic" lengthAdjust="spacingAndGlyphs" textLength="68" x="165" y="97.6348">gpioPin(): int</text><ellipse cx="156" cy="107.9326" fill="#84BE84" rx="3" ry="3" style="stroke: #038048; stroke-width: 1.0;"/><text fill="#000000" font-family="sans-serif" font-size="11" font-style="italic" lengthAdjust="spacingAndGlyphs" textLength="184" x="165" y="110.5898">servoCommand(): ServoCommand</text><ellipse cx="156" cy="120.8877" fill="#84BE84" rx="3" ry="3" style="stroke: #038048; stroke-width: 1.0;"/><text fill="#000000" font-family="sans-serif" font-size="11" font-style="italic" lengthAdjust="spacingAndGlyphs" textLength="154" x="165" y="123.5449">turnedOrientation(): boolean</text><ellipse cx="156" cy="133.8428" fill="#84BE84" rx="3" ry="3" style="stroke: #038048; stroke-width: 1.0;"/><text fill="#000000" font-family="sans-serif" font-size="11" font-style="italic" lengthAdjust="spacingAndGlyphs" textLength="189" x="165" y="136.5">getCurrentPosition(): ServoPosition</text><ellipse cx="156" cy="146.7979" fill="#84BE84" rx="3" ry="3" style="stroke: #038048; stroke-width: 1.0;"/><text fill="#000000" font-family="sans-serif" font-size="11" font-style="italic" lengthAdjust="spacingAndGlyphs" textLength="224" x="165" y="149.4551">newPosition(ServoPosition): ServoPosition</text><ellipse cx="156" cy="159.7529" fill="#84BE84" rx="3" ry="3" style="stroke: #038048; stroke-width: 1.0;"/><text fill="#000000" font-family="sans-serif" font-size="11" font-style="italic" lengthAdjust="spacingAndGlyphs" textLength="232" x="165" y="162.4102">configure(int, ServoCommand, String): void</text><ellipse cx="156" cy="172.708" fill="#84BE84" rx="3" ry="3" style="stroke: #038048; stroke-width: 1.0;"/><text fill="#000000" font-family="sans-serif" font-size="11" font-style="italic" lengthAdjust="spacingAndGlyphs" textLength="150" x="165" y="175.3652">configureOrientation(): void</text><!--class org.rcdukes.car.ServoRangeMap--><rect fill="#FEFECE" filter="url(#f162b9aq4s6p7i)" height="112.7754" id="org.rcdukes.car.ServoRangeMap" style="stroke: #A80036; stroke-width: 1.5;" width="200" x="438" y="56"/><ellipse cx="487.75" cy="72" fill="#B4A7E5" rx="11" ry="11" style="stroke: #A80036; stroke-width: 1.0;"/><path d="M483.6777,67.7651 L483.6777,65.6069 L491.0571,65.6069 L491.0571,67.7651 L488.5918,67.7651 L488.5918,75.8418 L491.0571,75.8418 L491.0571,78 L483.6777,78 L483.6777,75.8418 L486.1431,75.8418 L486.1431,67.7651 Z "/><text fill="#000000" font-family="sans-serif" font-size="12" font-style="italic" lengthAdjust="spacingAndGlyphs" textLength="92" x="508.25" y="76.5352">ServoRangeMap</text><line style="stroke: #A80036; stroke-width: 1.5;" x1="439" x2="637" y1="88" y2="88"/><line style="stroke: #A80036; stroke-width: 1.5;" x1="439" x2="637" y1="96" y2="96"/><ellipse cx="449" cy="107.9775" fill="#84BE84" rx="3" ry="3" style="stroke: #038048; stroke-width: 1.0;"/><text fill="#000000" font-family="sans-serif" font-size="11" font-style="italic" lengthAdjust="spacingAndGlyphs" textLength="127" x="458" y="110.6348">getRange(): ServoRange</text><ellipse cx="449" cy="120.9326" fill="#84BE84" rx="3" ry="3" style="stroke: #038048; stroke-width: 1.0;"/><text fill="#000000" font-family="sans-serif" font-size="11" font-style="italic" lengthAdjust="spacingAndGlyphs" textLength="174" x="458" y="123.5898">atPercent(double): ServoPosition</text><ellipse cx="449" cy="133.8877" fill="#84BE84" rx="3" ry="3" style="stroke: #038048; stroke-width: 1.0;"/><text fill="#000000" font-family="sans-serif" font-size="11" font-style="italic" lengthAdjust="spacingAndGlyphs" textLength="163" x="458" y="136.5449">atValue(double): ServoPosition</text><ellipse cx="449" cy="146.8428" fill="#84BE84" rx="3" ry="3" style="stroke: #038048; stroke-width: 1.0;"/><text fill="#000000" font-family="sans-serif" font-size="11" font-style="italic" lengthAdjust="spacingAndGlyphs" textLength="74" x="458" y="149.5">step(int): void</text><ellipse cx="449" cy="159.7979" fill="#84BE84" rx="3" ry="3" style="stroke: #038048; stroke-width: 1.0;"/><text fill="#000000" font-family="sans-serif" font-size="11" font-style="italic" lengthAdjust="spacingAndGlyphs" textLength="78" x="458" y="162.4551">setZero(): void</text><!--link org.rcdukes.drivecontrol.ServoRangeMap to org.rcdukes.drivecontrol.EngineMap--><path d="M364.606,788.5846 C350.4692,804.9772 337.3187,820.2262 326.6218,832.6301 " fill="none" id="org.rcdukes.drivecontrol.ServoRangeMap-org.rcdukes.drivecontrol.EngineMap" style="stroke: #A80036; stroke-width: 1.0;"/><polygon fill="none" points="359.4612,783.8317,377.8239,773.2574,370.0633,792.9748,359.4612,783.8317" style="stroke: #A80036; stroke-width: 1.0;"/><!--link org.rcdukes.drivecontrol.ServoMap to org.rcdukes.drivecontrol.LedMap--><path d="M235.0977,465.5344 C230.0666,510.5852 224.5665,559.8365 220.5939,595.409 " fill="none" id="org.rcdukes.drivecontrol.ServoMap-org.rcdukes.drivecontrol.LedMap" style="stroke: #A80036; stroke-width: 1.0;"/><polygon fill="none" points="228.1549,464.6318,237.3314,445.5323,242.0684,466.1857,228.1549,464.6318" style="stroke: #A80036; stroke-width: 1.0;"/><!--link org.rcdukes.car.LedMap to org.rcdukes.drivecontrol.LedMap--><path d="M64.4386,170.0734 C64.2398,239.9922 69.4035,360.6487 102,458 C118.7737,508.0956 150.6463,559.0684 176.2762,595.1968 " fill="none" id="org.rcdukes.car.LedMap-org.rcdukes.drivecontrol.LedMap" style="stroke: #A80036; stroke-width: 1.0; stroke-dasharray: 7.0,7.0;"/><polygon fill="none" points="57.4432,169.5915,64.6557,149.6672,71.4424,169.7405,57.4432,169.5915" style="stroke: #A80036; stroke-width: 1.0;"/><!--link org.rcdukes.car.ServoMap to org.rcdukes.drivecontrol.ServoMap--><path d="M264.1936,202.0773 C262.3247,219.1497 260.3618,237.0797 258.473,254.3334 " fill="none" id="org.rcdukes.car.ServoMap-org.rcdukes.drivecontrol.ServoMap" style="stroke: #A80036; stroke-width: 1.0; stroke-dasharray: 7.0,7.0;"/><polygon fill="none" points="257.2398,201.2725,266.3748,182.1531,271.1567,202.7961,257.2398,201.2725" style="stroke: #A80036; stroke-width: 1.0;"/><!--link org.rcdukes.drivecontrol.ServoRangeMap to org.rcdukes.drivecontrol.SteeringMap--><path d="M507.0175,793.5652 C508.8792,808.0596 510.6045,821.4919 512.0351,832.6301 " fill="none" id="org.rcdukes.drivecontrol.ServoRangeMap-org.rcdukes.drivecontrol.SteeringMap" style="stroke: #A80036; stroke-width: 1.0;"/><polygon fill="none" points="500.0142,793.9863,504.4092,773.2574,513.9001,792.2027,500.0142,793.9863" style="stroke: #A80036; stroke-width: 1.0;"/><!--link org.rcdukes.drivecontrol.ServoMap to org.rcdukes.drivecontrol.ServoRangeMap--><path d="M338.3343,461.2241 C353.3841,479.7542 369.0982,499.1021 384.4464,517.9996 " fill="none" id="org.rcdukes.drivecontrol.ServoMap-org.rcdukes.drivecontrol.ServoRangeMap" style="stroke: #A80036; stroke-width: 1.0;"/><polygon fill="none" points="332.765,465.4701,325.5897,445.5323,343.6323,456.6439,332.765,465.4701" style="stroke: #A80036; stroke-width: 1.0;"/><!--link org.rcdukes.car.ServoRangeMap to org.rcdukes.drivecontrol.ServoRangeMap--><path d="M635.9839,183.9261 C643.9827,193.487 650.9266,203.8729 656,215 C700.8049,313.2676 694.5808,357.1262 656,458 C647.959,479.024 636.3543,499.1773 622.9451,517.9594 " fill="none" id="org.rcdukes.car.ServoRangeMap-org.rcdukes.drivecontrol.ServoRangeMap" style="stroke: #A80036; stroke-width: 1.0; stroke-dasharray: 7.0,7.0;"/><polygon fill="none" points="630.694,188.5173,622.1737,169.1161,640.9331,178.9694,630.694,188.5173" style="stroke: #A80036; stroke-width: 1.0;"/><text fill="#888888" font-family="sans-serif" font-size="10" lengthAdjust="spacingAndGlyphs" textLength="182" x="261.5" y="929.668">UMLDoclet 1.1.4, PlantUML 1.2019.05</text><!--
@startuml

    namespace org.rcdukes.drivecontrol {

        class Car [[Car.html]] {
            {static} +servoCommand: ServoCommand
            +configure(Engine, Steering, Led): void
            +setPowerOn(): void
            +setPowerOff(): void
            +powerIsOn(): boolean
            +stop(): void
            +turn(ServoPosition): void
            +drive(ServoPosition): void
            +getEngine(): Engine
            +getSteering(): Steering
            +getLed(): Led
            {static} +getInstance(): Car
            {static} +resetInstance(): void
        }

        class EngineMap [[EngineMap.html]] {
            +EngineMap(ServoCommand)
        }

        class LedMap [[LedMap.html]] {
            +LedMap(ServoCommand)
            +ledOff(): int
            +ledOn(): int
            +configureOrientation(): void
        }

        abstract class ServoMap [[ServoMap.html]] {
            {static} #LOG: Logger
            #servoCommand: ServoCommand
            #gpioPin: int
            #turnedOrientation: boolean
            +getCurrentPosition(): ServoPosition
            +setCurrentPosition(ServoPosition): void
            +newPosition(ServoPosition): ServoPosition
            +gpioPin(): int
            +servoCommand(): ServoCommand
            +configure(int, ServoCommand, String): void
            +turnedOrientation(): boolean
        }

        class SteeringMap [[SteeringMap.html]] {
            +SteeringMap(ServoCommand)
        }

        abstract class ServoRangeMap [[ServoRangeMap.html]] {
            +getRange(): ServoRange
            +setRange(ServoRange): void
            +getUnit(): String
            +setUnit(String): void
            +getName(): String
            +setName(String): void
            +atPercent(double): ServoPosition
            +atValue(double): ServoPosition
            +step(int): void
            +newPosition(ServoPosition): ServoPosition
            +setZero(): void
            +positionInfo(): String
            #assertGreater(double, double, String, String): void
            #checkSide(ServoSide): void
            #check(): void
            +configureOrientation(): void
        }

        ServoRangeMap <|- - EngineMap

        ServoMap <|- - LedMap

        interface org.rcdukes.car.LedMap {
            {abstract} +ledOff(): int
            {abstract} +ledOn(): int
        }
        org.rcdukes.car.LedMap <|.. LedMap

        interface org.rcdukes.car.ServoMap {
            {abstract} +gpioPin(): int
            {abstract} +servoCommand(): ServoCommand
            {abstract} +turnedOrientation(): boolean
            {abstract} +getCurrentPosition(): ServoPosition
            {abstract} +newPosition(ServoPosition): ServoPosition
            {abstract} +configure(int, ServoCommand, String): void
            {abstract} +configureOrientation(): void
        }
        org.rcdukes.car.ServoMap <|.. ServoMap

        ServoRangeMap <|- - SteeringMap

        ServoMap <|- - ServoRangeMap

        interface org.rcdukes.car.ServoRangeMap {
            {abstract} +getRange(): ServoRange
            {abstract} +atPercent(double): ServoPosition
            {abstract} +atValue(double): ServoPosition
            {abstract} +step(int): void
            {abstract} +setZero(): void
        }
        org.rcdukes.car.ServoRangeMap <|.. ServoRangeMap

    }


    center footer UMLDoclet 1.1.4, PlantUML 1.2019.05
@enduml

PlantUML version 1.2019.05(Sat Apr 20 18:45:36 CEST 2019)
(APACHE source distribution)
Java Runtime: Java(TM) SE Runtime Environment
JVM: Java HotSpot(TM) 64-Bit Server VM
Java Version: 1.8.0_152-b16
Operating System: Mac OS X
OS Version: 10.13.6
Default Encoding: UTF-8
Language: de
Country: DE
--></g></svg>