<?xml version="1.0" encoding="UTF-8" standalone="no"?><svg xmlns="http://www.w3.org/2000/svg" xmlns:xlink="http://www.w3.org/1999/xlink" contentScriptType="application/ecmascript" contentStyleType="text/css" height="141px" preserveAspectRatio="none" style="width:194px;height:141px;" version="1.1" viewBox="0 0 194 141" width="194px" zoomAndPan="magnify"><defs><filter height="300%" id="ftzz2l5gcwfwz" width="300%" x="-1" y="-1"><feGaussianBlur result="blurOut" stdDeviation="2.0"/><feColorMatrix in="blurOut" result="blurOut2" type="matrix" values="0 0 0 0 0 0 0 0 0 0 0 0 0 0 0 0 0 0 .4 0"/><feOffset dx="4.0" dy="4.0" in="blurOut2" result="blurOut3"/><feBlend in="SourceGraphic" in2="blurOut3" mode="normal"/></filter></defs><g><!--class Detector--><a href="Detector.html" target="_top" xlink:actuate="onRequest" xlink:show="new" xlink:title="Detector.html" xlink:type="simple"><rect fill="#FEFECE" filter="url(#ftzz2l5gcwfwz)" height="99.8203" id="Detector" style="stroke: #A80036; stroke-width: 1.5;" width="128" x="21" y="8"/><ellipse cx="57.15" cy="24" fill="#ADD1B2" rx="11" ry="11" style="stroke: #A80036; stroke-width: 1.0;"/><path d="M60.1231,29.6431 Q59.5421,29.9419 58.9029,30.0913 Q58.2638,30.2407 57.5582,30.2407 Q55.0514,30.2407 53.7315,28.5889 Q52.4117,26.937 52.4117,23.8159 Q52.4117,20.6865 53.7315,19.0347 Q55.0514,17.3828 57.5582,17.3828 Q58.2638,17.3828 58.9112,17.5322 Q59.5587,17.6816 60.1231,17.9805 L60.1231,20.7031 Q59.4923,20.1221 58.8988,19.8523 Q58.3053,19.5825 57.6744,19.5825 Q56.3297,19.5825 55.6449,20.6492 Q54.9601,21.7158 54.9601,23.8159 Q54.9601,25.9077 55.6449,26.9744 Q56.3297,28.041 57.6744,28.041 Q58.3053,28.041 58.8988,27.7712 Q59.4923,27.5015 60.1231,26.9204 Z "/><text fill="#000000" font-family="sans-serif" font-size="12" lengthAdjust="spacingAndGlyphs" textLength="49" x="75.85" y="28.5352">Detector</text><line style="stroke: #A80036; stroke-width: 1.5;" x1="22" x2="148" y1="40" y2="40"/><ellipse cx="32" cy="51.9775" fill="none" rx="3" ry="3" style="stroke: #038048; stroke-width: 1.0;"/><text fill="#000000" font-family="sans-serif" font-size="11" lengthAdjust="spacingAndGlyphs" text-decoration="underline" textLength="49" x="41" y="54.6348">MAT: Mat</text><ellipse cx="32" cy="64.9326" fill="none" rx="3" ry="3" style="stroke: #038048; stroke-width: 1.0;"/><text fill="#000000" font-family="sans-serif" font-size="11" lengthAdjust="spacingAndGlyphs" text-decoration="underline" textLength="80" x="41" y="67.5898">BIRDS_EYE: Mat</text><ellipse cx="32" cy="77.8877" fill="none" rx="3" ry="3" style="stroke: #038048; stroke-width: 1.0;"/><text fill="#000000" font-family="sans-serif" font-size="11" lengthAdjust="spacingAndGlyphs" text-decoration="underline" textLength="102" x="41" y="80.5449">CANNY_IMG: byte[]</text><line style="stroke: #A80036; stroke-width: 1.5;" x1="22" x2="148" y1="86.8652" y2="86.8652"/><ellipse cx="32" cy="98.8428" fill="#84BE84" rx="3" ry="3" style="stroke: #038048; stroke-width: 1.0;"/><text fill="#000000" font-family="sans-serif" font-size="11" lengthAdjust="spacingAndGlyphs" textLength="62" x="41" y="101.5">start(): void</text></a><text fill="#888888" font-family="sans-serif" font-size="10" lengthAdjust="spacingAndGlyphs" textLength="182" x="0" y="127.668">UMLDoclet 1.1.4, PlantUML 1.2019.05</text><!--
@startuml

    class Detector [[Detector.html]] {
        {static} +MAT: Mat
        {static} +BIRDS_EYE: Mat
        {static} +CANNY_IMG: byte[]
        +start(): void
    }


    center footer UMLDoclet 1.1.4, PlantUML 1.2019.05
@enduml

PlantUML version 1.2019.05(Sat Apr 20 18:45:36 CEST 2019)
(APACHE source distribution)
Java Runtime: Java(TM) SE Runtime Environment
JVM: Java HotSpot(TM) 64-Bit Server VM
Java Version: 1.8.0_191-b12
Operating System: Mac OS X
OS Version: 10.13.6
Default Encoding: UTF-8
Language: de
Country: DE
--></g></svg>