<?xml version="1.0" encoding="UTF-8" standalone="no"?><svg xmlns="http://www.w3.org/2000/svg" xmlns:xlink="http://www.w3.org/1999/xlink" contentScriptType="application/ecmascript" contentStyleType="text/css" height="128px" preserveAspectRatio="none" style="width:227px;height:128px;" version="1.1" viewBox="0 0 227 128" width="227px" zoomAndPan="magnify"><defs><filter height="300%" id="f7qijvfcss9c2" width="300%" x="-1" y="-1"><feGaussianBlur result="blurOut" stdDeviation="2.0"/><feColorMatrix in="blurOut" result="blurOut2" type="matrix" values="0 0 0 0 0 0 0 0 0 0 0 0 0 0 0 0 0 0 .4 0"/><feOffset dx="4.0" dy="4.0" in="blurOut2" result="blurOut3"/><feBlend in="SourceGraphic" in2="blurOut3" mode="normal"/></filter></defs><g><!--class ImageFetcher--><a href="ImageFetcher.html" target="_top" xlink:actuate="onRequest" xlink:show="new" xlink:title="ImageFetcher.html" xlink:type="simple"><rect fill="#FEFECE" filter="url(#f7qijvfcss9c2)" height="86.8652" id="ImageFetcher" style="stroke: #A80036; stroke-width: 1.5;" width="210" x="6" y="8"/><ellipse cx="68.25" cy="24" fill="#ADD1B2" rx="11" ry="11" style="stroke: #A80036; stroke-width: 1.0;"/><path d="M71.2231,29.6431 Q70.6421,29.9419 70.0029,30.0913 Q69.3638,30.2407 68.6582,30.2407 Q66.1514,30.2407 64.8315,28.5889 Q63.5117,26.937 63.5117,23.8159 Q63.5117,20.6865 64.8315,19.0347 Q66.1514,17.3828 68.6582,17.3828 Q69.3638,17.3828 70.0112,17.5322 Q70.6587,17.6816 71.2231,17.9805 L71.2231,20.7031 Q70.5923,20.1221 69.9988,19.8523 Q69.4053,19.5825 68.7744,19.5825 Q67.4297,19.5825 66.7449,20.6492 Q66.0601,21.7158 66.0601,23.8159 Q66.0601,25.9077 66.7449,26.9744 Q67.4297,28.041 68.7744,28.041 Q69.4053,28.041 69.9988,27.7712 Q70.5923,27.5015 71.2231,26.9204 Z "/><text fill="#000000" font-family="sans-serif" font-size="12" lengthAdjust="spacingAndGlyphs" textLength="77" x="88.75" y="28.5352">ImageFetcher</text><line style="stroke: #A80036; stroke-width: 1.5;" x1="7" x2="215" y1="40" y2="40"/><line style="stroke: #A80036; stroke-width: 1.5;" x1="7" x2="215" y1="48" y2="48"/><ellipse cx="17" cy="59.9775" fill="#84BE84" rx="3" ry="3" style="stroke: #038048; stroke-width: 1.0;"/><text fill="#000000" font-family="sans-serif" font-size="11" lengthAdjust="spacingAndGlyphs" textLength="112" x="26" y="62.6348">ImageFetcher(String)</text><ellipse cx="17" cy="72.9326" fill="#84BE84" rx="3" ry="3" style="stroke: #038048; stroke-width: 1.0;"/><text fill="#000000" font-family="sans-serif" font-size="11" lengthAdjust="spacingAndGlyphs" textLength="60" x="26" y="75.5898">fetch(): Mat</text><ellipse cx="17" cy="85.8877" fill="#84BE84" rx="3" ry="3" style="stroke: #038048; stroke-width: 1.0;"/><text fill="#000000" font-family="sans-serif" font-size="11" lengthAdjust="spacingAndGlyphs" textLength="184" x="26" y="88.5449">toObservable(): Observable&lt;Mat&gt;</text></a><text fill="#888888" font-family="sans-serif" font-size="10" lengthAdjust="spacingAndGlyphs" textLength="182" x="26" y="114.668">UMLDoclet 1.1.4, PlantUML 1.2019.05</text><!--
@startuml

    class ImageFetcher [[ImageFetcher.html]] {
        +ImageFetcher(String)
        +fetch(): Mat
        +toObservable(): Observable<Mat>
    }


    center footer UMLDoclet 1.1.4, PlantUML 1.2019.05
@enduml

PlantUML version 1.2019.05(Sat Apr 20 18:45:36 CEST 2019)
(APACHE source distribution)
Java Runtime: Java(TM) SE Runtime Environment
JVM: Java HotSpot(TM) 64-Bit Server VM
Java Version: 1.8.0_191-b12
Operating System: Mac OS X
OS Version: 10.13.6
Default Encoding: UTF-8
Language: de
Country: DE
--></g></svg>