<?xml version="1.0" encoding="UTF-8" standalone="no"?><svg xmlns="http://www.w3.org/2000/svg" xmlns:xlink="http://www.w3.org/1999/xlink" contentScriptType="application/ecmascript" contentStyleType="text/css" height="180px" preserveAspectRatio="none" style="width:339px;height:180px;" version="1.1" viewBox="0 0 339 180" width="339px" zoomAndPan="magnify"><defs><filter height="300%" id="f1wjs5ppr3rv7d" width="300%" x="-1" y="-1"><feGaussianBlur result="blurOut" stdDeviation="2.0"/><feColorMatrix in="blurOut" result="blurOut2" type="matrix" values="0 0 0 0 0 0 0 0 0 0 0 0 0 0 0 0 0 0 .4 0"/><feOffset dx="4.0" dy="4.0" in="blurOut2" result="blurOut3"/><feBlend in="SourceGraphic" in2="blurOut3" mode="normal"/></filter></defs><g><!--class StartLightDetector--><a href="StartLightDetector.html" target="_top" xlink:actuate="onRequest" xlink:show="new" xlink:title="StartLightDetector.html" xlink:type="simple"><rect fill="#FEFECE" filter="url(#f1wjs5ppr3rv7d)" height="138.6855" id="StartLightDetector" style="stroke: #A80036; stroke-width: 1.5;" width="322" x="6" y="8"/><ellipse cx="111.75" cy="24" fill="#ADD1B2" rx="11" ry="11" style="stroke: #A80036; stroke-width: 1.0;"/><path d="M114.7231,29.6431 Q114.1421,29.9419 113.5029,30.0913 Q112.8638,30.2407 112.1582,30.2407 Q109.6514,30.2407 108.3315,28.5889 Q107.0117,26.937 107.0117,23.8159 Q107.0117,20.6865 108.3315,19.0347 Q109.6514,17.3828 112.1582,17.3828 Q112.8638,17.3828 113.5112,17.5322 Q114.1587,17.6816 114.7231,17.9805 L114.7231,20.7031 Q114.0923,20.1221 113.4988,19.8523 Q112.9053,19.5825 112.2744,19.5825 Q110.9297,19.5825 110.2449,20.6492 Q109.5601,21.7158 109.5601,23.8159 Q109.5601,25.9077 110.2449,26.9744 Q110.9297,28.041 112.2744,28.041 Q112.9053,28.041 113.4988,27.7712 Q114.0923,27.5015 114.7231,26.9204 Z "/><text fill="#000000" font-family="sans-serif" font-size="12" lengthAdjust="spacingAndGlyphs" textLength="102" x="132.25" y="28.5352">StartLightDetector</text><line style="stroke: #A80036; stroke-width: 1.5;" x1="7" x2="327" y1="40" y2="40"/><line style="stroke: #A80036; stroke-width: 1.5;" x1="7" x2="327" y1="48" y2="48"/><ellipse cx="17" cy="59.9775" fill="#84BE84" rx="3" ry="3" style="stroke: #038048; stroke-width: 1.0;"/><text fill="#000000" font-family="sans-serif" font-size="11" lengthAdjust="spacingAndGlyphs" textLength="106" x="26" y="62.6348">StartLightDetector()</text><ellipse cx="17" cy="72.9326" fill="#84BE84" rx="3" ry="3" style="stroke: #038048; stroke-width: 1.0;"/><text fill="#000000" font-family="sans-serif" font-size="11" lengthAdjust="spacingAndGlyphs" textLength="220" x="26" y="75.5898">StartLightDetector(int, int, int, int, int, int)</text><ellipse cx="17" cy="85.8877" fill="#84BE84" rx="3" ry="3" style="stroke: #038048; stroke-width: 1.0;"/><text fill="#000000" font-family="sans-serif" font-size="11" lengthAdjust="spacingAndGlyphs" textLength="243" x="26" y="88.5449">StartLightDetector(StartLightDetector.Config)</text><ellipse cx="17" cy="98.8428" fill="#84BE84" rx="3" ry="3" style="stroke: #038048; stroke-width: 1.0;"/><text fill="#000000" font-family="sans-serif" font-size="11" lengthAdjust="spacingAndGlyphs" textLength="118" x="26" y="101.5">detect(Mat): StartLight</text><ellipse cx="17" cy="111.7979" fill="#84BE84" rx="3" ry="3" style="stroke: #038048; stroke-width: 1.0;"/><text fill="#000000" font-family="sans-serif" font-size="11" lengthAdjust="spacingAndGlyphs" textLength="234" x="26" y="114.4551">withDebug(DebugTools): StartLightDetector</text><ellipse cx="17" cy="124.7529" fill="#84BE84" rx="3" ry="3" style="stroke: #038048; stroke-width: 1.0;"/><text fill="#000000" font-family="sans-serif" font-size="11" lengthAdjust="spacingAndGlyphs" textLength="83" x="26" y="127.4102">getFrame(): Mat</text><ellipse cx="17" cy="137.708" fill="#84BE84" rx="3" ry="3" style="stroke: #038048; stroke-width: 1.0;"/><text fill="#000000" font-family="sans-serif" font-size="11" lengthAdjust="spacingAndGlyphs" textLength="296" x="26" y="140.3652">withImageCollector(ImageCollector): StartLightDetector</text></a><text fill="#888888" font-family="sans-serif" font-size="10" lengthAdjust="spacingAndGlyphs" textLength="182" x="82" y="166.668">UMLDoclet 1.1.4, PlantUML 1.2019.05</text><!--
@startuml

    class StartLightDetector [[StartLightDetector.html]] {
        +StartLightDetector()
        +StartLightDetector(int, int, int, int, int, int)
        +StartLightDetector(StartLightDetector.Config)
        +detect(Mat): StartLight
        +withDebug(DebugTools): StartLightDetector
        +getFrame(): Mat
        +withImageCollector(ImageCollector): StartLightDetector
    }


    center footer UMLDoclet 1.1.4, PlantUML 1.2019.05
@enduml

PlantUML version 1.2019.05(Sat Apr 20 18:45:36 CEST 2019)
(APACHE source distribution)
Java Runtime: Java(TM) SE Runtime Environment
JVM: Java HotSpot(TM) 64-Bit Server VM
Java Version: 1.8.0_191-b12
Operating System: Mac OS X
OS Version: 10.13.6
Default Encoding: UTF-8
Language: de
Country: DE
--></g></svg>