<?xml version="1.0" encoding="UTF-8" standalone="no"?><svg xmlns="http://www.w3.org/2000/svg" xmlns:xlink="http://www.w3.org/1999/xlink" contentScriptType="application/ecmascript" contentStyleType="text/css" height="128px" preserveAspectRatio="none" style="width:252px;height:128px;" version="1.1" viewBox="0 0 252 128" width="252px" zoomAndPan="magnify"><defs><filter height="300%" id="f1sj88yqayp432" width="300%" x="-1" y="-1"><feGaussianBlur result="blurOut" stdDeviation="2.0"/><feColorMatrix in="blurOut" result="blurOut2" type="matrix" values="0 0 0 0 0 0 0 0 0 0 0 0 0 0 0 0 0 0 .4 0"/><feOffset dx="4.0" dy="4.0" in="blurOut2" result="blurOut3"/><feBlend in="SourceGraphic" in2="blurOut3" mode="normal"/></filter></defs><g><!--class TestConfiguration--><a href="TestConfiguration.html" target="_top" xlink:actuate="onRequest" xlink:show="new" xlink:title="TestConfiguration.html" xlink:type="simple"><rect fill="#FEFECE" filter="url(#f1sj88yqayp432)" height="86.8652" id="TestConfiguration" style="stroke: #A80036; stroke-width: 1.5;" width="235" x="6" y="8"/><ellipse cx="68.75" cy="24" fill="#ADD1B2" rx="11" ry="11" style="stroke: #A80036; stroke-width: 1.0;"/><path d="M71.7231,29.6431 Q71.1421,29.9419 70.5029,30.0913 Q69.8638,30.2407 69.1582,30.2407 Q66.6514,30.2407 65.3315,28.5889 Q64.0117,26.937 64.0117,23.8159 Q64.0117,20.6865 65.3315,19.0347 Q66.6514,17.3828 69.1582,17.3828 Q69.8638,17.3828 70.5112,17.5322 Q71.1587,17.6816 71.7231,17.9805 L71.7231,20.7031 Q71.0923,20.1221 70.4988,19.8523 Q69.9053,19.5825 69.2744,19.5825 Q67.9297,19.5825 67.2449,20.6492 Q66.5601,21.7158 66.5601,23.8159 Q66.5601,25.9077 67.2449,26.9744 Q67.9297,28.041 69.2744,28.041 Q69.9053,28.041 70.4988,27.7712 Q71.0923,27.5015 71.7231,26.9204 Z "/><text fill="#000000" font-family="sans-serif" font-size="12" lengthAdjust="spacingAndGlyphs" textLength="101" x="89.25" y="28.5352">TestConfiguration</text><line style="stroke: #A80036; stroke-width: 1.5;" x1="7" x2="240" y1="40" y2="40"/><line style="stroke: #A80036; stroke-width: 1.5;" x1="7" x2="240" y1="48" y2="48"/><ellipse cx="17" cy="59.9775" fill="#84BE84" rx="3" ry="3" style="stroke: #038048; stroke-width: 1.0;"/><text fill="#000000" font-family="sans-serif" font-size="11" lengthAdjust="spacingAndGlyphs" textLength="209" x="26" y="62.6348">getMockConfiguration(): Configuration</text><ellipse cx="17" cy="72.9326" fill="#84BE84" rx="3" ry="3" style="stroke: #038048; stroke-width: 1.0;"/><text fill="#000000" font-family="sans-serif" font-size="11" lengthAdjust="spacingAndGlyphs" textLength="132" x="26" y="75.5898">testConfiguration(): void</text><ellipse cx="17" cy="85.8877" fill="#84BE84" rx="3" ry="3" style="stroke: #038048; stroke-width: 1.0;"/><text fill="#000000" font-family="sans-serif" font-size="11" lengthAdjust="spacingAndGlyphs" textLength="90" x="26" y="88.5449">testQuery(): void</text></a><text fill="#888888" font-family="sans-serif" font-size="10" lengthAdjust="spacingAndGlyphs" textLength="182" x="38.5" y="114.668">UMLDoclet 1.1.4, PlantUML 1.2019.05</text><!--
@startuml

    class TestConfiguration [[TestConfiguration.html]] {
        +getMockConfiguration(): Configuration
        +testConfiguration(): void
        +testQuery(): void
    }


    center footer UMLDoclet 1.1.4, PlantUML 1.2019.05
@enduml

PlantUML version 1.2019.05(Sat Apr 20 18:45:36 CEST 2019)
(APACHE source distribution)
Java Runtime: Java(TM) SE Runtime Environment
JVM: Java HotSpot(TM) 64-Bit Server VM
Java Version: 1.8.0_152-b16
Operating System: Mac OS X
OS Version: 10.13.6
Default Encoding: UTF-8
Language: de
Country: DE
--></g></svg>