<?xml version="1.0" encoding="UTF-8" standalone="no"?><svg xmlns="http://www.w3.org/2000/svg" xmlns:xlink="http://www.w3.org/1999/xlink" contentScriptType="application/ecmascript" contentStyleType="text/css" height="102px" preserveAspectRatio="none" style="width:208px;height:102px;" version="1.1" viewBox="0 0 208 102" width="208px" zoomAndPan="magnify"><defs><filter height="300%" id="ft0zcuersjc6n" width="300%" x="-1" y="-1"><feGaussianBlur result="blurOut" stdDeviation="2.0"/><feColorMatrix in="blurOut" result="blurOut2" type="matrix" values="0 0 0 0 0 0 0 0 0 0 0 0 0 0 0 0 0 0 .4 0"/><feOffset dx="4.0" dy="4.0" in="blurOut2" result="blurOut3"/><feBlend in="SourceGraphic" in2="blurOut3" mode="normal"/></filter></defs><g><!--class TestGraphDatabase--><a href="TestGraphDatabase.html" target="_top" xlink:actuate="onRequest" xlink:show="new" xlink:title="TestGraphDatabase.html" xlink:type="simple"><rect fill="#FEFECE" filter="url(#ft0zcuersjc6n)" height="60.9551" id="TestGraphDatabase" style="stroke: #A80036; stroke-width: 1.5;" width="186" x="6" y="8"/><ellipse cx="38.1" cy="24" fill="#ADD1B2" rx="11" ry="11" style="stroke: #A80036; stroke-width: 1.0;"/><path d="M41.0731,29.6431 Q40.4921,29.9419 39.8529,30.0913 Q39.2138,30.2407 38.5082,30.2407 Q36.0014,30.2407 34.6815,28.5889 Q33.3617,26.937 33.3617,23.8159 Q33.3617,20.6865 34.6815,19.0347 Q36.0014,17.3828 38.5082,17.3828 Q39.2138,17.3828 39.8612,17.5322 Q40.5087,17.6816 41.0731,17.9805 L41.0731,20.7031 Q40.4423,20.1221 39.8488,19.8523 Q39.2553,19.5825 38.6244,19.5825 Q37.2797,19.5825 36.5949,20.6492 Q35.9101,21.7158 35.9101,23.8159 Q35.9101,25.9077 36.5949,26.9744 Q37.2797,28.041 38.6244,28.041 Q39.2553,28.041 39.8488,27.7712 Q40.4423,27.5015 41.0731,26.9204 Z "/><text fill="#000000" font-family="sans-serif" font-size="12" lengthAdjust="spacingAndGlyphs" textLength="116" x="55.9" y="28.5352">TestGraphDatabase</text><line style="stroke: #A80036; stroke-width: 1.5;" x1="7" x2="191" y1="40" y2="40"/><line style="stroke: #A80036; stroke-width: 1.5;" x1="7" x2="191" y1="48" y2="48"/><ellipse cx="17" cy="59.9775" fill="#84BE84" rx="3" ry="3" style="stroke: #038048; stroke-width: 1.0;"/><text fill="#000000" font-family="sans-serif" font-size="11" lengthAdjust="spacingAndGlyphs" textLength="160" x="26" y="62.6348">testTinkerPopDatabase(): void</text></a><text fill="#888888" font-family="sans-serif" font-size="10" lengthAdjust="spacingAndGlyphs" textLength="182" x="14" y="88.668">UMLDoclet 1.1.4, PlantUML 1.2019.05</text><!--
@startuml

    class TestGraphDatabase [[TestGraphDatabase.html]] {
        +testTinkerPopDatabase(): void
    }


    center footer UMLDoclet 1.1.4, PlantUML 1.2019.05
@enduml

PlantUML version 1.2019.05(Sat Apr 20 18:45:36 CEST 2019)
(APACHE source distribution)
Java Runtime: Java(TM) SE Runtime Environment
JVM: Java HotSpot(TM) 64-Bit Server VM
Java Version: 1.8.0_152-b16
Operating System: Mac OS X
OS Version: 10.13.6
Default Encoding: UTF-8
Language: de
Country: DE
--></g></svg>