<?xml version="1.0" encoding="UTF-8" standalone="no"?><svg xmlns="http://www.w3.org/2000/svg" xmlns:xlink="http://www.w3.org/1999/xlink" contentScriptType="application/ecmascript" contentStyleType="text/css" height="287px" preserveAspectRatio="none" style="width:521px;height:287px;" version="1.1" viewBox="0 0 521 287" width="521px" zoomAndPan="magnify"><defs><filter height="300%" id="fhf099exc307g" width="300%" x="-1" y="-1"><feGaussianBlur result="blurOut" stdDeviation="2.0"/><feColorMatrix in="blurOut" result="blurOut2" type="matrix" values="0 0 0 0 0 0 0 0 0 0 0 0 0 0 0 0 0 0 .4 0"/><feOffset dx="4.0" dy="4.0" in="blurOut2" result="blurOut3"/><feBlend in="SourceGraphic" in2="blurOut3" mode="normal"/></filter></defs><g><!--cluster org.rcdukes.detectors--><polygon fill="#FFFFFF" filter="url(#fhf099exc307g)" points="14,16,173,16,180,38.4883,499,38.4883,499,246,14,246,14,16" style="stroke: #000000; stroke-width: 1.5;"/><line style="stroke: #000000; stroke-width: 1.5;" x1="14" x2="180" y1="38.4883" y2="38.4883"/><text fill="#000000" font-family="sans-serif" font-size="14" font-weight="bold" lengthAdjust="spacingAndGlyphs" textLength="153" x="18" y="31.5352">org.rcdukes.detectors</text><!--class org.rcdukes.detectors.StartLightDetector--><a href="StartLightDetector.html" target="_top" xlink:actuate="onRequest" xlink:show="new" xlink:title="StartLightDetector.html" xlink:type="simple"><rect fill="#FEFECE" filter="url(#fhf099exc307g)" height="73.9102" id="org.rcdukes.detectors.StartLightDetector" style="stroke: #A80036; stroke-width: 1.5;" width="322" x="22" y="43"/><ellipse cx="127.75" cy="59" fill="#B4A7E5" rx="11" ry="11" style="stroke: #A80036; stroke-width: 1.0;"/><path d="M123.6777,54.7651 L123.6777,52.6069 L131.0571,52.6069 L131.0571,54.7651 L128.5918,54.7651 L128.5918,62.8418 L131.0571,62.8418 L131.0571,65 L123.6777,65 L123.6777,62.8418 L126.1431,62.8418 L126.1431,54.7651 Z "/><text fill="#000000" font-family="sans-serif" font-size="12" font-style="italic" lengthAdjust="spacingAndGlyphs" textLength="102" x="148.25" y="63.5352">StartLightDetector</text><line style="stroke: #A80036; stroke-width: 1.5;" x1="23" x2="343" y1="75" y2="75"/><line style="stroke: #A80036; stroke-width: 1.5;" x1="23" x2="343" y1="83" y2="83"/><ellipse cx="33" cy="94.9775" fill="#84BE84" rx="3" ry="3" style="stroke: #038048; stroke-width: 1.0;"/><text fill="#000000" font-family="sans-serif" font-size="11" font-style="italic" lengthAdjust="spacingAndGlyphs" textLength="131" x="42" y="97.6348">detect(Image): StartLight</text><ellipse cx="33" cy="107.9326" fill="#84BE84" rx="3" ry="3" style="stroke: #038048; stroke-width: 1.0;"/><text fill="#000000" font-family="sans-serif" font-size="11" font-style="italic" lengthAdjust="spacingAndGlyphs" textLength="296" x="42" y="110.5898">withImageCollector(ImageCollector): StartLightDetector</text></a><!--class org.rcdukes.detectors.EdgeDetector--><a href="EdgeDetector.html" target="_top" xlink:actuate="onRequest" xlink:show="new" xlink:title="EdgeDetector.html" xlink:type="simple"><rect fill="#FEFECE" filter="url(#fhf099exc307g)" height="60.9551" id="org.rcdukes.detectors.EdgeDetector" style="stroke: #A80036; stroke-width: 1.5;" width="111" x="379.5" y="49.5"/><ellipse cx="394.95" cy="65.5" fill="#B4A7E5" rx="11" ry="11" style="stroke: #A80036; stroke-width: 1.0;"/><path d="M390.8777,61.2651 L390.8777,59.1069 L398.2571,59.1069 L398.2571,61.2651 L395.7918,61.2651 L395.7918,69.3418 L398.2571,69.3418 L398.2571,71.5 L390.8777,71.5 L390.8777,69.3418 L393.3431,69.3418 L393.3431,61.2651 Z "/><text fill="#000000" font-family="sans-serif" font-size="12" font-style="italic" lengthAdjust="spacingAndGlyphs" textLength="78" x="409.05" y="70.0352">EdgeDetector</text><line style="stroke: #A80036; stroke-width: 1.5;" x1="380.5" x2="489.5" y1="81.5" y2="81.5"/><line style="stroke: #A80036; stroke-width: 1.5;" x1="380.5" x2="489.5" y1="89.5" y2="89.5"/><ellipse cx="390.5" cy="101.4775" fill="#84BE84" rx="3" ry="3" style="stroke: #038048; stroke-width: 1.0;"/><text fill="#000000" font-family="sans-serif" font-size="11" font-style="italic" lengthAdjust="spacingAndGlyphs" textLength="85" x="399.5" y="104.1348">detect(Mat): Mat</text></a><!--class org.rcdukes.detectors.LineDetector--><a href="LineDetector.html" target="_top" xlink:actuate="onRequest" xlink:show="new" xlink:title="LineDetector.html" xlink:type="simple"><rect fill="#FEFECE" filter="url(#fhf099exc307g)" height="60.9551" id="org.rcdukes.detectors.LineDetector" style="stroke: #A80036; stroke-width: 1.5;" width="186" x="26" y="177"/><ellipse cx="78.75" cy="193" fill="#B4A7E5" rx="11" ry="11" style="stroke: #A80036; stroke-width: 1.0;"/><path d="M74.6777,188.7651 L74.6777,186.6069 L82.0571,186.6069 L82.0571,188.7651 L79.5918,188.7651 L79.5918,196.8418 L82.0571,196.8418 L82.0571,199 L74.6777,199 L74.6777,196.8418 L77.1431,196.8418 L77.1431,188.7651 Z "/><text fill="#000000" font-family="sans-serif" font-size="12" font-style="italic" lengthAdjust="spacingAndGlyphs" textLength="72" x="99.25" y="197.5352">LineDetector</text><line style="stroke: #A80036; stroke-width: 1.5;" x1="27" x2="211" y1="209" y2="209"/><line style="stroke: #A80036; stroke-width: 1.5;" x1="27" x2="211" y1="217" y2="217"/><ellipse cx="37" cy="228.9775" fill="#84BE84" rx="3" ry="3" style="stroke: #038048; stroke-width: 1.0;"/><text fill="#000000" font-family="sans-serif" font-size="11" font-style="italic" lengthAdjust="spacingAndGlyphs" textLength="160" x="46" y="231.6348">detect(Mat): Collection&lt;Line&gt;</text></a><!--class org.rcdukes.detectors.LaneDetector--><a href="LaneDetector.html" target="_top" xlink:actuate="onRequest" xlink:show="new" xlink:title="LaneDetector.html" xlink:type="simple"><rect fill="#FEFECE" filter="url(#fhf099exc307g)" height="60.9551" id="org.rcdukes.detectors.LaneDetector" style="stroke: #A80036; stroke-width: 1.5;" width="244" x="247" y="177"/><ellipse cx="326.75" cy="193" fill="#B4A7E5" rx="11" ry="11" style="stroke: #A80036; stroke-width: 1.0;"/><path d="M322.6777,188.7651 L322.6777,186.6069 L330.0571,186.6069 L330.0571,188.7651 L327.5918,188.7651 L327.5918,196.8418 L330.0571,196.8418 L330.0571,199 L322.6777,199 L322.6777,196.8418 L325.1431,196.8418 L325.1431,188.7651 Z "/><text fill="#000000" font-family="sans-serif" font-size="12" font-style="italic" lengthAdjust="spacingAndGlyphs" textLength="76" x="347.25" y="197.5352">LaneDetector</text><line style="stroke: #A80036; stroke-width: 1.5;" x1="248" x2="490" y1="209" y2="209"/><line style="stroke: #A80036; stroke-width: 1.5;" x1="248" x2="490" y1="217" y2="217"/><ellipse cx="258" cy="228.9775" fill="#84BE84" rx="3" ry="3" style="stroke: #038048; stroke-width: 1.0;"/><text fill="#000000" font-family="sans-serif" font-size="11" font-style="italic" lengthAdjust="spacingAndGlyphs" textLength="218" x="267" y="231.6348">detect(Collection&lt;Line&gt;, ViewPort): Lane</text></a><!--link org.rcdukes.detectors.StartLightDetector to org.rcdukes.detectors.EdgeDetector--><!--link org.rcdukes.detectors.StartLightDetector to org.rcdukes.detectors.LineDetector--><!--link org.rcdukes.detectors.LineDetector to org.rcdukes.detectors.LaneDetector--><text fill="#888888" font-family="sans-serif" font-size="10" lengthAdjust="spacingAndGlyphs" textLength="182" x="171.5" y="273.668">UMLDoclet 1.1.4, PlantUML 1.2019.05</text><!--
@startuml

    namespace org.rcdukes.detectors {

        interface StartLightDetector [[StartLightDetector.html]] {
            {abstract} +detect(Image): StartLight
            {abstract} +withImageCollector(ImageCollector): StartLightDetector
        }

        interface EdgeDetector [[EdgeDetector.html]] {
            {abstract} +detect(Mat): Mat
        }

        interface LineDetector [[LineDetector.html]] {
            {abstract} +detect(Mat): Collection<Line>
        }

        interface LaneDetector [[LaneDetector.html]] {
            {abstract} +detect(Collection<Line>, ViewPort): Lane
        }

    }


    center footer UMLDoclet 1.1.4, PlantUML 1.2019.05
@enduml

PlantUML version 1.2019.05(Sat Apr 20 18:45:36 CEST 2019)
(APACHE source distribution)
Java Runtime: Java(TM) SE Runtime Environment
JVM: Java HotSpot(TM) 64-Bit Server VM
Java Version: 1.8.0_152-b16
Operating System: Mac OS X
OS Version: 10.13.6
Default Encoding: UTF-8
Language: de
Country: DE
--></g></svg>