<?xml version="1.0" encoding="UTF-8" standalone="no"?><svg xmlns="http://www.w3.org/2000/svg" xmlns:xlink="http://www.w3.org/1999/xlink" contentScriptType="application/ecmascript" contentStyleType="text/css" height="274px" preserveAspectRatio="none" style="width:633px;height:274px;" version="1.1" viewBox="0 0 633 274" width="633px" zoomAndPan="magnify"><defs><filter height="300%" id="f1u1ibajnw1awk" width="300%" x="-1" y="-1"><feGaussianBlur result="blurOut" stdDeviation="2.0"/><feColorMatrix in="blurOut" result="blurOut2" type="matrix" values="0 0 0 0 0 0 0 0 0 0 0 0 0 0 0 0 0 0 .4 0"/><feOffset dx="4.0" dy="4.0" in="blurOut2" result="blurOut3"/><feBlend in="SourceGraphic" in2="blurOut3" mode="normal"/></filter></defs><g><!--cluster nl.vaneijndhoven.dukes.luke.drag--><polygon fill="#FFFFFF" filter="url(#f1u1ibajnw1awk)" points="14,16,256,16,263,38.4883,611,38.4883,611,233,14,233,14,16" style="stroke: #000000; stroke-width: 1.5;"/><line style="stroke: #000000; stroke-width: 1.5;" x1="14" x2="263" y1="38.4883" y2="38.4883"/><text fill="#000000" font-family="sans-serif" font-size="14" font-weight="bold" lengthAdjust="spacingAndGlyphs" textLength="236" x="18" y="31.5352">nl.vaneijndhoven.dukes.luke.drag</text><!--class nl.vaneijndhoven.dukes.luke.drag.StartLightObserver--><a href="StartLightObserver.html" target="_top" xlink:actuate="onRequest" xlink:show="new" xlink:title="StartLightObserver.html" xlink:type="simple"><rect fill="#FEFECE" filter="url(#f1u1ibajnw1awk)" height="60.9551" id="nl.vaneijndhoven.dukes.luke.drag.StartLightObserver" style="stroke: #A80036; stroke-width: 1.5;" width="278" x="22" y="43"/><ellipse cx="103.75" cy="59" fill="#ADD1B2" rx="11" ry="11" style="stroke: #A80036; stroke-width: 1.0;"/><path d="M106.7231,64.6431 Q106.1421,64.9419 105.5029,65.0913 Q104.8638,65.2407 104.1582,65.2407 Q101.6514,65.2407 100.3315,63.5889 Q99.0117,61.937 99.0117,58.8159 Q99.0117,55.6865 100.3315,54.0347 Q101.6514,52.3828 104.1582,52.3828 Q104.8638,52.3828 105.5112,52.5322 Q106.1587,52.6816 106.7231,52.9805 L106.7231,55.7031 Q106.0923,55.1221 105.4988,54.8523 Q104.9053,54.5825 104.2744,54.5825 Q102.9297,54.5825 102.2449,55.6492 Q101.5601,56.7158 101.5601,58.8159 Q101.5601,60.9077 102.2449,61.9744 Q102.9297,63.041 104.2744,63.041 Q104.9053,63.041 105.4988,62.7712 Q106.0923,62.5015 106.7231,61.9204 Z "/><text fill="#000000" font-family="sans-serif" font-size="12" lengthAdjust="spacingAndGlyphs" textLength="106" x="124.25" y="63.5352">StartLightObserver</text><line style="stroke: #A80036; stroke-width: 1.5;" x1="23" x2="299" y1="75" y2="75"/><line style="stroke: #A80036; stroke-width: 1.5;" x1="23" x2="299" y1="83" y2="83"/><ellipse cx="33" cy="94.9775" fill="#84BE84" rx="3" ry="3" style="stroke: #038048; stroke-width: 1.0;"/><text fill="#000000" font-family="sans-serif" font-size="11" lengthAdjust="spacingAndGlyphs" textLength="252" x="42" y="97.6348">observe(JsonObject): Observable&lt;JsonObject&gt;</text></a><!--class nl.vaneijndhoven.dukes.luke.drag.StoppingZoneDetector--><a href="StoppingZoneDetector.html" target="_top" xlink:actuate="onRequest" xlink:show="new" xlink:title="StoppingZoneDetector.html" xlink:type="simple"><rect fill="#FEFECE" filter="url(#f1u1ibajnw1awk)" height="60.9551" id="nl.vaneijndhoven.dukes.luke.drag.StoppingZoneDetector" style="stroke: #A80036; stroke-width: 1.5;" width="268" x="335" y="43"/><ellipse cx="401.25" cy="59" fill="#ADD1B2" rx="11" ry="11" style="stroke: #A80036; stroke-width: 1.0;"/><path d="M404.2231,64.6431 Q403.6421,64.9419 403.0029,65.0913 Q402.3638,65.2407 401.6582,65.2407 Q399.1514,65.2407 397.8315,63.5889 Q396.5117,61.937 396.5117,58.8159 Q396.5117,55.6865 397.8315,54.0347 Q399.1514,52.3828 401.6582,52.3828 Q402.3638,52.3828 403.0112,52.5322 Q403.6587,52.6816 404.2231,52.9805 L404.2231,55.7031 Q403.5923,55.1221 402.9988,54.8523 Q402.4053,54.5825 401.7744,54.5825 Q400.4297,54.5825 399.7449,55.6492 Q399.0601,56.7158 399.0601,58.8159 Q399.0601,60.9077 399.7449,61.9744 Q400.4297,63.041 401.7744,63.041 Q402.4053,63.041 402.9988,62.7712 Q403.5923,62.5015 404.2231,61.9204 Z "/><text fill="#000000" font-family="sans-serif" font-size="12" lengthAdjust="spacingAndGlyphs" textLength="127" x="421.75" y="63.5352">StoppingZoneDetector</text><line style="stroke: #A80036; stroke-width: 1.5;" x1="336" x2="602" y1="75" y2="75"/><line style="stroke: #A80036; stroke-width: 1.5;" x1="336" x2="602" y1="83" y2="83"/><ellipse cx="346" cy="94.9775" fill="#84BE84" rx="3" ry="3" style="stroke: #038048; stroke-width: 1.0;"/><text fill="#000000" font-family="sans-serif" font-size="11" lengthAdjust="spacingAndGlyphs" textLength="242" x="355" y="97.6348">detect(JsonObject): Observable&lt;JsonObject&gt;</text></a><!--class nl.vaneijndhoven.dukes.luke.drag.StraightLaneNavigator--><a href="StraightLaneNavigator.html" target="_top" xlink:actuate="onRequest" xlink:show="new" xlink:title="StraightLaneNavigator.html" xlink:type="simple"><rect fill="#FEFECE" filter="url(#f1u1ibajnw1awk)" height="60.9551" id="nl.vaneijndhoven.dukes.luke.drag.StraightLaneNavigator" style="stroke: #A80036; stroke-width: 1.5;" width="280" x="22" y="164"/><ellipse cx="95.25" cy="180" fill="#ADD1B2" rx="11" ry="11" style="stroke: #A80036; stroke-width: 1.0;"/><path d="M98.2231,185.6431 Q97.6421,185.9419 97.0029,186.0913 Q96.3638,186.2407 95.6582,186.2407 Q93.1514,186.2407 91.8315,184.5889 Q90.5117,182.937 90.5117,179.8159 Q90.5117,176.6865 91.8315,175.0347 Q93.1514,173.3828 95.6582,173.3828 Q96.3638,173.3828 97.0112,173.5322 Q97.6587,173.6816 98.2231,173.9805 L98.2231,176.7031 Q97.5923,176.1221 96.9988,175.8523 Q96.4053,175.5825 95.7744,175.5825 Q94.4297,175.5825 93.7449,176.6492 Q93.0601,177.7158 93.0601,179.8159 Q93.0601,181.9077 93.7449,182.9744 Q94.4297,184.041 95.7744,184.041 Q96.4053,184.041 96.9988,183.7712 Q97.5923,183.5015 98.2231,182.9204 Z "/><text fill="#000000" font-family="sans-serif" font-size="12" lengthAdjust="spacingAndGlyphs" textLength="125" x="115.75" y="184.5352">StraightLaneNavigator</text><line style="stroke: #A80036; stroke-width: 1.5;" x1="23" x2="301" y1="196" y2="196"/><line style="stroke: #A80036; stroke-width: 1.5;" x1="23" x2="301" y1="204" y2="204"/><ellipse cx="33" cy="215.9775" fill="#84BE84" rx="3" ry="3" style="stroke: #038048; stroke-width: 1.0;"/><text fill="#000000" font-family="sans-serif" font-size="11" lengthAdjust="spacingAndGlyphs" textLength="254" x="42" y="218.6348">navigate(JsonObject): Observable&lt;JsonObject&gt;</text></a><!--link nl.vaneijndhoven.dukes.luke.drag.StartLightObserver to nl.vaneijndhoven.dukes.luke.drag.StoppingZoneDetector--><!--link nl.vaneijndhoven.dukes.luke.drag.StartLightObserver to nl.vaneijndhoven.dukes.luke.drag.StraightLaneNavigator--><text fill="#888888" font-family="sans-serif" font-size="10" lengthAdjust="spacingAndGlyphs" textLength="182" x="227.5" y="260.668">UMLDoclet 1.1.4, PlantUML 1.2019.05</text><!--
@startuml

    namespace nl.vaneijndhoven.dukes.luke.drag {

        class StartLightObserver [[StartLightObserver.html]] {
            +observe(JsonObject): Observable<JsonObject>
        }

        class StoppingZoneDetector [[StoppingZoneDetector.html]] {
            +detect(JsonObject): Observable<JsonObject>
        }

        class StraightLaneNavigator [[StraightLaneNavigator.html]] {
            +navigate(JsonObject): Observable<JsonObject>
        }

    }


    center footer UMLDoclet 1.1.4, PlantUML 1.2019.05
@enduml

PlantUML version 1.2019.05(Sat Apr 20 18:45:36 CEST 2019)
(APACHE source distribution)
Java Runtime: Java(TM) SE Runtime Environment
JVM: Java HotSpot(TM) 64-Bit Server VM
Java Version: 1.8.0_152-b16
Operating System: Mac OS X
OS Version: 10.13.6
Default Encoding: UTF-8
Language: de
Country: DE
--></g></svg>