<?xml version="1.0" encoding="UTF-8" standalone="no"?><svg xmlns="http://www.w3.org/2000/svg" xmlns:xlink="http://www.w3.org/1999/xlink" contentScriptType="application/ecmascript" contentStyleType="text/css" height="102px" preserveAspectRatio="none" style="width:295px;height:102px;" version="1.1" viewBox="0 0 295 102" width="295px" zoomAndPan="magnify"><defs><filter height="300%" id="fumjcdjeuwfgj" width="300%" x="-1" y="-1"><feGaussianBlur result="blurOut" stdDeviation="2.0"/><feColorMatrix in="blurOut" result="blurOut2" type="matrix" values="0 0 0 0 0 0 0 0 0 0 0 0 0 0 0 0 0 0 .4 0"/><feOffset dx="4.0" dy="4.0" in="blurOut2" result="blurOut3"/><feBlend in="SourceGraphic" in2="blurOut3" mode="normal"/></filter></defs><g><!--class StartLightObserver--><a href="StartLightObserver.html" target="_top" xlink:actuate="onRequest" xlink:show="new" xlink:title="StartLightObserver.html" xlink:type="simple"><rect fill="#FEFECE" filter="url(#fumjcdjeuwfgj)" height="60.9551" id="StartLightObserver" style="stroke: #A80036; stroke-width: 1.5;" width="278" x="6" y="8"/><ellipse cx="87.75" cy="24" fill="#ADD1B2" rx="11" ry="11" style="stroke: #A80036; stroke-width: 1.0;"/><path d="M90.7231,29.6431 Q90.1421,29.9419 89.5029,30.0913 Q88.8638,30.2407 88.1582,30.2407 Q85.6514,30.2407 84.3315,28.5889 Q83.0117,26.937 83.0117,23.8159 Q83.0117,20.6865 84.3315,19.0347 Q85.6514,17.3828 88.1582,17.3828 Q88.8638,17.3828 89.5112,17.5322 Q90.1587,17.6816 90.7231,17.9805 L90.7231,20.7031 Q90.0923,20.1221 89.4988,19.8523 Q88.9053,19.5825 88.2744,19.5825 Q86.9297,19.5825 86.2449,20.6492 Q85.5601,21.7158 85.5601,23.8159 Q85.5601,25.9077 86.2449,26.9744 Q86.9297,28.041 88.2744,28.041 Q88.9053,28.041 89.4988,27.7712 Q90.0923,27.5015 90.7231,26.9204 Z "/><text fill="#000000" font-family="sans-serif" font-size="12" lengthAdjust="spacingAndGlyphs" textLength="106" x="108.25" y="28.5352">StartLightObserver</text><line style="stroke: #A80036; stroke-width: 1.5;" x1="7" x2="283" y1="40" y2="40"/><line style="stroke: #A80036; stroke-width: 1.5;" x1="7" x2="283" y1="48" y2="48"/><ellipse cx="17" cy="59.9775" fill="#84BE84" rx="3" ry="3" style="stroke: #038048; stroke-width: 1.0;"/><text fill="#000000" font-family="sans-serif" font-size="11" lengthAdjust="spacingAndGlyphs" textLength="252" x="26" y="62.6348">observe(JsonObject): Observable&lt;JsonObject&gt;</text></a><text fill="#888888" font-family="sans-serif" font-size="10" lengthAdjust="spacingAndGlyphs" textLength="182" x="60" y="88.668">UMLDoclet 1.1.4, PlantUML 1.2019.05</text><!--
@startuml

    class StartLightObserver [[StartLightObserver.html]] {
        +observe(JsonObject): Observable<JsonObject>
    }


    center footer UMLDoclet 1.1.4, PlantUML 1.2019.05
@enduml

PlantUML version 1.2019.05(Sat Apr 20 18:45:36 CEST 2019)
(APACHE source distribution)
Java Runtime: Java(TM) SE Runtime Environment
JVM: Java HotSpot(TM) 64-Bit Server VM
Java Version: 1.8.0_152-b16
Operating System: Mac OS X
OS Version: 10.13.6
Default Encoding: UTF-8
Language: de
Country: DE
--></g></svg>