<?xml version="1.0" encoding="UTF-8" standalone="no"?><svg xmlns="http://www.w3.org/2000/svg" xmlns:xlink="http://www.w3.org/1999/xlink" contentScriptType="application/ecmascript" contentStyleType="text/css" height="232px" preserveAspectRatio="none" style="width:407px;height:232px;" version="1.1" viewBox="0 0 407 232" width="407px" zoomAndPan="magnify"><defs><filter height="300%" id="febyfg7mtwxnf" width="300%" x="-1" y="-1"><feGaussianBlur result="blurOut" stdDeviation="2.0"/><feColorMatrix in="blurOut" result="blurOut2" type="matrix" values="0 0 0 0 0 0 0 0 0 0 0 0 0 0 0 0 0 0 .4 0"/><feOffset dx="4.0" dy="4.0" in="blurOut2" result="blurOut3"/><feBlend in="SourceGraphic" in2="blurOut3" mode="normal"/></filter></defs><g><!--class AdaFruit--><a href="AdaFruit.html" target="_top" xlink:actuate="onRequest" xlink:show="new" xlink:title="AdaFruit.html" xlink:type="simple"><rect fill="#FEFECE" filter="url(#febyfg7mtwxnf)" height="190.5059" id="AdaFruit" style="stroke: #A80036; stroke-width: 1.5;" width="390" x="6" y="8"/><ellipse cx="172.75" cy="24" fill="#ADD1B2" rx="11" ry="11" style="stroke: #A80036; stroke-width: 1.0;"/><path d="M175.7231,29.6431 Q175.1421,29.9419 174.5029,30.0913 Q173.8638,30.2407 173.1582,30.2407 Q170.6514,30.2407 169.3315,28.5889 Q168.0117,26.937 168.0117,23.8159 Q168.0117,20.6865 169.3315,19.0347 Q170.6514,17.3828 173.1582,17.3828 Q173.8638,17.3828 174.5112,17.5322 Q175.1587,17.6816 175.7231,17.9805 L175.7231,20.7031 Q175.0923,20.1221 174.4988,19.8523 Q173.9053,19.5825 173.2744,19.5825 Q171.9297,19.5825 171.2449,20.6492 Q170.5601,21.7158 170.5601,23.8159 Q170.5601,25.9077 171.2449,26.9744 Q171.9297,28.041 173.2744,28.041 Q173.9053,28.041 174.4988,27.7712 Q175.0923,27.5015 175.7231,26.9204 Z "/><text fill="#000000" font-family="sans-serif" font-size="12" lengthAdjust="spacingAndGlyphs" textLength="48" x="193.25" y="28.5352">AdaFruit</text><line style="stroke: #A80036; stroke-width: 1.5;" x1="7" x2="395" y1="40" y2="40"/><polygon fill="none" points="17,46.9775,21,50.9775,17,54.9775,13,50.9775" style="stroke: #B38D22; stroke-width: 1.0;"/><text fill="#000000" font-family="sans-serif" font-size="11" lengthAdjust="spacingAndGlyphs" textLength="122" x="26" y="54.6348">parser: CmdLineParser</text><polygon fill="none" points="17,59.9326,21,63.9326,17,67.9326,13,63.9326" style="stroke: #B38D22; stroke-width: 1.0;"/><text fill="#000000" font-family="sans-serif" font-size="11" lengthAdjust="spacingAndGlyphs" textLength="83" x="26" y="67.5898">debug: boolean</text><polygon fill="none" points="17,72.8877,21,76.8877,17,80.8877,13,76.8877" style="stroke: #B38D22; stroke-width: 1.0;"/><text fill="#000000" font-family="sans-serif" font-size="11" lengthAdjust="spacingAndGlyphs" textLength="40" x="26" y="80.5449">ioId: int</text><polygon fill="none" points="17,85.8428,21,89.8428,17,93.8428,13,89.8428" style="stroke: #B38D22; stroke-width: 1.0;"/><text fill="#000000" font-family="sans-serif" font-size="11" lengthAdjust="spacingAndGlyphs" textLength="48" x="26" y="93.5">value: int</text><line style="stroke: #A80036; stroke-width: 1.5;" x1="7" x2="395" y1="99.8203" y2="99.8203"/><ellipse cx="17" cy="111.7979" fill="#84BE84" rx="3" ry="3" style="stroke: #038048; stroke-width: 1.0;"/><text fill="#000000" font-family="sans-serif" font-size="11" lengthAdjust="spacingAndGlyphs" textLength="54" x="26" y="114.4551">AdaFruit()</text><ellipse cx="17" cy="124.7529" fill="#84BE84" rx="3" ry="3" style="stroke: #038048; stroke-width: 1.0;"/><text fill="#000000" font-family="sans-serif" font-size="11" lengthAdjust="spacingAndGlyphs" textLength="134" x="26" y="127.4102">AdaFruit(double, double)</text><polygon fill="#FFFF44" points="17,132.708,21,136.708,17,140.708,13,136.708" style="stroke: #B38D22; stroke-width: 1.0;"/><text fill="#000000" font-family="sans-serif" font-size="11" lengthAdjust="spacingAndGlyphs" textLength="364" x="26" y="140.3652">provisionPwmOutputs(PCA9685GpioProvider): GpioPinPwmOutput[]</text><ellipse cx="17" cy="150.6631" fill="#84BE84" rx="3" ry="3" style="stroke: #038048; stroke-width: 1.0;"/><text fill="#000000" font-family="sans-serif" font-size="11" lengthAdjust="spacingAndGlyphs" textLength="117" x="26" y="153.3203">setServo(int, int): void</text><ellipse cx="17" cy="163.6182" fill="#84BE84" rx="3" ry="3" style="stroke: #038048; stroke-width: 1.0;"/><text fill="#000000" font-family="sans-serif" font-size="11" lengthAdjust="spacingAndGlyphs" textLength="167" x="26" y="166.2754">parseArguments(String[]): void</text><ellipse cx="17" cy="176.5732" fill="#84BE84" rx="3" ry="3" style="stroke: #038048; stroke-width: 1.0;"/><text fill="#000000" font-family="sans-serif" font-size="11" lengthAdjust="spacingAndGlyphs" textLength="63" x="26" y="179.2305">work(): void</text><ellipse cx="17" cy="189.5283" fill="#84BE84" rx="3" ry="3" style="stroke: #038048; stroke-width: 1.0;"/><text fill="#000000" font-family="sans-serif" font-size="11" lengthAdjust="spacingAndGlyphs" text-decoration="underline" textLength="103" x="26" y="192.1855">main(String[]): void</text></a><text fill="#888888" font-family="sans-serif" font-size="10" lengthAdjust="spacingAndGlyphs" textLength="182" x="116" y="218.668">UMLDoclet 1.1.4, PlantUML 1.2019.05</text><!--
@startuml

    class AdaFruit [[AdaFruit.html]] {
        #parser: CmdLineParser
        #debug: boolean
        #ioId: int
        #value: int
        +AdaFruit()
        +AdaFruit(double, double)
        #provisionPwmOutputs(PCA9685GpioProvider): GpioPinPwmOutput[]
        +setServo(int, int): void
        +parseArguments(String[]): void
        +work(): void
        {static} +main(String[]): void
    }


    center footer UMLDoclet 1.1.4, PlantUML 1.2019.05
@enduml

PlantUML version 1.2019.05(Sat Apr 20 18:45:36 CEST 2019)
(APACHE source distribution)
Java Runtime: Java(TM) SE Runtime Environment
JVM: Java HotSpot(TM) 64-Bit Server VM
Java Version: 1.8.0_152-b16
Operating System: Mac OS X
OS Version: 10.13.6
Default Encoding: UTF-8
Language: de
Country: DE
--></g></svg>