<?xml version="1.0" encoding="UTF-8" standalone="no"?><svg xmlns="http://www.w3.org/2000/svg" xmlns:xlink="http://www.w3.org/1999/xlink" contentScriptType="application/ecmascript" contentStyleType="text/css" height="603px" preserveAspectRatio="none" style="width:527px;height:603px;" version="1.1" viewBox="0 0 527 603" width="527px" zoomAndPan="magnify"><defs><filter height="300%" id="f104g4rryvpeb3" width="300%" x="-1" y="-1"><feGaussianBlur result="blurOut" stdDeviation="2.0"/><feColorMatrix in="blurOut" result="blurOut2" type="matrix" values="0 0 0 0 0 0 0 0 0 0 0 0 0 0 0 0 0 0 .4 0"/><feOffset dx="4.0" dy="4.0" in="blurOut2" result="blurOut3"/><feBlend in="SourceGraphic" in2="blurOut3" mode="normal"/></filter></defs><g><!--cluster nl.vaneijndhoven.opencv.linedetection--><polygon fill="#FFFFFF" filter="url(#f104g4rryvpeb3)" points="14,16,291,16,298,38.4883,505,38.4883,505,562,14,562,14,16" style="stroke: #000000; stroke-width: 1.5;"/><line style="stroke: #000000; stroke-width: 1.5;" x1="14" x2="298" y1="38.4883" y2="38.4883"/><text fill="#000000" font-family="sans-serif" font-size="14" font-weight="bold" lengthAdjust="spacingAndGlyphs" textLength="271" x="18" y="31.5352">nl.vaneijndhoven.opencv.linedetection</text><!--class nl.vaneijndhoven.opencv.linedetection.ProbabilisticHoughLinesLineDetector--><a href="ProbabilisticHoughLinesLineDetector.html" target="_top" xlink:actuate="onRequest" xlink:show="new" xlink:title="ProbabilisticHoughLinesLineDetector.html" xlink:type="simple"><rect fill="#FEFECE" filter="url(#f104g4rryvpeb3)" height="112.7754" id="nl.vaneijndhoven.opencv.linedetection.ProbabilisticHoughLinesLineDetector" style="stroke: #A80036; stroke-width: 1.5;" width="469" x="27.5" y="203"/><ellipse cx="153.75" cy="219" fill="#ADD1B2" rx="11" ry="11" style="stroke: #A80036; stroke-width: 1.0;"/><path d="M156.7231,224.6431 Q156.1421,224.9419 155.5029,225.0913 Q154.8638,225.2407 154.1582,225.2407 Q151.6514,225.2407 150.3315,223.5889 Q149.0117,221.937 149.0117,218.8159 Q149.0117,215.6865 150.3315,214.0347 Q151.6514,212.3828 154.1582,212.3828 Q154.8638,212.3828 155.5112,212.5322 Q156.1587,212.6816 156.7231,212.9805 L156.7231,215.7031 Q156.0923,215.1221 155.4988,214.8523 Q154.9053,214.5825 154.2744,214.5825 Q152.9297,214.5825 152.2449,215.6492 Q151.5601,216.7158 151.5601,218.8159 Q151.5601,220.9077 152.2449,221.9744 Q152.9297,223.041 154.2744,223.041 Q154.9053,223.041 155.4988,222.7712 Q156.0923,222.5015 156.7231,221.9204 Z "/><text fill="#000000" font-family="sans-serif" font-size="12" lengthAdjust="spacingAndGlyphs" textLength="208" x="174.25" y="223.5352">ProbabilisticHoughLinesLineDetector</text><line style="stroke: #A80036; stroke-width: 1.5;" x1="28.5" x2="495.5" y1="235" y2="235"/><line style="stroke: #A80036; stroke-width: 1.5;" x1="28.5" x2="495.5" y1="243" y2="243"/><ellipse cx="38.5" cy="254.9775" fill="#84BE84" rx="3" ry="3" style="stroke: #038048; stroke-width: 1.0;"/><text fill="#000000" font-family="sans-serif" font-size="11" lengthAdjust="spacingAndGlyphs" textLength="206" x="47.5" y="257.6348">ProbabilisticHoughLinesLineDetector()</text><ellipse cx="38.5" cy="267.9326" fill="#84BE84" rx="3" ry="3" style="stroke: #038048; stroke-width: 1.0;"/><text fill="#000000" font-family="sans-serif" font-size="11" lengthAdjust="spacingAndGlyphs" textLength="392" x="47.5" y="270.5898">ProbabilisticHoughLinesLineDetector(double, double, int, double, double)</text><ellipse cx="38.5" cy="280.8877" fill="#84BE84" rx="3" ry="3" style="stroke: #038048; stroke-width: 1.0;"/><text fill="#000000" font-family="sans-serif" font-size="11" lengthAdjust="spacingAndGlyphs" textLength="443" x="47.5" y="283.5449">ProbabilisticHoughLinesLineDetector(ProbabilisticHoughLinesLineDetector.Config)</text><ellipse cx="38.5" cy="293.8428" fill="#84BE84" rx="3" ry="3" style="stroke: #038048; stroke-width: 1.0;"/><text fill="#000000" font-family="sans-serif" font-size="11" lengthAdjust="spacingAndGlyphs" textLength="160" x="47.5" y="296.5">detect(Mat): Collection&lt;Line&gt;</text><ellipse cx="38.5" cy="306.7979" fill="#84BE84" rx="3" ry="3" style="stroke: #038048; stroke-width: 1.0;"/><text fill="#000000" font-family="sans-serif" font-size="11" lengthAdjust="spacingAndGlyphs" textLength="396" x="47.5" y="309.4551">withImageCollector(ImageCollector): ProbabilisticHoughLinesLineDetector</text></a><!--class nl.vaneijndhoven.opencv.linedetection.ProbabilisticHoughLinesLineDetector.Config--><a href="ProbabilisticHoughLinesLineDetector.Config.html" target="_top" xlink:actuate="onRequest" xlink:show="new" xlink:title="ProbabilisticHoughLinesLineDetector.Config.html" xlink:type="simple"><rect fill="#FEFECE" filter="url(#f104g4rryvpeb3)" height="177.5508" id="nl.vaneijndhoven.opencv.linedetection.ProbabilisticHoughLinesLineDetector.Config" style="stroke: #A80036; stroke-width: 1.5;" width="280" x="122" y="376"/><ellipse cx="137" cy="392" fill="#ADD1B2" rx="11" ry="11" style="stroke: #A80036; stroke-width: 1.0;"/><path d="M139.9731,397.6431 Q139.3921,397.9419 138.7529,398.0913 Q138.1138,398.2407 137.4082,398.2407 Q134.9014,398.2407 133.5815,396.5889 Q132.2617,394.937 132.2617,391.8159 Q132.2617,388.6865 133.5815,387.0347 Q134.9014,385.3828 137.4082,385.3828 Q138.1138,385.3828 138.7612,385.5322 Q139.4087,385.6816 139.9731,385.9805 L139.9731,388.7031 Q139.3423,388.1221 138.7488,387.8523 Q138.1553,387.5825 137.5244,387.5825 Q136.1797,387.5825 135.4949,388.6492 Q134.8101,389.7158 134.8101,391.8159 Q134.8101,393.9077 135.4949,394.9744 Q136.1797,396.041 137.5244,396.041 Q138.1553,396.041 138.7488,395.7712 Q139.3423,395.5015 139.9731,394.9204 Z "/><text fill="#000000" font-family="sans-serif" font-size="12" lengthAdjust="spacingAndGlyphs" textLength="248" x="151" y="396.5352">ProbabilisticHoughLinesLineDetector.Config</text><line style="stroke: #A80036; stroke-width: 1.5;" x1="123" x2="401" y1="408" y2="408"/><line style="stroke: #A80036; stroke-width: 1.5;" x1="123" x2="401" y1="416" y2="416"/><ellipse cx="133" cy="427.9775" fill="#84BE84" rx="3" ry="3" style="stroke: #038048; stroke-width: 1.0;"/><text fill="#000000" font-family="sans-serif" font-size="11" lengthAdjust="spacingAndGlyphs" textLength="89" x="142" y="430.6348">getRho(): double</text><ellipse cx="133" cy="440.9326" fill="#84BE84" rx="3" ry="3" style="stroke: #038048; stroke-width: 1.0;"/><text fill="#000000" font-family="sans-serif" font-size="11" lengthAdjust="spacingAndGlyphs" textLength="111" x="142" y="443.5898">setRho(double): void</text><ellipse cx="133" cy="453.8877" fill="#84BE84" rx="3" ry="3" style="stroke: #038048; stroke-width: 1.0;"/><text fill="#000000" font-family="sans-serif" font-size="11" lengthAdjust="spacingAndGlyphs" textLength="98" x="142" y="456.5449">getTheta(): double</text><ellipse cx="133" cy="466.8428" fill="#84BE84" rx="3" ry="3" style="stroke: #038048; stroke-width: 1.0;"/><text fill="#000000" font-family="sans-serif" font-size="11" lengthAdjust="spacingAndGlyphs" textLength="120" x="142" y="469.5">setTheta(double): void</text><ellipse cx="133" cy="479.7979" fill="#84BE84" rx="3" ry="3" style="stroke: #038048; stroke-width: 1.0;"/><text fill="#000000" font-family="sans-serif" font-size="11" lengthAdjust="spacingAndGlyphs" textLength="100" x="142" y="482.4551">getThreshold(): int</text><ellipse cx="133" cy="492.7529" fill="#84BE84" rx="3" ry="3" style="stroke: #038048; stroke-width: 1.0;"/><text fill="#000000" font-family="sans-serif" font-size="11" lengthAdjust="spacingAndGlyphs" textLength="122" x="142" y="495.4102">setThreshold(int): void</text><ellipse cx="133" cy="505.708" fill="#84BE84" rx="3" ry="3" style="stroke: #038048; stroke-width: 1.0;"/><text fill="#000000" font-family="sans-serif" font-size="11" lengthAdjust="spacingAndGlyphs" textLength="146" x="142" y="508.3652">getMinLineLength(): double</text><ellipse cx="133" cy="518.6631" fill="#84BE84" rx="3" ry="3" style="stroke: #038048; stroke-width: 1.0;"/><text fill="#000000" font-family="sans-serif" font-size="11" lengthAdjust="spacingAndGlyphs" textLength="168" x="142" y="521.3203">setMinLineLength(double): void</text><ellipse cx="133" cy="531.6182" fill="#84BE84" rx="3" ry="3" style="stroke: #038048; stroke-width: 1.0;"/><text fill="#000000" font-family="sans-serif" font-size="11" lengthAdjust="spacingAndGlyphs" textLength="133" x="142" y="534.2754">getMaxLineGap(): double</text><ellipse cx="133" cy="544.5732" fill="#84BE84" rx="3" ry="3" style="stroke: #038048; stroke-width: 1.0;"/><text fill="#000000" font-family="sans-serif" font-size="11" lengthAdjust="spacingAndGlyphs" textLength="155" x="142" y="547.2305">setMaxLineGap(double): void</text></a><!--class nl.vaneijndhoven.opencv.linedetection.LineDetector--><a href="LineDetector.html" target="_top" xlink:actuate="onRequest" xlink:show="new" xlink:title="LineDetector.html" xlink:type="simple"><rect fill="#FEFECE" filter="url(#f104g4rryvpeb3)" height="60.9551" id="nl.vaneijndhoven.opencv.linedetection.LineDetector" style="stroke: #A80036; stroke-width: 1.5;" width="186" x="311" y="62.5"/><ellipse cx="363.75" cy="78.5" fill="#B4A7E5" rx="11" ry="11" style="stroke: #A80036; stroke-width: 1.0;"/><path d="M359.6777,74.2651 L359.6777,72.1069 L367.0571,72.1069 L367.0571,74.2651 L364.5918,74.2651 L364.5918,82.3418 L367.0571,82.3418 L367.0571,84.5 L359.6777,84.5 L359.6777,82.3418 L362.1431,82.3418 L362.1431,74.2651 Z "/><text fill="#000000" font-family="sans-serif" font-size="12" font-style="italic" lengthAdjust="spacingAndGlyphs" textLength="72" x="384.25" y="83.0352">LineDetector</text><line style="stroke: #A80036; stroke-width: 1.5;" x1="312" x2="496" y1="94.5" y2="94.5"/><line style="stroke: #A80036; stroke-width: 1.5;" x1="312" x2="496" y1="102.5" y2="102.5"/><ellipse cx="322" cy="114.4775" fill="#84BE84" rx="3" ry="3" style="stroke: #038048; stroke-width: 1.0;"/><text fill="#000000" font-family="sans-serif" font-size="11" font-style="italic" lengthAdjust="spacingAndGlyphs" textLength="160" x="331" y="117.1348">detect(Mat): Collection&lt;Line&gt;</text></a><!--class nl.vaneijndhoven.opencv.linedetection.LineFilter--><a href="LineFilter.html" target="_top" xlink:actuate="onRequest" xlink:show="new" xlink:title="LineFilter.html" xlink:type="simple"><rect fill="#FEFECE" filter="url(#f104g4rryvpeb3)" height="99.8203" id="nl.vaneijndhoven.opencv.linedetection.LineFilter" style="stroke: #A80036; stroke-width: 1.5;" width="253" x="22.5" y="43"/><ellipse cx="119.25" cy="59" fill="#ADD1B2" rx="11" ry="11" style="stroke: #A80036; stroke-width: 1.0;"/><path d="M122.2231,64.6431 Q121.6421,64.9419 121.0029,65.0913 Q120.3638,65.2407 119.6582,65.2407 Q117.1514,65.2407 115.8315,63.5889 Q114.5117,61.937 114.5117,58.8159 Q114.5117,55.6865 115.8315,54.0347 Q117.1514,52.3828 119.6582,52.3828 Q120.3638,52.3828 121.0112,52.5322 Q121.6587,52.6816 122.2231,52.9805 L122.2231,55.7031 Q121.5923,55.1221 120.9988,54.8523 Q120.4053,54.5825 119.7744,54.5825 Q118.4297,54.5825 117.7449,55.6492 Q117.0601,56.7158 117.0601,58.8159 Q117.0601,60.9077 117.7449,61.9744 Q118.4297,63.041 119.7744,63.041 Q120.4053,63.041 120.9988,62.7712 Q121.5923,62.5015 122.2231,61.9204 Z "/><text fill="#000000" font-family="sans-serif" font-size="12" lengthAdjust="spacingAndGlyphs" textLength="51" x="139.75" y="63.5352">LineFilter</text><line style="stroke: #A80036; stroke-width: 1.5;" x1="23.5" x2="274.5" y1="75" y2="75"/><line style="stroke: #A80036; stroke-width: 1.5;" x1="23.5" x2="274.5" y1="83" y2="83"/><ellipse cx="33.5" cy="94.9775" fill="#84BE84" rx="3" ry="3" style="stroke: #038048; stroke-width: 1.0;"/><text fill="#000000" font-family="sans-serif" font-size="11" lengthAdjust="spacingAndGlyphs" textLength="186" x="42.5" y="97.6348">LineFilter(double, double, boolean)</text><ellipse cx="33.5" cy="107.9326" fill="#84BE84" rx="3" ry="3" style="stroke: #038048; stroke-width: 1.0;"/><text fill="#000000" font-family="sans-serif" font-size="11" lengthAdjust="spacingAndGlyphs" textLength="152" x="42.5" y="110.5898">filter(Mat): Collection&lt;Line&gt;</text><ellipse cx="33.5" cy="120.8877" fill="#84BE84" rx="3" ry="3" style="stroke: #038048; stroke-width: 1.0;"/><text fill="#000000" font-family="sans-serif" font-size="11" lengthAdjust="spacingAndGlyphs" textLength="227" x="42.5" y="123.5449">filter(Collection&lt;Line&gt;): Collection&lt;Line&gt;</text><ellipse cx="33.5" cy="133.8428" fill="#84BE84" rx="3" ry="3" style="stroke: #038048; stroke-width: 1.0;"/><text fill="#000000" font-family="sans-serif" font-size="11" lengthAdjust="spacingAndGlyphs" textLength="90" x="42.5" y="136.5">debug(Mat): void</text></a><!--link nl.vaneijndhoven.opencv.linedetection.LineDetector to nl.vaneijndhoven.opencv.linedetection.ProbabilisticHoughLinesLineDetector--><path d="M364.8826,138.8666 C347.9984,158.6639 328.0781,182.0211 310.2853,202.8838 " fill="none" id="nl.vaneijndhoven.opencv.linedetection.LineDetector-nl.vaneijndhoven.opencv.linedetection.ProbabilisticHoughLinesLineDetector" style="stroke: #A80036; stroke-width: 1.0; stroke-dasharray: 7.0,7.0;"/><polygon fill="none" points="359.6507,134.2137,377.955,123.5387,370.3029,143.2984,359.6507,134.2137" style="stroke: #A80036; stroke-width: 1.0;"/><!--link nl.vaneijndhoven.opencv.linedetection.ProbabilisticHoughLinesLineDetector to nl.vaneijndhoven.opencv.linedetection.ProbabilisticHoughLinesLineDetector.Config--><path d="M262,331.3385 C262,345.6668 262,360.8793 262,375.7111 " fill="none" id="nl.vaneijndhoven.opencv.linedetection.ProbabilisticHoughLinesLineDetector-nl.vaneijndhoven.opencv.linedetection.ProbabilisticHoughLinesLineDetector.Config" style="stroke: #A80036; stroke-width: 1.0;"/><ellipse cx="262.0001" cy="324.1978" fill="#FFFFFF" rx="8" ry="8" style="stroke: #A80036; stroke-width: 1.0;"/><line style="stroke: #A80036; stroke-width: 1.0;" x1="262.0002" x2="262" y1="332.1978" y2="316.1978"/><line style="stroke: #A80036; stroke-width: 1.0;" x1="254.0001" x2="270.0001" y1="324.1979" y2="324.1977"/><text fill="#888888" font-family="sans-serif" font-size="10" lengthAdjust="spacingAndGlyphs" textLength="182" x="174.5" y="589.668">UMLDoclet 1.1.4, PlantUML 1.2019.05</text><!--
@startuml

    namespace nl.vaneijndhoven.opencv.linedetection {

        class ProbabilisticHoughLinesLineDetector [[ProbabilisticHoughLinesLineDetector.html]] {
            +ProbabilisticHoughLinesLineDetector()
            +ProbabilisticHoughLinesLineDetector(double, double, int, double, double)
            +ProbabilisticHoughLinesLineDetector(ProbabilisticHoughLinesLineDetector.Config)
            +detect(Mat): Collection<Line>
            +withImageCollector(ImageCollector): ProbabilisticHoughLinesLineDetector
        }

        class nl.vaneijndhoven.opencv.linedetection.ProbabilisticHoughLinesLineDetector.Config [[ProbabilisticHoughLinesLineDetector.Config.html]] {
            +getRho(): double
            +setRho(double): void
            +getTheta(): double
            +setTheta(double): void
            +getThreshold(): int
            +setThreshold(int): void
            +getMinLineLength(): double
            +setMinLineLength(double): void
            +getMaxLineGap(): double
            +setMaxLineGap(double): void
        }

        interface LineDetector [[LineDetector.html]] {
            {abstract} +detect(Mat): Collection<Line>
        }

        class LineFilter [[LineFilter.html]] {
            +LineFilter(double, double, boolean)
            +filter(Mat): Collection<Line>
            +filter(Collection<Line>): Collection<Line>
            +debug(Mat): void
        }

        LineDetector <|.. ProbabilisticHoughLinesLineDetector

        ProbabilisticHoughLinesLineDetector +- - nl.vaneijndhoven.opencv.linedetection.ProbabilisticHoughLinesLineDetector.Config

    }


    center footer UMLDoclet 1.1.4, PlantUML 1.2019.05
@enduml

PlantUML version 1.2019.05(Sat Apr 20 18:45:36 CEST 2019)
(APACHE source distribution)
Java Runtime: Java(TM) SE Runtime Environment
JVM: Java HotSpot(TM) 64-Bit Server VM
Java Version: 1.8.0_152-b16
Operating System: Mac OS X
OS Version: 10.13.6
Default Encoding: UTF-8
Language: de
Country: DE
--></g></svg>